%TF.GenerationSoftware,KiCad,Pcbnew,7.99.0-3539-g7abe2e3ea0*%
%TF.CreationDate,2023-11-26T19:51:46+01:00*%
%TF.ProjectId,SBC,5342432e-6b69-4636-9164-5f7063625858,rev?*%
%TF.SameCoordinates,Original*%
%TF.FileFunction,Soldermask,Bot*%
%TF.FilePolarity,Negative*%
%FSLAX46Y46*%
G04 Gerber Fmt 4.6, Leading zero omitted, Abs format (unit mm)*
G04 Created by KiCad (PCBNEW 7.99.0-3539-g7abe2e3ea0) date 2023-11-26 19:51:46*
%MOMM*%
%LPD*%
G01*
G04 APERTURE LIST*
G04 Aperture macros list*
%AMRoundRect*
0 Rectangle with rounded corners*
0 $1 Rounding radius*
0 $2 $3 $4 $5 $6 $7 $8 $9 X,Y pos of 4 corners*
0 Add a 4 corners polygon primitive as box body*
4,1,4,$2,$3,$4,$5,$6,$7,$8,$9,$2,$3,0*
0 Add four circle primitives for the rounded corners*
1,1,$1+$1,$2,$3*
1,1,$1+$1,$4,$5*
1,1,$1+$1,$6,$7*
1,1,$1+$1,$8,$9*
0 Add four rect primitives between the rounded corners*
20,1,$1+$1,$2,$3,$4,$5,0*
20,1,$1+$1,$4,$5,$6,$7,0*
20,1,$1+$1,$6,$7,$8,$9,0*
20,1,$1+$1,$8,$9,$2,$3,0*%
G04 Aperture macros list end*
%ADD10C,1.000000*%
%ADD11RoundRect,0.250000X-0.350000X0.350000X-0.350000X-0.350000X0.350000X-0.350000X0.350000X0.350000X0*%
%ADD12C,1.200000*%
%ADD13C,0.300000*%
%ADD14C,3.100000*%
%ADD15C,4.700000*%
%ADD16RoundRect,0.140000X-0.170000X0.140000X-0.170000X-0.140000X0.170000X-0.140000X0.170000X0.140000X0*%
%ADD17RoundRect,0.100000X0.130000X0.100000X-0.130000X0.100000X-0.130000X-0.100000X0.130000X-0.100000X0*%
%ADD18RoundRect,0.135000X-0.185000X0.135000X-0.185000X-0.135000X0.185000X-0.135000X0.185000X0.135000X0*%
%ADD19RoundRect,0.140000X0.140000X0.170000X-0.140000X0.170000X-0.140000X-0.170000X0.140000X-0.170000X0*%
%ADD20RoundRect,0.100000X-0.100000X0.130000X-0.100000X-0.130000X0.100000X-0.130000X0.100000X0.130000X0*%
%ADD21RoundRect,0.135000X-0.135000X-0.185000X0.135000X-0.185000X0.135000X0.185000X-0.135000X0.185000X0*%
%ADD22RoundRect,0.100000X-0.130000X-0.100000X0.130000X-0.100000X0.130000X0.100000X-0.130000X0.100000X0*%
%ADD23RoundRect,0.100000X0.100000X-0.130000X0.100000X0.130000X-0.100000X0.130000X-0.100000X-0.130000X0*%
%ADD24RoundRect,0.135000X0.135000X0.185000X-0.135000X0.185000X-0.135000X-0.185000X0.135000X-0.185000X0*%
%ADD25RoundRect,0.140000X-0.140000X-0.170000X0.140000X-0.170000X0.140000X0.170000X-0.140000X0.170000X0*%
%ADD26C,1.600000*%
%ADD27C,0.900000*%
%ADD28R,1.400000X3.300000*%
%ADD29R,0.250000X0.850000*%
%ADD30R,0.450000X1.200000*%
%ADD31R,0.300000X1.200000*%
%ADD32RoundRect,0.135000X0.185000X-0.135000X0.185000X0.135000X-0.185000X0.135000X-0.185000X-0.135000X0*%
%ADD33RoundRect,0.140000X0.170000X-0.140000X0.170000X0.140000X-0.170000X0.140000X-0.170000X-0.140000X0*%
%ADD34RoundRect,0.225000X-0.250000X0.225000X-0.250000X-0.225000X0.250000X-0.225000X0.250000X0.225000X0*%
%ADD35RoundRect,0.160000X-0.197500X-0.160000X0.197500X-0.160000X0.197500X0.160000X-0.197500X0.160000X0*%
%ADD36RoundRect,0.150000X0.825000X0.150000X-0.825000X0.150000X-0.825000X-0.150000X0.825000X-0.150000X0*%
%ADD37RoundRect,0.250000X0.650000X-0.325000X0.650000X0.325000X-0.650000X0.325000X-0.650000X-0.325000X0*%
%ADD38RoundRect,0.100000X-0.021213X-0.162635X0.162635X0.021213X0.021213X0.162635X-0.162635X-0.021213X0*%
%ADD39RoundRect,0.250000X-1.000000X-0.650000X1.000000X-0.650000X1.000000X0.650000X-1.000000X0.650000X0*%
%ADD40RoundRect,0.250000X-0.650000X0.325000X-0.650000X-0.325000X0.650000X-0.325000X0.650000X0.325000X0*%
%ADD41RoundRect,0.135000X0.226274X0.035355X0.035355X0.226274X-0.226274X-0.035355X-0.035355X-0.226274X0*%
%ADD42RoundRect,0.225000X0.250000X-0.225000X0.250000X0.225000X-0.250000X0.225000X-0.250000X-0.225000X0*%
%ADD43RoundRect,0.100000X-0.162635X0.021213X0.021213X-0.162635X0.162635X-0.021213X-0.021213X0.162635X0*%
%ADD44RoundRect,0.135000X0.035355X-0.226274X0.226274X-0.035355X-0.035355X0.226274X-0.226274X0.035355X0*%
%ADD45RoundRect,0.100000X0.162635X-0.021213X-0.021213X0.162635X-0.162635X0.021213X0.021213X-0.162635X0*%
%ADD46RoundRect,0.218750X-0.218750X-0.256250X0.218750X-0.256250X0.218750X0.256250X-0.218750X0.256250X0*%
%ADD47RoundRect,0.147500X0.172500X-0.147500X0.172500X0.147500X-0.172500X0.147500X-0.172500X-0.147500X0*%
G04 APERTURE END LIST*
D10*
X57565481Y-77545014D02*
X141565481Y-77545014D01*
X141565481Y-132545014D01*
X57565481Y-132545014D01*
X57565481Y-77545014D01*
D11*
%TO.C,J2*%
X62677481Y-94118014D03*
D12*
X60677481Y-94118014D03*
X62677481Y-96118014D03*
X60677481Y-96118014D03*
X62677481Y-98118014D03*
X60677481Y-98118014D03*
X62677481Y-100118014D03*
X60677481Y-100118014D03*
X62677481Y-102118014D03*
X60677481Y-102118014D03*
%TD*%
D13*
%TO.C,U6*%
X68720000Y-105630400D03*
X69220000Y-105630400D03*
X69720000Y-105630400D03*
X68720000Y-104630400D03*
X69220000Y-104630400D03*
X69720000Y-104630400D03*
%TD*%
D14*
%TO.C,H3*%
X61565481Y-81545014D03*
D15*
X61565481Y-81545014D03*
%TD*%
D14*
%TO.C,H1*%
X137565481Y-81545014D03*
D15*
X137565481Y-81545014D03*
%TD*%
D14*
%TO.C,H2*%
X61565481Y-128545014D03*
D15*
X61565481Y-128545014D03*
%TD*%
D14*
%TO.C,H4*%
X137565481Y-128545014D03*
D15*
X137565481Y-128545014D03*
%TD*%
D16*
%TO.C,C141*%
X93665481Y-113869200D03*
X93665481Y-114829200D03*
%TD*%
D17*
%TO.C,C113*%
X71935481Y-97395014D03*
X71295481Y-97395014D03*
%TD*%
%TO.C,C190*%
X97913495Y-112433020D03*
X97273495Y-112433020D03*
%TD*%
D18*
%TO.C,R36*%
X86320000Y-111080400D03*
X86320000Y-112100400D03*
%TD*%
D19*
%TO.C,C5*%
X125873462Y-88557528D03*
X124913462Y-88557528D03*
%TD*%
D20*
%TO.C,C158*%
X110165481Y-91675014D03*
X110165481Y-92315014D03*
%TD*%
D21*
%TO.C,R50*%
X106610000Y-121730400D03*
X107630000Y-121730400D03*
%TD*%
D22*
%TO.C,C135*%
X98201881Y-108695014D03*
X98841881Y-108695014D03*
%TD*%
D23*
%TO.C,C214*%
X101315481Y-104943790D03*
X101315481Y-104303790D03*
%TD*%
D24*
%TO.C,R61*%
X79260000Y-114225000D03*
X78240000Y-114225000D03*
%TD*%
D25*
%TO.C,C257*%
X77445000Y-112825000D03*
X78405000Y-112825000D03*
%TD*%
D17*
%TO.C,C160*%
X99911205Y-115569920D03*
X99271205Y-115569920D03*
%TD*%
D16*
%TO.C,C10*%
X129643462Y-89627528D03*
X129643462Y-90587528D03*
%TD*%
D23*
%TO.C,C219*%
X92068000Y-112619200D03*
X92068000Y-111979200D03*
%TD*%
%TO.C,C172*%
X99921405Y-107494585D03*
X99921405Y-106854585D03*
%TD*%
D26*
%TO.C,J1*%
X131765481Y-126545014D03*
D27*
X74065481Y-126545014D03*
D28*
X133615481Y-126545014D03*
D29*
X132790481Y-125320014D03*
X132790481Y-127770014D03*
D28*
X72215481Y-126545014D03*
D29*
X73040481Y-125320014D03*
X73040481Y-127770014D03*
D30*
X75590481Y-123845014D03*
D31*
X76165481Y-123845014D03*
X76665481Y-123845014D03*
X77165481Y-123845014D03*
X77665481Y-123845014D03*
X78165481Y-123845014D03*
X78665481Y-123845014D03*
X79165481Y-123845014D03*
X79665481Y-123845014D03*
X80165481Y-123845014D03*
X80665481Y-123845014D03*
X81165481Y-123845014D03*
X81665481Y-123845014D03*
X82165481Y-123845014D03*
X82665481Y-123845014D03*
X83165481Y-123845014D03*
X83665481Y-123845014D03*
X84165481Y-123845014D03*
X84665481Y-123845014D03*
X85165481Y-123845014D03*
X85665481Y-123845014D03*
X86165481Y-123845014D03*
X86665481Y-123845014D03*
X87165481Y-123845014D03*
X87665481Y-123845014D03*
X88165481Y-123845014D03*
X88665481Y-123845014D03*
X89165481Y-123845014D03*
X89665481Y-123845014D03*
X90165481Y-123845014D03*
X90665481Y-123845014D03*
X91165481Y-123845014D03*
X91665481Y-123845014D03*
X92165481Y-123845014D03*
X92665481Y-123845014D03*
X93165481Y-123845014D03*
X93665481Y-123845014D03*
X94165481Y-123845014D03*
X94665481Y-123845014D03*
X95165481Y-123845014D03*
X95665481Y-123845014D03*
X96165481Y-123845014D03*
X96665481Y-123845014D03*
X97165481Y-123845014D03*
X97665481Y-123845014D03*
X98165481Y-123845014D03*
X98665481Y-123845014D03*
X99165481Y-123845014D03*
X99665481Y-123845014D03*
X100165481Y-123845014D03*
X100665481Y-123845014D03*
X101165481Y-123845014D03*
X101665481Y-123845014D03*
X102165481Y-123845014D03*
X102665481Y-123845014D03*
X103165481Y-123845014D03*
X103665481Y-123845014D03*
X104165481Y-123845014D03*
X104665481Y-123845014D03*
X105165481Y-123845014D03*
X105665481Y-123845014D03*
X106165481Y-123845014D03*
X106665481Y-123845014D03*
X107165481Y-123845014D03*
X107665481Y-123845014D03*
X108165481Y-123845014D03*
X108665481Y-123845014D03*
X109165481Y-123845014D03*
X109665481Y-123845014D03*
X110165481Y-123845014D03*
X110665481Y-123845014D03*
X111165481Y-123845014D03*
X111665481Y-123845014D03*
X112165481Y-123845014D03*
X112665481Y-123845014D03*
X113165481Y-123845014D03*
X113665481Y-123845014D03*
X114165481Y-123845014D03*
X114665481Y-123845014D03*
X115165481Y-123845014D03*
X115665481Y-123845014D03*
X116165481Y-123845014D03*
X116665481Y-123845014D03*
X117165481Y-123845014D03*
X117665481Y-123845014D03*
X118165481Y-123845014D03*
X118665481Y-123845014D03*
X119165481Y-123845014D03*
X119665481Y-123845014D03*
X120165481Y-123845014D03*
X120665481Y-123845014D03*
X121165481Y-123845014D03*
X121665481Y-123845014D03*
X122165481Y-123845014D03*
X122665481Y-123845014D03*
X123165481Y-123845014D03*
X123665481Y-123845014D03*
X124165481Y-123845014D03*
X124665481Y-123845014D03*
X125165481Y-123845014D03*
X125665481Y-123845014D03*
X126165481Y-123845014D03*
X126665481Y-123845014D03*
X127165481Y-123845014D03*
X127665481Y-123845014D03*
X128165481Y-123845014D03*
X128665481Y-123845014D03*
X129165481Y-123845014D03*
X129665481Y-123845014D03*
D30*
X130240481Y-123845014D03*
X75590481Y-129245014D03*
D31*
X76165481Y-129245014D03*
X76665481Y-129245014D03*
X77165481Y-129245014D03*
X77665481Y-129245014D03*
X78165481Y-129245014D03*
X78665481Y-129245014D03*
X79165481Y-129245014D03*
X79665481Y-129245014D03*
X80165481Y-129245014D03*
X80665481Y-129245014D03*
X81165481Y-129245014D03*
X81665481Y-129245014D03*
X82165481Y-129245014D03*
X82665481Y-129245014D03*
X83165481Y-129245014D03*
X83665481Y-129245014D03*
X84165481Y-129245014D03*
X84665481Y-129245014D03*
X85165481Y-129245014D03*
X85665481Y-129245014D03*
X86165481Y-129245014D03*
X86665481Y-129245014D03*
X87165481Y-129245014D03*
X87665481Y-129245014D03*
X88165481Y-129245014D03*
X88665481Y-129245014D03*
X89165481Y-129245014D03*
X89665481Y-129245014D03*
X90165481Y-129245014D03*
X90665481Y-129245014D03*
X91165481Y-129245014D03*
X91665481Y-129245014D03*
X92165481Y-129245014D03*
X92665481Y-129245014D03*
X93165481Y-129245014D03*
X93665481Y-129245014D03*
X94165481Y-129245014D03*
X94665481Y-129245014D03*
X95165481Y-129245014D03*
X95665481Y-129245014D03*
X96165481Y-129245014D03*
X96665481Y-129245014D03*
X97165481Y-129245014D03*
X97665481Y-129245014D03*
X98165481Y-129245014D03*
X98665481Y-129245014D03*
X99165481Y-129245014D03*
X99665481Y-129245014D03*
X100165481Y-129245014D03*
X100665481Y-129245014D03*
X101165481Y-129245014D03*
X101665481Y-129245014D03*
X102165481Y-129245014D03*
X102665481Y-129245014D03*
X103165481Y-129245014D03*
X103665481Y-129245014D03*
X104165481Y-129245014D03*
X104665481Y-129245014D03*
X105165481Y-129245014D03*
X105665481Y-129245014D03*
X106165481Y-129245014D03*
X106665481Y-129245014D03*
X107165481Y-129245014D03*
X107665481Y-129245014D03*
X108165481Y-129245014D03*
X108665481Y-129245014D03*
X109165481Y-129245014D03*
X109665481Y-129245014D03*
X110165481Y-129245014D03*
X110665481Y-129245014D03*
X111165481Y-129245014D03*
X111665481Y-129245014D03*
X112165481Y-129245014D03*
X112665481Y-129245014D03*
X113165481Y-129245014D03*
X113665481Y-129245014D03*
X114165481Y-129245014D03*
X114665481Y-129245014D03*
X115165481Y-129245014D03*
X115665481Y-129245014D03*
X116165481Y-129245014D03*
X116665481Y-129245014D03*
X117165481Y-129245014D03*
X117665481Y-129245014D03*
X118165481Y-129245014D03*
X118665481Y-129245014D03*
X119165481Y-129245014D03*
X119665481Y-129245014D03*
X120165481Y-129245014D03*
X120665481Y-129245014D03*
X121165481Y-129245014D03*
X121665481Y-129245014D03*
X122165481Y-129245014D03*
X122665481Y-129245014D03*
X123165481Y-129245014D03*
X123665481Y-129245014D03*
X124165481Y-129245014D03*
X124665481Y-129245014D03*
X125165481Y-129245014D03*
X125665481Y-129245014D03*
X126165481Y-129245014D03*
X126665481Y-129245014D03*
X127165481Y-129245014D03*
X127665481Y-129245014D03*
X128165481Y-129245014D03*
X128665481Y-129245014D03*
X129165481Y-129245014D03*
X129665481Y-129245014D03*
D30*
X130240481Y-129245014D03*
%TD*%
D23*
%TO.C,C182*%
X101167910Y-108138475D03*
X101167910Y-107498475D03*
%TD*%
D17*
%TO.C,C196*%
X96479681Y-107376614D03*
X95839681Y-107376614D03*
%TD*%
D18*
%TO.C,R37*%
X86920000Y-102845400D03*
X86920000Y-103865400D03*
%TD*%
D19*
%TO.C,C281*%
X70900000Y-116180400D03*
X69940000Y-116180400D03*
%TD*%
D20*
%TO.C,C189*%
X92865481Y-114175014D03*
X92865481Y-114815014D03*
%TD*%
D22*
%TO.C,C185*%
X95855921Y-110113683D03*
X96495921Y-110113683D03*
%TD*%
D17*
%TO.C,C104*%
X91535481Y-107545014D03*
X90895481Y-107545014D03*
%TD*%
D20*
%TO.C,C91*%
X98015481Y-118725014D03*
X98015481Y-119365014D03*
%TD*%
D17*
%TO.C,C200*%
X93015481Y-101135014D03*
X92375481Y-101135014D03*
%TD*%
D22*
%TO.C,C249*%
X79145481Y-98645014D03*
X79785481Y-98645014D03*
%TD*%
D17*
%TO.C,C161*%
X100695430Y-108982430D03*
X100055430Y-108982430D03*
%TD*%
D32*
%TO.C,R80*%
X68547981Y-120715414D03*
X68547981Y-119695414D03*
%TD*%
D23*
%TO.C,C228*%
X105480400Y-110406800D03*
X105480400Y-109766800D03*
%TD*%
D21*
%TO.C,R59*%
X133288462Y-89325028D03*
X134308462Y-89325028D03*
%TD*%
D25*
%TO.C,C187*%
X84885481Y-104695014D03*
X85845481Y-104695014D03*
%TD*%
D33*
%TO.C,C12*%
X129793462Y-85350028D03*
X129793462Y-84390028D03*
%TD*%
D22*
%TO.C,C89*%
X90175481Y-105045014D03*
X90815481Y-105045014D03*
%TD*%
D23*
%TO.C,C157*%
X94515481Y-113665014D03*
X94515481Y-113025014D03*
%TD*%
D22*
%TO.C,C183*%
X101285425Y-117212665D03*
X101925425Y-117212665D03*
%TD*%
D25*
%TO.C,C268*%
X63515000Y-115455400D03*
X64475000Y-115455400D03*
%TD*%
D17*
%TO.C,C153*%
X101826365Y-114026235D03*
X101186365Y-114026235D03*
%TD*%
D34*
%TO.C,C229*%
X108637513Y-111151881D03*
X108637513Y-112701881D03*
%TD*%
D22*
%TO.C,C98*%
X89495481Y-108295014D03*
X90135481Y-108295014D03*
%TD*%
D23*
%TO.C,C223*%
X100615481Y-104943790D03*
X100615481Y-104303790D03*
%TD*%
%TO.C,C176*%
X94191800Y-112362632D03*
X94191800Y-111722632D03*
%TD*%
%TO.C,C240*%
X111883000Y-105024200D03*
X111883000Y-104384200D03*
%TD*%
D20*
%TO.C,C238*%
X114620000Y-116410400D03*
X114620000Y-117050400D03*
%TD*%
D23*
%TO.C,C207*%
X94903000Y-112265014D03*
X94903000Y-111625014D03*
%TD*%
D20*
%TO.C,C165*%
X96015481Y-118700014D03*
X96015481Y-119340014D03*
%TD*%
D23*
%TO.C,C136*%
X90865481Y-112265014D03*
X90865481Y-111625014D03*
%TD*%
D18*
%TO.C,R57*%
X104464400Y-111151600D03*
X104464400Y-112171600D03*
%TD*%
D24*
%TO.C,R62*%
X78520000Y-110892900D03*
X77500000Y-110892900D03*
%TD*%
D17*
%TO.C,C194*%
X96489301Y-112193369D03*
X95849301Y-112193369D03*
%TD*%
%TO.C,C71*%
X98156081Y-122311814D03*
X97516081Y-122311814D03*
%TD*%
D33*
%TO.C,C177*%
X94812400Y-109327600D03*
X94812400Y-108367600D03*
%TD*%
D19*
%TO.C,C133*%
X102547705Y-106274790D03*
X101587705Y-106274790D03*
%TD*%
D17*
%TO.C,C171*%
X99955481Y-114865014D03*
X99315481Y-114865014D03*
%TD*%
D20*
%TO.C,C99*%
X88115481Y-112300014D03*
X88115481Y-112940014D03*
%TD*%
D17*
%TO.C,C208*%
X90820000Y-109300000D03*
X90180000Y-109300000D03*
%TD*%
D22*
%TO.C,C110*%
X95700481Y-107970014D03*
X96340481Y-107970014D03*
%TD*%
D25*
%TO.C,C254*%
X78720000Y-108930400D03*
X79680000Y-108930400D03*
%TD*%
D23*
%TO.C,C164*%
X102015481Y-104952045D03*
X102015481Y-104312045D03*
%TD*%
D17*
%TO.C,C180*%
X99894695Y-108189414D03*
X99254695Y-108189414D03*
%TD*%
%TO.C,C150*%
X97863965Y-110047325D03*
X97223965Y-110047325D03*
%TD*%
D18*
%TO.C,R58*%
X104464400Y-109272000D03*
X104464400Y-110292000D03*
%TD*%
D16*
%TO.C,C258*%
X75920000Y-109550400D03*
X75920000Y-110510400D03*
%TD*%
D22*
%TO.C,C90*%
X94145481Y-117195014D03*
X94785481Y-117195014D03*
%TD*%
D17*
%TO.C,C210*%
X92038000Y-113374200D03*
X91398000Y-113374200D03*
%TD*%
D20*
%TO.C,C152*%
X101250460Y-117957560D03*
X101250460Y-118597560D03*
%TD*%
D17*
%TO.C,C221*%
X100695430Y-109684105D03*
X100055430Y-109684105D03*
%TD*%
D16*
%TO.C,C7*%
X126793462Y-89627528D03*
X126793462Y-90587528D03*
%TD*%
D33*
%TO.C,C109*%
X95865481Y-113825014D03*
X95865481Y-112865014D03*
%TD*%
D20*
%TO.C,C206*%
X92769400Y-111724400D03*
X92769400Y-112364400D03*
%TD*%
D19*
%TO.C,C6*%
X125873462Y-89507528D03*
X124913462Y-89507528D03*
%TD*%
D23*
%TO.C,C125*%
X90165481Y-112265014D03*
X90165481Y-111625014D03*
%TD*%
D35*
%TO.C,C248*%
X79117981Y-99395014D03*
X80312981Y-99395014D03*
%TD*%
D20*
%TO.C,C175*%
X94815481Y-98275014D03*
X94815481Y-98915014D03*
%TD*%
D36*
%TO.C,U17*%
X74727481Y-83268014D03*
X74727481Y-84538014D03*
X74727481Y-85808014D03*
X74727481Y-87078014D03*
X69777481Y-87078014D03*
X69777481Y-85808014D03*
X69777481Y-84538014D03*
X69777481Y-83268014D03*
%TD*%
D20*
%TO.C,C188*%
X91535800Y-109004800D03*
X91535800Y-109644800D03*
%TD*%
D25*
%TO.C,C256*%
X79450000Y-111425000D03*
X80410000Y-111425000D03*
%TD*%
D33*
%TO.C,C2*%
X127493462Y-85350028D03*
X127493462Y-84390028D03*
%TD*%
D19*
%TO.C,C280*%
X70950000Y-113980400D03*
X69990000Y-113980400D03*
%TD*%
D37*
%TO.C,C41*%
X125893462Y-113345028D03*
X125893462Y-110395028D03*
%TD*%
D22*
%TO.C,C162*%
X97134000Y-107369000D03*
X97774000Y-107369000D03*
%TD*%
D20*
%TO.C,C115*%
X91515481Y-115575014D03*
X91515481Y-116215014D03*
%TD*%
D19*
%TO.C,C273*%
X71100000Y-112692900D03*
X70140000Y-112692900D03*
%TD*%
D20*
%TO.C,C101*%
X87365481Y-112725014D03*
X87365481Y-113365014D03*
%TD*%
D25*
%TO.C,C13*%
X129913462Y-88707528D03*
X130873462Y-88707528D03*
%TD*%
D23*
%TO.C,C236*%
X107670000Y-116525400D03*
X107670000Y-115885400D03*
%TD*%
D25*
%TO.C,C269*%
X63515000Y-118980400D03*
X64475000Y-118980400D03*
%TD*%
D19*
%TO.C,C166*%
X92273683Y-110847139D03*
X91313683Y-110847139D03*
%TD*%
D20*
%TO.C,C93*%
X89515481Y-112275014D03*
X89515481Y-112915014D03*
%TD*%
D38*
%TO.C,C170*%
X92789207Y-113421288D03*
X93241755Y-112968740D03*
%TD*%
D25*
%TO.C,C146*%
X92260481Y-104245014D03*
X93220481Y-104245014D03*
%TD*%
D19*
%TO.C,C286*%
X70950000Y-115080400D03*
X69990000Y-115080400D03*
%TD*%
D38*
%TO.C,C114*%
X94339207Y-107296288D03*
X94791755Y-106843740D03*
%TD*%
D20*
%TO.C,C155*%
X95684181Y-110840157D03*
X95684181Y-111480157D03*
%TD*%
D23*
%TO.C,C226*%
X113415481Y-114515014D03*
X113415481Y-113875014D03*
%TD*%
%TO.C,C147*%
X95115481Y-113615014D03*
X95115481Y-112975014D03*
%TD*%
D17*
%TO.C,C191*%
X99292080Y-111698325D03*
X98652080Y-111698325D03*
%TD*%
D39*
%TO.C,D1*%
X128246481Y-120762414D03*
X132246481Y-120762414D03*
%TD*%
D33*
%TO.C,C129*%
X102515481Y-86875014D03*
X102515481Y-85915014D03*
%TD*%
D23*
%TO.C,C227*%
X105378800Y-112032400D03*
X105378800Y-111392400D03*
%TD*%
D33*
%TO.C,C283*%
X66520000Y-120665414D03*
X66520000Y-119705414D03*
%TD*%
D16*
%TO.C,C284*%
X65620000Y-113212900D03*
X65620000Y-114172900D03*
%TD*%
D40*
%TO.C,C67*%
X68920000Y-106855400D03*
X68920000Y-109805400D03*
%TD*%
D17*
%TO.C,FB2*%
X97648081Y-108722814D03*
X97008081Y-108722814D03*
%TD*%
D22*
%TO.C,C211*%
X98635570Y-110063835D03*
X99275570Y-110063835D03*
%TD*%
D25*
%TO.C,C130*%
X98326980Y-110881080D03*
X99286980Y-110881080D03*
%TD*%
D20*
%TO.C,R44*%
X96565000Y-104331200D03*
X96565000Y-104971200D03*
%TD*%
D23*
%TO.C,C193*%
X102715481Y-104952045D03*
X102715481Y-104312045D03*
%TD*%
D19*
%TO.C,C253*%
X76530000Y-111875000D03*
X75570000Y-111875000D03*
%TD*%
D33*
%TO.C,C15*%
X126368462Y-85380028D03*
X126368462Y-84420028D03*
%TD*%
D23*
%TO.C,C121*%
X89515481Y-118065014D03*
X89515481Y-117425014D03*
%TD*%
D17*
%TO.C,C195*%
X97385175Y-113208990D03*
X96745175Y-113208990D03*
%TD*%
D33*
%TO.C,C278*%
X69970000Y-120910400D03*
X69970000Y-119950400D03*
%TD*%
D20*
%TO.C,C127*%
X97377800Y-103747000D03*
X97377800Y-104387000D03*
%TD*%
D16*
%TO.C,C276*%
X64670000Y-113250400D03*
X64670000Y-114210400D03*
%TD*%
D17*
%TO.C,C204*%
X101834620Y-114744420D03*
X101194620Y-114744420D03*
%TD*%
D22*
%TO.C,C205*%
X88745481Y-107570014D03*
X89385481Y-107570014D03*
%TD*%
D24*
%TO.C,R34*%
X103528281Y-112136614D03*
X102508281Y-112136614D03*
%TD*%
D16*
%TO.C,C126*%
X94715481Y-114315014D03*
X94715481Y-115275014D03*
%TD*%
D23*
%TO.C,C237*%
X115673000Y-114694200D03*
X115673000Y-114054200D03*
%TD*%
D25*
%TO.C,C144*%
X100151335Y-110917414D03*
X101111335Y-110917414D03*
%TD*%
D32*
%TO.C,R38*%
X86320000Y-113950400D03*
X86320000Y-112930400D03*
%TD*%
D40*
%TO.C,C43*%
X124878462Y-105795028D03*
X124878462Y-108745028D03*
%TD*%
D22*
%TO.C,C87*%
X101909200Y-110950400D03*
X102549200Y-110950400D03*
%TD*%
D20*
%TO.C,C100*%
X88690481Y-110875014D03*
X88690481Y-111515014D03*
%TD*%
D23*
%TO.C,C199*%
X93999600Y-110000400D03*
X93999600Y-109360400D03*
%TD*%
D19*
%TO.C,C282*%
X70900000Y-118080400D03*
X69940000Y-118080400D03*
%TD*%
D22*
%TO.C,C201*%
X98660335Y-112424765D03*
X99300335Y-112424765D03*
%TD*%
D25*
%TO.C,C259*%
X76370000Y-114225000D03*
X77330000Y-114225000D03*
%TD*%
D21*
%TO.C,R51*%
X113032863Y-110064729D03*
X114052863Y-110064729D03*
%TD*%
D17*
%TO.C,C215*%
X96479681Y-108672014D03*
X95839681Y-108672014D03*
%TD*%
D20*
%TO.C,C178*%
X93741052Y-108000546D03*
X93741052Y-108640546D03*
%TD*%
D24*
%TO.C,R60*%
X75680000Y-105992900D03*
X74660000Y-105992900D03*
%TD*%
D19*
%TO.C,C106*%
X104745481Y-94845014D03*
X103785481Y-94845014D03*
%TD*%
%TO.C,C285*%
X70900000Y-117130400D03*
X69940000Y-117130400D03*
%TD*%
D25*
%TO.C,C154*%
X93167867Y-110864632D03*
X94127867Y-110864632D03*
%TD*%
D20*
%TO.C,C192*%
X101416400Y-108903200D03*
X101416400Y-109543200D03*
%TD*%
D22*
%TO.C,C213*%
X101037775Y-112821005D03*
X101677775Y-112821005D03*
%TD*%
D23*
%TO.C,C235*%
X107765481Y-105665014D03*
X107765481Y-105025014D03*
%TD*%
D20*
%TO.C,C242*%
X117370000Y-114210400D03*
X117370000Y-114850400D03*
%TD*%
D37*
%TO.C,C36*%
X123593462Y-113345028D03*
X123593462Y-110395028D03*
%TD*%
D22*
%TO.C,C233*%
X109543000Y-109614200D03*
X110183000Y-109614200D03*
%TD*%
D41*
%TO.C,R33*%
X117430624Y-113141024D03*
X116709376Y-112419776D03*
%TD*%
D23*
%TO.C,C97*%
X90165481Y-107540014D03*
X90165481Y-106900014D03*
%TD*%
D16*
%TO.C,C9*%
X128693462Y-89627528D03*
X128693462Y-90587528D03*
%TD*%
D42*
%TO.C,C230*%
X113989400Y-105553200D03*
X113989400Y-104003200D03*
%TD*%
D25*
%TO.C,C250*%
X75945000Y-107925000D03*
X76905000Y-107925000D03*
%TD*%
D17*
%TO.C,C244*%
X117303000Y-107624200D03*
X116663000Y-107624200D03*
%TD*%
%TO.C,C217*%
X90830000Y-110002538D03*
X90190000Y-110002538D03*
%TD*%
D40*
%TO.C,C66*%
X70020000Y-102255400D03*
X70020000Y-105205400D03*
%TD*%
D25*
%TO.C,C132*%
X101789481Y-116023945D03*
X102749481Y-116023945D03*
%TD*%
D17*
%TO.C,C95*%
X91385481Y-103545014D03*
X90745481Y-103545014D03*
%TD*%
D23*
%TO.C,C184*%
X94951837Y-110927400D03*
X94951837Y-110287400D03*
%TD*%
D42*
%TO.C,C241*%
X117020000Y-110705400D03*
X117020000Y-109155400D03*
%TD*%
D43*
%TO.C,C122*%
X98689207Y-116718740D03*
X99141755Y-117171288D03*
%TD*%
D20*
%TO.C,C94*%
X88815481Y-112275014D03*
X88815481Y-112915014D03*
%TD*%
%TO.C,C224*%
X93480600Y-111725742D03*
X93480600Y-112365742D03*
%TD*%
D23*
%TO.C,C111*%
X98565481Y-104315014D03*
X98565481Y-103675014D03*
%TD*%
D22*
%TO.C,C143*%
X97905481Y-114875014D03*
X98545481Y-114875014D03*
%TD*%
D17*
%TO.C,C112*%
X87695481Y-114905014D03*
X87055481Y-114905014D03*
%TD*%
D24*
%TO.C,R39*%
X95180000Y-119692900D03*
X94160000Y-119692900D03*
%TD*%
D22*
%TO.C,C103*%
X90895481Y-108270014D03*
X91535481Y-108270014D03*
%TD*%
D19*
%TO.C,C4*%
X125873462Y-87207528D03*
X124913462Y-87207528D03*
%TD*%
D20*
%TO.C,C222*%
X101869585Y-107118745D03*
X101869585Y-107758745D03*
%TD*%
D44*
%TO.C,R40*%
X88720000Y-106580400D03*
X89441248Y-105859152D03*
%TD*%
D22*
%TO.C,C203*%
X100071940Y-112127585D03*
X100711940Y-112127585D03*
%TD*%
D25*
%TO.C,C270*%
X63515000Y-117970400D03*
X64475000Y-117970400D03*
%TD*%
D20*
%TO.C,C245*%
X107813000Y-114074200D03*
X107813000Y-114714200D03*
%TD*%
D25*
%TO.C,C105*%
X96124800Y-114787600D03*
X97084800Y-114787600D03*
%TD*%
D20*
%TO.C,C163*%
X100548785Y-117957560D03*
X100548785Y-118597560D03*
%TD*%
D23*
%TO.C,C239*%
X111933000Y-108704200D03*
X111933000Y-108064200D03*
%TD*%
D20*
%TO.C,C123*%
X96590481Y-116275014D03*
X96590481Y-116915014D03*
%TD*%
D25*
%TO.C,C3*%
X129913462Y-86807528D03*
X130873462Y-86807528D03*
%TD*%
D23*
%TO.C,C218*%
X92265481Y-110015014D03*
X92265481Y-109375014D03*
%TD*%
D17*
%TO.C,C225*%
X96085481Y-94495014D03*
X95445481Y-94495014D03*
%TD*%
D20*
%TO.C,C159*%
X92215481Y-114175014D03*
X92215481Y-114815014D03*
%TD*%
D22*
%TO.C,C216*%
X95828870Y-109378670D03*
X96468870Y-109378670D03*
%TD*%
%TO.C,C232*%
X114963000Y-110124200D03*
X115603000Y-110124200D03*
%TD*%
D17*
%TO.C,C212*%
X100274425Y-113225500D03*
X99634425Y-113225500D03*
%TD*%
D33*
%TO.C,C145*%
X103158481Y-117903014D03*
X103158481Y-116943014D03*
%TD*%
D25*
%TO.C,C116*%
X94210481Y-118020014D03*
X95170481Y-118020014D03*
%TD*%
%TO.C,C271*%
X63515000Y-119905400D03*
X64475000Y-119905400D03*
%TD*%
D22*
%TO.C,C231*%
X107833000Y-109514200D03*
X108473000Y-109514200D03*
%TD*%
D25*
%TO.C,C294*%
X69767481Y-81968014D03*
X70727481Y-81968014D03*
%TD*%
D17*
%TO.C,C119*%
X79775481Y-116946014D03*
X79135481Y-116946014D03*
%TD*%
D22*
%TO.C,C247*%
X110233000Y-108194200D03*
X110873000Y-108194200D03*
%TD*%
%TO.C,C181*%
X97273495Y-111706580D03*
X97913495Y-111706580D03*
%TD*%
%TO.C,C197*%
X95225481Y-104335014D03*
X95865481Y-104335014D03*
%TD*%
D23*
%TO.C,C96*%
X90255481Y-118055014D03*
X90255481Y-117415014D03*
%TD*%
D22*
%TO.C,C243*%
X107143000Y-107384200D03*
X107783000Y-107384200D03*
%TD*%
D16*
%TO.C,C287*%
X68824519Y-113050400D03*
X68824519Y-114010400D03*
%TD*%
D34*
%TO.C,C263*%
X59965481Y-85745014D03*
X59965481Y-87295014D03*
%TD*%
D22*
%TO.C,C173*%
X102112400Y-110036000D03*
X102752400Y-110036000D03*
%TD*%
D17*
%TO.C,R43*%
X97941600Y-105159200D03*
X97301600Y-105159200D03*
%TD*%
D20*
%TO.C,C139*%
X99265481Y-103690400D03*
X99265481Y-104330400D03*
%TD*%
D16*
%TO.C,C8*%
X127743462Y-89627528D03*
X127743462Y-90587528D03*
%TD*%
D19*
%TO.C,C168*%
X90426706Y-110837857D03*
X89466706Y-110837857D03*
%TD*%
D23*
%TO.C,C179*%
X91515481Y-114815014D03*
X91515481Y-114175014D03*
%TD*%
D32*
%TO.C,R81*%
X67547981Y-120715414D03*
X67547981Y-119695414D03*
%TD*%
D22*
%TO.C,C138*%
X96959805Y-113968450D03*
X97599805Y-113968450D03*
%TD*%
D20*
%TO.C,C102*%
X98065481Y-117325014D03*
X98065481Y-117965014D03*
%TD*%
D17*
%TO.C,C120*%
X71295481Y-89835014D03*
X70655481Y-89835014D03*
%TD*%
D19*
%TO.C,C142*%
X97446115Y-110914100D03*
X96486115Y-110914100D03*
%TD*%
D17*
%TO.C,C202*%
X99259060Y-109329140D03*
X98619060Y-109329140D03*
%TD*%
%TO.C,C92*%
X91410481Y-104295014D03*
X90770481Y-104295014D03*
%TD*%
D25*
%TO.C,C275*%
X63515000Y-117050400D03*
X64475000Y-117050400D03*
%TD*%
D22*
%TO.C,C107*%
X97235600Y-108054800D03*
X97875600Y-108054800D03*
%TD*%
D25*
%TO.C,C11*%
X129913462Y-87807528D03*
X130873462Y-87807528D03*
%TD*%
D22*
%TO.C,C151*%
X97190945Y-109329140D03*
X97830945Y-109329140D03*
%TD*%
D19*
%TO.C,C131*%
X99856575Y-114042745D03*
X98896575Y-114042745D03*
%TD*%
D22*
%TO.C,C246*%
X114833000Y-107934200D03*
X115473000Y-107934200D03*
%TD*%
D23*
%TO.C,C156*%
X94015481Y-104340014D03*
X94015481Y-103700014D03*
%TD*%
D17*
%TO.C,C47*%
X126913462Y-109270028D03*
X126273462Y-109270028D03*
%TD*%
D20*
%TO.C,C198*%
X93288400Y-109378119D03*
X93288400Y-110018119D03*
%TD*%
D45*
%TO.C,C118*%
X88741755Y-114646288D03*
X88289207Y-114193740D03*
%TD*%
D19*
%TO.C,C277*%
X70900000Y-119030400D03*
X69940000Y-119030400D03*
%TD*%
D46*
%TO.C,FB3*%
X69832500Y-111492900D03*
X71407500Y-111492900D03*
%TD*%
D25*
%TO.C,C252*%
X75920000Y-106975000D03*
X76880000Y-106975000D03*
%TD*%
D17*
%TO.C,C220*%
X98801891Y-113213067D03*
X98161891Y-113213067D03*
%TD*%
D19*
%TO.C,C149*%
X96845481Y-93045014D03*
X95885481Y-93045014D03*
%TD*%
D33*
%TO.C,C251*%
X78600000Y-107705000D03*
X78600000Y-106745000D03*
%TD*%
D21*
%TO.C,R49*%
X106610000Y-120630400D03*
X107630000Y-120630400D03*
%TD*%
D38*
%TO.C,C128*%
X98675526Y-107519074D03*
X99128074Y-107066526D03*
%TD*%
D19*
%TO.C,C117*%
X90425481Y-116545014D03*
X89465481Y-116545014D03*
%TD*%
D23*
%TO.C,C174*%
X101968645Y-118597560D03*
X101968645Y-117957560D03*
%TD*%
D16*
%TO.C,C279*%
X66520000Y-113075400D03*
X66520000Y-114035400D03*
%TD*%
D20*
%TO.C,C209*%
X92445481Y-107985014D03*
X92445481Y-108625014D03*
%TD*%
D23*
%TO.C,C88*%
X97290481Y-117865014D03*
X97290481Y-117225014D03*
%TD*%
D17*
%TO.C,C167*%
X94885481Y-101145014D03*
X94245481Y-101145014D03*
%TD*%
D20*
%TO.C,C169*%
X93085200Y-107988800D03*
X93085200Y-108628800D03*
%TD*%
D40*
%TO.C,C70*%
X67620000Y-102255400D03*
X67620000Y-105205400D03*
%TD*%
D19*
%TO.C,C255*%
X76530000Y-112825000D03*
X75570000Y-112825000D03*
%TD*%
D44*
%TO.C,R52*%
X113746386Y-112039795D03*
X114467634Y-111318547D03*
%TD*%
D20*
%TO.C,C234*%
X115803000Y-103684200D03*
X115803000Y-104324200D03*
%TD*%
D33*
%TO.C,C260*%
X80650000Y-109905000D03*
X80650000Y-108945000D03*
%TD*%
D47*
%TO.C,FB1*%
X89450000Y-109925000D03*
X89450000Y-108955000D03*
%TD*%
M02*
