%TF.GenerationSoftware,KiCad,Pcbnew,7.99.0-3958-g1df84f4d92*%
%TF.CreationDate,2023-12-24T01:25:56+01:00*%
%TF.ProjectId,SBC,5342432e-6b69-4636-9164-5f7063625858,rev?*%
%TF.SameCoordinates,Original*%
%TF.FileFunction,Legend,Top*%
%TF.FilePolarity,Positive*%
%FSLAX46Y46*%
G04 Gerber Fmt 4.6, Leading zero omitted, Abs format (unit mm)*
G04 Created by KiCad (PCBNEW 7.99.0-3958-g1df84f4d92) date 2023-12-24 01:25:56*
%MOMM*%
%LPD*%
G01*
G04 APERTURE LIST*
%ADD10C,0.250000*%
%ADD11C,0.600000*%
%ADD12C,0.120000*%
%ADD13C,0.100000*%
%ADD14C,0.127000*%
%ADD15C,0.200000*%
%ADD16C,0.240000*%
%TA.AperFunction,Profile*%
%ADD17C,0.100000*%
%TD*%
G04 APERTURE END LIST*
D10*
X76380128Y-130996033D02*
X76046795Y-130519842D01*
X75808700Y-130996033D02*
X75808700Y-129996033D01*
X75808700Y-129996033D02*
X76189652Y-129996033D01*
X76189652Y-129996033D02*
X76284890Y-130043652D01*
X76284890Y-130043652D02*
X76332509Y-130091271D01*
X76332509Y-130091271D02*
X76380128Y-130186509D01*
X76380128Y-130186509D02*
X76380128Y-130329366D01*
X76380128Y-130329366D02*
X76332509Y-130424604D01*
X76332509Y-130424604D02*
X76284890Y-130472223D01*
X76284890Y-130472223D02*
X76189652Y-130519842D01*
X76189652Y-130519842D02*
X75808700Y-130519842D01*
X77332509Y-130996033D02*
X76761081Y-130996033D01*
X77046795Y-130996033D02*
X77046795Y-129996033D01*
X77046795Y-129996033D02*
X76951557Y-130138890D01*
X76951557Y-130138890D02*
X76856319Y-130234128D01*
X76856319Y-130234128D02*
X76761081Y-130281747D01*
X77761081Y-130900794D02*
X77808700Y-130948414D01*
X77808700Y-130948414D02*
X77761081Y-130996033D01*
X77761081Y-130996033D02*
X77713462Y-130948414D01*
X77713462Y-130948414D02*
X77761081Y-130900794D01*
X77761081Y-130900794D02*
X77761081Y-130996033D01*
X78427747Y-129996033D02*
X78522985Y-129996033D01*
X78522985Y-129996033D02*
X78618223Y-130043652D01*
X78618223Y-130043652D02*
X78665842Y-130091271D01*
X78665842Y-130091271D02*
X78713461Y-130186509D01*
X78713461Y-130186509D02*
X78761080Y-130376985D01*
X78761080Y-130376985D02*
X78761080Y-130615080D01*
X78761080Y-130615080D02*
X78713461Y-130805556D01*
X78713461Y-130805556D02*
X78665842Y-130900794D01*
X78665842Y-130900794D02*
X78618223Y-130948414D01*
X78618223Y-130948414D02*
X78522985Y-130996033D01*
X78522985Y-130996033D02*
X78427747Y-130996033D01*
X78427747Y-130996033D02*
X78332509Y-130948414D01*
X78332509Y-130948414D02*
X78284890Y-130900794D01*
X78284890Y-130900794D02*
X78237271Y-130805556D01*
X78237271Y-130805556D02*
X78189652Y-130615080D01*
X78189652Y-130615080D02*
X78189652Y-130376985D01*
X78189652Y-130376985D02*
X78237271Y-130186509D01*
X78237271Y-130186509D02*
X78284890Y-130091271D01*
X78284890Y-130091271D02*
X78332509Y-130043652D01*
X78332509Y-130043652D02*
X78427747Y-129996033D01*
D11*
X75947880Y-129322909D02*
X75947880Y-126422909D01*
X77281213Y-129322909D02*
X77281213Y-126422909D01*
X77281213Y-126422909D02*
X78214547Y-128494337D01*
X78214547Y-128494337D02*
X79147880Y-126422909D01*
X79147880Y-126422909D02*
X79147880Y-129322909D01*
X80214547Y-126422909D02*
X82081213Y-129322909D01*
X82081213Y-126422909D02*
X80214547Y-129322909D01*
X83547880Y-127665766D02*
X83281214Y-127527671D01*
X83281214Y-127527671D02*
X83147880Y-127389575D01*
X83147880Y-127389575D02*
X83014547Y-127113385D01*
X83014547Y-127113385D02*
X83014547Y-126975290D01*
X83014547Y-126975290D02*
X83147880Y-126699099D01*
X83147880Y-126699099D02*
X83281214Y-126561004D01*
X83281214Y-126561004D02*
X83547880Y-126422909D01*
X83547880Y-126422909D02*
X84081214Y-126422909D01*
X84081214Y-126422909D02*
X84347880Y-126561004D01*
X84347880Y-126561004D02*
X84481214Y-126699099D01*
X84481214Y-126699099D02*
X84614547Y-126975290D01*
X84614547Y-126975290D02*
X84614547Y-127113385D01*
X84614547Y-127113385D02*
X84481214Y-127389575D01*
X84481214Y-127389575D02*
X84347880Y-127527671D01*
X84347880Y-127527671D02*
X84081214Y-127665766D01*
X84081214Y-127665766D02*
X83547880Y-127665766D01*
X83547880Y-127665766D02*
X83281214Y-127803861D01*
X83281214Y-127803861D02*
X83147880Y-127941956D01*
X83147880Y-127941956D02*
X83014547Y-128218147D01*
X83014547Y-128218147D02*
X83014547Y-128770528D01*
X83014547Y-128770528D02*
X83147880Y-129046718D01*
X83147880Y-129046718D02*
X83281214Y-129184814D01*
X83281214Y-129184814D02*
X83547880Y-129322909D01*
X83547880Y-129322909D02*
X84081214Y-129322909D01*
X84081214Y-129322909D02*
X84347880Y-129184814D01*
X84347880Y-129184814D02*
X84481214Y-129046718D01*
X84481214Y-129046718D02*
X84614547Y-128770528D01*
X84614547Y-128770528D02*
X84614547Y-128218147D01*
X84614547Y-128218147D02*
X84481214Y-127941956D01*
X84481214Y-127941956D02*
X84347880Y-127803861D01*
X84347880Y-127803861D02*
X84081214Y-127665766D01*
X85814547Y-129322909D02*
X85814547Y-126422909D01*
X85814547Y-126422909D02*
X86747881Y-128494337D01*
X86747881Y-128494337D02*
X87681214Y-126422909D01*
X87681214Y-126422909D02*
X87681214Y-129322909D01*
X88881214Y-129184814D02*
X89281214Y-129322909D01*
X89281214Y-129322909D02*
X89947881Y-129322909D01*
X89947881Y-129322909D02*
X90214547Y-129184814D01*
X90214547Y-129184814D02*
X90347881Y-129046718D01*
X90347881Y-129046718D02*
X90481214Y-128770528D01*
X90481214Y-128770528D02*
X90481214Y-128494337D01*
X90481214Y-128494337D02*
X90347881Y-128218147D01*
X90347881Y-128218147D02*
X90214547Y-128080052D01*
X90214547Y-128080052D02*
X89947881Y-127941956D01*
X89947881Y-127941956D02*
X89414547Y-127803861D01*
X89414547Y-127803861D02*
X89147881Y-127665766D01*
X89147881Y-127665766D02*
X89014547Y-127527671D01*
X89014547Y-127527671D02*
X88881214Y-127251480D01*
X88881214Y-127251480D02*
X88881214Y-126975290D01*
X88881214Y-126975290D02*
X89014547Y-126699099D01*
X89014547Y-126699099D02*
X89147881Y-126561004D01*
X89147881Y-126561004D02*
X89414547Y-126422909D01*
X89414547Y-126422909D02*
X90081214Y-126422909D01*
X90081214Y-126422909D02*
X90481214Y-126561004D01*
X92614548Y-127803861D02*
X93014548Y-127941956D01*
X93014548Y-127941956D02*
X93147881Y-128080052D01*
X93147881Y-128080052D02*
X93281214Y-128356242D01*
X93281214Y-128356242D02*
X93281214Y-128770528D01*
X93281214Y-128770528D02*
X93147881Y-129046718D01*
X93147881Y-129046718D02*
X93014548Y-129184814D01*
X93014548Y-129184814D02*
X92747881Y-129322909D01*
X92747881Y-129322909D02*
X91681214Y-129322909D01*
X91681214Y-129322909D02*
X91681214Y-126422909D01*
X91681214Y-126422909D02*
X92614548Y-126422909D01*
X92614548Y-126422909D02*
X92881214Y-126561004D01*
X92881214Y-126561004D02*
X93014548Y-126699099D01*
X93014548Y-126699099D02*
X93147881Y-126975290D01*
X93147881Y-126975290D02*
X93147881Y-127251480D01*
X93147881Y-127251480D02*
X93014548Y-127527671D01*
X93014548Y-127527671D02*
X92881214Y-127665766D01*
X92881214Y-127665766D02*
X92614548Y-127803861D01*
X92614548Y-127803861D02*
X91681214Y-127803861D01*
X96081214Y-129046718D02*
X95947881Y-129184814D01*
X95947881Y-129184814D02*
X95547881Y-129322909D01*
X95547881Y-129322909D02*
X95281214Y-129322909D01*
X95281214Y-129322909D02*
X94881214Y-129184814D01*
X94881214Y-129184814D02*
X94614548Y-128908623D01*
X94614548Y-128908623D02*
X94481214Y-128632433D01*
X94481214Y-128632433D02*
X94347881Y-128080052D01*
X94347881Y-128080052D02*
X94347881Y-127665766D01*
X94347881Y-127665766D02*
X94481214Y-127113385D01*
X94481214Y-127113385D02*
X94614548Y-126837194D01*
X94614548Y-126837194D02*
X94881214Y-126561004D01*
X94881214Y-126561004D02*
X95281214Y-126422909D01*
X95281214Y-126422909D02*
X95547881Y-126422909D01*
X95547881Y-126422909D02*
X95947881Y-126561004D01*
X95947881Y-126561004D02*
X96081214Y-126699099D01*
D12*
%TO.C,D4*%
X104074481Y-88175014D02*
X104074481Y-90460014D01*
X104074481Y-90460014D02*
X105544481Y-90460014D01*
X105544481Y-90460014D02*
X105544481Y-88175014D01*
%TO.C,R84*%
X96208722Y-93438814D02*
X95901440Y-93438814D01*
X96208722Y-94198814D02*
X95901440Y-94198814D01*
%TO.C,R107*%
X61768081Y-121658455D02*
X61768081Y-121351173D01*
X62528081Y-121658455D02*
X62528081Y-121351173D01*
%TO.C,J3*%
X59067481Y-92058014D02*
X59067481Y-104178014D01*
X59067481Y-94088014D02*
X59577481Y-94088014D01*
X59067481Y-95588014D02*
X59577481Y-95588014D01*
X59067481Y-100648014D02*
X59577481Y-100648014D01*
X59067481Y-102148014D02*
X59577481Y-102148014D01*
X59067481Y-104178014D02*
X64287481Y-104178014D01*
X59577481Y-92918014D02*
X59577481Y-103318014D01*
X59577481Y-103318014D02*
X63777481Y-103318014D01*
X60777481Y-92058014D02*
X60777481Y-92918014D01*
X60777481Y-104178014D02*
X60777481Y-103318014D01*
X61577481Y-92058014D02*
X61577481Y-92918014D01*
X61577481Y-104178014D02*
X61577481Y-103318014D01*
X62377481Y-91258014D02*
X62977481Y-91258014D01*
X62677481Y-91858014D02*
X62377481Y-91258014D01*
X62977481Y-91258014D02*
X62677481Y-91858014D01*
X63777481Y-92918014D02*
X59577481Y-92918014D01*
X63777481Y-103318014D02*
X63777481Y-92918014D01*
X64287481Y-92058014D02*
X59067481Y-92058014D01*
X64287481Y-94648014D02*
X63777481Y-94648014D01*
X64287481Y-95588014D02*
X63777481Y-95588014D01*
X64287481Y-100648014D02*
X63777481Y-100648014D01*
X64287481Y-101588014D02*
X63777481Y-101588014D01*
X64287481Y-104178014D02*
X64287481Y-92058014D01*
%TO.C,U14*%
X79452681Y-100424314D02*
X70452681Y-100424314D01*
X70452681Y-93924314D01*
X79452681Y-93924314D01*
X79452681Y-100424314D01*
X79702681Y-100674314D02*
X79202681Y-100674314D01*
X79202681Y-100174314D01*
X79702681Y-100174314D01*
X79702681Y-100674314D01*
G36*
X79702681Y-100674314D02*
G01*
X79202681Y-100674314D01*
X79202681Y-100174314D01*
X79702681Y-100174314D01*
X79702681Y-100674314D01*
G37*
%TO.C,U10*%
X107349481Y-96441014D02*
X106549481Y-96441014D01*
X107349481Y-96441014D02*
X108149481Y-96441014D01*
X107349481Y-99561014D02*
X106549481Y-99561014D01*
X107349481Y-99561014D02*
X109149481Y-99561014D01*
%TO.C,R77*%
X111237022Y-119735414D02*
X110929740Y-119735414D01*
X111237022Y-120495414D02*
X110929740Y-120495414D01*
%TO.C,C17*%
X121983462Y-109442192D02*
X121983462Y-109657864D01*
X122703462Y-109442192D02*
X122703462Y-109657864D01*
%TO.C,C60*%
X123747836Y-92670400D02*
X123532164Y-92670400D01*
X123747836Y-93390400D02*
X123532164Y-93390400D01*
%TO.C,R3*%
X121938462Y-104998669D02*
X121938462Y-104691387D01*
X122698462Y-104998669D02*
X122698462Y-104691387D01*
%TO.C,C327*%
X65522500Y-124022564D02*
X65522500Y-124238236D01*
X66242500Y-124022564D02*
X66242500Y-124238236D01*
%TO.C,R31*%
X105826481Y-91598393D02*
X105826481Y-91933635D01*
X106586481Y-91598393D02*
X106586481Y-91933635D01*
%TO.C,R86*%
X71873840Y-101438014D02*
X72181122Y-101438014D01*
X71873840Y-102198014D02*
X72181122Y-102198014D01*
%TO.C,C54*%
X117651298Y-91752527D02*
X117435626Y-91752527D01*
X117651298Y-92472527D02*
X117435626Y-92472527D01*
%TO.C,C317*%
X63560000Y-123085064D02*
X63560000Y-123300736D01*
X64280000Y-123085064D02*
X64280000Y-123300736D01*
%TO.C,C34*%
X128883462Y-98249692D02*
X128883462Y-98465364D01*
X129603462Y-98249692D02*
X129603462Y-98465364D01*
%TO.C,D5*%
X134579881Y-98563614D02*
X134579881Y-100848614D01*
X134579881Y-100848614D02*
X136049881Y-100848614D01*
X136049881Y-100848614D02*
X136049881Y-98563614D01*
%TO.C,U5*%
X86552481Y-84220014D02*
X87052481Y-84220014D01*
X86552481Y-84470014D02*
X86552481Y-84220014D01*
X86552481Y-85970014D02*
X86552481Y-86220014D01*
X86552481Y-86220014D02*
X87052481Y-86220014D01*
X89052481Y-86220014D02*
X89552481Y-86220014D01*
X89552481Y-84220014D02*
X89052481Y-84220014D01*
X89552481Y-84470014D02*
X89552481Y-84220014D01*
X89552481Y-86220014D02*
X89552481Y-85970014D01*
X86802481Y-86470014D02*
X87052481Y-86470014D01*
X87052481Y-86220014D01*
X86802481Y-86220014D01*
X86802481Y-86470014D01*
G36*
X86802481Y-86470014D02*
G01*
X87052481Y-86470014D01*
X87052481Y-86220014D01*
X86802481Y-86220014D01*
X86802481Y-86470014D01*
G37*
%TO.C,R109*%
X66936141Y-122350400D02*
X66628859Y-122350400D01*
X66936141Y-123110400D02*
X66628859Y-123110400D01*
%TO.C,R23*%
X83559860Y-81438014D02*
X83895102Y-81438014D01*
X83559860Y-82198014D02*
X83895102Y-82198014D01*
%TO.C,R90*%
X64860000Y-94703641D02*
X64860000Y-94396359D01*
X65620000Y-94703641D02*
X65620000Y-94396359D01*
%TO.C,C63*%
X110733000Y-84235836D02*
X110733000Y-84020164D01*
X111453000Y-84235836D02*
X111453000Y-84020164D01*
%TO.C,R9*%
X129078462Y-81613669D02*
X129078462Y-81306387D01*
X129838462Y-81613669D02*
X129838462Y-81306387D01*
%TO.C,C39*%
X129833462Y-98249692D02*
X129833462Y-98465364D01*
X130553462Y-98249692D02*
X130553462Y-98465364D01*
%TO.C,U19*%
X68617481Y-81558014D02*
X69092481Y-81558014D01*
X68617481Y-82033014D02*
X68617481Y-81558014D01*
X68617481Y-88303014D02*
X68617481Y-88778014D01*
X75837481Y-81558014D02*
X75362481Y-81558014D01*
X75837481Y-82033014D02*
X75837481Y-81558014D01*
X75837481Y-88303014D02*
X75837481Y-88778014D01*
X75837481Y-88778014D02*
X75362481Y-88778014D01*
%TO.C,C38*%
X137420000Y-89602564D02*
X137420000Y-89818236D01*
X138140000Y-89602564D02*
X138140000Y-89818236D01*
%TO.C,C59*%
X130395962Y-93462192D02*
X130395962Y-93677864D01*
X131115962Y-93462192D02*
X131115962Y-93677864D01*
%TO.C,L5*%
X125393462Y-96975028D02*
X127793462Y-96975028D01*
X127793462Y-93575028D01*
X125393462Y-93575028D01*
X125393462Y-96975028D01*
%TO.C,C62*%
X133878126Y-84910028D02*
X134093798Y-84910028D01*
X133878126Y-85630028D02*
X134093798Y-85630028D01*
%TO.C,U2*%
X123483462Y-109630028D02*
X123483462Y-109155028D01*
X123958462Y-109630028D02*
X123483462Y-109630028D01*
X128228462Y-104410028D02*
X128703462Y-104410028D01*
X128228462Y-109630028D02*
X128703462Y-109630028D01*
X128703462Y-104410028D02*
X128703462Y-104885028D01*
X128703462Y-109630028D02*
X128703462Y-109155028D01*
D13*
X123493462Y-104420028D02*
X123993462Y-104420028D01*
X123993462Y-104920028D01*
X123493462Y-104920028D01*
X123493462Y-104420028D01*
G36*
X123493462Y-104420028D02*
G01*
X123993462Y-104420028D01*
X123993462Y-104920028D01*
X123493462Y-104920028D01*
X123493462Y-104420028D01*
G37*
D12*
%TO.C,C1*%
X122001298Y-107810028D02*
X121785626Y-107810028D01*
X122001298Y-108530028D02*
X121785626Y-108530028D01*
%TO.C,R1*%
X121938462Y-106923669D02*
X121938462Y-106616387D01*
X122698462Y-106923669D02*
X122698462Y-106616387D01*
%TO.C,U12*%
X107485000Y-118190400D02*
X107485000Y-104470400D01*
X108485000Y-103470400D02*
X117705000Y-103470400D01*
X117705000Y-103470400D02*
X117705000Y-118190400D01*
X117705000Y-118190400D02*
X107485000Y-118190400D01*
%TO.C,J2*%
X65194481Y-82105014D02*
X65194481Y-83705014D01*
X65194481Y-88105014D02*
X65194481Y-89705014D01*
X67894481Y-78925014D02*
X69494481Y-78925014D01*
X67894481Y-92885014D02*
X69494481Y-92885014D01*
X73894481Y-78925014D02*
X75494481Y-78925014D01*
X73894481Y-92885014D02*
X75494481Y-92885014D01*
X78194481Y-82105014D02*
X78194481Y-83705014D01*
X78194481Y-88105014D02*
X78194481Y-89705014D01*
%TO.C,C316*%
X67285317Y-85058014D02*
X67069645Y-85058014D01*
X67285317Y-85778014D02*
X67069645Y-85778014D01*
%TO.C,C75*%
X91467901Y-90425014D02*
X91749061Y-90425014D01*
X91467901Y-91445014D02*
X91749061Y-91445014D01*
%TO.C,R17*%
X110660621Y-82348000D02*
X110325379Y-82348000D01*
X110660621Y-83108000D02*
X110325379Y-83108000D01*
%TO.C,R14*%
X123763462Y-81291387D02*
X123763462Y-81598669D01*
X124523462Y-81291387D02*
X124523462Y-81598669D01*
%TO.C,C46*%
X129533462Y-117133776D02*
X129533462Y-118556280D01*
X131353462Y-117133776D02*
X131353462Y-118556280D01*
%TO.C,R67*%
X111146641Y-101544200D02*
X110839359Y-101544200D01*
X111146641Y-102304200D02*
X110839359Y-102304200D01*
%TO.C,D8*%
X98305081Y-95036414D02*
X100590081Y-95036414D01*
X100590081Y-93566414D02*
X98305081Y-93566414D01*
X100590081Y-95036414D02*
X100590081Y-93566414D01*
%TO.C,R7*%
X124495481Y-102266973D02*
X124495481Y-102574255D01*
X125255481Y-102266973D02*
X125255481Y-102574255D01*
%TO.C,L1*%
X118918462Y-86325028D02*
X122318462Y-86325028D01*
X122318462Y-88725028D01*
X118918462Y-88725028D01*
X118918462Y-86325028D01*
%TO.C,U15*%
X86215481Y-94645214D02*
X86690481Y-94645214D01*
X86215481Y-95120214D02*
X86215481Y-94645214D01*
X86215481Y-98390214D02*
X86215481Y-98865214D01*
X86215481Y-98865214D02*
X86690481Y-98865214D01*
X90435481Y-95120214D02*
X90435481Y-94645214D01*
X90435481Y-98390214D02*
X90435481Y-98865214D01*
X90435481Y-98865214D02*
X89960481Y-98865214D01*
%TO.C,R89*%
X80444522Y-89094314D02*
X80137240Y-89094314D01*
X80444522Y-89854314D02*
X80137240Y-89854314D01*
%TO.C,C287*%
X133481061Y-81035014D02*
X133199901Y-81035014D01*
X133481061Y-82055014D02*
X133199901Y-82055014D01*
%TO.C,R59*%
X114485481Y-90891373D02*
X114485481Y-91198655D01*
X115245481Y-90891373D02*
X115245481Y-91198655D01*
%TO.C,C49*%
X117651298Y-89815861D02*
X117435626Y-89815861D01*
X117651298Y-90535861D02*
X117435626Y-90535861D01*
%TO.C,R10*%
X122813462Y-81598669D02*
X122813462Y-81291387D01*
X123573462Y-81598669D02*
X123573462Y-81291387D01*
%TO.C,C20*%
X121183462Y-117760028D02*
X121183462Y-120110028D01*
X121183462Y-124580028D02*
X121183462Y-122230028D01*
X126939025Y-117760028D02*
X121183462Y-117760028D01*
X126939025Y-124580028D02*
X121183462Y-124580028D01*
X128003462Y-118824465D02*
X126939025Y-117760028D01*
X128003462Y-118824465D02*
X128003462Y-120110028D01*
X128003462Y-123515591D02*
X126939025Y-124580028D01*
X128003462Y-123515591D02*
X128003462Y-122230028D01*
X128637212Y-123411278D02*
X128637212Y-122623778D01*
X129030962Y-123017528D02*
X128243462Y-123017528D01*
%TO.C,C85*%
X101046706Y-90074214D02*
X101327866Y-90074214D01*
X101046706Y-91094214D02*
X101327866Y-91094214D01*
%TO.C,L4*%
X137468462Y-88325028D02*
X134068462Y-88325028D01*
X134068462Y-85925028D01*
X137468462Y-85925028D01*
X137468462Y-88325028D01*
%TO.C,C44*%
X117651298Y-88847528D02*
X117435626Y-88847528D01*
X117651298Y-89567528D02*
X117435626Y-89567528D01*
%TO.C,C73*%
X82728901Y-87523514D02*
X83010061Y-87523514D01*
X82728901Y-88543514D02*
X83010061Y-88543514D01*
%TO.C,D7*%
X98305081Y-93537814D02*
X100590081Y-93537814D01*
X100590081Y-92067814D02*
X98305081Y-92067814D01*
X100590081Y-93537814D02*
X100590081Y-92067814D01*
%TO.C,Q3*%
X102321767Y-80617095D02*
X102321767Y-82647095D01*
X102321767Y-80617095D02*
X102981767Y-80617095D01*
X103981767Y-80617095D02*
X104641767Y-80617095D01*
X104641767Y-82027095D02*
X104641767Y-80617095D01*
%TO.C,C53*%
X131345962Y-93462192D02*
X131345962Y-93677864D01*
X132065962Y-93462192D02*
X132065962Y-93677864D01*
%TO.C,C315*%
X67285317Y-86658014D02*
X67069645Y-86658014D01*
X67285317Y-87378014D02*
X67069645Y-87378014D01*
%TO.C,C26*%
X127958462Y-81337192D02*
X127958462Y-81552864D01*
X128678462Y-81337192D02*
X128678462Y-81552864D01*
%TO.C,FB8*%
X63257221Y-108482900D02*
X63582779Y-108482900D01*
X63257221Y-109502900D02*
X63582779Y-109502900D01*
%TO.C,R25*%
X91649102Y-86491014D02*
X91313860Y-86491014D01*
X91649102Y-87251014D02*
X91313860Y-87251014D01*
%TO.C,C64*%
X65110000Y-106886298D02*
X65110000Y-106670626D01*
X65830000Y-106886298D02*
X65830000Y-106670626D01*
%TO.C,R79*%
X116291040Y-94183014D02*
X116598322Y-94183014D01*
X116291040Y-94943014D02*
X116598322Y-94943014D01*
%TO.C,L2*%
X118918462Y-88725028D02*
X122318462Y-88725028D01*
X122318462Y-91125028D01*
X118918462Y-91125028D01*
X118918462Y-88725028D01*
%TO.C,C76*%
X87149901Y-81535014D02*
X87431061Y-81535014D01*
X87149901Y-82555014D02*
X87431061Y-82555014D01*
D14*
%TO.C,U13*%
X73100000Y-103375000D02*
X73100000Y-106625000D01*
X73100000Y-103375000D02*
X75975000Y-103375000D01*
X73100000Y-116375000D02*
X73100000Y-113125000D01*
X73100000Y-116375000D02*
X75975000Y-116375000D01*
X84600000Y-103375000D02*
X81725000Y-103375000D01*
X84600000Y-103375000D02*
X84600000Y-106625000D01*
X84600000Y-116375000D02*
X81725000Y-116375000D01*
X84600000Y-116375000D02*
X84600000Y-113125000D01*
D15*
X72700000Y-106625000D02*
G75*
G02*
X72500000Y-106625000I-100000J0D01*
G01*
X72500000Y-106625000D02*
G75*
G02*
X72700000Y-106625000I100000J0D01*
G01*
D12*
%TO.C,R12*%
X121813462Y-81291387D02*
X121813462Y-81598669D01*
X122573462Y-81291387D02*
X122573462Y-81598669D01*
%TO.C,R19*%
X84557360Y-89038014D02*
X84892602Y-89038014D01*
X84557360Y-89798014D02*
X84892602Y-89798014D01*
%TO.C,C77*%
X91467901Y-88901014D02*
X91749061Y-88901014D01*
X91467901Y-89921014D02*
X91749061Y-89921014D01*
%TO.C,C27*%
X121183462Y-110660028D02*
X121183462Y-113010028D01*
X121183462Y-117480028D02*
X121183462Y-115130028D01*
X126939025Y-110660028D02*
X121183462Y-110660028D01*
X126939025Y-117480028D02*
X121183462Y-117480028D01*
X128003462Y-111724465D02*
X126939025Y-110660028D01*
X128003462Y-111724465D02*
X128003462Y-113010028D01*
X128003462Y-116415591D02*
X126939025Y-117480028D01*
X128003462Y-116415591D02*
X128003462Y-115130028D01*
X128637212Y-116311278D02*
X128637212Y-115523778D01*
X129030962Y-115917528D02*
X128243462Y-115917528D01*
%TO.C,R75*%
X133690281Y-99237855D02*
X133690281Y-98930573D01*
X134450281Y-99237855D02*
X134450281Y-98930573D01*
%TO.C,R2*%
X120988462Y-106923669D02*
X120988462Y-106616387D01*
X121748462Y-106923669D02*
X121748462Y-106616387D01*
%TO.C,R78*%
X120528840Y-94183014D02*
X120836122Y-94183014D01*
X120528840Y-94943014D02*
X120836122Y-94943014D01*
%TO.C,L3*%
X127793462Y-96975028D02*
X130193462Y-96975028D01*
X130193462Y-93575028D01*
X127793462Y-93575028D01*
X127793462Y-96975028D01*
%TO.C,Q7*%
X111664681Y-97019814D02*
X111664681Y-96359814D01*
X111664681Y-98679814D02*
X111664681Y-98019814D01*
X111664681Y-98679814D02*
X113694681Y-98679814D01*
X113074681Y-96359814D02*
X111664681Y-96359814D01*
%TO.C,C50*%
X117651298Y-86947528D02*
X117435626Y-86947528D01*
X117651298Y-87667528D02*
X117435626Y-87667528D01*
%TO.C,C80*%
X106966481Y-92163594D02*
X106966481Y-91882434D01*
X107986481Y-92163594D02*
X107986481Y-91882434D01*
%TO.C,U6*%
X67631281Y-104659014D02*
X67631281Y-107659014D01*
X70871281Y-103659014D02*
X70871281Y-105659014D01*
%TO.C,R35*%
X90239240Y-100296814D02*
X90546522Y-100296814D01*
X90239240Y-101056814D02*
X90546522Y-101056814D01*
%TO.C,C290*%
X137057200Y-124028180D02*
X137057200Y-123747020D01*
X138077200Y-124028180D02*
X138077200Y-123747020D01*
%TO.C,R18*%
X82645102Y-89038014D02*
X82309860Y-89038014D01*
X82645102Y-89798014D02*
X82309860Y-89798014D01*
%TO.C,C32*%
X126883462Y-98249692D02*
X126883462Y-98465364D01*
X127603462Y-98249692D02*
X127603462Y-98465364D01*
%TO.C,R57*%
X121535481Y-83641373D02*
X121535481Y-83948655D01*
X122295481Y-83641373D02*
X122295481Y-83948655D01*
%TO.C,R81*%
X116291040Y-100177414D02*
X116598322Y-100177414D01*
X116291040Y-100937414D02*
X116598322Y-100937414D01*
%TO.C,C16*%
X134093798Y-83010028D02*
X133878126Y-83010028D01*
X134093798Y-83730028D02*
X133878126Y-83730028D01*
%TO.C,L7*%
X68541629Y-108160414D02*
X69064133Y-108160414D01*
X68541629Y-110160414D02*
X69064133Y-110160414D01*
%TO.C,SW2*%
X135115481Y-94845014D02*
X138215481Y-94845014D01*
X138215481Y-97245014D01*
X135115481Y-97245014D01*
X135115481Y-94845014D01*
%TO.C,R108*%
X68528859Y-122350400D02*
X68836141Y-122350400D01*
X68528859Y-123110400D02*
X68836141Y-123110400D01*
%TO.C,SW1*%
X135115481Y-92345014D02*
X138215481Y-92345014D01*
X138215481Y-94745014D01*
X135115481Y-94745014D01*
X135115481Y-92345014D01*
%TO.C,C48*%
X120833462Y-81572864D02*
X120833462Y-81357192D01*
X121553462Y-81572864D02*
X121553462Y-81357192D01*
%TO.C,C42*%
X131833462Y-117133776D02*
X131833462Y-118556280D01*
X133653462Y-117133776D02*
X133653462Y-118556280D01*
%TO.C,R58*%
X136119122Y-91365014D02*
X135811840Y-91365014D01*
X136119122Y-92125014D02*
X135811840Y-92125014D01*
%TO.C,D10*%
X64870000Y-98690000D02*
X64870000Y-96030000D01*
X64870000Y-98690000D02*
X66570000Y-98690000D01*
X66570000Y-98690000D02*
X66570000Y-96030000D01*
%TO.C,L6*%
X129613462Y-103340028D02*
X129613462Y-113700028D01*
X129613462Y-113700028D02*
X132018462Y-113700028D01*
X132018462Y-103340028D02*
X129613462Y-103340028D01*
X137568462Y-103340028D02*
X139973462Y-103340028D01*
X139973462Y-103340028D02*
X139973462Y-113700028D01*
X139973462Y-113700028D02*
X137568462Y-113700028D01*
D14*
%TO.C,U9*%
X86545000Y-102655400D02*
X90795000Y-102655400D01*
X86545000Y-106905400D02*
X86545000Y-102655400D01*
X86545000Y-119655400D02*
X86545000Y-115405400D01*
X90795000Y-119655400D02*
X86545000Y-119655400D01*
X99295000Y-102655400D02*
X103545000Y-102655400D01*
X103545000Y-102655400D02*
X103545000Y-106905400D01*
X103545000Y-115405400D02*
X103545000Y-119655400D01*
X103545000Y-119655400D02*
X99295000Y-119655400D01*
D16*
X87265000Y-120655400D02*
G75*
G02*
X87025000Y-120655400I-120000J0D01*
G01*
X87025000Y-120655400D02*
G75*
G02*
X87265000Y-120655400I120000J0D01*
G01*
D12*
%TO.C,D2*%
X99698767Y-80928095D02*
X99698767Y-83213095D01*
X99698767Y-83213095D02*
X101168767Y-83213095D01*
X101168767Y-83213095D02*
X101168767Y-80928095D01*
%TO.C,U7*%
X96141767Y-83960228D02*
X96641767Y-83960228D01*
X96141767Y-84210228D02*
X96141767Y-83960228D01*
X96141767Y-85710228D02*
X96141767Y-85960228D01*
X96141767Y-85960228D02*
X96641767Y-85960228D01*
X98641767Y-85960228D02*
X99141767Y-85960228D01*
X99141767Y-83960228D02*
X98641767Y-83960228D01*
X99141767Y-84210228D02*
X99141767Y-83960228D01*
X99141767Y-85960228D02*
X99141767Y-85710228D01*
X96391767Y-86210228D02*
X96641767Y-86210228D01*
X96641767Y-85960228D01*
X96391767Y-85960228D01*
X96391767Y-86210228D01*
G36*
X96391767Y-86210228D02*
G01*
X96641767Y-86210228D01*
X96641767Y-85960228D01*
X96391767Y-85960228D01*
X96391767Y-86210228D01*
G37*
%TO.C,C61*%
X133690626Y-88965028D02*
X133906298Y-88965028D01*
X133690626Y-89685028D02*
X133906298Y-89685028D01*
%TO.C,HS1*%
X85046000Y-101155400D02*
X105046000Y-101155400D01*
X105046000Y-121155400D01*
X85046000Y-121155400D01*
X85046000Y-101155400D01*
%TO.C,U3*%
X62945000Y-104748462D02*
X62145000Y-104748462D01*
X62945000Y-104748462D02*
X63745000Y-104748462D01*
X62945000Y-107868462D02*
X62145000Y-107868462D01*
X62945000Y-107868462D02*
X64745000Y-107868462D01*
%TO.C,R27*%
X101059388Y-83930228D02*
X100724146Y-83930228D01*
X101059388Y-84690228D02*
X100724146Y-84690228D01*
%TO.C,C45*%
X117651298Y-87897528D02*
X117435626Y-87897528D01*
X117651298Y-88617528D02*
X117435626Y-88617528D01*
%TO.C,U1*%
X123783462Y-91580028D02*
X123783462Y-91105028D01*
X124258462Y-83360028D02*
X123783462Y-83360028D01*
X124258462Y-91580028D02*
X123783462Y-91580028D01*
X131528462Y-83360028D02*
X132003462Y-83360028D01*
X131528462Y-91580028D02*
X132003462Y-91580028D01*
X132003462Y-83360028D02*
X132003462Y-83835028D01*
X132003462Y-91580028D02*
X132003462Y-91105028D01*
%TO.C,C288*%
X66424901Y-128035014D02*
X66706061Y-128035014D01*
X66424901Y-129055014D02*
X66706061Y-129055014D01*
%TO.C,C57*%
X108335164Y-82393014D02*
X108550836Y-82393014D01*
X108335164Y-83113014D02*
X108550836Y-83113014D01*
%TO.C,R20*%
X70531081Y-109094393D02*
X70531081Y-109429635D01*
X71291081Y-109094393D02*
X71291081Y-109429635D01*
%TO.C,R93*%
X65820000Y-102993641D02*
X65820000Y-102686359D01*
X66580000Y-102993641D02*
X66580000Y-102686359D01*
%TO.C,R13*%
X124713462Y-81291387D02*
X124713462Y-81598669D01*
X125473462Y-81291387D02*
X125473462Y-81598669D01*
%TO.C,C52*%
X117651298Y-85047528D02*
X117435626Y-85047528D01*
X117651298Y-85767528D02*
X117435626Y-85767528D01*
%TO.C,C58*%
X130958462Y-81552864D02*
X130958462Y-81337192D01*
X131678462Y-81552864D02*
X131678462Y-81337192D01*
%TO.C,R92*%
X64847481Y-102993641D02*
X64847481Y-102686359D01*
X65607481Y-102993641D02*
X65607481Y-102686359D01*
%TO.C,C23*%
X127933462Y-98249692D02*
X127933462Y-98465364D01*
X128653462Y-98249692D02*
X128653462Y-98465364D01*
%TO.C,SH2*%
X98193831Y-90075228D02*
X97739703Y-90075228D01*
X98193831Y-91545228D02*
X97739703Y-91545228D01*
%TO.C,C33*%
X135510000Y-89602564D02*
X135510000Y-89818236D01*
X136230000Y-89602564D02*
X136230000Y-89818236D01*
%TO.C,R15*%
X112714102Y-80022014D02*
X112378860Y-80022014D01*
X112714102Y-80782014D02*
X112378860Y-80782014D01*
%TO.C,C29*%
X125933462Y-98249692D02*
X125933462Y-98465364D01*
X126653462Y-98249692D02*
X126653462Y-98465364D01*
%TO.C,C40*%
X134133462Y-117133776D02*
X134133462Y-118556280D01*
X135953462Y-117133776D02*
X135953462Y-118556280D01*
%TO.C,R106*%
X64540000Y-123346541D02*
X64540000Y-123039259D01*
X65300000Y-123346541D02*
X65300000Y-123039259D01*
%TO.C,C81*%
X104299481Y-92163594D02*
X104299481Y-91882434D01*
X105319481Y-92163594D02*
X105319481Y-91882434D01*
%TO.C,Q2*%
X115705481Y-82110014D02*
X111705481Y-82110014D01*
X111705481Y-86860014D01*
X115705481Y-86860014D01*
X115705481Y-82110014D01*
%TO.C,Q4*%
X108909481Y-125736014D02*
X108109481Y-125736014D01*
X108909481Y-125736014D02*
X109709481Y-125736014D01*
X108909481Y-128856014D02*
X108109481Y-128856014D01*
X108909481Y-128856014D02*
X110709481Y-128856014D01*
%TO.C,R88*%
X66770000Y-97513641D02*
X66770000Y-97206359D01*
X67530000Y-97513641D02*
X67530000Y-97206359D01*
%TO.C,Y5*%
X66982500Y-127030400D02*
X72882500Y-127030400D01*
X72882500Y-123430400D02*
X66982500Y-123430400D01*
X72882500Y-127030400D02*
X72882500Y-123430400D01*
%TO.C,R28*%
X104723102Y-83261014D02*
X104387860Y-83261014D01*
X104723102Y-84021014D02*
X104387860Y-84021014D01*
%TO.C,C55*%
X117651298Y-85997528D02*
X117435626Y-85997528D01*
X117651298Y-86717528D02*
X117435626Y-86717528D01*
%TO.C,SH1*%
X88115045Y-90073014D02*
X87660917Y-90073014D01*
X88115045Y-91543014D02*
X87660917Y-91543014D01*
%TO.C,R91*%
X66790000Y-100803641D02*
X66790000Y-100496359D01*
X67550000Y-100803641D02*
X67550000Y-100496359D01*
%TO.C,C319*%
X72374664Y-122370400D02*
X72590336Y-122370400D01*
X72374664Y-123090400D02*
X72590336Y-123090400D01*
%TO.C,U17*%
X63210000Y-112920400D02*
X63210000Y-113470400D01*
X63210000Y-121140400D02*
X63210000Y-120590400D01*
X63760000Y-112920400D02*
X63210000Y-112920400D01*
X63760000Y-121140400D02*
X63210000Y-121140400D01*
X70880000Y-112920400D02*
X71430000Y-112920400D01*
X70880000Y-121140400D02*
X71430000Y-121140400D01*
X71430000Y-112920400D02*
X71430000Y-113470400D01*
%TO.C,R30*%
X100724146Y-84905228D02*
X101059388Y-84905228D01*
X100724146Y-85665228D02*
X101059388Y-85665228D01*
%TO.C,C69*%
X60060000Y-106886298D02*
X60060000Y-106670626D01*
X60780000Y-106886298D02*
X60780000Y-106670626D01*
%TO.C,D11*%
X80292481Y-89970514D02*
X80292481Y-92255514D01*
X81762481Y-89970514D02*
X80292481Y-89970514D01*
X81762481Y-92255514D02*
X81762481Y-89970514D01*
%TO.C,C24*%
X126983462Y-81337192D02*
X126983462Y-81552864D01*
X127703462Y-81337192D02*
X127703462Y-81552864D01*
%TO.C,R66*%
X105523000Y-115300559D02*
X105523000Y-115607841D01*
X106283000Y-115300559D02*
X106283000Y-115607841D01*
%TO.C,SW3*%
X114614481Y-96230014D02*
X115804481Y-96230014D01*
X115804481Y-95315014D02*
X115804481Y-96230014D01*
X115804481Y-95315014D02*
X121325481Y-95315014D01*
X115804481Y-98800014D02*
X115804481Y-99775014D01*
X115804481Y-99775014D02*
X121325481Y-99775014D01*
X121325481Y-95315014D02*
X121325481Y-96290014D01*
X121325481Y-98800014D02*
X121325481Y-99775014D01*
%TO.C,C311*%
X67285317Y-82058014D02*
X67069645Y-82058014D01*
X67285317Y-82778014D02*
X67069645Y-82778014D01*
%TO.C,R60*%
X112211840Y-94065014D02*
X112519122Y-94065014D01*
X112211840Y-94825014D02*
X112519122Y-94825014D01*
%TO.C,Q8*%
X93009081Y-91954014D02*
X92209081Y-91954014D01*
X93009081Y-91954014D02*
X93809081Y-91954014D01*
X93009081Y-95074014D02*
X92209081Y-95074014D01*
X93009081Y-95074014D02*
X94809081Y-95074014D01*
%TO.C,R80*%
X120528840Y-100152014D02*
X120836122Y-100152014D01*
X120528840Y-100912014D02*
X120836122Y-100912014D01*
%TO.C,R22*%
X83559860Y-80438014D02*
X83895102Y-80438014D01*
X83559860Y-81198014D02*
X83895102Y-81198014D01*
%TO.C,R26*%
X91313860Y-85475014D02*
X91649102Y-85475014D01*
X91313860Y-86235014D02*
X91649102Y-86235014D01*
%TO.C,Q6*%
X107575381Y-120286214D02*
X107575381Y-119626214D01*
X107575381Y-121946214D02*
X107575381Y-121286214D01*
X107575381Y-121946214D02*
X109605381Y-121946214D01*
X108985381Y-119626214D02*
X107575381Y-119626214D01*
%TO.C,L8*%
X87626729Y-87285014D02*
X88149233Y-87285014D01*
X87626729Y-89505014D02*
X88149233Y-89505014D01*
%TO.C,C31*%
X130783462Y-98249692D02*
X130783462Y-98465364D01*
X131503462Y-98249692D02*
X131503462Y-98465364D01*
%TO.C,U8*%
X103564481Y-85150014D02*
X103564481Y-86450014D01*
X106684481Y-86450014D02*
X106684481Y-84450014D01*
%TO.C,C56*%
X112550836Y-81203000D02*
X112335164Y-81203000D01*
X112550836Y-81923000D02*
X112335164Y-81923000D01*
%TO.C,D6*%
X110207981Y-120599614D02*
X110207981Y-122069614D01*
X110207981Y-122069614D02*
X112492981Y-122069614D01*
X112492981Y-120599614D02*
X110207981Y-120599614D01*
%TO.C,C309*%
X70690336Y-122370400D02*
X70474664Y-122370400D01*
X70690336Y-123090400D02*
X70474664Y-123090400D01*
%TO.C,R87*%
X69047481Y-94754373D02*
X69047481Y-95061655D01*
X69807481Y-94754373D02*
X69807481Y-95061655D01*
%TO.C,R95*%
X72240000Y-121049259D02*
X72240000Y-121356541D01*
X73000000Y-121049259D02*
X73000000Y-121356541D01*
%TO.C,D9*%
X64860000Y-101900000D02*
X64860000Y-99240000D01*
X64860000Y-101900000D02*
X66560000Y-101900000D01*
X66560000Y-101900000D02*
X66560000Y-99240000D01*
%TO.C,R24*%
X101323767Y-81941474D02*
X101323767Y-82276716D01*
X102083767Y-81941474D02*
X102083767Y-82276716D01*
%TO.C,R85*%
X71798840Y-100538014D02*
X72106122Y-100538014D01*
X71798840Y-101298014D02*
X72106122Y-101298014D01*
%TO.C,C37*%
X124033462Y-98249692D02*
X124033462Y-98465364D01*
X124753462Y-98249692D02*
X124753462Y-98465364D01*
%TO.C,Q5*%
X136313881Y-98405014D02*
X136313881Y-100435014D01*
X136313881Y-98405014D02*
X136973881Y-98405014D01*
X137973881Y-98405014D02*
X138633881Y-98405014D01*
X138633881Y-99815014D02*
X138633881Y-98405014D01*
%TO.C,Y1*%
X92108481Y-97823014D02*
X92108481Y-97023014D01*
X93908481Y-95623014D02*
X95708481Y-95623014D01*
X95708481Y-95623014D02*
X95708481Y-95383014D01*
X95708481Y-99223014D02*
X93908481Y-99223014D01*
X97508481Y-97023014D02*
X97508481Y-97823014D01*
X97908481Y-97023014D02*
X97508481Y-97023014D01*
%TO.C,U16*%
X80764481Y-94629814D02*
X81239481Y-94629814D01*
X80764481Y-95104814D02*
X80764481Y-94629814D01*
X80764481Y-98374814D02*
X80764481Y-98849814D01*
X80764481Y-98849814D02*
X81239481Y-98849814D01*
X84984481Y-95104814D02*
X84984481Y-94629814D01*
X84984481Y-98374814D02*
X84984481Y-98849814D01*
X84984481Y-98849814D02*
X84509481Y-98849814D01*
%TO.C,L9*%
X97380515Y-87162814D02*
X97903019Y-87162814D01*
X97380515Y-89382814D02*
X97903019Y-89382814D01*
%TO.C,Y2*%
X98658481Y-97823014D02*
X98658481Y-97023014D01*
X100458481Y-95623014D02*
X102258481Y-95623014D01*
X102258481Y-95623014D02*
X102258481Y-95383014D01*
X102258481Y-99223014D02*
X100458481Y-99223014D01*
X104058481Y-97023014D02*
X104058481Y-97823014D01*
X104458481Y-97023014D02*
X104058481Y-97023014D01*
%TO.C,D3*%
X105725481Y-88175014D02*
X105725481Y-90460014D01*
X105725481Y-90460014D02*
X107195481Y-90460014D01*
X107195481Y-90460014D02*
X107195481Y-88175014D01*
%TO.C,R68*%
X113569359Y-101484200D02*
X113876641Y-101484200D01*
X113569359Y-102244200D02*
X113876641Y-102244200D01*
%TO.C,C18*%
X132983462Y-90597192D02*
X132983462Y-90812864D01*
X133703462Y-90597192D02*
X133703462Y-90812864D01*
%TO.C,R29*%
X101059388Y-85880228D02*
X100724146Y-85880228D01*
X101059388Y-86640228D02*
X100724146Y-86640228D01*
%TO.C,D12*%
X78819281Y-89985114D02*
X78819281Y-92270114D01*
X80289281Y-89985114D02*
X78819281Y-89985114D01*
X80289281Y-92270114D02*
X80289281Y-89985114D01*
%TO.C,J4*%
X59953481Y-90049014D02*
X59953481Y-87349014D01*
X62673481Y-87299014D02*
X62673481Y-87939014D01*
X62673481Y-89459014D02*
X63303481Y-89459014D01*
X62673481Y-90099014D02*
X62673481Y-89459014D01*
%TO.C,R53*%
X95089122Y-99837014D02*
X94781840Y-99837014D01*
X95089122Y-100597014D02*
X94781840Y-100597014D01*
%TO.C,R21*%
X91649102Y-84459014D02*
X91313860Y-84459014D01*
X91649102Y-85219014D02*
X91313860Y-85219014D01*
%TO.C,C321*%
X63507836Y-109932900D02*
X63292164Y-109932900D01*
X63507836Y-110652900D02*
X63292164Y-110652900D01*
%TO.C,R16*%
X110510621Y-81183000D02*
X110175379Y-81183000D01*
X110510621Y-81943000D02*
X110175379Y-81943000D01*
%TO.C,C313*%
X76417481Y-84325850D02*
X76417481Y-84110178D01*
X77137481Y-84325850D02*
X77137481Y-84110178D01*
%TO.C,C14*%
X134093798Y-83960028D02*
X133878126Y-83960028D01*
X134093798Y-84680028D02*
X133878126Y-84680028D01*
%TO.C,C83*%
X101046706Y-88550214D02*
X101327866Y-88550214D01*
X101046706Y-89570214D02*
X101327866Y-89570214D01*
%TO.C,C19*%
X133958462Y-90807864D02*
X133958462Y-90592192D01*
X134678462Y-90807864D02*
X134678462Y-90592192D01*
%TO.C,R76*%
X113344981Y-120670973D02*
X113344981Y-120978255D01*
X114104981Y-120670973D02*
X114104981Y-120978255D01*
%TO.C,C84*%
X95839706Y-81311214D02*
X96120866Y-81311214D01*
X95839706Y-82331214D02*
X96120866Y-82331214D01*
%TO.C,C51*%
X117651298Y-90784194D02*
X117435626Y-90784194D01*
X117651298Y-91504194D02*
X117435626Y-91504194D01*
%TO.C,R11*%
X121411840Y-85197528D02*
X121719122Y-85197528D01*
X121411840Y-85957528D02*
X121719122Y-85957528D01*
%TO.C,R6*%
X123606722Y-102548614D02*
X123299440Y-102548614D01*
X123606722Y-103308614D02*
X123299440Y-103308614D01*
%TO.C,C68*%
X79565481Y-83828934D02*
X79565481Y-84110094D01*
X80585481Y-83828934D02*
X80585481Y-84110094D01*
%TO.C,Q1*%
X108133000Y-84248000D02*
X108133000Y-85658000D01*
X108793000Y-85658000D02*
X108133000Y-85658000D01*
X110453000Y-85658000D02*
X109793000Y-85658000D01*
X110453000Y-85658000D02*
X110453000Y-83628000D01*
%TO.C,C25*%
X126058462Y-81337192D02*
X126058462Y-81552864D01*
X126778462Y-81337192D02*
X126778462Y-81552864D01*
%TO.C,R83*%
X112733040Y-95249814D02*
X113040322Y-95249814D01*
X112733040Y-96009814D02*
X113040322Y-96009814D01*
%TO.C,R8*%
X126502322Y-102599414D02*
X126195040Y-102599414D01*
X126502322Y-103359414D02*
X126195040Y-103359414D01*
%TO.C,R94*%
X82926522Y-89933614D02*
X82619240Y-89933614D01*
X82926522Y-90693614D02*
X82619240Y-90693614D01*
%TO.C,U4*%
X81717481Y-84368014D02*
X81717481Y-83568014D01*
X81717481Y-84368014D02*
X81717481Y-86168014D01*
X84837481Y-84368014D02*
X84837481Y-83568014D01*
X84837481Y-84368014D02*
X84837481Y-85168014D01*
%TO.C,C28*%
X121183462Y-124860028D02*
X121183462Y-127210028D01*
X121183462Y-131680028D02*
X121183462Y-129330028D01*
X126939025Y-124860028D02*
X121183462Y-124860028D01*
X126939025Y-131680028D02*
X121183462Y-131680028D01*
X128003462Y-125924465D02*
X126939025Y-124860028D01*
X128003462Y-125924465D02*
X128003462Y-127210028D01*
X128003462Y-130615591D02*
X126939025Y-131680028D01*
X128003462Y-130615591D02*
X128003462Y-129330028D01*
X128637212Y-130511278D02*
X128637212Y-129723778D01*
X129030962Y-130117528D02*
X128243462Y-130117528D01*
%TO.C,R65*%
X105583000Y-106913041D02*
X105583000Y-106605759D01*
X106343000Y-106913041D02*
X106343000Y-106605759D01*
%TO.C,C30*%
X136465000Y-89602564D02*
X136465000Y-89818236D01*
X137185000Y-89602564D02*
X137185000Y-89818236D01*
%TO.C,R32*%
X103159481Y-92118393D02*
X103159481Y-92453635D01*
X103919481Y-92118393D02*
X103919481Y-92453635D01*
%TO.C,Q9*%
X83814281Y-90821214D02*
X82014281Y-90821214D01*
X83814281Y-90821214D02*
X84614281Y-90821214D01*
X83814281Y-93941214D02*
X83014281Y-93941214D01*
X83814281Y-93941214D02*
X84614281Y-93941214D01*
%TO.C,R82*%
X100731681Y-93385773D02*
X100731681Y-93693055D01*
X101491681Y-93385773D02*
X101491681Y-93693055D01*
%TO.C,C35*%
X136433462Y-117133776D02*
X136433462Y-118556280D01*
X138253462Y-117133776D02*
X138253462Y-118556280D01*
%TO.C,U11*%
X111105481Y-92045014D02*
X111105481Y-91395014D01*
X111105481Y-92045014D02*
X111105481Y-93720014D01*
X114225481Y-92045014D02*
X114225481Y-91395014D01*
X114225481Y-92045014D02*
X114225481Y-92695014D01*
%TO.C,C22*%
X138360000Y-89602564D02*
X138360000Y-89818236D01*
X139080000Y-89602564D02*
X139080000Y-89818236D01*
%TO.C,C21*%
X124983462Y-98249692D02*
X124983462Y-98465364D01*
X125703462Y-98249692D02*
X125703462Y-98465364D01*
%TO.C,R54*%
X101566122Y-99710014D02*
X101258840Y-99710014D01*
X101566122Y-100470014D02*
X101258840Y-100470014D01*
%TO.C,R4*%
X120988462Y-104998669D02*
X120988462Y-104691387D01*
X121748462Y-104998669D02*
X121748462Y-104691387D01*
%TO.C,R5*%
X123606722Y-101583414D02*
X123299440Y-101583414D01*
X123606722Y-102343414D02*
X123299440Y-102343414D01*
%TD*%
D17*
X57565481Y-77545014D02*
X141565481Y-77545014D01*
X141565481Y-132545014D01*
X57565481Y-132545014D01*
X57565481Y-77545014D01*
M02*
