M48
; DRILL file {KiCad 7.99.0-3958-g1df84f4d92} date 2023-12-24T01:26:04+0100
; FORMAT={-:-/ absolute / inch / decimal}
; #@! TF.CreationDate,2023-12-24T01:26:04+01:00
; #@! TF.GenerationSoftware,Kicad,Pcbnew,7.99.0-3958-g1df84f4d92
; #@! TF.FileFunction,Plated,1,8,PTH
FMAT,2
INCH
; #@! TA.AperFunction,Plated,PTH,ViaDrill
T1C0.0059
; #@! TA.AperFunction,Plated,PTH,ViaDrill
T2C0.0079
; #@! TA.AperFunction,Plated,PTH,ComponentDrill
T3C0.0079
; #@! TA.AperFunction,Plated,PTH,ViaDrill
T4C0.0157
; #@! TA.AperFunction,Plated,PTH,ComponentDrill
T5C0.0295
; #@! TA.AperFunction,Plated,PTH,ComponentDrill
T6C0.1063
%
G90
G05
T1
X2.3104Y-3.5001
X2.3104Y-3.5395
X2.3104Y-3.5788
X2.3104Y-3.6182
X2.3104Y-3.6576
X2.3104Y-3.6969
X2.3104Y-3.7363
X2.3108Y-3.7685
X2.3108Y-3.8079
X2.3108Y-3.8472
X2.3108Y-3.8866
X2.3108Y-3.926
X2.3108Y-3.9654
X2.3108Y-4.0047
X2.3108Y-4.0441
X2.3108Y-4.0835
X2.3108Y-4.1228
X2.3108Y-4.1622
X2.3108Y-4.2016
X2.3108Y-4.2409
X2.3108Y-4.2803
X2.3108Y-4.3197
X2.3108Y-4.3591
X2.3108Y-4.3984
X2.3108Y-4.4378
X2.3108Y-4.4772
X2.3108Y-4.5165
X2.3108Y-4.5559
X2.3108Y-4.5953
X2.3108Y-4.6346
X2.3108Y-4.674
X2.3108Y-4.7134
X2.3108Y-4.7528
X2.3108Y-4.7921
X2.3108Y-4.8315
X2.3108Y-4.8709
X2.3108Y-4.9102
X2.3164Y-3.4583
X2.3726Y-4.5288
X2.3726Y-4.5607
X2.3758Y-4.2477
X2.3787Y-4.174
X2.4058Y-4.5897
X2.4114Y-3.3783
X2.4238Y-4.5757
X2.4288Y-4.2467
X2.4338Y-4.7177
X2.4388Y-4.6862
X2.4391Y-4.2968
X2.4398Y-4.1837
X2.4457Y-3.3319
X2.4458Y-4.8267
X2.4521Y-4.513
X2.453Y-4.5455
X2.4654Y-4.6232
X2.4654Y-4.702
X2.4654Y-4.7335
X2.4661Y-4.3422
X2.4781Y-4.1854
X2.4864Y-3.3333
X2.4938Y-4.1357
X2.4941Y-4.2268
X2.5141Y-4.2468
X2.5198Y-4.4187
X2.5208Y-3.5873
X2.5218Y-4.3247
X2.5323Y-3.3319
X2.5368Y-4.4137
X2.5408Y-4.1347
X2.5408Y-4.3027
X2.5418Y-4.3237
X2.5558Y-4.3507
X2.568Y-4.0814
X2.5739Y-3.3314
X2.5739Y-3.4417
X2.5766Y-3.3821
X2.5776Y-4.174
X2.5846Y-3.7579
X2.5854Y-4.9564
X2.5874Y-4.7925
X2.5992Y-4.5548
X2.5992Y-4.61
X2.5992Y-4.6572
X2.6118Y-4.3507
X2.6161Y-3.9811
X2.6173Y-4.1437
X2.6189Y-4.7925
X2.6254Y-5.1723
X2.6257Y-3.0992
X2.6308Y-4.4157
X2.6346Y-4.8043
X2.6504Y-4.5588
X2.6504Y-4.606
X2.6504Y-4.6572
X2.6504Y-4.7925
X2.6528Y-4.3497
X2.6558Y-3.8843
X2.6648Y-5.1723
X2.6651Y-3.0992
X2.6661Y-4.8058
X2.6678Y-3.3237
X2.6768Y-3.3037
X2.6776Y-3.2448
X2.6776Y-3.3629
X2.6777Y-3.422
X2.6808Y-4.3497
X2.6819Y-4.7925
X2.692Y-3.7271
X2.7016Y-4.5548
X2.7016Y-4.606
X2.7016Y-4.6572
X2.7041Y-5.1723
X2.7045Y-3.0992
X2.7088Y-4.3497
X2.7276Y-4.4131
X2.7328Y-3.6967
X2.7353Y-3.5184
X2.7435Y-5.1723
X2.7438Y-3.0992
X2.7609Y-3.7566
X2.7656Y-3.5368
X2.7747Y-3.5184
X2.7764Y-4.7925
X2.7818Y-3.8337
X2.7829Y-5.1723
X2.7832Y-3.0992
X2.7944Y-3.1897
X2.7944Y-3.5184
X2.7977Y-4.8441
X2.8023Y-3.6464
X2.8079Y-4.4466
X2.8121Y-3.1661
X2.8222Y-5.1723
X2.8226Y-3.0992
X2.8238Y-3.5372
X2.8285Y-4.3895
X2.8328Y-3.8247
X2.8338Y-3.1897
X2.8357Y-3.168
X2.8374Y-4.4815
X2.842Y-4.703
X2.842Y-4.5435
X2.842Y-4.5612
X2.842Y-4.5908
X2.842Y-4.6085
X2.842Y-4.638
X2.842Y-4.6557
X2.842Y-4.6853
X2.8465Y-4.7918
X2.8558Y-4.0086
X2.8568Y-4.7217
X2.8574Y-3.6464
X2.8602Y-4.5722
X2.861Y-4.5257
X2.861Y-4.6227
X2.861Y-4.6707
X2.8616Y-5.1723
X2.8619Y-3.0992
X2.8658Y-3.9732
X2.8771Y-3.1818
X2.89Y-4.9279
X2.901Y-5.1723
X2.9013Y-3.0992
X2.9125Y-3.1897
X2.9404Y-5.1723
X2.9407Y-3.0992
X2.9801Y-3.0992
X2.9801Y-5.172
X2.9828Y-4.1455
X3.0078Y-4.1417
X3.0126Y-4.1744
X3.0129Y-3.3432
X3.0157Y-4.4695
X3.0165Y-3.647
X3.0194Y-3.0992
X3.0194Y-5.172
X3.0227Y-3.2763
X3.038Y-5.053
X3.0393Y-4.1416
X3.0428Y-4.1067
X3.0588Y-3.0992
X3.0588Y-5.172
X3.0644Y-4.1451
X3.0687Y-3.647
X3.07Y-3.1503
X3.07Y-3.1976
X3.07Y-3.3235
X3.07Y-3.355
X3.07Y-3.3944
X3.07Y-3.4338
X3.07Y-3.5598
X3.07Y-3.607
X3.0795Y-4.3358
X3.0812Y-4.0917
X3.0812Y-4.9462
X3.0928Y-4.0767
X3.0945Y-4.1821
X3.0951Y-4.9601
X3.0971Y-5.053
X3.0982Y-3.0992
X3.0982Y-5.172
X3.1142Y-4.1821
X3.115Y-4.3162
X3.1152Y-4.5963
X3.1212Y-3.4613
X3.1281Y-4.6287
X3.1339Y-4.1821
X3.1375Y-3.0992
X3.1375Y-5.172
X3.1408Y-3.7861
X3.143Y-4.9462
X3.1507Y-3.8157
X3.151Y-4.612
X3.1527Y-3.2546
X3.1528Y-4.1817
X3.1561Y-5.053
X3.1567Y-3.7693
X3.157Y-4.9601
X3.1578Y-3.8417
X3.1605Y-3.4729
X3.1728Y-4.1817
X3.1769Y-3.0992
X3.1769Y-5.172
X3.1774Y-5.1258
X3.1955Y-5.0451
X3.197Y-4.9525
X3.1979Y-3.2704
X3.2061Y-3.4568
X3.2109Y-4.9664
X3.2152Y-5.053
X3.2163Y-3.0992
X3.2163Y-5.172
X3.2235Y-3.422
X3.2238Y-3.7697
X3.2278Y-3.8387
X3.2349Y-5.1265
X3.2412Y-3.2507
X3.2471Y-3.2212
X3.255Y-3.6304
X3.2556Y-3.0992
X3.2556Y-5.172
X3.2697Y-3.9128
X3.2698Y-3.7037
X3.273Y-4.9513
X3.2742Y-5.053
X3.2752Y-4.9187
X3.2878Y-3.7032
X3.289Y-3.6765
X3.2898Y-3.8387
X3.2918Y-3.7747
X3.2929Y-4.9187
X3.295Y-3.0992
X3.295Y-5.172
X3.3028Y-3.5557
X3.3078Y-3.7032
X3.3136Y-4.9152
X3.3136Y-5.053
X3.3333Y-5.053
X3.3343Y-4.8329
X3.3344Y-3.0992
X3.3344Y-5.172
X3.3354Y-4.952
X3.3412Y-4.1376
X3.352Y-4.8329
X3.3593Y-3.4923
X3.3602Y-3.5551
X3.3652Y-3.6051
X3.3718Y-3.8235
X3.3727Y-4.9152
X3.3738Y-3.0992
X3.3738Y-5.172
X3.3758Y-3.8504
X3.3767Y-3.7944
X3.3798Y-4.0997
X3.3834Y-4.961
X3.3869Y-3.7074
X3.3902Y-3.5551
X3.3902Y-3.6051
X3.3923Y-5.053
X3.3933Y-4.8329
X3.3968Y-3.7468
X3.3977Y-4.7901
X3.4014Y-4.4388
X3.4086Y-4.4222
X3.411Y-4.8329
X3.412Y-4.957
X3.4131Y-3.0992
X3.4131Y-5.172
X3.4161Y-4.6488
X3.422Y-4.0563
X3.422Y-4.0819
X3.422Y-4.2354
X3.422Y-4.261
X3.422Y-4.2866
X3.422Y-4.3122
X3.422Y-4.3634
X3.422Y-4.389
X3.4255Y-4.4145
X3.4292Y-3.9171
X3.4317Y-4.9152
X3.4317Y-5.053
X3.4417Y-4.6764
X3.4448Y-3.7757
X3.4469Y-3.9171
X3.4476Y-4.0563
X3.4476Y-4.2354
X3.4476Y-4.261
X3.4476Y-4.2866
X3.4476Y-4.3122
X3.4476Y-4.3634
X3.4478Y-3.8387
X3.4495Y-4.4151
X3.4496Y-4.389
X3.4505Y-3.4329
X3.4514Y-5.0526
X3.4524Y-4.8329
X3.4525Y-3.0992
X3.4525Y-5.172
X3.4701Y-4.8329
X3.4711Y-5.053
X3.4712Y-3.7053
X3.4732Y-4.2354
X3.4732Y-4.261
X3.4732Y-4.2866
X3.4732Y-4.4146
X3.4732Y-4.4658
X3.4732Y-4.4914
X3.4732Y-4.5425
X3.4732Y-4.5681
X3.4732Y-4.5937
X3.4744Y-4.3895
X3.4888Y-3.9138
X3.4908Y-4.9152
X3.491Y-4.9587
X3.4919Y-3.0992
X3.4919Y-5.172
X3.4988Y-4.261
X3.4988Y-4.2866
X3.4988Y-4.3122
X3.4988Y-4.3378
X3.4988Y-4.389
X3.4988Y-4.4146
X3.4988Y-4.4402
X3.4988Y-4.4914
X3.4988Y-4.5169
X3.4988Y-4.5425
X3.4988Y-4.5681
X3.4988Y-4.5937
X3.4988Y-4.6193
X3.5058Y-3.7677
X3.5068Y-3.9987
X3.5078Y-3.7017
X3.5088Y-3.8387
X3.5105Y-5.0535
X3.5114Y-4.9187
X3.52Y-4.955
X3.5207Y-4.0126
X3.5244Y-4.2354
X3.5244Y-4.3122
X3.5244Y-4.389
X3.5244Y-4.4146
X3.5244Y-4.4402
X3.5244Y-4.4914
X3.5244Y-4.5169
X3.5244Y-4.5425
X3.5244Y-4.6193
X3.5244Y-4.6449
X3.5278Y-3.7017
X3.5292Y-4.9187
X3.5312Y-3.0992
X3.5312Y-5.172
X3.5398Y-4.7596
X3.545Y-3.5904
X3.5497Y-4.9153
X3.5498Y-5.1231
X3.55Y-4.1331
X3.55Y-4.1843
X3.55Y-4.2099
X3.55Y-4.2354
X3.55Y-4.261
X3.55Y-4.2866
X3.55Y-4.3378
X3.55Y-4.389
X3.55Y-4.4146
X3.55Y-4.4402
X3.55Y-4.4914
X3.55Y-4.5169
X3.55Y-4.5425
X3.55Y-4.5937
X3.5518Y-4.7998
X3.5518Y-4.8195
X3.5537Y-4.7457
X3.569Y-5.0509
X3.5706Y-3.0992
X3.5706Y-5.172
X3.5756Y-4.1075
X3.5756Y-4.1331
X3.5756Y-4.1843
X3.5756Y-4.2099
X3.5756Y-4.261
X3.5756Y-4.3122
X3.5756Y-4.3378
X3.5756Y-4.389
X3.5756Y-4.4146
X3.5756Y-4.4402
X3.5756Y-4.4658
X3.5756Y-4.4914
X3.5756Y-4.5169
X3.5756Y-4.5425
X3.5798Y-3.8417
X3.5838Y-4.7208
X3.5838Y-4.7405
X3.5892Y-5.053
X3.6008Y-4.05
X3.6012Y-4.1075
X3.6012Y-4.1331
X3.6012Y-4.2099
X3.6012Y-4.2354
X3.6012Y-4.261
X3.6012Y-4.3122
X3.6012Y-4.3378
X3.6012Y-4.389
X3.6012Y-4.4146
X3.6012Y-4.4658
X3.6012Y-4.4914
X3.6012Y-4.5425
X3.6078Y-4.9607
X3.6089Y-4.9152
X3.61Y-3.0992
X3.61Y-5.172
X3.611Y-4.037
X3.6231Y-3.9821
X3.6259Y-4.0519
X3.6264Y-4.96
X3.6268Y-4.1075
X3.6268Y-4.1587
X3.6268Y-4.1843
X3.6268Y-4.2099
X3.6268Y-4.2354
X3.6268Y-4.261
X3.6268Y-4.2866
X3.6268Y-4.3122
X3.6268Y-4.3378
X3.6268Y-4.389
X3.6268Y-4.4146
X3.6268Y-4.4658
X3.6268Y-4.4914
X3.6268Y-4.5169
X3.6268Y-4.5425
X3.6268Y-4.5681
X3.6268Y-4.6429
X3.6393Y-4.0325
X3.6414Y-3.943
X3.6482Y-5.1237
X3.6493Y-3.0992
X3.6493Y-5.172
X3.6503Y-4.7087
X3.6521Y-4.1329
X3.6524Y-4.2354
X3.6524Y-4.261
X3.6524Y-4.2866
X3.6524Y-4.3122
X3.6524Y-4.3378
X3.6524Y-4.389
X3.6524Y-4.4402
X3.6524Y-4.4658
X3.6524Y-4.4914
X3.6524Y-4.5169
X3.6524Y-4.5425
X3.6524Y-4.5681
X3.6564Y-3.748
X3.6697Y-5.0437
X3.6728Y-3.974
X3.6733Y-4.9535
X3.678Y-4.1075
X3.678Y-4.1331
X3.678Y-4.1587
X3.678Y-4.261
X3.678Y-4.2866
X3.678Y-4.3122
X3.678Y-4.3378
X3.678Y-4.389
X3.678Y-4.4402
X3.678Y-4.4658
X3.678Y-4.4914
X3.678Y-4.5169
X3.678Y-4.5425
X3.6802Y-4.9269
X3.6858Y-5.0437
X3.6887Y-3.0992
X3.6887Y-5.172
X3.6888Y-4.0437
X3.693Y-4.9397
X3.6956Y-3.9821
X3.7035Y-4.1075
X3.7035Y-4.1331
X3.7035Y-4.1587
X3.7035Y-4.2354
X3.7035Y-4.261
X3.7035Y-4.2866
X3.7035Y-4.3122
X3.7035Y-4.3378
X3.7035Y-4.389
X3.7035Y-4.4402
X3.7035Y-4.4658
X3.7035Y-4.4914
X3.7035Y-4.5169
X3.7035Y-4.5425
X3.7035Y-4.5681
X3.7035Y-4.6447
X3.7073Y-5.0539
X3.7136Y-4.0329
X3.7163Y-4.0494
X3.7281Y-3.0992
X3.7281Y-5.172
X3.7288Y-5.0437
X3.7291Y-4.2354
X3.7309Y-3.8463
X3.7338Y-3.5513
X3.7338Y-3.5963
X3.7341Y-3.5726
X3.7349Y-3.9093
X3.7419Y-4.051
X3.7422Y-4.9279
X3.7449Y-5.0437
X3.7471Y-4.0131
X3.7478Y-3.7203
X3.7506Y-3.9821
X3.7545Y-3.6652
X3.7547Y-4.1075
X3.7547Y-4.1331
X3.7547Y-4.1587
X3.7547Y-4.1843
X3.7547Y-4.2354
X3.7547Y-4.261
X3.7547Y-4.3122
X3.7547Y-4.3378
X3.7547Y-4.4146
X3.7547Y-4.4402
X3.7547Y-4.4658
X3.7547Y-4.4914
X3.7547Y-4.5425
X3.7547Y-4.5681
X3.7547Y-4.5937
X3.7547Y-4.6193
X3.7547Y-4.6449
X3.7567Y-4.2099
X3.7579Y-4.9269
X3.7588Y-3.5526
X3.7588Y-3.5976
X3.7591Y-3.5726
X3.7664Y-5.053
X3.767Y-4.8193
X3.7675Y-3.0992
X3.7675Y-5.172
X3.7675Y-4.0364
X3.7723Y-4.9361
X3.7779Y-4.0112
X3.7784Y-4.7189
X3.7791Y-4.6717
X3.7803Y-4.1075
X3.7803Y-4.1331
X3.7803Y-4.1587
X3.7803Y-4.1843
X3.7803Y-4.2099
X3.7803Y-4.2354
X3.7803Y-4.2866
X3.7803Y-4.3378
X3.7803Y-4.389
X3.7803Y-4.4402
X3.7803Y-4.4658
X3.7803Y-4.4914
X3.7803Y-4.5425
X3.7803Y-4.5681
X3.7803Y-4.5937
X3.7803Y-4.6193
X3.7803Y-4.6449
X3.7836Y-4.9535
X3.7838Y-3.5513
X3.7838Y-3.5976
X3.7841Y-3.5726
X3.786Y-5.0439
X3.798Y-4.0273
X3.8018Y-3.7203
X3.8036Y-4.9531
X3.8057Y-5.0439
X3.8059Y-4.0563
X3.8059Y-4.1075
X3.8059Y-4.1331
X3.8059Y-4.1587
X3.8059Y-4.1843
X3.8059Y-4.2099
X3.8059Y-4.2354
X3.8059Y-4.261
X3.8059Y-4.2866
X3.8059Y-4.3122
X3.8059Y-4.3378
X3.8059Y-4.389
X3.8059Y-4.4146
X3.8059Y-4.4402
X3.8059Y-4.4658
X3.8059Y-4.5169
X3.8059Y-4.5425
X3.8059Y-4.5681
X3.8059Y-4.6193
X3.8059Y-4.6449
X3.8068Y-3.0992
X3.8068Y-5.172
X3.8082Y-4.7842
X3.8254Y-5.1252
X3.8298Y-3.7017
X3.8313Y-4.0237
X3.8315Y-4.0554
X3.8315Y-4.1075
X3.8315Y-4.1331
X3.8315Y-4.1587
X3.8315Y-4.1843
X3.8315Y-4.2099
X3.8315Y-4.2354
X3.8315Y-4.261
X3.8315Y-4.3122
X3.8315Y-4.3378
X3.8315Y-4.389
X3.8315Y-4.4146
X3.8315Y-4.4402
X3.8315Y-4.4658
X3.8315Y-4.5169
X3.8315Y-4.5425
X3.8315Y-4.5681
X3.8315Y-4.5937
X3.8315Y-4.6449
X3.8333Y-3.6652
X3.8446Y-4.8186
X3.8451Y-4.9482
X3.8451Y-5.043
X3.8462Y-3.0992
X3.8462Y-5.172
X3.8571Y-4.1075
X3.8571Y-4.1331
X3.8571Y-4.1587
X3.8571Y-4.1843
X3.8571Y-4.2099
X3.8571Y-4.2354
X3.8571Y-4.3122
X3.8571Y-4.3378
X3.8571Y-4.389
X3.8571Y-4.4146
X3.8571Y-4.4658
X3.8571Y-4.4914
X3.8571Y-4.5169
X3.8571Y-4.5425
X3.8571Y-4.5681
X3.8571Y-4.5937
X3.8571Y-4.6193
X3.8571Y-4.6449
X3.8571Y-4.2866
X3.8648Y-4.9482
X3.8648Y-5.043
X3.8766Y-3.9781
X3.8827Y-4.1331
X3.8827Y-4.1587
X3.8827Y-4.1843
X3.8827Y-4.2099
X3.8827Y-4.261
X3.8827Y-4.3122
X3.8827Y-4.3378
X3.8827Y-4.389
X3.8827Y-4.4146
X3.8827Y-4.4402
X3.8827Y-4.4658
X3.8827Y-4.4914
X3.8827Y-4.5425
X3.8827Y-4.5681
X3.8827Y-4.5937
X3.8827Y-4.6193
X3.8827Y-4.6449
X3.8845Y-4.9303
X3.8845Y-5.1258
X3.8856Y-3.0992
X3.8856Y-5.172
X3.9042Y-4.9474
X3.9059Y-5.0437
X3.9083Y-4.0563
X3.9083Y-4.0819
X3.9083Y-4.1075
X3.9083Y-4.1587
X3.9083Y-4.1843
X3.9083Y-4.2354
X3.9083Y-4.261
X3.9083Y-4.2866
X3.9083Y-4.3122
X3.9083Y-4.3378
X3.9083Y-4.389
X3.9083Y-4.4146
X3.9083Y-4.4402
X3.9083Y-4.4658
X3.9083Y-4.5169
X3.9083Y-4.5425
X3.9083Y-4.5681
X3.9083Y-4.5937
X3.9083Y-4.6193
X3.9083Y-4.6449
X3.9105Y-3.9823
X3.916Y-3.9506
X3.9221Y-5.0437
X3.9238Y-4.9474
X3.9249Y-3.0992
X3.9249Y-5.172
X3.9339Y-4.0563
X3.9339Y-4.0819
X3.9339Y-4.1075
X3.9339Y-4.1331
X3.9339Y-4.1587
X3.9339Y-4.1843
X3.9339Y-4.2099
X3.9339Y-4.2354
X3.9339Y-4.261
X3.9339Y-4.2866
X3.9339Y-4.3122
X3.9339Y-4.3378
X3.9339Y-4.389
X3.9339Y-4.4146
X3.9339Y-4.4402
X3.9339Y-4.4914
X3.9339Y-4.5169
X3.9339Y-4.5425
X3.9339Y-4.5681
X3.9339Y-4.5937
X3.9339Y-4.6193
X3.9339Y-4.6449
X3.9339Y-4.6705
X3.9339Y-4.6961
X3.9435Y-5.1252
X3.9439Y-4.9199
X3.9564Y-3.163
X3.9594Y-4.0563
X3.9594Y-4.0819
X3.9594Y-4.1075
X3.9594Y-4.1587
X3.9594Y-4.1843
X3.9594Y-4.2099
X3.9594Y-4.2354
X3.9594Y-4.261
X3.9594Y-4.2866
X3.9594Y-4.3122
X3.9594Y-4.3378
X3.9594Y-4.389
X3.9594Y-4.4146
X3.9594Y-4.4402
X3.9594Y-4.4658
X3.9594Y-4.4914
X3.9594Y-4.5169
X3.9594Y-4.5425
X3.9594Y-4.5681
X3.9594Y-4.5937
X3.9594Y-4.6193
X3.9594Y-4.6449
X3.9594Y-4.6705
X3.9594Y-4.6961
X3.9632Y-4.9482
X3.9643Y-3.0992
X3.9643Y-5.172
X3.965Y-5.0437
X3.9811Y-5.0437
X3.9829Y-4.9482
X3.985Y-4.0563
X3.985Y-4.0819
X3.985Y-4.1075
X3.985Y-4.1331
X3.985Y-4.1587
X3.985Y-4.1843
X3.985Y-4.2099
X3.985Y-4.2354
X3.985Y-4.261
X3.985Y-4.2866
X3.985Y-4.389
X3.985Y-4.4146
X3.985Y-4.4658
X3.985Y-4.4914
X3.985Y-4.5169
X3.985Y-4.5425
X3.985Y-4.5681
X3.985Y-4.5937
X3.985Y-4.6193
X3.985Y-4.6449
X3.985Y-4.6705
X3.985Y-4.6961
X4.0026Y-4.9191
X4.0026Y-5.0508
X4.0037Y-3.0992
X4.0037Y-5.172
X4.0041Y-3.183
X4.0063Y-4.7162
X4.0084Y-4.261
X4.0106Y-4.1587
X4.0106Y-4.1843
X4.0106Y-4.2866
X4.0106Y-4.3122
X4.0106Y-4.3378
X4.0106Y-4.5425
X4.0106Y-4.5681
X4.0106Y-4.5937
X4.013Y-4.466
X4.0188Y-3.3573
X4.0192Y-4.0027
X4.0203Y-4.7062
X4.0223Y-4.9474
X4.0282Y-3.9614
X4.0314Y-4.015
X4.0334Y-4.4914
X4.0338Y-4.2595
X4.0359Y-4.4655
X4.036Y-3.364
X4.036Y-3.4368
X4.0362Y-4.1587
X4.0362Y-4.2099
X4.0362Y-4.2354
X4.0362Y-4.2866
X4.0362Y-4.3122
X4.0362Y-4.389
X4.0362Y-4.4402
X4.0362Y-4.5169
X4.0362Y-4.5681
X4.0362Y-4.6193
X4.0362Y-4.6449
X4.0419Y-4.9474
X4.043Y-3.0992
X4.043Y-5.172
X4.0441Y-4.6941
X4.0608Y-4.0642
X4.0608Y-4.4402
X4.0612Y-4.9219
X4.0616Y-5.0508
X4.0618Y-4.1075
X4.0618Y-4.1331
X4.0618Y-4.261
X4.0618Y-4.5169
X4.0677Y-4.6784
X4.0695Y-3.7341
X4.07Y-3.8944
X4.0746Y-4.1715
X4.0746Y-4.325
X4.0746Y-4.5681
X4.0813Y-4.947
X4.0824Y-3.0992
X4.0824Y-5.172
X4.0874Y-4.2227
X4.0874Y-4.5425
X4.0874Y-4.6193
X4.0964Y-3.1633
X4.1002Y-4.1075
X4.1002Y-4.1587
X4.1002Y-4.453
X4.101Y-4.947
X4.1051Y-4.5182
X4.113Y-4.2227
X4.1207Y-4.9181
X4.1207Y-5.053
X4.1218Y-3.0992
X4.1218Y-5.172
X4.1258Y-4.5681
X4.1266Y-3.6632
X4.1305Y-3.862
X4.1364Y-3.2433
X4.1373Y-4.4912
X4.1404Y-4.947
X4.1404Y-5.1351
X4.1487Y-3.744
X4.1601Y-4.947
X4.1601Y-5.1277
X4.1612Y-3.0992
X4.1612Y-5.172
X4.1708Y-4.7925
X4.1797Y-5.053
X4.1808Y-4.9147
X4.1814Y-3.663
X4.1888Y-3.7073
X4.1994Y-5.0499
X4.2005Y-3.0992
X4.2005Y-5.172
X4.2014Y-3.338
X4.2084Y-3.7573
X4.2191Y-5.1277
X4.2224Y-4.9741
X4.2234Y-4.2247
X4.2258Y-3.8087
X4.237Y-4.5819
X4.2388Y-4.9152
X4.2388Y-5.1239
X4.2399Y-3.0992
X4.2399Y-5.172
X4.2419Y-4.567
X4.2426Y-4.516
X4.2434Y-4.1347
X4.2434Y-4.1597
X4.2434Y-4.2297
X4.2434Y-4.3147
X4.2585Y-5.1351
X4.2668Y-3.7437
X4.2705Y-4.4677
X4.2726Y-4.516
X4.2734Y-4.1097
X4.2734Y-4.3097
X4.2743Y-4.3927
X4.2746Y-4.594
X4.2764Y-4.5445
X4.2766Y-4.418
X4.2766Y-4.62
X4.2768Y-4.2831
X4.2774Y-3.6219
X4.2782Y-5.1277
X4.2784Y-4.1597
X4.2784Y-4.1847
X4.2784Y-4.2097
X4.2784Y-4.2347
X4.2793Y-3.0992
X4.2793Y-5.172
X4.2801Y-3.7695
X4.2832Y-5.0382
X4.2883Y-3.2777
X4.2896Y-4.8188
X4.2972Y-3.8209
X4.2972Y-3.8583
X4.2979Y-5.1239
X4.3018Y-3.8944
X4.3028Y-3.3512
X4.3034Y-4.4638
X4.3034Y-4.2647
X4.3039Y-4.6232
X4.3042Y-4.0831
X4.3046Y-4.286
X4.3052Y-4.4381
X4.3066Y-4.518
X4.3078Y-4.5431
X4.3084Y-4.1097
X4.3084Y-4.1347
X4.3084Y-4.1847
X4.3084Y-4.2097
X4.3084Y-4.2347
X4.3084Y-4.3147
X4.3086Y-4.598
X4.3098Y-4.4894
X4.3168Y-3.6113
X4.3175Y-5.1351
X4.3186Y-3.0992
X4.3186Y-5.172
X4.3274Y-3.1809
X4.3372Y-5.1277
X4.3383Y-4.5182
X4.3384Y-4.1847
X4.3384Y-4.2597
X4.3384Y-4.2847
X4.3384Y-4.3147
X4.3388Y-4.1597
X4.3394Y-4.4667
X4.3408Y-4.4407
X4.3426Y-4.492
X4.3495Y-4.0743
X4.3549Y-3.6337
X4.3569Y-5.1239
X4.358Y-3.0992
X4.358Y-5.172
X4.3618Y-4.6497
X4.3684Y-4.1097
X4.3684Y-4.1597
X4.3684Y-4.2097
X4.3684Y-4.2597
X4.3684Y-4.2847
X4.3684Y-4.3097
X4.3686Y-4.6232
X4.3696Y-4.5169
X4.3706Y-4.416
X4.3713Y-4.5882
X4.3718Y-3.8394
X4.3721Y-4.4707
X4.3726Y-4.44
X4.3766Y-5.0491
X4.3958Y-5.1336
X4.3963Y-4.4162
X4.3974Y-3.0992
X4.3974Y-5.172
X4.3983Y-4.5422
X4.3984Y-4.4677
X4.3984Y-4.6193
X4.4004Y-4.515
X4.4006Y-4.202
X4.4034Y-4.1097
X4.4034Y-4.1847
X4.4034Y-4.2497
X4.4038Y-4.1347
X4.4063Y-4.5878
X4.4063Y-4.3082
X4.4084Y-4.2847
X4.4136Y-3.765
X4.416Y-5.1239
X4.4228Y-4.5427
X4.4284Y-4.1847
X4.4286Y-4.206
X4.4361Y-5.1346
X4.4368Y-3.0992
X4.4368Y-5.172
X4.4568Y-5.1346
X4.4584Y-4.1447
X4.4584Y-4.2197
X4.4607Y-4.188
X4.4616Y-4.2679
X4.4634Y-4.5051
X4.4634Y-4.2447
X4.4654Y-4.4874
X4.4654Y-4.5366
X4.4663Y-4.6182
X4.469Y-4.5937
X4.4704Y-4.5661
X4.4752Y-5.0563
X4.4761Y-3.0992
X4.4761Y-5.172
X4.4829Y-4.9152
X4.4934Y-4.1547
X4.4934Y-4.1847
X4.4943Y-4.5422
X4.4948Y-4.2867
X4.4955Y-5.0498
X4.4963Y-4.6202
X4.4976Y-4.4414
X4.4984Y-4.1047
X4.4984Y-4.2097
X4.4984Y-4.2647
X4.4986Y-3.664
X4.5088Y-3.9007
X4.5144Y-4.9152
X4.5146Y-4.078
X4.5155Y-3.0992
X4.5155Y-5.172
X4.5223Y-3.5451
X4.5228Y-4.3103
X4.5234Y-4.3347
X4.5238Y-4.5617
X4.5241Y-4.64
X4.5243Y-4.5402
X4.5251Y-4.16
X4.526Y-4.4919
X4.5263Y-4.5142
X4.5266Y-4.44
X4.5266Y-4.466
X4.5272Y-4.4099
X4.5284Y-4.1847
X4.5284Y-4.2097
X4.5284Y-4.2347
X4.5284Y-4.2847
X4.5297Y-4.3892
X4.5484Y-3.917
X4.5534Y-4.3097
X4.5534Y-4.3347
X4.5538Y-5.053
X4.5539Y-4.4914
X4.5543Y-4.5142
X4.5549Y-3.0992
X4.5549Y-5.172
X4.5579Y-4.4146
X4.5584Y-4.0797
X4.5584Y-4.1097
X4.5584Y-4.1347
X4.5584Y-4.1847
X4.5584Y-4.2097
X4.5584Y-4.2347
X4.5586Y-4.438
X4.5603Y-4.5422
X4.5606Y-4.466
X4.5618Y-4.5637
X4.5618Y-4.5937
X4.5618Y-4.6177
X4.5634Y-4.2597
X4.5634Y-4.2897
X4.5648Y-3.6699
X4.5734Y-5.053
X4.5736Y-4.0563
X4.5743Y-4.6682
X4.5835Y-4.391
X4.5864Y-3.927
X4.5883Y-4.5142
X4.5884Y-4.1847
X4.5884Y-4.2097
X4.5884Y-4.3097
X4.5886Y-4.438
X4.5903Y-4.5382
X4.5931Y-5.1239
X4.5934Y-4.2397
X4.5942Y-3.0992
X4.5942Y-5.172
X4.6128Y-4.8404
X4.6128Y-5.053
X4.6168Y-4.9231
X4.6184Y-4.2097
X4.6184Y-4.2347
X4.6189Y-4.5189
X4.6196Y-4.108
X4.6203Y-4.5942
X4.6209Y-4.4736
X4.6228Y-4.4284
X4.6234Y-4.2897
X4.6234Y-4.1397
X4.6234Y-4.4947
X4.6274Y-3.96
X4.6304Y-3.725
X4.6325Y-4.9979
X4.6325Y-5.0171
X4.6336Y-3.0992
X4.6336Y-5.172
X4.6364Y-4.7498
X4.6404Y-4.9664
X4.6425Y-4.2689
X4.6425Y-4.3319
X4.6504Y-4.1666
X4.6504Y-4.4028
X4.6504Y-4.4658
X4.6504Y-4.5603
X4.6522Y-4.9124
X4.6537Y-4.9482
X4.6561Y-4.9821
X4.6628Y-5.0522
X4.6719Y-4.8404
X4.6719Y-4.9349
X4.673Y-3.0992
X4.673Y-5.172
X4.6975Y-3.8659
X4.7068Y-3.2197
X4.7068Y-4.2831
X4.7123Y-3.0992
X4.7123Y-5.172
X4.7252Y-3.2414
X4.7517Y-3.0992
X4.7517Y-5.172
X4.7656Y-3.2502
X4.774Y-5.0087
X4.7804Y-5.147
X4.79Y-4.8404
X4.7911Y-3.0992
X4.7911Y-5.172
X4.7998Y-3.2606
X4.8048Y-4.0474
X4.8268Y-3.2981
X4.8305Y-3.0992
X4.8305Y-5.172
X4.8451Y-3.9427
X4.8698Y-3.0992
X4.8698Y-5.172
X4.906Y-3.6474
X4.9064Y-3.1003
X4.9092Y-5.172
X4.9277Y-3.6474
X4.9434Y-3.6297
X4.9457Y-3.1003
X4.9851Y-3.1003
X5.0245Y-3.1003
X5.0273Y-5.172
X5.0638Y-3.1003
X5.1032Y-3.1003
X5.106Y-5.172
X5.1236Y-3.1583
X5.1426Y-3.1003
X5.1454Y-5.172
X5.1629Y-3.1583
X5.17Y-3.2364
X5.1764Y-3.638
X5.1819Y-3.1003
X5.1848Y-5.172
X5.2213Y-3.1003
X5.2242Y-5.172
X5.2264Y-3.1683
X5.2264Y-3.303
X5.2299Y-3.3693
X5.2488Y-3.4961
X5.2635Y-5.172
X5.2693Y-3.739
X5.2784Y-3.942
X5.2979Y-3.7813
X5.3963Y-3.612
X5.4356Y-3.6829
X5.4356Y-3.7813
X5.4364Y-3.864
X5.4364Y-3.908
X5.4663Y-4.6346
X5.4663Y-4.674
X5.4663Y-4.7134
X5.4663Y-4.7528
X5.4663Y-4.7921
X5.4663Y-4.8315
X5.4663Y-4.8709
X5.4978Y-4.5618
X5.5223Y-3.797
X5.5223Y-3.8404
X5.5223Y-3.8797
X5.5223Y-3.9152
X5.5244Y-4.5043
X5.5244Y-4.5437
X5.5244Y-4.583
X5.5244Y-4.6224
X5.5244Y-4.6618
X5.5244Y-4.7012
X5.5244Y-4.7405
X5.5244Y-4.7799
X5.5244Y-4.8193
X5.5244Y-4.8586
X5.5244Y-3.3555
X5.5244Y-3.3949
X5.5244Y-3.4264
X5.5244Y-3.4579
X5.5244Y-3.4894
X5.5244Y-3.5209
X5.5253Y-3.5579
X5.5253Y-3.5972
X5.5253Y-3.6366
X5.5253Y-3.676
X5.5253Y-3.7154
X5.5253Y-3.7547
X5.5253Y-3.9533
X5.5253Y-3.9927
X5.5253Y-4.0303
X5.5253Y-4.0697
X5.5253Y-4.1091
X5.5253Y-4.1484
X5.5253Y-4.1878
X5.5253Y-4.2272
X5.5253Y-4.2665
X5.5253Y-4.3059
X5.5253Y-4.3453
X5.5253Y-4.3846
X5.5253Y-4.424
X5.5253Y-4.4634
T2
X2.3431Y-4.924
X2.3815Y-4.924
X2.4139Y-3.4133
X2.4139Y-3.5708
X2.4164Y-3.3433
X2.4199Y-4.924
X2.4583Y-4.924
X2.4967Y-4.924
X2.5165Y-4.88
X2.53Y-3.4578
X2.5479Y-4.9496
X2.5479Y-4.988
X2.5479Y-5.1287
X2.5479Y-5.1671
X2.5579Y-3.2482
X2.5585Y-3.2036
X2.5592Y-3.1058
X2.5592Y-3.1409
X2.5638Y-3.2847
X2.5759Y-3.5657
X2.5759Y-3.607
X2.5759Y-3.6523
X2.5862Y-4.988
X2.5862Y-5.1287
X2.5862Y-5.1671
X2.5938Y-4.9169
X2.6133Y-3.3629
X2.6149Y-3.4259
X2.6251Y-3.6523
X2.6476Y-3.5587
X2.6502Y-5.0136
X2.6502Y-5.1159
X2.6689Y-5.0608
X2.7144Y-4.3124
X2.7146Y-4.2568
X2.7409Y-4.0051
X2.788Y-3.9008
X2.7882Y-4.0051
X2.7882Y-4.0445
X2.7908Y-4.3387
X2.7926Y-3.3021
X2.7926Y-3.3521
X2.7926Y-3.4021
X2.8032Y-3.7513
X2.8328Y-3.8027
X2.8328Y-3.853
X2.8426Y-3.3021
X2.8426Y-3.4021
X2.8436Y-3.3531
X2.8504Y-3.8977
X2.8674Y-3.9307
X2.8836Y-4.8319
X2.8926Y-3.4071
X2.8948Y-3.8657
X2.8958Y-3.777
X2.8976Y-3.3021
X2.8976Y-3.3521
X2.9509Y-3.8258
X2.9611Y-4.247
X2.9627Y-4.4242
X3.008Y-3.777
X3.008Y-3.8676
X3.0348Y-4.3957
X3.0354Y-4.4695
X3.0394Y-4.2963
X3.0394Y-4.4242
X3.053Y-4.2548
X3.0538Y-4.3967
X3.0551Y-4.4695
X3.0701Y-3.8508
X3.0748Y-4.253
X3.0748Y-4.2923
X3.0748Y-4.3986
X3.0748Y-4.4695
X3.1138Y-3.7508
X3.1138Y-3.8008
X3.1265Y-4.3626
X3.1346Y-4.3201
X3.143Y-3.3645
X3.1436Y-3.897
X3.1708Y-4.3527
X3.1719Y-3.3651
X3.1752Y-4.2667
X3.1772Y-4.3868
X3.1989Y-3.3382
X3.299Y-3.4201
X3.3198Y-3.45
X3.3205Y-3.4805
X3.3687Y-3.3398
X3.3702Y-3.3701
X3.3731Y-3.233
X3.3752Y-3.2051
X3.3852Y-3.2601
X3.3982Y-3.3201
X3.4081Y-3.2751
X3.4852Y-3.2751
X3.5052Y-3.2151
X3.5052Y-3.2351
X3.5052Y-3.2551
X3.5052Y-3.2751
X3.6102Y-3.4751
X3.6392Y-3.3801
X3.6702Y-3.5051
X3.6702Y-3.5301
X3.6702Y-3.5701
X3.6702Y-3.5901
X3.7188Y-3.2213
X3.7338Y-3.1863
X3.7338Y-3.2513
X3.7364Y-3.3333
X3.7364Y-3.3683
X3.7564Y-3.2683
X3.7588Y-3.3183
X3.7588Y-3.3483
X3.7588Y-3.3783
X3.8464Y-3.2183
X3.8464Y-3.2433
X3.8464Y-3.2683
X3.8764Y-3.2433
X3.8764Y-3.2683
X3.9864Y-3.4583
X4.0414Y-3.4983
X4.0414Y-3.5183
X4.0414Y-3.5583
X4.0414Y-3.5783
X4.0764Y-3.6709
X4.2314Y-3.6525
X4.2549Y-3.4177
X4.2549Y-3.4571
X4.2941Y-3.4568
X4.3028Y-3.428
X4.3335Y-3.4568
X4.3514Y-3.4233
X4.3678Y-3.2058
X4.3729Y-3.4568
X4.3795Y-3.364
X4.3795Y-3.4024
X4.4122Y-3.4568
X4.4435Y-3.4152
X4.4496Y-3.1655
X4.4496Y-3.197
X4.4496Y-3.2285
X4.4516Y-3.4568
X4.4811Y-3.1655
X4.4811Y-3.197
X4.4811Y-3.2285
X4.4819Y-3.4152
X4.491Y-3.4568
X4.5126Y-3.197
X4.5126Y-3.2285
X4.5126Y-3.26
X4.516Y-3.1604
X4.5203Y-3.364
X4.5203Y-3.4024
X4.5304Y-3.4568
X4.5441Y-3.197
X4.5441Y-3.2285
X4.5441Y-3.26
X4.546Y-3.1604
X4.581Y-3.1604
X4.581Y-3.1919
X4.581Y-3.2234
X4.581Y-3.2589
X4.5864Y-3.3605
X4.5864Y-3.5121
X4.5883Y-3.3979
X4.5883Y-3.4353
X4.5883Y-3.4727
X4.5883Y-3.5495
X4.5883Y-3.5869
X4.5883Y-3.6243
X4.608Y-3.3802
X4.608Y-3.4157
X4.608Y-3.455
X4.608Y-3.5318
X4.608Y-3.5672
X4.608Y-3.6066
X4.6125Y-3.1604
X4.6125Y-3.1919
X4.6125Y-3.2234
X4.6125Y-3.2589
X4.673Y-3.394
X4.673Y-3.4373
X4.673Y-3.4786
X4.673Y-3.5082
X4.673Y-3.5495
X4.673Y-3.5928
X4.7202Y-3.394
X4.7202Y-3.5928
X4.7467Y-3.3692
X4.7572Y-4.1127
X4.7586Y-4.2587
X4.7714Y-3.1692
X4.8372Y-4.1044
X4.8378Y-3.6626
X4.8383Y-4.1642
X4.8403Y-4.2035
X4.8423Y-4.2429
X4.8501Y-3.1692
X4.8501Y-4.3217
X4.8501Y-4.3492
X4.8501Y-4.3768
X4.8526Y-3.5717
X4.8777Y-4.3217
X4.8777Y-4.3492
X4.8777Y-4.3768
X4.8915Y-4.2016
X4.8959Y-3.9122
X4.9053Y-4.2311
X4.9053Y-4.2705
X4.9056Y-3.1864
X4.9072Y-3.624
X4.9092Y-4.3492
X4.9092Y-4.3768
X4.9156Y-3.8906
X4.9165Y-4.1692
X4.9165Y-4.2021
X4.9171Y-3.3807
X4.9171Y-3.4122
X4.9171Y-3.4393
X4.9171Y-3.4673
X4.9171Y-3.4988
X4.9171Y-3.5303
X4.9171Y-4.1524
X4.9171Y-4.1858
X4.9249Y-3.5653
X4.9269Y-3.2631
X4.9289Y-3.7779
X4.9289Y-3.8251
X4.9289Y-4.2508
X4.9333Y-3.9102
X4.9368Y-4.3492
X4.9368Y-4.3768
X4.951Y-3.8906
X4.9525Y-3.3236
X4.9564Y-3.5653
X4.9643Y-4.1622
X4.9643Y-4.1917
X4.9643Y-4.235
X4.9643Y-4.2665
X4.9707Y-3.9102
X4.9722Y-3.8251
X4.9781Y-3.1642
X4.9879Y-3.3231
X4.9879Y-3.5651
X4.9904Y-3.8906
X4.9919Y-4.1622
X4.9919Y-4.1917
X4.9919Y-4.235
X4.9919Y-4.2665
X4.9958Y-3.1917
X5.0081Y-3.9102
X5.0124Y-4.9398
X5.0124Y-4.9949
X5.0124Y-5.05
X5.0135Y-3.8251
X5.0155Y-3.1642
X5.0194Y-3.5653
X5.0194Y-4.1642
X5.0194Y-4.1937
X5.0194Y-4.237
X5.0194Y-4.2685
X5.0234Y-4.3394
X5.0234Y-4.3925
X5.0252Y-3.323
X5.0352Y-3.1917
X5.04Y-4.9122
X5.04Y-4.9673
X5.04Y-5.0224
X5.04Y-5.1327
X5.0467Y-3.914
X5.047Y-3.8251
X5.0509Y-3.5653
X5.0529Y-3.1642
X5.0549Y-4.3157
X5.0549Y-4.365
X5.0652Y-3.2646
X5.0667Y-3.3231
X5.0675Y-4.9398
X5.0675Y-4.9949
X5.0675Y-5.05
X5.0706Y-3.1917
X5.0742Y-3.8884
X5.0745Y-4.3394
X5.0745Y-4.3925
X5.0824Y-3.5653
X5.0883Y-3.8251
X5.0883Y-3.9142
X5.0903Y-3.1642
X5.0903Y-4.1858
X5.0903Y-4.2252
X5.0903Y-4.2646
X5.0942Y-4.3157
X5.0942Y-4.365
X5.0951Y-4.9122
X5.0951Y-4.9673
X5.0951Y-5.0224
X5.0951Y-5.1327
X5.0982Y-3.3231
X5.106Y-3.8886
X5.1139Y-3.5653
X5.1139Y-4.2055
X5.1139Y-4.2449
X5.1139Y-4.2843
X5.1139Y-4.3394
X5.1139Y-4.3925
X5.1217Y-4.0504
X5.1257Y-3.9142
X5.1316Y-3.7779
X5.1316Y-3.8251
X5.1409Y-4.1287
X5.1434Y-3.3231
X5.1454Y-3.8886
X5.1479Y-3.6539
X5.1479Y-3.7232
X5.1512Y-3.4831
X5.1512Y-3.5067
X5.1512Y-3.5382
X5.1513Y-3.365
X5.1513Y-3.3965
X5.1513Y-3.4275
X5.1513Y-3.4516
X5.1513Y-3.5653
X5.1631Y-3.9142
X5.1656Y-3.7232
X5.1853Y-3.7232
X5.1897Y-3.1876
X5.1936Y-4.2085
X5.1936Y-4.2478
X5.1936Y-4.2872
X5.1936Y-4.3266
X5.1936Y-4.3659
X5.2123Y-4.5372
X5.2123Y-4.5766
X5.2123Y-4.6159
X5.2168Y-3.5126
X5.2214Y-3.2483
X5.2224Y-3.552
X5.233Y-4.2085
X5.233Y-4.2478
X5.233Y-4.2872
X5.233Y-4.3266
X5.233Y-4.3659
X5.2477Y-3.1383
X5.2517Y-4.5372
X5.2517Y-4.5766
X5.2517Y-4.6159
X5.2605Y-3.1017
X5.2614Y-3.2483
X5.2724Y-4.2085
X5.2724Y-4.2478
X5.2724Y-4.2872
X5.2724Y-4.3266
X5.2724Y-4.3659
X5.2764Y-3.1383
X5.286Y-4.8728
X5.286Y-5.1671
X5.288Y-5.0589
X5.29Y-4.9033
X5.2911Y-4.5372
X5.2911Y-4.5766
X5.2911Y-4.6159
X5.2928Y-3.1017
X5.2939Y-3.2945
X5.2939Y-3.3319
X5.295Y-3.2527
X5.3078Y-3.5522
X5.309Y-3.5167
X5.3108Y-3.3574
X5.3118Y-4.2085
X5.3118Y-4.2478
X5.3118Y-4.2872
X5.3118Y-4.3266
X5.3118Y-4.3659
X5.3305Y-4.5372
X5.3305Y-4.5766
X5.3305Y-4.6159
X5.3492Y-3.5618
X5.35Y-4.8728
X5.3511Y-4.2085
X5.3511Y-4.2478
X5.3511Y-4.2872
X5.3511Y-4.3266
X5.3511Y-4.3659
X5.3532Y-3.3453
X5.3547Y-4.0071
X5.3698Y-4.5372
X5.3698Y-4.5766
X5.3698Y-4.6159
X5.3797Y-3.3763
X5.3868Y-3.5618
X5.3905Y-4.2085
X5.3905Y-4.2478
X5.3905Y-4.2872
X5.3905Y-4.3266
X5.3905Y-4.3659
X5.4Y-3.3453
X5.4092Y-4.5372
X5.4092Y-4.5766
X5.4092Y-4.6159
X5.4244Y-3.5618
X5.4269Y-3.3763
X5.4269Y-3.4196
X5.4269Y-3.4609
X5.4299Y-4.2085
X5.4299Y-4.2478
X5.4299Y-4.2872
X5.4299Y-4.3266
X5.4299Y-4.3659
X5.4299Y-4.4053
X5.4299Y-4.4447
X5.4299Y-4.4841
X5.4453Y-4.1394
X5.4469Y-4.0835
X5.45Y-4.0039
X5.453Y-3.3473
X5.4614Y-3.5618
X5.4692Y-4.2085
X5.4692Y-4.2478
X5.4692Y-4.2872
X5.4692Y-4.3266
X5.4692Y-4.3659
X5.4692Y-4.4053
X5.4692Y-4.4447
X5.4692Y-4.4841
X5.4965Y-3.3486
T3
X2.7067Y-4.1007
X2.7067Y-4.1401
X2.7264Y-4.1007
X2.7264Y-4.1401
X2.7461Y-4.1007
X2.7461Y-4.1401
X4.9564Y-3.3512
X4.9564Y-3.3974
X4.9564Y-3.4437
X4.9564Y-3.49
X4.9564Y-3.5362
X4.9958Y-3.3512
X4.9958Y-3.3974
X4.9958Y-3.4437
X4.9958Y-3.49
X4.9958Y-3.5362
X5.0352Y-3.3512
X5.0352Y-3.3974
X5.0352Y-3.4437
X5.0352Y-3.49
X5.0352Y-3.5362
X5.0745Y-3.3512
X5.0745Y-3.3974
X5.0745Y-3.4437
X5.0745Y-3.49
X5.0745Y-3.5362
X5.1139Y-3.3512
X5.1139Y-3.3974
X5.1139Y-3.4437
X5.1139Y-3.49
X5.1139Y-3.5362
T4
X2.934Y-5.0962
X2.976Y-4.8167
X3.038Y-4.8167
X3.0971Y-4.8167
X3.1561Y-4.8167
X3.2152Y-4.8167
X3.8114Y-3.8828
X3.9118Y-3.7883
X4.3963Y-4.9304
X4.5144Y-4.8211
X4.5341Y-5.1474
X4.7187Y-5.0297
X4.7309Y-4.8167
X4.7309Y-5.1474
X4.7878Y-4.5634
X4.7878Y-4.6384
X4.7878Y-4.7134
X4.8148Y-5.0187
X4.834Y-5.142
X4.8378Y-4.4384
X4.8378Y-4.5634
X4.8378Y-4.6384
X4.8378Y-4.7134
X4.8462Y-4.9791
X4.9278Y-4.9173
X4.9278Y-5.1384
X5.1719Y-4.7449
X5.1719Y-4.8187
X5.1719Y-4.8974
X5.1719Y-5.0943
X5.2506Y-4.7449
X5.2506Y-4.8187
X5.2506Y-4.8974
X5.2506Y-5.0943
X5.3293Y-4.7449
X5.3293Y-4.8187
X5.4081Y-4.7449
X5.4081Y-4.8187
T5
X2.3889Y-3.7054
X2.3889Y-3.7842
X2.3889Y-3.8629
X2.3889Y-3.9417
X2.3889Y-4.0204
X2.4676Y-3.7054
X2.4676Y-3.7842
X2.4676Y-3.8629
X2.4676Y-3.9417
X2.4676Y-4.0204
T6
X2.4238Y-3.2104
X2.4238Y-5.0608
X5.416Y-3.2104
X5.416Y-5.0608
M30
