G04 ================== begin FILE IDENTIFICATION RECORD ==================*
G04 Layout Name:  C:/WORK/2018project/imx8m-revC/FabOutput/LAY-38820_A.brd*
G04 Film Name:    L8_INT_3*
G04 File Format:  Gerber RS274X*
G04 File Origin:  Cadence Allegro 17.2-S037*
G04 Origin Date:  Thu Sep 06 15:25:28 2018*
G04 *
G04 Layer:  VIA CLASS/L8_INT_3*
G04 Layer:  PIN/L8_INT_3*
G04 Layer:  ETCH/L8_INT_3*
G04 Layer:  DRAWING FORMAT/FILM_TITLE_BLOCK*
G04 Layer:  BOARD GEOMETRY/OUTLINE*
G04 *
G04 Offset:    (0.00 0.00)*
G04 Mirror:    No*
G04 Mode:      Positive*
G04 Rotation:  0*
G04 FullContactRelief:  No*
G04 UndefLineWidth:     7.00*
G04 ================== end FILE IDENTIFICATION RECORD ====================*
%FSLAX55Y55*MOIN*%
%IR0*IPPOS*OFA0.00000B0.00000*MIA0B0*SFA1.00000B1.00000*%
%ADD16O,.065X.13*%
%ADD18C,.02*%
%ADD24O,.059X.106*%
%ADD20C,.014*%
%ADD21C,.06*%
%ADD14C,.052*%
%ADD15C,.026*%
%ADD10C,.018*%
%ADD22C,.055*%
%ADD19C,.048*%
%ADD13C,.079*%
%ADD11O,.071X.04*%
%ADD12C,.22*%
%ADD25O,.043X.083*%
%ADD17O,.08X.046*%
%ADD23O,.059X.09*%
%ADD26C,.194*%
%ADD27C,.01*%
%ADD28C,.015*%
%ADD29C,.003*%
%ADD30C,.004*%
%ADD31C,.007*%
%ADD32C,.006*%
%ADD33C,.0043*%
%ADD34C,.0035*%
%ADD35C,.0079*%
%ADD37O,.07102X.10202*%
%ADD36O,.07102X.11802*%
%ADD38O,.07702X.14202*%
%ADD51C,.02008*%
%ADD50O,.06904X.12004*%
%ADD44C,.06404*%
%ADD47C,.0709*%
%ADD45C,.02608*%
%ADD49C,.02808*%
%ADD48C,.07092*%
%ADD42C,.09306*%
%ADD40C,.06904*%
%ADD39C,.09704*%
%ADD41C,.08904*%
%ADD43C,.23204*%
%ADD46C,.20604*%
G75*
%LPD*%
G75*
G36*
G01X-13000Y-13500D02*
X-13500Y-13000D01*
Y119000D01*
X-12500Y120000D01*
X-7000D01*
X-6000Y119000D01*
Y96000D01*
X-4000Y94000D01*
X-3277D01*
G02X-3053Y93269I0J-400D01*
G03X3269Y86947I2553J-3769D01*
G02X4000Y86723I331J-224D01*
G01Y69500D01*
X-3000Y62500D01*
Y26000D01*
X-1000Y24000D01*
X27680D01*
G02X28064Y23488I0J-400D01*
G03X33250Y16574I5186J-1512D01*
G01X36750D01*
G03X41936Y23488I0J5402D01*
G02X42320Y24000I384J112D01*
G01X49790D01*
X49846Y23893D01*
G03X52154I1154J607D01*
G01X52210Y24000D01*
X65000D01*
X67500Y21500D01*
Y14000D01*
X79746Y1754D01*
Y-5812D01*
X84712Y-10777D01*
X84702Y-10871D01*
G03X85871Y-9702I1298J-129D01*
G01X85777Y-9712D01*
X81254Y-5188D01*
Y1500D01*
X86000D01*
X98500Y-11000D01*
X139000D01*
X141500Y-8500D01*
X220500D01*
X234000Y5000D01*
X261000D01*
X262558Y6558D01*
X262666Y6534D01*
G03X264466Y8334I334J1466D01*
G01X264442Y8442D01*
X284500Y28500D01*
X284860D01*
X284914Y28460D01*
G03X286537Y28500I786J1040D01*
G01X304500D01*
X333000Y57000D01*
Y92000D01*
X326000Y99000D01*
Y119500D01*
X328000Y121500D01*
X331500D01*
X331794Y121794D01*
X331923Y121731D01*
G03X333500Y123737I577J1169D01*
G01Y125163D01*
G03Y126837I-1000J837D01*
G01Y128099D01*
X333518Y128138D01*
G03Y129206I-1190J534D01*
G01X333500Y129245D01*
Y130500D01*
X332000Y132000D01*
Y137000D01*
X347000Y152000D01*
Y197000D01*
X352500Y202500D01*
X361000D01*
X361750Y203250D01*
Y222250D01*
X364500Y225000D01*
Y271500D01*
X357500Y278500D01*
X351500D01*
X343984Y286016D01*
G02X344267Y286698I283J282D01*
G01X350302D01*
Y287452D01*
X350012D01*
Y296802D01*
X349502D01*
Y301002D01*
X343498D01*
Y296802D01*
X342988D01*
Y287452D01*
X342698D01*
X342592Y287408D01*
X337750Y292250D01*
Y304250D01*
X335778Y306222D01*
X335792Y306321D01*
G03X333346Y307107I-1292J179D01*
G01X333290Y307000D01*
X326500D01*
X323460Y303960D01*
X312932D01*
G03X312754Y304105I-909J-935D01*
G02X312751Y304434I112J166D01*
G03X311270Y304419I-751J1066D01*
G02X311273Y304090I-112J-166D01*
G03X311116Y303960I751J-1066D01*
G01X289849D01*
G03X287551I-1149J-970D01*
G01X284380D01*
X277260Y311080D01*
Y318830D01*
G02X277740Y319222I400J0D01*
G03X278926Y321418I260J1278D01*
G02Y321982I284J282D01*
G03X277740Y324178I-926J918D01*
G02X277260Y324570I-80J392D01*
G01Y326517D01*
G02X277857Y326865I400J0D01*
G03X279426Y328918I643J1134D01*
G02Y329482I284J282D01*
G03X277857Y331535I-926J919D01*
G02X277260Y331883I-197J348D01*
G01Y333791D01*
G02X277836Y334150I400J0D01*
G03X279127Y336867I664J1350D01*
G02X279011Y337514I166J364D01*
G01X288268Y346771D01*
G03X288331Y347170I-309J253D01*
G02X288703Y347716I372J146D01*
G01X296989D01*
G02X297344Y347131I1J-400D01*
G03X299447Y345631I1156J-603D01*
G02X300033Y345625I290J-275D01*
G03X302145Y347125I968J874D01*
G02X302496Y347716I351J191D01*
G01X308528D01*
X309172Y347073D01*
X309162Y346979D01*
G03X310331Y348148I1298J-129D01*
G01X310237Y348138D01*
X309621Y348755D01*
X318812Y357946D01*
X326705D01*
X329470Y360712D01*
X329564Y360702D01*
G03X328395Y361871I129J1298D01*
G01X328405Y361777D01*
X326081Y359454D01*
X318188D01*
X309128Y350394D01*
X281788D01*
X269183Y337788D01*
G02X268500Y338071I-283J283D01*
G01Y343000D01*
X266500Y345000D01*
X257500D01*
X232000Y370500D01*
X218500D01*
X216000Y373000D01*
X164000D01*
X157500Y366500D01*
X46000D01*
X41500Y362000D01*
X31000D01*
X24500Y355500D01*
Y353500D01*
X14159Y343159D01*
X14125Y343144D01*
G03X11852Y340871I1875J-4148D01*
G01X11837Y340837D01*
X2000Y331000D01*
X-3500D01*
X-7500Y327000D01*
Y284500D01*
X-2000Y279000D01*
Y275290D01*
G02X-2648Y274976I-400J0D01*
G03Y269946I-1982J-2515D01*
G02X-2000Y269632I248J-314D01*
G01Y243000D01*
X-6000Y239000D01*
Y214000D01*
X-6500Y213500D01*
X-12500D01*
X-13500Y214500D01*
Y375000D01*
X-13000Y375500D01*
X12500D01*
X13499Y376499D01*
X23500D01*
Y375186D01*
G02X22995Y374800I-400J0D01*
G03X22235Y374902I-763J-2800D01*
G01X18835D01*
G03Y369098I0J-2902D01*
G01X22235D01*
G03X24474Y373846I0J2902D01*
G02X24782Y374500I309J254D01*
G01X33218D01*
G02X33526Y373846I-1J-400D01*
G03X35765Y369098I2239J-1846D01*
G01X39165D01*
G03Y374902I0J2902D01*
G01X35765D01*
G03X35005Y374800I3J-2902D01*
G02X34500Y375186I-105J386D01*
G01Y376499D01*
X48500D01*
X48501Y376500D01*
X50000D01*
X51000Y375500D01*
X276000D01*
X276500Y376000D01*
X292371D01*
G02X292559Y375247I0J-400D01*
G03X303441I5441J-10247D01*
G02X303629Y376000I188J353D01*
G01X317500D01*
Y375186D01*
G02X316995Y374800I-400J0D01*
G03X316235Y374902I-763J-2800D01*
G01X312835D01*
G03Y369098I0J-2902D01*
G01X316235D01*
G03X318474Y373846I0J2902D01*
G02X318782Y374500I309J254D01*
G01X327218D01*
G02X327526Y373846I-1J-400D01*
G03X329765Y369098I2239J-1846D01*
G01X333165D01*
G03Y374902I0J2902D01*
G01X329765D01*
G03X329005Y374800I3J-2902D01*
G02X328500Y375186I-105J386D01*
G01Y376000D01*
X337998D01*
Y360002D01*
X333498D01*
Y351498D01*
X373502D01*
Y376500D01*
X375000D01*
X376500Y375000D01*
Y329502D01*
X360002D01*
Y334002D01*
X351498D01*
Y296498D01*
X376500D01*
Y295500D01*
X376000Y295000D01*
X376500Y294500D01*
Y142000D01*
X375000Y140500D01*
X364500D01*
X357500Y133500D01*
Y126500D01*
X356000Y125000D01*
X353500D01*
X350000Y121500D01*
Y118816D01*
X349827Y118792D01*
G03Y116208I173J-1292D01*
G01X350000Y116184D01*
Y104500D01*
X353500Y101000D01*
X374500D01*
X375500Y100000D01*
Y-13000D01*
X375000Y-13500D01*
X350000D01*
Y-10500D01*
X347453D01*
G02X347078Y-9960I0J400D01*
G03X347252Y-9000I-2577J963D01*
G01Y-5000D01*
G03X341748I-2752J0D01*
G01Y-9000D01*
G03X341922Y-9960I2751J3D01*
G02X341547Y-10500I-375J-140D01*
G01X327374D01*
G02X326999Y-9960I0J400D01*
G03X327172Y-9000I-2577J960D01*
G01Y-5000D01*
G03X321670I-2751J0D01*
G01Y-9000D01*
G03X321843Y-9960I2750J0D01*
G02X321468Y-10500I-375J-140D01*
G01X318000D01*
X317500Y-11000D01*
Y-13000D01*
X317000Y-13500D01*
X-13000D01*
G37*
G36*
G01X60500Y38000D02*
X59288Y39212D01*
X59276Y39270D01*
G03X58270Y40276I-1276J-270D01*
G01X58212Y40288D01*
X56000Y42500D01*
Y67000D01*
X54500Y68500D01*
X51000D01*
X49000Y66500D01*
Y63500D01*
X45000Y59500D01*
X29500D01*
X28500Y60500D01*
X21000D01*
X20000Y61500D01*
X18500D01*
X11759Y68241D01*
X11744Y68276D01*
G03X10760Y69260I-1744J-760D01*
G01X10725Y69275D01*
X10039Y69961D01*
X10043Y70049D01*
G03X10006Y70642I-2799J123D01*
G02X10619Y71044I394J67D01*
G03X12039Y70622I1421J2180D01*
G01X14339D01*
G03Y75826I0J2602D01*
G01X12039D01*
G03X9463Y72861I0J-2602D01*
G02X8839Y72476I-396J-56D01*
G03X7120Y72972I-1595J-2303D01*
G01X7032Y72968D01*
X5500Y74500D01*
Y110500D01*
X-13500Y129500D01*
Y153405D01*
G02X-12959Y153780I400J0D01*
G03Y156220I459J1220D01*
G02X-13500Y156595I-141J375D01*
G01Y165405D01*
G02X-12959Y165780I400J0D01*
G03Y168220I459J1220D01*
G02X-13500Y168595I-141J375D01*
G01Y176905D01*
G02X-12959Y177280I400J0D01*
G03Y179720I459J1220D01*
G02X-13500Y180095I-141J375D01*
G01Y189905D01*
G02X-12959Y190280I400J0D01*
G03Y192720I459J1220D01*
G02X-13500Y193095I-141J375D01*
G01Y201905D01*
G02X-12959Y202280I400J0D01*
G03Y204720I459J1220D01*
G02X-13500Y205095I-141J375D01*
G01Y210500D01*
X-13000Y211000D01*
X1250D01*
X2250Y210000D01*
Y178867D01*
X2119Y178819D01*
G03Y176181I481J-1319D01*
G01X2250Y176133D01*
Y161250D01*
X3646Y159854D01*
Y154439D01*
X5500Y152586D01*
Y149837D01*
G03Y148163I1000J-837D01*
G01Y146500D01*
X33000Y119000D01*
Y113922D01*
G02X32347Y113612I-400J0D01*
G03Y111590I-823J-1011D01*
G02X33000Y111280I253J-310D01*
G01Y75837D01*
G03Y74163I1000J-837D01*
G01Y72500D01*
X33570Y71930D01*
X33585Y71898D01*
G03X34262Y71221I1279J602D01*
G01X34294Y71206D01*
X34500Y71000D01*
X38000D01*
X41500Y74500D01*
Y75000D01*
X50500Y84000D01*
X57246D01*
Y82917D01*
G02X56624Y82584I-400J0D01*
G03X57182Y81736I-724J-1084D01*
G01X57163Y81840D01*
X57379Y82055D01*
X57712Y81723D01*
X57702Y81629D01*
G03X59117Y82799I1298J-129D01*
G02X58754Y83197I37J398D01*
G01Y84000D01*
X59500D01*
X61250Y85750D01*
Y95750D01*
X69000Y103500D01*
X85163D01*
G03X86837I837J1000D01*
G01X88663D01*
G03X90776Y104230I837J1000D01*
G01X90788Y104288D01*
X97500Y111000D01*
X110000D01*
X113750Y114750D01*
X119750D01*
X126000Y121000D01*
X148000D01*
X152500Y125500D01*
Y128000D01*
X156500Y132000D01*
X162000D01*
X168500Y138500D01*
X169000D01*
X169500Y138000D01*
Y137500D01*
X160000Y128000D01*
X157500D01*
X156788Y127288D01*
X156730Y127276D01*
G03X156000Y125163I270J-1276D01*
G01Y124500D01*
X145500Y114000D01*
X135000D01*
X132000Y117000D01*
X129712D01*
X129676Y117014D01*
G03X128724I-476J-1214D01*
G01X128688Y117000D01*
X128500D01*
X128404Y116904D01*
X127843D01*
X111843Y100903D01*
G02X111194Y101025I-283J283D01*
G03X108852Y101119I-1194J-525D01*
G02X108148I-352J189D01*
G03X105852I-1148J-619D01*
G02X105148I-352J189D01*
G03Y99881I-1148J-619D01*
G02X105852I352J-189D01*
G03X108148I1148J619D01*
G02X108852I352J-189D01*
G03X109475Y99306I1148J619D01*
G02X109597Y98657I-161J-366D01*
G01X107439Y96500D01*
X97500D01*
X94500Y93500D01*
X94301D01*
G02X93996Y94158I0J400D01*
G03X92004I-996J842D01*
G02X91699Y93500I-305J-258D01*
G01X89337D01*
G03X87663I-837J-1000D01*
G01X86498D01*
G02X85967Y93518I-255J308D01*
G03X83982Y91533I-967J-1018D01*
G02X83975Y90975I-290J-275D01*
G01X83185Y90185D01*
G02X82573Y90241I-283J283D01*
G03X80352Y90119I-1073J-741D01*
G02X79648I-352J189D01*
G03Y88881I-1148J-619D01*
G02X80352I352J-189D01*
G03X80759Y88427I1148J619D01*
G02X80815Y87815I-227J-329D01*
G01X69500Y76500D01*
X69340D01*
X69286Y76540D01*
G03X67663Y76500I-786J-1040D01*
G01X66250D01*
X65055Y75305D01*
X64975Y75304D01*
G03X63696Y74025I25J-1304D01*
G01X63695Y73945D01*
X63250Y73500D01*
Y39750D01*
X61500Y38000D01*
X60500D01*
G37*
G36*
G01X43046Y319546D02*
X41000Y317500D01*
X29500D01*
X27000Y320000D01*
Y341845D01*
X27004Y341866D01*
G03Y343212I-3130J673D01*
G01X27000Y343233D01*
Y356500D01*
X29000Y358500D01*
X42000D01*
X43500Y357000D01*
Y349210D01*
X43393Y349154D01*
G03Y346846I607J-1154D01*
G01X43500Y346790D01*
Y322210D01*
X43393Y322154D01*
G03X43053Y320103I607J-1154D01*
G02X43046Y319546I-290J-275D01*
G37*
G36*
G01X127008Y18707D02*
G03X128707Y17008I492J-1207D01*
G02X129361Y17139I370J-151D01*
G01X134500Y12000D01*
Y8837D01*
G03Y7163I1000J-837D01*
G01Y5337D01*
G03X136018Y3303I1000J-837D01*
G01X136143Y3357D01*
X139000Y500D01*
Y-8000D01*
X137000Y-10000D01*
X99000D01*
X76000Y13000D01*
Y13298D01*
X76027Y13344D01*
G03X76000Y14700I-1127J656D01*
G01Y38500D01*
X94500Y57000D01*
X96000D01*
X105500Y66500D01*
X117000D01*
X118000Y65500D01*
Y58000D01*
X117500Y57500D01*
X112000D01*
X111000Y56500D01*
Y54263D01*
G03Y54051I3000J-106D01*
G01Y46389D01*
G03Y46177I3000J-106D01*
G01Y36547D01*
G03Y36335I3000J-106D01*
G01Y35500D01*
X111240Y35260D01*
X111255Y35226D01*
G03X112785Y33696I2745J1215D01*
G01X112819Y33681D01*
X127139Y19361D01*
G02X127008Y18707I-282J-284D01*
G37*
G36*
G01X73750Y119750D02*
X72500Y121000D01*
Y126500D01*
X73500Y127500D01*
X103690D01*
X103746Y127393D01*
G03X106054I1154J607D01*
G01X106110Y127500D01*
X107290D01*
X107346Y127393D01*
G03X109654I1154J607D01*
G01X109710Y127500D01*
X111500D01*
X114000Y130000D01*
X137163D01*
G03X138837I837J1000D01*
G01X140000D01*
X141000Y129000D01*
Y125500D01*
X140000Y124500D01*
X123837D01*
G03X122163I-837J-1000D01*
G01X121000D01*
X116250Y119750D01*
X91477D01*
G02X91130Y120349I0J400D01*
G03X88870I-1130J651D01*
G02X88523Y119750I-347J-199D01*
G01X73750D01*
G37*
G36*
G01X151500Y322500D02*
X143967Y314967D01*
X143887Y314966D01*
G03X142904Y313983I21J-1004D01*
G01X142903Y313903D01*
X120000Y291000D01*
X109000D01*
X108000Y292000D01*
Y313000D01*
X109212Y314212D01*
X109270Y314224D01*
G03X110276Y315230I-270J1276D01*
G01X110288Y315288D01*
X129500Y334500D01*
X150500D01*
X151500Y333500D01*
Y329676D01*
X151396Y329619D01*
G03Y327333I628J-1143D01*
G01X151500Y327276D01*
Y322500D01*
G37*
G36*
G01X171500Y223000D02*
X170500Y224000D01*
Y225500D01*
X171098Y226098D01*
X171179Y226099D01*
G03X172028Y227612I-17J1004D01*
G01X172000Y227659D01*
Y229106D01*
X172028Y229153D01*
G03Y230171I-866J509D01*
G01X172000Y230218D01*
Y231000D01*
X170500Y232500D01*
X159500D01*
X159000Y233000D01*
Y234000D01*
G03Y235558I-633J779D01*
G01Y236560D01*
G03Y238118I-633J779D01*
G01Y239119D01*
G03Y240677I-633J779D01*
G01Y241678D01*
G03Y243236I-633J779D01*
G01Y244237D01*
G03Y245795I-633J779D01*
G01Y246796D01*
G03Y248352I-634J778D01*
G01Y248500D01*
X156500Y251000D01*
X156317D01*
X156274Y251023D01*
G03X155340I-467J-889D01*
G01X155297Y251000D01*
X153758D01*
X153714Y251023D01*
G03X152784I-465J-890D01*
G01X152740Y251000D01*
X150000D01*
X149554Y250554D01*
X149366D01*
X148429Y249616D01*
X146884D01*
X146561Y249939D01*
X146570Y250034D01*
G03X144685Y250606I-999J99D01*
G01X144629Y250500D01*
X143954D01*
X143898Y250606D01*
G03X142126I-886J-473D01*
G01X142070Y250500D01*
X138500D01*
X127500Y261500D01*
Y270000D01*
X123000Y274500D01*
Y280000D01*
X124000Y281000D01*
X148500D01*
X154000Y275500D01*
Y269590D01*
X153999Y269582D01*
G03Y269418I1001J-82D01*
G01X154000Y269410D01*
Y267590D01*
X153999Y267582D01*
G03X154932Y266498I1001J-82D01*
G01X155007Y266493D01*
X155500Y266000D01*
Y261335D01*
X155384Y261281D01*
G03X156174Y259436I424J-910D01*
G01X156209Y259450D01*
X156446D01*
Y259238D01*
X157238Y258446D01*
X157445D01*
Y258209D01*
X157431Y258174D01*
G03X159276Y257385I936J-363D01*
G01X159330Y257500D01*
X159963D01*
X160017Y257385D01*
G03X161835I909J425D01*
G01X161889Y257500D01*
X162522D01*
X162576Y257385D01*
G03X164394I909J425D01*
G01X164448Y257500D01*
X165081D01*
X165135Y257385D01*
G03X166953I909J426D01*
G01X167007Y257500D01*
X167640D01*
X167694Y257385D01*
G03X169512I909J426D01*
G01X169566Y257500D01*
X170199D01*
X170253Y257385D01*
G03X172071I909J425D01*
G01X172125Y257500D01*
X175316D01*
X175370Y257385D01*
G03X176672Y256886I909J425D01*
G01X176796Y256939D01*
X177967Y255768D01*
X177914Y255644D01*
G03X179504Y254500I924J-393D01*
G01X180731D01*
G03X182063I666J751D01*
G01X183290D01*
G03X184622I666J751D01*
G01X185500D01*
X186000Y254000D01*
Y253554D01*
G03Y251830I515J-862D01*
G01Y248436D01*
G03Y246712I515J-862D01*
G01Y245877D01*
G03Y244153I515J-862D01*
G01Y243500D01*
X185500Y243000D01*
X184800D01*
G03X183112I-844J-544D01*
G01X182241D01*
G03X180553I-844J-544D01*
G01X179682D01*
G03X177994I-844J-544D01*
G01X177123D01*
G03X175373Y242890I-844J-544D01*
G01X175359Y242859D01*
X174000Y241500D01*
Y236500D01*
X175000Y235500D01*
X175393D01*
Y235255D01*
X175373Y235214D01*
G03X177257Y235009I906J-433D01*
G02X177646Y235500I389J91D01*
G01X179000D01*
X179358Y235142D01*
Y233360D01*
X178498Y232500D01*
X177000D01*
X174500Y230000D01*
Y224000D01*
X173500Y223000D01*
X171500D01*
G37*
G36*
G01X172500Y220500D02*
Y216000D01*
X171679Y215179D01*
X171555Y215232D01*
G03X170435Y215000I-393J-924D01*
G01X166770D01*
G03X165318I-726J-693D01*
G01X164212D01*
G03X162758I-727J-692D01*
G01X162000D01*
X161500Y215500D01*
Y218602D01*
G03Y220250I-574J824D01*
G01Y221161D01*
G03Y222809I-574J824D01*
G01Y223720D01*
G03Y225368I-574J824D01*
G01Y228838D01*
G03Y230486I-574J824D01*
G01Y231000D01*
X162000Y231500D01*
X170000D01*
X170500Y231000D01*
Y230417D01*
G03Y228907I662J-755D01*
G01Y227858D01*
G03X170375Y226479I662J-755D01*
G02X170360Y226214I-157J-124D01*
G01X169896Y225750D01*
Y223750D01*
X170500Y223147D01*
Y222740D01*
G03X171670Y221119I662J-755D01*
G01X171803Y221197D01*
X172500Y220500D01*
G37*
G36*
G01X188500Y240720D02*
G03Y239074I575J-823D01*
G01Y235602D01*
G03Y233956I575J-823D01*
G01Y230486D01*
G03Y228838I574J-824D01*
G01Y227927D01*
G03Y226279I574J-824D01*
G01Y225368D01*
G03X188429Y223775I574J-824D01*
G01X188500Y223715D01*
Y223500D01*
X187742Y222742D01*
G02X187190Y222728I-283J282D01*
G03X185653Y222500I-675J-743D01*
G01X184818D01*
G03X183094I-862J-515D01*
G01X182259D01*
G03X180535I-862J-515D01*
G01X179700D01*
G03X177976I-862J-515D01*
G01X177141D01*
G03X176135Y222979I-862J-515D01*
G01X176036Y222964D01*
X175500Y223500D01*
Y230000D01*
X177000Y231500D01*
X179000D01*
X179911Y232411D01*
Y233060D01*
X179962Y233110D01*
Y235392D01*
X179911Y235442D01*
Y235456D01*
X179210Y236157D01*
X175343D01*
X175000Y236500D01*
Y241000D01*
X175500Y241500D01*
X175971D01*
X175998Y241492D01*
G03X176560I281J964D01*
G01X176587Y241500D01*
X178530D01*
X178557Y241492D01*
G03X179119I281J964D01*
G01X179146Y241500D01*
X181089D01*
X181116Y241492D01*
G03X181678I281J964D01*
G01X181705Y241500D01*
X183648D01*
X183675Y241492D01*
G03X184237I281J964D01*
G01X184264Y241500D01*
X188000D01*
X188500Y241000D01*
Y240720D01*
G37*
%LPC*%
G75*
G36*
G01X-7348Y70622D02*
X-10448D01*
G02Y75826I0J2602D01*
G01X-7348D01*
G02Y70622I0J-2602D01*
G37*
G36*
G01Y35190D02*
X-10448D01*
G02Y40392I0J2601D01*
G01X-7348D01*
G02Y35190I0J-2601D01*
G37*
G36*
G01X370802Y347302D02*
Y339698D01*
X370048D01*
Y339988D01*
X360698D01*
Y339998D01*
X356498D01*
Y347002D01*
X360698D01*
Y347012D01*
X370048D01*
Y347302D01*
X370802D01*
G37*
G36*
G01X338386Y321543D02*
G03Y320957I272J-293D01*
G02X336614I-886J-957D01*
G03Y321543I-272J293D01*
G02Y323457I886J957D01*
G03Y324043I-272J293D01*
G02Y325957I886J957D01*
G03Y326543I-272J293D01*
G02X338386I886J957D01*
G03Y325957I272J-293D01*
G02Y324043I-886J-957D01*
G03Y323457I272J-293D01*
G02Y321543I-886J-957D01*
G37*
G36*
G01X281581Y313008D02*
G03X281591Y313590I-269J296D01*
G02X283377Y313560I909J935D01*
G03X283367Y312978I269J-296D01*
G02X281581Y313008I-909J-935D01*
G37*
G36*
G01X347119Y66148D02*
G02X345881I-619J-1148D01*
G03Y66852I-189J352D01*
G02X347119I619J1148D01*
G03Y66148I189J-352D01*
G37*
G36*
G01X73148Y381D02*
G02Y1619I-1148J619D01*
G03X73852I352J189D01*
G02Y381I1148J-619D01*
G03X73148I-352J-189D01*
G37*
G36*
G01X142905Y116857D02*
G03X142295I-305J-259D01*
G02Y118543I-995J843D01*
G03X142905I305J259D01*
G02Y116857I995J-843D01*
G37*
G36*
G01X24607Y64425D02*
X23457Y63275D01*
X23450Y63266D01*
G02X21007Y63655I-1114J870D01*
G02X21946Y65803I993J845D01*
G01X22024Y65806D01*
X22301Y66083D01*
G03X22131Y66749I-283J282D01*
G02X23796Y67857I369J1251D01*
G03X24195Y67414I398J-43D01*
G02X25591Y66253I5J-1414D01*
G03X26105Y65943I393J71D01*
G02X25268Y64273I395J-1243D01*
G03X24607Y64425I-378J-131D01*
G37*
G36*
G01X96148Y99881D02*
G02Y101119I-1148J619D01*
G03X96852I352J189D01*
G02X98918Y101426I1148J-619D01*
G03X99482I282J284D01*
G02Y99574I918J-926D01*
G03X98918I-282J-284D01*
G02X96852Y99881I-918J926D01*
G03X96148I-352J-189D01*
G37*
G36*
G01X29119Y100148D02*
G02X27881I-619J-1148D01*
G03Y100852I-189J352D01*
G02X29119I619J1148D01*
G03Y100148I189J-352D01*
G37*
G36*
G01X73213Y88793D02*
G02Y90207I-1213J707D01*
G03X73897Y90195I346J201D01*
G02Y88805I1103J-695D01*
G03X73213Y88793I-338J-213D01*
G37*
G36*
G01X90386Y46543D02*
G03Y45957I272J-293D01*
G02X88614I-886J-957D01*
G03Y46543I-272J293D01*
G02X90386I886J957D01*
G37*
G36*
G01X86886Y16543D02*
G03Y15957I272J-293D01*
G02X85114I-886J-957D01*
G03Y16543I-272J293D01*
G02X86886I886J957D01*
G37*
G36*
G01X119386Y-3457D02*
G03Y-4043I272J-293D01*
G02X117614I-886J-957D01*
G03Y-3457I-272J293D01*
G02X119421Y-1577I886J956D01*
G03X120008Y-1554I283J283D01*
G02X120079Y-3323I992J-846D01*
G03X119492Y-3346I-283J-283D01*
G02X119386Y-3457I-994J844D01*
G37*
G36*
G01X148705Y274785D02*
G03Y274215I280J-285D01*
G02X147295I-705J-715D01*
G03Y274785I-280J285D01*
G02X148705I705J715D01*
G37*
G36*
G01X148372Y266918D02*
G03X148528Y266369I348J-198D01*
G02X147174Y265985I-482J-881D01*
G03X147018Y266534I-348J198D01*
G02X147011Y268292I482J881D01*
G03X147161Y268842I-196J349D01*
G02X148518Y268470I868J505D01*
G03X148368Y267920I196J-349D01*
G02X148372Y266918I-868J-504D01*
G37*
G36*
G01X140285Y262739D02*
G03X139715I-285J-280D01*
G02Y264149I-715J705D01*
G03X140285I285J280D01*
G02Y262739I715J-705D01*
G37*
G36*
G01X142451Y265834D02*
G02Y267166I-751J666D01*
G03X143049I299J266D01*
G02Y265834I751J-666D01*
G03X142451I-299J-266D01*
G37*
G36*
G01X151263Y266312D02*
G02X150123Y266317I-574J-824D01*
G03X150126Y266976I-225J331D01*
G02X151266Y266971I574J824D01*
G03X151263Y266312I225J-331D01*
G37*
G36*
G01X142238Y255890D02*
G02X142184Y254683I774J-639D01*
G03X141545Y254712I-330J-226D01*
G02X141599Y255919I-774J639D01*
G03X142238Y255890I330J226D01*
G37*
G54D37*
X301043Y-5307D03*
X243957D03*
G54D36*
X301043Y18315D03*
G54D38*
X49961Y12133D03*
X18071D03*
G54D51*
X145571Y252692D03*
X143011D03*
X145571Y255251D03*
Y257810D03*
X143011D03*
X153249Y252692D03*
X155808D03*
X148130D03*
X150690D03*
Y257811D03*
X153249Y262929D03*
X148130Y255250D03*
X155808Y257811D03*
X148130Y257810D03*
X153249Y255251D03*
X155808D03*
X153249Y260370D03*
Y257810D03*
X168603Y242456D03*
X163485Y234779D03*
X160926Y237338D03*
X166044D03*
X168603Y234779D03*
X166044Y239897D03*
X168603Y239797D03*
X160926Y239897D03*
Y234779D03*
Y242456D03*
X163485Y250133D03*
X166044D03*
X160926Y245015D03*
Y252692D03*
X168603Y250133D03*
Y252692D03*
Y245015D03*
Y247574D03*
X163485Y252692D03*
X166044D03*
X158367D03*
X160926Y250133D03*
X166044Y245015D03*
X168603Y255251D03*
X166044D03*
X158367D03*
X160926D03*
X163485D03*
X171162Y237338D03*
Y234779D03*
Y242456D03*
Y239897D03*
X178838Y250133D03*
X176279D03*
X171162D03*
X178838Y252692D03*
X171162D03*
X176279D03*
Y245015D03*
X178838Y247574D03*
X176279D03*
X171162D03*
X178838Y245015D03*
X171162D03*
X176279Y255251D03*
X171162D03*
X183956Y245015D03*
X181397Y250133D03*
X183956D03*
Y247574D03*
X181397D03*
X163485Y219426D03*
Y216867D03*
Y224544D03*
Y229662D03*
Y227103D03*
Y221985D03*
X178838Y229661D03*
X181397Y224544D03*
Y229662D03*
Y227103D03*
X186515Y229662D03*
X183956Y227103D03*
X186515Y224544D03*
Y227103D03*
X183956Y224544D03*
Y229662D03*
X181397Y234779D03*
Y237338D03*
X186516D03*
X183957D03*
X183956Y234779D03*
X186515D03*
G54D50*
X106874Y29157D03*
G54D44*
X-8567Y257039D03*
Y342539D03*
X8126D03*
X-4630Y186961D03*
X31866Y342539D03*
G54D47*
X-7500Y129594D03*
G54D45*
X56000Y-1000D03*
Y2091D03*
X62500Y13000D03*
X69000Y2000D03*
X85500Y-1000D03*
X251900Y356000D03*
X255000D03*
Y359500D03*
X251900D03*
X288976Y306476D03*
X301500Y309000D03*
X315500Y35000D03*
X325000Y350000D03*
Y354000D03*
X329490Y46458D03*
X341500Y104000D03*
X342500Y119000D03*
X354000Y30008D03*
X356490Y71059D03*
X350000Y73000D03*
X356500Y81000D03*
Y76000D03*
X350000Y84500D03*
X349976Y90024D03*
X357000Y179900D03*
Y183000D03*
Y186100D03*
X352500Y176500D03*
X363500D03*
X367000D03*
X-500Y161000D03*
X-5000D03*
X-8500D03*
X4500Y119400D03*
X10576Y126524D03*
X500Y123500D03*
X4500Y129000D03*
Y122600D03*
X500Y120000D03*
X7524Y126524D03*
X6500Y141000D03*
X7000Y132976D03*
X16000Y82300D03*
X19500D03*
X16000Y85400D03*
X19500D03*
Y78900D03*
X16000D03*
Y88500D03*
X19500D03*
X16500Y101000D03*
X20500Y108500D03*
X28750Y66750D03*
X27000Y82500D03*
X23000Y79000D03*
X23500Y82400D03*
Y85500D03*
X27500Y90500D03*
Y94000D03*
X28500Y105500D03*
X24000Y105000D03*
Y108500D03*
X26500Y116000D03*
X28500Y108700D03*
X40200Y70500D03*
X49000Y74000D03*
X55900Y78400D03*
X52500D03*
Y81500D03*
X49476Y79976D03*
X61000Y56500D03*
Y74500D03*
Y65500D03*
X65000Y78000D03*
X61500D03*
X33500Y328760D03*
X33409Y331909D03*
X78000Y19500D03*
X84000Y11500D03*
X82100Y14000D03*
X79000D03*
X88500Y25500D03*
X85500Y34000D03*
X87200Y31339D03*
X97000Y20500D03*
X101000Y35500D03*
Y38700D03*
X96000D03*
Y35500D03*
X101000Y42000D03*
X96000D03*
X104500Y3500D03*
X106000Y15500D03*
X122500Y-8000D03*
X116000Y7000D03*
X119500D03*
X123500Y17500D03*
X122500Y9000D03*
X117500Y26500D03*
X114000D03*
X121500Y22500D03*
X117500D03*
X114000D03*
X128000Y6500D03*
X126000Y9000D03*
X106000Y125000D03*
X112000Y301500D03*
X111524Y305500D03*
X115000Y307500D03*
X134000Y315500D03*
X125500Y323000D03*
X134000Y328976D03*
Y332000D03*
G54D49*
X-4800Y174000D03*
X-1200D03*
X-8500D03*
X-4800Y177500D03*
X-1200D03*
X-8500D03*
X67500Y92500D03*
G54D48*
X-7500Y141406D03*
G54D42*
X358370Y172694D03*
G54D40*
X259988Y361295D03*
G54D39*
X35000Y-5583D03*
G54D41*
X333870Y-5425D03*
Y22134D03*
G54D43*
X0Y0D03*
Y362205D03*
X362205Y0D03*
G54D46*
X345000Y132500D03*
%LPD*%
G75*
G54D10*
X-11500Y29500D03*
X-12000Y86000D03*
Y100500D03*
Y117000D03*
Y113000D03*
X-12500Y215500D03*
Y227500D03*
Y239000D03*
Y251000D03*
Y269000D03*
Y284000D03*
Y297000D03*
Y310000D03*
Y322500D03*
Y335000D03*
X-11500Y350500D03*
Y373500D03*
X-11000Y-11500D03*
X-4500Y29500D03*
X-1000Y26000D03*
X-3000Y200000D03*
Y206800D03*
Y203500D03*
Y210000D03*
X-3073Y318111D03*
Y320511D03*
X9500Y-11500D03*
X0Y80500D03*
X10221Y165079D03*
X10250Y167550D03*
X10958Y232642D03*
Y235042D03*
X10927Y283465D03*
Y285865D03*
X7500Y350500D03*
X9000Y373500D03*
X19500Y-11500D03*
X14000Y-1000D03*
Y2500D03*
X11500Y8500D03*
X13000Y17500D03*
X20320Y31770D03*
X18500Y147500D03*
X21144Y199507D03*
Y201907D03*
X11927Y207414D03*
X16500Y201500D03*
X11927Y209814D03*
X18655Y283540D03*
Y285940D03*
X11427Y295314D03*
Y292914D03*
Y329960D03*
Y327560D03*
X17000Y366646D03*
X14000Y375500D03*
X25000Y16000D03*
Y19000D03*
Y22500D03*
X24300Y48930D03*
X26700Y48960D03*
X23000Y56300D03*
Y53800D03*
X27500Y177500D03*
X33500Y193000D03*
Y220000D03*
Y304500D03*
Y319312D03*
X33409Y322461D03*
X31000Y356000D03*
X29000Y360500D03*
X42500Y-7500D03*
X38500Y-12500D03*
X44000Y39000D03*
X35500Y44800D03*
Y42200D03*
X37500Y72500D03*
X42500Y63500D03*
X35000Y72500D03*
X43500Y296000D03*
X40000Y356000D03*
X34500D03*
X43000Y375500D03*
X46500Y-7500D03*
X54500Y-12700D03*
X50500Y33500D03*
X51700Y63600D03*
X53000Y74000D03*
X54300Y63500D03*
X51500Y115000D03*
X48000Y364500D03*
Y357000D03*
X64500Y-12700D03*
X59000D03*
X61500Y48000D03*
X57000Y74000D03*
X59000Y81500D03*
X66000Y134000D03*
X61000Y133500D03*
X59000Y151000D03*
X63500Y158500D03*
X66000D03*
Y174000D03*
X59000Y166000D03*
Y349500D03*
X64500Y367500D03*
X75000Y-12700D03*
X71500D03*
X68000D03*
X70100Y10000D03*
X70500Y59800D03*
X70073Y55050D03*
X72573D03*
X70500Y62300D03*
X73500Y73000D03*
X70400D03*
X70000Y126000D03*
X72676Y289500D03*
X71600Y313000D03*
X74500Y327000D03*
X75500Y367500D03*
X81700Y-12700D03*
X89500D03*
X79000D03*
X86000Y-11000D03*
X83000Y0D03*
X85900Y112000D03*
X89000Y138500D03*
X85500Y142500D03*
X87500Y169500D03*
Y166000D03*
X85200Y261000D03*
X89500Y305000D03*
X85500D03*
X88500Y315000D03*
Y321000D03*
X100500Y-12500D03*
X97906Y63000D03*
X95500Y74500D03*
X98000Y76000D03*
X98500Y92500D03*
X95000Y242000D03*
X91400Y244400D03*
X98000Y244000D03*
X95000Y245100D03*
X91500Y315000D03*
X92500Y359000D03*
X90000Y363500D03*
Y359000D03*
X104000Y-12700D03*
X107500D03*
X111500Y-12500D03*
X103500Y81500D03*
X111500Y130500D03*
Y133000D03*
X101500Y243000D03*
X109000Y299300D03*
Y295100D03*
Y292000D03*
Y303500D03*
X111500Y358500D03*
X123000Y-12500D03*
X116500Y83500D03*
X123500Y126500D03*
X119000D03*
X114398Y243000D03*
X123500Y254000D03*
X123000Y374000D03*
X134500Y-12500D03*
X133000Y-7500D03*
X129500D03*
X126000D03*
X129300Y113100D03*
X129200Y115800D03*
X130500Y126500D03*
X125000Y244200D03*
X128000D03*
X131000Y244199D03*
X126500Y250000D03*
X128750Y256750D03*
X125000Y276500D03*
Y273700D03*
Y270000D03*
Y279400D03*
X134000Y374000D03*
X136500Y-7500D03*
X140500Y5000D03*
Y8500D03*
X139800Y51000D03*
X137200D03*
X144500Y78500D03*
X138200Y126800D03*
X137000Y151500D03*
X157000Y-12500D03*
X147000D03*
X151000Y4500D03*
Y8500D03*
X151750Y60750D03*
Y58250D03*
X152941Y73559D03*
X147000Y78500D03*
X153000Y76000D03*
X154500Y109000D03*
X147500Y117500D03*
X154800Y160500D03*
X152300D03*
X156465Y169155D03*
X150500Y324000D03*
X148500Y331000D03*
X147000Y327500D03*
Y324000D03*
X152500Y374000D03*
X159500Y93000D03*
X158040Y137427D03*
X160440D03*
X168500Y137500D03*
X158373Y149280D03*
Y146880D03*
X161000Y145500D03*
X162700Y143800D03*
X158865Y169155D03*
X163550Y166927D03*
X165950D03*
X166500Y374500D03*
X158500Y374000D03*
X172000Y-10500D03*
X169000Y72000D03*
Y82600D03*
Y99500D03*
X169500Y106000D03*
X178500Y112000D03*
X177000Y109000D03*
X174000Y374500D03*
X184000Y-10500D03*
X187500Y68000D03*
X184000Y77000D03*
X189275Y111802D03*
X184876Y112155D03*
X182376D03*
X184000Y126500D03*
X186500D03*
X189500Y333500D03*
X189000Y374500D03*
X181500D03*
X197500Y-10000D03*
X191500Y76500D03*
X197500Y110000D03*
X191775Y111802D03*
X197500Y112500D03*
X192500Y137500D03*
X201600Y143500D03*
X195600Y149500D03*
X192500Y160500D03*
X201250Y175850D03*
X193000Y333500D03*
X196500Y374500D03*
X211000Y-10000D03*
X210500Y80000D03*
X209000Y92000D03*
X206500Y101500D03*
Y104000D03*
X207500Y124000D03*
X210500Y126000D03*
X208500Y168000D03*
X205500Y374500D03*
X223000Y-10000D03*
X217500Y67000D03*
X218500Y106000D03*
X217000Y114400D03*
X220500Y111500D03*
X220244Y124744D03*
X224500Y166500D03*
X224200Y182500D03*
X224000Y232500D03*
X215500Y232700D03*
X224000Y259000D03*
X222000Y308000D03*
X217500Y344000D03*
X220976D03*
X222000Y365500D03*
X215500Y374000D03*
X225000D03*
X228500Y-2500D03*
X229000Y111500D03*
X229500Y127000D03*
Y129500D03*
X229000Y132400D03*
X228000Y150000D03*
X234000Y182000D03*
Y225500D03*
X226500Y232500D03*
X228900Y309000D03*
X236000Y374000D03*
X236500Y-12500D03*
X244500Y105000D03*
Y101500D03*
X247500Y105000D03*
X239000Y101500D03*
X242750Y113750D03*
X246267Y114000D03*
X246500Y130600D03*
X245600Y127000D03*
X243500Y132000D03*
X241500Y185500D03*
X237500Y225500D03*
X238000Y221500D03*
X246500Y257500D03*
X243000Y306000D03*
X240000Y306500D03*
X242059Y364223D03*
X251000Y-12500D03*
X249941Y-1941D03*
X257600Y8000D03*
X248700Y127000D03*
X250000Y257500D03*
X256000Y298000D03*
X250000Y296500D03*
X256500Y294500D03*
X253000Y310000D03*
X257500Y306500D03*
X250500Y302500D03*
X258500Y351500D03*
X252000Y374000D03*
X264000Y-12500D03*
X262000Y1500D03*
X260300Y8000D03*
X265500Y112000D03*
Y138500D03*
X267476Y230000D03*
X264000D03*
X259000Y298000D03*
X262000Y296000D03*
X261500Y306500D03*
X265000Y309000D03*
X264500Y331500D03*
X260500D03*
X266500Y340000D03*
X263500Y351500D03*
X266500Y346500D03*
X265000Y359720D03*
X262000Y374000D03*
X277500Y-12500D03*
X270500Y1500D03*
X270531Y13063D03*
X276437D03*
X280500Y36000D03*
X271200Y62500D03*
X279400D03*
X273800D03*
X276500Y68000D03*
Y65500D03*
X280000Y89200D03*
X281000Y111500D03*
X280000Y253500D03*
X279000Y263000D03*
Y260000D03*
X280500Y256800D03*
X278000Y318000D03*
X278500Y333000D03*
Y325500D03*
X272798Y337471D03*
X272500Y374000D03*
X290000Y-12500D03*
X283500Y1500D03*
X288248Y13000D03*
X282343D03*
X283000Y36000D03*
X289800Y62500D03*
X287238Y62437D03*
X281800Y62500D03*
X282500Y87500D03*
X286096Y87404D03*
X282700Y91700D03*
X288000Y249500D03*
X291000Y286000D03*
Y289500D03*
X290831Y310752D03*
X282837Y309673D03*
X288350Y320010D03*
X288030Y314190D03*
X282500Y317000D03*
X288131Y326531D03*
Y332437D03*
Y336374D03*
X288000Y343500D03*
X290000Y346000D03*
X286000Y359000D03*
Y374500D03*
X301500Y-12500D03*
X301000Y32500D03*
X298000Y46500D03*
X298072Y48950D03*
X302500Y226500D03*
Y240500D03*
X295000Y252500D03*
X294000Y246500D03*
X297000D03*
X301000Y281000D03*
Y284000D03*
X294500Y296500D03*
X295932Y310050D03*
X294500Y301000D03*
X299610Y316550D03*
X299690Y328560D03*
X299720Y322530D03*
X299610Y334380D03*
X295752Y346282D03*
X310000Y22500D03*
Y58500D03*
X308500Y105500D03*
X306800Y108000D03*
X309500Y154000D03*
X307000D03*
X311700Y223500D03*
X313000Y235500D03*
Y246000D03*
X311170Y310200D03*
X311390Y316500D03*
X305730Y316530D03*
X311650Y328480D03*
X305570Y328510D03*
X305670Y322610D03*
X311470Y322690D03*
X311440Y334440D03*
X305620Y334490D03*
X311520Y340470D03*
X304400Y346610D03*
X313469Y346591D03*
X310460Y346850D03*
X309500Y375000D03*
X316000Y-12500D03*
Y-1000D03*
Y9000D03*
X323500Y89000D03*
X317000Y205000D03*
X321500Y220500D03*
X326000Y221900D03*
Y231800D03*
Y225425D03*
Y228000D03*
X319500Y310323D03*
X317026Y310446D03*
X317450Y316550D03*
X323240Y328430D03*
X317660Y328620D03*
X323450Y322610D03*
X317470D03*
X323450Y334460D03*
X317470Y334410D03*
X323240Y340520D03*
X317390Y340360D03*
X319500Y360500D03*
X316307D03*
X323000Y361500D03*
X336500Y38500D03*
X333500Y33000D03*
X330000Y59840D03*
Y81500D03*
Y77000D03*
X332000Y115500D03*
X333000Y108500D03*
X326500D03*
Y115500D03*
X329000Y111500D03*
X332328Y128672D03*
X333000Y136500D03*
X336400Y145000D03*
X335500Y164000D03*
X326976Y168024D03*
X326500Y203500D03*
X337500Y218500D03*
X334700Y234000D03*
X327000Y249500D03*
X337000Y276000D03*
X335500Y278500D03*
X328000Y297000D03*
X336200Y308500D03*
X332000Y308000D03*
X334500Y306500D03*
X335570Y330930D03*
X335970Y335980D03*
X334850Y338080D03*
X337540Y347430D03*
X335620Y344880D03*
X330000Y352500D03*
X334500Y347500D03*
X336000Y350000D03*
X332500D03*
Y353000D03*
Y356000D03*
X330000Y355000D03*
X334000Y366000D03*
Y363000D03*
X336500Y364500D03*
Y361500D03*
X330000Y357500D03*
X332500Y359000D03*
X329693Y362000D03*
X337000Y373000D03*
Y370500D03*
X336500Y367500D03*
X337000Y375500D03*
X341000Y38500D03*
X343000Y42500D03*
X348500Y43000D03*
X344976Y46000D03*
X346500Y54720D03*
X341500Y107500D03*
X342000Y115000D03*
X348500Y162000D03*
X344000Y265500D03*
Y260000D03*
X348000Y283000D03*
X346500Y285500D03*
X339100Y284500D03*
Y282000D03*
X342000Y298600D03*
X339050Y308550D03*
X341500Y307500D03*
X339500Y305000D03*
X342000Y301500D03*
X342500Y305000D03*
X344000Y308500D03*
X340700Y321100D03*
X343500Y321500D03*
X344000Y311500D03*
X346000Y319000D03*
X348000Y321000D03*
X343500Y318000D03*
X339000Y317900D03*
X341000Y333000D03*
Y326000D03*
X345500D03*
Y329500D03*
Y333000D03*
X348000Y326500D03*
Y324000D03*
Y333000D03*
Y330000D03*
X346000Y323000D03*
X343500Y324500D03*
Y328000D03*
Y331500D03*
X338400Y331453D03*
X340000Y329484D03*
X337720Y338050D03*
X343500Y338000D03*
Y335500D03*
X348000Y336000D03*
X345500Y336500D03*
X340330Y346930D03*
X346500Y345000D03*
X343000D03*
X344500Y347500D03*
X348000D03*
X346500Y350000D03*
X343000D03*
X339500D03*
X351000Y-11500D03*
X349500Y9000D03*
X358500Y19500D03*
X349000Y38500D03*
X353000Y54720D03*
X354000Y104000D03*
X356000Y112800D03*
Y110300D03*
Y115500D03*
Y126000D03*
Y120500D03*
Y123000D03*
X352400Y147312D03*
X354500Y157500D03*
X357500Y163500D03*
X350059Y169441D03*
X356500Y196500D03*
Y199000D03*
X359500Y204000D03*
X359000Y221500D03*
X351000Y221200D03*
X354100Y225000D03*
X351000D03*
X359500Y279500D03*
X353000D03*
X359000Y288500D03*
X356000D03*
X354500Y283000D03*
X357500D03*
X358500Y285500D03*
X352500D03*
X355500D03*
X351000Y283000D03*
X349500Y285500D03*
X360000Y291500D03*
X357000D03*
X356000Y294000D03*
X350500Y298500D03*
X359000Y294000D03*
X350500Y301000D03*
Y309600D03*
Y304000D03*
Y306900D03*
Y319500D03*
Y325500D03*
Y322500D03*
Y331500D03*
Y328500D03*
Y337500D03*
Y334500D03*
X358000Y337500D03*
X354500D03*
X359500Y335000D03*
X356000D03*
X353000D03*
X358000Y348000D03*
X359500Y350500D03*
X350000Y350000D03*
X357000Y350500D03*
X350500Y347000D03*
X366000Y28000D03*
X370500Y30500D03*
X366000Y33500D03*
X364000Y54720D03*
X370000Y74500D03*
Y78500D03*
Y83000D03*
X369500Y89500D03*
X365000Y95500D03*
X368500Y144500D03*
X367500Y161000D03*
X364476Y164024D03*
X362500Y209500D03*
X367000Y207000D03*
X360500Y201500D03*
X367000Y211500D03*
X362000Y221500D03*
X367000D03*
X362500Y242000D03*
X361000Y262500D03*
Y272500D03*
X366500Y279500D03*
X365500Y288500D03*
X368500D03*
X362000D03*
X370500Y285500D03*
X369500Y283000D03*
X363500D03*
X366500D03*
X367500Y285500D03*
X361500D03*
X364500D03*
X360500Y283000D03*
X366500Y291500D03*
X369500D03*
X363000D03*
X368500Y294000D03*
X362000D03*
X365500D03*
X370000Y333500D03*
X368500Y331500D03*
X367000Y333500D03*
X365000Y331500D03*
X361500D03*
X363500Y333500D03*
X373000Y-11500D03*
X373500Y28000D03*
X374500Y40000D03*
X374000Y57000D03*
Y53500D03*
Y71500D03*
Y76500D03*
Y81500D03*
Y86000D03*
X373000Y89500D03*
X375500Y142500D03*
Y164000D03*
Y153500D03*
Y174000D03*
Y184000D03*
Y195500D03*
Y207500D03*
X371500Y204500D03*
X375500Y219500D03*
Y227500D03*
Y237500D03*
Y247500D03*
Y257500D03*
Y267500D03*
X373000Y279500D03*
X374500Y288500D03*
X371500D03*
X372500Y283000D03*
X375500D03*
X373500Y285500D03*
X375500Y291500D03*
X372500D03*
X374500Y294000D03*
X371500D03*
X373500Y333500D03*
X372000Y331500D03*
X375000D03*
X372000Y336000D03*
X375000D03*
X372000Y339500D03*
Y343000D03*
X375000D03*
Y339500D03*
Y354000D03*
Y347000D03*
X372000D03*
Y350500D03*
X375000D03*
Y357000D03*
Y366000D03*
Y363000D03*
Y360000D03*
Y375000D03*
Y372000D03*
Y369000D03*
G54D11*
X-8898Y37791D03*
Y73224D03*
G54D20*
X145570Y204071D03*
X153248Y201512D03*
X150690Y209190D03*
X155807Y201512D03*
Y204071D03*
X150689Y201512D03*
Y204071D03*
X148129Y201512D03*
Y204071D03*
X150690Y206630D03*
X153248Y204071D03*
X153249Y209190D03*
Y206630D03*
X148129D03*
X155808Y216867D03*
X150690Y219426D03*
X153249Y229662D03*
X155808Y221985D03*
X150690Y227103D03*
Y229662D03*
X153249Y221985D03*
Y227103D03*
X148130Y242456D03*
X153249D03*
Y239897D03*
X150690Y234779D03*
X153249D03*
X150690Y237338D03*
X153249D03*
X148129Y250133D03*
X153249Y245015D03*
X166044Y206630D03*
Y209190D03*
X163484Y201512D03*
Y204071D03*
X166043Y201512D03*
Y204071D03*
X158366Y201512D03*
Y204071D03*
X160925Y201512D03*
Y204071D03*
X168602Y201512D03*
Y204071D03*
X158367Y219426D03*
X168603D03*
Y216866D03*
X158367Y216867D03*
X168603Y229662D03*
Y224544D03*
Y221985D03*
Y227103D03*
X166044Y229662D03*
Y221985D03*
Y224544D03*
Y227103D03*
X158367Y242457D03*
X163484Y239897D03*
X163485Y242456D03*
X158366Y247574D03*
X163485D03*
X158367Y265531D03*
X166044Y262929D03*
X168603Y260370D03*
X163485D03*
X168603Y262929D03*
X158367D03*
X163485Y265488D03*
X160900Y272000D03*
X160920Y269600D03*
X164463Y287668D03*
X167023D03*
Y290817D03*
Y293817D03*
X164464Y305973D03*
X167023Y309123D03*
Y312272D03*
X164464D03*
X173720Y204071D03*
X178838D03*
X173720Y201512D03*
X176279D03*
Y204071D03*
X178838Y201512D03*
X171162Y216866D03*
Y219425D03*
X176279Y224543D03*
Y227103D03*
X178838D03*
X176279Y229662D03*
X171162Y224543D03*
X178838Y239897D03*
X176279Y237338D03*
Y239897D03*
X178838Y234779D03*
X176279Y260370D03*
X169984Y266642D03*
X169582Y293967D03*
Y297117D03*
X179818Y293967D03*
X178322Y297422D03*
X189500Y187100D03*
X186500Y188000D03*
X184500D03*
X186515Y201512D03*
Y204071D03*
X189074Y201512D03*
Y204071D03*
Y211749D03*
X186515D03*
X183956Y239897D03*
X181397D03*
X181398Y252693D03*
X183956Y257811D03*
X183957Y262929D03*
X186515D03*
X181397D03*
Y265488D03*
X189074D03*
X182000Y270500D03*
X190500Y270000D03*
X182377Y284518D03*
Y287668D03*
Y293967D03*
X184936Y290817D03*
X182378Y309123D03*
X184936D03*
X182377Y312272D03*
X184936D03*
X201870Y209190D03*
Y219426D03*
X196751D03*
X194193D03*
X196751Y216867D03*
X191633D03*
X199310D03*
Y214308D03*
X201870D03*
X194192Y211749D03*
Y216867D03*
Y214308D03*
X196751Y221985D03*
X191633Y229662D03*
X194192Y224544D03*
X199310D03*
Y227103D03*
X196751D03*
Y224544D03*
X199310Y229662D03*
X196751D03*
X194192Y221985D03*
X199310Y237338D03*
X194192Y234779D03*
X201870Y237339D03*
Y239897D03*
X191633Y234779D03*
X194192Y239897D03*
X199311Y247574D03*
X201870D03*
X196751D03*
X191633Y260370D03*
X192000Y267200D03*
X204429Y234779D03*
X206988D03*
Y242456D03*
X204429D03*
X206988Y247574D03*
X204429D03*
Y245015D03*
X206988D03*
X218500Y217500D03*
X216000D03*
G54D30*
G01X196751Y247574D02*
X198021Y246304D01*
Y241929D01*
X197072Y240980D01*
X195481D01*
G01D02*
Y246304D01*
X196751Y247574D01*
G54D12*
X0Y0D03*
Y362205D03*
X298000Y365000D03*
X362205Y0D03*
G54D21*
X165043Y9500D03*
X217996Y1508D03*
Y9500D03*
G54D31*
G01X-12660Y-15748D02*
X319000D01*
Y-12000D01*
X349000D01*
Y-15748D01*
X373817D01*
G03X377953Y-12243I0J4193D01*
G01Y375500D01*
G03X375000Y377953I-2953J-551D01*
G01X328000D01*
Y375000D01*
X318000D01*
Y377953D01*
X34000D01*
Y375000D01*
X24000D01*
Y377953D01*
X-12500D01*
G03X-15748Y375235I0J-3300D01*
G01Y-12117D01*
G03X-12660Y-15748I3679J0D01*
G54D13*
X-500Y89500D03*
G54D22*
X174000Y44500D03*
X179000Y54500D03*
X184000Y44500D03*
X189000Y54500D03*
X194000Y44500D03*
X204000D03*
X199000Y54500D03*
X214000Y44500D03*
X209000Y54500D03*
G54D32*
G01X-25150Y-202000D02*
Y-195700D01*
X-26090Y-196960D01*
G01Y-202000D02*
X-24210D01*
G01X-18850D02*
Y-195700D01*
X-19790Y-196960D01*
G01Y-202000D02*
X-17910D01*
G01X-6250D02*
X-6877Y-201895D01*
X-7425Y-201475D01*
X-7895Y-200845D01*
X-8208Y-200110D01*
X-8365Y-199270D01*
Y-198430D01*
X-8208Y-197590D01*
X-7895Y-196855D01*
X-7425Y-196225D01*
X-6877Y-195805D01*
X-6250Y-195700D01*
X-5623Y-195805D01*
X-5075Y-196225D01*
X-4605Y-196855D01*
X-4292Y-197590D01*
X-4135Y-198430D01*
Y-199270D01*
X-4292Y-200110D01*
X-4605Y-200845D01*
X-5075Y-201475D01*
X-5623Y-201895D01*
X-6250Y-202000D01*
G01X-1438D02*
Y-195700D01*
X1538D01*
G01X442Y-198745D02*
X-1438D01*
G01X12650Y-202000D02*
Y-195700D01*
X11710Y-196960D01*
G01Y-202000D02*
X13590D01*
G01X17462Y-199375D02*
X18010Y-198640D01*
X18480Y-198220D01*
X19107Y-198010D01*
X19655Y-198220D01*
X20047Y-198640D01*
X20360Y-199270D01*
X20438Y-200005D01*
X20360Y-200635D01*
X20047Y-201265D01*
X19577Y-201790D01*
X19028Y-202000D01*
X18402Y-201790D01*
X17853Y-201160D01*
X17540Y-200215D01*
X17462Y-199165D01*
X17618Y-197800D01*
X17853Y-197065D01*
X18245Y-196330D01*
X18793Y-195805D01*
X19342Y-195700D01*
X19890Y-195910D01*
X20282Y-196435D01*
G01X-24847Y-117000D02*
Y-109500D01*
X-20553Y-117000D01*
Y-109500D01*
G01X-17160Y-117000D02*
X-13240Y-109500D01*
G01X-17160D02*
X-13240Y-117000D01*
G01X-9567D02*
Y-109500D01*
X-7327D01*
X-6580Y-109875D01*
X-6020Y-110750D01*
X-5833Y-111750D01*
X-6020Y-112750D01*
X-6487Y-113500D01*
X-7327Y-113875D01*
X-9567D01*
G01X51383Y-193800D02*
Y-200100D01*
X54517D01*
G01X59250D02*
X59798Y-199995D01*
X60425Y-199680D01*
X60817Y-199155D01*
X60973Y-198420D01*
X60817Y-197685D01*
X60347Y-197055D01*
X59642Y-196740D01*
X58858D01*
X58388Y-196530D01*
X57997Y-196005D01*
X57840Y-195270D01*
X58075Y-194535D01*
X58623Y-194010D01*
X59250Y-193800D01*
X59877Y-194010D01*
X60425Y-194535D01*
X60660Y-195270D01*
X60503Y-196005D01*
X60112Y-196530D01*
X59642Y-196740D01*
X58858D01*
X58153Y-197055D01*
X57683Y-197685D01*
X57527Y-198420D01*
X57683Y-199155D01*
X58075Y-199680D01*
X58702Y-199995D01*
X59250Y-200100D01*
G01X63200Y-202200D02*
X67900D01*
G01X70910Y-193800D02*
X72790D01*
G01X71850D02*
Y-200100D01*
G01X70910D02*
X72790D01*
G01X76348D02*
Y-193800D01*
X79952Y-200100D01*
Y-193800D01*
G01X84450D02*
Y-200100D01*
G01X82648Y-193800D02*
X86252D01*
G01X88400Y-202200D02*
X93100D01*
G01X95327Y-198840D02*
X95797Y-199575D01*
X96423Y-199995D01*
X97128Y-200100D01*
X97755Y-199995D01*
X98382Y-199470D01*
X98773Y-198840D01*
X98852Y-198210D01*
X98695Y-197475D01*
X98147Y-196950D01*
X97598Y-196740D01*
X96893D01*
G01X97598D02*
X98068Y-196425D01*
X98460Y-195900D01*
X98617Y-195270D01*
X98460Y-194640D01*
X98068Y-194115D01*
X97363Y-193800D01*
X96658Y-193905D01*
X95953Y-194325D01*
G01X165205Y-162000D02*
X168495Y-155700D01*
G01X165205D02*
X168495Y-162000D01*
G01X235850Y-200000D02*
Y-193700D01*
X234910Y-194960D01*
G01Y-200000D02*
X236790D01*
G01X241993D02*
X242150Y-198635D01*
X242385Y-197480D01*
X242698Y-196430D01*
X243090Y-195275D01*
X243717Y-193700D01*
X240583D01*
G01X248450D02*
X247823Y-193910D01*
X247353Y-194435D01*
X247040Y-195065D01*
X246805Y-195905D01*
X246727Y-196850D01*
X246805Y-197795D01*
X247040Y-198635D01*
X247353Y-199265D01*
X247823Y-199790D01*
X248450Y-200000D01*
X249077Y-199790D01*
X249547Y-199265D01*
X249860Y-198635D01*
X250095Y-197795D01*
X250173Y-196850D01*
X250095Y-195905D01*
X249860Y-195065D01*
X249547Y-194435D01*
X249077Y-193910D01*
X248450Y-193700D01*
G01X253732Y-197900D02*
X255768D01*
G01X259327Y-198740D02*
X259797Y-199475D01*
X260423Y-199895D01*
X261128Y-200000D01*
X261755Y-199895D01*
X262382Y-199370D01*
X262773Y-198740D01*
X262852Y-198110D01*
X262695Y-197375D01*
X262147Y-196850D01*
X261598Y-196640D01*
X260893D01*
G01X261598D02*
X262068Y-196325D01*
X262460Y-195800D01*
X262617Y-195170D01*
X262460Y-194540D01*
X262068Y-194015D01*
X261363Y-193700D01*
X260658Y-193805D01*
X259953Y-194225D01*
G01X267350Y-200000D02*
X267898Y-199895D01*
X268525Y-199580D01*
X268917Y-199055D01*
X269073Y-198320D01*
X268917Y-197585D01*
X268447Y-196955D01*
X267742Y-196640D01*
X266958D01*
X266488Y-196430D01*
X266097Y-195905D01*
X265940Y-195170D01*
X266175Y-194435D01*
X266723Y-193910D01*
X267350Y-193700D01*
X267977Y-193910D01*
X268525Y-194435D01*
X268760Y-195170D01*
X268603Y-195905D01*
X268212Y-196430D01*
X267742Y-196640D01*
X266958D01*
X266253Y-196955D01*
X265783Y-197585D01*
X265627Y-198320D01*
X265783Y-199055D01*
X266175Y-199580D01*
X266802Y-199895D01*
X267350Y-200000D01*
G01X273650D02*
X274198Y-199895D01*
X274825Y-199580D01*
X275217Y-199055D01*
X275373Y-198320D01*
X275217Y-197585D01*
X274747Y-196955D01*
X274042Y-196640D01*
X273258D01*
X272788Y-196430D01*
X272397Y-195905D01*
X272240Y-195170D01*
X272475Y-194435D01*
X273023Y-193910D01*
X273650Y-193700D01*
X274277Y-193910D01*
X274825Y-194435D01*
X275060Y-195170D01*
X274903Y-195905D01*
X274512Y-196430D01*
X274042Y-196640D01*
X273258D01*
X272553Y-196955D01*
X272083Y-197585D01*
X271927Y-198320D01*
X272083Y-199055D01*
X272475Y-199580D01*
X273102Y-199895D01*
X273650Y-200000D01*
G01X278462Y-194750D02*
X278932Y-194120D01*
X279480Y-193805D01*
X280107Y-193700D01*
X280890Y-193910D01*
X281438Y-194435D01*
X281595Y-195065D01*
X281517Y-195695D01*
X281203Y-196220D01*
X279637Y-197270D01*
X278932Y-198005D01*
X278462Y-199055D01*
X278305Y-200000D01*
X281595D01*
G01X286250Y-193700D02*
X285623Y-193910D01*
X285153Y-194435D01*
X284840Y-195065D01*
X284605Y-195905D01*
X284527Y-196850D01*
X284605Y-197795D01*
X284840Y-198635D01*
X285153Y-199265D01*
X285623Y-199790D01*
X286250Y-200000D01*
X286877Y-199790D01*
X287347Y-199265D01*
X287660Y-198635D01*
X287895Y-197795D01*
X287973Y-196850D01*
X287895Y-195905D01*
X287660Y-195065D01*
X287347Y-194435D01*
X286877Y-193910D01*
X286250Y-193700D01*
G01X328783Y-200000D02*
Y-193700D01*
X330742D01*
X331368Y-194015D01*
X331760Y-194435D01*
X331917Y-195275D01*
X331760Y-196115D01*
X331290Y-196640D01*
X330742Y-196955D01*
X328783D01*
G01X330742D02*
X331917Y-200000D01*
G01X338217D02*
X335083D01*
Y-193700D01*
X338217D01*
G01X336963Y-196745D02*
X335083D01*
G01X340992Y-193700D02*
X342950Y-200000D01*
X344908Y-193700D01*
G01X353592Y-200000D02*
X355550Y-193700D01*
X357508Y-200000D01*
G01X356803Y-197795D02*
X354297D01*
G01X235813Y-127000D02*
Y-120700D01*
X237850Y-125950D01*
X239887Y-120700D01*
Y-127000D01*
G01X245873Y-121225D02*
X245403Y-120910D01*
X244855Y-120700D01*
X244228D01*
X243523Y-121015D01*
X242975Y-121540D01*
X242583Y-122170D01*
X242270Y-123220D01*
X242192Y-124165D01*
X242348Y-125110D01*
X242583Y-125740D01*
X243053Y-126370D01*
X243602Y-126790D01*
X244150Y-127000D01*
X244698D01*
X245247Y-126790D01*
X245717Y-126475D01*
X246108Y-126055D01*
G01X249510Y-120700D02*
X251390D01*
G01X250450D02*
Y-127000D01*
G01X249510D02*
X251390D01*
G01X254713D02*
Y-120700D01*
X256750Y-125950D01*
X258787Y-120700D01*
Y-127000D01*
G01X261405D02*
X264695Y-120700D01*
G01X261405D02*
X264695Y-127000D01*
G01X269350D02*
X269898Y-126895D01*
X270525Y-126580D01*
X270917Y-126055D01*
X271073Y-125320D01*
X270917Y-124585D01*
X270447Y-123955D01*
X269742Y-123640D01*
X268958D01*
X268488Y-123430D01*
X268097Y-122905D01*
X267940Y-122170D01*
X268175Y-121435D01*
X268723Y-120910D01*
X269350Y-120700D01*
X269977Y-120910D01*
X270525Y-121435D01*
X270760Y-122170D01*
X270603Y-122905D01*
X270212Y-123430D01*
X269742Y-123640D01*
X268958D01*
X268253Y-123955D01*
X267783Y-124585D01*
X267627Y-125320D01*
X267783Y-126055D01*
X268175Y-126580D01*
X268802Y-126895D01*
X269350Y-127000D01*
G01X273613D02*
Y-120700D01*
X275650Y-125950D01*
X277687Y-120700D01*
Y-127000D01*
G01X280932Y-124900D02*
X282968D01*
G01X289817Y-127000D02*
X286683D01*
Y-120700D01*
X289817D01*
G01X288563Y-123745D02*
X286683D01*
G01X292592Y-120700D02*
X294550Y-127000D01*
X296508Y-120700D01*
G01X299127Y-127000D02*
Y-120700D01*
G01X302103D02*
X299127Y-124585D01*
G01X302573Y-127000D02*
X300458Y-122800D01*
G01X307777Y-123640D02*
X308090Y-123325D01*
X308325Y-122800D01*
X308482Y-122065D01*
X308325Y-121435D01*
X308012Y-121015D01*
X307463Y-120700D01*
X305348D01*
Y-127000D01*
X307933D01*
X308482Y-126580D01*
X308795Y-125950D01*
X308952Y-125215D01*
X308795Y-124480D01*
X308325Y-123850D01*
X307777Y-123640D01*
X305348D01*
G54D23*
X243957Y-5307D03*
X301043D03*
G54D14*
X-8567Y257039D03*
X-4630Y272461D03*
X-8567Y342539D03*
X8126D03*
G54D33*
G01X186500Y188000D02*
X186000Y187500D01*
Y186500D01*
X187500Y185000D01*
Y147500D01*
X182500Y142500D01*
Y139614D01*
X141500Y98614D01*
Y78500D01*
X144920Y75080D01*
X152080D01*
X153000Y76000D01*
G01X184500Y188000D02*
X185020Y187480D01*
Y186094D01*
X186520Y184594D01*
Y147906D01*
X181520Y142906D01*
Y140020D01*
X140520Y99020D01*
Y78094D01*
X144514Y74100D01*
X152393D01*
X152493Y74000D01*
X152500D01*
X152941Y73559D01*
G54D15*
X7244Y46059D03*
Y49209D03*
X10000Y53933D03*
Y57083D03*
G54D24*
X301043Y18315D03*
G54D34*
G01X7244Y49209D02*
X8470D01*
X9139Y48540D01*
X21540D01*
X23605Y50605D01*
X24995D01*
X26640Y48960D01*
X26700D01*
G01X24300Y48930D02*
X23020D01*
X21880Y47790D01*
X9709D01*
X9205Y47286D01*
Y46409D01*
X8855Y46059D01*
X7244D01*
G01X23000Y56300D02*
X24520Y54780D01*
X26894D01*
X27520Y55406D01*
Y57594D01*
X26614Y58500D01*
X24343D01*
X23843Y58000D01*
X23293D01*
X22793Y58500D01*
X21843D01*
X21343Y58000D01*
X20614D01*
X19114Y59500D01*
X15567D01*
X14893Y58826D01*
Y57957D01*
X14585Y57649D01*
X13716D01*
X13043Y56976D01*
Y56540D01*
X12503Y56000D01*
X12067D01*
X10000Y53933D01*
G01X23000Y53800D02*
X27300D01*
X28500Y55000D01*
Y58000D01*
X27020Y59480D01*
X20520D01*
X19520Y60480D01*
X15161D01*
X11764Y57083D01*
X10000D01*
G01X51700Y63600D02*
X52720Y62580D01*
Y61106D01*
X42020Y50406D01*
Y47526D01*
X37974Y43480D01*
X36720D01*
X35500Y44700D01*
Y44800D01*
G01X54300Y63500D02*
X53700Y62900D01*
Y60700D01*
X43000Y50000D01*
Y47120D01*
X38380Y42500D01*
X35800D01*
X35500Y42200D01*
G01X173720Y204071D02*
X175005Y202786D01*
Y186380D01*
X178500Y182885D01*
Y163999D01*
X175500Y160999D01*
Y157000D01*
X169500Y151000D01*
Y149000D01*
X171000Y147500D01*
Y142600D01*
X162400Y134000D01*
X156500D01*
X151000Y128500D01*
Y126000D01*
X147500Y122500D01*
X126000D01*
X120500Y117000D01*
X102000D01*
X97720Y112720D01*
X92394D01*
X90614Y114500D01*
X66000D01*
X48500Y97000D01*
Y87500D01*
X37500Y76500D01*
Y72500D01*
G01X173720Y201512D02*
X174025Y201207D01*
Y185974D01*
X177520Y182479D01*
Y164405D01*
X174520Y161405D01*
Y157406D01*
X168520Y151406D01*
Y148594D01*
X170020Y147094D01*
Y143006D01*
X161994Y134980D01*
X156094D01*
X150020Y128906D01*
Y126406D01*
X147094Y123480D01*
X125594D01*
X120094Y117980D01*
X101594D01*
X97314Y113700D01*
X92800D01*
X91020Y115480D01*
X65594D01*
X47520Y97406D01*
Y87906D01*
X36520Y76906D01*
Y74020D01*
X35000Y72500D01*
G01X178838Y201512D02*
Y202517D01*
X179201Y202880D01*
X180175D01*
X180650Y202405D01*
Y200464D01*
X180010Y199824D01*
Y199064D01*
X180650Y198424D01*
Y197664D01*
X180010Y197024D01*
Y196264D01*
X180650Y195624D01*
Y193740D01*
X179280Y192370D01*
Y187834D01*
X183520Y183594D01*
Y153150D01*
X183170Y152800D01*
X177410D01*
X175620Y151010D01*
Y138506D01*
X133094Y95980D01*
X129094D01*
X119594Y86480D01*
X115480D01*
X113480Y84480D01*
X101594D01*
X83520Y66406D01*
Y62576D01*
X81945Y61001D01*
Y57421D01*
X81264Y56740D01*
X78216D01*
X74001Y60955D01*
X71715D01*
X70500Y62170D01*
Y62300D01*
G01X178838Y204071D02*
X180370D01*
X181630Y202811D01*
Y193334D01*
X180260Y191964D01*
Y188240D01*
X184500Y184000D01*
Y152744D01*
X183576Y151820D01*
X177816D01*
X176600Y150604D01*
Y138100D01*
X133500Y95000D01*
X129500D01*
X120000Y85500D01*
X115886D01*
X113886Y83500D01*
X102000D01*
X84500Y66000D01*
Y62170D01*
X82925Y60595D01*
Y57015D01*
X81670Y55760D01*
X77810D01*
X73595Y59975D01*
X70675D01*
X70500Y59800D01*
G01X70073Y55050D02*
X70567D01*
X70940Y55423D01*
Y56412D01*
X70332Y57020D01*
X69000D01*
X67280Y58740D01*
Y66166D01*
X69614Y68500D01*
X81614D01*
X100594Y87480D01*
X108594D01*
X112594Y91480D01*
X119594D01*
X131594Y103480D01*
X136980D01*
X173000Y139500D01*
Y151887D01*
X180520Y159407D01*
Y183094D01*
X176055Y187559D01*
Y188231D01*
X176584Y188760D01*
Y189708D01*
X176055Y190237D01*
Y191108D01*
X176584Y191637D01*
Y192508D01*
X176055Y193037D01*
Y193908D01*
X176584Y194437D01*
Y195308D01*
X176055Y195837D01*
Y196708D01*
X176584Y197237D01*
Y198108D01*
X176055Y198637D01*
Y199508D01*
X176584Y200037D01*
Y201207D01*
X176279Y201512D01*
G01X72573Y55050D02*
X71920Y55703D01*
Y56818D01*
X70738Y58000D01*
X69406D01*
X68260Y59146D01*
Y65760D01*
X70020Y67520D01*
X82020D01*
X101000Y86500D01*
X109000D01*
X113000Y90500D01*
X120000D01*
X132000Y102500D01*
X137386D01*
X173980Y139094D01*
Y151481D01*
X181500Y159001D01*
Y183500D01*
X177564Y187436D01*
Y202786D01*
X176279Y204071D01*
G01X137200Y51000D02*
X137920Y51720D01*
Y52694D01*
X137114Y53500D01*
X119500D01*
X115620Y49620D01*
X114530D01*
X114000Y49090D01*
Y46283D01*
G01X139800Y51000D02*
X138900Y51900D01*
Y53100D01*
X137520Y54480D01*
X119094D01*
X115214Y50600D01*
X114330D01*
X114000Y50930D01*
Y54157D01*
G01X186515Y201512D02*
X186818Y201209D01*
Y200503D01*
X189020Y198301D01*
Y195594D01*
X191920Y192694D01*
Y183608D01*
X194720Y180808D01*
Y154106D01*
X192520Y151906D01*
Y146020D01*
X187500Y141000D01*
Y136886D01*
X182594Y131980D01*
X180093D01*
X145260Y97147D01*
Y79260D01*
X144500Y78500D01*
G01X189074Y201512D02*
X189988D01*
X192020Y199480D01*
Y197094D01*
X194500Y194614D01*
Y191000D01*
X197400Y188100D01*
Y136900D01*
X189780Y129280D01*
X181394D01*
X156000Y103886D01*
Y61000D01*
X154780Y59780D01*
X152720D01*
X151750Y60750D01*
G01X189074Y204071D02*
Y203812D01*
X193000Y199886D01*
Y197500D01*
X195480Y195020D01*
Y191406D01*
X198380Y188506D01*
Y136494D01*
X190186Y128300D01*
X181800D01*
X156980Y103480D01*
Y60594D01*
X155186Y58800D01*
X152300D01*
X151750Y58250D01*
G01X186515Y204071D02*
Y203486D01*
X187798Y202203D01*
Y200909D01*
X190000Y198707D01*
Y196000D01*
X192900Y193100D01*
Y184014D01*
X195700Y181214D01*
Y153700D01*
X193500Y151500D01*
Y145614D01*
X188480Y140594D01*
Y136480D01*
X183000Y131000D01*
X180499D01*
X146240Y96741D01*
Y79260D01*
X147000Y78500D01*
G01X356000Y112800D02*
X354480Y111280D01*
X353606D01*
X352880Y112006D01*
Y112651D01*
X353300Y113071D01*
Y113699D01*
X352880Y114119D01*
Y115380D01*
X353300Y115800D01*
Y116580D01*
X352880Y117000D01*
Y118500D01*
X353300Y118920D01*
Y119700D01*
X352880Y120120D01*
Y120994D01*
X353906Y122020D01*
X354480D01*
X356000Y120500D01*
G01Y110300D02*
X353200D01*
X351900Y111600D01*
Y121400D01*
X353500Y123000D01*
X356000D01*
G54D25*
X324421Y-7000D03*
X344500D03*
G54D16*
X18071Y12133D03*
X49961D03*
G54D35*
G01X-23969Y-192371D02*
X-23497Y-192764D01*
X-22966Y-193000D01*
X-22494D01*
X-22022Y-192764D01*
X-21668Y-192371D01*
X-21491Y-191820D01*
X-21609Y-191269D01*
X-21904Y-190797D01*
X-22435Y-190483D01*
X-23143Y-190325D01*
X-23556Y-190011D01*
X-23733Y-189460D01*
X-23615Y-188909D01*
X-23320Y-188516D01*
X-22907Y-188280D01*
X-22494D01*
X-22081Y-188437D01*
X-21727Y-188831D01*
G01X-19249Y-193000D02*
Y-188280D01*
G01X-16771D02*
Y-193000D01*
G01Y-190640D02*
X-19249D01*
G01X-12110Y-193000D02*
X-14470D01*
Y-188280D01*
X-12110D01*
G01X-13054Y-190561D02*
X-14470D01*
G01X-7390Y-193000D02*
X-9750D01*
Y-188280D01*
X-7390D01*
G01X-8334Y-190561D02*
X-9750D01*
G01X-3850Y-188280D02*
Y-193000D01*
G01X-5207Y-188280D02*
X-2493D01*
G01X-24205Y-132000D02*
X-22730Y-127280D01*
X-21255Y-132000D01*
G01X-21786Y-130348D02*
X-23674D01*
G01X-19308Y-127280D02*
Y-130663D01*
X-19072Y-131371D01*
X-18600Y-131843D01*
X-18010Y-132000D01*
X-17420Y-131843D01*
X-16948Y-131371D01*
X-16712Y-130663D01*
Y-127280D01*
G01X-14529Y-131371D02*
X-14057Y-131764D01*
X-13526Y-132000D01*
X-13054D01*
X-12582Y-131764D01*
X-12228Y-131371D01*
X-12051Y-130820D01*
X-12169Y-130269D01*
X-12464Y-129797D01*
X-12995Y-129483D01*
X-13703Y-129325D01*
X-14116Y-129011D01*
X-14293Y-128460D01*
X-14175Y-127909D01*
X-13880Y-127516D01*
X-13467Y-127280D01*
X-13054D01*
X-12641Y-127437D01*
X-12287Y-127831D01*
G01X-8570Y-127280D02*
Y-132000D01*
G01X-9927Y-127280D02*
X-7213D01*
G01X-4558D02*
X-3142D01*
G01X-3850D02*
Y-132000D01*
G01X-4558D02*
X-3142D01*
G01X-487D02*
Y-127280D01*
X2227Y-132000D01*
Y-127280D01*
G01X5590Y-132157D02*
X5472Y-132079D01*
Y-131921D01*
X5590Y-131843D01*
X5708Y-131921D01*
Y-132079D01*
X5590Y-132157D01*
G01X15030Y-127280D02*
Y-132000D01*
G01X13673Y-127280D02*
X16387D01*
G01X20930Y-132000D02*
X18570D01*
Y-127280D01*
X20930D01*
G01X19986Y-129561D02*
X18570D01*
G01X23231Y-132000D02*
X25709Y-127280D01*
G01X23231D02*
X25709Y-132000D01*
G01X27715D02*
X29190Y-127280D01*
X30665Y-132000D01*
G01X30134Y-130348D02*
X28246D01*
G01X32671Y-131371D02*
X33143Y-131764D01*
X33674Y-132000D01*
X34146D01*
X34618Y-131764D01*
X34972Y-131371D01*
X35149Y-130820D01*
X35031Y-130269D01*
X34736Y-129797D01*
X34205Y-129483D01*
X33497Y-129325D01*
X33084Y-129011D01*
X32907Y-128460D01*
X33025Y-127909D01*
X33320Y-127516D01*
X33733Y-127280D01*
X34146D01*
X34559Y-127437D01*
X34913Y-127831D01*
G01X43232Y-132000D02*
X43350Y-130977D01*
X43527Y-130112D01*
X43763Y-129325D01*
X44058Y-128460D01*
X44530Y-127280D01*
X42170D01*
G01X48070Y-132000D02*
X48483Y-131921D01*
X48955Y-131685D01*
X49250Y-131292D01*
X49368Y-130741D01*
X49250Y-130191D01*
X48896Y-129719D01*
X48365Y-129483D01*
X47775D01*
X47421Y-129325D01*
X47126Y-128932D01*
X47008Y-128381D01*
X47185Y-127831D01*
X47598Y-127437D01*
X48070Y-127280D01*
X48542Y-127437D01*
X48955Y-127831D01*
X49132Y-128381D01*
X49014Y-128932D01*
X48719Y-129325D01*
X48365Y-129483D01*
X47775D01*
X47244Y-129719D01*
X46890Y-130191D01*
X46772Y-130741D01*
X46890Y-131292D01*
X47185Y-131685D01*
X47657Y-131921D01*
X48070Y-132000D01*
G01X52672D02*
X52790Y-130977D01*
X52967Y-130112D01*
X53203Y-129325D01*
X53498Y-128460D01*
X53970Y-127280D01*
X51610D01*
G01X56212Y-131056D02*
X56566Y-131607D01*
X57038Y-131921D01*
X57569Y-132000D01*
X58041Y-131921D01*
X58513Y-131528D01*
X58808Y-131056D01*
X58867Y-130584D01*
X58749Y-130033D01*
X58336Y-129640D01*
X57923Y-129483D01*
X57392D01*
G01X57923D02*
X58277Y-129247D01*
X58572Y-128853D01*
X58690Y-128381D01*
X58572Y-127909D01*
X58277Y-127516D01*
X57746Y-127280D01*
X57215Y-127359D01*
X56684Y-127673D01*
G01X60932Y-131292D02*
X61286Y-131685D01*
X61699Y-131921D01*
X62230Y-132000D01*
X62761Y-131843D01*
X63174Y-131528D01*
X63469Y-130977D01*
X63528Y-130348D01*
X63410Y-129719D01*
X63115Y-129325D01*
X62702Y-129011D01*
X62289Y-128932D01*
X61876Y-129011D01*
X61345Y-129325D01*
X61522Y-127280D01*
X63115D01*
G01X70372D02*
Y-130663D01*
X70608Y-131371D01*
X71080Y-131843D01*
X71670Y-132000D01*
X72260Y-131843D01*
X72732Y-131371D01*
X72968Y-130663D01*
Y-127280D01*
G01X75151Y-131371D02*
X75623Y-131764D01*
X76154Y-132000D01*
X76626D01*
X77098Y-131764D01*
X77452Y-131371D01*
X77629Y-130820D01*
X77511Y-130269D01*
X77216Y-129797D01*
X76685Y-129483D01*
X75977Y-129325D01*
X75564Y-129011D01*
X75387Y-128460D01*
X75505Y-127909D01*
X75800Y-127516D01*
X76213Y-127280D01*
X76626D01*
X77039Y-127437D01*
X77393Y-127831D01*
G01X79635Y-132000D02*
X81110Y-127280D01*
X82585Y-132000D01*
G01X82054Y-130348D02*
X80166D01*
G01X-23851Y-123033D02*
X-23438Y-122483D01*
X-23084Y-122168D01*
X-22612Y-122011D01*
X-22199Y-122168D01*
X-21904Y-122483D01*
X-21668Y-122955D01*
X-21609Y-123505D01*
X-21668Y-123977D01*
X-21904Y-124449D01*
X-22258Y-124843D01*
X-22671Y-125000D01*
X-23143Y-124843D01*
X-23556Y-124371D01*
X-23792Y-123663D01*
X-23851Y-122876D01*
X-23733Y-121853D01*
X-23556Y-121303D01*
X-23261Y-120752D01*
X-22848Y-120359D01*
X-22435Y-120280D01*
X-22022Y-120437D01*
X-21727Y-120831D01*
G01X-19308Y-124292D02*
X-18954Y-124685D01*
X-18541Y-124921D01*
X-18010Y-125000D01*
X-17479Y-124843D01*
X-17066Y-124528D01*
X-16771Y-123977D01*
X-16712Y-123348D01*
X-16830Y-122719D01*
X-17125Y-122325D01*
X-17538Y-122011D01*
X-17951Y-121932D01*
X-18364Y-122011D01*
X-18895Y-122325D01*
X-18718Y-120280D01*
X-17125D01*
G01X-13290D02*
X-13762Y-120437D01*
X-14116Y-120831D01*
X-14352Y-121303D01*
X-14529Y-121932D01*
X-14588Y-122640D01*
X-14529Y-123348D01*
X-14352Y-123977D01*
X-14116Y-124449D01*
X-13762Y-124843D01*
X-13290Y-125000D01*
X-12818Y-124843D01*
X-12464Y-124449D01*
X-12228Y-123977D01*
X-12051Y-123348D01*
X-11992Y-122640D01*
X-12051Y-121932D01*
X-12228Y-121303D01*
X-12464Y-120831D01*
X-12818Y-120437D01*
X-13290Y-120280D01*
G01X-8570Y-125000D02*
Y-120280D01*
X-9278Y-121224D01*
G01Y-125000D02*
X-7862D01*
G01X-900Y-120280D02*
X-74Y-125000D01*
X870Y-120280D01*
X1814Y-125000D01*
X2640Y-120280D01*
G01X4882D02*
X6298D01*
G01X5590D02*
Y-125000D01*
G01X4882D02*
X6298D01*
G01X9130Y-120280D02*
Y-125000D01*
X11490D01*
G01X13850Y-120280D02*
Y-125000D01*
X16210D01*
G01X19042Y-120280D02*
X20458D01*
G01X19750D02*
Y-125000D01*
G01X19042D02*
X20458D01*
G01X22995D02*
X24470Y-120280D01*
X25945Y-125000D01*
G01X25414Y-123348D02*
X23526D01*
G01X27656Y-125000D02*
Y-120280D01*
X29190Y-124213D01*
X30724Y-120280D01*
Y-125000D01*
G01X39928Y-120673D02*
X39574Y-120437D01*
X39161Y-120280D01*
X38689D01*
X38158Y-120516D01*
X37745Y-120909D01*
X37450Y-121381D01*
X37214Y-122168D01*
X37155Y-122876D01*
X37273Y-123584D01*
X37450Y-124056D01*
X37804Y-124528D01*
X38217Y-124843D01*
X38630Y-125000D01*
X39043D01*
X39456Y-124843D01*
X39810Y-124607D01*
X40105Y-124292D01*
G01X41875Y-125000D02*
X43350Y-120280D01*
X44825Y-125000D01*
G01X44294Y-123348D02*
X42406D01*
G01X46713Y-125000D02*
Y-120280D01*
X49427Y-125000D01*
Y-120280D01*
G01X51433Y-125000D02*
Y-120280D01*
X54147Y-125000D01*
Y-120280D01*
G01X57510Y-125000D02*
X57038Y-124921D01*
X56625Y-124607D01*
X56271Y-124135D01*
X56035Y-123584D01*
X55917Y-122955D01*
Y-122325D01*
X56035Y-121696D01*
X56271Y-121145D01*
X56625Y-120673D01*
X57038Y-120359D01*
X57510Y-120280D01*
X57982Y-120359D01*
X58395Y-120673D01*
X58749Y-121145D01*
X58985Y-121696D01*
X59103Y-122325D01*
Y-122955D01*
X58985Y-123584D01*
X58749Y-124135D01*
X58395Y-124607D01*
X57982Y-124921D01*
X57510Y-125000D01*
G01X60873D02*
Y-120280D01*
X63587Y-125000D01*
Y-120280D01*
G01X70372Y-125000D02*
Y-120280D01*
X71552D01*
X72024Y-120516D01*
X72378Y-120831D01*
X72673Y-121303D01*
X72909Y-121853D01*
X72968Y-122640D01*
X72909Y-123427D01*
X72673Y-123977D01*
X72378Y-124449D01*
X72024Y-124764D01*
X71552Y-125000D01*
X70372D01*
G01X75210D02*
Y-120280D01*
X76685D01*
X77157Y-120516D01*
X77452Y-120831D01*
X77570Y-121460D01*
X77452Y-122089D01*
X77098Y-122483D01*
X76685Y-122719D01*
X75210D01*
G01X76685D02*
X77570Y-125000D01*
G01X80402Y-120280D02*
X81818D01*
G01X81110D02*
Y-125000D01*
G01X80402D02*
X81818D01*
G01X84355Y-120280D02*
X85830Y-125000D01*
X87305Y-120280D01*
G01X91730Y-125000D02*
X89370D01*
Y-120280D01*
X91730D01*
G01X90786Y-122561D02*
X89370D01*
G01X98220Y-120280D02*
X99046Y-125000D01*
X99990Y-120280D01*
X100934Y-125000D01*
X101760Y-120280D01*
G01X105890Y-125000D02*
X103530D01*
Y-120280D01*
X105890D01*
G01X104946Y-122561D02*
X103530D01*
G01X108191Y-124371D02*
X108663Y-124764D01*
X109194Y-125000D01*
X109666D01*
X110138Y-124764D01*
X110492Y-124371D01*
X110669Y-123820D01*
X110551Y-123269D01*
X110256Y-122797D01*
X109725Y-122483D01*
X109017Y-122325D01*
X108604Y-122011D01*
X108427Y-121460D01*
X108545Y-120909D01*
X108840Y-120516D01*
X109253Y-120280D01*
X109666D01*
X110079Y-120437D01*
X110433Y-120831D01*
G01X114150Y-120280D02*
Y-125000D01*
G01X112793Y-120280D02*
X115507D01*
G01X-16087Y-182000D02*
Y-177280D01*
X-13373Y-182000D01*
Y-177280D01*
G01X-11249Y-182000D02*
X-8771Y-177280D01*
G01X-11249D02*
X-8771Y-182000D01*
G01X-6470D02*
Y-177280D01*
X-5054D01*
X-4582Y-177516D01*
X-4228Y-178067D01*
X-4110Y-178696D01*
X-4228Y-179325D01*
X-4523Y-179797D01*
X-5054Y-180033D01*
X-6470D01*
G01X-570Y-182157D02*
X-688Y-182079D01*
Y-181921D01*
X-570Y-181843D01*
X-452Y-181921D01*
Y-182079D01*
X-570Y-182157D01*
G01X-15730Y-174000D02*
X-16202Y-173921D01*
X-16615Y-173607D01*
X-16969Y-173135D01*
X-17205Y-172584D01*
X-17323Y-171955D01*
Y-171325D01*
X-17205Y-170696D01*
X-16969Y-170145D01*
X-16615Y-169673D01*
X-16202Y-169359D01*
X-15730Y-169280D01*
X-15258Y-169359D01*
X-14845Y-169673D01*
X-14491Y-170145D01*
X-14255Y-170696D01*
X-14137Y-171325D01*
Y-171955D01*
X-14255Y-172584D01*
X-14491Y-173135D01*
X-14845Y-173607D01*
X-15258Y-173921D01*
X-15730Y-174000D01*
G01X-12190D02*
Y-169280D01*
X-10715D01*
X-10243Y-169516D01*
X-9948Y-169831D01*
X-9830Y-170460D01*
X-9948Y-171089D01*
X-10302Y-171483D01*
X-10715Y-171719D01*
X-12190D01*
G01X-10715D02*
X-9830Y-174000D01*
G01X-2278Y-169280D02*
X-862D01*
G01X-1570D02*
Y-174000D01*
G01X-2278D02*
X-862D01*
G01X1793D02*
Y-169280D01*
X4507Y-174000D01*
Y-169280D01*
G01X11410Y-174000D02*
Y-169280D01*
X12826D01*
X13298Y-169516D01*
X13652Y-170067D01*
X13770Y-170696D01*
X13652Y-171325D01*
X13357Y-171797D01*
X12826Y-172033D01*
X11410D01*
G01X15835Y-174000D02*
X17310Y-169280D01*
X18785Y-174000D01*
G01X18254Y-172348D02*
X16366D01*
G01X20850Y-174000D02*
Y-169280D01*
X22325D01*
X22797Y-169516D01*
X23092Y-169831D01*
X23210Y-170460D01*
X23092Y-171089D01*
X22738Y-171483D01*
X22325Y-171719D01*
X20850D01*
G01X22325D02*
X23210Y-174000D01*
G01X26750Y-169280D02*
Y-174000D01*
G01X25393Y-169280D02*
X28107D01*
G01X34420D02*
X35246Y-174000D01*
X36190Y-169280D01*
X37134Y-174000D01*
X37960Y-169280D01*
G01X40202D02*
X41618D01*
G01X40910D02*
Y-174000D01*
G01X40202D02*
X41618D01*
G01X45630Y-169280D02*
Y-174000D01*
G01X44273Y-169280D02*
X46987D01*
G01X49111Y-174000D02*
Y-169280D01*
G01X51589D02*
Y-174000D01*
G01Y-171640D02*
X49111D01*
G01X55070Y-174000D02*
X54598Y-173921D01*
X54185Y-173607D01*
X53831Y-173135D01*
X53595Y-172584D01*
X53477Y-171955D01*
Y-171325D01*
X53595Y-170696D01*
X53831Y-170145D01*
X54185Y-169673D01*
X54598Y-169359D01*
X55070Y-169280D01*
X55542Y-169359D01*
X55955Y-169673D01*
X56309Y-170145D01*
X56545Y-170696D01*
X56663Y-171325D01*
Y-171955D01*
X56545Y-172584D01*
X56309Y-173135D01*
X55955Y-173607D01*
X55542Y-173921D01*
X55070Y-174000D01*
G01X58492Y-169280D02*
Y-172663D01*
X58728Y-173371D01*
X59200Y-173843D01*
X59790Y-174000D01*
X60380Y-173843D01*
X60852Y-173371D01*
X61088Y-172663D01*
Y-169280D01*
G01X64510D02*
Y-174000D01*
G01X63153Y-169280D02*
X65867D01*
G01X73950D02*
Y-174000D01*
G01X72593Y-169280D02*
X75307D01*
G01X77431Y-174000D02*
Y-169280D01*
G01X79909D02*
Y-174000D01*
G01Y-171640D02*
X77431D01*
G01X84570Y-174000D02*
X82210D01*
Y-169280D01*
X84570D01*
G01X83626Y-171561D02*
X82210D01*
G01X94128Y-169673D02*
X93774Y-169437D01*
X93361Y-169280D01*
X92889D01*
X92358Y-169516D01*
X91945Y-169909D01*
X91650Y-170381D01*
X91414Y-171168D01*
X91355Y-171876D01*
X91473Y-172584D01*
X91650Y-173056D01*
X92004Y-173528D01*
X92417Y-173843D01*
X92830Y-174000D01*
X93243D01*
X93656Y-173843D01*
X94010Y-173607D01*
X94305Y-173292D01*
G01X97550Y-174000D02*
X97078Y-173921D01*
X96665Y-173607D01*
X96311Y-173135D01*
X96075Y-172584D01*
X95957Y-171955D01*
Y-171325D01*
X96075Y-170696D01*
X96311Y-170145D01*
X96665Y-169673D01*
X97078Y-169359D01*
X97550Y-169280D01*
X98022Y-169359D01*
X98435Y-169673D01*
X98789Y-170145D01*
X99025Y-170696D01*
X99143Y-171325D01*
Y-171955D01*
X99025Y-172584D01*
X98789Y-173135D01*
X98435Y-173607D01*
X98022Y-173921D01*
X97550Y-174000D01*
G01X100913D02*
Y-169280D01*
X103627Y-174000D01*
Y-169280D01*
G01X105751Y-173371D02*
X106223Y-173764D01*
X106754Y-174000D01*
X107226D01*
X107698Y-173764D01*
X108052Y-173371D01*
X108229Y-172820D01*
X108111Y-172269D01*
X107816Y-171797D01*
X107285Y-171483D01*
X106577Y-171325D01*
X106164Y-171011D01*
X105987Y-170460D01*
X106105Y-169909D01*
X106400Y-169516D01*
X106813Y-169280D01*
X107226D01*
X107639Y-169437D01*
X107993Y-169831D01*
G01X112890Y-174000D02*
X110530D01*
Y-169280D01*
X112890D01*
G01X111946Y-171561D02*
X110530D01*
G01X115073Y-174000D02*
Y-169280D01*
X117787Y-174000D01*
Y-169280D01*
G01X121150D02*
Y-174000D01*
G01X119793Y-169280D02*
X122507D01*
G01X130590Y-174000D02*
X130118Y-173921D01*
X129705Y-173607D01*
X129351Y-173135D01*
X129115Y-172584D01*
X128997Y-171955D01*
Y-171325D01*
X129115Y-170696D01*
X129351Y-170145D01*
X129705Y-169673D01*
X130118Y-169359D01*
X130590Y-169280D01*
X131062Y-169359D01*
X131475Y-169673D01*
X131829Y-170145D01*
X132065Y-170696D01*
X132183Y-171325D01*
Y-171955D01*
X132065Y-172584D01*
X131829Y-173135D01*
X131475Y-173607D01*
X131062Y-173921D01*
X130590Y-174000D01*
G01X134189D02*
Y-169280D01*
X136431D01*
G01X135605Y-171561D02*
X134189D01*
G01X-16910Y-166000D02*
Y-161280D01*
X-15494D01*
X-15022Y-161516D01*
X-14668Y-162067D01*
X-14550Y-162696D01*
X-14668Y-163325D01*
X-14963Y-163797D01*
X-15494Y-164033D01*
X-16910D01*
G01X-12190Y-166000D02*
Y-161280D01*
X-10715D01*
X-10243Y-161516D01*
X-9948Y-161831D01*
X-9830Y-162460D01*
X-9948Y-163089D01*
X-10302Y-163483D01*
X-10715Y-163719D01*
X-12190D01*
G01X-10715D02*
X-9830Y-166000D01*
G01X-6290D02*
X-6762Y-165921D01*
X-7175Y-165607D01*
X-7529Y-165135D01*
X-7765Y-164584D01*
X-7883Y-163955D01*
Y-163325D01*
X-7765Y-162696D01*
X-7529Y-162145D01*
X-7175Y-161673D01*
X-6762Y-161359D01*
X-6290Y-161280D01*
X-5818Y-161359D01*
X-5405Y-161673D01*
X-5051Y-162145D01*
X-4815Y-162696D01*
X-4697Y-163325D01*
Y-163955D01*
X-4815Y-164584D01*
X-5051Y-165135D01*
X-5405Y-165607D01*
X-5818Y-165921D01*
X-6290Y-166000D01*
G01X-272Y-161673D02*
X-626Y-161437D01*
X-1039Y-161280D01*
X-1511D01*
X-2042Y-161516D01*
X-2455Y-161909D01*
X-2750Y-162381D01*
X-2986Y-163168D01*
X-3045Y-163876D01*
X-2927Y-164584D01*
X-2750Y-165056D01*
X-2396Y-165528D01*
X-1983Y-165843D01*
X-1570Y-166000D01*
X-1157D01*
X-744Y-165843D01*
X-390Y-165607D01*
X-95Y-165292D01*
G01X1852Y-161280D02*
Y-164663D01*
X2088Y-165371D01*
X2560Y-165843D01*
X3150Y-166000D01*
X3740Y-165843D01*
X4212Y-165371D01*
X4448Y-164663D01*
Y-161280D01*
G01X6690Y-166000D02*
Y-161280D01*
X8165D01*
X8637Y-161516D01*
X8932Y-161831D01*
X9050Y-162460D01*
X8932Y-163089D01*
X8578Y-163483D01*
X8165Y-163719D01*
X6690D01*
G01X8165D02*
X9050Y-166000D01*
G01X13770D02*
X11410D01*
Y-161280D01*
X13770D01*
G01X12826Y-163561D02*
X11410D01*
G01X15776Y-166000D02*
Y-161280D01*
X17310Y-165213D01*
X18844Y-161280D01*
Y-166000D01*
G01X23210D02*
X20850D01*
Y-161280D01*
X23210D01*
G01X22266Y-163561D02*
X20850D01*
G01X25393Y-166000D02*
Y-161280D01*
X28107Y-166000D01*
Y-161280D01*
G01X31470D02*
Y-166000D01*
G01X30113Y-161280D02*
X32827D01*
G01X40910Y-166000D02*
X40438Y-165921D01*
X40025Y-165607D01*
X39671Y-165135D01*
X39435Y-164584D01*
X39317Y-163955D01*
Y-163325D01*
X39435Y-162696D01*
X39671Y-162145D01*
X40025Y-161673D01*
X40438Y-161359D01*
X40910Y-161280D01*
X41382Y-161359D01*
X41795Y-161673D01*
X42149Y-162145D01*
X42385Y-162696D01*
X42503Y-163325D01*
Y-163955D01*
X42385Y-164584D01*
X42149Y-165135D01*
X41795Y-165607D01*
X41382Y-165921D01*
X40910Y-166000D01*
G01X44450D02*
Y-161280D01*
X45925D01*
X46397Y-161516D01*
X46692Y-161831D01*
X46810Y-162460D01*
X46692Y-163089D01*
X46338Y-163483D01*
X45925Y-163719D01*
X44450D01*
G01X45925D02*
X46810Y-166000D01*
G01X53536D02*
Y-161280D01*
X55070Y-165213D01*
X56604Y-161280D01*
Y-166000D01*
G01X58315D02*
X59790Y-161280D01*
X61265Y-166000D01*
G01X60734Y-164348D02*
X58846D01*
G01X63153Y-166000D02*
Y-161280D01*
X65867Y-166000D01*
Y-161280D01*
G01X67932D02*
Y-164663D01*
X68168Y-165371D01*
X68640Y-165843D01*
X69230Y-166000D01*
X69820Y-165843D01*
X70292Y-165371D01*
X70528Y-164663D01*
Y-161280D01*
G01X72829Y-166000D02*
Y-161280D01*
X75071D01*
G01X74245Y-163561D02*
X72829D01*
G01X77195Y-166000D02*
X78670Y-161280D01*
X80145Y-166000D01*
G01X79614Y-164348D02*
X77726D01*
G01X84688Y-161673D02*
X84334Y-161437D01*
X83921Y-161280D01*
X83449D01*
X82918Y-161516D01*
X82505Y-161909D01*
X82210Y-162381D01*
X81974Y-163168D01*
X81915Y-163876D01*
X82033Y-164584D01*
X82210Y-165056D01*
X82564Y-165528D01*
X82977Y-165843D01*
X83390Y-166000D01*
X83803D01*
X84216Y-165843D01*
X84570Y-165607D01*
X84865Y-165292D01*
G01X88110Y-161280D02*
Y-166000D01*
G01X86753Y-161280D02*
X89467D01*
G01X91532D02*
Y-164663D01*
X91768Y-165371D01*
X92240Y-165843D01*
X92830Y-166000D01*
X93420Y-165843D01*
X93892Y-165371D01*
X94128Y-164663D01*
Y-161280D01*
G01X96370Y-166000D02*
Y-161280D01*
X97845D01*
X98317Y-161516D01*
X98612Y-161831D01*
X98730Y-162460D01*
X98612Y-163089D01*
X98258Y-163483D01*
X97845Y-163719D01*
X96370D01*
G01X97845D02*
X98730Y-166000D01*
G01X103450D02*
X101090D01*
Y-161280D01*
X103450D01*
G01X102506Y-163561D02*
X101090D01*
G01X111002Y-161280D02*
X112418D01*
G01X111710D02*
Y-166000D01*
G01X111002D02*
X112418D01*
G01X115073D02*
Y-161280D01*
X117787Y-166000D01*
Y-161280D01*
G01X124100D02*
X124926Y-166000D01*
X125870Y-161280D01*
X126814Y-166000D01*
X127640Y-161280D01*
G01X129351Y-166000D02*
Y-161280D01*
G01X131829D02*
Y-166000D01*
G01Y-163640D02*
X129351D01*
G01X135310Y-166000D02*
X134838Y-165921D01*
X134425Y-165607D01*
X134071Y-165135D01*
X133835Y-164584D01*
X133717Y-163955D01*
Y-163325D01*
X133835Y-162696D01*
X134071Y-162145D01*
X134425Y-161673D01*
X134838Y-161359D01*
X135310Y-161280D01*
X135782Y-161359D01*
X136195Y-161673D01*
X136549Y-162145D01*
X136785Y-162696D01*
X136903Y-163325D01*
Y-163955D01*
X136785Y-164584D01*
X136549Y-165135D01*
X136195Y-165607D01*
X135782Y-165921D01*
X135310Y-166000D01*
G01X138850Y-161280D02*
Y-166000D01*
X141210D01*
G01X145930D02*
X143570D01*
Y-161280D01*
X145930D01*
G01X144986Y-163561D02*
X143570D01*
G01X-17087Y-158000D02*
Y-153280D01*
X-14373Y-158000D01*
Y-153280D01*
G01X-11010Y-158000D02*
X-11482Y-157921D01*
X-11895Y-157607D01*
X-12249Y-157135D01*
X-12485Y-156584D01*
X-12603Y-155955D01*
Y-155325D01*
X-12485Y-154696D01*
X-12249Y-154145D01*
X-11895Y-153673D01*
X-11482Y-153359D01*
X-11010Y-153280D01*
X-10538Y-153359D01*
X-10125Y-153673D01*
X-9771Y-154145D01*
X-9535Y-154696D01*
X-9417Y-155325D01*
Y-155955D01*
X-9535Y-156584D01*
X-9771Y-157135D01*
X-10125Y-157607D01*
X-10538Y-157921D01*
X-11010Y-158000D01*
G01X-6290Y-153280D02*
Y-158000D01*
G01X-7647Y-153280D02*
X-4933D01*
G01X3622Y-155483D02*
X3858Y-155247D01*
X4035Y-154853D01*
X4153Y-154303D01*
X4035Y-153831D01*
X3799Y-153516D01*
X3386Y-153280D01*
X1793D01*
Y-158000D01*
X3740D01*
X4153Y-157685D01*
X4389Y-157213D01*
X4507Y-156663D01*
X4389Y-156112D01*
X4035Y-155640D01*
X3622Y-155483D01*
X1793D01*
G01X9050Y-158000D02*
X6690D01*
Y-153280D01*
X9050D01*
G01X8106Y-155561D02*
X6690D01*
G01X16012Y-153280D02*
Y-156663D01*
X16248Y-157371D01*
X16720Y-157843D01*
X17310Y-158000D01*
X17900Y-157843D01*
X18372Y-157371D01*
X18608Y-156663D01*
Y-153280D01*
G01X20791Y-157371D02*
X21263Y-157764D01*
X21794Y-158000D01*
X22266D01*
X22738Y-157764D01*
X23092Y-157371D01*
X23269Y-156820D01*
X23151Y-156269D01*
X22856Y-155797D01*
X22325Y-155483D01*
X21617Y-155325D01*
X21204Y-155011D01*
X21027Y-154460D01*
X21145Y-153909D01*
X21440Y-153516D01*
X21853Y-153280D01*
X22266D01*
X22679Y-153437D01*
X23033Y-153831D01*
G01X27930Y-158000D02*
X25570D01*
Y-153280D01*
X27930D01*
G01X26986Y-155561D02*
X25570D01*
G01X30172Y-158000D02*
Y-153280D01*
X31352D01*
X31824Y-153516D01*
X32178Y-153831D01*
X32473Y-154303D01*
X32709Y-154853D01*
X32768Y-155640D01*
X32709Y-156427D01*
X32473Y-156977D01*
X32178Y-157449D01*
X31824Y-157764D01*
X31352Y-158000D01*
X30172D01*
G01X39789D02*
Y-153280D01*
X42031D01*
G01X41205Y-155561D02*
X39789D01*
G01X45630Y-158000D02*
X45158Y-157921D01*
X44745Y-157607D01*
X44391Y-157135D01*
X44155Y-156584D01*
X44037Y-155955D01*
Y-155325D01*
X44155Y-154696D01*
X44391Y-154145D01*
X44745Y-153673D01*
X45158Y-153359D01*
X45630Y-153280D01*
X46102Y-153359D01*
X46515Y-153673D01*
X46869Y-154145D01*
X47105Y-154696D01*
X47223Y-155325D01*
Y-155955D01*
X47105Y-156584D01*
X46869Y-157135D01*
X46515Y-157607D01*
X46102Y-157921D01*
X45630Y-158000D01*
G01X49170D02*
Y-153280D01*
X50645D01*
X51117Y-153516D01*
X51412Y-153831D01*
X51530Y-154460D01*
X51412Y-155089D01*
X51058Y-155483D01*
X50645Y-155719D01*
X49170D01*
G01X50645D02*
X51530Y-158000D01*
G01X60970D02*
X58610D01*
Y-153280D01*
X60970D01*
G01X60026Y-155561D02*
X58610D01*
G01X63153Y-158000D02*
Y-153280D01*
X65867Y-158000D01*
Y-153280D01*
G01X69584Y-155640D02*
X70764D01*
Y-157056D01*
X70410Y-157528D01*
X69997Y-157843D01*
X69407Y-158000D01*
X68817Y-157843D01*
X68404Y-157528D01*
X68050Y-157056D01*
X67814Y-156505D01*
X67696Y-155876D01*
Y-155325D01*
X67814Y-154853D01*
X68050Y-154303D01*
X68404Y-153831D01*
X68758Y-153516D01*
X69230Y-153280D01*
X69643D01*
X70115Y-153437D01*
X70469Y-153752D01*
G01X73242Y-153280D02*
X74658D01*
G01X73950D02*
Y-158000D01*
G01X73242D02*
X74658D01*
G01X77313D02*
Y-153280D01*
X80027Y-158000D01*
Y-153280D01*
G01X84570Y-158000D02*
X82210D01*
Y-153280D01*
X84570D01*
G01X83626Y-155561D02*
X82210D01*
G01X89290Y-158000D02*
X86930D01*
Y-153280D01*
X89290D01*
G01X88346Y-155561D02*
X86930D01*
G01X91650Y-158000D02*
Y-153280D01*
X93125D01*
X93597Y-153516D01*
X93892Y-153831D01*
X94010Y-154460D01*
X93892Y-155089D01*
X93538Y-155483D01*
X93125Y-155719D01*
X91650D01*
G01X93125D02*
X94010Y-158000D01*
G01X96842Y-153280D02*
X98258D01*
G01X97550D02*
Y-158000D01*
G01X96842D02*
X98258D01*
G01X100913D02*
Y-153280D01*
X103627Y-158000D01*
Y-153280D01*
G01X107344Y-155640D02*
X108524D01*
Y-157056D01*
X108170Y-157528D01*
X107757Y-157843D01*
X107167Y-158000D01*
X106577Y-157843D01*
X106164Y-157528D01*
X105810Y-157056D01*
X105574Y-156505D01*
X105456Y-155876D01*
Y-155325D01*
X105574Y-154853D01*
X105810Y-154303D01*
X106164Y-153831D01*
X106518Y-153516D01*
X106990Y-153280D01*
X107403D01*
X107875Y-153437D01*
X108229Y-153752D01*
G01X115132Y-158000D02*
Y-153280D01*
X116312D01*
X116784Y-153516D01*
X117138Y-153831D01*
X117433Y-154303D01*
X117669Y-154853D01*
X117728Y-155640D01*
X117669Y-156427D01*
X117433Y-156977D01*
X117138Y-157449D01*
X116784Y-157764D01*
X116312Y-158000D01*
X115132D01*
G01X122330D02*
X119970D01*
Y-153280D01*
X122330D01*
G01X121386Y-155561D02*
X119970D01*
G01X124631Y-157371D02*
X125103Y-157764D01*
X125634Y-158000D01*
X126106D01*
X126578Y-157764D01*
X126932Y-157371D01*
X127109Y-156820D01*
X126991Y-156269D01*
X126696Y-155797D01*
X126165Y-155483D01*
X125457Y-155325D01*
X125044Y-155011D01*
X124867Y-154460D01*
X124985Y-153909D01*
X125280Y-153516D01*
X125693Y-153280D01*
X126106D01*
X126519Y-153437D01*
X126873Y-153831D01*
G01X129882Y-153280D02*
X131298D01*
G01X130590D02*
Y-158000D01*
G01X129882D02*
X131298D01*
G01X135664Y-155640D02*
X136844D01*
Y-157056D01*
X136490Y-157528D01*
X136077Y-157843D01*
X135487Y-158000D01*
X134897Y-157843D01*
X134484Y-157528D01*
X134130Y-157056D01*
X133894Y-156505D01*
X133776Y-155876D01*
Y-155325D01*
X133894Y-154853D01*
X134130Y-154303D01*
X134484Y-153831D01*
X134838Y-153516D01*
X135310Y-153280D01*
X135723D01*
X136195Y-153437D01*
X136549Y-153752D01*
G01X138673Y-158000D02*
Y-153280D01*
X141387Y-158000D01*
Y-153280D01*
G01X-16910Y-150000D02*
Y-145280D01*
X-15494D01*
X-15022Y-145516D01*
X-14668Y-146067D01*
X-14550Y-146696D01*
X-14668Y-147325D01*
X-14963Y-147797D01*
X-15494Y-148033D01*
X-16910D01*
G01X-12190Y-150000D02*
Y-145280D01*
X-10715D01*
X-10243Y-145516D01*
X-9948Y-145831D01*
X-9830Y-146460D01*
X-9948Y-147089D01*
X-10302Y-147483D01*
X-10715Y-147719D01*
X-12190D01*
G01X-10715D02*
X-9830Y-150000D01*
G01X-6290D02*
X-6762Y-149921D01*
X-7175Y-149607D01*
X-7529Y-149135D01*
X-7765Y-148584D01*
X-7883Y-147955D01*
Y-147325D01*
X-7765Y-146696D01*
X-7529Y-146145D01*
X-7175Y-145673D01*
X-6762Y-145359D01*
X-6290Y-145280D01*
X-5818Y-145359D01*
X-5405Y-145673D01*
X-5051Y-146145D01*
X-4815Y-146696D01*
X-4697Y-147325D01*
Y-147955D01*
X-4815Y-148584D01*
X-5051Y-149135D01*
X-5405Y-149607D01*
X-5818Y-149921D01*
X-6290Y-150000D01*
G01X-2750D02*
Y-145280D01*
X-1334D01*
X-862Y-145516D01*
X-508Y-146067D01*
X-390Y-146696D01*
X-508Y-147325D01*
X-803Y-147797D01*
X-1334Y-148033D01*
X-2750D01*
G01X1970Y-150000D02*
Y-145280D01*
X3445D01*
X3917Y-145516D01*
X4212Y-145831D01*
X4330Y-146460D01*
X4212Y-147089D01*
X3858Y-147483D01*
X3445Y-147719D01*
X1970D01*
G01X3445D02*
X4330Y-150000D01*
G01X7162Y-145280D02*
X8578D01*
G01X7870D02*
Y-150000D01*
G01X7162D02*
X8578D01*
G01X13770D02*
X11410D01*
Y-145280D01*
X13770D01*
G01X12826Y-147561D02*
X11410D01*
G01X17310Y-145280D02*
Y-150000D01*
G01X15953Y-145280D02*
X18667D01*
G01X20555Y-150000D02*
X22030Y-145280D01*
X23505Y-150000D01*
G01X22974Y-148348D02*
X21086D01*
G01X25570Y-150000D02*
Y-145280D01*
X27045D01*
X27517Y-145516D01*
X27812Y-145831D01*
X27930Y-146460D01*
X27812Y-147089D01*
X27458Y-147483D01*
X27045Y-147719D01*
X25570D01*
G01X27045D02*
X27930Y-150000D01*
G01X31470D02*
Y-147876D01*
X30290Y-145280D01*
G01X32650D02*
X31470Y-147876D01*
G01X40910Y-145280D02*
Y-150000D01*
G01X39553Y-145280D02*
X42267D01*
G01X45630Y-150000D02*
X45158Y-149921D01*
X44745Y-149607D01*
X44391Y-149135D01*
X44155Y-148584D01*
X44037Y-147955D01*
Y-147325D01*
X44155Y-146696D01*
X44391Y-146145D01*
X44745Y-145673D01*
X45158Y-145359D01*
X45630Y-145280D01*
X46102Y-145359D01*
X46515Y-145673D01*
X46869Y-146145D01*
X47105Y-146696D01*
X47223Y-147325D01*
Y-147955D01*
X47105Y-148584D01*
X46869Y-149135D01*
X46515Y-149607D01*
X46102Y-149921D01*
X45630Y-150000D01*
G01X53713D02*
Y-145280D01*
X56427Y-150000D01*
Y-145280D01*
G01X58551Y-150000D02*
X61029Y-145280D01*
G01X58551D02*
X61029Y-150000D01*
G01X63330D02*
Y-145280D01*
X64746D01*
X65218Y-145516D01*
X65572Y-146067D01*
X65690Y-146696D01*
X65572Y-147325D01*
X65277Y-147797D01*
X64746Y-148033D01*
X63330D01*
G01X72475Y-150000D02*
X73950Y-145280D01*
X75425Y-150000D01*
G01X74894Y-148348D02*
X73006D01*
G01X77313Y-150000D02*
Y-145280D01*
X80027Y-150000D01*
Y-145280D01*
G01X82092Y-150000D02*
Y-145280D01*
X83272D01*
X83744Y-145516D01*
X84098Y-145831D01*
X84393Y-146303D01*
X84629Y-146853D01*
X84688Y-147640D01*
X84629Y-148427D01*
X84393Y-148977D01*
X84098Y-149449D01*
X83744Y-149764D01*
X83272Y-150000D01*
X82092D01*
G01X91591Y-149371D02*
X92063Y-149764D01*
X92594Y-150000D01*
X93066D01*
X93538Y-149764D01*
X93892Y-149371D01*
X94069Y-148820D01*
X93951Y-148269D01*
X93656Y-147797D01*
X93125Y-147483D01*
X92417Y-147325D01*
X92004Y-147011D01*
X91827Y-146460D01*
X91945Y-145909D01*
X92240Y-145516D01*
X92653Y-145280D01*
X93066D01*
X93479Y-145437D01*
X93833Y-145831D01*
G01X96311Y-150000D02*
Y-145280D01*
G01X98789D02*
Y-150000D01*
G01Y-147640D02*
X96311D01*
G01X100795Y-150000D02*
X102270Y-145280D01*
X103745Y-150000D01*
G01X103214Y-148348D02*
X101326D01*
G01X105810Y-145280D02*
Y-150000D01*
X108170D01*
G01X110530Y-145280D02*
Y-150000D01*
X112890D01*
G01X-16730Y-137280D02*
Y-142000D01*
G01X-18087Y-137280D02*
X-15373D01*
G01X-13249Y-142000D02*
Y-137280D01*
G01X-10771D02*
Y-142000D01*
G01Y-139640D02*
X-13249D01*
G01X-7998Y-137280D02*
X-6582D01*
G01X-7290D02*
Y-142000D01*
G01X-7998D02*
X-6582D01*
G01X-3809Y-141371D02*
X-3337Y-141764D01*
X-2806Y-142000D01*
X-2334D01*
X-1862Y-141764D01*
X-1508Y-141371D01*
X-1331Y-140820D01*
X-1449Y-140269D01*
X-1744Y-139797D01*
X-2275Y-139483D01*
X-2983Y-139325D01*
X-3396Y-139011D01*
X-3573Y-138460D01*
X-3455Y-137909D01*
X-3160Y-137516D01*
X-2747Y-137280D01*
X-2334D01*
X-1921Y-137437D01*
X-1567Y-137831D01*
G01X5572Y-142000D02*
Y-137280D01*
X6752D01*
X7224Y-137516D01*
X7578Y-137831D01*
X7873Y-138303D01*
X8109Y-138853D01*
X8168Y-139640D01*
X8109Y-140427D01*
X7873Y-140977D01*
X7578Y-141449D01*
X7224Y-141764D01*
X6752Y-142000D01*
X5572D01*
G01X11590D02*
X11118Y-141921D01*
X10705Y-141607D01*
X10351Y-141135D01*
X10115Y-140584D01*
X9997Y-139955D01*
Y-139325D01*
X10115Y-138696D01*
X10351Y-138145D01*
X10705Y-137673D01*
X11118Y-137359D01*
X11590Y-137280D01*
X12062Y-137359D01*
X12475Y-137673D01*
X12829Y-138145D01*
X13065Y-138696D01*
X13183Y-139325D01*
Y-139955D01*
X13065Y-140584D01*
X12829Y-141135D01*
X12475Y-141607D01*
X12062Y-141921D01*
X11590Y-142000D01*
G01X17608Y-137673D02*
X17254Y-137437D01*
X16841Y-137280D01*
X16369D01*
X15838Y-137516D01*
X15425Y-137909D01*
X15130Y-138381D01*
X14894Y-139168D01*
X14835Y-139876D01*
X14953Y-140584D01*
X15130Y-141056D01*
X15484Y-141528D01*
X15897Y-141843D01*
X16310Y-142000D01*
X16723D01*
X17136Y-141843D01*
X17490Y-141607D01*
X17785Y-141292D01*
G01X19732Y-137280D02*
Y-140663D01*
X19968Y-141371D01*
X20440Y-141843D01*
X21030Y-142000D01*
X21620Y-141843D01*
X22092Y-141371D01*
X22328Y-140663D01*
Y-137280D01*
G01X24216Y-142000D02*
Y-137280D01*
X25750Y-141213D01*
X27284Y-137280D01*
Y-142000D01*
G01X31650D02*
X29290D01*
Y-137280D01*
X31650D01*
G01X30706Y-139561D02*
X29290D01*
G01X33833Y-142000D02*
Y-137280D01*
X36547Y-142000D01*
Y-137280D01*
G01X39910D02*
Y-142000D01*
G01X38553Y-137280D02*
X41267D01*
G01X50648Y-137673D02*
X50294Y-137437D01*
X49881Y-137280D01*
X49409D01*
X48878Y-137516D01*
X48465Y-137909D01*
X48170Y-138381D01*
X47934Y-139168D01*
X47875Y-139876D01*
X47993Y-140584D01*
X48170Y-141056D01*
X48524Y-141528D01*
X48937Y-141843D01*
X49350Y-142000D01*
X49763D01*
X50176Y-141843D01*
X50530Y-141607D01*
X50825Y-141292D01*
G01X54070Y-142000D02*
X53598Y-141921D01*
X53185Y-141607D01*
X52831Y-141135D01*
X52595Y-140584D01*
X52477Y-139955D01*
Y-139325D01*
X52595Y-138696D01*
X52831Y-138145D01*
X53185Y-137673D01*
X53598Y-137359D01*
X54070Y-137280D01*
X54542Y-137359D01*
X54955Y-137673D01*
X55309Y-138145D01*
X55545Y-138696D01*
X55663Y-139325D01*
Y-139955D01*
X55545Y-140584D01*
X55309Y-141135D01*
X54955Y-141607D01*
X54542Y-141921D01*
X54070Y-142000D01*
G01X57433D02*
Y-137280D01*
X60147Y-142000D01*
Y-137280D01*
G01X63510D02*
Y-142000D01*
G01X62153Y-137280D02*
X64867D01*
G01X66755Y-142000D02*
X68230Y-137280D01*
X69705Y-142000D01*
G01X69174Y-140348D02*
X67286D01*
G01X72242Y-137280D02*
X73658D01*
G01X72950D02*
Y-142000D01*
G01X72242D02*
X73658D01*
G01X76313D02*
Y-137280D01*
X79027Y-142000D01*
Y-137280D01*
G01X81151Y-141371D02*
X81623Y-141764D01*
X82154Y-142000D01*
X82626D01*
X83098Y-141764D01*
X83452Y-141371D01*
X83629Y-140820D01*
X83511Y-140269D01*
X83216Y-139797D01*
X82685Y-139483D01*
X81977Y-139325D01*
X81564Y-139011D01*
X81387Y-138460D01*
X81505Y-137909D01*
X81800Y-137516D01*
X82213Y-137280D01*
X82626D01*
X83039Y-137437D01*
X83393Y-137831D01*
G01X91122Y-137280D02*
X92538D01*
G01X91830D02*
Y-142000D01*
G01X91122D02*
X92538D01*
G01X95193D02*
Y-137280D01*
X97907Y-142000D01*
Y-137280D01*
G01X100149Y-142000D02*
Y-137280D01*
X102391D01*
G01X101565Y-139561D02*
X100149D01*
G01X105990Y-142000D02*
X105518Y-141921D01*
X105105Y-141607D01*
X104751Y-141135D01*
X104515Y-140584D01*
X104397Y-139955D01*
Y-139325D01*
X104515Y-138696D01*
X104751Y-138145D01*
X105105Y-137673D01*
X105518Y-137359D01*
X105990Y-137280D01*
X106462Y-137359D01*
X106875Y-137673D01*
X107229Y-138145D01*
X107465Y-138696D01*
X107583Y-139325D01*
Y-139955D01*
X107465Y-140584D01*
X107229Y-141135D01*
X106875Y-141607D01*
X106462Y-141921D01*
X105990Y-142000D01*
G01X109530D02*
Y-137280D01*
X111005D01*
X111477Y-137516D01*
X111772Y-137831D01*
X111890Y-138460D01*
X111772Y-139089D01*
X111418Y-139483D01*
X111005Y-139719D01*
X109530D01*
G01X111005D02*
X111890Y-142000D01*
G01X113896D02*
Y-137280D01*
X115430Y-141213D01*
X116964Y-137280D01*
Y-142000D01*
G01X118675D02*
X120150Y-137280D01*
X121625Y-142000D01*
G01X121094Y-140348D02*
X119206D01*
G01X124870Y-137280D02*
Y-142000D01*
G01X123513Y-137280D02*
X126227D01*
G01X128882D02*
X130298D01*
G01X129590D02*
Y-142000D01*
G01X128882D02*
X130298D01*
G01X134310D02*
X133838Y-141921D01*
X133425Y-141607D01*
X133071Y-141135D01*
X132835Y-140584D01*
X132717Y-139955D01*
Y-139325D01*
X132835Y-138696D01*
X133071Y-138145D01*
X133425Y-137673D01*
X133838Y-137359D01*
X134310Y-137280D01*
X134782Y-137359D01*
X135195Y-137673D01*
X135549Y-138145D01*
X135785Y-138696D01*
X135903Y-139325D01*
Y-139955D01*
X135785Y-140584D01*
X135549Y-141135D01*
X135195Y-141607D01*
X134782Y-141921D01*
X134310Y-142000D01*
G01X137673D02*
Y-137280D01*
X140387Y-142000D01*
Y-137280D01*
G01X26149Y-193000D02*
Y-188280D01*
X28391D01*
G01X27565Y-190561D02*
X26149D01*
G01X31282Y-188280D02*
X32698D01*
G01X31990D02*
Y-193000D01*
G01X31282D02*
X32698D01*
G01X35530Y-188280D02*
Y-193000D01*
X37890D01*
G01X39896D02*
Y-188280D01*
X41430Y-192213D01*
X42964Y-188280D01*
Y-193000D01*
G01X154270Y-196280D02*
X153798Y-196437D01*
X153444Y-196831D01*
X153208Y-197303D01*
X153031Y-197932D01*
X152972Y-198640D01*
X153031Y-199348D01*
X153208Y-199977D01*
X153444Y-200449D01*
X153798Y-200843D01*
X154270Y-201000D01*
X154742Y-200843D01*
X155096Y-200449D01*
X155332Y-199977D01*
X155509Y-199348D01*
X155568Y-198640D01*
X155509Y-197932D01*
X155332Y-197303D01*
X155096Y-196831D01*
X154742Y-196437D01*
X154270Y-196280D01*
G01X157987Y-200449D02*
X158400Y-200843D01*
X158872Y-201000D01*
X159344Y-200843D01*
X159757Y-200371D01*
X160052Y-199663D01*
X160170Y-198955D01*
Y-198089D01*
X160052Y-197381D01*
X159757Y-196752D01*
X159403Y-196437D01*
X158990Y-196280D01*
X158518Y-196437D01*
X158164Y-196752D01*
X157928Y-197224D01*
X157810Y-197853D01*
X157928Y-198404D01*
X158223Y-198955D01*
X158577Y-199269D01*
X158990Y-199348D01*
X159462Y-199191D01*
X159816Y-198797D01*
X160170Y-198089D01*
G01X162943Y-199427D02*
X164477D01*
G01X168430Y-196280D02*
X167958Y-196437D01*
X167604Y-196831D01*
X167368Y-197303D01*
X167191Y-197932D01*
X167132Y-198640D01*
X167191Y-199348D01*
X167368Y-199977D01*
X167604Y-200449D01*
X167958Y-200843D01*
X168430Y-201000D01*
X168902Y-200843D01*
X169256Y-200449D01*
X169492Y-199977D01*
X169669Y-199348D01*
X169728Y-198640D01*
X169669Y-197932D01*
X169492Y-197303D01*
X169256Y-196831D01*
X168902Y-196437D01*
X168430Y-196280D01*
G01X172029Y-199033D02*
X172442Y-198483D01*
X172796Y-198168D01*
X173268Y-198011D01*
X173681Y-198168D01*
X173976Y-198483D01*
X174212Y-198955D01*
X174271Y-199505D01*
X174212Y-199977D01*
X173976Y-200449D01*
X173622Y-200843D01*
X173209Y-201000D01*
X172737Y-200843D01*
X172324Y-200371D01*
X172088Y-199663D01*
X172029Y-198876D01*
X172147Y-197853D01*
X172324Y-197303D01*
X172619Y-196752D01*
X173032Y-196359D01*
X173445Y-196280D01*
X173858Y-196437D01*
X174153Y-196831D01*
G01X177103Y-199427D02*
X178637D01*
G01X182590Y-201000D02*
Y-196280D01*
X181882Y-197224D01*
G01Y-201000D02*
X183298D01*
G01X187310D02*
X187723Y-200921D01*
X188195Y-200685D01*
X188490Y-200292D01*
X188608Y-199741D01*
X188490Y-199191D01*
X188136Y-198719D01*
X187605Y-198483D01*
X187015D01*
X186661Y-198325D01*
X186366Y-197932D01*
X186248Y-197381D01*
X186425Y-196831D01*
X186838Y-196437D01*
X187310Y-196280D01*
X187782Y-196437D01*
X188195Y-196831D01*
X188372Y-197381D01*
X188254Y-197932D01*
X187959Y-198325D01*
X187605Y-198483D01*
X187015D01*
X186484Y-198719D01*
X186130Y-199191D01*
X186012Y-199741D01*
X186130Y-200292D01*
X186425Y-200685D01*
X186897Y-200921D01*
X187310Y-201000D01*
G01X150972Y-193000D02*
Y-188280D01*
X152152D01*
X152624Y-188516D01*
X152978Y-188831D01*
X153273Y-189303D01*
X153509Y-189853D01*
X153568Y-190640D01*
X153509Y-191427D01*
X153273Y-191977D01*
X152978Y-192449D01*
X152624Y-192764D01*
X152152Y-193000D01*
X150972D01*
G01X155515D02*
X156990Y-188280D01*
X158465Y-193000D01*
G01X157934Y-191348D02*
X156046D01*
G01X161710Y-188280D02*
Y-193000D01*
G01X160353Y-188280D02*
X163067D01*
G01X167610Y-193000D02*
X165250D01*
Y-188280D01*
X167610D01*
G01X166666Y-190561D02*
X165250D01*
G01X150913Y-113000D02*
Y-108280D01*
X153627Y-113000D01*
Y-108280D01*
G01X155515Y-113000D02*
X156990Y-108280D01*
X158465Y-113000D01*
G01X157934Y-111348D02*
X156046D01*
G01X160176Y-113000D02*
Y-108280D01*
X161710Y-112213D01*
X163244Y-108280D01*
Y-113000D01*
G01X167610D02*
X165250D01*
Y-108280D01*
X167610D01*
G01X166666Y-110561D02*
X165250D01*
G01X160500Y-179073D02*
X164040D01*
G01X165220D02*
X168760D01*
G01X169940D02*
X173480D01*
G01X179793Y-177500D02*
Y-172780D01*
X182507Y-177500D01*
Y-172780D01*
G01X187168Y-173173D02*
X186814Y-172937D01*
X186401Y-172780D01*
X185929D01*
X185398Y-173016D01*
X184985Y-173409D01*
X184690Y-173881D01*
X184454Y-174668D01*
X184395Y-175376D01*
X184513Y-176084D01*
X184690Y-176556D01*
X185044Y-177028D01*
X185457Y-177343D01*
X185870Y-177500D01*
X186283D01*
X186696Y-177343D01*
X187050Y-177107D01*
X187345Y-176792D01*
G01X189410Y-177500D02*
Y-172780D01*
X190826D01*
X191298Y-173016D01*
X191652Y-173567D01*
X191770Y-174196D01*
X191652Y-174825D01*
X191357Y-175297D01*
X190826Y-175533D01*
X189410D01*
G01X199735Y-179073D02*
X199145Y-178287D01*
X198850Y-177500D01*
Y-174353D01*
X199145Y-173567D01*
X199735Y-172780D01*
G01X203393Y-177500D02*
Y-172780D01*
X206107Y-177500D01*
Y-172780D01*
G01X208231Y-177500D02*
X210709Y-172780D01*
G01X208231D02*
X210709Y-177500D01*
G01X213010D02*
Y-172780D01*
X214426D01*
X214898Y-173016D01*
X215252Y-173567D01*
X215370Y-174196D01*
X215252Y-174825D01*
X214957Y-175297D01*
X214426Y-175533D01*
X213010D01*
G01X224928Y-173173D02*
X224574Y-172937D01*
X224161Y-172780D01*
X223689D01*
X223158Y-173016D01*
X222745Y-173409D01*
X222450Y-173881D01*
X222214Y-174668D01*
X222155Y-175376D01*
X222273Y-176084D01*
X222450Y-176556D01*
X222804Y-177028D01*
X223217Y-177343D01*
X223630Y-177500D01*
X224043D01*
X224456Y-177343D01*
X224810Y-177107D01*
X225105Y-176792D01*
G01X228350Y-177500D02*
X227878Y-177421D01*
X227465Y-177107D01*
X227111Y-176635D01*
X226875Y-176084D01*
X226757Y-175455D01*
Y-174825D01*
X226875Y-174196D01*
X227111Y-173645D01*
X227465Y-173173D01*
X227878Y-172859D01*
X228350Y-172780D01*
X228822Y-172859D01*
X229235Y-173173D01*
X229589Y-173645D01*
X229825Y-174196D01*
X229943Y-174825D01*
Y-175455D01*
X229825Y-176084D01*
X229589Y-176635D01*
X229235Y-177107D01*
X228822Y-177421D01*
X228350Y-177500D01*
G01X231713D02*
Y-172780D01*
X234427Y-177500D01*
Y-172780D01*
G01X236669Y-177500D02*
Y-172780D01*
X238911D01*
G01X238085Y-175061D02*
X236669D01*
G01X241802Y-172780D02*
X243218D01*
G01X242510D02*
Y-177500D01*
G01X241802D02*
X243218D01*
G01X245932D02*
Y-172780D01*
X247112D01*
X247584Y-173016D01*
X247938Y-173331D01*
X248233Y-173803D01*
X248469Y-174353D01*
X248528Y-175140D01*
X248469Y-175927D01*
X248233Y-176477D01*
X247938Y-176949D01*
X247584Y-177264D01*
X247112Y-177500D01*
X245932D01*
G01X253130D02*
X250770D01*
Y-172780D01*
X253130D01*
G01X252186Y-175061D02*
X250770D01*
G01X255313Y-177500D02*
Y-172780D01*
X258027Y-177500D01*
Y-172780D01*
G01X261390D02*
Y-177500D01*
G01X260033Y-172780D02*
X262747D01*
G01X265402D02*
X266818D01*
G01X266110D02*
Y-177500D01*
G01X265402D02*
X266818D01*
G01X269355D02*
X270830Y-172780D01*
X272305Y-177500D01*
G01X271774Y-175848D02*
X269886D01*
G01X274370Y-172780D02*
Y-177500D01*
X276730D01*
G01X283810D02*
Y-172780D01*
X285226D01*
X285698Y-173016D01*
X286052Y-173567D01*
X286170Y-174196D01*
X286052Y-174825D01*
X285757Y-175297D01*
X285226Y-175533D01*
X283810D01*
G01X288530Y-177500D02*
Y-172780D01*
X290005D01*
X290477Y-173016D01*
X290772Y-173331D01*
X290890Y-173960D01*
X290772Y-174589D01*
X290418Y-174983D01*
X290005Y-175219D01*
X288530D01*
G01X290005D02*
X290890Y-177500D01*
G01X294430D02*
X293958Y-177421D01*
X293545Y-177107D01*
X293191Y-176635D01*
X292955Y-176084D01*
X292837Y-175455D01*
Y-174825D01*
X292955Y-174196D01*
X293191Y-173645D01*
X293545Y-173173D01*
X293958Y-172859D01*
X294430Y-172780D01*
X294902Y-172859D01*
X295315Y-173173D01*
X295669Y-173645D01*
X295905Y-174196D01*
X296023Y-174825D01*
Y-175455D01*
X295905Y-176084D01*
X295669Y-176635D01*
X295315Y-177107D01*
X294902Y-177421D01*
X294430Y-177500D01*
G01X297970D02*
Y-172780D01*
X299386D01*
X299858Y-173016D01*
X300212Y-173567D01*
X300330Y-174196D01*
X300212Y-174825D01*
X299917Y-175297D01*
X299386Y-175533D01*
X297970D01*
G01X302690Y-177500D02*
Y-172780D01*
X304165D01*
X304637Y-173016D01*
X304932Y-173331D01*
X305050Y-173960D01*
X304932Y-174589D01*
X304578Y-174983D01*
X304165Y-175219D01*
X302690D01*
G01X304165D02*
X305050Y-177500D01*
G01X307882Y-172780D02*
X309298D01*
G01X308590D02*
Y-177500D01*
G01X307882D02*
X309298D01*
G01X314490D02*
X312130D01*
Y-172780D01*
X314490D01*
G01X313546Y-175061D02*
X312130D01*
G01X318030Y-172780D02*
Y-177500D01*
G01X316673Y-172780D02*
X319387D01*
G01X321275Y-177500D02*
X322750Y-172780D01*
X324225Y-177500D01*
G01X323694Y-175848D02*
X321806D01*
G01X326290Y-177500D02*
Y-172780D01*
X327765D01*
X328237Y-173016D01*
X328532Y-173331D01*
X328650Y-173960D01*
X328532Y-174589D01*
X328178Y-174983D01*
X327765Y-175219D01*
X326290D01*
G01X327765D02*
X328650Y-177500D01*
G01X332190D02*
Y-175376D01*
X331010Y-172780D01*
G01X333370D02*
X332190Y-175376D01*
G01X337205Y-179073D02*
X337795Y-178287D01*
X338090Y-177500D01*
Y-174353D01*
X337795Y-173567D01*
X337205Y-172780D01*
G01X160500Y-162573D02*
X164040D01*
G01X165220D02*
X168760D01*
G01X169940D02*
X173480D01*
G01X179793Y-161000D02*
Y-156280D01*
X182507Y-161000D01*
Y-156280D01*
G01X185162D02*
X186578D01*
G01X185870D02*
Y-161000D01*
G01X185162D02*
X186578D01*
G01X189292Y-156280D02*
Y-159663D01*
X189528Y-160371D01*
X190000Y-160843D01*
X190590Y-161000D01*
X191180Y-160843D01*
X191652Y-160371D01*
X191888Y-159663D01*
Y-156280D01*
G01X195310Y-161000D02*
X194838Y-160921D01*
X194425Y-160607D01*
X194071Y-160135D01*
X193835Y-159584D01*
X193717Y-158955D01*
Y-158325D01*
X193835Y-157696D01*
X194071Y-157145D01*
X194425Y-156673D01*
X194838Y-156359D01*
X195310Y-156280D01*
X195782Y-156359D01*
X196195Y-156673D01*
X196549Y-157145D01*
X196785Y-157696D01*
X196903Y-158325D01*
Y-158955D01*
X196785Y-159584D01*
X196549Y-160135D01*
X196195Y-160607D01*
X195782Y-160921D01*
X195310Y-161000D01*
G01X204455Y-162573D02*
X203865Y-161787D01*
X203570Y-161000D01*
Y-157853D01*
X203865Y-157067D01*
X204455Y-156280D01*
G01X208113Y-161000D02*
Y-156280D01*
X210827Y-161000D01*
Y-156280D01*
G01X212951Y-161000D02*
X215429Y-156280D01*
G01X212951D02*
X215429Y-161000D01*
G01X217730D02*
Y-156280D01*
X219146D01*
X219618Y-156516D01*
X219972Y-157067D01*
X220090Y-157696D01*
X219972Y-158325D01*
X219677Y-158797D01*
X219146Y-159033D01*
X217730D01*
G01X227642Y-156280D02*
X229058D01*
G01X228350D02*
Y-161000D01*
G01X227642D02*
X229058D01*
G01X231713D02*
Y-156280D01*
X234427Y-161000D01*
Y-156280D01*
G01X237790D02*
Y-161000D01*
G01X236433Y-156280D02*
X239147D01*
G01X243690Y-161000D02*
X241330D01*
Y-156280D01*
X243690D01*
G01X242746Y-158561D02*
X241330D01*
G01X246050Y-161000D02*
Y-156280D01*
X247525D01*
X247997Y-156516D01*
X248292Y-156831D01*
X248410Y-157460D01*
X248292Y-158089D01*
X247938Y-158483D01*
X247525Y-158719D01*
X246050D01*
G01X247525D02*
X248410Y-161000D01*
G01X250593D02*
Y-156280D01*
X253307Y-161000D01*
Y-156280D01*
G01X255195Y-161000D02*
X256670Y-156280D01*
X258145Y-161000D01*
G01X257614Y-159348D02*
X255726D01*
G01X260210Y-156280D02*
Y-161000D01*
X262570D01*
G01X269532Y-156280D02*
Y-159663D01*
X269768Y-160371D01*
X270240Y-160843D01*
X270830Y-161000D01*
X271420Y-160843D01*
X271892Y-160371D01*
X272128Y-159663D01*
Y-156280D01*
G01X274311Y-160371D02*
X274783Y-160764D01*
X275314Y-161000D01*
X275786D01*
X276258Y-160764D01*
X276612Y-160371D01*
X276789Y-159820D01*
X276671Y-159269D01*
X276376Y-158797D01*
X275845Y-158483D01*
X275137Y-158325D01*
X274724Y-158011D01*
X274547Y-157460D01*
X274665Y-156909D01*
X274960Y-156516D01*
X275373Y-156280D01*
X275786D01*
X276199Y-156437D01*
X276553Y-156831D01*
G01X281450Y-161000D02*
X279090D01*
Y-156280D01*
X281450D01*
G01X280506Y-158561D02*
X279090D01*
G01X289710Y-161000D02*
X289238Y-160921D01*
X288825Y-160607D01*
X288471Y-160135D01*
X288235Y-159584D01*
X288117Y-158955D01*
Y-158325D01*
X288235Y-157696D01*
X288471Y-157145D01*
X288825Y-156673D01*
X289238Y-156359D01*
X289710Y-156280D01*
X290182Y-156359D01*
X290595Y-156673D01*
X290949Y-157145D01*
X291185Y-157696D01*
X291303Y-158325D01*
Y-158955D01*
X291185Y-159584D01*
X290949Y-160135D01*
X290595Y-160607D01*
X290182Y-160921D01*
X289710Y-161000D01*
G01X293073D02*
Y-156280D01*
X295787Y-161000D01*
Y-156280D01*
G01X297970D02*
Y-161000D01*
X300330D01*
G01X303870D02*
Y-158876D01*
X302690Y-156280D01*
G01X305050D02*
X303870Y-158876D01*
G01X308885Y-162573D02*
X309475Y-161787D01*
X309770Y-161000D01*
Y-157853D01*
X309475Y-157067D01*
X308885Y-156280D01*
G01X160500Y-146573D02*
X164040D01*
G01X165220D02*
X168760D01*
G01X169940D02*
X173480D01*
G01X179970Y-145000D02*
Y-140280D01*
X181386D01*
X181858Y-140516D01*
X182212Y-141067D01*
X182330Y-141696D01*
X182212Y-142325D01*
X181917Y-142797D01*
X181386Y-143033D01*
X179970D01*
G01X184572Y-140280D02*
Y-143663D01*
X184808Y-144371D01*
X185280Y-144843D01*
X185870Y-145000D01*
X186460Y-144843D01*
X186932Y-144371D01*
X187168Y-143663D01*
Y-140280D01*
G01X191062Y-142483D02*
X191298Y-142247D01*
X191475Y-141853D01*
X191593Y-141303D01*
X191475Y-140831D01*
X191239Y-140516D01*
X190826Y-140280D01*
X189233D01*
Y-145000D01*
X191180D01*
X191593Y-144685D01*
X191829Y-144213D01*
X191947Y-143663D01*
X191829Y-143112D01*
X191475Y-142640D01*
X191062Y-142483D01*
X189233D01*
G01X194602Y-140280D02*
X196018D01*
G01X195310D02*
Y-145000D01*
G01X194602D02*
X196018D01*
G01X204455Y-146573D02*
X203865Y-145787D01*
X203570Y-145000D01*
Y-141853D01*
X203865Y-141067D01*
X204455Y-140280D01*
G01X208290Y-145000D02*
Y-140280D01*
X209706D01*
X210178Y-140516D01*
X210532Y-141067D01*
X210650Y-141696D01*
X210532Y-142325D01*
X210237Y-142797D01*
X209706Y-143033D01*
X208290D01*
G01X212892Y-140280D02*
Y-143663D01*
X213128Y-144371D01*
X213600Y-144843D01*
X214190Y-145000D01*
X214780Y-144843D01*
X215252Y-144371D01*
X215488Y-143663D01*
Y-140280D01*
G01X219382Y-142483D02*
X219618Y-142247D01*
X219795Y-141853D01*
X219913Y-141303D01*
X219795Y-140831D01*
X219559Y-140516D01*
X219146Y-140280D01*
X217553D01*
Y-145000D01*
X219500D01*
X219913Y-144685D01*
X220149Y-144213D01*
X220267Y-143663D01*
X220149Y-143112D01*
X219795Y-142640D01*
X219382Y-142483D01*
X217553D01*
G01X222450Y-140280D02*
Y-145000D01*
X224810D01*
G01X227642Y-140280D02*
X229058D01*
G01X228350D02*
Y-145000D01*
G01X227642D02*
X229058D01*
G01X234368Y-140673D02*
X234014Y-140437D01*
X233601Y-140280D01*
X233129D01*
X232598Y-140516D01*
X232185Y-140909D01*
X231890Y-141381D01*
X231654Y-142168D01*
X231595Y-142876D01*
X231713Y-143584D01*
X231890Y-144056D01*
X232244Y-144528D01*
X232657Y-144843D01*
X233070Y-145000D01*
X233483D01*
X233896Y-144843D01*
X234250Y-144607D01*
X234545Y-144292D01*
G01X241802Y-140280D02*
X243218D01*
G01X242510D02*
Y-145000D01*
G01X241802D02*
X243218D01*
G01X245873D02*
Y-140280D01*
X248587Y-145000D01*
Y-140280D01*
G01X250829Y-145000D02*
Y-140280D01*
X253071D01*
G01X252245Y-142561D02*
X250829D01*
G01X256670Y-145000D02*
X256198Y-144921D01*
X255785Y-144607D01*
X255431Y-144135D01*
X255195Y-143584D01*
X255077Y-142955D01*
Y-142325D01*
X255195Y-141696D01*
X255431Y-141145D01*
X255785Y-140673D01*
X256198Y-140359D01*
X256670Y-140280D01*
X257142Y-140359D01*
X257555Y-140673D01*
X257909Y-141145D01*
X258145Y-141696D01*
X258263Y-142325D01*
Y-142955D01*
X258145Y-143584D01*
X257909Y-144135D01*
X257555Y-144607D01*
X257142Y-144921D01*
X256670Y-145000D01*
G01X260210D02*
Y-140280D01*
X261685D01*
X262157Y-140516D01*
X262452Y-140831D01*
X262570Y-141460D01*
X262452Y-142089D01*
X262098Y-142483D01*
X261685Y-142719D01*
X260210D01*
G01X261685D02*
X262570Y-145000D01*
G01X264576D02*
Y-140280D01*
X266110Y-144213D01*
X267644Y-140280D01*
Y-145000D01*
G01X269355D02*
X270830Y-140280D01*
X272305Y-145000D01*
G01X271774Y-143348D02*
X269886D01*
G01X275550Y-140280D02*
Y-145000D01*
G01X274193Y-140280D02*
X276907D01*
G01X279562D02*
X280978D01*
G01X280270D02*
Y-145000D01*
G01X279562D02*
X280978D01*
G01X284990D02*
X284518Y-144921D01*
X284105Y-144607D01*
X283751Y-144135D01*
X283515Y-143584D01*
X283397Y-142955D01*
Y-142325D01*
X283515Y-141696D01*
X283751Y-141145D01*
X284105Y-140673D01*
X284518Y-140359D01*
X284990Y-140280D01*
X285462Y-140359D01*
X285875Y-140673D01*
X286229Y-141145D01*
X286465Y-141696D01*
X286583Y-142325D01*
Y-142955D01*
X286465Y-143584D01*
X286229Y-144135D01*
X285875Y-144607D01*
X285462Y-144921D01*
X284990Y-145000D01*
G01X288353D02*
Y-140280D01*
X291067Y-145000D01*
Y-140280D01*
G01X294725Y-146573D02*
X295315Y-145787D01*
X295610Y-145000D01*
Y-141853D01*
X295315Y-141067D01*
X294725Y-140280D01*
G01X200913Y-193000D02*
Y-188280D01*
X203627Y-193000D01*
Y-188280D01*
G01X205692D02*
Y-191663D01*
X205928Y-192371D01*
X206400Y-192843D01*
X206990Y-193000D01*
X207580Y-192843D01*
X208052Y-192371D01*
X208288Y-191663D01*
Y-188280D01*
G01X210176Y-193000D02*
Y-188280D01*
X211710Y-192213D01*
X213244Y-188280D01*
Y-193000D01*
G01X216902Y-190483D02*
X217138Y-190247D01*
X217315Y-189853D01*
X217433Y-189303D01*
X217315Y-188831D01*
X217079Y-188516D01*
X216666Y-188280D01*
X215073D01*
Y-193000D01*
X217020D01*
X217433Y-192685D01*
X217669Y-192213D01*
X217787Y-191663D01*
X217669Y-191112D01*
X217315Y-190640D01*
X216902Y-190483D01*
X215073D01*
G01X222330Y-193000D02*
X219970D01*
Y-188280D01*
X222330D01*
G01X221386Y-190561D02*
X219970D01*
G01X224690Y-193000D02*
Y-188280D01*
X226165D01*
X226637Y-188516D01*
X226932Y-188831D01*
X227050Y-189460D01*
X226932Y-190089D01*
X226578Y-190483D01*
X226165Y-190719D01*
X224690D01*
G01X226165D02*
X227050Y-193000D01*
G54D26*
X345000Y132500D03*
G54D17*
X20535Y372000D03*
X37465D03*
X314535D03*
X331465D03*
G54D27*
G01X-27500Y-185000D02*
X372500D01*
G01X-27500Y-155000D02*
Y-135000D01*
X372500D01*
G01X-13250Y34989D02*
X-8898Y37791D01*
G01X-13250Y40593D02*
X-8898Y37791D01*
G01X-13250Y70422D02*
X-8898Y73224D01*
G01X-13250Y76026D02*
X-8898Y73224D01*
G01X-8545Y-8545D02*
X0Y0D01*
G01X-8545Y8545D02*
X0Y0D01*
G01X-8898Y37791D02*
X-4546Y34989D01*
G01X-8898Y37791D02*
X-4546Y40593D01*
G01X-8898Y73224D02*
X-4546Y70422D01*
G01X-8898Y73224D02*
X-4546Y76026D01*
G01X-4060Y93060D02*
X-500Y89500D01*
G01X-4060Y85940D02*
X-500Y89500D01*
G01X-8567Y257039D02*
X-5961Y254433D01*
G01X-11173Y259645D02*
X-8567Y257039D01*
G01D02*
X-5961Y259645D01*
G01X-11173Y254433D02*
X-8567Y257039D01*
G01X-7236Y275067D02*
X-4630Y272461D01*
G01X-7236Y269855D02*
X-4630Y272461D01*
G01X-8567Y342539D02*
X-5961Y339933D01*
G01X-11173Y345145D02*
X-8567Y342539D01*
G01D02*
X-5961Y345145D01*
G01X-11173Y339933D02*
X-8567Y342539D01*
G01X-8545Y353660D02*
X0Y362205D01*
G01X-8545Y370750D02*
X0Y362205D01*
G01Y0D02*
X8545Y-8545D01*
G01X0Y0D02*
X8545Y8545D01*
G01X-500Y89500D02*
X3060Y85940D01*
G01X8126Y342539D02*
X10732Y339933D01*
G01X5520Y345145D02*
X8126Y342539D01*
G01D02*
X10732Y345145D01*
G01X5520Y339933D02*
X8126Y342539D01*
G01X0Y362205D02*
X8545Y353660D01*
G01X0Y362205D02*
X8545Y370750D01*
G01X18071Y4831D02*
Y12133D01*
G01D02*
X22123D01*
G01X14019D02*
X18071D01*
G01D02*
Y19435D01*
G01X20535Y372000D02*
X25337Y368898D01*
G01X15733Y375102D02*
X20535Y372000D01*
G01X15733Y368898D02*
X20535Y372000D01*
G01X22500Y-205000D02*
Y-185000D01*
G01X37465Y372000D02*
X42267Y368898D01*
G01X37465Y372000D02*
X42267Y375102D01*
G01X32663Y368898D02*
X37465Y372000D01*
G01X49961Y4831D02*
Y12133D01*
G01D02*
X54013D01*
G01X45909D02*
X49961D01*
G01D02*
Y19435D01*
G01X56360Y45640D02*
X47680D01*
X44000Y41960D01*
Y39000D01*
G01X50500Y33500D02*
X52000D01*
X54500Y36000D01*
X62000D01*
X65000Y39000D01*
Y67500D01*
X68500Y71000D01*
X78500D01*
X81500Y74000D01*
Y79500D01*
X88000Y86000D01*
X95000D01*
X98500Y89500D01*
X107500D01*
X112000Y94000D01*
X118500D01*
X129300Y104800D01*
Y113100D01*
G01X51500Y115000D02*
Y125500D01*
X59500Y133500D01*
X61000D01*
G01X129200Y115800D02*
X128300D01*
X107500Y95000D01*
X98000D01*
X93000Y90000D01*
X86000D01*
X75500Y79500D01*
Y79000D01*
X70400Y73900D01*
Y73000D01*
G01X97906Y63000D02*
X100650Y65744D01*
Y78650D01*
X103500Y81500D01*
G01X114398Y243000D02*
X116898Y240500D01*
X144000D01*
X145956Y242456D01*
X148130D01*
G01X148000Y-205000D02*
Y-185000D01*
G01X147500Y-135000D02*
Y-105000D01*
G01X187500Y68000D02*
Y72500D01*
X191500Y76500D01*
G01X197500Y-205000D02*
Y-185000D01*
G01X195481Y240980D02*
X194398Y239897D01*
X194192D01*
G01X243957Y-5307D02*
X247709Y-10609D01*
G01X240205D02*
X243957Y-5307D01*
G01X240205Y-5D02*
X243957Y-5307D01*
G01D02*
X247709Y-5D01*
G01X289455Y356455D02*
X298000Y365000D01*
G01X289455Y373545D02*
X298000Y365000D01*
G01X301043Y-5307D02*
X304795Y-10609D01*
G01X297291D02*
X301043Y-5307D01*
G01X297291Y-5D02*
X301043Y-5307D01*
G01D02*
X304795Y-5D01*
G01X301043Y18315D02*
X304795Y12213D01*
G01X297291D02*
X301043Y18315D01*
G01X297291Y24417D02*
X301043Y18315D01*
G01D02*
X304795Y24417D01*
G01X298000Y365000D02*
X306545Y356455D01*
G01X298000Y365000D02*
X306545Y373545D01*
G01X309733Y375102D02*
X314535Y372000D01*
G01X309733Y368898D02*
X314535Y372000D01*
G01X321469Y-2048D02*
X324421Y-7000D01*
G01D02*
X327373Y-2048D01*
G01X314535Y372000D02*
X319337Y368898D01*
G01X331465Y372000D02*
X336267Y368898D01*
G01X331465Y372000D02*
X336267Y375102D01*
G01X326663Y368898D02*
X331465Y372000D01*
G01X341548Y-2048D02*
X344500Y-7000D01*
G01D02*
X347452Y-2048D01*
G01X337374Y124874D02*
X345000Y132500D01*
G01D02*
X352626Y124874D01*
G01X337374Y140126D02*
X345000Y132500D01*
G01D02*
X352626Y140126D01*
G01X353660Y-8545D02*
X362205Y0D01*
G01X353660Y8545D02*
X362205Y0D01*
G01X354000Y104000D02*
X356000D01*
X358500Y106500D01*
Y114500D01*
X357500Y115500D01*
X356000D01*
G01X362205Y0D02*
X370750Y-8545D01*
G01X362205Y0D02*
X370750Y8545D01*
G54D18*
G01X372500Y-105000D02*
Y-205000D01*
X-27500D01*
G01D02*
Y-105000D01*
X372500D01*
X75500Y122500D03*
X74000Y126500D03*
X80500D03*
X84000D03*
G54D28*
G01X9500Y222439D02*
X0Y231939D01*
Y281500D01*
X-5500Y287000D01*
Y325000D01*
X-4000Y326500D01*
X1000D01*
X20000Y307500D01*
X30500D01*
X33500Y304500D01*
G01X9500Y222439D02*
X3700Y216639D01*
Y182500D01*
X5000Y181200D01*
Y155000D01*
X10000Y150000D01*
Y144000D01*
X15500Y138500D01*
X20000D01*
X21500Y137000D01*
Y134000D01*
X30000Y125500D01*
X40500D01*
X48500Y133500D01*
X55000D01*
X57900Y136400D01*
X65900D01*
X67000Y137500D01*
X88000D01*
X89000Y138500D01*
G01X33500Y220000D02*
X18500D01*
X16061Y222439D01*
X9500D01*
G01X18500Y147500D02*
X22500Y151500D01*
Y164000D01*
X29500Y171000D01*
X50000D01*
X53500Y174500D01*
X57500D01*
X63500Y168500D01*
X74500D01*
X75500Y169500D01*
X87500D01*
G01X66000Y174000D02*
X63000D01*
X59500Y177500D01*
X50500D01*
X46000Y182000D01*
X32000D01*
X27500Y177500D01*
G01X59000Y151000D02*
X77000D01*
X85500Y142500D01*
G01X87500Y166000D02*
X59000D01*
G01X87500Y169500D02*
X96500Y160500D01*
X111500D01*
X123000Y149000D01*
X138000D01*
X141000Y152000D01*
Y154000D01*
X143500Y156500D01*
X152200D01*
X154800Y159100D01*
Y160500D01*
G01X126500Y250000D02*
Y254500D01*
X123500Y257500D01*
Y264500D01*
X125000Y266000D01*
Y270000D01*
G01X174000Y44500D02*
X169500D01*
X164000Y50000D01*
Y67000D01*
X169000Y72000D01*
G01X207500Y124000D02*
X202200Y118700D01*
X177200D01*
X162000Y103500D01*
Y95000D01*
X160000Y93000D01*
X159500D01*
G01X210500Y80000D02*
X207000Y76500D01*
X191500D01*
G01X192500Y137500D02*
Y140500D01*
X195600Y143600D01*
Y149500D01*
G01X302500Y240500D02*
X302100Y240100D01*
Y237200D01*
X309300Y230000D01*
Y216200D01*
X317000Y208500D01*
Y205000D01*
G01X335500Y164000D02*
Y174000D01*
X334000Y175500D01*
Y200000D01*
X328000Y206000D01*
X325000D01*
X324000Y205000D01*
X317000D01*
G01X326500Y203500D02*
X331000Y199000D01*
Y172048D01*
X326976Y168024D01*
G54D19*
X114000Y46283D03*
Y54157D03*
Y64000D03*
G54D29*
G01X145570Y204071D02*
X146160Y204661D01*
Y205399D01*
X145759Y205800D01*
X141800D01*
X139000Y203000D01*
X91000D01*
X88550Y205450D01*
X76922D01*
X55500Y226872D01*
Y234373D01*
X50523Y239350D01*
X45022D01*
X42050Y242322D01*
Y277450D01*
X28500Y291000D01*
X14499D01*
X13499Y290000D01*
X9372D01*
X6850Y292522D01*
Y311523D01*
X-477Y318850D01*
X-2334D01*
X-3073Y318111D01*
G01X148129Y206630D02*
X147726Y206227D01*
X146959D01*
X146236Y206950D01*
X141323D01*
X138523Y204150D01*
X91477D01*
X89027Y206600D01*
X77399D01*
X56650Y227349D01*
Y234850D01*
X51000Y240500D01*
X45499D01*
X43200Y242799D01*
Y277927D01*
X28977Y292150D01*
X14022D01*
X13022Y291150D01*
X9849D01*
X8000Y292999D01*
Y312000D01*
X0Y320000D01*
X-2562D01*
X-3073Y320511D01*
G01X-1000Y26000D02*
X27000D01*
X29500Y28500D01*
X60500D01*
X69500Y37500D01*
Y39834D01*
X94666Y65000D01*
X95850D01*
X99150Y68300D01*
Y74850D01*
X98000Y76000D01*
G01X20320Y31770D02*
Y31390D01*
X21210Y30500D01*
X25000D01*
X27000Y32500D01*
X36000D01*
X38700Y29800D01*
X50800D01*
X54500Y33500D01*
X63378D01*
X67500Y37622D01*
Y39416D01*
X93500Y65416D01*
Y72500D01*
X95500Y74500D01*
G01X10221Y165079D02*
X12500Y162800D01*
Y145000D01*
X16829Y140671D01*
X20829D01*
X25000Y136500D01*
X51500D01*
X56500Y141500D01*
Y154000D01*
X58000Y155500D01*
X60500D01*
X63500Y158500D01*
G01X10250Y167550D02*
X14000Y163800D01*
Y146000D01*
X17700Y142300D01*
X21322D01*
X25622Y138000D01*
X50500D01*
X54500Y142000D01*
Y154500D01*
X57500Y157500D01*
X59500D01*
X62500Y160500D01*
X64000D01*
X66000Y158500D01*
G01X16500Y201500D02*
Y199000D01*
X23000Y192500D01*
X31500D01*
X37000Y187000D01*
X45000D01*
X52600Y179400D01*
X87600D01*
X104000Y163000D01*
X112500D01*
X124000Y151500D01*
X137000D01*
G01X155807Y201512D02*
X155679Y201384D01*
Y195680D01*
X147849Y187850D01*
X84651D01*
X80151Y192350D01*
X65023D01*
X60373Y197000D01*
X48373D01*
X40023Y205350D01*
X28967D01*
X27894Y206423D01*
Y211950D01*
X27494Y212350D01*
X26294D01*
X25894Y211950D01*
Y206423D01*
X24821Y205350D01*
X18023D01*
X15523Y207850D01*
X12363D01*
X11927Y207414D01*
G01X155807Y204071D02*
Y203371D01*
X154529Y202093D01*
Y196157D01*
X147372Y189000D01*
X85128D01*
X80628Y193500D01*
X65500D01*
X60850Y198150D01*
X48850D01*
X40500Y206500D01*
X29444D01*
X29044Y206900D01*
Y212427D01*
X27971Y213500D01*
X25817D01*
X24744Y212427D01*
Y206900D01*
X24344Y206500D01*
X18500D01*
X16000Y209000D01*
X12741D01*
X11927Y209814D01*
G01X10958Y232642D02*
X11716Y233400D01*
X13973D01*
X17373Y230000D01*
X26874D01*
X36350Y220524D01*
Y214150D01*
X44587Y205913D01*
X46105D01*
X48500Y208309D01*
X49062D01*
X49918Y207453D01*
Y206891D01*
X47523Y204495D01*
Y202977D01*
X50000Y200500D01*
X67373D01*
X72023Y195850D01*
X81151D01*
X86001Y191000D01*
X146999D01*
X153120Y197121D01*
Y201384D01*
X153248Y201512D01*
G01X10958Y235042D02*
X11450Y234550D01*
X14450D01*
X17850Y231150D01*
X27351D01*
X37500Y221001D01*
Y214627D01*
X45064Y207063D01*
X45628D01*
X48023Y209459D01*
X49539D01*
X51068Y207930D01*
Y206414D01*
X48673Y204018D01*
Y203454D01*
X50477Y201650D01*
X67850D01*
X72500Y197000D01*
X81628D01*
X86478Y192150D01*
X146522D01*
X151970Y197598D01*
Y202093D01*
X153248Y203371D01*
Y204071D01*
G01X150689Y201512D02*
X150561Y201384D01*
Y198562D01*
X146349Y194350D01*
X87022D01*
X82522Y198850D01*
X74523D01*
X62873Y210500D01*
X59873D01*
X49350Y221021D01*
Y231522D01*
X48022Y232850D01*
X42523D01*
X35850Y239523D01*
Y262450D01*
X35450Y262850D01*
X24573D01*
X23500Y263923D01*
Y266577D01*
X24573Y267650D01*
X34614D01*
X35850Y268886D01*
Y274651D01*
X32000Y278501D01*
Y278500D01*
X31999Y278501D01*
X27872D01*
X22208Y284165D01*
X19280D01*
X18655Y283540D01*
G01X150689Y204071D02*
Y203371D01*
X149411Y202093D01*
Y199039D01*
X145872Y195500D01*
X87499D01*
X82999Y200000D01*
X75000D01*
X63350Y211650D01*
X60350D01*
X50500Y221498D01*
Y231999D01*
X48499Y234000D01*
X43000D01*
X37000Y240000D01*
Y262927D01*
X35927Y264000D01*
X25050D01*
X24650Y264400D01*
Y266100D01*
X25050Y266500D01*
X35091D01*
X37000Y268409D01*
Y275128D01*
X32813Y279314D01*
X32476Y279651D01*
X28349D01*
X22685Y285315D01*
X19280D01*
X18655Y285940D01*
G01X148129Y201512D02*
X148001Y201384D01*
Y200002D01*
X145849Y197850D01*
X137423D01*
X136350Y198923D01*
Y199950D01*
X135950Y200350D01*
X135150D01*
X134750Y199950D01*
Y198923D01*
X133677Y197850D01*
X131923D01*
X130850Y198923D01*
Y199950D01*
X130450Y200350D01*
X129650D01*
X129250Y199950D01*
Y198923D01*
X128177Y197850D01*
X126423D01*
X125350Y198923D01*
Y199950D01*
X124950Y200350D01*
X124150D01*
X123750Y199950D01*
Y198923D01*
X122677Y197850D01*
X106658D01*
X105585Y198923D01*
Y199450D01*
X105185Y199850D01*
X104385D01*
X103985Y199450D01*
Y198923D01*
X102912Y197850D01*
X101158D01*
X100085Y198923D01*
Y199450D01*
X99685Y199850D01*
X98885D01*
X98485Y199450D01*
Y198923D01*
X97412Y197850D01*
X95658D01*
X94585Y198923D01*
Y199450D01*
X94185Y199850D01*
X93385D01*
X92985Y199450D01*
Y198923D01*
X91912Y197850D01*
X88149D01*
X84149Y201850D01*
X76023D01*
X57023Y220850D01*
X54023D01*
X52350Y222523D01*
Y233022D01*
X49022Y236350D01*
X43522D01*
X39000Y240872D01*
Y276001D01*
X31717Y283284D01*
X31153D01*
X29944Y282074D01*
X28428D01*
X27184Y283318D01*
Y284835D01*
X28393Y286044D01*
Y286608D01*
X27001Y288000D01*
X17499D01*
X13849Y284350D01*
X11812D01*
X10927Y283465D01*
G01X148129Y204071D02*
Y203371D01*
X146851Y202093D01*
Y200479D01*
X145372Y199000D01*
X137900D01*
X137500Y199400D01*
Y200427D01*
X136427Y201500D01*
X134673D01*
X133600Y200427D01*
Y199400D01*
X133200Y199000D01*
X132400D01*
X132000Y199400D01*
Y200427D01*
X130927Y201500D01*
X129173D01*
X128100Y200427D01*
Y199400D01*
X127700Y199000D01*
X126900D01*
X126500Y199400D01*
Y200427D01*
X125427Y201500D01*
X123673D01*
X122600Y200427D01*
Y199400D01*
X122200Y199000D01*
X107135D01*
X106735Y199400D01*
Y199927D01*
X105662Y201000D01*
X103908D01*
X102835Y199927D01*
Y199400D01*
X102435Y199000D01*
X101635D01*
X101235Y199400D01*
Y199927D01*
X100162Y201000D01*
X98408D01*
X97335Y199927D01*
Y199400D01*
X96935Y199000D01*
X96135D01*
X95735Y199400D01*
Y199927D01*
X94662Y201000D01*
X92908D01*
X91835Y199927D01*
Y199400D01*
X91435Y199000D01*
X88626D01*
X86812Y200813D01*
X84626Y203000D01*
X76500D01*
X57500Y222000D01*
X54500D01*
X53500Y223000D01*
Y233499D01*
X49499Y237500D01*
X43999D01*
X40150Y241349D01*
Y276478D01*
X32194Y284434D01*
X30676D01*
X29467Y283224D01*
X28905D01*
X28334Y283795D01*
Y284358D01*
X29543Y285567D01*
Y287085D01*
X27478Y289150D01*
X17022D01*
X13372Y285500D01*
X11292D01*
X10927Y285865D01*
G01X150690Y209190D02*
X150150Y208650D01*
X149577D01*
X148727Y209500D01*
X138873D01*
X136373Y207000D01*
X125255D01*
X124855Y207400D01*
Y208427D01*
X123782Y209500D01*
X122028D01*
X120955Y208427D01*
Y207400D01*
X120555Y207000D01*
X119755D01*
X119355Y207400D01*
Y208427D01*
X118282Y209500D01*
X116528D01*
X115455Y208427D01*
Y207400D01*
X115055Y207000D01*
X114255D01*
X113855Y207400D01*
Y208427D01*
X112782Y209500D01*
X111028D01*
X109955Y208427D01*
Y207400D01*
X109555Y207000D01*
X108755D01*
X108355Y207400D01*
Y208427D01*
X107282Y209500D01*
X105528D01*
X104455Y208427D01*
Y207400D01*
X104055Y207000D01*
X93499D01*
X90849Y209650D01*
X78841D01*
X60500Y228002D01*
Y235000D01*
X49000Y246500D01*
Y254499D01*
X48000Y255499D01*
Y270127D01*
X46650Y271477D01*
Y274151D01*
X48000Y275501D01*
Y277628D01*
X29954Y295672D01*
X27455D01*
X25649Y297478D01*
Y301851D01*
X24000Y303500D01*
X18373D01*
X16850Y301977D01*
Y296949D01*
X14551Y294650D01*
X12091D01*
X11427Y295314D01*
G01X150690Y206630D02*
X149820Y207500D01*
X149100D01*
X148250Y208350D01*
X139350D01*
X136850Y205850D01*
X124778D01*
X123705Y206923D01*
Y207950D01*
X123305Y208350D01*
X122505D01*
X122105Y207950D01*
Y206923D01*
X121032Y205850D01*
X119278D01*
X118205Y206923D01*
Y207950D01*
X117805Y208350D01*
X117005D01*
X116605Y207950D01*
Y206923D01*
X115532Y205850D01*
X113778D01*
X112705Y206923D01*
Y207950D01*
X112305Y208350D01*
X111505D01*
X111105Y207950D01*
Y206923D01*
X110032Y205850D01*
X108278D01*
X107205Y206923D01*
Y207950D01*
X106805Y208350D01*
X106005D01*
X105605Y207950D01*
Y206923D01*
X104532Y205850D01*
X93022D01*
X90372Y208500D01*
X78364D01*
X59350Y227525D01*
Y234523D01*
X47850Y246023D01*
Y254022D01*
X46850Y255022D01*
Y269650D01*
X45500Y271000D01*
Y274628D01*
X46850Y275978D01*
Y277151D01*
X29477Y294522D01*
X26978D01*
X24499Y297001D01*
Y301374D01*
X23523Y302350D01*
X18850D01*
X18000Y301500D01*
Y296472D01*
X15028Y293500D01*
X12013D01*
X11427Y292914D01*
G01X153249Y209190D02*
X153119Y209320D01*
Y210359D01*
X151578Y211900D01*
X147397D01*
X146997Y212300D01*
X145997D01*
X145597Y211900D01*
X144997D01*
X144597Y212300D01*
X143597D01*
X143197Y211900D01*
X134773D01*
X133023Y210150D01*
X128476D01*
X125976Y212650D01*
X104022D01*
X101522Y210150D01*
X94850D01*
X92350Y212650D01*
X80350D01*
X64000Y229000D01*
Y235626D01*
X52500Y247126D01*
Y255000D01*
X51000Y256500D01*
Y279499D01*
X39150Y291349D01*
Y306978D01*
X35128Y311000D01*
X32499D01*
X29999Y313500D01*
X26870D01*
X26280Y312910D01*
X25719D01*
X25148Y313481D01*
Y314043D01*
X26000Y314895D01*
Y317000D01*
X13850Y329150D01*
X12237D01*
X11427Y329960D01*
G01X153249Y206630D02*
X151969Y207910D01*
Y209881D01*
X151100Y210750D01*
X135250D01*
X133500Y209000D01*
X127999D01*
X125499Y211500D01*
X104499D01*
X101999Y209000D01*
X94373D01*
X91873Y211500D01*
X79873D01*
X62850Y228523D01*
Y235149D01*
X51350Y246649D01*
Y254523D01*
X49850Y256023D01*
Y279022D01*
X38000Y290872D01*
Y306501D01*
X34651Y309850D01*
X32022D01*
X29522Y312350D01*
X27347D01*
X26757Y311760D01*
X25242D01*
X23998Y313004D01*
Y314520D01*
X24850Y315372D01*
Y316523D01*
X13373Y328000D01*
X11867D01*
X11427Y327560D01*
G01X21144Y199507D02*
X21954Y200317D01*
X31056D01*
X36223Y195150D01*
X42351D01*
X50151Y187350D01*
X56100D01*
X57173Y188423D01*
Y192950D01*
X57573Y193350D01*
X58773D01*
X59173Y192950D01*
Y188423D01*
X60246Y187350D01*
X81022D01*
X83872Y184500D01*
X134767D01*
X135167Y184100D01*
Y182573D01*
X136240Y181500D01*
X138394D01*
X139467Y182573D01*
Y184100D01*
X139867Y184500D01*
X141067D01*
X141467Y184100D01*
Y182573D01*
X142540Y181500D01*
X144694D01*
X145767Y182573D01*
Y184100D01*
X146167Y184500D01*
X150499D01*
X158238Y192239D01*
Y201384D01*
X158366Y201512D01*
G01X21144Y201907D02*
X21584Y201467D01*
X31533D01*
X36700Y196300D01*
X42828D01*
X50628Y188500D01*
X55623D01*
X56023Y188900D01*
Y193427D01*
X57096Y194500D01*
X59250D01*
X60323Y193427D01*
Y188900D01*
X60723Y188500D01*
X81499D01*
X84349Y185650D01*
X135244D01*
X136317Y184577D01*
Y183050D01*
X136717Y182650D01*
X137917D01*
X138317Y183050D01*
Y184577D01*
X139390Y185650D01*
X141544D01*
X142617Y184577D01*
Y183050D01*
X143017Y182650D01*
X144217D01*
X144617Y183050D01*
Y184577D01*
X145690Y185650D01*
X150022D01*
X157088Y192716D01*
Y202093D01*
X158366Y203371D01*
Y204071D01*
G01X152300Y160500D02*
X151800Y160000D01*
X119000D01*
X114000Y165000D01*
X104951D01*
X88701Y181250D01*
X82750D01*
X80500Y183500D01*
X50500D01*
X42700Y191300D01*
X35200D01*
X33500Y193000D01*
G01X43500Y296000D02*
Y290000D01*
X53000Y280500D01*
Y257500D01*
X54500Y256000D01*
Y248000D01*
X66500Y236000D01*
Y231500D01*
X72250Y225750D01*
X76250D01*
X87500Y214500D01*
X146000D01*
X146500Y214000D01*
X148928D01*
X150000Y212928D01*
X154572D01*
X157029Y210471D01*
X182471D01*
X183500Y211500D01*
Y214000D01*
X185232Y215732D01*
Y217633D01*
X185746Y218147D01*
X188451D01*
X191000Y220696D01*
X192195D01*
X193484Y221985D01*
X194192D01*
G01X155808Y216867D02*
Y216866D01*
X154529Y215587D01*
X146914D01*
X146301Y216200D01*
X87800D01*
X74500Y229500D01*
X71000D01*
X68000Y232500D01*
Y236500D01*
X55750Y248750D01*
Y256750D01*
X54500Y258000D01*
Y281000D01*
X46000Y289500D01*
Y359629D01*
X46500Y360129D01*
X50000D01*
X50500Y360629D01*
Y361629D01*
X50000Y362129D01*
X46500D01*
X46000Y362629D01*
Y364000D01*
X46500Y364500D01*
X48000D01*
G01X90000Y363500D02*
X67501D01*
X51250Y347249D01*
Y329750D01*
X49000Y327500D01*
Y296500D01*
X53000Y292500D01*
Y286300D01*
X58150Y281150D01*
Y266650D01*
X59800Y265000D01*
Y259300D01*
X59000Y258500D01*
Y249500D01*
X89500Y219000D01*
X141499D01*
X143204Y220705D01*
X148795D01*
X150074Y219426D01*
X150690D01*
G01X158367Y216867D02*
X157088Y218146D01*
X142647D01*
X142088Y217587D01*
X88913D01*
X57250Y249250D01*
Y257250D01*
X56000Y258500D01*
Y281500D01*
X47500Y290000D01*
Y331552D01*
X48000Y332052D01*
X49000D01*
X49500Y332552D01*
Y333552D01*
X49000Y334052D01*
X48000D01*
X47500Y334552D01*
Y335552D01*
X48000Y336052D01*
X49000D01*
X49500Y336552D01*
Y337552D01*
X49000Y338052D01*
X48000D01*
X47500Y338552D01*
Y339552D01*
X48000Y340052D01*
X49000D01*
X49500Y340552D01*
Y341552D01*
X49000Y342052D01*
X48000D01*
X47500Y342552D01*
Y344000D01*
X50000Y346500D01*
Y349750D01*
X49500Y350250D01*
X48000D01*
X47500Y350750D01*
Y351750D01*
X48000Y352250D01*
X51500D01*
X52000Y352750D01*
Y354000D01*
X51500Y354500D01*
X48500D01*
X48000Y355000D01*
Y357000D01*
G01X90000Y359000D02*
X89500Y359500D01*
X66000D01*
X52750Y346250D01*
Y328098D01*
X50652Y326000D01*
Y297348D01*
X54411Y293589D01*
Y286889D01*
X59650Y281650D01*
Y267150D01*
X61200Y265600D01*
Y258700D01*
X60500Y258000D01*
Y249900D01*
X89900Y220500D01*
X141000D01*
X143000Y222500D01*
X145500D01*
X146264Y223264D01*
X148735D01*
X149410Y222589D01*
Y221422D01*
X150127Y220705D01*
X154528D01*
X155808Y221985D01*
G01X59000Y349500D02*
X54794Y345294D01*
Y344051D01*
X55294Y343551D01*
X59500D01*
X60000Y343051D01*
Y342051D01*
X59500Y341551D01*
X55294D01*
X54794Y341051D01*
Y340051D01*
X55294Y339551D01*
X59500D01*
X60000Y339051D01*
Y338051D01*
X59500Y337551D01*
X55294D01*
X54794Y337051D01*
Y310707D01*
X52294Y308207D01*
Y298707D01*
X56044Y294957D01*
Y287505D01*
X61024Y282525D01*
Y268025D01*
X62449Y266600D01*
Y257948D01*
X62000Y257499D01*
Y250499D01*
X73999Y238500D01*
X74000D01*
X85500Y227000D01*
X91500D01*
X94865Y223635D01*
Y222500D01*
X95365Y222000D01*
X96365D01*
X96865Y222500D01*
Y224000D01*
X97365Y224500D01*
X98365D01*
X98865Y224000D01*
Y222500D01*
X99365Y222000D01*
X100365D01*
X100865Y222500D01*
Y224000D01*
X101365Y224500D01*
X102365D01*
X102865Y224000D01*
Y222500D01*
X103365Y222000D01*
X104365D01*
X104865Y222500D01*
Y224000D01*
X105365Y224500D01*
X106500D01*
X109000Y222000D01*
X140500D01*
X142000Y223500D01*
X144500D01*
X145100Y224100D01*
X149300D01*
X150133Y223267D01*
X151967D01*
X153249Y221985D01*
G01X158367Y219426D02*
X157078Y220715D01*
Y222512D01*
X156316Y223274D01*
X155226D01*
X154528Y223972D01*
Y225172D01*
X153886Y225814D01*
X150114D01*
X149300Y225000D01*
X141000D01*
X139500Y223500D01*
X109800D01*
X107300Y226000D01*
X94500D01*
X92000Y228500D01*
X86000D01*
X63800Y250700D01*
Y267600D01*
X62450Y268950D01*
Y283450D01*
X57750Y288150D01*
Y295250D01*
X54000Y299000D01*
Y305500D01*
X56500Y308000D01*
Y331500D01*
X69500Y344500D01*
Y348000D01*
X72500Y351000D01*
X84500D01*
X92500Y359000D01*
G01X85900Y112000D02*
X81700Y107800D01*
X66800D01*
X58000Y99000D01*
Y82500D01*
X59000Y81500D01*
G01X253000Y310000D02*
X251500Y311500D01*
Y332500D01*
X214000Y370000D01*
X168000D01*
X160500Y362500D01*
X134000D01*
X128000Y356500D01*
X93500D01*
X82700Y345700D01*
X74700D01*
X58000Y329000D01*
Y306000D01*
X57000Y305000D01*
Y298000D01*
X59250Y295750D01*
Y288950D01*
X64000Y284200D01*
Y270000D01*
X65200Y268800D01*
Y251800D01*
X87000Y230000D01*
X106000D01*
X111000Y225000D01*
X139000D01*
X139800Y225800D01*
X148799D01*
X150102Y227103D01*
X150690D01*
G01X265000Y309000D02*
X264000Y310000D01*
X256000D01*
X254200Y308200D01*
X252300D01*
X246000Y314500D01*
Y335500D01*
X213000Y368500D01*
X169500D01*
X159500Y358500D01*
X135500D01*
X131799Y354799D01*
X93800D01*
X83190Y344189D01*
X75311D01*
X59500Y328378D01*
Y304500D01*
X58500Y303500D01*
Y299000D01*
X61250Y296250D01*
Y289151D01*
X65500Y284901D01*
Y271000D01*
X69000Y267500D01*
Y250000D01*
X87500Y231500D01*
X106682D01*
X111600Y226582D01*
X138582D01*
X140382Y228382D01*
X151970D01*
X153249Y227103D01*
G01X150690Y229662D02*
X149352Y231000D01*
X146999D01*
X145999Y230000D01*
X140000D01*
X138000Y228000D01*
X112500D01*
X107628Y232872D01*
X88128D01*
X87344Y233656D01*
Y234364D01*
X87636Y234656D01*
Y235364D01*
X86929Y236071D01*
X86221D01*
X85929Y235779D01*
X85221D01*
X84514Y236486D01*
Y237194D01*
X84806Y237486D01*
Y238194D01*
X84099Y238901D01*
X83391D01*
X83099Y238609D01*
X82391D01*
X81684Y239316D01*
Y240024D01*
X81976Y240316D01*
Y241024D01*
X81269Y241731D01*
X80561D01*
X80269Y241439D01*
X79561D01*
X77000Y244000D01*
Y248000D01*
X73000Y252000D01*
Y267501D01*
X67500Y273001D01*
Y284900D01*
X63000Y289400D01*
Y297500D01*
X62300Y298200D01*
Y301199D01*
X61000Y302499D01*
Y327721D01*
X75779Y342500D01*
X84000D01*
X94500Y353000D01*
X135000D01*
X138000Y356000D01*
X160000D01*
X171000Y367000D01*
X212500D01*
X242900Y336600D01*
Y335110D01*
X242550Y334760D01*
X241350D01*
X241000Y334410D01*
Y333360D01*
X241350Y333010D01*
X243604D01*
X243954Y332660D01*
Y331610D01*
X243604Y331260D01*
X241350D01*
X241000Y330910D01*
Y329860D01*
X241350Y329510D01*
X243490D01*
X243954Y329046D01*
Y328110D01*
X243604Y327760D01*
X241350D01*
X241000Y327410D01*
Y326360D01*
X241350Y326010D01*
X242550D01*
X242900Y325660D01*
Y324610D01*
X242550Y324260D01*
X241350D01*
X241000Y323910D01*
Y322860D01*
X241350Y322510D01*
X242550D01*
X242900Y322160D01*
Y306100D01*
X243000Y306000D01*
G01X240000Y306500D02*
X238500Y308000D01*
Y316523D01*
X238150Y316873D01*
X235850D01*
X235500Y317223D01*
Y318273D01*
X235850Y318623D01*
X238150D01*
X238500Y318973D01*
Y320023D01*
X238150Y320373D01*
X236350D01*
X236000Y320723D01*
Y321773D01*
X236350Y322123D01*
X238150D01*
X238500Y322473D01*
Y334500D01*
X237806Y335194D01*
X234500D01*
X234000Y335694D01*
Y336694D01*
X234500Y337194D01*
X236500D01*
X237000Y337694D01*
Y338694D01*
X236500Y339194D01*
X234500D01*
X234000Y339694D01*
Y343500D01*
X212500Y365000D01*
X172500D01*
X158000Y350500D01*
X94500D01*
X85001Y341001D01*
X76599D01*
X62500Y326902D01*
Y304500D01*
X66000Y301000D01*
Y298500D01*
X65000Y297500D01*
Y296400D01*
X65500Y295900D01*
X66500D01*
X67000Y295400D01*
Y294400D01*
X66500Y293900D01*
X65500D01*
X65000Y293400D01*
Y289400D01*
X68900Y285500D01*
Y274100D01*
X74500Y268500D01*
Y252487D01*
X79000Y247987D01*
Y246000D01*
X90700Y234300D01*
X109200D01*
X114000Y229500D01*
X137500D01*
X140300Y232300D01*
X152800D01*
X154528Y234028D01*
Y236059D01*
X153249Y237338D01*
G01X257500Y306500D02*
X251400Y300400D01*
X243600D01*
X236796Y307204D01*
Y309204D01*
X233500Y312500D01*
Y321500D01*
X236500Y324500D01*
Y330000D01*
X232000Y334500D01*
Y343500D01*
X226000Y349500D01*
X211000D01*
X206000Y344500D01*
X137000D01*
X133000Y348500D01*
X106994D01*
X106644Y348150D01*
Y346800D01*
X106344Y346500D01*
X105194D01*
X104894Y346800D01*
Y348150D01*
X104544Y348500D01*
X103494D01*
X103144Y348150D01*
Y346800D01*
X102844Y346500D01*
X101694D01*
X101394Y346800D01*
Y348150D01*
X101044Y348500D01*
X99994D01*
X99644Y348150D01*
Y346800D01*
X99344Y346500D01*
X98194D01*
X97894Y346800D01*
Y348150D01*
X97544Y348500D01*
X95000D01*
X86183Y339683D01*
X77317D01*
X64000Y326366D01*
Y305000D01*
X69500Y299500D01*
Y287500D01*
X70500Y286500D01*
Y275500D01*
X79000Y267000D01*
Y265598D01*
X78500Y265098D01*
X77000D01*
X76500Y264598D01*
Y263598D01*
X77000Y263098D01*
X78500D01*
X79000Y262598D01*
Y261598D01*
X78500Y261098D01*
X77000D01*
X76500Y260598D01*
Y259598D01*
X77000Y259098D01*
X78500D01*
X79000Y258598D01*
Y257598D01*
X78500Y257098D01*
X77000D01*
X76500Y256598D01*
Y255598D01*
X77000Y255098D01*
X78500D01*
X79000Y254598D01*
Y249816D01*
X80500Y248316D01*
Y246500D01*
X91500Y235500D01*
X110500D01*
X112500Y233500D01*
X119388D01*
X119888Y233000D01*
Y232000D01*
X120388Y231500D01*
X121388D01*
X121888Y232000D01*
Y233000D01*
X122388Y233500D01*
X149411D01*
X150690Y234779D01*
G01X261500Y306500D02*
X254000Y299000D01*
X243000D01*
X238500Y303500D01*
X235000D01*
X233500Y305000D01*
Y309000D01*
X229700Y312800D01*
Y343800D01*
X225500Y348000D01*
X215500D01*
X211000Y343500D01*
X111878D01*
X111528Y343150D01*
Y341850D01*
X111178Y341500D01*
X110128D01*
X109778Y341850D01*
Y343150D01*
X109428Y343500D01*
X108064D01*
X107714Y343150D01*
Y341850D01*
X107364Y341500D01*
X106314D01*
X105964Y341850D01*
Y343150D01*
X105614Y343500D01*
X104564D01*
X104214Y343150D01*
Y341850D01*
X103864Y341500D01*
X102814D01*
X102464Y341850D01*
Y343150D01*
X102114Y343500D01*
X101064D01*
X100714Y343150D01*
Y341850D01*
X100364Y341500D01*
X99314D01*
X98964Y341850D01*
Y343150D01*
X98614Y343500D01*
X97564D01*
X97214Y343150D01*
Y341850D01*
X96864Y341500D01*
X95814D01*
X95464Y341850D01*
Y343150D01*
X95114Y343500D01*
X92000D01*
X91350Y342850D01*
Y342142D01*
X92142Y341350D01*
Y340642D01*
X91435Y339935D01*
X90727D01*
X89935Y340727D01*
X89227D01*
X88520Y340020D01*
Y339312D01*
X89312Y338520D01*
Y337812D01*
X88605Y337105D01*
X87897D01*
X87105Y337897D01*
X86397D01*
X85690Y337190D01*
Y336482D01*
X86482Y335690D01*
Y334982D01*
X85775Y334275D01*
X85067D01*
X84275Y335067D01*
X83567D01*
X81500Y333000D01*
X74000D01*
X65500Y324500D01*
Y306000D01*
X70900Y300600D01*
Y288100D01*
X72500Y286500D01*
Y276000D01*
X80500Y268000D01*
Y250500D01*
X82500Y248500D01*
Y246500D01*
X91942Y237058D01*
X111000D01*
X113058Y235000D01*
X145500D01*
X146558Y236058D01*
X151970D01*
X153249Y234779D01*
G01X86000Y-11000D02*
X80500Y-5500D01*
Y2500D01*
X69500Y13500D01*
Y35000D01*
X94000Y59500D01*
X96740D01*
X102700Y65460D01*
Y77200D01*
X106500Y81000D01*
X114000D01*
X116500Y83500D01*
G01X98500Y92500D02*
X94000Y88000D01*
X87000D01*
X73500Y74500D01*
Y73000D01*
G01X111500Y130500D02*
X93000D01*
X91000Y128500D01*
X72500D01*
X70000Y126000D01*
G01X66000Y134000D02*
X67500Y132500D01*
X74000D01*
X76000Y134500D01*
X110000D01*
X111500Y133000D01*
G01X150690Y237338D02*
X149411Y238617D01*
X146616D01*
X144499Y236500D01*
X114000D01*
X111883Y238617D01*
X92383D01*
X84000Y247000D01*
Y249040D01*
X81900Y251140D01*
Y273750D01*
X81400Y274250D01*
X77500D01*
X77000Y274750D01*
Y275750D01*
X77500Y276250D01*
X81400D01*
X81900Y276750D01*
Y277750D01*
X81400Y278250D01*
X75000D01*
X74500Y278750D01*
Y279750D01*
X75000Y280250D01*
X81400D01*
X81900Y280750D01*
Y281750D01*
X81400Y282250D01*
X75000D01*
X74500Y282750D01*
Y283750D01*
X75000Y284250D01*
X81400D01*
X81900Y284750D01*
Y286600D01*
X79500Y289000D01*
Y296500D01*
X68500Y307500D01*
Y316000D01*
X77700Y325200D01*
X79700D01*
X93500Y339000D01*
X97913D01*
X98263Y338650D01*
Y332350D01*
X98613Y332000D01*
X99663D01*
X100013Y332350D01*
Y338650D01*
X100363Y339000D01*
X101413D01*
X101763Y338650D01*
Y332350D01*
X102113Y332000D01*
X103163D01*
X103513Y332350D01*
Y338650D01*
X103863Y339000D01*
X104913D01*
X105263Y338650D01*
Y332350D01*
X105613Y332000D01*
X106663D01*
X107013Y332350D01*
Y338650D01*
X107363Y339000D01*
X209500D01*
X217000Y346500D01*
X223500D01*
X228200Y341800D01*
Y338688D01*
X227850Y338338D01*
X226350D01*
X226000Y337988D01*
Y336938D01*
X226350Y336588D01*
X227850D01*
X228200Y336238D01*
Y309700D01*
X228900Y309000D01*
G01X74500Y327000D02*
X71000D01*
X66900Y322900D01*
Y306600D01*
X72676Y300824D01*
Y289500D01*
G01X217500Y344000D02*
X210500Y337000D01*
X127500D01*
X117500Y327000D01*
X88500D01*
X76500Y315000D01*
X71000D01*
X70000Y314000D01*
Y312000D01*
X74500Y307500D01*
X77500D01*
X79300Y305700D01*
Y299200D01*
X83400Y295100D01*
Y252100D01*
X85500Y250000D01*
Y247500D01*
X93000Y240000D01*
X113000D01*
X115000Y238000D01*
X144000D01*
X147176Y241176D01*
X151970D01*
X153249Y239897D01*
G01X98000Y244000D02*
Y250629D01*
X111500Y264129D01*
Y269500D01*
X112000Y270000D01*
X114500D01*
X115000Y270500D01*
Y271600D01*
X114500Y272100D01*
X110500D01*
X110000Y272600D01*
Y273600D01*
X110500Y274100D01*
X114000D01*
X114500Y274600D01*
Y277900D01*
X114000Y278400D01*
X110500D01*
X110000Y278900D01*
Y279900D01*
X110500Y280400D01*
X116500D01*
X117000Y280900D01*
Y281900D01*
X116500Y282400D01*
X110500D01*
X110000Y282900D01*
Y283900D01*
X110500Y284400D01*
X116500D01*
X117000Y284900D01*
Y286000D01*
X116500Y286500D01*
X106500D01*
X102500Y290500D01*
Y310500D01*
X95000Y318000D01*
X88000D01*
X81000Y311000D01*
X73600D01*
X71600Y313000D01*
G01X89500Y305000D02*
X90000Y305500D01*
Y308500D01*
X90500Y309000D01*
X91500D01*
X92000Y308500D01*
Y305000D01*
X92500Y304500D01*
X93200D01*
X93500Y304200D01*
Y303300D01*
X93200Y303000D01*
X92500D01*
X92000Y302500D01*
Y301300D01*
X92500Y300800D01*
X97000D01*
X97500Y300300D01*
Y299300D01*
X97000Y298800D01*
X92500D01*
X92000Y298300D01*
Y297300D01*
X92500Y296800D01*
X97000D01*
X97500Y296300D01*
Y295300D01*
X97000Y294800D01*
X92500D01*
X92000Y294300D01*
Y281500D01*
X92500Y281000D01*
X97200D01*
X97700Y280500D01*
Y279400D01*
X97200Y278900D01*
X96500D01*
X96000Y278400D01*
Y277400D01*
X96500Y276900D01*
X97200D01*
X97700Y276400D01*
Y275400D01*
X97200Y274900D01*
X96500D01*
X96000Y274400D01*
Y273400D01*
X96500Y272900D01*
X97200D01*
X97700Y272400D01*
Y266925D01*
X96551Y265776D01*
Y265069D01*
X97457Y264165D01*
Y263459D01*
X96749Y262751D01*
X96042D01*
X95136Y263655D01*
X94430D01*
X93721Y262946D01*
Y262240D01*
X94956Y261008D01*
X95627Y260339D01*
Y259629D01*
X94921Y258923D01*
X94214Y258922D01*
X92306Y260825D01*
X91600D01*
X90891Y260116D01*
Y259410D01*
X92797Y257509D01*
Y256799D01*
X92088Y256090D01*
X91382D01*
X90972Y256500D01*
X85500D01*
X85000Y256000D01*
Y255225D01*
X85500Y254725D01*
X90000D01*
X90500Y254225D01*
Y253225D01*
X90000Y252725D01*
X87000D01*
X86500Y252225D01*
Y251225D01*
X87000Y250725D01*
X89000D01*
X89500Y250225D01*
Y246300D01*
X91400Y244400D01*
G01X85200Y261000D02*
X85000Y261200D01*
Y264500D01*
X85500Y265000D01*
X86950D01*
X87450Y264500D01*
Y259000D01*
X87950Y258500D01*
X88950D01*
X89450Y259000D01*
Y265000D01*
X89950Y265500D01*
X93000D01*
X93500Y266000D01*
Y267272D01*
X93000Y267772D01*
X88000D01*
X87500Y268272D01*
Y269272D01*
X88000Y269772D01*
X90272D01*
X92500Y272000D01*
Y276300D01*
X91300Y277500D01*
X86000D01*
X85500Y278000D01*
Y279000D01*
X86000Y279500D01*
X89500D01*
X90000Y280000D01*
Y281000D01*
X89500Y281500D01*
X86000D01*
X85500Y282000D01*
Y283000D01*
X86000Y283500D01*
X89500D01*
X90000Y284000D01*
Y285000D01*
X89500Y285500D01*
X86000D01*
X85500Y286000D01*
Y287000D01*
X86000Y287500D01*
X89500D01*
X90000Y288000D01*
Y289200D01*
X89700Y289500D01*
X88500D01*
X88000Y290000D01*
Y298000D01*
X87500Y298500D01*
X86000D01*
X85500Y299000D01*
Y300600D01*
X86000Y301100D01*
X88000D01*
X88500Y301600D01*
Y302600D01*
X88000Y303100D01*
X86000D01*
X85500Y303600D01*
Y305000D01*
G01X88500Y315000D02*
X94000Y309500D01*
Y306500D01*
X99100Y301400D01*
Y293600D01*
X98600Y293100D01*
X94000D01*
X93500Y292600D01*
Y291600D01*
X94000Y291100D01*
X98600D01*
X99100Y290600D01*
Y289600D01*
X98600Y289100D01*
X94000D01*
X93500Y288600D01*
Y287600D01*
X94000Y287100D01*
X100600D01*
X101100Y286600D01*
Y285500D01*
X100600Y285000D01*
X94000D01*
X93500Y284500D01*
Y283500D01*
X94103Y282897D01*
X101000D01*
X101500Y282397D01*
Y281397D01*
X101000Y280897D01*
X99600D01*
X99100Y280397D01*
Y279397D01*
X99600Y278897D01*
X101000D01*
X101500Y278397D01*
Y277397D01*
X101000Y276897D01*
X99600D01*
X99100Y276397D01*
Y275397D01*
X99600Y274897D01*
X101000D01*
X101500Y274397D01*
Y273397D01*
X101000Y272897D01*
X99600D01*
X99100Y272397D01*
Y271397D01*
X99600Y270897D01*
X101000D01*
X101500Y270397D01*
Y269397D01*
X101000Y268897D01*
X99600D01*
X99100Y268397D01*
Y267397D01*
X99600Y266897D01*
X101000D01*
X101500Y266397D01*
Y265397D01*
X101000Y264897D01*
X99850D01*
X99500Y264547D01*
Y263001D01*
X97247Y260748D01*
Y260254D01*
X98037Y259464D01*
Y259038D01*
X96321Y257322D01*
X95402D01*
X94694Y256614D01*
Y255908D01*
X96198Y254404D01*
Y253698D01*
X95500Y253000D01*
X95000D01*
X93604Y254396D01*
X92896D01*
X92354Y253854D01*
Y253146D01*
X94000Y251500D01*
Y247500D01*
X93200Y246700D01*
Y243800D01*
X95000Y242000D01*
G01Y245100D02*
X96000Y246100D01*
Y251000D01*
X103000Y258000D01*
Y262300D01*
X103500Y262800D01*
X107500D01*
X108000Y263300D01*
Y264300D01*
X107500Y264800D01*
X103500D01*
X103000Y265300D01*
Y266300D01*
X103500Y266800D01*
X109000D01*
X109500Y267300D01*
Y268300D01*
X109000Y268800D01*
X103500D01*
X103000Y269300D01*
Y270300D01*
X103500Y270800D01*
X107500D01*
X108000Y271300D01*
Y272300D01*
X107500Y272800D01*
X103500D01*
X103000Y273300D01*
Y274300D01*
X103500Y274800D01*
X104700D01*
X105000Y275100D01*
Y276500D01*
X104700Y276800D01*
X103500D01*
X103000Y277300D01*
Y278300D01*
X103500Y278800D01*
X107500D01*
X108000Y279300D01*
Y280300D01*
X107500Y280800D01*
X103500D01*
X103000Y281300D01*
Y282300D01*
X103500Y282800D01*
X107500D01*
X108000Y283300D01*
Y284300D01*
X107500Y284800D01*
X103700D01*
X103000Y285500D01*
Y287500D01*
X101000Y289500D01*
Y301500D01*
X95500Y307000D01*
Y311000D01*
X91500Y315000D01*
G01X88500Y321000D02*
X105800D01*
X106300Y320500D01*
Y319400D01*
X105800Y318900D01*
X99000D01*
X98500Y318400D01*
Y317400D01*
X99000Y316900D01*
X105800D01*
X106300Y316400D01*
Y312850D01*
X105800Y312350D01*
X104500D01*
X104000Y311850D01*
Y310850D01*
X104500Y310350D01*
X105800D01*
X106300Y309850D01*
Y308850D01*
X105800Y308350D01*
X104500D01*
X104000Y307850D01*
Y306850D01*
X104500Y306350D01*
X105800D01*
X106300Y305850D01*
Y304750D01*
X105800Y304250D01*
X104500D01*
X104000Y303750D01*
Y302750D01*
X104500Y302250D01*
X105800D01*
X106300Y301750D01*
Y300750D01*
X105800Y300250D01*
X104500D01*
X104000Y299750D01*
Y298750D01*
X104500Y298250D01*
X105800D01*
X106300Y297750D01*
Y296750D01*
X105800Y296250D01*
X104500D01*
X104000Y295750D01*
Y294750D01*
X104500Y294250D01*
X105800D01*
X106300Y293750D01*
Y289700D01*
X107500Y288500D01*
X117500D01*
X119000Y287000D01*
Y280500D01*
X120000Y279500D01*
Y270000D01*
X111060Y261060D01*
Y260352D01*
X111602Y259810D01*
Y259102D01*
X110895Y258395D01*
X110187D01*
X109645Y258937D01*
X108937D01*
X108230Y258230D01*
Y257522D01*
X108772Y256980D01*
Y256272D01*
X108065Y255565D01*
X107357D01*
X106815Y256107D01*
X106107D01*
X105400Y255400D01*
Y254692D01*
X105942Y254150D01*
Y253442D01*
X105235Y252735D01*
X104527D01*
X103985Y253277D01*
X103277D01*
X99500Y249500D01*
Y245000D01*
X101500Y243000D01*
G01X123500Y254000D02*
X121000Y256500D01*
Y266000D01*
X122000Y267000D01*
Y283000D01*
X137750Y298750D01*
X139250D01*
X150200Y309700D01*
X151700D01*
X154500Y312500D01*
Y316500D01*
X160000Y322000D01*
X173500D01*
X180500Y329000D01*
X185000D01*
X189500Y333500D01*
G01X266500Y340000D02*
X259000D01*
X230000Y369000D01*
X218000D01*
X215000Y372000D01*
X166500D01*
X159500Y365000D01*
X132000D01*
X130000Y363000D01*
X116000D01*
X111500Y358500D01*
G01X128750Y256750D02*
X136637Y248863D01*
X148741D01*
X149678Y249800D01*
X151700D01*
X152641Y248859D01*
X157081D01*
X158366Y247574D01*
G01X125000Y244200D02*
X128300Y247500D01*
X148510D01*
X149854Y248844D01*
X151217D01*
X151960Y248101D01*
Y247066D01*
X152722Y246304D01*
X156316D01*
X157087Y245533D01*
Y243737D01*
X158367Y242457D01*
G01X128000Y244200D02*
X129700Y245900D01*
X147100D01*
X147485Y246285D01*
X151315D01*
X152585Y245015D01*
X153249D01*
G01X131000Y244199D02*
X132699Y242500D01*
X138500D01*
X139735Y243735D01*
X151970D01*
X153249Y242456D01*
G01X177000Y109000D02*
Y105000D01*
X174000Y102000D01*
X168500D01*
X167000Y100500D01*
Y73000D01*
X162000Y68000D01*
Y57501D01*
X159500Y55001D01*
Y42329D01*
X142500Y25329D01*
Y7000D01*
X140500Y5000D01*
G01X169500Y106000D02*
X167500D01*
X164000Y102500D01*
Y75500D01*
X159000Y70500D01*
Y59500D01*
X155500Y56000D01*
Y44000D01*
X138500Y27000D01*
Y3000D01*
X147500Y-6000D01*
X210488D01*
X217996Y1508D01*
G01X140500Y8500D02*
Y26158D01*
X157500Y43158D01*
Y55500D01*
X160500Y58500D01*
Y69500D01*
X165500Y74500D01*
Y101500D01*
X167500Y103500D01*
X173000D01*
X175000Y105500D01*
Y110000D01*
X177000Y112000D01*
X178500D01*
G01X151000Y4500D02*
X159500Y-4000D01*
X204496D01*
X217996Y9500D01*
G01X151000Y8500D02*
X152000Y9500D01*
X165043D01*
G01X192500Y160500D02*
Y155000D01*
X188800Y151300D01*
Y145300D01*
X185000Y141500D01*
Y139500D01*
X154500Y109000D01*
G01X160925Y204071D02*
Y203371D01*
X159647Y202093D01*
Y188774D01*
X150850Y179977D01*
Y167523D01*
X157350Y161023D01*
Y156977D01*
X155350Y154977D01*
Y148296D01*
X156423Y147223D01*
X157943D01*
X157966Y147200D01*
X158053D01*
X158373Y146880D01*
G01X156465Y169155D02*
X157000Y169690D01*
Y170600D01*
X156600Y171000D01*
X155073D01*
X154000Y172073D01*
Y174077D01*
X155073Y175150D01*
X157649D01*
X158000Y175501D01*
Y178173D01*
X156350Y179823D01*
Y181348D01*
X159452Y184450D01*
X160926D01*
X162000Y183376D01*
Y180809D01*
X162400Y180409D01*
X163214D01*
X163615Y180810D01*
Y187200D01*
X162450Y188365D01*
Y190578D01*
X163615Y191743D01*
Y194735D01*
X162500Y195850D01*
Y197626D01*
X163615Y198741D01*
Y201381D01*
X163484Y201512D01*
G01X158865Y169155D02*
X158150Y169870D01*
Y171077D01*
X157077Y172150D01*
X155550D01*
X155150Y172550D01*
Y173600D01*
X155550Y174000D01*
X158126D01*
X159150Y175024D01*
Y178650D01*
X157500Y180300D01*
Y180871D01*
X159929Y183300D01*
X160449D01*
X160850Y182899D01*
Y180332D01*
X161923Y179259D01*
X163691D01*
X164765Y180333D01*
Y187677D01*
X163600Y188842D01*
Y190101D01*
X164765Y191266D01*
Y195212D01*
X163650Y196327D01*
Y197149D01*
X164765Y198264D01*
Y202090D01*
X163484Y203371D01*
Y204071D01*
G01X158373Y149280D02*
X157466Y148373D01*
X156900D01*
X156500Y148773D01*
Y154500D01*
X158500Y156500D01*
Y161500D01*
X152000Y168000D01*
Y179500D01*
X160797Y188297D01*
Y201384D01*
X160925Y201512D01*
G01X302500Y226500D02*
X287000Y242000D01*
X283000D01*
X269000Y256000D01*
X264499D01*
X257999Y262500D01*
X249500D01*
X249000Y262000D01*
Y259500D01*
X248500Y259000D01*
X247500D01*
X247000Y259500D01*
Y267500D01*
X246500Y268000D01*
X244708D01*
X244208Y267500D01*
Y256500D01*
X243708Y256000D01*
X242708D01*
X242208Y256500D01*
Y267500D01*
X241708Y268000D01*
X240708D01*
X240208Y267500D01*
Y258300D01*
X239908Y258000D01*
X238508D01*
X238208Y258300D01*
Y260500D01*
X237708Y261000D01*
X235500D01*
X235000Y260500D01*
Y259000D01*
X234500Y258500D01*
X233500D01*
X233000Y259000D01*
Y262500D01*
X233500Y263000D01*
X236500D01*
X237000Y263500D01*
Y269250D01*
X237500Y269750D01*
X261900D01*
X262250Y270100D01*
Y273200D01*
X261950Y273500D01*
X260550D01*
X260250Y273200D01*
Y272250D01*
X259750Y271750D01*
X258750D01*
X258250Y272250D01*
Y273700D01*
X257950Y274000D01*
X256550D01*
X256250Y273700D01*
Y272250D01*
X255750Y271750D01*
X237500D01*
X237000Y272250D01*
Y273250D01*
X237500Y273750D01*
X251500D01*
X252000Y274250D01*
Y275250D01*
X251500Y275750D01*
X237500D01*
X237000Y276250D01*
Y277250D01*
X237500Y277750D01*
X251500D01*
X252000Y278250D01*
Y279250D01*
X251500Y279750D01*
X248506D01*
X248006Y280250D01*
Y282000D01*
X247506Y282500D01*
X246506D01*
X246006Y282000D01*
Y280250D01*
X245506Y279750D01*
X244506D01*
X244006Y280250D01*
Y282000D01*
X243506Y282500D01*
X242506D01*
X242006Y282000D01*
Y280250D01*
X241506Y279750D01*
X237500D01*
X237000Y280250D01*
Y281200D01*
X236700Y281500D01*
X227500D01*
X227000Y281000D01*
Y279900D01*
X227500Y279400D01*
X234700D01*
X235000Y279100D01*
Y278400D01*
X234500Y277900D01*
X227500D01*
X227000Y277400D01*
Y276400D01*
X227500Y275900D01*
X234500D01*
X235000Y275400D01*
Y274400D01*
X234500Y273900D01*
X227500D01*
X227000Y273400D01*
Y272400D01*
X227500Y271900D01*
X234500D01*
X235000Y271400D01*
Y270400D01*
X234500Y269900D01*
X226500D01*
X226000Y269400D01*
Y268400D01*
X226500Y267900D01*
X234500D01*
X235000Y267400D01*
Y266400D01*
X234500Y265900D01*
X227500D01*
X227000Y265400D01*
Y261222D01*
X227500Y260722D01*
X230500D01*
X231000Y260222D01*
Y259222D01*
X230500Y258722D01*
X227500D01*
X227000Y258222D01*
Y257000D01*
X226500Y256500D01*
X216500D01*
X211403Y251403D01*
X190903D01*
X190350Y250850D01*
Y221350D01*
X189700Y220700D01*
X183200D01*
X180650Y218150D01*
X175150D01*
X174500Y217500D01*
Y215000D01*
X172525Y213025D01*
X160475D01*
X159650Y213850D01*
Y227850D01*
X159120Y228380D01*
X154531D01*
X153249Y229662D01*
G01X158367Y262929D02*
X156500Y264796D01*
Y270000D01*
X155516Y270984D01*
Y302716D01*
X158081Y305281D01*
Y306581D01*
X159000Y307500D01*
X159692D01*
X160596Y308404D01*
Y309596D01*
X161500Y310500D01*
X162692D01*
X164464Y312272D01*
G01X158040Y137427D02*
X158850Y138237D01*
Y139977D01*
X160923Y142050D01*
X164923D01*
X166891Y144018D01*
Y145982D01*
X165500Y147373D01*
Y152627D01*
X166625Y153752D01*
Y154248D01*
X165500Y155373D01*
Y156893D01*
X166769Y158162D01*
X168231D01*
X169385Y157008D01*
X169881D01*
X170591Y157718D01*
Y158282D01*
X169133Y159740D01*
Y161260D01*
X174325Y166452D01*
Y169475D01*
X173925Y169875D01*
X173073D01*
X172000Y170948D01*
Y172702D01*
X173073Y173775D01*
X173925D01*
X174325Y174175D01*
Y174975D01*
X173925Y175375D01*
X173073D01*
X172000Y176448D01*
Y178202D01*
X173073Y179275D01*
X173925D01*
X174325Y179675D01*
Y181548D01*
X171150Y184723D01*
Y202350D01*
X170700Y202800D01*
Y203550D01*
X171150Y204000D01*
Y204600D01*
X170750Y205000D01*
X170413D01*
X169713Y205700D01*
Y206160D01*
X169186Y206687D01*
X167679D01*
X166819Y207550D01*
X166444D01*
X166044Y207150D01*
Y206630D01*
G01Y209190D02*
X166534Y208700D01*
X167297D01*
X168157Y207837D01*
X169663D01*
X170526Y206973D01*
X172300Y205200D01*
Y185200D01*
X175475Y182025D01*
Y179198D01*
X174402Y178125D01*
X173550D01*
X173150Y177725D01*
Y176925D01*
X173550Y176525D01*
X174402D01*
X175475Y175452D01*
Y173698D01*
X174402Y172625D01*
X173550D01*
X173150Y172225D01*
Y171425D01*
X173550Y171025D01*
X174402D01*
X175475Y169952D01*
Y165975D01*
X170283Y160783D01*
Y160217D01*
X171741Y158759D01*
Y157241D01*
X170358Y155858D01*
X168908D01*
X167754Y157012D01*
X167246D01*
X166650Y156416D01*
Y155850D01*
X167775Y154725D01*
Y153275D01*
X166650Y152150D01*
Y147850D01*
X168041Y146459D01*
Y143541D01*
X165400Y140900D01*
X161400D01*
X160000Y139500D01*
Y137867D01*
X160440Y137427D01*
G01X168602Y201512D02*
X168733Y201381D01*
Y182639D01*
X169350Y182022D01*
Y165978D01*
X162686Y159314D01*
Y146063D01*
X162123Y145500D01*
X161000D01*
G01X168602Y204071D02*
Y203371D01*
X169883Y202090D01*
Y183116D01*
X170500Y182499D01*
Y165501D01*
X163836Y158837D01*
Y145586D01*
X162700Y144450D01*
Y143800D01*
G01X166043Y201512D02*
X166174Y201381D01*
Y176061D01*
X165823Y175710D01*
X161747D01*
X160674Y174637D01*
Y171273D01*
X161747Y170200D01*
X163700D01*
X165000Y171500D01*
X166100D01*
X166500Y171100D01*
Y170050D01*
X166100Y169650D01*
X165423D01*
X164350Y168577D01*
Y167727D01*
X163550Y166927D01*
G01X166043Y204071D02*
Y203371D01*
X167324Y202090D01*
Y175584D01*
X166300Y174560D01*
X162224D01*
X161824Y174160D01*
Y171750D01*
X162224Y171350D01*
X163223D01*
X164523Y172650D01*
X166577D01*
X167650Y171577D01*
Y169573D01*
X166577Y168500D01*
X165900D01*
X165500Y168100D01*
Y167377D01*
X165950Y166927D01*
G01X164463Y287668D02*
Y286536D01*
X166000Y284999D01*
Y283050D01*
X165650Y282700D01*
X163900D01*
X163181Y281981D01*
Y278681D01*
X162200Y277700D01*
Y266350D01*
X161850Y266000D01*
X160350D01*
X160000Y265650D01*
Y265000D01*
X160500Y264500D01*
Y263500D01*
X160000Y263000D01*
Y262200D01*
X160500Y261700D01*
Y261001D01*
X160148Y260649D01*
X157550D01*
X157200Y260299D01*
Y259550D01*
X157550Y259200D01*
X161650D01*
X162000Y259550D01*
Y263850D01*
X162350Y264200D01*
X165693D01*
X166044Y263849D01*
Y262929D01*
G01X163485Y260370D02*
Y260485D01*
X164650Y261650D01*
X172050D01*
X172400Y262000D01*
Y265150D01*
X172050Y265500D01*
X171350D01*
X171000Y265150D01*
Y264000D01*
X170500Y263500D01*
X170000D01*
X169500Y264000D01*
Y264500D01*
X168700Y265300D01*
Y270150D01*
X169050Y270500D01*
X170000D01*
X170500Y271000D01*
Y280000D01*
X171000Y280500D01*
Y292150D01*
X170650Y292500D01*
X167500D01*
X167023Y292023D01*
Y290817D01*
G01Y312272D02*
Y312024D01*
X160640Y305641D01*
Y301940D01*
X158100Y299400D01*
Y283600D01*
X156700Y282200D01*
Y271800D01*
X158000Y270500D01*
Y265898D01*
X158367Y265531D01*
G01X164464Y305973D02*
Y299546D01*
X164113Y299195D01*
X162350D01*
X162000Y298845D01*
Y294850D01*
X162350Y294500D01*
X162827D01*
X163177Y294150D01*
Y293387D01*
X162827Y293037D01*
X162350D01*
X162000Y292687D01*
Y291987D01*
X162350Y291637D01*
X162827D01*
X163177Y291287D01*
Y290587D01*
X162827Y290237D01*
X162350D01*
X162000Y289887D01*
Y289187D01*
X162350Y288837D01*
X162827D01*
X163177Y288487D01*
Y283676D01*
X162501Y283000D01*
X161500D01*
X160000Y281500D01*
Y279000D01*
X160900Y278100D01*
Y272000D01*
G01X168603Y262929D02*
X167500Y264032D01*
Y265550D01*
X167150Y265900D01*
X165350D01*
X165000Y266250D01*
Y266950D01*
X165350Y267300D01*
X167150D01*
X167500Y267650D01*
Y268350D01*
X167150Y268700D01*
X165350D01*
X165000Y269050D01*
Y269750D01*
X165350Y270100D01*
X167150D01*
X167500Y270450D01*
Y271650D01*
X167850Y272000D01*
X168650D01*
X169000Y272350D01*
Y279500D01*
X168305Y280195D01*
Y289195D01*
X168000Y289500D01*
X167373D01*
X167023Y289150D01*
Y287668D01*
G01X160920Y269600D02*
X159850D01*
X159500Y269950D01*
Y277000D01*
X158098Y278402D01*
Y281398D01*
X160617Y283917D01*
Y289413D01*
X160267Y289763D01*
X159850D01*
X159500Y290113D01*
Y290813D01*
X159850Y291163D01*
X160267D01*
X160617Y291513D01*
Y299616D01*
X163200Y302199D01*
Y306500D01*
X165823Y309123D01*
X167023D01*
G01X163485Y265488D02*
Y271350D01*
X163835Y271700D01*
X165650D01*
X166000Y272050D01*
Y272750D01*
X165650Y273100D01*
X163835D01*
X163485Y273450D01*
Y274150D01*
X163835Y274500D01*
X165650D01*
X166000Y274850D01*
Y275550D01*
X165650Y275900D01*
X163835D01*
X163485Y276250D01*
Y276984D01*
X163901Y277400D01*
X166150D01*
X166500Y277750D01*
Y278395D01*
X166150Y278745D01*
X164850D01*
X164500Y279095D01*
Y279795D01*
X164850Y280145D01*
X166650D01*
X167000Y280495D01*
Y285700D01*
X165748Y286952D01*
Y294650D01*
X165398Y295000D01*
X164350D01*
X164000Y295350D01*
Y296000D01*
X164350Y296350D01*
X166322D01*
X167023Y295649D01*
Y293817D01*
G01X184876Y112155D02*
X184200Y111479D01*
Y102073D01*
X174050Y91923D01*
Y51450D01*
X176500Y49000D01*
X180100D01*
X181500Y50400D01*
Y52000D01*
X179000Y54500D01*
G01X184000Y44500D02*
X180650Y47850D01*
X176023D01*
X172900Y50973D01*
Y92400D01*
X183050Y102550D01*
Y111481D01*
X182376Y112155D01*
G01X191775Y111802D02*
X191100Y111127D01*
Y98600D01*
X177000Y84500D01*
Y69128D01*
X184500Y61628D01*
Y51000D01*
X186850Y48650D01*
X190150D01*
X191217Y49717D01*
Y52283D01*
X189000Y54500D01*
G01X189275Y111802D02*
X189950Y111127D01*
Y99077D01*
X175850Y84977D01*
Y68651D01*
X183350Y61151D01*
Y50523D01*
X186373Y47500D01*
X191000D01*
X194000Y44500D01*
G01X169000Y99500D02*
Y95000D01*
X170900Y93100D01*
Y84500D01*
X169000Y82600D01*
G01X169582Y293967D02*
X168300Y295249D01*
Y301300D01*
X169000Y302000D01*
X173000D01*
X173800Y301200D01*
Y260800D01*
X172100Y259100D01*
X169873D01*
X168603Y260370D01*
G01X224000Y259000D02*
X222000Y261000D01*
X212500D01*
X208000Y256500D01*
X178300D01*
X177524Y257276D01*
Y259125D01*
X176279Y260370D01*
G01X183956Y257811D02*
X183188D01*
X181932Y259067D01*
X180550D01*
X180120Y259497D01*
Y261120D01*
X180650Y261650D01*
X181950D01*
X182700Y262400D01*
Y266600D01*
X182350Y266950D01*
X180750D01*
X178000Y269700D01*
Y282042D01*
X178573Y282615D01*
Y283442D01*
X178000Y284015D01*
Y285500D01*
X178500Y286000D01*
X180250D01*
X181100Y286850D01*
Y288400D01*
X180300Y289200D01*
X178650D01*
X178000Y289850D01*
Y292150D01*
X178350Y292500D01*
X180501D01*
X181093Y293092D01*
Y293617D01*
X181443Y293967D01*
X182377D01*
G01X169582Y297117D02*
Y300253D01*
X169932Y300603D01*
X172050D01*
X172400Y300253D01*
Y299176D01*
X172050Y298826D01*
X171350D01*
X171000Y298476D01*
Y297776D01*
X171350Y297426D01*
X172050D01*
X172400Y297076D01*
Y296376D01*
X172050Y296026D01*
X171350D01*
X171000Y295676D01*
Y294976D01*
X171350Y294626D01*
X172050D01*
X172400Y294276D01*
Y278900D01*
X172000Y278500D01*
Y277176D01*
X172400Y276776D01*
Y275776D01*
X172000Y275376D01*
Y274376D01*
X172400Y273976D01*
Y272976D01*
X172000Y272576D01*
Y271576D01*
X172400Y271176D01*
Y270042D01*
X172050Y269692D01*
X171850D01*
X171500Y269342D01*
Y268642D01*
X171850Y268292D01*
X172050D01*
X172400Y267942D01*
Y266992D01*
X172050Y266642D01*
X169984D01*
G01X181397Y262929D02*
X181071D01*
X175200Y268800D01*
Y303200D01*
X176900Y304900D01*
X179600D01*
X181000Y303500D01*
Y298000D01*
X179818Y296818D01*
Y293967D01*
G01X181397Y265488D02*
X180513D01*
X176600Y269401D01*
Y286746D01*
X176950Y287096D01*
X177650D01*
X178000Y287446D01*
Y288146D01*
X177650Y288496D01*
X176950D01*
X176600Y288846D01*
Y293501D01*
X176950Y293851D01*
X178150D01*
X178500Y294201D01*
Y294901D01*
X178150Y295251D01*
X176950D01*
X176600Y295601D01*
Y302600D01*
X177500Y303500D01*
X178902D01*
X179253Y303149D01*
Y302389D01*
X179000Y302136D01*
X178350D01*
X178000Y301786D01*
Y301150D01*
X178350Y300800D01*
X179350D01*
X179700Y300450D01*
Y298800D01*
X178322Y297422D01*
G01X197500Y112500D02*
X196650Y111650D01*
X195423D01*
X193350Y109577D01*
Y94350D01*
X180850Y81850D01*
Y69522D01*
X193350Y57022D01*
Y50523D01*
X196873Y47000D01*
X201500D01*
X204000Y44500D01*
G01X197500Y110000D02*
X197000Y110500D01*
X195900D01*
X194500Y109100D01*
Y93873D01*
X182000Y81373D01*
Y69999D01*
X194500Y57499D01*
Y51000D01*
X197350Y48150D01*
X202150D01*
X202913Y48913D01*
Y53587D01*
X202000Y54500D01*
X199000D01*
G01X191633Y229662D02*
X193791Y231820D01*
X203680D01*
X206000Y229500D01*
X213000D01*
X216300Y226200D01*
X230300D01*
X253500Y203000D01*
Y119000D01*
X249500Y115000D01*
Y104000D01*
X245000Y99500D01*
X238000D01*
X229500Y108000D01*
X212500D01*
X211300Y106800D01*
X202800D01*
X199500Y103500D01*
Y90500D01*
X186000Y77000D01*
X184000D01*
G01X210500Y126000D02*
X209500Y125000D01*
Y122500D01*
X203500Y116500D01*
X183000D01*
X178500Y112000D01*
G01X184000Y126500D02*
X186000Y124500D01*
X191000D01*
X196000Y129500D01*
X198000D01*
X206000Y137500D01*
Y147199D01*
X207800Y148999D01*
Y164200D01*
X205500Y166500D01*
Y177000D01*
X202500Y180000D01*
Y190500D01*
X200900Y192100D01*
Y196799D01*
X198199Y199500D01*
X196869D01*
X190354Y206015D01*
Y210469D01*
X189074Y211749D01*
G01X186500Y126500D02*
X190500D01*
X200500Y136500D01*
Y140000D01*
X203500Y143000D01*
Y176750D01*
X200750Y179500D01*
Y190250D01*
X199500Y191500D01*
Y196300D01*
X197800Y198000D01*
X196500D01*
X192800Y201700D01*
Y202237D01*
X187794Y207243D01*
Y210470D01*
X186515Y211749D01*
G01X194192Y224544D02*
X195500Y223236D01*
Y221500D01*
X194646Y220646D01*
X193687D01*
X192973Y219932D01*
Y218972D01*
X192148Y218147D01*
X191000D01*
X190353Y217500D01*
Y213653D01*
X189700Y213000D01*
X185795D01*
X185295Y212500D01*
Y205795D01*
X183100Y203600D01*
Y193900D01*
X185000Y192000D01*
X188000D01*
X190000Y190000D01*
Y187600D01*
X189500Y187100D01*
G01X183957Y262929D02*
Y262157D01*
X182700Y260900D01*
Y259800D01*
X183400Y259100D01*
X187386D01*
X187694Y259408D01*
Y260192D01*
X188002Y260500D01*
X188649D01*
X188999Y260150D01*
Y259450D01*
X189349Y259100D01*
X190002D01*
X190352Y259450D01*
Y261277D01*
X189982Y261647D01*
X186847D01*
X186500Y261300D01*
Y260750D01*
X186150Y260400D01*
X185500D01*
X185200Y260700D01*
Y264166D01*
X184892Y264474D01*
X184308D01*
X184000Y264782D01*
Y265716D01*
X184308Y266024D01*
X184892D01*
X185200Y266332D01*
Y267082D01*
X184850Y267432D01*
X183750D01*
X183400Y267782D01*
Y268482D01*
X183750Y268832D01*
X184850D01*
X185200Y269182D01*
Y283801D01*
X182377Y286624D01*
Y287668D01*
G01X186515Y262929D02*
Y284185D01*
X183652Y287048D01*
Y289050D01*
X183302Y289400D01*
X181877D01*
X181100Y290177D01*
Y291511D01*
X181808Y292219D01*
X183302D01*
X183652Y292569D01*
Y295458D01*
X182305Y296805D01*
Y297300D01*
X182755Y297750D01*
X183250D01*
X186200Y294800D01*
Y293200D01*
X184936Y291936D01*
Y290817D01*
G01X191633Y260370D02*
Y262367D01*
X189790Y264210D01*
X188289D01*
X187800Y264699D01*
Y285200D01*
X186220Y286780D01*
Y291398D01*
X187500Y292678D01*
Y295500D01*
X186215Y296785D01*
Y298785D01*
X183650Y301350D01*
Y306550D01*
X182378Y307822D01*
Y309123D01*
G01X182000Y270500D02*
X182500Y270000D01*
X183650D01*
X184000Y270350D01*
Y271000D01*
X183500Y271500D01*
Y272500D01*
X184000Y273000D01*
Y273850D01*
X183650Y274200D01*
X181050D01*
X180700Y273850D01*
Y270097D01*
X180350Y269747D01*
X179753D01*
X179300Y270200D01*
Y276541D01*
X179650Y276891D01*
X182609D01*
X183000Y276500D01*
X183650D01*
X184000Y276850D01*
Y277941D01*
X183650Y278291D01*
X179750D01*
X179400Y278641D01*
Y279341D01*
X179750Y279691D01*
X180691D01*
X181252Y280252D01*
X181748D01*
X182309Y279691D01*
X183650D01*
X184000Y280041D01*
Y282450D01*
X183650Y282800D01*
X181550D01*
X181100Y283250D01*
Y285099D01*
X181502Y285501D01*
X181998D01*
X182377Y285122D01*
Y284518D01*
G01X184936Y309123D02*
Y308563D01*
X187500Y305999D01*
Y303000D01*
X191329Y299171D01*
Y295961D01*
X191637Y295653D01*
X192192D01*
X192500Y295345D01*
Y294611D01*
X192192Y294303D01*
X191637D01*
X191329Y293995D01*
Y293245D01*
X191679Y292895D01*
X192150D01*
X192500Y292545D01*
Y291850D01*
X192150Y291500D01*
X191679D01*
X191329Y291150D01*
Y285671D01*
X191700Y285300D01*
X192150D01*
X192500Y284950D01*
Y284051D01*
X192150Y283701D01*
X191850D01*
X191500Y283351D01*
Y282651D01*
X191850Y282301D01*
X192150D01*
X192500Y281951D01*
Y281251D01*
X192150Y280901D01*
X191850D01*
X191500Y280551D01*
Y279851D01*
X191850Y279501D01*
X192150D01*
X192500Y279151D01*
Y278451D01*
X192150Y278101D01*
X191850D01*
X191500Y277751D01*
Y277051D01*
X191850Y276701D01*
X192150D01*
X192500Y276351D01*
Y273000D01*
X191800Y272300D01*
Y268799D01*
X190500Y267499D01*
Y265838D01*
X190150Y265488D01*
X189074D01*
G01X182377Y312272D02*
X183649Y311000D01*
Y308151D01*
X186200Y305600D01*
Y301301D01*
X188781Y298720D01*
Y278220D01*
X190500Y276501D01*
Y270000D01*
G01X192000Y267200D02*
X192900Y268100D01*
Y271400D01*
X193890Y272390D01*
Y300910D01*
X188724Y306076D01*
Y306676D01*
X186208Y309192D01*
Y311000D01*
X184936Y312272D01*
G01X208500Y168000D02*
X206700Y169800D01*
Y177800D01*
X204500Y180000D01*
Y195000D01*
X198500Y201000D01*
X197500D01*
X192913Y205587D01*
Y215587D01*
X191633Y216867D01*
G01X194192Y211749D02*
Y211182D01*
X195472Y209902D01*
Y205528D01*
X197500Y203500D01*
X198121D01*
X209121Y192500D01*
X211000D01*
X218300Y185200D01*
Y177701D01*
X219500Y176501D01*
Y125488D01*
X220244Y124744D01*
G01X194192Y214308D02*
Y213546D01*
X198021Y209717D01*
Y205479D01*
X208000Y195500D01*
X211000D01*
X219600Y186900D01*
Y178900D01*
X221000Y177500D01*
Y153000D01*
X222500Y151500D01*
Y139500D01*
X221000Y138000D01*
Y127000D01*
X222500Y125500D01*
Y123000D01*
X215000Y115500D01*
Y111000D01*
X216530Y109470D01*
X218470D01*
X220500Y111500D01*
G01X224200Y182500D02*
Y190700D01*
X205900Y209000D01*
X204000D01*
X202531Y210469D01*
X201353D01*
X200590Y211232D01*
Y212266D01*
X199837Y213019D01*
X198802D01*
X198021Y213800D01*
Y214835D01*
X197269Y215587D01*
X196234D01*
X195481Y216340D01*
Y218138D01*
X194193Y219426D01*
G01X196751Y216867D02*
X198031Y218147D01*
X206284D01*
X232139Y192292D01*
Y181361D01*
X235200Y178300D01*
Y128201D01*
X233000Y126001D01*
Y120639D01*
X233750Y119889D01*
Y111750D01*
X239000Y106500D01*
Y101500D01*
G01X229500Y127000D02*
X232200Y129700D01*
Y176800D01*
X229000Y180000D01*
Y191500D01*
X204912Y215588D01*
X200589D01*
X199310Y216867D01*
G01X228000Y150000D02*
X229000Y151000D01*
Y155000D01*
X226500Y157500D01*
Y178500D01*
X226000Y179000D01*
Y190600D01*
X203571Y213029D01*
X201156D01*
X199877Y214308D01*
X199310D01*
G01X217000Y114400D02*
X224500Y121900D01*
Y137000D01*
X224000Y137500D01*
Y151000D01*
X225500Y152500D01*
Y154000D01*
X222500Y157000D01*
Y178500D01*
X221000Y180000D01*
Y188000D01*
X200590Y208410D01*
Y209707D01*
X199818Y210479D01*
X198783D01*
X195481Y213781D01*
Y215018D01*
X194192Y216307D01*
Y216867D01*
G01X196751Y221985D02*
X198040Y223274D01*
X200026D01*
X201300Y222000D01*
X208500D01*
X238200Y192300D01*
Y129800D01*
X239300Y128700D01*
Y111200D01*
X244500Y106000D01*
Y105000D01*
G01Y101500D02*
X241000Y105000D01*
Y107000D01*
X236000Y112000D01*
Y120000D01*
X236700Y120700D01*
Y191800D01*
X207794Y220706D01*
X198031D01*
X196751Y219426D01*
G01X248700Y127000D02*
X246700Y125000D01*
X245000D01*
X242500Y127500D01*
Y130500D01*
X241500Y131500D01*
Y180500D01*
X244000Y183000D01*
Y199000D01*
X223730Y219270D01*
X213230D01*
X209250Y223250D01*
X201250D01*
X199956Y224544D01*
X199310D01*
G01X246500Y130600D02*
X247000Y131100D01*
Y200000D01*
X225430Y221570D01*
X214130D01*
X210580Y225120D01*
X205026D01*
X203443Y226703D01*
X200080D01*
X199680Y227103D01*
X199310D01*
G01X245600Y127000D02*
X248700Y130100D01*
Y200300D01*
X226280Y222720D01*
X214580D01*
X211080Y226220D01*
X205249D01*
X203966Y227503D01*
X200996D01*
X200116Y228383D01*
X198031D01*
X196751Y227103D01*
G01X243500Y132000D02*
X245500Y134000D01*
Y149000D01*
X243000Y151500D01*
Y177500D01*
X245500Y180000D01*
Y199500D01*
X224580Y220420D01*
X213679D01*
X209914Y224185D01*
X204638D01*
X203009Y225814D01*
X198021D01*
X196751Y224544D01*
G01X242750Y113750D02*
X250500Y121500D01*
Y201000D01*
X227630Y223870D01*
X215030D01*
X211580Y227320D01*
X205472D01*
X204489Y228303D01*
X201328D01*
X199969Y229662D01*
X199310D01*
G01X246267Y114000D02*
X252000Y119733D01*
Y202000D01*
X228980Y225020D01*
X215980D01*
X212500Y228500D01*
X205500D01*
X202980Y231020D01*
X198020D01*
X196751Y229751D01*
Y229662D01*
G01X281000Y111500D02*
Y116000D01*
X279000Y118000D01*
Y125000D01*
X281500Y127500D01*
Y137500D01*
X277000Y142000D01*
Y150500D01*
X280500Y154000D01*
Y167500D01*
X285000Y172000D01*
Y186500D01*
X279500Y192000D01*
Y197500D01*
X272750Y204250D01*
Y212250D01*
X248218Y236782D01*
X234218D01*
X232000Y239000D01*
X225000D01*
X223500Y237500D01*
X207000D01*
X205559Y236059D01*
X200589D01*
X199310Y237338D01*
G01X265500Y112000D02*
X266900Y113400D01*
Y133600D01*
X263000Y137500D01*
Y209500D01*
X243900Y228600D01*
X216900D01*
X214000Y231500D01*
X206632D01*
X204712Y233420D01*
X195580D01*
X194221Y234779D01*
X194192D01*
G01X191633D02*
X193792Y232620D01*
X204380D01*
X206500Y230500D01*
X213500D01*
X216600Y227400D01*
X243100D01*
X261500Y209000D01*
Y137000D01*
X265400Y133100D01*
Y123400D01*
X263500Y121500D01*
Y108000D01*
X265000Y106500D01*
Y64500D01*
X272500Y57000D01*
Y49000D01*
X280500Y41000D01*
X286000D01*
X296500Y30500D01*
X303500D01*
X330000Y57000D01*
Y59840D01*
G01X310000Y58500D02*
X318000Y66500D01*
Y102500D01*
X319500Y104000D01*
Y125000D01*
X317500Y127000D01*
Y154500D01*
X310000Y162000D01*
Y174500D01*
X308500Y176000D01*
Y187500D01*
X305701Y190299D01*
Y198799D01*
X294500Y210000D01*
Y219000D01*
X283000Y230500D01*
Y236000D01*
X267450Y251550D01*
X257950D01*
X256000Y253500D01*
X225000D01*
X223300Y255200D01*
X217200D01*
X212000Y250000D01*
X203700D01*
X202554Y248854D01*
X200591D01*
X199311Y247574D01*
G01X193000Y333500D02*
X202000D01*
X223000Y312500D01*
Y309000D01*
X222000Y308000D01*
G01X206500Y101500D02*
X207175Y102175D01*
X208198D01*
X209350Y101023D01*
Y97350D01*
X206000Y94000D01*
Y88000D01*
X214350Y79650D01*
Y51478D01*
X212872Y50000D01*
X210500D01*
X209000Y51500D01*
Y54500D01*
G01X214000Y44500D02*
Y49501D01*
X215500Y51001D01*
Y80127D01*
X207150Y88477D01*
Y93523D01*
X210500Y96873D01*
Y101500D01*
X208675Y103325D01*
X207175D01*
X206500Y104000D01*
G01X209000Y92000D02*
X213000Y96000D01*
X246500D01*
X257000Y106500D01*
Y141000D01*
X258500Y142500D01*
Y154000D01*
X257000Y155500D01*
Y209500D01*
X243000Y223500D01*
X236000D01*
X234000Y225500D01*
G01X201250Y175850D02*
X202000Y175100D01*
Y144000D01*
X201600Y143600D01*
Y143500D01*
G01X224500Y166500D02*
Y178500D01*
X222300Y180700D01*
Y190800D01*
X209600Y203500D01*
X207500D01*
X201870Y209130D01*
Y209190D01*
G01X229000Y132400D02*
X230846Y134246D01*
Y176154D01*
X227500Y179500D01*
Y191000D01*
X204192Y214308D01*
X201870D01*
G01X234000Y182000D02*
Y192500D01*
X207074Y219426D01*
X201870D01*
G01Y237339D02*
X203331Y238800D01*
X222800D01*
X224200Y240200D01*
X232800D01*
X235018Y237982D01*
X249018D01*
X250500Y236500D01*
X254500D01*
X255700Y235300D01*
Y233300D01*
X257000Y232000D01*
X268000D01*
X269500Y230500D01*
Y221500D01*
X277500Y213500D01*
Y205500D01*
X285000Y198000D01*
Y193800D01*
X290800Y188000D01*
Y145300D01*
X287604Y142104D01*
Y140396D01*
X297000Y131000D01*
Y123329D01*
X293335Y119664D01*
Y106835D01*
X288500Y102000D01*
Y97500D01*
X285000Y94000D01*
Y90000D01*
X282500Y87500D01*
G01X286096Y87404D02*
X295000Y96308D01*
Y119500D01*
X298500Y123000D01*
Y132500D01*
X291500Y139500D01*
Y144000D01*
X292250Y144750D01*
Y193250D01*
X279000Y206500D01*
Y214000D01*
X271000Y222000D01*
Y231000D01*
X268700Y233300D01*
X265200D01*
X262800Y235700D01*
X257300D01*
X255000Y238000D01*
X251000D01*
X249500Y239500D01*
X235500D01*
X233500Y241500D01*
X223000D01*
X221500Y240000D01*
X201973D01*
X201870Y239897D01*
G01X276500Y68000D02*
X278373D01*
X278850Y68477D01*
Y78369D01*
X279923Y79442D01*
X281950D01*
X282350Y79842D01*
Y80642D01*
X281950Y81042D01*
X279923D01*
X278850Y82115D01*
Y85523D01*
X276850Y87523D01*
Y102023D01*
X274850Y104023D01*
Y109429D01*
X274550Y109729D01*
X272973D01*
X272000Y110702D01*
Y112556D01*
X272973Y113529D01*
X274550D01*
X274850Y113829D01*
Y114729D01*
X274550Y115029D01*
X272973D01*
X272000Y116002D01*
Y117856D01*
X272973Y118829D01*
X274550D01*
X274850Y119129D01*
Y125478D01*
X277350Y127978D01*
Y137023D01*
X272000Y142373D01*
Y153500D01*
X273850Y155350D01*
Y175760D01*
X277423Y179333D01*
X280950D01*
X281350Y179733D01*
Y180533D01*
X280950Y180933D01*
X277423D01*
X276350Y182006D01*
Y183760D01*
X277423Y184833D01*
X280950D01*
X281350Y185233D01*
Y186033D01*
X280950Y186433D01*
X277423D01*
X276350Y187506D01*
Y196023D01*
X274940Y197433D01*
X270939D01*
X269500Y198872D01*
Y211500D01*
X246768Y234232D01*
X232268D01*
X230150Y236350D01*
X225850D01*
X224000Y234500D01*
X213999D01*
X212349Y232850D01*
X206950D01*
X205021Y234779D01*
X204429D01*
G01X276500Y65500D02*
X277850Y66850D01*
X278850D01*
X280000Y68000D01*
Y77892D01*
X280400Y78292D01*
X282427D01*
X283500Y79365D01*
Y81119D01*
X282427Y82192D01*
X280400D01*
X280000Y82592D01*
Y86000D01*
X278000Y88000D01*
Y102500D01*
X276000Y104500D01*
Y109906D01*
X275027Y110879D01*
X273450D01*
X273150Y111179D01*
Y112079D01*
X273450Y112379D01*
X275027D01*
X276000Y113352D01*
Y115206D01*
X275027Y116179D01*
X273450D01*
X273150Y116479D01*
Y117379D01*
X273450Y117679D01*
X275027D01*
X276000Y118652D01*
Y125001D01*
X278500Y127501D01*
Y137500D01*
X273150Y142850D01*
Y153023D01*
X275000Y154873D01*
Y175283D01*
X277900Y178183D01*
X281427D01*
X282500Y179256D01*
Y181010D01*
X281427Y182083D01*
X277900D01*
X277500Y182483D01*
Y183283D01*
X277900Y183683D01*
X281427D01*
X282500Y184756D01*
Y186510D01*
X281427Y187583D01*
X277900D01*
X277500Y187983D01*
Y196500D01*
X275417Y198583D01*
X271416D01*
X270650Y199349D01*
Y211977D01*
X247245Y235382D01*
X232745D01*
X230627Y237500D01*
X225373D01*
X223523Y235650D01*
X213522D01*
X211872Y234000D01*
X210162D01*
X209762Y234400D01*
X208862D01*
X208462Y234000D01*
X207427D01*
X206988Y234439D01*
Y234779D01*
G01X279400Y62500D02*
X279800Y62900D01*
Y64427D01*
X281523Y66150D01*
X286279D01*
X286679Y66550D01*
Y70800D01*
X287752Y71873D01*
X289506D01*
X290579Y70800D01*
Y66550D01*
X290979Y66150D01*
X292449D01*
X292850Y66551D01*
Y76463D01*
X292450Y76863D01*
X290573D01*
X289500Y77936D01*
Y79690D01*
X290573Y80763D01*
X292450D01*
X292850Y81163D01*
Y81963D01*
X292450Y82363D01*
X290573D01*
X289500Y83436D01*
Y85190D01*
X290573Y86263D01*
X293262D01*
X301250Y94251D01*
Y103124D01*
X300350Y104024D01*
Y117477D01*
X304350Y121477D01*
Y130151D01*
X298200Y136301D01*
Y154173D01*
X294350Y158023D01*
Y194150D01*
X280850Y207650D01*
Y217022D01*
X272500Y225372D01*
Y232000D01*
X265000Y239500D01*
X251500D01*
X249814Y241186D01*
X236315D01*
X234651Y242850D01*
X221849D01*
X220185Y241186D01*
X206461D01*
X205191Y242456D01*
X204429D01*
G01X206988Y247574D02*
X207108Y247454D01*
X208154D01*
X208677Y247977D01*
X209366D01*
X209889Y247454D01*
X210582D01*
X211128Y248000D01*
X211782D01*
X212328Y247454D01*
X213328D01*
X215874Y250000D01*
X247627D01*
X249477Y248150D01*
X266477D01*
X279650Y234977D01*
Y229477D01*
X290150Y218977D01*
Y208977D01*
X301650Y197477D01*
Y174478D01*
X305000Y171128D01*
Y162500D01*
X314500Y152998D01*
Y113500D01*
X311500Y110500D01*
Y70000D01*
X304000Y62500D01*
Y49501D01*
X301599Y47100D01*
X298600D01*
X298000Y46500D01*
G01X201870Y247574D02*
X202574D01*
X204000Y249000D01*
X213000D01*
X217700Y253700D01*
X222800D01*
X224500Y252000D01*
X255499D01*
X257499Y250000D01*
X267000D01*
X281500Y235500D01*
Y230000D01*
X292500Y219000D01*
Y210000D01*
X303700Y198800D01*
Y175800D01*
X307500Y172000D01*
Y162500D01*
X316000Y154000D01*
Y126000D01*
X318000Y124000D01*
Y105500D01*
X316000Y103500D01*
Y96000D01*
X314000Y94000D01*
Y65500D01*
X308000Y59500D01*
Y39500D01*
X301000Y32500D01*
G01X204429Y247574D02*
X205191D01*
X206461Y246304D01*
X213805D01*
X216351Y248850D01*
X247150D01*
X249000Y247000D01*
X266000D01*
X278500Y234500D01*
Y229000D01*
X289000Y218500D01*
Y208500D01*
X300500Y197000D01*
Y174001D01*
X303850Y170651D01*
Y162023D01*
X308937Y156936D01*
X313350Y152521D01*
Y113977D01*
X310350Y110977D01*
Y70477D01*
X302850Y62977D01*
Y49978D01*
X301122Y48250D01*
X298772D01*
X298072Y48950D01*
G01X289800Y62500D02*
X289700D01*
X288650Y61450D01*
Y60976D01*
X289126Y60500D01*
X295501D01*
X297000Y61999D01*
Y62499D01*
X297501Y63000D01*
X298001D01*
X299922Y64921D01*
Y65485D01*
X300437Y66000D01*
X301001D01*
X301850Y66849D01*
Y80977D01*
X303105Y82232D01*
X305450D01*
X305850Y82632D01*
Y83432D01*
X305450Y83832D01*
X304073D01*
X303000Y84905D01*
Y86659D01*
X304073Y87732D01*
X305450D01*
X305850Y88132D01*
Y103650D01*
X303850Y105650D01*
Y114478D01*
X307350Y117978D01*
Y132651D01*
X302850Y137151D01*
Y155524D01*
X297350Y161024D01*
Y195650D01*
X286000Y207000D01*
Y216872D01*
X275500Y227372D01*
Y233372D01*
X264872Y244000D01*
X260000D01*
X259600Y243600D01*
X258900D01*
X258500Y244000D01*
X238000D01*
X236150Y245850D01*
X216977D01*
X214872Y243745D01*
X206461D01*
X205191Y245015D01*
X204429D01*
G01X287238Y62437D02*
X287500Y62175D01*
Y60499D01*
X288649Y59350D01*
X295978D01*
X303000Y66372D01*
Y80500D01*
X303582Y81082D01*
X305927D01*
X307000Y82155D01*
Y83909D01*
X305927Y84982D01*
X304550D01*
X304150Y85382D01*
Y86182D01*
X304550Y86582D01*
X305927D01*
X307000Y87655D01*
Y104127D01*
X305000Y106127D01*
Y114001D01*
X308500Y117501D01*
Y133128D01*
X304000Y137628D01*
Y156001D01*
X298500Y161501D01*
Y196127D01*
X287150Y207477D01*
Y217349D01*
X276650Y227849D01*
Y233849D01*
X265349Y245150D01*
X238477D01*
X236627Y247000D01*
X216500D01*
X214395Y244895D01*
X207108D01*
X207001Y245001D01*
X206988Y245015D01*
G01X281800Y62500D02*
X280950Y63350D01*
Y63950D01*
X282000Y65000D01*
X286756D01*
X287829Y66073D01*
Y70323D01*
X288229Y70723D01*
X289029D01*
X289429Y70323D01*
Y66073D01*
X290502Y65000D01*
X292926D01*
X294000Y66074D01*
Y76940D01*
X292927Y78013D01*
X291050D01*
X290650Y78413D01*
Y79213D01*
X291050Y79613D01*
X292927D01*
X294000Y80686D01*
Y82440D01*
X292927Y83513D01*
X291050D01*
X290650Y83913D01*
Y84713D01*
X291050Y85113D01*
X293739D01*
X302400Y93774D01*
Y103601D01*
X301500Y104501D01*
Y117000D01*
X305500Y121000D01*
Y130628D01*
X299350Y136778D01*
Y154650D01*
X295500Y158500D01*
Y194627D01*
X282000Y208127D01*
Y217499D01*
X273650Y225849D01*
Y232477D01*
X265477Y240650D01*
X251977D01*
X250291Y242336D01*
X236792D01*
X235128Y244000D01*
X221372D01*
X219708Y242336D01*
X214163D01*
X213799Y242700D01*
X212910D01*
X212546Y242336D01*
X211955D01*
X211646Y242645D01*
X210455D01*
X210146Y242336D01*
X207108D01*
X206988Y242456D01*
G01X237500Y225500D02*
X243000D01*
X260000Y208500D01*
Y136500D01*
X264000Y132500D01*
Y125000D01*
X262000Y123000D01*
Y107000D01*
X257000Y102000D01*
Y100000D01*
X226000Y69000D01*
X219500D01*
X217500Y67000D01*
G01X218500Y106000D02*
X227000Y97500D01*
X245000D01*
X253100Y105600D01*
Y115000D01*
X255526Y117426D01*
Y142500D01*
X257000Y143974D01*
Y153500D01*
X255526Y154974D01*
Y208474D01*
X244500Y219500D01*
X240000D01*
X238000Y221500D01*
G01X241500Y185500D02*
Y193000D01*
X229800Y204700D01*
Y209700D01*
X223600Y215900D01*
X220100D01*
X218500Y217500D01*
G01X216000D02*
X218800Y214700D01*
X222800D01*
X225812Y211688D01*
Y206688D01*
X239700Y192800D01*
Y130300D01*
X240600Y129400D01*
Y111900D01*
X247500Y105000D01*
G01X215500Y232700D02*
X218400Y229800D01*
X244700D01*
X264500Y210000D01*
Y183000D01*
X266500Y181000D01*
Y174000D01*
X264500Y172000D01*
Y139500D01*
X265500Y138500D01*
G01X297000Y246500D02*
X295000Y244500D01*
X282500D01*
X266041Y260959D01*
X265617D01*
X264291Y259633D01*
X263867D01*
X263442Y260058D01*
Y260482D01*
X264768Y261808D01*
Y262232D01*
X264343Y262657D01*
X263919D01*
X262593Y261331D01*
X262169D01*
X261744Y261756D01*
Y262180D01*
X264000Y264436D01*
Y265447D01*
X263700Y265747D01*
X261300D01*
X261000Y266047D01*
Y267147D01*
X261300Y267447D01*
X263700D01*
X264000Y267747D01*
Y274000D01*
X258971Y279029D01*
X258545D01*
X257610Y278094D01*
X256905D01*
X256196Y278803D01*
Y279510D01*
X257880Y281194D01*
Y281620D01*
X256891Y282609D01*
X256465D01*
X254780Y280924D01*
X254075D01*
X253366Y281633D01*
Y282338D01*
X255551Y284523D01*
Y284949D01*
X254489Y286011D01*
X254063D01*
X250880Y282828D01*
X250172D01*
X249392Y283608D01*
Y284316D01*
X252290Y287214D01*
Y287710D01*
X238000Y302000D01*
X233000D01*
X225500Y309500D01*
Y319000D01*
X220976Y323524D01*
Y328181D01*
X220626Y328531D01*
X218350D01*
X218000Y328881D01*
Y329931D01*
X218350Y330281D01*
X220626D01*
X220976Y330631D01*
Y331681D01*
X220626Y332031D01*
X218350D01*
X218000Y332381D01*
Y333431D01*
X218350Y333781D01*
X220626D01*
X220976Y334131D01*
Y335081D01*
X220626Y335431D01*
X218350D01*
X218000Y335781D01*
Y336831D01*
X218350Y337181D01*
X220700D01*
X221000Y337481D01*
Y338631D01*
X220700Y338931D01*
X218350D01*
X218000Y339281D01*
Y340331D01*
X218350Y340681D01*
X220626D01*
X220976Y341031D01*
Y344000D01*
G01X332328Y128672D02*
X329328D01*
X323300Y134700D01*
Y151300D01*
X326000Y154000D01*
Y162500D01*
X320000Y168500D01*
Y187500D01*
X324500Y192000D01*
Y196500D01*
X320300Y200700D01*
X316800D01*
X315000Y202500D01*
Y207000D01*
X305000Y217000D01*
Y222500D01*
X306500Y224000D01*
Y230000D01*
X300500Y236000D01*
Y245000D01*
X302000Y246500D01*
Y251500D01*
X296500Y257000D01*
X285000D01*
X282000Y260000D01*
Y264500D01*
X279500Y267000D01*
Y283500D01*
X278500Y284500D01*
Y289500D01*
X276703Y291297D01*
Y302797D01*
X254500Y325000D01*
Y334500D01*
X235500Y353500D01*
Y361500D01*
X231500Y365500D01*
X222000D01*
G01X224500Y166500D02*
Y157000D01*
X227000Y154500D01*
Y152000D01*
X225500Y150500D01*
Y138500D01*
X226000Y138000D01*
Y119500D01*
X229000Y116500D01*
Y111500D01*
G01X228000Y150000D02*
X227000Y149000D01*
Y132000D01*
X229500Y129500D01*
G01X226500Y232500D02*
Y233373D01*
X226977Y233850D01*
X228520D01*
X231022Y231350D01*
X245650D01*
X266350Y210650D01*
Y196023D01*
X268053Y194320D01*
X272450D01*
X272850Y193920D01*
Y193120D01*
X272450Y192720D01*
X269423D01*
X268350Y191647D01*
Y189893D01*
X269423Y188820D01*
X272450D01*
X272850Y188420D01*
Y187620D01*
X272450Y187220D01*
X269423D01*
X268350Y186147D01*
Y184393D01*
X269423Y183320D01*
X272450D01*
X272850Y182920D01*
Y182120D01*
X272450Y181720D01*
X269423D01*
X268350Y180647D01*
Y178893D01*
X269423Y177820D01*
X271050D01*
X271350Y177520D01*
Y176520D01*
X271050Y176220D01*
X269923D01*
X268850Y175147D01*
Y156977D01*
X266850Y154977D01*
Y139650D01*
X269000Y137500D01*
Y134372D01*
X272350Y131022D01*
Y127477D01*
X268850Y123977D01*
Y99523D01*
X271925Y96448D01*
Y94925D01*
X271525Y94525D01*
X268573D01*
X267500Y93452D01*
Y90693D01*
X268573Y89620D01*
X272450D01*
X272850Y89220D01*
Y88420D01*
X272450Y88020D01*
X268573D01*
X267500Y86947D01*
Y85193D01*
X268573Y84120D01*
X271450D01*
X271850Y83720D01*
Y82920D01*
X271450Y82520D01*
X268573D01*
X267500Y81447D01*
Y79693D01*
X268573Y78620D01*
X271450D01*
X271850Y78220D01*
Y77420D01*
X271450Y77020D01*
X268573D01*
X267500Y75947D01*
Y74193D01*
X268573Y73120D01*
X271450D01*
X271850Y72720D01*
Y71920D01*
X271450Y71520D01*
X268573D01*
X267500Y70447D01*
Y67000D01*
X269000Y65500D01*
X270373D01*
X271925Y63948D01*
Y63225D01*
X271200Y62500D01*
G01X273800D02*
X273075Y63225D01*
Y64425D01*
X270850Y66650D01*
X269477D01*
X268650Y67477D01*
Y69970D01*
X269050Y70370D01*
X271927D01*
X273000Y71443D01*
Y73197D01*
X271927Y74270D01*
X269050D01*
X268650Y74670D01*
Y75470D01*
X269050Y75870D01*
X271927D01*
X273000Y76943D01*
Y78697D01*
X271927Y79770D01*
X269050D01*
X268650Y80170D01*
Y80970D01*
X269050Y81370D01*
X271927D01*
X273000Y82443D01*
Y84197D01*
X271927Y85270D01*
X269050D01*
X268650Y85670D01*
Y86470D01*
X269050Y86870D01*
X272927D01*
X274000Y87943D01*
Y89697D01*
X272927Y90770D01*
X269050D01*
X268650Y91170D01*
Y92975D01*
X269050Y93375D01*
X272002D01*
X273075Y94448D01*
Y96925D01*
X270000Y100000D01*
Y123500D01*
X273500Y127000D01*
Y131499D01*
X270150Y134849D01*
Y137977D01*
X268000Y140127D01*
Y154500D01*
X270000Y156500D01*
Y174670D01*
X270400Y175070D01*
X271527D01*
X272500Y176043D01*
Y177997D01*
X271527Y178970D01*
X269900D01*
X269500Y179370D01*
Y180170D01*
X269900Y180570D01*
X272927D01*
X274000Y181643D01*
Y183397D01*
X272927Y184470D01*
X269900D01*
X269500Y184870D01*
Y185670D01*
X269900Y186070D01*
X272927D01*
X274000Y187143D01*
Y188897D01*
X272927Y189970D01*
X269900D01*
X269500Y190370D01*
Y191170D01*
X269900Y191570D01*
X272927D01*
X274000Y192643D01*
Y194397D01*
X272927Y195470D01*
X268530D01*
X267500Y196500D01*
Y211127D01*
X246127Y232500D01*
X231499D01*
X228997Y235000D01*
X226500D01*
X224000Y232500D01*
G01X250000Y257500D02*
X257000D01*
X260000Y254500D01*
X268500D01*
X282500Y240500D01*
X286500D01*
X289000Y238000D01*
Y229500D01*
X298500Y220000D01*
Y211000D01*
X311500Y198000D01*
Y194500D01*
X316000Y190000D01*
Y167500D01*
X319500Y164000D01*
Y157000D01*
X320500Y156000D01*
Y128500D01*
X322400Y126600D01*
Y101900D01*
X321500Y101000D01*
Y88000D01*
X328000Y81500D01*
X330000D01*
G01Y77000D02*
X320000Y87000D01*
Y102000D01*
X321000Y103000D01*
Y126000D01*
X319000Y128000D01*
Y155000D01*
X318000Y156000D01*
Y163500D01*
X313500Y168000D01*
Y185000D01*
X307740Y190760D01*
Y199260D01*
X296500Y210500D01*
Y219500D01*
X284300Y231700D01*
Y236700D01*
X268000Y253000D01*
X259160D01*
X256660Y255500D01*
X248500D01*
X246500Y257500D01*
G01X279000Y260000D02*
X275800Y263200D01*
Y280700D01*
X273100Y283400D01*
Y293819D01*
X272800Y294119D01*
X271300D01*
X271000Y294419D01*
Y295819D01*
X271300Y296119D01*
X272120D01*
X272500Y296499D01*
Y299075D01*
X271075Y300500D01*
X269209D01*
X268859Y300150D01*
Y297850D01*
X268509Y297500D01*
X267309D01*
X266959Y297850D01*
Y300150D01*
X265609Y301500D01*
X259500D01*
X256000Y298000D01*
G01X294000Y246500D02*
X282500D01*
X266000Y263000D01*
Y274500D01*
X259500Y281000D01*
Y284500D01*
X253500Y290500D01*
Y293000D01*
X250000Y296500D01*
G01X288000Y249500D02*
X285107D01*
X284807Y249800D01*
Y250700D01*
X284507Y251000D01*
X283407D01*
X283107Y250700D01*
Y249800D01*
X282807Y249500D01*
X281400D01*
X268000Y262900D01*
Y275000D01*
X264000Y279000D01*
Y283500D01*
X262698Y284802D01*
Y285296D01*
X264704Y287302D01*
Y287796D01*
X264208Y288292D01*
X263714D01*
X261708Y286286D01*
X261214D01*
X260718Y286782D01*
Y287276D01*
X262724Y289282D01*
Y289776D01*
X262228Y290272D01*
X261734D01*
X259728Y288266D01*
X259234D01*
X258738Y288762D01*
Y289256D01*
X260744Y291262D01*
Y291756D01*
X260248Y292252D01*
X259754D01*
X257748Y290246D01*
X257254D01*
X256498Y291002D01*
Y291498D01*
X256500Y291500D01*
Y294500D01*
G01X279000Y263000D02*
X277500Y264500D01*
Y283000D01*
X274600Y285900D01*
Y299900D01*
X271317Y303183D01*
X267817D01*
X262500Y308500D01*
X256500D01*
X250500Y302500D01*
G01X257600Y8000D02*
X258425Y8825D01*
Y10052D01*
X281850Y33477D01*
Y34650D01*
X280500Y36000D01*
G01X260300Y8000D02*
X259575Y8725D01*
Y9575D01*
X283000Y33000D01*
Y36000D01*
G01X280000Y89200D02*
Y94622D01*
X285000Y99622D01*
Y110500D01*
X286500Y112000D01*
Y114000D01*
X280500Y120000D01*
Y124500D01*
X283000Y127000D01*
Y138000D01*
X278500Y142500D01*
Y149000D01*
X284750Y155250D01*
Y168250D01*
X286500Y170000D01*
Y187500D01*
X281500Y192500D01*
Y197500D01*
X274500Y204500D01*
Y212500D01*
X266000Y221000D01*
Y228000D01*
X264000Y230000D01*
G01X267476D02*
Y221524D01*
X276000Y213000D01*
Y205000D01*
X283300Y197700D01*
Y193200D01*
X289000Y187500D01*
Y156500D01*
X280000Y147500D01*
Y144500D01*
X290500Y134000D01*
Y113000D01*
X287000Y109500D01*
Y99500D01*
X282700Y95200D01*
Y91700D01*
G01X280000Y253500D02*
X272800Y260700D01*
Y274700D01*
X267785Y279715D01*
X266800D01*
X266500Y280015D01*
Y281115D01*
X266800Y281415D01*
X268426D01*
X268726Y281715D01*
Y282815D01*
X268426Y283115D01*
X266800D01*
X266500Y283415D01*
Y284515D01*
X266800Y284815D01*
X267926D01*
X268226Y285115D01*
Y287268D01*
X269732Y288774D01*
Y289268D01*
X269236Y289764D01*
X268742D01*
X267236Y288258D01*
X266742D01*
X266246Y288754D01*
Y289248D01*
X267752Y290754D01*
Y291248D01*
X267256Y291744D01*
X266762D01*
X265256Y290238D01*
X264762D01*
X264266Y290734D01*
Y291228D01*
X265772Y292734D01*
Y293228D01*
X265276Y293724D01*
X264782D01*
X263276Y292218D01*
X262782D01*
X262000Y293000D01*
Y296000D01*
G01X280500Y256800D02*
X279200D01*
X274300Y261700D01*
Y276431D01*
X274000Y276731D01*
X273300D01*
X273000Y277031D01*
Y277631D01*
X273300Y277931D01*
X274000D01*
X274300Y278231D01*
Y279700D01*
X271500Y282500D01*
Y290001D01*
X269680Y291821D01*
Y292245D01*
X270005Y292570D01*
Y292993D01*
X269580Y293418D01*
X269156D01*
X268831Y293094D01*
X268407D01*
X267982Y293519D01*
Y293943D01*
X268307Y294268D01*
Y294691D01*
X267882Y295116D01*
X267458D01*
X267133Y294792D01*
X266709D01*
X263501Y298000D01*
X259000D01*
G01X359000Y221500D02*
X353500Y216000D01*
X336500D01*
X335500Y217000D01*
X330000D01*
X327500Y219500D01*
X326000D01*
X310000Y235500D01*
Y246000D01*
X303000Y253000D01*
Y256500D01*
X301300Y258200D01*
X289800D01*
X284500Y263500D01*
Y280500D01*
X281000Y284000D01*
Y292500D01*
X278000Y295500D01*
Y304000D01*
X264500Y317500D01*
Y327500D01*
X260500Y331500D01*
G01X264500D02*
Y332040D01*
X282100Y349640D01*
X309440D01*
X318500Y358700D01*
X326393D01*
X329693Y362000D01*
G01X272798Y337471D02*
Y338638D01*
X282630Y348470D01*
X308840D01*
X310460Y346850D01*
G01X313000Y246000D02*
X304800Y254200D01*
Y258200D01*
X303000Y260000D01*
X290500D01*
X286000Y264500D01*
Y292500D01*
X294500Y301000D01*
G01X313000Y235500D02*
X315000Y237500D01*
Y247500D01*
X306500Y256000D01*
Y259000D01*
X296500Y269000D01*
X290500D01*
X287500Y272000D01*
Y292500D01*
X294350Y299350D01*
X329850D01*
X332700Y302200D01*
Y304700D01*
X334500Y306500D01*
G01X326000Y225425D02*
X322712Y228713D01*
Y238288D01*
X320000Y241000D01*
Y247500D01*
X311500Y256000D01*
Y259000D01*
X297500Y273000D01*
X290500D01*
X289000Y274500D01*
Y287500D01*
X291000Y289500D01*
G01X323500Y89000D02*
Y100000D01*
X324500Y101000D01*
Y123500D01*
X326500Y125500D01*
Y129500D01*
X322000Y134000D01*
Y153500D01*
X323500Y155000D01*
Y162500D01*
X318500Y167500D01*
Y193000D01*
X313500Y198000D01*
Y205000D01*
X302500Y216000D01*
Y222500D01*
X304500Y224500D01*
Y227000D01*
X299000Y232500D01*
Y247000D01*
X297500Y248500D01*
Y250000D01*
X295000Y252500D01*
G01X301000Y284000D02*
X299000Y282000D01*
Y276500D01*
X317000Y258500D01*
Y256000D01*
X323300Y249700D01*
Y246200D01*
X326000Y243500D01*
Y231800D01*
G01Y228000D02*
X324000Y230000D01*
Y239500D01*
X321600Y241900D01*
Y248400D01*
X313000Y257000D01*
Y259738D01*
X297000Y275738D01*
Y280000D01*
X291000Y286000D01*
G01X327000Y249500D02*
Y256500D01*
X317500Y266000D01*
X314500D01*
X305000Y275500D01*
Y282500D01*
X294500Y293000D01*
Y296500D01*
G01X326000Y221900D02*
X327800Y223700D01*
Y243700D01*
X325000Y246500D01*
Y252000D01*
X321000Y256000D01*
Y258500D01*
X316000Y263500D01*
X314500D01*
X301000Y277000D01*
Y281000D01*
G01X308500Y105500D02*
Y111000D01*
X312000Y114500D01*
Y136500D01*
X309500Y139000D01*
Y154000D01*
G01X306800Y108000D02*
Y111800D01*
X310500Y115500D01*
Y135000D01*
X308000Y137500D01*
Y153000D01*
X307000Y154000D01*
G01X311700Y223500D02*
X318000Y217200D01*
Y214500D01*
X323500Y209000D01*
X329000D01*
X339000Y199000D01*
Y190500D01*
X345500Y184000D01*
Y154100D01*
X336400Y145000D01*
G01X359500Y204000D02*
X355500Y208000D01*
X335000D01*
X325500Y217500D01*
X324500D01*
X321500Y220500D01*
G01X337500Y218500D02*
X336500Y219500D01*
Y232200D01*
X334700Y234000D01*
G01X328000Y297000D02*
X334000Y291000D01*
Y279500D01*
X333500Y279000D01*
Y270500D01*
X336000Y268000D01*
Y261500D01*
X348000Y249500D01*
Y228000D01*
X351000Y225000D01*
G01X344000Y260000D02*
X341277D01*
X337500Y263777D01*
Y269000D01*
X335000Y271500D01*
Y278000D01*
X335500Y278500D01*
G01D02*
Y285500D01*
X337788Y287788D01*
X340712D01*
X351000Y277500D01*
X356000D01*
X361000Y272500D01*
G01X344000Y265500D02*
X337000Y272500D01*
Y276000D01*
G01X339100Y284500D02*
X344000Y279600D01*
Y277500D01*
X352250Y269250D01*
Y234750D01*
X356500Y230500D01*
Y225000D01*
X352700Y221200D01*
X351000D01*
G01X354100Y225000D02*
X352800Y226300D01*
Y230200D01*
X349951Y233049D01*
Y269549D01*
X341000Y278500D01*
Y280100D01*
X339100Y282000D01*
G01X337000Y276000D02*
X337200Y276200D01*
Y285206D01*
X338394Y286400D01*
X340100D01*
X346500Y280000D01*
Y277000D01*
X361000Y262500D01*
G01X362500Y242000D02*
Y225000D01*
X359000Y221500D01*
M02*
