%TF.GenerationSoftware,KiCad,Pcbnew,8.99.0-2767-g6be6680d8c*%
%TF.CreationDate,2024-10-27T19:28:18+01:00*%
%TF.ProjectId,SBC,5342432e-6b69-4636-9164-5f7063625858,rev?*%
%TF.SameCoordinates,Original*%
%TF.FileFunction,Other,User*%
%FSLAX46Y46*%
G04 Gerber Fmt 4.6, Leading zero omitted, Abs format (unit mm)*
G04 Created by KiCad (PCBNEW 8.99.0-2767-g6be6680d8c) date 2024-10-27 19:28:18*
%MOMM*%
%LPD*%
G01*
G04 APERTURE LIST*
%ADD10C,0.100000*%
G04 APERTURE END LIST*
D10*
X144246126Y-72112407D02*
X144246126Y-72469550D01*
X144246126Y-72469550D02*
X144222317Y-72540978D01*
X144222317Y-72540978D02*
X144174698Y-72588598D01*
X144174698Y-72588598D02*
X144103269Y-72612407D01*
X144103269Y-72612407D02*
X144055650Y-72612407D01*
X144722316Y-72612407D02*
X144484221Y-72612407D01*
X144484221Y-72612407D02*
X144484221Y-72112407D01*
X145174697Y-72564788D02*
X145150888Y-72588598D01*
X145150888Y-72588598D02*
X145079459Y-72612407D01*
X145079459Y-72612407D02*
X145031840Y-72612407D01*
X145031840Y-72612407D02*
X144960412Y-72588598D01*
X144960412Y-72588598D02*
X144912793Y-72540978D01*
X144912793Y-72540978D02*
X144888983Y-72493359D01*
X144888983Y-72493359D02*
X144865174Y-72398121D01*
X144865174Y-72398121D02*
X144865174Y-72326693D01*
X144865174Y-72326693D02*
X144888983Y-72231455D01*
X144888983Y-72231455D02*
X144912793Y-72183836D01*
X144912793Y-72183836D02*
X144960412Y-72136217D01*
X144960412Y-72136217D02*
X145031840Y-72112407D01*
X145031840Y-72112407D02*
X145079459Y-72112407D01*
X145079459Y-72112407D02*
X145150888Y-72136217D01*
X145150888Y-72136217D02*
X145174697Y-72160026D01*
X145484221Y-72112407D02*
X145531840Y-72112407D01*
X145531840Y-72112407D02*
X145579459Y-72136217D01*
X145579459Y-72136217D02*
X145603269Y-72160026D01*
X145603269Y-72160026D02*
X145627078Y-72207645D01*
X145627078Y-72207645D02*
X145650888Y-72302883D01*
X145650888Y-72302883D02*
X145650888Y-72421931D01*
X145650888Y-72421931D02*
X145627078Y-72517169D01*
X145627078Y-72517169D02*
X145603269Y-72564788D01*
X145603269Y-72564788D02*
X145579459Y-72588598D01*
X145579459Y-72588598D02*
X145531840Y-72612407D01*
X145531840Y-72612407D02*
X145484221Y-72612407D01*
X145484221Y-72612407D02*
X145436602Y-72588598D01*
X145436602Y-72588598D02*
X145412793Y-72564788D01*
X145412793Y-72564788D02*
X145388983Y-72517169D01*
X145388983Y-72517169D02*
X145365174Y-72421931D01*
X145365174Y-72421931D02*
X145365174Y-72302883D01*
X145365174Y-72302883D02*
X145388983Y-72207645D01*
X145388983Y-72207645D02*
X145412793Y-72160026D01*
X145412793Y-72160026D02*
X145436602Y-72136217D01*
X145436602Y-72136217D02*
X145484221Y-72112407D01*
X145936602Y-72326693D02*
X145888983Y-72302883D01*
X145888983Y-72302883D02*
X145865173Y-72279074D01*
X145865173Y-72279074D02*
X145841364Y-72231455D01*
X145841364Y-72231455D02*
X145841364Y-72207645D01*
X145841364Y-72207645D02*
X145865173Y-72160026D01*
X145865173Y-72160026D02*
X145888983Y-72136217D01*
X145888983Y-72136217D02*
X145936602Y-72112407D01*
X145936602Y-72112407D02*
X146031840Y-72112407D01*
X146031840Y-72112407D02*
X146079459Y-72136217D01*
X146079459Y-72136217D02*
X146103268Y-72160026D01*
X146103268Y-72160026D02*
X146127078Y-72207645D01*
X146127078Y-72207645D02*
X146127078Y-72231455D01*
X146127078Y-72231455D02*
X146103268Y-72279074D01*
X146103268Y-72279074D02*
X146079459Y-72302883D01*
X146079459Y-72302883D02*
X146031840Y-72326693D01*
X146031840Y-72326693D02*
X145936602Y-72326693D01*
X145936602Y-72326693D02*
X145888983Y-72350502D01*
X145888983Y-72350502D02*
X145865173Y-72374312D01*
X145865173Y-72374312D02*
X145841364Y-72421931D01*
X145841364Y-72421931D02*
X145841364Y-72517169D01*
X145841364Y-72517169D02*
X145865173Y-72564788D01*
X145865173Y-72564788D02*
X145888983Y-72588598D01*
X145888983Y-72588598D02*
X145936602Y-72612407D01*
X145936602Y-72612407D02*
X146031840Y-72612407D01*
X146031840Y-72612407D02*
X146079459Y-72588598D01*
X146079459Y-72588598D02*
X146103268Y-72564788D01*
X146103268Y-72564788D02*
X146127078Y-72517169D01*
X146127078Y-72517169D02*
X146127078Y-72421931D01*
X146127078Y-72421931D02*
X146103268Y-72374312D01*
X146103268Y-72374312D02*
X146079459Y-72350502D01*
X146079459Y-72350502D02*
X146031840Y-72326693D01*
X146603268Y-72612407D02*
X146317554Y-72612407D01*
X146460411Y-72612407D02*
X146460411Y-72112407D01*
X146460411Y-72112407D02*
X146412792Y-72183836D01*
X146412792Y-72183836D02*
X146365173Y-72231455D01*
X146365173Y-72231455D02*
X146317554Y-72255264D01*
X146793744Y-72160026D02*
X146817553Y-72136217D01*
X146817553Y-72136217D02*
X146865172Y-72112407D01*
X146865172Y-72112407D02*
X146984220Y-72112407D01*
X146984220Y-72112407D02*
X147031839Y-72136217D01*
X147031839Y-72136217D02*
X147055648Y-72160026D01*
X147055648Y-72160026D02*
X147079458Y-72207645D01*
X147079458Y-72207645D02*
X147079458Y-72255264D01*
X147079458Y-72255264D02*
X147055648Y-72326693D01*
X147055648Y-72326693D02*
X146769934Y-72612407D01*
X146769934Y-72612407D02*
X147079458Y-72612407D01*
X147555648Y-72612407D02*
X147269934Y-72612407D01*
X147412791Y-72612407D02*
X147412791Y-72112407D01*
X147412791Y-72112407D02*
X147365172Y-72183836D01*
X147365172Y-72183836D02*
X147317553Y-72231455D01*
X147317553Y-72231455D02*
X147269934Y-72255264D01*
X147769933Y-72612407D02*
X147769933Y-72112407D01*
X147769933Y-72350502D02*
X148055647Y-72350502D01*
X148055647Y-72612407D02*
X148055647Y-72112407D01*
X148293743Y-72421931D02*
X148674696Y-72421931D01*
X148865172Y-72112407D02*
X149174696Y-72112407D01*
X149174696Y-72112407D02*
X149008029Y-72302883D01*
X149008029Y-72302883D02*
X149079458Y-72302883D01*
X149079458Y-72302883D02*
X149127077Y-72326693D01*
X149127077Y-72326693D02*
X149150886Y-72350502D01*
X149150886Y-72350502D02*
X149174696Y-72398121D01*
X149174696Y-72398121D02*
X149174696Y-72517169D01*
X149174696Y-72517169D02*
X149150886Y-72564788D01*
X149150886Y-72564788D02*
X149127077Y-72588598D01*
X149127077Y-72588598D02*
X149079458Y-72612407D01*
X149079458Y-72612407D02*
X148936601Y-72612407D01*
X148936601Y-72612407D02*
X148888982Y-72588598D01*
X148888982Y-72588598D02*
X148865172Y-72564788D01*
X149341362Y-72112407D02*
X149650886Y-72112407D01*
X149650886Y-72112407D02*
X149484219Y-72302883D01*
X149484219Y-72302883D02*
X149555648Y-72302883D01*
X149555648Y-72302883D02*
X149603267Y-72326693D01*
X149603267Y-72326693D02*
X149627076Y-72350502D01*
X149627076Y-72350502D02*
X149650886Y-72398121D01*
X149650886Y-72398121D02*
X149650886Y-72517169D01*
X149650886Y-72517169D02*
X149627076Y-72564788D01*
X149627076Y-72564788D02*
X149603267Y-72588598D01*
X149603267Y-72588598D02*
X149555648Y-72612407D01*
X149555648Y-72612407D02*
X149412791Y-72612407D01*
X149412791Y-72612407D02*
X149365172Y-72588598D01*
X149365172Y-72588598D02*
X149341362Y-72564788D01*
X150127076Y-72612407D02*
X149841362Y-72612407D01*
X149984219Y-72612407D02*
X149984219Y-72112407D01*
X149984219Y-72112407D02*
X149936600Y-72183836D01*
X149936600Y-72183836D02*
X149888981Y-72231455D01*
X149888981Y-72231455D02*
X149841362Y-72255264D01*
X150293742Y-72112407D02*
X150603266Y-72112407D01*
X150603266Y-72112407D02*
X150436599Y-72302883D01*
X150436599Y-72302883D02*
X150508028Y-72302883D01*
X150508028Y-72302883D02*
X150555647Y-72326693D01*
X150555647Y-72326693D02*
X150579456Y-72350502D01*
X150579456Y-72350502D02*
X150603266Y-72398121D01*
X150603266Y-72398121D02*
X150603266Y-72517169D01*
X150603266Y-72517169D02*
X150579456Y-72564788D01*
X150579456Y-72564788D02*
X150555647Y-72588598D01*
X150555647Y-72588598D02*
X150508028Y-72612407D01*
X150508028Y-72612407D02*
X150365171Y-72612407D01*
X150365171Y-72612407D02*
X150317552Y-72588598D01*
X150317552Y-72588598D02*
X150293742Y-72564788D01*
X143698508Y-73393570D02*
X143769936Y-73417379D01*
X143769936Y-73417379D02*
X143888984Y-73417379D01*
X143888984Y-73417379D02*
X143936603Y-73393570D01*
X143936603Y-73393570D02*
X143960412Y-73369760D01*
X143960412Y-73369760D02*
X143984222Y-73322141D01*
X143984222Y-73322141D02*
X143984222Y-73274522D01*
X143984222Y-73274522D02*
X143960412Y-73226903D01*
X143960412Y-73226903D02*
X143936603Y-73203093D01*
X143936603Y-73203093D02*
X143888984Y-73179284D01*
X143888984Y-73179284D02*
X143793746Y-73155474D01*
X143793746Y-73155474D02*
X143746127Y-73131665D01*
X143746127Y-73131665D02*
X143722317Y-73107855D01*
X143722317Y-73107855D02*
X143698508Y-73060236D01*
X143698508Y-73060236D02*
X143698508Y-73012617D01*
X143698508Y-73012617D02*
X143722317Y-72964998D01*
X143722317Y-72964998D02*
X143746127Y-72941189D01*
X143746127Y-72941189D02*
X143793746Y-72917379D01*
X143793746Y-72917379D02*
X143912793Y-72917379D01*
X143912793Y-72917379D02*
X143984222Y-72941189D01*
X144198507Y-73155474D02*
X144365174Y-73155474D01*
X144436602Y-73417379D02*
X144198507Y-73417379D01*
X144198507Y-73417379D02*
X144198507Y-72917379D01*
X144198507Y-72917379D02*
X144436602Y-72917379D01*
X144650888Y-73369760D02*
X144674698Y-73393570D01*
X144674698Y-73393570D02*
X144650888Y-73417379D01*
X144650888Y-73417379D02*
X144627079Y-73393570D01*
X144627079Y-73393570D02*
X144650888Y-73369760D01*
X144650888Y-73369760D02*
X144650888Y-73417379D01*
X144650888Y-73107855D02*
X144674698Y-73131665D01*
X144674698Y-73131665D02*
X144650888Y-73155474D01*
X144650888Y-73155474D02*
X144627079Y-73131665D01*
X144627079Y-73131665D02*
X144650888Y-73107855D01*
X144650888Y-73107855D02*
X144650888Y-73155474D01*
X143960412Y-73722351D02*
X143722317Y-73722351D01*
X143722317Y-73722351D02*
X143698508Y-73960446D01*
X143698508Y-73960446D02*
X143722317Y-73936637D01*
X143722317Y-73936637D02*
X143769936Y-73912827D01*
X143769936Y-73912827D02*
X143888984Y-73912827D01*
X143888984Y-73912827D02*
X143936603Y-73936637D01*
X143936603Y-73936637D02*
X143960412Y-73960446D01*
X143960412Y-73960446D02*
X143984222Y-74008065D01*
X143984222Y-74008065D02*
X143984222Y-74127113D01*
X143984222Y-74127113D02*
X143960412Y-74174732D01*
X143960412Y-74174732D02*
X143936603Y-74198542D01*
X143936603Y-74198542D02*
X143888984Y-74222351D01*
X143888984Y-74222351D02*
X143769936Y-74222351D01*
X143769936Y-74222351D02*
X143722317Y-74198542D01*
X143722317Y-74198542D02*
X143698508Y-74174732D01*
X144293745Y-73722351D02*
X144341364Y-73722351D01*
X144341364Y-73722351D02*
X144388983Y-73746161D01*
X144388983Y-73746161D02*
X144412793Y-73769970D01*
X144412793Y-73769970D02*
X144436602Y-73817589D01*
X144436602Y-73817589D02*
X144460412Y-73912827D01*
X144460412Y-73912827D02*
X144460412Y-74031875D01*
X144460412Y-74031875D02*
X144436602Y-74127113D01*
X144436602Y-74127113D02*
X144412793Y-74174732D01*
X144412793Y-74174732D02*
X144388983Y-74198542D01*
X144388983Y-74198542D02*
X144341364Y-74222351D01*
X144341364Y-74222351D02*
X144293745Y-74222351D01*
X144293745Y-74222351D02*
X144246126Y-74198542D01*
X144246126Y-74198542D02*
X144222317Y-74174732D01*
X144222317Y-74174732D02*
X144198507Y-74127113D01*
X144198507Y-74127113D02*
X144174698Y-74031875D01*
X144174698Y-74031875D02*
X144174698Y-73912827D01*
X144174698Y-73912827D02*
X144198507Y-73817589D01*
X144198507Y-73817589D02*
X144222317Y-73769970D01*
X144222317Y-73769970D02*
X144246126Y-73746161D01*
X144246126Y-73746161D02*
X144293745Y-73722351D01*
X145150887Y-73722351D02*
X145246125Y-73722351D01*
X145246125Y-73722351D02*
X145293744Y-73746161D01*
X145293744Y-73746161D02*
X145341363Y-73793780D01*
X145341363Y-73793780D02*
X145365173Y-73889018D01*
X145365173Y-73889018D02*
X145365173Y-74055684D01*
X145365173Y-74055684D02*
X145341363Y-74150922D01*
X145341363Y-74150922D02*
X145293744Y-74198542D01*
X145293744Y-74198542D02*
X145246125Y-74222351D01*
X145246125Y-74222351D02*
X145150887Y-74222351D01*
X145150887Y-74222351D02*
X145103268Y-74198542D01*
X145103268Y-74198542D02*
X145055649Y-74150922D01*
X145055649Y-74150922D02*
X145031840Y-74055684D01*
X145031840Y-74055684D02*
X145031840Y-73889018D01*
X145031840Y-73889018D02*
X145055649Y-73793780D01*
X145055649Y-73793780D02*
X145103268Y-73746161D01*
X145103268Y-73746161D02*
X145150887Y-73722351D01*
X145579459Y-74222351D02*
X145579459Y-73722351D01*
X145793745Y-74222351D02*
X145793745Y-73960446D01*
X145793745Y-73960446D02*
X145769935Y-73912827D01*
X145769935Y-73912827D02*
X145722316Y-73889018D01*
X145722316Y-73889018D02*
X145650888Y-73889018D01*
X145650888Y-73889018D02*
X145603269Y-73912827D01*
X145603269Y-73912827D02*
X145579459Y-73936637D01*
X146031840Y-74222351D02*
X146031840Y-73889018D01*
X146031840Y-73936637D02*
X146055650Y-73912827D01*
X146055650Y-73912827D02*
X146103269Y-73889018D01*
X146103269Y-73889018D02*
X146174697Y-73889018D01*
X146174697Y-73889018D02*
X146222316Y-73912827D01*
X146222316Y-73912827D02*
X146246126Y-73960446D01*
X146246126Y-73960446D02*
X146246126Y-74222351D01*
X146246126Y-73960446D02*
X146269935Y-73912827D01*
X146269935Y-73912827D02*
X146317554Y-73889018D01*
X146317554Y-73889018D02*
X146388983Y-73889018D01*
X146388983Y-73889018D02*
X146436602Y-73912827D01*
X146436602Y-73912827D02*
X146460412Y-73960446D01*
X146460412Y-73960446D02*
X146460412Y-74222351D01*
X146674698Y-74198542D02*
X146722317Y-74222351D01*
X146722317Y-74222351D02*
X146817555Y-74222351D01*
X146817555Y-74222351D02*
X146865174Y-74198542D01*
X146865174Y-74198542D02*
X146888983Y-74150922D01*
X146888983Y-74150922D02*
X146888983Y-74127113D01*
X146888983Y-74127113D02*
X146865174Y-74079494D01*
X146865174Y-74079494D02*
X146817555Y-74055684D01*
X146817555Y-74055684D02*
X146746126Y-74055684D01*
X146746126Y-74055684D02*
X146698507Y-74031875D01*
X146698507Y-74031875D02*
X146674698Y-73984256D01*
X146674698Y-73984256D02*
X146674698Y-73960446D01*
X146674698Y-73960446D02*
X146698507Y-73912827D01*
X146698507Y-73912827D02*
X146746126Y-73889018D01*
X146746126Y-73889018D02*
X146817555Y-73889018D01*
X146817555Y-73889018D02*
X146865174Y-73912827D01*
X143650889Y-74527323D02*
X143936603Y-74527323D01*
X143793746Y-75027323D02*
X143793746Y-74527323D01*
X144198507Y-74527323D02*
X144293745Y-74527323D01*
X144293745Y-74527323D02*
X144341364Y-74551133D01*
X144341364Y-74551133D02*
X144388983Y-74598752D01*
X144388983Y-74598752D02*
X144412793Y-74693990D01*
X144412793Y-74693990D02*
X144412793Y-74860656D01*
X144412793Y-74860656D02*
X144388983Y-74955894D01*
X144388983Y-74955894D02*
X144341364Y-75003514D01*
X144341364Y-75003514D02*
X144293745Y-75027323D01*
X144293745Y-75027323D02*
X144198507Y-75027323D01*
X144198507Y-75027323D02*
X144150888Y-75003514D01*
X144150888Y-75003514D02*
X144103269Y-74955894D01*
X144103269Y-74955894D02*
X144079460Y-74860656D01*
X144079460Y-74860656D02*
X144079460Y-74693990D01*
X144079460Y-74693990D02*
X144103269Y-74598752D01*
X144103269Y-74598752D02*
X144150888Y-74551133D01*
X144150888Y-74551133D02*
X144198507Y-74527323D01*
X144627079Y-75027323D02*
X144627079Y-74527323D01*
X144627079Y-74527323D02*
X144817555Y-74527323D01*
X144817555Y-74527323D02*
X144865174Y-74551133D01*
X144865174Y-74551133D02*
X144888984Y-74574942D01*
X144888984Y-74574942D02*
X144912793Y-74622561D01*
X144912793Y-74622561D02*
X144912793Y-74693990D01*
X144912793Y-74693990D02*
X144888984Y-74741609D01*
X144888984Y-74741609D02*
X144865174Y-74765418D01*
X144865174Y-74765418D02*
X144817555Y-74789228D01*
X144817555Y-74789228D02*
X144627079Y-74789228D01*
X145508031Y-74836847D02*
X145888984Y-74836847D01*
X146127079Y-74693990D02*
X146508032Y-74836847D01*
X146508032Y-74836847D02*
X146127079Y-74979704D01*
X147222317Y-74527323D02*
X147269936Y-74527323D01*
X147269936Y-74527323D02*
X147317555Y-74551133D01*
X147317555Y-74551133D02*
X147341365Y-74574942D01*
X147341365Y-74574942D02*
X147365174Y-74622561D01*
X147365174Y-74622561D02*
X147388984Y-74717799D01*
X147388984Y-74717799D02*
X147388984Y-74836847D01*
X147388984Y-74836847D02*
X147365174Y-74932085D01*
X147365174Y-74932085D02*
X147341365Y-74979704D01*
X147341365Y-74979704D02*
X147317555Y-75003514D01*
X147317555Y-75003514D02*
X147269936Y-75027323D01*
X147269936Y-75027323D02*
X147222317Y-75027323D01*
X147222317Y-75027323D02*
X147174698Y-75003514D01*
X147174698Y-75003514D02*
X147150889Y-74979704D01*
X147150889Y-74979704D02*
X147127079Y-74932085D01*
X147127079Y-74932085D02*
X147103270Y-74836847D01*
X147103270Y-74836847D02*
X147103270Y-74717799D01*
X147103270Y-74717799D02*
X147127079Y-74622561D01*
X147127079Y-74622561D02*
X147150889Y-74574942D01*
X147150889Y-74574942D02*
X147174698Y-74551133D01*
X147174698Y-74551133D02*
X147222317Y-74527323D01*
X147603269Y-74979704D02*
X147627079Y-75003514D01*
X147627079Y-75003514D02*
X147603269Y-75027323D01*
X147603269Y-75027323D02*
X147579460Y-75003514D01*
X147579460Y-75003514D02*
X147603269Y-74979704D01*
X147603269Y-74979704D02*
X147603269Y-75027323D01*
X148103269Y-75027323D02*
X147817555Y-75027323D01*
X147960412Y-75027323D02*
X147960412Y-74527323D01*
X147960412Y-74527323D02*
X147912793Y-74598752D01*
X147912793Y-74598752D02*
X147865174Y-74646371D01*
X147865174Y-74646371D02*
X147817555Y-74670180D01*
X148388983Y-74741609D02*
X148341364Y-74717799D01*
X148341364Y-74717799D02*
X148317554Y-74693990D01*
X148317554Y-74693990D02*
X148293745Y-74646371D01*
X148293745Y-74646371D02*
X148293745Y-74622561D01*
X148293745Y-74622561D02*
X148317554Y-74574942D01*
X148317554Y-74574942D02*
X148341364Y-74551133D01*
X148341364Y-74551133D02*
X148388983Y-74527323D01*
X148388983Y-74527323D02*
X148484221Y-74527323D01*
X148484221Y-74527323D02*
X148531840Y-74551133D01*
X148531840Y-74551133D02*
X148555649Y-74574942D01*
X148555649Y-74574942D02*
X148579459Y-74622561D01*
X148579459Y-74622561D02*
X148579459Y-74646371D01*
X148579459Y-74646371D02*
X148555649Y-74693990D01*
X148555649Y-74693990D02*
X148531840Y-74717799D01*
X148531840Y-74717799D02*
X148484221Y-74741609D01*
X148484221Y-74741609D02*
X148388983Y-74741609D01*
X148388983Y-74741609D02*
X148341364Y-74765418D01*
X148341364Y-74765418D02*
X148317554Y-74789228D01*
X148317554Y-74789228D02*
X148293745Y-74836847D01*
X148293745Y-74836847D02*
X148293745Y-74932085D01*
X148293745Y-74932085D02*
X148317554Y-74979704D01*
X148317554Y-74979704D02*
X148341364Y-75003514D01*
X148341364Y-75003514D02*
X148388983Y-75027323D01*
X148388983Y-75027323D02*
X148484221Y-75027323D01*
X148484221Y-75027323D02*
X148531840Y-75003514D01*
X148531840Y-75003514D02*
X148555649Y-74979704D01*
X148555649Y-74979704D02*
X148579459Y-74932085D01*
X148579459Y-74932085D02*
X148579459Y-74836847D01*
X148579459Y-74836847D02*
X148555649Y-74789228D01*
X148555649Y-74789228D02*
X148531840Y-74765418D01*
X148531840Y-74765418D02*
X148484221Y-74741609D01*
X143698508Y-75808486D02*
X143769936Y-75832295D01*
X143769936Y-75832295D02*
X143888984Y-75832295D01*
X143888984Y-75832295D02*
X143936603Y-75808486D01*
X143936603Y-75808486D02*
X143960412Y-75784676D01*
X143960412Y-75784676D02*
X143984222Y-75737057D01*
X143984222Y-75737057D02*
X143984222Y-75689438D01*
X143984222Y-75689438D02*
X143960412Y-75641819D01*
X143960412Y-75641819D02*
X143936603Y-75618009D01*
X143936603Y-75618009D02*
X143888984Y-75594200D01*
X143888984Y-75594200D02*
X143793746Y-75570390D01*
X143793746Y-75570390D02*
X143746127Y-75546581D01*
X143746127Y-75546581D02*
X143722317Y-75522771D01*
X143722317Y-75522771D02*
X143698508Y-75475152D01*
X143698508Y-75475152D02*
X143698508Y-75427533D01*
X143698508Y-75427533D02*
X143722317Y-75379914D01*
X143722317Y-75379914D02*
X143746127Y-75356105D01*
X143746127Y-75356105D02*
X143793746Y-75332295D01*
X143793746Y-75332295D02*
X143912793Y-75332295D01*
X143912793Y-75332295D02*
X143984222Y-75356105D01*
X144460412Y-75832295D02*
X144174698Y-75832295D01*
X144317555Y-75832295D02*
X144317555Y-75332295D01*
X144317555Y-75332295D02*
X144269936Y-75403724D01*
X144269936Y-75403724D02*
X144222317Y-75451343D01*
X144222317Y-75451343D02*
X144174698Y-75475152D01*
X145436601Y-75641819D02*
X145817554Y-75641819D01*
X146055649Y-75498962D02*
X146436602Y-75641819D01*
X146436602Y-75641819D02*
X146055649Y-75784676D01*
X147150887Y-75332295D02*
X147198506Y-75332295D01*
X147198506Y-75332295D02*
X147246125Y-75356105D01*
X147246125Y-75356105D02*
X147269935Y-75379914D01*
X147269935Y-75379914D02*
X147293744Y-75427533D01*
X147293744Y-75427533D02*
X147317554Y-75522771D01*
X147317554Y-75522771D02*
X147317554Y-75641819D01*
X147317554Y-75641819D02*
X147293744Y-75737057D01*
X147293744Y-75737057D02*
X147269935Y-75784676D01*
X147269935Y-75784676D02*
X147246125Y-75808486D01*
X147246125Y-75808486D02*
X147198506Y-75832295D01*
X147198506Y-75832295D02*
X147150887Y-75832295D01*
X147150887Y-75832295D02*
X147103268Y-75808486D01*
X147103268Y-75808486D02*
X147079459Y-75784676D01*
X147079459Y-75784676D02*
X147055649Y-75737057D01*
X147055649Y-75737057D02*
X147031840Y-75641819D01*
X147031840Y-75641819D02*
X147031840Y-75522771D01*
X147031840Y-75522771D02*
X147055649Y-75427533D01*
X147055649Y-75427533D02*
X147079459Y-75379914D01*
X147079459Y-75379914D02*
X147103268Y-75356105D01*
X147103268Y-75356105D02*
X147150887Y-75332295D01*
X147531839Y-75784676D02*
X147555649Y-75808486D01*
X147555649Y-75808486D02*
X147531839Y-75832295D01*
X147531839Y-75832295D02*
X147508030Y-75808486D01*
X147508030Y-75808486D02*
X147531839Y-75784676D01*
X147531839Y-75784676D02*
X147531839Y-75832295D01*
X148031839Y-75832295D02*
X147746125Y-75832295D01*
X147888982Y-75832295D02*
X147888982Y-75332295D01*
X147888982Y-75332295D02*
X147841363Y-75403724D01*
X147841363Y-75403724D02*
X147793744Y-75451343D01*
X147793744Y-75451343D02*
X147746125Y-75475152D01*
X148508029Y-75832295D02*
X148222315Y-75832295D01*
X148365172Y-75832295D02*
X148365172Y-75332295D01*
X148365172Y-75332295D02*
X148317553Y-75403724D01*
X148317553Y-75403724D02*
X148269934Y-75451343D01*
X148269934Y-75451343D02*
X148222315Y-75475152D01*
X143698508Y-76613458D02*
X143769936Y-76637267D01*
X143769936Y-76637267D02*
X143888984Y-76637267D01*
X143888984Y-76637267D02*
X143936603Y-76613458D01*
X143936603Y-76613458D02*
X143960412Y-76589648D01*
X143960412Y-76589648D02*
X143984222Y-76542029D01*
X143984222Y-76542029D02*
X143984222Y-76494410D01*
X143984222Y-76494410D02*
X143960412Y-76446791D01*
X143960412Y-76446791D02*
X143936603Y-76422981D01*
X143936603Y-76422981D02*
X143888984Y-76399172D01*
X143888984Y-76399172D02*
X143793746Y-76375362D01*
X143793746Y-76375362D02*
X143746127Y-76351553D01*
X143746127Y-76351553D02*
X143722317Y-76327743D01*
X143722317Y-76327743D02*
X143698508Y-76280124D01*
X143698508Y-76280124D02*
X143698508Y-76232505D01*
X143698508Y-76232505D02*
X143722317Y-76184886D01*
X143722317Y-76184886D02*
X143746127Y-76161077D01*
X143746127Y-76161077D02*
X143793746Y-76137267D01*
X143793746Y-76137267D02*
X143912793Y-76137267D01*
X143912793Y-76137267D02*
X143984222Y-76161077D01*
X144174698Y-76184886D02*
X144198507Y-76161077D01*
X144198507Y-76161077D02*
X144246126Y-76137267D01*
X144246126Y-76137267D02*
X144365174Y-76137267D01*
X144365174Y-76137267D02*
X144412793Y-76161077D01*
X144412793Y-76161077D02*
X144436602Y-76184886D01*
X144436602Y-76184886D02*
X144460412Y-76232505D01*
X144460412Y-76232505D02*
X144460412Y-76280124D01*
X144460412Y-76280124D02*
X144436602Y-76351553D01*
X144436602Y-76351553D02*
X144150888Y-76637267D01*
X144150888Y-76637267D02*
X144460412Y-76637267D01*
X145436601Y-76446791D02*
X145817554Y-76446791D01*
X146055649Y-76303934D02*
X146436602Y-76446791D01*
X146436602Y-76446791D02*
X146055649Y-76589648D01*
X147150887Y-76137267D02*
X147198506Y-76137267D01*
X147198506Y-76137267D02*
X147246125Y-76161077D01*
X147246125Y-76161077D02*
X147269935Y-76184886D01*
X147269935Y-76184886D02*
X147293744Y-76232505D01*
X147293744Y-76232505D02*
X147317554Y-76327743D01*
X147317554Y-76327743D02*
X147317554Y-76446791D01*
X147317554Y-76446791D02*
X147293744Y-76542029D01*
X147293744Y-76542029D02*
X147269935Y-76589648D01*
X147269935Y-76589648D02*
X147246125Y-76613458D01*
X147246125Y-76613458D02*
X147198506Y-76637267D01*
X147198506Y-76637267D02*
X147150887Y-76637267D01*
X147150887Y-76637267D02*
X147103268Y-76613458D01*
X147103268Y-76613458D02*
X147079459Y-76589648D01*
X147079459Y-76589648D02*
X147055649Y-76542029D01*
X147055649Y-76542029D02*
X147031840Y-76446791D01*
X147031840Y-76446791D02*
X147031840Y-76327743D01*
X147031840Y-76327743D02*
X147055649Y-76232505D01*
X147055649Y-76232505D02*
X147079459Y-76184886D01*
X147079459Y-76184886D02*
X147103268Y-76161077D01*
X147103268Y-76161077D02*
X147150887Y-76137267D01*
X147531839Y-76589648D02*
X147555649Y-76613458D01*
X147555649Y-76613458D02*
X147531839Y-76637267D01*
X147531839Y-76637267D02*
X147508030Y-76613458D01*
X147508030Y-76613458D02*
X147531839Y-76589648D01*
X147531839Y-76589648D02*
X147531839Y-76637267D01*
X148031839Y-76637267D02*
X147746125Y-76637267D01*
X147888982Y-76637267D02*
X147888982Y-76137267D01*
X147888982Y-76137267D02*
X147841363Y-76208696D01*
X147841363Y-76208696D02*
X147793744Y-76256315D01*
X147793744Y-76256315D02*
X147746125Y-76280124D01*
X148508029Y-76637267D02*
X148222315Y-76637267D01*
X148365172Y-76637267D02*
X148365172Y-76137267D01*
X148365172Y-76137267D02*
X148317553Y-76208696D01*
X148317553Y-76208696D02*
X148269934Y-76256315D01*
X148269934Y-76256315D02*
X148222315Y-76280124D01*
X143722317Y-77442239D02*
X143722317Y-76942239D01*
X143722317Y-76942239D02*
X143912793Y-76942239D01*
X143912793Y-76942239D02*
X143960412Y-76966049D01*
X143960412Y-76966049D02*
X143984222Y-76989858D01*
X143984222Y-76989858D02*
X144008031Y-77037477D01*
X144008031Y-77037477D02*
X144008031Y-77108906D01*
X144008031Y-77108906D02*
X143984222Y-77156525D01*
X143984222Y-77156525D02*
X143960412Y-77180334D01*
X143960412Y-77180334D02*
X143912793Y-77204144D01*
X143912793Y-77204144D02*
X143722317Y-77204144D01*
X144174698Y-76942239D02*
X144293746Y-77442239D01*
X144293746Y-77442239D02*
X144388984Y-77085096D01*
X144388984Y-77085096D02*
X144484222Y-77442239D01*
X144484222Y-77442239D02*
X144603270Y-76942239D01*
X144769937Y-76989858D02*
X144793746Y-76966049D01*
X144793746Y-76966049D02*
X144841365Y-76942239D01*
X144841365Y-76942239D02*
X144960413Y-76942239D01*
X144960413Y-76942239D02*
X145008032Y-76966049D01*
X145008032Y-76966049D02*
X145031841Y-76989858D01*
X145031841Y-76989858D02*
X145055651Y-77037477D01*
X145055651Y-77037477D02*
X145055651Y-77085096D01*
X145055651Y-77085096D02*
X145031841Y-77156525D01*
X145031841Y-77156525D02*
X144746127Y-77442239D01*
X144746127Y-77442239D02*
X145055651Y-77442239D01*
X145650888Y-77251763D02*
X146031841Y-77251763D01*
X146269936Y-77108906D02*
X146650889Y-77251763D01*
X146650889Y-77251763D02*
X146269936Y-77394620D01*
X147365174Y-76942239D02*
X147412793Y-76942239D01*
X147412793Y-76942239D02*
X147460412Y-76966049D01*
X147460412Y-76966049D02*
X147484222Y-76989858D01*
X147484222Y-76989858D02*
X147508031Y-77037477D01*
X147508031Y-77037477D02*
X147531841Y-77132715D01*
X147531841Y-77132715D02*
X147531841Y-77251763D01*
X147531841Y-77251763D02*
X147508031Y-77347001D01*
X147508031Y-77347001D02*
X147484222Y-77394620D01*
X147484222Y-77394620D02*
X147460412Y-77418430D01*
X147460412Y-77418430D02*
X147412793Y-77442239D01*
X147412793Y-77442239D02*
X147365174Y-77442239D01*
X147365174Y-77442239D02*
X147317555Y-77418430D01*
X147317555Y-77418430D02*
X147293746Y-77394620D01*
X147293746Y-77394620D02*
X147269936Y-77347001D01*
X147269936Y-77347001D02*
X147246127Y-77251763D01*
X147246127Y-77251763D02*
X147246127Y-77132715D01*
X147246127Y-77132715D02*
X147269936Y-77037477D01*
X147269936Y-77037477D02*
X147293746Y-76989858D01*
X147293746Y-76989858D02*
X147317555Y-76966049D01*
X147317555Y-76966049D02*
X147365174Y-76942239D01*
X147746126Y-77394620D02*
X147769936Y-77418430D01*
X147769936Y-77418430D02*
X147746126Y-77442239D01*
X147746126Y-77442239D02*
X147722317Y-77418430D01*
X147722317Y-77418430D02*
X147746126Y-77394620D01*
X147746126Y-77394620D02*
X147746126Y-77442239D01*
X148246126Y-77442239D02*
X147960412Y-77442239D01*
X148103269Y-77442239D02*
X148103269Y-76942239D01*
X148103269Y-76942239D02*
X148055650Y-77013668D01*
X148055650Y-77013668D02*
X148008031Y-77061287D01*
X148008031Y-77061287D02*
X147960412Y-77085096D01*
X148722316Y-77442239D02*
X148436602Y-77442239D01*
X148579459Y-77442239D02*
X148579459Y-76942239D01*
X148579459Y-76942239D02*
X148531840Y-77013668D01*
X148531840Y-77013668D02*
X148484221Y-77061287D01*
X148484221Y-77061287D02*
X148436602Y-77085096D01*
X143888984Y-77985306D02*
X143960412Y-78009116D01*
X143960412Y-78009116D02*
X143984222Y-78032925D01*
X143984222Y-78032925D02*
X144008031Y-78080544D01*
X144008031Y-78080544D02*
X144008031Y-78151973D01*
X144008031Y-78151973D02*
X143984222Y-78199592D01*
X143984222Y-78199592D02*
X143960412Y-78223402D01*
X143960412Y-78223402D02*
X143912793Y-78247211D01*
X143912793Y-78247211D02*
X143722317Y-78247211D01*
X143722317Y-78247211D02*
X143722317Y-77747211D01*
X143722317Y-77747211D02*
X143888984Y-77747211D01*
X143888984Y-77747211D02*
X143936603Y-77771021D01*
X143936603Y-77771021D02*
X143960412Y-77794830D01*
X143960412Y-77794830D02*
X143984222Y-77842449D01*
X143984222Y-77842449D02*
X143984222Y-77890068D01*
X143984222Y-77890068D02*
X143960412Y-77937687D01*
X143960412Y-77937687D02*
X143936603Y-77961497D01*
X143936603Y-77961497D02*
X143888984Y-77985306D01*
X143888984Y-77985306D02*
X143722317Y-77985306D01*
X144317555Y-77747211D02*
X144412793Y-77747211D01*
X144412793Y-77747211D02*
X144460412Y-77771021D01*
X144460412Y-77771021D02*
X144508031Y-77818640D01*
X144508031Y-77818640D02*
X144531841Y-77913878D01*
X144531841Y-77913878D02*
X144531841Y-78080544D01*
X144531841Y-78080544D02*
X144508031Y-78175782D01*
X144508031Y-78175782D02*
X144460412Y-78223402D01*
X144460412Y-78223402D02*
X144412793Y-78247211D01*
X144412793Y-78247211D02*
X144317555Y-78247211D01*
X144317555Y-78247211D02*
X144269936Y-78223402D01*
X144269936Y-78223402D02*
X144222317Y-78175782D01*
X144222317Y-78175782D02*
X144198508Y-78080544D01*
X144198508Y-78080544D02*
X144198508Y-77913878D01*
X144198508Y-77913878D02*
X144222317Y-77818640D01*
X144222317Y-77818640D02*
X144269936Y-77771021D01*
X144269936Y-77771021D02*
X144317555Y-77747211D01*
X144674699Y-77747211D02*
X144960413Y-77747211D01*
X144817556Y-78247211D02*
X144817556Y-77747211D01*
X145508031Y-78056735D02*
X145888984Y-78056735D01*
X146127079Y-77913878D02*
X146508032Y-78056735D01*
X146508032Y-78056735D02*
X146127079Y-78199592D01*
X147222317Y-77747211D02*
X147269936Y-77747211D01*
X147269936Y-77747211D02*
X147317555Y-77771021D01*
X147317555Y-77771021D02*
X147341365Y-77794830D01*
X147341365Y-77794830D02*
X147365174Y-77842449D01*
X147365174Y-77842449D02*
X147388984Y-77937687D01*
X147388984Y-77937687D02*
X147388984Y-78056735D01*
X147388984Y-78056735D02*
X147365174Y-78151973D01*
X147365174Y-78151973D02*
X147341365Y-78199592D01*
X147341365Y-78199592D02*
X147317555Y-78223402D01*
X147317555Y-78223402D02*
X147269936Y-78247211D01*
X147269936Y-78247211D02*
X147222317Y-78247211D01*
X147222317Y-78247211D02*
X147174698Y-78223402D01*
X147174698Y-78223402D02*
X147150889Y-78199592D01*
X147150889Y-78199592D02*
X147127079Y-78151973D01*
X147127079Y-78151973D02*
X147103270Y-78056735D01*
X147103270Y-78056735D02*
X147103270Y-77937687D01*
X147103270Y-77937687D02*
X147127079Y-77842449D01*
X147127079Y-77842449D02*
X147150889Y-77794830D01*
X147150889Y-77794830D02*
X147174698Y-77771021D01*
X147174698Y-77771021D02*
X147222317Y-77747211D01*
X147603269Y-78199592D02*
X147627079Y-78223402D01*
X147627079Y-78223402D02*
X147603269Y-78247211D01*
X147603269Y-78247211D02*
X147579460Y-78223402D01*
X147579460Y-78223402D02*
X147603269Y-78199592D01*
X147603269Y-78199592D02*
X147603269Y-78247211D01*
X148103269Y-78247211D02*
X147817555Y-78247211D01*
X147960412Y-78247211D02*
X147960412Y-77747211D01*
X147960412Y-77747211D02*
X147912793Y-77818640D01*
X147912793Y-77818640D02*
X147865174Y-77866259D01*
X147865174Y-77866259D02*
X147817555Y-77890068D01*
X148388983Y-77961497D02*
X148341364Y-77937687D01*
X148341364Y-77937687D02*
X148317554Y-77913878D01*
X148317554Y-77913878D02*
X148293745Y-77866259D01*
X148293745Y-77866259D02*
X148293745Y-77842449D01*
X148293745Y-77842449D02*
X148317554Y-77794830D01*
X148317554Y-77794830D02*
X148341364Y-77771021D01*
X148341364Y-77771021D02*
X148388983Y-77747211D01*
X148388983Y-77747211D02*
X148484221Y-77747211D01*
X148484221Y-77747211D02*
X148531840Y-77771021D01*
X148531840Y-77771021D02*
X148555649Y-77794830D01*
X148555649Y-77794830D02*
X148579459Y-77842449D01*
X148579459Y-77842449D02*
X148579459Y-77866259D01*
X148579459Y-77866259D02*
X148555649Y-77913878D01*
X148555649Y-77913878D02*
X148531840Y-77937687D01*
X148531840Y-77937687D02*
X148484221Y-77961497D01*
X148484221Y-77961497D02*
X148388983Y-77961497D01*
X148388983Y-77961497D02*
X148341364Y-77985306D01*
X148341364Y-77985306D02*
X148317554Y-78009116D01*
X148317554Y-78009116D02*
X148293745Y-78056735D01*
X148293745Y-78056735D02*
X148293745Y-78151973D01*
X148293745Y-78151973D02*
X148317554Y-78199592D01*
X148317554Y-78199592D02*
X148341364Y-78223402D01*
X148341364Y-78223402D02*
X148388983Y-78247211D01*
X148388983Y-78247211D02*
X148484221Y-78247211D01*
X148484221Y-78247211D02*
X148531840Y-78223402D01*
X148531840Y-78223402D02*
X148555649Y-78199592D01*
X148555649Y-78199592D02*
X148579459Y-78151973D01*
X148579459Y-78151973D02*
X148579459Y-78056735D01*
X148579459Y-78056735D02*
X148555649Y-78009116D01*
X148555649Y-78009116D02*
X148531840Y-77985306D01*
X148531840Y-77985306D02*
X148484221Y-77961497D01*
X143698508Y-79028374D02*
X143769936Y-79052183D01*
X143769936Y-79052183D02*
X143888984Y-79052183D01*
X143888984Y-79052183D02*
X143936603Y-79028374D01*
X143936603Y-79028374D02*
X143960412Y-79004564D01*
X143960412Y-79004564D02*
X143984222Y-78956945D01*
X143984222Y-78956945D02*
X143984222Y-78909326D01*
X143984222Y-78909326D02*
X143960412Y-78861707D01*
X143960412Y-78861707D02*
X143936603Y-78837897D01*
X143936603Y-78837897D02*
X143888984Y-78814088D01*
X143888984Y-78814088D02*
X143793746Y-78790278D01*
X143793746Y-78790278D02*
X143746127Y-78766469D01*
X143746127Y-78766469D02*
X143722317Y-78742659D01*
X143722317Y-78742659D02*
X143698508Y-78695040D01*
X143698508Y-78695040D02*
X143698508Y-78647421D01*
X143698508Y-78647421D02*
X143722317Y-78599802D01*
X143722317Y-78599802D02*
X143746127Y-78575993D01*
X143746127Y-78575993D02*
X143793746Y-78552183D01*
X143793746Y-78552183D02*
X143912793Y-78552183D01*
X143912793Y-78552183D02*
X143984222Y-78575993D01*
X144198507Y-78790278D02*
X144365174Y-78790278D01*
X144436602Y-79052183D02*
X144198507Y-79052183D01*
X144198507Y-79052183D02*
X144198507Y-78552183D01*
X144198507Y-78552183D02*
X144436602Y-78552183D01*
X145246126Y-78718850D02*
X145246126Y-79052183D01*
X145127078Y-78528374D02*
X145008031Y-78885516D01*
X145008031Y-78885516D02*
X145317554Y-78885516D01*
X145746125Y-78552183D02*
X145508030Y-78552183D01*
X145508030Y-78552183D02*
X145484221Y-78790278D01*
X145484221Y-78790278D02*
X145508030Y-78766469D01*
X145508030Y-78766469D02*
X145555649Y-78742659D01*
X145555649Y-78742659D02*
X145674697Y-78742659D01*
X145674697Y-78742659D02*
X145722316Y-78766469D01*
X145722316Y-78766469D02*
X145746125Y-78790278D01*
X145746125Y-78790278D02*
X145769935Y-78837897D01*
X145769935Y-78837897D02*
X145769935Y-78956945D01*
X145769935Y-78956945D02*
X145746125Y-79004564D01*
X145746125Y-79004564D02*
X145722316Y-79028374D01*
X145722316Y-79028374D02*
X145674697Y-79052183D01*
X145674697Y-79052183D02*
X145555649Y-79052183D01*
X145555649Y-79052183D02*
X145508030Y-79028374D01*
X145508030Y-79028374D02*
X145484221Y-79004564D01*
X143650889Y-79357155D02*
X143936603Y-79357155D01*
X143793746Y-79857155D02*
X143793746Y-79357155D01*
X144198507Y-79357155D02*
X144293745Y-79357155D01*
X144293745Y-79357155D02*
X144341364Y-79380965D01*
X144341364Y-79380965D02*
X144388983Y-79428584D01*
X144388983Y-79428584D02*
X144412793Y-79523822D01*
X144412793Y-79523822D02*
X144412793Y-79690488D01*
X144412793Y-79690488D02*
X144388983Y-79785726D01*
X144388983Y-79785726D02*
X144341364Y-79833346D01*
X144341364Y-79833346D02*
X144293745Y-79857155D01*
X144293745Y-79857155D02*
X144198507Y-79857155D01*
X144198507Y-79857155D02*
X144150888Y-79833346D01*
X144150888Y-79833346D02*
X144103269Y-79785726D01*
X144103269Y-79785726D02*
X144079460Y-79690488D01*
X144079460Y-79690488D02*
X144079460Y-79523822D01*
X144079460Y-79523822D02*
X144103269Y-79428584D01*
X144103269Y-79428584D02*
X144150888Y-79380965D01*
X144150888Y-79380965D02*
X144198507Y-79357155D01*
X144627079Y-79857155D02*
X144627079Y-79357155D01*
X144627079Y-79357155D02*
X144817555Y-79357155D01*
X144817555Y-79357155D02*
X144865174Y-79380965D01*
X144865174Y-79380965D02*
X144888984Y-79404774D01*
X144888984Y-79404774D02*
X144912793Y-79452393D01*
X144912793Y-79452393D02*
X144912793Y-79523822D01*
X144912793Y-79523822D02*
X144888984Y-79571441D01*
X144888984Y-79571441D02*
X144865174Y-79595250D01*
X144865174Y-79595250D02*
X144817555Y-79619060D01*
X144817555Y-79619060D02*
X144627079Y-79619060D01*
X145508031Y-79666679D02*
X145888984Y-79666679D01*
X146127079Y-79523822D02*
X146508032Y-79666679D01*
X146508032Y-79666679D02*
X146127079Y-79809536D01*
X147222317Y-79357155D02*
X147269936Y-79357155D01*
X147269936Y-79357155D02*
X147317555Y-79380965D01*
X147317555Y-79380965D02*
X147341365Y-79404774D01*
X147341365Y-79404774D02*
X147365174Y-79452393D01*
X147365174Y-79452393D02*
X147388984Y-79547631D01*
X147388984Y-79547631D02*
X147388984Y-79666679D01*
X147388984Y-79666679D02*
X147365174Y-79761917D01*
X147365174Y-79761917D02*
X147341365Y-79809536D01*
X147341365Y-79809536D02*
X147317555Y-79833346D01*
X147317555Y-79833346D02*
X147269936Y-79857155D01*
X147269936Y-79857155D02*
X147222317Y-79857155D01*
X147222317Y-79857155D02*
X147174698Y-79833346D01*
X147174698Y-79833346D02*
X147150889Y-79809536D01*
X147150889Y-79809536D02*
X147127079Y-79761917D01*
X147127079Y-79761917D02*
X147103270Y-79666679D01*
X147103270Y-79666679D02*
X147103270Y-79547631D01*
X147103270Y-79547631D02*
X147127079Y-79452393D01*
X147127079Y-79452393D02*
X147150889Y-79404774D01*
X147150889Y-79404774D02*
X147174698Y-79380965D01*
X147174698Y-79380965D02*
X147222317Y-79357155D01*
X147603269Y-79809536D02*
X147627079Y-79833346D01*
X147627079Y-79833346D02*
X147603269Y-79857155D01*
X147603269Y-79857155D02*
X147579460Y-79833346D01*
X147579460Y-79833346D02*
X147603269Y-79809536D01*
X147603269Y-79809536D02*
X147603269Y-79857155D01*
X147817555Y-79404774D02*
X147841364Y-79380965D01*
X147841364Y-79380965D02*
X147888983Y-79357155D01*
X147888983Y-79357155D02*
X148008031Y-79357155D01*
X148008031Y-79357155D02*
X148055650Y-79380965D01*
X148055650Y-79380965D02*
X148079459Y-79404774D01*
X148079459Y-79404774D02*
X148103269Y-79452393D01*
X148103269Y-79452393D02*
X148103269Y-79500012D01*
X148103269Y-79500012D02*
X148079459Y-79571441D01*
X148079459Y-79571441D02*
X147793745Y-79857155D01*
X147793745Y-79857155D02*
X148103269Y-79857155D01*
X148579459Y-79857155D02*
X148293745Y-79857155D01*
X148436602Y-79857155D02*
X148436602Y-79357155D01*
X148436602Y-79357155D02*
X148388983Y-79428584D01*
X148388983Y-79428584D02*
X148341364Y-79476203D01*
X148341364Y-79476203D02*
X148293745Y-79500012D01*
X143698508Y-80638318D02*
X143769936Y-80662127D01*
X143769936Y-80662127D02*
X143888984Y-80662127D01*
X143888984Y-80662127D02*
X143936603Y-80638318D01*
X143936603Y-80638318D02*
X143960412Y-80614508D01*
X143960412Y-80614508D02*
X143984222Y-80566889D01*
X143984222Y-80566889D02*
X143984222Y-80519270D01*
X143984222Y-80519270D02*
X143960412Y-80471651D01*
X143960412Y-80471651D02*
X143936603Y-80447841D01*
X143936603Y-80447841D02*
X143888984Y-80424032D01*
X143888984Y-80424032D02*
X143793746Y-80400222D01*
X143793746Y-80400222D02*
X143746127Y-80376413D01*
X143746127Y-80376413D02*
X143722317Y-80352603D01*
X143722317Y-80352603D02*
X143698508Y-80304984D01*
X143698508Y-80304984D02*
X143698508Y-80257365D01*
X143698508Y-80257365D02*
X143722317Y-80209746D01*
X143722317Y-80209746D02*
X143746127Y-80185937D01*
X143746127Y-80185937D02*
X143793746Y-80162127D01*
X143793746Y-80162127D02*
X143912793Y-80162127D01*
X143912793Y-80162127D02*
X143984222Y-80185937D01*
X144460412Y-80662127D02*
X144174698Y-80662127D01*
X144317555Y-80662127D02*
X144317555Y-80162127D01*
X144317555Y-80162127D02*
X144269936Y-80233556D01*
X144269936Y-80233556D02*
X144222317Y-80281175D01*
X144222317Y-80281175D02*
X144174698Y-80304984D01*
X145436601Y-80471651D02*
X145817554Y-80471651D01*
X146055649Y-80328794D02*
X146436602Y-80471651D01*
X146436602Y-80471651D02*
X146055649Y-80614508D01*
X147150887Y-80162127D02*
X147198506Y-80162127D01*
X147198506Y-80162127D02*
X147246125Y-80185937D01*
X147246125Y-80185937D02*
X147269935Y-80209746D01*
X147269935Y-80209746D02*
X147293744Y-80257365D01*
X147293744Y-80257365D02*
X147317554Y-80352603D01*
X147317554Y-80352603D02*
X147317554Y-80471651D01*
X147317554Y-80471651D02*
X147293744Y-80566889D01*
X147293744Y-80566889D02*
X147269935Y-80614508D01*
X147269935Y-80614508D02*
X147246125Y-80638318D01*
X147246125Y-80638318D02*
X147198506Y-80662127D01*
X147198506Y-80662127D02*
X147150887Y-80662127D01*
X147150887Y-80662127D02*
X147103268Y-80638318D01*
X147103268Y-80638318D02*
X147079459Y-80614508D01*
X147079459Y-80614508D02*
X147055649Y-80566889D01*
X147055649Y-80566889D02*
X147031840Y-80471651D01*
X147031840Y-80471651D02*
X147031840Y-80352603D01*
X147031840Y-80352603D02*
X147055649Y-80257365D01*
X147055649Y-80257365D02*
X147079459Y-80209746D01*
X147079459Y-80209746D02*
X147103268Y-80185937D01*
X147103268Y-80185937D02*
X147150887Y-80162127D01*
X147531839Y-80614508D02*
X147555649Y-80638318D01*
X147555649Y-80638318D02*
X147531839Y-80662127D01*
X147531839Y-80662127D02*
X147508030Y-80638318D01*
X147508030Y-80638318D02*
X147531839Y-80614508D01*
X147531839Y-80614508D02*
X147531839Y-80662127D01*
X148031839Y-80662127D02*
X147746125Y-80662127D01*
X147888982Y-80662127D02*
X147888982Y-80162127D01*
X147888982Y-80162127D02*
X147841363Y-80233556D01*
X147841363Y-80233556D02*
X147793744Y-80281175D01*
X147793744Y-80281175D02*
X147746125Y-80304984D01*
X148460410Y-80328794D02*
X148460410Y-80662127D01*
X148341362Y-80138318D02*
X148222315Y-80495460D01*
X148222315Y-80495460D02*
X148531838Y-80495460D01*
X143698508Y-81443290D02*
X143769936Y-81467099D01*
X143769936Y-81467099D02*
X143888984Y-81467099D01*
X143888984Y-81467099D02*
X143936603Y-81443290D01*
X143936603Y-81443290D02*
X143960412Y-81419480D01*
X143960412Y-81419480D02*
X143984222Y-81371861D01*
X143984222Y-81371861D02*
X143984222Y-81324242D01*
X143984222Y-81324242D02*
X143960412Y-81276623D01*
X143960412Y-81276623D02*
X143936603Y-81252813D01*
X143936603Y-81252813D02*
X143888984Y-81229004D01*
X143888984Y-81229004D02*
X143793746Y-81205194D01*
X143793746Y-81205194D02*
X143746127Y-81181385D01*
X143746127Y-81181385D02*
X143722317Y-81157575D01*
X143722317Y-81157575D02*
X143698508Y-81109956D01*
X143698508Y-81109956D02*
X143698508Y-81062337D01*
X143698508Y-81062337D02*
X143722317Y-81014718D01*
X143722317Y-81014718D02*
X143746127Y-80990909D01*
X143746127Y-80990909D02*
X143793746Y-80967099D01*
X143793746Y-80967099D02*
X143912793Y-80967099D01*
X143912793Y-80967099D02*
X143984222Y-80990909D01*
X144174698Y-81014718D02*
X144198507Y-80990909D01*
X144198507Y-80990909D02*
X144246126Y-80967099D01*
X144246126Y-80967099D02*
X144365174Y-80967099D01*
X144365174Y-80967099D02*
X144412793Y-80990909D01*
X144412793Y-80990909D02*
X144436602Y-81014718D01*
X144436602Y-81014718D02*
X144460412Y-81062337D01*
X144460412Y-81062337D02*
X144460412Y-81109956D01*
X144460412Y-81109956D02*
X144436602Y-81181385D01*
X144436602Y-81181385D02*
X144150888Y-81467099D01*
X144150888Y-81467099D02*
X144460412Y-81467099D01*
X145436601Y-81276623D02*
X145817554Y-81276623D01*
X146055649Y-81133766D02*
X146436602Y-81276623D01*
X146436602Y-81276623D02*
X146055649Y-81419480D01*
X147150887Y-80967099D02*
X147198506Y-80967099D01*
X147198506Y-80967099D02*
X147246125Y-80990909D01*
X147246125Y-80990909D02*
X147269935Y-81014718D01*
X147269935Y-81014718D02*
X147293744Y-81062337D01*
X147293744Y-81062337D02*
X147317554Y-81157575D01*
X147317554Y-81157575D02*
X147317554Y-81276623D01*
X147317554Y-81276623D02*
X147293744Y-81371861D01*
X147293744Y-81371861D02*
X147269935Y-81419480D01*
X147269935Y-81419480D02*
X147246125Y-81443290D01*
X147246125Y-81443290D02*
X147198506Y-81467099D01*
X147198506Y-81467099D02*
X147150887Y-81467099D01*
X147150887Y-81467099D02*
X147103268Y-81443290D01*
X147103268Y-81443290D02*
X147079459Y-81419480D01*
X147079459Y-81419480D02*
X147055649Y-81371861D01*
X147055649Y-81371861D02*
X147031840Y-81276623D01*
X147031840Y-81276623D02*
X147031840Y-81157575D01*
X147031840Y-81157575D02*
X147055649Y-81062337D01*
X147055649Y-81062337D02*
X147079459Y-81014718D01*
X147079459Y-81014718D02*
X147103268Y-80990909D01*
X147103268Y-80990909D02*
X147150887Y-80967099D01*
X147531839Y-81419480D02*
X147555649Y-81443290D01*
X147555649Y-81443290D02*
X147531839Y-81467099D01*
X147531839Y-81467099D02*
X147508030Y-81443290D01*
X147508030Y-81443290D02*
X147531839Y-81419480D01*
X147531839Y-81419480D02*
X147531839Y-81467099D01*
X148031839Y-81467099D02*
X147746125Y-81467099D01*
X147888982Y-81467099D02*
X147888982Y-80967099D01*
X147888982Y-80967099D02*
X147841363Y-81038528D01*
X147841363Y-81038528D02*
X147793744Y-81086147D01*
X147793744Y-81086147D02*
X147746125Y-81109956D01*
X148460410Y-81133766D02*
X148460410Y-81467099D01*
X148341362Y-80943290D02*
X148222315Y-81300432D01*
X148222315Y-81300432D02*
X148531838Y-81300432D01*
X143722317Y-82272071D02*
X143722317Y-81772071D01*
X143722317Y-81772071D02*
X143912793Y-81772071D01*
X143912793Y-81772071D02*
X143960412Y-81795881D01*
X143960412Y-81795881D02*
X143984222Y-81819690D01*
X143984222Y-81819690D02*
X144008031Y-81867309D01*
X144008031Y-81867309D02*
X144008031Y-81938738D01*
X144008031Y-81938738D02*
X143984222Y-81986357D01*
X143984222Y-81986357D02*
X143960412Y-82010166D01*
X143960412Y-82010166D02*
X143912793Y-82033976D01*
X143912793Y-82033976D02*
X143722317Y-82033976D01*
X144174698Y-81772071D02*
X144293746Y-82272071D01*
X144293746Y-82272071D02*
X144388984Y-81914928D01*
X144388984Y-81914928D02*
X144484222Y-82272071D01*
X144484222Y-82272071D02*
X144603270Y-81772071D01*
X144769937Y-81819690D02*
X144793746Y-81795881D01*
X144793746Y-81795881D02*
X144841365Y-81772071D01*
X144841365Y-81772071D02*
X144960413Y-81772071D01*
X144960413Y-81772071D02*
X145008032Y-81795881D01*
X145008032Y-81795881D02*
X145031841Y-81819690D01*
X145031841Y-81819690D02*
X145055651Y-81867309D01*
X145055651Y-81867309D02*
X145055651Y-81914928D01*
X145055651Y-81914928D02*
X145031841Y-81986357D01*
X145031841Y-81986357D02*
X144746127Y-82272071D01*
X144746127Y-82272071D02*
X145055651Y-82272071D01*
X145650888Y-82081595D02*
X146031841Y-82081595D01*
X146269936Y-81938738D02*
X146650889Y-82081595D01*
X146650889Y-82081595D02*
X146269936Y-82224452D01*
X147365174Y-81772071D02*
X147412793Y-81772071D01*
X147412793Y-81772071D02*
X147460412Y-81795881D01*
X147460412Y-81795881D02*
X147484222Y-81819690D01*
X147484222Y-81819690D02*
X147508031Y-81867309D01*
X147508031Y-81867309D02*
X147531841Y-81962547D01*
X147531841Y-81962547D02*
X147531841Y-82081595D01*
X147531841Y-82081595D02*
X147508031Y-82176833D01*
X147508031Y-82176833D02*
X147484222Y-82224452D01*
X147484222Y-82224452D02*
X147460412Y-82248262D01*
X147460412Y-82248262D02*
X147412793Y-82272071D01*
X147412793Y-82272071D02*
X147365174Y-82272071D01*
X147365174Y-82272071D02*
X147317555Y-82248262D01*
X147317555Y-82248262D02*
X147293746Y-82224452D01*
X147293746Y-82224452D02*
X147269936Y-82176833D01*
X147269936Y-82176833D02*
X147246127Y-82081595D01*
X147246127Y-82081595D02*
X147246127Y-81962547D01*
X147246127Y-81962547D02*
X147269936Y-81867309D01*
X147269936Y-81867309D02*
X147293746Y-81819690D01*
X147293746Y-81819690D02*
X147317555Y-81795881D01*
X147317555Y-81795881D02*
X147365174Y-81772071D01*
X147746126Y-82224452D02*
X147769936Y-82248262D01*
X147769936Y-82248262D02*
X147746126Y-82272071D01*
X147746126Y-82272071D02*
X147722317Y-82248262D01*
X147722317Y-82248262D02*
X147746126Y-82224452D01*
X147746126Y-82224452D02*
X147746126Y-82272071D01*
X148246126Y-82272071D02*
X147960412Y-82272071D01*
X148103269Y-82272071D02*
X148103269Y-81772071D01*
X148103269Y-81772071D02*
X148055650Y-81843500D01*
X148055650Y-81843500D02*
X148008031Y-81891119D01*
X148008031Y-81891119D02*
X147960412Y-81914928D01*
X148674697Y-81938738D02*
X148674697Y-82272071D01*
X148555649Y-81748262D02*
X148436602Y-82105404D01*
X148436602Y-82105404D02*
X148746125Y-82105404D01*
X143888984Y-82815138D02*
X143960412Y-82838948D01*
X143960412Y-82838948D02*
X143984222Y-82862757D01*
X143984222Y-82862757D02*
X144008031Y-82910376D01*
X144008031Y-82910376D02*
X144008031Y-82981805D01*
X144008031Y-82981805D02*
X143984222Y-83029424D01*
X143984222Y-83029424D02*
X143960412Y-83053234D01*
X143960412Y-83053234D02*
X143912793Y-83077043D01*
X143912793Y-83077043D02*
X143722317Y-83077043D01*
X143722317Y-83077043D02*
X143722317Y-82577043D01*
X143722317Y-82577043D02*
X143888984Y-82577043D01*
X143888984Y-82577043D02*
X143936603Y-82600853D01*
X143936603Y-82600853D02*
X143960412Y-82624662D01*
X143960412Y-82624662D02*
X143984222Y-82672281D01*
X143984222Y-82672281D02*
X143984222Y-82719900D01*
X143984222Y-82719900D02*
X143960412Y-82767519D01*
X143960412Y-82767519D02*
X143936603Y-82791329D01*
X143936603Y-82791329D02*
X143888984Y-82815138D01*
X143888984Y-82815138D02*
X143722317Y-82815138D01*
X144317555Y-82577043D02*
X144412793Y-82577043D01*
X144412793Y-82577043D02*
X144460412Y-82600853D01*
X144460412Y-82600853D02*
X144508031Y-82648472D01*
X144508031Y-82648472D02*
X144531841Y-82743710D01*
X144531841Y-82743710D02*
X144531841Y-82910376D01*
X144531841Y-82910376D02*
X144508031Y-83005614D01*
X144508031Y-83005614D02*
X144460412Y-83053234D01*
X144460412Y-83053234D02*
X144412793Y-83077043D01*
X144412793Y-83077043D02*
X144317555Y-83077043D01*
X144317555Y-83077043D02*
X144269936Y-83053234D01*
X144269936Y-83053234D02*
X144222317Y-83005614D01*
X144222317Y-83005614D02*
X144198508Y-82910376D01*
X144198508Y-82910376D02*
X144198508Y-82743710D01*
X144198508Y-82743710D02*
X144222317Y-82648472D01*
X144222317Y-82648472D02*
X144269936Y-82600853D01*
X144269936Y-82600853D02*
X144317555Y-82577043D01*
X144674699Y-82577043D02*
X144960413Y-82577043D01*
X144817556Y-83077043D02*
X144817556Y-82577043D01*
X145508031Y-82886567D02*
X145888984Y-82886567D01*
X146127079Y-82743710D02*
X146508032Y-82886567D01*
X146508032Y-82886567D02*
X146127079Y-83029424D01*
X147222317Y-82577043D02*
X147269936Y-82577043D01*
X147269936Y-82577043D02*
X147317555Y-82600853D01*
X147317555Y-82600853D02*
X147341365Y-82624662D01*
X147341365Y-82624662D02*
X147365174Y-82672281D01*
X147365174Y-82672281D02*
X147388984Y-82767519D01*
X147388984Y-82767519D02*
X147388984Y-82886567D01*
X147388984Y-82886567D02*
X147365174Y-82981805D01*
X147365174Y-82981805D02*
X147341365Y-83029424D01*
X147341365Y-83029424D02*
X147317555Y-83053234D01*
X147317555Y-83053234D02*
X147269936Y-83077043D01*
X147269936Y-83077043D02*
X147222317Y-83077043D01*
X147222317Y-83077043D02*
X147174698Y-83053234D01*
X147174698Y-83053234D02*
X147150889Y-83029424D01*
X147150889Y-83029424D02*
X147127079Y-82981805D01*
X147127079Y-82981805D02*
X147103270Y-82886567D01*
X147103270Y-82886567D02*
X147103270Y-82767519D01*
X147103270Y-82767519D02*
X147127079Y-82672281D01*
X147127079Y-82672281D02*
X147150889Y-82624662D01*
X147150889Y-82624662D02*
X147174698Y-82600853D01*
X147174698Y-82600853D02*
X147222317Y-82577043D01*
X147603269Y-83029424D02*
X147627079Y-83053234D01*
X147627079Y-83053234D02*
X147603269Y-83077043D01*
X147603269Y-83077043D02*
X147579460Y-83053234D01*
X147579460Y-83053234D02*
X147603269Y-83029424D01*
X147603269Y-83029424D02*
X147603269Y-83077043D01*
X147817555Y-82624662D02*
X147841364Y-82600853D01*
X147841364Y-82600853D02*
X147888983Y-82577043D01*
X147888983Y-82577043D02*
X148008031Y-82577043D01*
X148008031Y-82577043D02*
X148055650Y-82600853D01*
X148055650Y-82600853D02*
X148079459Y-82624662D01*
X148079459Y-82624662D02*
X148103269Y-82672281D01*
X148103269Y-82672281D02*
X148103269Y-82719900D01*
X148103269Y-82719900D02*
X148079459Y-82791329D01*
X148079459Y-82791329D02*
X147793745Y-83077043D01*
X147793745Y-83077043D02*
X148103269Y-83077043D01*
X148579459Y-83077043D02*
X148293745Y-83077043D01*
X148436602Y-83077043D02*
X148436602Y-82577043D01*
X148436602Y-82577043D02*
X148388983Y-82648472D01*
X148388983Y-82648472D02*
X148341364Y-82696091D01*
X148341364Y-82696091D02*
X148293745Y-82719900D01*
X143722317Y-83882015D02*
X143722317Y-83382015D01*
X143722317Y-83382015D02*
X143841365Y-83382015D01*
X143841365Y-83382015D02*
X143912793Y-83405825D01*
X143912793Y-83405825D02*
X143960412Y-83453444D01*
X143960412Y-83453444D02*
X143984222Y-83501063D01*
X143984222Y-83501063D02*
X144008031Y-83596301D01*
X144008031Y-83596301D02*
X144008031Y-83667729D01*
X144008031Y-83667729D02*
X143984222Y-83762967D01*
X143984222Y-83762967D02*
X143960412Y-83810586D01*
X143960412Y-83810586D02*
X143912793Y-83858206D01*
X143912793Y-83858206D02*
X143841365Y-83882015D01*
X143841365Y-83882015D02*
X143722317Y-83882015D01*
X144388984Y-83620110D02*
X144222317Y-83620110D01*
X144222317Y-83882015D02*
X144222317Y-83382015D01*
X144222317Y-83382015D02*
X144460412Y-83382015D01*
X145293745Y-83882015D02*
X145008031Y-83882015D01*
X145150888Y-83882015D02*
X145150888Y-83382015D01*
X145150888Y-83382015D02*
X145103269Y-83453444D01*
X145103269Y-83453444D02*
X145055650Y-83501063D01*
X145055650Y-83501063D02*
X145008031Y-83524872D01*
X145603268Y-83382015D02*
X145650887Y-83382015D01*
X145650887Y-83382015D02*
X145698506Y-83405825D01*
X145698506Y-83405825D02*
X145722316Y-83429634D01*
X145722316Y-83429634D02*
X145746125Y-83477253D01*
X145746125Y-83477253D02*
X145769935Y-83572491D01*
X145769935Y-83572491D02*
X145769935Y-83691539D01*
X145769935Y-83691539D02*
X145746125Y-83786777D01*
X145746125Y-83786777D02*
X145722316Y-83834396D01*
X145722316Y-83834396D02*
X145698506Y-83858206D01*
X145698506Y-83858206D02*
X145650887Y-83882015D01*
X145650887Y-83882015D02*
X145603268Y-83882015D01*
X145603268Y-83882015D02*
X145555649Y-83858206D01*
X145555649Y-83858206D02*
X145531840Y-83834396D01*
X145531840Y-83834396D02*
X145508030Y-83786777D01*
X145508030Y-83786777D02*
X145484221Y-83691539D01*
X145484221Y-83691539D02*
X145484221Y-83572491D01*
X145484221Y-83572491D02*
X145508030Y-83477253D01*
X145508030Y-83477253D02*
X145531840Y-83429634D01*
X145531840Y-83429634D02*
X145555649Y-83405825D01*
X145555649Y-83405825D02*
X145603268Y-83382015D01*
X146079458Y-83382015D02*
X146127077Y-83382015D01*
X146127077Y-83382015D02*
X146174696Y-83405825D01*
X146174696Y-83405825D02*
X146198506Y-83429634D01*
X146198506Y-83429634D02*
X146222315Y-83477253D01*
X146222315Y-83477253D02*
X146246125Y-83572491D01*
X146246125Y-83572491D02*
X146246125Y-83691539D01*
X146246125Y-83691539D02*
X146222315Y-83786777D01*
X146222315Y-83786777D02*
X146198506Y-83834396D01*
X146198506Y-83834396D02*
X146174696Y-83858206D01*
X146174696Y-83858206D02*
X146127077Y-83882015D01*
X146127077Y-83882015D02*
X146079458Y-83882015D01*
X146079458Y-83882015D02*
X146031839Y-83858206D01*
X146031839Y-83858206D02*
X146008030Y-83834396D01*
X146008030Y-83834396D02*
X145984220Y-83786777D01*
X145984220Y-83786777D02*
X145960411Y-83691539D01*
X145960411Y-83691539D02*
X145960411Y-83572491D01*
X145960411Y-83572491D02*
X145984220Y-83477253D01*
X145984220Y-83477253D02*
X146008030Y-83429634D01*
X146008030Y-83429634D02*
X146031839Y-83405825D01*
X146031839Y-83405825D02*
X146079458Y-83382015D01*
X143650889Y-84186987D02*
X143936603Y-84186987D01*
X143793746Y-84686987D02*
X143793746Y-84186987D01*
X144198507Y-84186987D02*
X144293745Y-84186987D01*
X144293745Y-84186987D02*
X144341364Y-84210797D01*
X144341364Y-84210797D02*
X144388983Y-84258416D01*
X144388983Y-84258416D02*
X144412793Y-84353654D01*
X144412793Y-84353654D02*
X144412793Y-84520320D01*
X144412793Y-84520320D02*
X144388983Y-84615558D01*
X144388983Y-84615558D02*
X144341364Y-84663178D01*
X144341364Y-84663178D02*
X144293745Y-84686987D01*
X144293745Y-84686987D02*
X144198507Y-84686987D01*
X144198507Y-84686987D02*
X144150888Y-84663178D01*
X144150888Y-84663178D02*
X144103269Y-84615558D01*
X144103269Y-84615558D02*
X144079460Y-84520320D01*
X144079460Y-84520320D02*
X144079460Y-84353654D01*
X144079460Y-84353654D02*
X144103269Y-84258416D01*
X144103269Y-84258416D02*
X144150888Y-84210797D01*
X144150888Y-84210797D02*
X144198507Y-84186987D01*
X144627079Y-84686987D02*
X144627079Y-84186987D01*
X144627079Y-84186987D02*
X144817555Y-84186987D01*
X144817555Y-84186987D02*
X144865174Y-84210797D01*
X144865174Y-84210797D02*
X144888984Y-84234606D01*
X144888984Y-84234606D02*
X144912793Y-84282225D01*
X144912793Y-84282225D02*
X144912793Y-84353654D01*
X144912793Y-84353654D02*
X144888984Y-84401273D01*
X144888984Y-84401273D02*
X144865174Y-84425082D01*
X144865174Y-84425082D02*
X144817555Y-84448892D01*
X144817555Y-84448892D02*
X144627079Y-84448892D01*
X145508031Y-84496511D02*
X145888984Y-84496511D01*
X146127079Y-84353654D02*
X146508032Y-84496511D01*
X146508032Y-84496511D02*
X146127079Y-84639368D01*
X147222317Y-84186987D02*
X147269936Y-84186987D01*
X147269936Y-84186987D02*
X147317555Y-84210797D01*
X147317555Y-84210797D02*
X147341365Y-84234606D01*
X147341365Y-84234606D02*
X147365174Y-84282225D01*
X147365174Y-84282225D02*
X147388984Y-84377463D01*
X147388984Y-84377463D02*
X147388984Y-84496511D01*
X147388984Y-84496511D02*
X147365174Y-84591749D01*
X147365174Y-84591749D02*
X147341365Y-84639368D01*
X147341365Y-84639368D02*
X147317555Y-84663178D01*
X147317555Y-84663178D02*
X147269936Y-84686987D01*
X147269936Y-84686987D02*
X147222317Y-84686987D01*
X147222317Y-84686987D02*
X147174698Y-84663178D01*
X147174698Y-84663178D02*
X147150889Y-84639368D01*
X147150889Y-84639368D02*
X147127079Y-84591749D01*
X147127079Y-84591749D02*
X147103270Y-84496511D01*
X147103270Y-84496511D02*
X147103270Y-84377463D01*
X147103270Y-84377463D02*
X147127079Y-84282225D01*
X147127079Y-84282225D02*
X147150889Y-84234606D01*
X147150889Y-84234606D02*
X147174698Y-84210797D01*
X147174698Y-84210797D02*
X147222317Y-84186987D01*
X147603269Y-84639368D02*
X147627079Y-84663178D01*
X147627079Y-84663178D02*
X147603269Y-84686987D01*
X147603269Y-84686987D02*
X147579460Y-84663178D01*
X147579460Y-84663178D02*
X147603269Y-84639368D01*
X147603269Y-84639368D02*
X147603269Y-84686987D01*
X148103269Y-84686987D02*
X147817555Y-84686987D01*
X147960412Y-84686987D02*
X147960412Y-84186987D01*
X147960412Y-84186987D02*
X147912793Y-84258416D01*
X147912793Y-84258416D02*
X147865174Y-84306035D01*
X147865174Y-84306035D02*
X147817555Y-84329844D01*
X148579459Y-84686987D02*
X148293745Y-84686987D01*
X148436602Y-84686987D02*
X148436602Y-84186987D01*
X148436602Y-84186987D02*
X148388983Y-84258416D01*
X148388983Y-84258416D02*
X148341364Y-84306035D01*
X148341364Y-84306035D02*
X148293745Y-84329844D01*
X148793744Y-84496511D02*
X149174697Y-84496511D01*
X149508030Y-84186987D02*
X149555649Y-84186987D01*
X149555649Y-84186987D02*
X149603268Y-84210797D01*
X149603268Y-84210797D02*
X149627078Y-84234606D01*
X149627078Y-84234606D02*
X149650887Y-84282225D01*
X149650887Y-84282225D02*
X149674697Y-84377463D01*
X149674697Y-84377463D02*
X149674697Y-84496511D01*
X149674697Y-84496511D02*
X149650887Y-84591749D01*
X149650887Y-84591749D02*
X149627078Y-84639368D01*
X149627078Y-84639368D02*
X149603268Y-84663178D01*
X149603268Y-84663178D02*
X149555649Y-84686987D01*
X149555649Y-84686987D02*
X149508030Y-84686987D01*
X149508030Y-84686987D02*
X149460411Y-84663178D01*
X149460411Y-84663178D02*
X149436602Y-84639368D01*
X149436602Y-84639368D02*
X149412792Y-84591749D01*
X149412792Y-84591749D02*
X149388983Y-84496511D01*
X149388983Y-84496511D02*
X149388983Y-84377463D01*
X149388983Y-84377463D02*
X149412792Y-84282225D01*
X149412792Y-84282225D02*
X149436602Y-84234606D01*
X149436602Y-84234606D02*
X149460411Y-84210797D01*
X149460411Y-84210797D02*
X149508030Y-84186987D01*
X149888982Y-84639368D02*
X149912792Y-84663178D01*
X149912792Y-84663178D02*
X149888982Y-84686987D01*
X149888982Y-84686987D02*
X149865173Y-84663178D01*
X149865173Y-84663178D02*
X149888982Y-84639368D01*
X149888982Y-84639368D02*
X149888982Y-84686987D01*
X150388982Y-84686987D02*
X150103268Y-84686987D01*
X150246125Y-84686987D02*
X150246125Y-84186987D01*
X150246125Y-84186987D02*
X150198506Y-84258416D01*
X150198506Y-84258416D02*
X150150887Y-84306035D01*
X150150887Y-84306035D02*
X150103268Y-84329844D01*
X150841362Y-84186987D02*
X150603267Y-84186987D01*
X150603267Y-84186987D02*
X150579458Y-84425082D01*
X150579458Y-84425082D02*
X150603267Y-84401273D01*
X150603267Y-84401273D02*
X150650886Y-84377463D01*
X150650886Y-84377463D02*
X150769934Y-84377463D01*
X150769934Y-84377463D02*
X150817553Y-84401273D01*
X150817553Y-84401273D02*
X150841362Y-84425082D01*
X150841362Y-84425082D02*
X150865172Y-84472701D01*
X150865172Y-84472701D02*
X150865172Y-84591749D01*
X150865172Y-84591749D02*
X150841362Y-84639368D01*
X150841362Y-84639368D02*
X150817553Y-84663178D01*
X150817553Y-84663178D02*
X150769934Y-84686987D01*
X150769934Y-84686987D02*
X150650886Y-84686987D01*
X150650886Y-84686987D02*
X150603267Y-84663178D01*
X150603267Y-84663178D02*
X150579458Y-84639368D01*
X143698508Y-85468150D02*
X143769936Y-85491959D01*
X143769936Y-85491959D02*
X143888984Y-85491959D01*
X143888984Y-85491959D02*
X143936603Y-85468150D01*
X143936603Y-85468150D02*
X143960412Y-85444340D01*
X143960412Y-85444340D02*
X143984222Y-85396721D01*
X143984222Y-85396721D02*
X143984222Y-85349102D01*
X143984222Y-85349102D02*
X143960412Y-85301483D01*
X143960412Y-85301483D02*
X143936603Y-85277673D01*
X143936603Y-85277673D02*
X143888984Y-85253864D01*
X143888984Y-85253864D02*
X143793746Y-85230054D01*
X143793746Y-85230054D02*
X143746127Y-85206245D01*
X143746127Y-85206245D02*
X143722317Y-85182435D01*
X143722317Y-85182435D02*
X143698508Y-85134816D01*
X143698508Y-85134816D02*
X143698508Y-85087197D01*
X143698508Y-85087197D02*
X143722317Y-85039578D01*
X143722317Y-85039578D02*
X143746127Y-85015769D01*
X143746127Y-85015769D02*
X143793746Y-84991959D01*
X143793746Y-84991959D02*
X143912793Y-84991959D01*
X143912793Y-84991959D02*
X143984222Y-85015769D01*
X144460412Y-85491959D02*
X144174698Y-85491959D01*
X144317555Y-85491959D02*
X144317555Y-84991959D01*
X144317555Y-84991959D02*
X144269936Y-85063388D01*
X144269936Y-85063388D02*
X144222317Y-85111007D01*
X144222317Y-85111007D02*
X144174698Y-85134816D01*
X145436601Y-85301483D02*
X145817554Y-85301483D01*
X146055649Y-85158626D02*
X146436602Y-85301483D01*
X146436602Y-85301483D02*
X146055649Y-85444340D01*
X147150887Y-84991959D02*
X147198506Y-84991959D01*
X147198506Y-84991959D02*
X147246125Y-85015769D01*
X147246125Y-85015769D02*
X147269935Y-85039578D01*
X147269935Y-85039578D02*
X147293744Y-85087197D01*
X147293744Y-85087197D02*
X147317554Y-85182435D01*
X147317554Y-85182435D02*
X147317554Y-85301483D01*
X147317554Y-85301483D02*
X147293744Y-85396721D01*
X147293744Y-85396721D02*
X147269935Y-85444340D01*
X147269935Y-85444340D02*
X147246125Y-85468150D01*
X147246125Y-85468150D02*
X147198506Y-85491959D01*
X147198506Y-85491959D02*
X147150887Y-85491959D01*
X147150887Y-85491959D02*
X147103268Y-85468150D01*
X147103268Y-85468150D02*
X147079459Y-85444340D01*
X147079459Y-85444340D02*
X147055649Y-85396721D01*
X147055649Y-85396721D02*
X147031840Y-85301483D01*
X147031840Y-85301483D02*
X147031840Y-85182435D01*
X147031840Y-85182435D02*
X147055649Y-85087197D01*
X147055649Y-85087197D02*
X147079459Y-85039578D01*
X147079459Y-85039578D02*
X147103268Y-85015769D01*
X147103268Y-85015769D02*
X147150887Y-84991959D01*
X147531839Y-85444340D02*
X147555649Y-85468150D01*
X147555649Y-85468150D02*
X147531839Y-85491959D01*
X147531839Y-85491959D02*
X147508030Y-85468150D01*
X147508030Y-85468150D02*
X147531839Y-85444340D01*
X147531839Y-85444340D02*
X147531839Y-85491959D01*
X148031839Y-85491959D02*
X147746125Y-85491959D01*
X147888982Y-85491959D02*
X147888982Y-84991959D01*
X147888982Y-84991959D02*
X147841363Y-85063388D01*
X147841363Y-85063388D02*
X147793744Y-85111007D01*
X147793744Y-85111007D02*
X147746125Y-85134816D01*
X148508029Y-85491959D02*
X148222315Y-85491959D01*
X148365172Y-85491959D02*
X148365172Y-84991959D01*
X148365172Y-84991959D02*
X148317553Y-85063388D01*
X148317553Y-85063388D02*
X148269934Y-85111007D01*
X148269934Y-85111007D02*
X148222315Y-85134816D01*
X148722314Y-85301483D02*
X149103267Y-85301483D01*
X149436600Y-84991959D02*
X149484219Y-84991959D01*
X149484219Y-84991959D02*
X149531838Y-85015769D01*
X149531838Y-85015769D02*
X149555648Y-85039578D01*
X149555648Y-85039578D02*
X149579457Y-85087197D01*
X149579457Y-85087197D02*
X149603267Y-85182435D01*
X149603267Y-85182435D02*
X149603267Y-85301483D01*
X149603267Y-85301483D02*
X149579457Y-85396721D01*
X149579457Y-85396721D02*
X149555648Y-85444340D01*
X149555648Y-85444340D02*
X149531838Y-85468150D01*
X149531838Y-85468150D02*
X149484219Y-85491959D01*
X149484219Y-85491959D02*
X149436600Y-85491959D01*
X149436600Y-85491959D02*
X149388981Y-85468150D01*
X149388981Y-85468150D02*
X149365172Y-85444340D01*
X149365172Y-85444340D02*
X149341362Y-85396721D01*
X149341362Y-85396721D02*
X149317553Y-85301483D01*
X149317553Y-85301483D02*
X149317553Y-85182435D01*
X149317553Y-85182435D02*
X149341362Y-85087197D01*
X149341362Y-85087197D02*
X149365172Y-85039578D01*
X149365172Y-85039578D02*
X149388981Y-85015769D01*
X149388981Y-85015769D02*
X149436600Y-84991959D01*
X149817552Y-85444340D02*
X149841362Y-85468150D01*
X149841362Y-85468150D02*
X149817552Y-85491959D01*
X149817552Y-85491959D02*
X149793743Y-85468150D01*
X149793743Y-85468150D02*
X149817552Y-85444340D01*
X149817552Y-85444340D02*
X149817552Y-85491959D01*
X150031838Y-85039578D02*
X150055647Y-85015769D01*
X150055647Y-85015769D02*
X150103266Y-84991959D01*
X150103266Y-84991959D02*
X150222314Y-84991959D01*
X150222314Y-84991959D02*
X150269933Y-85015769D01*
X150269933Y-85015769D02*
X150293742Y-85039578D01*
X150293742Y-85039578D02*
X150317552Y-85087197D01*
X150317552Y-85087197D02*
X150317552Y-85134816D01*
X150317552Y-85134816D02*
X150293742Y-85206245D01*
X150293742Y-85206245D02*
X150008028Y-85491959D01*
X150008028Y-85491959D02*
X150317552Y-85491959D01*
X143698508Y-86273122D02*
X143769936Y-86296931D01*
X143769936Y-86296931D02*
X143888984Y-86296931D01*
X143888984Y-86296931D02*
X143936603Y-86273122D01*
X143936603Y-86273122D02*
X143960412Y-86249312D01*
X143960412Y-86249312D02*
X143984222Y-86201693D01*
X143984222Y-86201693D02*
X143984222Y-86154074D01*
X143984222Y-86154074D02*
X143960412Y-86106455D01*
X143960412Y-86106455D02*
X143936603Y-86082645D01*
X143936603Y-86082645D02*
X143888984Y-86058836D01*
X143888984Y-86058836D02*
X143793746Y-86035026D01*
X143793746Y-86035026D02*
X143746127Y-86011217D01*
X143746127Y-86011217D02*
X143722317Y-85987407D01*
X143722317Y-85987407D02*
X143698508Y-85939788D01*
X143698508Y-85939788D02*
X143698508Y-85892169D01*
X143698508Y-85892169D02*
X143722317Y-85844550D01*
X143722317Y-85844550D02*
X143746127Y-85820741D01*
X143746127Y-85820741D02*
X143793746Y-85796931D01*
X143793746Y-85796931D02*
X143912793Y-85796931D01*
X143912793Y-85796931D02*
X143984222Y-85820741D01*
X144174698Y-85844550D02*
X144198507Y-85820741D01*
X144198507Y-85820741D02*
X144246126Y-85796931D01*
X144246126Y-85796931D02*
X144365174Y-85796931D01*
X144365174Y-85796931D02*
X144412793Y-85820741D01*
X144412793Y-85820741D02*
X144436602Y-85844550D01*
X144436602Y-85844550D02*
X144460412Y-85892169D01*
X144460412Y-85892169D02*
X144460412Y-85939788D01*
X144460412Y-85939788D02*
X144436602Y-86011217D01*
X144436602Y-86011217D02*
X144150888Y-86296931D01*
X144150888Y-86296931D02*
X144460412Y-86296931D01*
X145436601Y-86106455D02*
X145817554Y-86106455D01*
X146055649Y-85963598D02*
X146436602Y-86106455D01*
X146436602Y-86106455D02*
X146055649Y-86249312D01*
X147150887Y-85796931D02*
X147198506Y-85796931D01*
X147198506Y-85796931D02*
X147246125Y-85820741D01*
X147246125Y-85820741D02*
X147269935Y-85844550D01*
X147269935Y-85844550D02*
X147293744Y-85892169D01*
X147293744Y-85892169D02*
X147317554Y-85987407D01*
X147317554Y-85987407D02*
X147317554Y-86106455D01*
X147317554Y-86106455D02*
X147293744Y-86201693D01*
X147293744Y-86201693D02*
X147269935Y-86249312D01*
X147269935Y-86249312D02*
X147246125Y-86273122D01*
X147246125Y-86273122D02*
X147198506Y-86296931D01*
X147198506Y-86296931D02*
X147150887Y-86296931D01*
X147150887Y-86296931D02*
X147103268Y-86273122D01*
X147103268Y-86273122D02*
X147079459Y-86249312D01*
X147079459Y-86249312D02*
X147055649Y-86201693D01*
X147055649Y-86201693D02*
X147031840Y-86106455D01*
X147031840Y-86106455D02*
X147031840Y-85987407D01*
X147031840Y-85987407D02*
X147055649Y-85892169D01*
X147055649Y-85892169D02*
X147079459Y-85844550D01*
X147079459Y-85844550D02*
X147103268Y-85820741D01*
X147103268Y-85820741D02*
X147150887Y-85796931D01*
X147531839Y-86249312D02*
X147555649Y-86273122D01*
X147555649Y-86273122D02*
X147531839Y-86296931D01*
X147531839Y-86296931D02*
X147508030Y-86273122D01*
X147508030Y-86273122D02*
X147531839Y-86249312D01*
X147531839Y-86249312D02*
X147531839Y-86296931D01*
X148031839Y-86296931D02*
X147746125Y-86296931D01*
X147888982Y-86296931D02*
X147888982Y-85796931D01*
X147888982Y-85796931D02*
X147841363Y-85868360D01*
X147841363Y-85868360D02*
X147793744Y-85915979D01*
X147793744Y-85915979D02*
X147746125Y-85939788D01*
X148508029Y-86296931D02*
X148222315Y-86296931D01*
X148365172Y-86296931D02*
X148365172Y-85796931D01*
X148365172Y-85796931D02*
X148317553Y-85868360D01*
X148317553Y-85868360D02*
X148269934Y-85915979D01*
X148269934Y-85915979D02*
X148222315Y-85939788D01*
X148722314Y-86106455D02*
X149103267Y-86106455D01*
X149436600Y-85796931D02*
X149484219Y-85796931D01*
X149484219Y-85796931D02*
X149531838Y-85820741D01*
X149531838Y-85820741D02*
X149555648Y-85844550D01*
X149555648Y-85844550D02*
X149579457Y-85892169D01*
X149579457Y-85892169D02*
X149603267Y-85987407D01*
X149603267Y-85987407D02*
X149603267Y-86106455D01*
X149603267Y-86106455D02*
X149579457Y-86201693D01*
X149579457Y-86201693D02*
X149555648Y-86249312D01*
X149555648Y-86249312D02*
X149531838Y-86273122D01*
X149531838Y-86273122D02*
X149484219Y-86296931D01*
X149484219Y-86296931D02*
X149436600Y-86296931D01*
X149436600Y-86296931D02*
X149388981Y-86273122D01*
X149388981Y-86273122D02*
X149365172Y-86249312D01*
X149365172Y-86249312D02*
X149341362Y-86201693D01*
X149341362Y-86201693D02*
X149317553Y-86106455D01*
X149317553Y-86106455D02*
X149317553Y-85987407D01*
X149317553Y-85987407D02*
X149341362Y-85892169D01*
X149341362Y-85892169D02*
X149365172Y-85844550D01*
X149365172Y-85844550D02*
X149388981Y-85820741D01*
X149388981Y-85820741D02*
X149436600Y-85796931D01*
X149817552Y-86249312D02*
X149841362Y-86273122D01*
X149841362Y-86273122D02*
X149817552Y-86296931D01*
X149817552Y-86296931D02*
X149793743Y-86273122D01*
X149793743Y-86273122D02*
X149817552Y-86249312D01*
X149817552Y-86249312D02*
X149817552Y-86296931D01*
X150031838Y-85844550D02*
X150055647Y-85820741D01*
X150055647Y-85820741D02*
X150103266Y-85796931D01*
X150103266Y-85796931D02*
X150222314Y-85796931D01*
X150222314Y-85796931D02*
X150269933Y-85820741D01*
X150269933Y-85820741D02*
X150293742Y-85844550D01*
X150293742Y-85844550D02*
X150317552Y-85892169D01*
X150317552Y-85892169D02*
X150317552Y-85939788D01*
X150317552Y-85939788D02*
X150293742Y-86011217D01*
X150293742Y-86011217D02*
X150008028Y-86296931D01*
X150008028Y-86296931D02*
X150317552Y-86296931D01*
X143888984Y-86839998D02*
X143960412Y-86863808D01*
X143960412Y-86863808D02*
X143984222Y-86887617D01*
X143984222Y-86887617D02*
X144008031Y-86935236D01*
X144008031Y-86935236D02*
X144008031Y-87006665D01*
X144008031Y-87006665D02*
X143984222Y-87054284D01*
X143984222Y-87054284D02*
X143960412Y-87078094D01*
X143960412Y-87078094D02*
X143912793Y-87101903D01*
X143912793Y-87101903D02*
X143722317Y-87101903D01*
X143722317Y-87101903D02*
X143722317Y-86601903D01*
X143722317Y-86601903D02*
X143888984Y-86601903D01*
X143888984Y-86601903D02*
X143936603Y-86625713D01*
X143936603Y-86625713D02*
X143960412Y-86649522D01*
X143960412Y-86649522D02*
X143984222Y-86697141D01*
X143984222Y-86697141D02*
X143984222Y-86744760D01*
X143984222Y-86744760D02*
X143960412Y-86792379D01*
X143960412Y-86792379D02*
X143936603Y-86816189D01*
X143936603Y-86816189D02*
X143888984Y-86839998D01*
X143888984Y-86839998D02*
X143722317Y-86839998D01*
X144317555Y-86601903D02*
X144412793Y-86601903D01*
X144412793Y-86601903D02*
X144460412Y-86625713D01*
X144460412Y-86625713D02*
X144508031Y-86673332D01*
X144508031Y-86673332D02*
X144531841Y-86768570D01*
X144531841Y-86768570D02*
X144531841Y-86935236D01*
X144531841Y-86935236D02*
X144508031Y-87030474D01*
X144508031Y-87030474D02*
X144460412Y-87078094D01*
X144460412Y-87078094D02*
X144412793Y-87101903D01*
X144412793Y-87101903D02*
X144317555Y-87101903D01*
X144317555Y-87101903D02*
X144269936Y-87078094D01*
X144269936Y-87078094D02*
X144222317Y-87030474D01*
X144222317Y-87030474D02*
X144198508Y-86935236D01*
X144198508Y-86935236D02*
X144198508Y-86768570D01*
X144198508Y-86768570D02*
X144222317Y-86673332D01*
X144222317Y-86673332D02*
X144269936Y-86625713D01*
X144269936Y-86625713D02*
X144317555Y-86601903D01*
X144674699Y-86601903D02*
X144960413Y-86601903D01*
X144817556Y-87101903D02*
X144817556Y-86601903D01*
X145508031Y-86911427D02*
X145888984Y-86911427D01*
X146127079Y-86768570D02*
X146508032Y-86911427D01*
X146508032Y-86911427D02*
X146127079Y-87054284D01*
X147222317Y-86601903D02*
X147269936Y-86601903D01*
X147269936Y-86601903D02*
X147317555Y-86625713D01*
X147317555Y-86625713D02*
X147341365Y-86649522D01*
X147341365Y-86649522D02*
X147365174Y-86697141D01*
X147365174Y-86697141D02*
X147388984Y-86792379D01*
X147388984Y-86792379D02*
X147388984Y-86911427D01*
X147388984Y-86911427D02*
X147365174Y-87006665D01*
X147365174Y-87006665D02*
X147341365Y-87054284D01*
X147341365Y-87054284D02*
X147317555Y-87078094D01*
X147317555Y-87078094D02*
X147269936Y-87101903D01*
X147269936Y-87101903D02*
X147222317Y-87101903D01*
X147222317Y-87101903D02*
X147174698Y-87078094D01*
X147174698Y-87078094D02*
X147150889Y-87054284D01*
X147150889Y-87054284D02*
X147127079Y-87006665D01*
X147127079Y-87006665D02*
X147103270Y-86911427D01*
X147103270Y-86911427D02*
X147103270Y-86792379D01*
X147103270Y-86792379D02*
X147127079Y-86697141D01*
X147127079Y-86697141D02*
X147150889Y-86649522D01*
X147150889Y-86649522D02*
X147174698Y-86625713D01*
X147174698Y-86625713D02*
X147222317Y-86601903D01*
X147603269Y-87054284D02*
X147627079Y-87078094D01*
X147627079Y-87078094D02*
X147603269Y-87101903D01*
X147603269Y-87101903D02*
X147579460Y-87078094D01*
X147579460Y-87078094D02*
X147603269Y-87054284D01*
X147603269Y-87054284D02*
X147603269Y-87101903D01*
X148103269Y-87101903D02*
X147817555Y-87101903D01*
X147960412Y-87101903D02*
X147960412Y-86601903D01*
X147960412Y-86601903D02*
X147912793Y-86673332D01*
X147912793Y-86673332D02*
X147865174Y-86720951D01*
X147865174Y-86720951D02*
X147817555Y-86744760D01*
X148579459Y-87101903D02*
X148293745Y-87101903D01*
X148436602Y-87101903D02*
X148436602Y-86601903D01*
X148436602Y-86601903D02*
X148388983Y-86673332D01*
X148388983Y-86673332D02*
X148341364Y-86720951D01*
X148341364Y-86720951D02*
X148293745Y-86744760D01*
X148793744Y-86911427D02*
X149174697Y-86911427D01*
X149508030Y-86601903D02*
X149555649Y-86601903D01*
X149555649Y-86601903D02*
X149603268Y-86625713D01*
X149603268Y-86625713D02*
X149627078Y-86649522D01*
X149627078Y-86649522D02*
X149650887Y-86697141D01*
X149650887Y-86697141D02*
X149674697Y-86792379D01*
X149674697Y-86792379D02*
X149674697Y-86911427D01*
X149674697Y-86911427D02*
X149650887Y-87006665D01*
X149650887Y-87006665D02*
X149627078Y-87054284D01*
X149627078Y-87054284D02*
X149603268Y-87078094D01*
X149603268Y-87078094D02*
X149555649Y-87101903D01*
X149555649Y-87101903D02*
X149508030Y-87101903D01*
X149508030Y-87101903D02*
X149460411Y-87078094D01*
X149460411Y-87078094D02*
X149436602Y-87054284D01*
X149436602Y-87054284D02*
X149412792Y-87006665D01*
X149412792Y-87006665D02*
X149388983Y-86911427D01*
X149388983Y-86911427D02*
X149388983Y-86792379D01*
X149388983Y-86792379D02*
X149412792Y-86697141D01*
X149412792Y-86697141D02*
X149436602Y-86649522D01*
X149436602Y-86649522D02*
X149460411Y-86625713D01*
X149460411Y-86625713D02*
X149508030Y-86601903D01*
X149888982Y-87054284D02*
X149912792Y-87078094D01*
X149912792Y-87078094D02*
X149888982Y-87101903D01*
X149888982Y-87101903D02*
X149865173Y-87078094D01*
X149865173Y-87078094D02*
X149888982Y-87054284D01*
X149888982Y-87054284D02*
X149888982Y-87101903D01*
X150388982Y-87101903D02*
X150103268Y-87101903D01*
X150246125Y-87101903D02*
X150246125Y-86601903D01*
X150246125Y-86601903D02*
X150198506Y-86673332D01*
X150198506Y-86673332D02*
X150150887Y-86720951D01*
X150150887Y-86720951D02*
X150103268Y-86744760D01*
X150841362Y-86601903D02*
X150603267Y-86601903D01*
X150603267Y-86601903D02*
X150579458Y-86839998D01*
X150579458Y-86839998D02*
X150603267Y-86816189D01*
X150603267Y-86816189D02*
X150650886Y-86792379D01*
X150650886Y-86792379D02*
X150769934Y-86792379D01*
X150769934Y-86792379D02*
X150817553Y-86816189D01*
X150817553Y-86816189D02*
X150841362Y-86839998D01*
X150841362Y-86839998D02*
X150865172Y-86887617D01*
X150865172Y-86887617D02*
X150865172Y-87006665D01*
X150865172Y-87006665D02*
X150841362Y-87054284D01*
X150841362Y-87054284D02*
X150817553Y-87078094D01*
X150817553Y-87078094D02*
X150769934Y-87101903D01*
X150769934Y-87101903D02*
X150650886Y-87101903D01*
X150650886Y-87101903D02*
X150603267Y-87078094D01*
X150603267Y-87078094D02*
X150579458Y-87054284D01*
X143722317Y-87906875D02*
X143722317Y-87406875D01*
X143722317Y-87406875D02*
X143841365Y-87406875D01*
X143841365Y-87406875D02*
X143912793Y-87430685D01*
X143912793Y-87430685D02*
X143960412Y-87478304D01*
X143960412Y-87478304D02*
X143984222Y-87525923D01*
X143984222Y-87525923D02*
X144008031Y-87621161D01*
X144008031Y-87621161D02*
X144008031Y-87692589D01*
X144008031Y-87692589D02*
X143984222Y-87787827D01*
X143984222Y-87787827D02*
X143960412Y-87835446D01*
X143960412Y-87835446D02*
X143912793Y-87883066D01*
X143912793Y-87883066D02*
X143841365Y-87906875D01*
X143841365Y-87906875D02*
X143722317Y-87906875D01*
X144222317Y-87906875D02*
X144222317Y-87406875D01*
X144627079Y-87644970D02*
X144460412Y-87644970D01*
X144460412Y-87906875D02*
X144460412Y-87406875D01*
X144460412Y-87406875D02*
X144698507Y-87406875D01*
X145293745Y-87906875D02*
X145388983Y-87906875D01*
X145388983Y-87906875D02*
X145436602Y-87883066D01*
X145436602Y-87883066D02*
X145460411Y-87859256D01*
X145460411Y-87859256D02*
X145508030Y-87787827D01*
X145508030Y-87787827D02*
X145531840Y-87692589D01*
X145531840Y-87692589D02*
X145531840Y-87502113D01*
X145531840Y-87502113D02*
X145508030Y-87454494D01*
X145508030Y-87454494D02*
X145484221Y-87430685D01*
X145484221Y-87430685D02*
X145436602Y-87406875D01*
X145436602Y-87406875D02*
X145341364Y-87406875D01*
X145341364Y-87406875D02*
X145293745Y-87430685D01*
X145293745Y-87430685D02*
X145269935Y-87454494D01*
X145269935Y-87454494D02*
X145246126Y-87502113D01*
X145246126Y-87502113D02*
X145246126Y-87621161D01*
X145246126Y-87621161D02*
X145269935Y-87668780D01*
X145269935Y-87668780D02*
X145293745Y-87692589D01*
X145293745Y-87692589D02*
X145341364Y-87716399D01*
X145341364Y-87716399D02*
X145436602Y-87716399D01*
X145436602Y-87716399D02*
X145484221Y-87692589D01*
X145484221Y-87692589D02*
X145508030Y-87668780D01*
X145508030Y-87668780D02*
X145531840Y-87621161D01*
X145841363Y-87406875D02*
X145888982Y-87406875D01*
X145888982Y-87406875D02*
X145936601Y-87430685D01*
X145936601Y-87430685D02*
X145960411Y-87454494D01*
X145960411Y-87454494D02*
X145984220Y-87502113D01*
X145984220Y-87502113D02*
X146008030Y-87597351D01*
X146008030Y-87597351D02*
X146008030Y-87716399D01*
X146008030Y-87716399D02*
X145984220Y-87811637D01*
X145984220Y-87811637D02*
X145960411Y-87859256D01*
X145960411Y-87859256D02*
X145936601Y-87883066D01*
X145936601Y-87883066D02*
X145888982Y-87906875D01*
X145888982Y-87906875D02*
X145841363Y-87906875D01*
X145841363Y-87906875D02*
X145793744Y-87883066D01*
X145793744Y-87883066D02*
X145769935Y-87859256D01*
X145769935Y-87859256D02*
X145746125Y-87811637D01*
X145746125Y-87811637D02*
X145722316Y-87716399D01*
X145722316Y-87716399D02*
X145722316Y-87597351D01*
X145722316Y-87597351D02*
X145746125Y-87502113D01*
X145746125Y-87502113D02*
X145769935Y-87454494D01*
X145769935Y-87454494D02*
X145793744Y-87430685D01*
X145793744Y-87430685D02*
X145841363Y-87406875D01*
X143650889Y-88211847D02*
X143936603Y-88211847D01*
X143793746Y-88711847D02*
X143793746Y-88211847D01*
X144198507Y-88211847D02*
X144293745Y-88211847D01*
X144293745Y-88211847D02*
X144341364Y-88235657D01*
X144341364Y-88235657D02*
X144388983Y-88283276D01*
X144388983Y-88283276D02*
X144412793Y-88378514D01*
X144412793Y-88378514D02*
X144412793Y-88545180D01*
X144412793Y-88545180D02*
X144388983Y-88640418D01*
X144388983Y-88640418D02*
X144341364Y-88688038D01*
X144341364Y-88688038D02*
X144293745Y-88711847D01*
X144293745Y-88711847D02*
X144198507Y-88711847D01*
X144198507Y-88711847D02*
X144150888Y-88688038D01*
X144150888Y-88688038D02*
X144103269Y-88640418D01*
X144103269Y-88640418D02*
X144079460Y-88545180D01*
X144079460Y-88545180D02*
X144079460Y-88378514D01*
X144079460Y-88378514D02*
X144103269Y-88283276D01*
X144103269Y-88283276D02*
X144150888Y-88235657D01*
X144150888Y-88235657D02*
X144198507Y-88211847D01*
X144627079Y-88711847D02*
X144627079Y-88211847D01*
X144627079Y-88211847D02*
X144817555Y-88211847D01*
X144817555Y-88211847D02*
X144865174Y-88235657D01*
X144865174Y-88235657D02*
X144888984Y-88259466D01*
X144888984Y-88259466D02*
X144912793Y-88307085D01*
X144912793Y-88307085D02*
X144912793Y-88378514D01*
X144912793Y-88378514D02*
X144888984Y-88426133D01*
X144888984Y-88426133D02*
X144865174Y-88449942D01*
X144865174Y-88449942D02*
X144817555Y-88473752D01*
X144817555Y-88473752D02*
X144627079Y-88473752D01*
X145508031Y-88521371D02*
X145888984Y-88521371D01*
X146127079Y-88378514D02*
X146508032Y-88521371D01*
X146508032Y-88521371D02*
X146127079Y-88664228D01*
X147222317Y-88211847D02*
X147269936Y-88211847D01*
X147269936Y-88211847D02*
X147317555Y-88235657D01*
X147317555Y-88235657D02*
X147341365Y-88259466D01*
X147341365Y-88259466D02*
X147365174Y-88307085D01*
X147365174Y-88307085D02*
X147388984Y-88402323D01*
X147388984Y-88402323D02*
X147388984Y-88521371D01*
X147388984Y-88521371D02*
X147365174Y-88616609D01*
X147365174Y-88616609D02*
X147341365Y-88664228D01*
X147341365Y-88664228D02*
X147317555Y-88688038D01*
X147317555Y-88688038D02*
X147269936Y-88711847D01*
X147269936Y-88711847D02*
X147222317Y-88711847D01*
X147222317Y-88711847D02*
X147174698Y-88688038D01*
X147174698Y-88688038D02*
X147150889Y-88664228D01*
X147150889Y-88664228D02*
X147127079Y-88616609D01*
X147127079Y-88616609D02*
X147103270Y-88521371D01*
X147103270Y-88521371D02*
X147103270Y-88402323D01*
X147103270Y-88402323D02*
X147127079Y-88307085D01*
X147127079Y-88307085D02*
X147150889Y-88259466D01*
X147150889Y-88259466D02*
X147174698Y-88235657D01*
X147174698Y-88235657D02*
X147222317Y-88211847D01*
X147603269Y-88664228D02*
X147627079Y-88688038D01*
X147627079Y-88688038D02*
X147603269Y-88711847D01*
X147603269Y-88711847D02*
X147579460Y-88688038D01*
X147579460Y-88688038D02*
X147603269Y-88664228D01*
X147603269Y-88664228D02*
X147603269Y-88711847D01*
X148103269Y-88711847D02*
X147817555Y-88711847D01*
X147960412Y-88711847D02*
X147960412Y-88211847D01*
X147960412Y-88211847D02*
X147912793Y-88283276D01*
X147912793Y-88283276D02*
X147865174Y-88330895D01*
X147865174Y-88330895D02*
X147817555Y-88354704D01*
X148269935Y-88211847D02*
X148579459Y-88211847D01*
X148579459Y-88211847D02*
X148412792Y-88402323D01*
X148412792Y-88402323D02*
X148484221Y-88402323D01*
X148484221Y-88402323D02*
X148531840Y-88426133D01*
X148531840Y-88426133D02*
X148555649Y-88449942D01*
X148555649Y-88449942D02*
X148579459Y-88497561D01*
X148579459Y-88497561D02*
X148579459Y-88616609D01*
X148579459Y-88616609D02*
X148555649Y-88664228D01*
X148555649Y-88664228D02*
X148531840Y-88688038D01*
X148531840Y-88688038D02*
X148484221Y-88711847D01*
X148484221Y-88711847D02*
X148341364Y-88711847D01*
X148341364Y-88711847D02*
X148293745Y-88688038D01*
X148293745Y-88688038D02*
X148269935Y-88664228D01*
X148793744Y-88521371D02*
X149174697Y-88521371D01*
X149508030Y-88211847D02*
X149555649Y-88211847D01*
X149555649Y-88211847D02*
X149603268Y-88235657D01*
X149603268Y-88235657D02*
X149627078Y-88259466D01*
X149627078Y-88259466D02*
X149650887Y-88307085D01*
X149650887Y-88307085D02*
X149674697Y-88402323D01*
X149674697Y-88402323D02*
X149674697Y-88521371D01*
X149674697Y-88521371D02*
X149650887Y-88616609D01*
X149650887Y-88616609D02*
X149627078Y-88664228D01*
X149627078Y-88664228D02*
X149603268Y-88688038D01*
X149603268Y-88688038D02*
X149555649Y-88711847D01*
X149555649Y-88711847D02*
X149508030Y-88711847D01*
X149508030Y-88711847D02*
X149460411Y-88688038D01*
X149460411Y-88688038D02*
X149436602Y-88664228D01*
X149436602Y-88664228D02*
X149412792Y-88616609D01*
X149412792Y-88616609D02*
X149388983Y-88521371D01*
X149388983Y-88521371D02*
X149388983Y-88402323D01*
X149388983Y-88402323D02*
X149412792Y-88307085D01*
X149412792Y-88307085D02*
X149436602Y-88259466D01*
X149436602Y-88259466D02*
X149460411Y-88235657D01*
X149460411Y-88235657D02*
X149508030Y-88211847D01*
X149888982Y-88664228D02*
X149912792Y-88688038D01*
X149912792Y-88688038D02*
X149888982Y-88711847D01*
X149888982Y-88711847D02*
X149865173Y-88688038D01*
X149865173Y-88688038D02*
X149888982Y-88664228D01*
X149888982Y-88664228D02*
X149888982Y-88711847D01*
X150388982Y-88711847D02*
X150103268Y-88711847D01*
X150246125Y-88711847D02*
X150246125Y-88211847D01*
X150246125Y-88211847D02*
X150198506Y-88283276D01*
X150198506Y-88283276D02*
X150150887Y-88330895D01*
X150150887Y-88330895D02*
X150103268Y-88354704D01*
X150579458Y-88259466D02*
X150603267Y-88235657D01*
X150603267Y-88235657D02*
X150650886Y-88211847D01*
X150650886Y-88211847D02*
X150769934Y-88211847D01*
X150769934Y-88211847D02*
X150817553Y-88235657D01*
X150817553Y-88235657D02*
X150841362Y-88259466D01*
X150841362Y-88259466D02*
X150865172Y-88307085D01*
X150865172Y-88307085D02*
X150865172Y-88354704D01*
X150865172Y-88354704D02*
X150841362Y-88426133D01*
X150841362Y-88426133D02*
X150555648Y-88711847D01*
X150555648Y-88711847D02*
X150865172Y-88711847D01*
X143698508Y-89493010D02*
X143769936Y-89516819D01*
X143769936Y-89516819D02*
X143888984Y-89516819D01*
X143888984Y-89516819D02*
X143936603Y-89493010D01*
X143936603Y-89493010D02*
X143960412Y-89469200D01*
X143960412Y-89469200D02*
X143984222Y-89421581D01*
X143984222Y-89421581D02*
X143984222Y-89373962D01*
X143984222Y-89373962D02*
X143960412Y-89326343D01*
X143960412Y-89326343D02*
X143936603Y-89302533D01*
X143936603Y-89302533D02*
X143888984Y-89278724D01*
X143888984Y-89278724D02*
X143793746Y-89254914D01*
X143793746Y-89254914D02*
X143746127Y-89231105D01*
X143746127Y-89231105D02*
X143722317Y-89207295D01*
X143722317Y-89207295D02*
X143698508Y-89159676D01*
X143698508Y-89159676D02*
X143698508Y-89112057D01*
X143698508Y-89112057D02*
X143722317Y-89064438D01*
X143722317Y-89064438D02*
X143746127Y-89040629D01*
X143746127Y-89040629D02*
X143793746Y-89016819D01*
X143793746Y-89016819D02*
X143912793Y-89016819D01*
X143912793Y-89016819D02*
X143984222Y-89040629D01*
X144460412Y-89516819D02*
X144174698Y-89516819D01*
X144317555Y-89516819D02*
X144317555Y-89016819D01*
X144317555Y-89016819D02*
X144269936Y-89088248D01*
X144269936Y-89088248D02*
X144222317Y-89135867D01*
X144222317Y-89135867D02*
X144174698Y-89159676D01*
X145436601Y-89326343D02*
X145817554Y-89326343D01*
X146055649Y-89183486D02*
X146436602Y-89326343D01*
X146436602Y-89326343D02*
X146055649Y-89469200D01*
X147150887Y-89016819D02*
X147198506Y-89016819D01*
X147198506Y-89016819D02*
X147246125Y-89040629D01*
X147246125Y-89040629D02*
X147269935Y-89064438D01*
X147269935Y-89064438D02*
X147293744Y-89112057D01*
X147293744Y-89112057D02*
X147317554Y-89207295D01*
X147317554Y-89207295D02*
X147317554Y-89326343D01*
X147317554Y-89326343D02*
X147293744Y-89421581D01*
X147293744Y-89421581D02*
X147269935Y-89469200D01*
X147269935Y-89469200D02*
X147246125Y-89493010D01*
X147246125Y-89493010D02*
X147198506Y-89516819D01*
X147198506Y-89516819D02*
X147150887Y-89516819D01*
X147150887Y-89516819D02*
X147103268Y-89493010D01*
X147103268Y-89493010D02*
X147079459Y-89469200D01*
X147079459Y-89469200D02*
X147055649Y-89421581D01*
X147055649Y-89421581D02*
X147031840Y-89326343D01*
X147031840Y-89326343D02*
X147031840Y-89207295D01*
X147031840Y-89207295D02*
X147055649Y-89112057D01*
X147055649Y-89112057D02*
X147079459Y-89064438D01*
X147079459Y-89064438D02*
X147103268Y-89040629D01*
X147103268Y-89040629D02*
X147150887Y-89016819D01*
X147531839Y-89469200D02*
X147555649Y-89493010D01*
X147555649Y-89493010D02*
X147531839Y-89516819D01*
X147531839Y-89516819D02*
X147508030Y-89493010D01*
X147508030Y-89493010D02*
X147531839Y-89469200D01*
X147531839Y-89469200D02*
X147531839Y-89516819D01*
X148031839Y-89516819D02*
X147746125Y-89516819D01*
X147888982Y-89516819D02*
X147888982Y-89016819D01*
X147888982Y-89016819D02*
X147841363Y-89088248D01*
X147841363Y-89088248D02*
X147793744Y-89135867D01*
X147793744Y-89135867D02*
X147746125Y-89159676D01*
X148198505Y-89016819D02*
X148508029Y-89016819D01*
X148508029Y-89016819D02*
X148341362Y-89207295D01*
X148341362Y-89207295D02*
X148412791Y-89207295D01*
X148412791Y-89207295D02*
X148460410Y-89231105D01*
X148460410Y-89231105D02*
X148484219Y-89254914D01*
X148484219Y-89254914D02*
X148508029Y-89302533D01*
X148508029Y-89302533D02*
X148508029Y-89421581D01*
X148508029Y-89421581D02*
X148484219Y-89469200D01*
X148484219Y-89469200D02*
X148460410Y-89493010D01*
X148460410Y-89493010D02*
X148412791Y-89516819D01*
X148412791Y-89516819D02*
X148269934Y-89516819D01*
X148269934Y-89516819D02*
X148222315Y-89493010D01*
X148222315Y-89493010D02*
X148198505Y-89469200D01*
X148722314Y-89326343D02*
X149103267Y-89326343D01*
X149436600Y-89016819D02*
X149484219Y-89016819D01*
X149484219Y-89016819D02*
X149531838Y-89040629D01*
X149531838Y-89040629D02*
X149555648Y-89064438D01*
X149555648Y-89064438D02*
X149579457Y-89112057D01*
X149579457Y-89112057D02*
X149603267Y-89207295D01*
X149603267Y-89207295D02*
X149603267Y-89326343D01*
X149603267Y-89326343D02*
X149579457Y-89421581D01*
X149579457Y-89421581D02*
X149555648Y-89469200D01*
X149555648Y-89469200D02*
X149531838Y-89493010D01*
X149531838Y-89493010D02*
X149484219Y-89516819D01*
X149484219Y-89516819D02*
X149436600Y-89516819D01*
X149436600Y-89516819D02*
X149388981Y-89493010D01*
X149388981Y-89493010D02*
X149365172Y-89469200D01*
X149365172Y-89469200D02*
X149341362Y-89421581D01*
X149341362Y-89421581D02*
X149317553Y-89326343D01*
X149317553Y-89326343D02*
X149317553Y-89207295D01*
X149317553Y-89207295D02*
X149341362Y-89112057D01*
X149341362Y-89112057D02*
X149365172Y-89064438D01*
X149365172Y-89064438D02*
X149388981Y-89040629D01*
X149388981Y-89040629D02*
X149436600Y-89016819D01*
X149817552Y-89469200D02*
X149841362Y-89493010D01*
X149841362Y-89493010D02*
X149817552Y-89516819D01*
X149817552Y-89516819D02*
X149793743Y-89493010D01*
X149793743Y-89493010D02*
X149817552Y-89469200D01*
X149817552Y-89469200D02*
X149817552Y-89516819D01*
X150031838Y-89064438D02*
X150055647Y-89040629D01*
X150055647Y-89040629D02*
X150103266Y-89016819D01*
X150103266Y-89016819D02*
X150222314Y-89016819D01*
X150222314Y-89016819D02*
X150269933Y-89040629D01*
X150269933Y-89040629D02*
X150293742Y-89064438D01*
X150293742Y-89064438D02*
X150317552Y-89112057D01*
X150317552Y-89112057D02*
X150317552Y-89159676D01*
X150317552Y-89159676D02*
X150293742Y-89231105D01*
X150293742Y-89231105D02*
X150008028Y-89516819D01*
X150008028Y-89516819D02*
X150317552Y-89516819D01*
X143698508Y-90297982D02*
X143769936Y-90321791D01*
X143769936Y-90321791D02*
X143888984Y-90321791D01*
X143888984Y-90321791D02*
X143936603Y-90297982D01*
X143936603Y-90297982D02*
X143960412Y-90274172D01*
X143960412Y-90274172D02*
X143984222Y-90226553D01*
X143984222Y-90226553D02*
X143984222Y-90178934D01*
X143984222Y-90178934D02*
X143960412Y-90131315D01*
X143960412Y-90131315D02*
X143936603Y-90107505D01*
X143936603Y-90107505D02*
X143888984Y-90083696D01*
X143888984Y-90083696D02*
X143793746Y-90059886D01*
X143793746Y-90059886D02*
X143746127Y-90036077D01*
X143746127Y-90036077D02*
X143722317Y-90012267D01*
X143722317Y-90012267D02*
X143698508Y-89964648D01*
X143698508Y-89964648D02*
X143698508Y-89917029D01*
X143698508Y-89917029D02*
X143722317Y-89869410D01*
X143722317Y-89869410D02*
X143746127Y-89845601D01*
X143746127Y-89845601D02*
X143793746Y-89821791D01*
X143793746Y-89821791D02*
X143912793Y-89821791D01*
X143912793Y-89821791D02*
X143984222Y-89845601D01*
X144174698Y-89869410D02*
X144198507Y-89845601D01*
X144198507Y-89845601D02*
X144246126Y-89821791D01*
X144246126Y-89821791D02*
X144365174Y-89821791D01*
X144365174Y-89821791D02*
X144412793Y-89845601D01*
X144412793Y-89845601D02*
X144436602Y-89869410D01*
X144436602Y-89869410D02*
X144460412Y-89917029D01*
X144460412Y-89917029D02*
X144460412Y-89964648D01*
X144460412Y-89964648D02*
X144436602Y-90036077D01*
X144436602Y-90036077D02*
X144150888Y-90321791D01*
X144150888Y-90321791D02*
X144460412Y-90321791D01*
X145436601Y-90131315D02*
X145817554Y-90131315D01*
X146055649Y-89988458D02*
X146436602Y-90131315D01*
X146436602Y-90131315D02*
X146055649Y-90274172D01*
X147150887Y-89821791D02*
X147198506Y-89821791D01*
X147198506Y-89821791D02*
X147246125Y-89845601D01*
X147246125Y-89845601D02*
X147269935Y-89869410D01*
X147269935Y-89869410D02*
X147293744Y-89917029D01*
X147293744Y-89917029D02*
X147317554Y-90012267D01*
X147317554Y-90012267D02*
X147317554Y-90131315D01*
X147317554Y-90131315D02*
X147293744Y-90226553D01*
X147293744Y-90226553D02*
X147269935Y-90274172D01*
X147269935Y-90274172D02*
X147246125Y-90297982D01*
X147246125Y-90297982D02*
X147198506Y-90321791D01*
X147198506Y-90321791D02*
X147150887Y-90321791D01*
X147150887Y-90321791D02*
X147103268Y-90297982D01*
X147103268Y-90297982D02*
X147079459Y-90274172D01*
X147079459Y-90274172D02*
X147055649Y-90226553D01*
X147055649Y-90226553D02*
X147031840Y-90131315D01*
X147031840Y-90131315D02*
X147031840Y-90012267D01*
X147031840Y-90012267D02*
X147055649Y-89917029D01*
X147055649Y-89917029D02*
X147079459Y-89869410D01*
X147079459Y-89869410D02*
X147103268Y-89845601D01*
X147103268Y-89845601D02*
X147150887Y-89821791D01*
X147531839Y-90274172D02*
X147555649Y-90297982D01*
X147555649Y-90297982D02*
X147531839Y-90321791D01*
X147531839Y-90321791D02*
X147508030Y-90297982D01*
X147508030Y-90297982D02*
X147531839Y-90274172D01*
X147531839Y-90274172D02*
X147531839Y-90321791D01*
X148031839Y-90321791D02*
X147746125Y-90321791D01*
X147888982Y-90321791D02*
X147888982Y-89821791D01*
X147888982Y-89821791D02*
X147841363Y-89893220D01*
X147841363Y-89893220D02*
X147793744Y-89940839D01*
X147793744Y-89940839D02*
X147746125Y-89964648D01*
X148198505Y-89821791D02*
X148508029Y-89821791D01*
X148508029Y-89821791D02*
X148341362Y-90012267D01*
X148341362Y-90012267D02*
X148412791Y-90012267D01*
X148412791Y-90012267D02*
X148460410Y-90036077D01*
X148460410Y-90036077D02*
X148484219Y-90059886D01*
X148484219Y-90059886D02*
X148508029Y-90107505D01*
X148508029Y-90107505D02*
X148508029Y-90226553D01*
X148508029Y-90226553D02*
X148484219Y-90274172D01*
X148484219Y-90274172D02*
X148460410Y-90297982D01*
X148460410Y-90297982D02*
X148412791Y-90321791D01*
X148412791Y-90321791D02*
X148269934Y-90321791D01*
X148269934Y-90321791D02*
X148222315Y-90297982D01*
X148222315Y-90297982D02*
X148198505Y-90274172D01*
X148722314Y-90131315D02*
X149103267Y-90131315D01*
X149436600Y-89821791D02*
X149484219Y-89821791D01*
X149484219Y-89821791D02*
X149531838Y-89845601D01*
X149531838Y-89845601D02*
X149555648Y-89869410D01*
X149555648Y-89869410D02*
X149579457Y-89917029D01*
X149579457Y-89917029D02*
X149603267Y-90012267D01*
X149603267Y-90012267D02*
X149603267Y-90131315D01*
X149603267Y-90131315D02*
X149579457Y-90226553D01*
X149579457Y-90226553D02*
X149555648Y-90274172D01*
X149555648Y-90274172D02*
X149531838Y-90297982D01*
X149531838Y-90297982D02*
X149484219Y-90321791D01*
X149484219Y-90321791D02*
X149436600Y-90321791D01*
X149436600Y-90321791D02*
X149388981Y-90297982D01*
X149388981Y-90297982D02*
X149365172Y-90274172D01*
X149365172Y-90274172D02*
X149341362Y-90226553D01*
X149341362Y-90226553D02*
X149317553Y-90131315D01*
X149317553Y-90131315D02*
X149317553Y-90012267D01*
X149317553Y-90012267D02*
X149341362Y-89917029D01*
X149341362Y-89917029D02*
X149365172Y-89869410D01*
X149365172Y-89869410D02*
X149388981Y-89845601D01*
X149388981Y-89845601D02*
X149436600Y-89821791D01*
X149817552Y-90274172D02*
X149841362Y-90297982D01*
X149841362Y-90297982D02*
X149817552Y-90321791D01*
X149817552Y-90321791D02*
X149793743Y-90297982D01*
X149793743Y-90297982D02*
X149817552Y-90274172D01*
X149817552Y-90274172D02*
X149817552Y-90321791D01*
X150031838Y-89869410D02*
X150055647Y-89845601D01*
X150055647Y-89845601D02*
X150103266Y-89821791D01*
X150103266Y-89821791D02*
X150222314Y-89821791D01*
X150222314Y-89821791D02*
X150269933Y-89845601D01*
X150269933Y-89845601D02*
X150293742Y-89869410D01*
X150293742Y-89869410D02*
X150317552Y-89917029D01*
X150317552Y-89917029D02*
X150317552Y-89964648D01*
X150317552Y-89964648D02*
X150293742Y-90036077D01*
X150293742Y-90036077D02*
X150008028Y-90321791D01*
X150008028Y-90321791D02*
X150317552Y-90321791D01*
X143888984Y-90864858D02*
X143960412Y-90888668D01*
X143960412Y-90888668D02*
X143984222Y-90912477D01*
X143984222Y-90912477D02*
X144008031Y-90960096D01*
X144008031Y-90960096D02*
X144008031Y-91031525D01*
X144008031Y-91031525D02*
X143984222Y-91079144D01*
X143984222Y-91079144D02*
X143960412Y-91102954D01*
X143960412Y-91102954D02*
X143912793Y-91126763D01*
X143912793Y-91126763D02*
X143722317Y-91126763D01*
X143722317Y-91126763D02*
X143722317Y-90626763D01*
X143722317Y-90626763D02*
X143888984Y-90626763D01*
X143888984Y-90626763D02*
X143936603Y-90650573D01*
X143936603Y-90650573D02*
X143960412Y-90674382D01*
X143960412Y-90674382D02*
X143984222Y-90722001D01*
X143984222Y-90722001D02*
X143984222Y-90769620D01*
X143984222Y-90769620D02*
X143960412Y-90817239D01*
X143960412Y-90817239D02*
X143936603Y-90841049D01*
X143936603Y-90841049D02*
X143888984Y-90864858D01*
X143888984Y-90864858D02*
X143722317Y-90864858D01*
X144317555Y-90626763D02*
X144412793Y-90626763D01*
X144412793Y-90626763D02*
X144460412Y-90650573D01*
X144460412Y-90650573D02*
X144508031Y-90698192D01*
X144508031Y-90698192D02*
X144531841Y-90793430D01*
X144531841Y-90793430D02*
X144531841Y-90960096D01*
X144531841Y-90960096D02*
X144508031Y-91055334D01*
X144508031Y-91055334D02*
X144460412Y-91102954D01*
X144460412Y-91102954D02*
X144412793Y-91126763D01*
X144412793Y-91126763D02*
X144317555Y-91126763D01*
X144317555Y-91126763D02*
X144269936Y-91102954D01*
X144269936Y-91102954D02*
X144222317Y-91055334D01*
X144222317Y-91055334D02*
X144198508Y-90960096D01*
X144198508Y-90960096D02*
X144198508Y-90793430D01*
X144198508Y-90793430D02*
X144222317Y-90698192D01*
X144222317Y-90698192D02*
X144269936Y-90650573D01*
X144269936Y-90650573D02*
X144317555Y-90626763D01*
X144674699Y-90626763D02*
X144960413Y-90626763D01*
X144817556Y-91126763D02*
X144817556Y-90626763D01*
X145508031Y-90936287D02*
X145888984Y-90936287D01*
X146127079Y-90793430D02*
X146508032Y-90936287D01*
X146508032Y-90936287D02*
X146127079Y-91079144D01*
X147222317Y-90626763D02*
X147269936Y-90626763D01*
X147269936Y-90626763D02*
X147317555Y-90650573D01*
X147317555Y-90650573D02*
X147341365Y-90674382D01*
X147341365Y-90674382D02*
X147365174Y-90722001D01*
X147365174Y-90722001D02*
X147388984Y-90817239D01*
X147388984Y-90817239D02*
X147388984Y-90936287D01*
X147388984Y-90936287D02*
X147365174Y-91031525D01*
X147365174Y-91031525D02*
X147341365Y-91079144D01*
X147341365Y-91079144D02*
X147317555Y-91102954D01*
X147317555Y-91102954D02*
X147269936Y-91126763D01*
X147269936Y-91126763D02*
X147222317Y-91126763D01*
X147222317Y-91126763D02*
X147174698Y-91102954D01*
X147174698Y-91102954D02*
X147150889Y-91079144D01*
X147150889Y-91079144D02*
X147127079Y-91031525D01*
X147127079Y-91031525D02*
X147103270Y-90936287D01*
X147103270Y-90936287D02*
X147103270Y-90817239D01*
X147103270Y-90817239D02*
X147127079Y-90722001D01*
X147127079Y-90722001D02*
X147150889Y-90674382D01*
X147150889Y-90674382D02*
X147174698Y-90650573D01*
X147174698Y-90650573D02*
X147222317Y-90626763D01*
X147603269Y-91079144D02*
X147627079Y-91102954D01*
X147627079Y-91102954D02*
X147603269Y-91126763D01*
X147603269Y-91126763D02*
X147579460Y-91102954D01*
X147579460Y-91102954D02*
X147603269Y-91079144D01*
X147603269Y-91079144D02*
X147603269Y-91126763D01*
X148103269Y-91126763D02*
X147817555Y-91126763D01*
X147960412Y-91126763D02*
X147960412Y-90626763D01*
X147960412Y-90626763D02*
X147912793Y-90698192D01*
X147912793Y-90698192D02*
X147865174Y-90745811D01*
X147865174Y-90745811D02*
X147817555Y-90769620D01*
X148269935Y-90626763D02*
X148579459Y-90626763D01*
X148579459Y-90626763D02*
X148412792Y-90817239D01*
X148412792Y-90817239D02*
X148484221Y-90817239D01*
X148484221Y-90817239D02*
X148531840Y-90841049D01*
X148531840Y-90841049D02*
X148555649Y-90864858D01*
X148555649Y-90864858D02*
X148579459Y-90912477D01*
X148579459Y-90912477D02*
X148579459Y-91031525D01*
X148579459Y-91031525D02*
X148555649Y-91079144D01*
X148555649Y-91079144D02*
X148531840Y-91102954D01*
X148531840Y-91102954D02*
X148484221Y-91126763D01*
X148484221Y-91126763D02*
X148341364Y-91126763D01*
X148341364Y-91126763D02*
X148293745Y-91102954D01*
X148293745Y-91102954D02*
X148269935Y-91079144D01*
X148793744Y-90936287D02*
X149174697Y-90936287D01*
X149508030Y-90626763D02*
X149555649Y-90626763D01*
X149555649Y-90626763D02*
X149603268Y-90650573D01*
X149603268Y-90650573D02*
X149627078Y-90674382D01*
X149627078Y-90674382D02*
X149650887Y-90722001D01*
X149650887Y-90722001D02*
X149674697Y-90817239D01*
X149674697Y-90817239D02*
X149674697Y-90936287D01*
X149674697Y-90936287D02*
X149650887Y-91031525D01*
X149650887Y-91031525D02*
X149627078Y-91079144D01*
X149627078Y-91079144D02*
X149603268Y-91102954D01*
X149603268Y-91102954D02*
X149555649Y-91126763D01*
X149555649Y-91126763D02*
X149508030Y-91126763D01*
X149508030Y-91126763D02*
X149460411Y-91102954D01*
X149460411Y-91102954D02*
X149436602Y-91079144D01*
X149436602Y-91079144D02*
X149412792Y-91031525D01*
X149412792Y-91031525D02*
X149388983Y-90936287D01*
X149388983Y-90936287D02*
X149388983Y-90817239D01*
X149388983Y-90817239D02*
X149412792Y-90722001D01*
X149412792Y-90722001D02*
X149436602Y-90674382D01*
X149436602Y-90674382D02*
X149460411Y-90650573D01*
X149460411Y-90650573D02*
X149508030Y-90626763D01*
X149888982Y-91079144D02*
X149912792Y-91102954D01*
X149912792Y-91102954D02*
X149888982Y-91126763D01*
X149888982Y-91126763D02*
X149865173Y-91102954D01*
X149865173Y-91102954D02*
X149888982Y-91079144D01*
X149888982Y-91079144D02*
X149888982Y-91126763D01*
X150388982Y-91126763D02*
X150103268Y-91126763D01*
X150246125Y-91126763D02*
X150246125Y-90626763D01*
X150246125Y-90626763D02*
X150198506Y-90698192D01*
X150198506Y-90698192D02*
X150150887Y-90745811D01*
X150150887Y-90745811D02*
X150103268Y-90769620D01*
X150579458Y-90674382D02*
X150603267Y-90650573D01*
X150603267Y-90650573D02*
X150650886Y-90626763D01*
X150650886Y-90626763D02*
X150769934Y-90626763D01*
X150769934Y-90626763D02*
X150817553Y-90650573D01*
X150817553Y-90650573D02*
X150841362Y-90674382D01*
X150841362Y-90674382D02*
X150865172Y-90722001D01*
X150865172Y-90722001D02*
X150865172Y-90769620D01*
X150865172Y-90769620D02*
X150841362Y-90841049D01*
X150841362Y-90841049D02*
X150555648Y-91126763D01*
X150555648Y-91126763D02*
X150865172Y-91126763D01*
X143722317Y-91931735D02*
X143722317Y-91431735D01*
X143722317Y-91431735D02*
X143841365Y-91431735D01*
X143841365Y-91431735D02*
X143912793Y-91455545D01*
X143912793Y-91455545D02*
X143960412Y-91503164D01*
X143960412Y-91503164D02*
X143984222Y-91550783D01*
X143984222Y-91550783D02*
X144008031Y-91646021D01*
X144008031Y-91646021D02*
X144008031Y-91717449D01*
X144008031Y-91717449D02*
X143984222Y-91812687D01*
X143984222Y-91812687D02*
X143960412Y-91860306D01*
X143960412Y-91860306D02*
X143912793Y-91907926D01*
X143912793Y-91907926D02*
X143841365Y-91931735D01*
X143841365Y-91931735D02*
X143722317Y-91931735D01*
X144222317Y-91931735D02*
X144222317Y-91431735D01*
X144627079Y-91669830D02*
X144460412Y-91669830D01*
X144460412Y-91931735D02*
X144460412Y-91431735D01*
X144460412Y-91431735D02*
X144698507Y-91431735D01*
X145341364Y-91646021D02*
X145293745Y-91622211D01*
X145293745Y-91622211D02*
X145269935Y-91598402D01*
X145269935Y-91598402D02*
X145246126Y-91550783D01*
X145246126Y-91550783D02*
X145246126Y-91526973D01*
X145246126Y-91526973D02*
X145269935Y-91479354D01*
X145269935Y-91479354D02*
X145293745Y-91455545D01*
X145293745Y-91455545D02*
X145341364Y-91431735D01*
X145341364Y-91431735D02*
X145436602Y-91431735D01*
X145436602Y-91431735D02*
X145484221Y-91455545D01*
X145484221Y-91455545D02*
X145508030Y-91479354D01*
X145508030Y-91479354D02*
X145531840Y-91526973D01*
X145531840Y-91526973D02*
X145531840Y-91550783D01*
X145531840Y-91550783D02*
X145508030Y-91598402D01*
X145508030Y-91598402D02*
X145484221Y-91622211D01*
X145484221Y-91622211D02*
X145436602Y-91646021D01*
X145436602Y-91646021D02*
X145341364Y-91646021D01*
X145341364Y-91646021D02*
X145293745Y-91669830D01*
X145293745Y-91669830D02*
X145269935Y-91693640D01*
X145269935Y-91693640D02*
X145246126Y-91741259D01*
X145246126Y-91741259D02*
X145246126Y-91836497D01*
X145246126Y-91836497D02*
X145269935Y-91884116D01*
X145269935Y-91884116D02*
X145293745Y-91907926D01*
X145293745Y-91907926D02*
X145341364Y-91931735D01*
X145341364Y-91931735D02*
X145436602Y-91931735D01*
X145436602Y-91931735D02*
X145484221Y-91907926D01*
X145484221Y-91907926D02*
X145508030Y-91884116D01*
X145508030Y-91884116D02*
X145531840Y-91836497D01*
X145531840Y-91836497D02*
X145531840Y-91741259D01*
X145531840Y-91741259D02*
X145508030Y-91693640D01*
X145508030Y-91693640D02*
X145484221Y-91669830D01*
X145484221Y-91669830D02*
X145436602Y-91646021D01*
X145984220Y-91431735D02*
X145746125Y-91431735D01*
X145746125Y-91431735D02*
X145722316Y-91669830D01*
X145722316Y-91669830D02*
X145746125Y-91646021D01*
X145746125Y-91646021D02*
X145793744Y-91622211D01*
X145793744Y-91622211D02*
X145912792Y-91622211D01*
X145912792Y-91622211D02*
X145960411Y-91646021D01*
X145960411Y-91646021D02*
X145984220Y-91669830D01*
X145984220Y-91669830D02*
X146008030Y-91717449D01*
X146008030Y-91717449D02*
X146008030Y-91836497D01*
X146008030Y-91836497D02*
X145984220Y-91884116D01*
X145984220Y-91884116D02*
X145960411Y-91907926D01*
X145960411Y-91907926D02*
X145912792Y-91931735D01*
X145912792Y-91931735D02*
X145793744Y-91931735D01*
X145793744Y-91931735D02*
X145746125Y-91907926D01*
X145746125Y-91907926D02*
X145722316Y-91884116D01*
X143650889Y-92236707D02*
X143936603Y-92236707D01*
X143793746Y-92736707D02*
X143793746Y-92236707D01*
X144198507Y-92236707D02*
X144293745Y-92236707D01*
X144293745Y-92236707D02*
X144341364Y-92260517D01*
X144341364Y-92260517D02*
X144388983Y-92308136D01*
X144388983Y-92308136D02*
X144412793Y-92403374D01*
X144412793Y-92403374D02*
X144412793Y-92570040D01*
X144412793Y-92570040D02*
X144388983Y-92665278D01*
X144388983Y-92665278D02*
X144341364Y-92712898D01*
X144341364Y-92712898D02*
X144293745Y-92736707D01*
X144293745Y-92736707D02*
X144198507Y-92736707D01*
X144198507Y-92736707D02*
X144150888Y-92712898D01*
X144150888Y-92712898D02*
X144103269Y-92665278D01*
X144103269Y-92665278D02*
X144079460Y-92570040D01*
X144079460Y-92570040D02*
X144079460Y-92403374D01*
X144079460Y-92403374D02*
X144103269Y-92308136D01*
X144103269Y-92308136D02*
X144150888Y-92260517D01*
X144150888Y-92260517D02*
X144198507Y-92236707D01*
X144627079Y-92736707D02*
X144627079Y-92236707D01*
X144627079Y-92236707D02*
X144817555Y-92236707D01*
X144817555Y-92236707D02*
X144865174Y-92260517D01*
X144865174Y-92260517D02*
X144888984Y-92284326D01*
X144888984Y-92284326D02*
X144912793Y-92331945D01*
X144912793Y-92331945D02*
X144912793Y-92403374D01*
X144912793Y-92403374D02*
X144888984Y-92450993D01*
X144888984Y-92450993D02*
X144865174Y-92474802D01*
X144865174Y-92474802D02*
X144817555Y-92498612D01*
X144817555Y-92498612D02*
X144627079Y-92498612D01*
X145508031Y-92546231D02*
X145888984Y-92546231D01*
X146127079Y-92403374D02*
X146508032Y-92546231D01*
X146508032Y-92546231D02*
X146127079Y-92689088D01*
X147222317Y-92236707D02*
X147269936Y-92236707D01*
X147269936Y-92236707D02*
X147317555Y-92260517D01*
X147317555Y-92260517D02*
X147341365Y-92284326D01*
X147341365Y-92284326D02*
X147365174Y-92331945D01*
X147365174Y-92331945D02*
X147388984Y-92427183D01*
X147388984Y-92427183D02*
X147388984Y-92546231D01*
X147388984Y-92546231D02*
X147365174Y-92641469D01*
X147365174Y-92641469D02*
X147341365Y-92689088D01*
X147341365Y-92689088D02*
X147317555Y-92712898D01*
X147317555Y-92712898D02*
X147269936Y-92736707D01*
X147269936Y-92736707D02*
X147222317Y-92736707D01*
X147222317Y-92736707D02*
X147174698Y-92712898D01*
X147174698Y-92712898D02*
X147150889Y-92689088D01*
X147150889Y-92689088D02*
X147127079Y-92641469D01*
X147127079Y-92641469D02*
X147103270Y-92546231D01*
X147103270Y-92546231D02*
X147103270Y-92427183D01*
X147103270Y-92427183D02*
X147127079Y-92331945D01*
X147127079Y-92331945D02*
X147150889Y-92284326D01*
X147150889Y-92284326D02*
X147174698Y-92260517D01*
X147174698Y-92260517D02*
X147222317Y-92236707D01*
X147603269Y-92689088D02*
X147627079Y-92712898D01*
X147627079Y-92712898D02*
X147603269Y-92736707D01*
X147603269Y-92736707D02*
X147579460Y-92712898D01*
X147579460Y-92712898D02*
X147603269Y-92689088D01*
X147603269Y-92689088D02*
X147603269Y-92736707D01*
X148103269Y-92736707D02*
X147817555Y-92736707D01*
X147960412Y-92736707D02*
X147960412Y-92236707D01*
X147960412Y-92236707D02*
X147912793Y-92308136D01*
X147912793Y-92308136D02*
X147865174Y-92355755D01*
X147865174Y-92355755D02*
X147817555Y-92379564D01*
X148531840Y-92403374D02*
X148531840Y-92736707D01*
X148412792Y-92212898D02*
X148293745Y-92570040D01*
X148293745Y-92570040D02*
X148603268Y-92570040D01*
X148793744Y-92546231D02*
X149174697Y-92546231D01*
X149508030Y-92236707D02*
X149555649Y-92236707D01*
X149555649Y-92236707D02*
X149603268Y-92260517D01*
X149603268Y-92260517D02*
X149627078Y-92284326D01*
X149627078Y-92284326D02*
X149650887Y-92331945D01*
X149650887Y-92331945D02*
X149674697Y-92427183D01*
X149674697Y-92427183D02*
X149674697Y-92546231D01*
X149674697Y-92546231D02*
X149650887Y-92641469D01*
X149650887Y-92641469D02*
X149627078Y-92689088D01*
X149627078Y-92689088D02*
X149603268Y-92712898D01*
X149603268Y-92712898D02*
X149555649Y-92736707D01*
X149555649Y-92736707D02*
X149508030Y-92736707D01*
X149508030Y-92736707D02*
X149460411Y-92712898D01*
X149460411Y-92712898D02*
X149436602Y-92689088D01*
X149436602Y-92689088D02*
X149412792Y-92641469D01*
X149412792Y-92641469D02*
X149388983Y-92546231D01*
X149388983Y-92546231D02*
X149388983Y-92427183D01*
X149388983Y-92427183D02*
X149412792Y-92331945D01*
X149412792Y-92331945D02*
X149436602Y-92284326D01*
X149436602Y-92284326D02*
X149460411Y-92260517D01*
X149460411Y-92260517D02*
X149508030Y-92236707D01*
X149888982Y-92689088D02*
X149912792Y-92712898D01*
X149912792Y-92712898D02*
X149888982Y-92736707D01*
X149888982Y-92736707D02*
X149865173Y-92712898D01*
X149865173Y-92712898D02*
X149888982Y-92689088D01*
X149888982Y-92689088D02*
X149888982Y-92736707D01*
X150388982Y-92736707D02*
X150103268Y-92736707D01*
X150246125Y-92736707D02*
X150246125Y-92236707D01*
X150246125Y-92236707D02*
X150198506Y-92308136D01*
X150198506Y-92308136D02*
X150150887Y-92355755D01*
X150150887Y-92355755D02*
X150103268Y-92379564D01*
X150865172Y-92736707D02*
X150579458Y-92736707D01*
X150722315Y-92736707D02*
X150722315Y-92236707D01*
X150722315Y-92236707D02*
X150674696Y-92308136D01*
X150674696Y-92308136D02*
X150627077Y-92355755D01*
X150627077Y-92355755D02*
X150579458Y-92379564D01*
X143698508Y-93517870D02*
X143769936Y-93541679D01*
X143769936Y-93541679D02*
X143888984Y-93541679D01*
X143888984Y-93541679D02*
X143936603Y-93517870D01*
X143936603Y-93517870D02*
X143960412Y-93494060D01*
X143960412Y-93494060D02*
X143984222Y-93446441D01*
X143984222Y-93446441D02*
X143984222Y-93398822D01*
X143984222Y-93398822D02*
X143960412Y-93351203D01*
X143960412Y-93351203D02*
X143936603Y-93327393D01*
X143936603Y-93327393D02*
X143888984Y-93303584D01*
X143888984Y-93303584D02*
X143793746Y-93279774D01*
X143793746Y-93279774D02*
X143746127Y-93255965D01*
X143746127Y-93255965D02*
X143722317Y-93232155D01*
X143722317Y-93232155D02*
X143698508Y-93184536D01*
X143698508Y-93184536D02*
X143698508Y-93136917D01*
X143698508Y-93136917D02*
X143722317Y-93089298D01*
X143722317Y-93089298D02*
X143746127Y-93065489D01*
X143746127Y-93065489D02*
X143793746Y-93041679D01*
X143793746Y-93041679D02*
X143912793Y-93041679D01*
X143912793Y-93041679D02*
X143984222Y-93065489D01*
X144460412Y-93541679D02*
X144174698Y-93541679D01*
X144317555Y-93541679D02*
X144317555Y-93041679D01*
X144317555Y-93041679D02*
X144269936Y-93113108D01*
X144269936Y-93113108D02*
X144222317Y-93160727D01*
X144222317Y-93160727D02*
X144174698Y-93184536D01*
X145436601Y-93351203D02*
X145817554Y-93351203D01*
X146055649Y-93208346D02*
X146436602Y-93351203D01*
X146436602Y-93351203D02*
X146055649Y-93494060D01*
X147150887Y-93041679D02*
X147198506Y-93041679D01*
X147198506Y-93041679D02*
X147246125Y-93065489D01*
X147246125Y-93065489D02*
X147269935Y-93089298D01*
X147269935Y-93089298D02*
X147293744Y-93136917D01*
X147293744Y-93136917D02*
X147317554Y-93232155D01*
X147317554Y-93232155D02*
X147317554Y-93351203D01*
X147317554Y-93351203D02*
X147293744Y-93446441D01*
X147293744Y-93446441D02*
X147269935Y-93494060D01*
X147269935Y-93494060D02*
X147246125Y-93517870D01*
X147246125Y-93517870D02*
X147198506Y-93541679D01*
X147198506Y-93541679D02*
X147150887Y-93541679D01*
X147150887Y-93541679D02*
X147103268Y-93517870D01*
X147103268Y-93517870D02*
X147079459Y-93494060D01*
X147079459Y-93494060D02*
X147055649Y-93446441D01*
X147055649Y-93446441D02*
X147031840Y-93351203D01*
X147031840Y-93351203D02*
X147031840Y-93232155D01*
X147031840Y-93232155D02*
X147055649Y-93136917D01*
X147055649Y-93136917D02*
X147079459Y-93089298D01*
X147079459Y-93089298D02*
X147103268Y-93065489D01*
X147103268Y-93065489D02*
X147150887Y-93041679D01*
X147531839Y-93494060D02*
X147555649Y-93517870D01*
X147555649Y-93517870D02*
X147531839Y-93541679D01*
X147531839Y-93541679D02*
X147508030Y-93517870D01*
X147508030Y-93517870D02*
X147531839Y-93494060D01*
X147531839Y-93494060D02*
X147531839Y-93541679D01*
X148031839Y-93541679D02*
X147746125Y-93541679D01*
X147888982Y-93541679D02*
X147888982Y-93041679D01*
X147888982Y-93041679D02*
X147841363Y-93113108D01*
X147841363Y-93113108D02*
X147793744Y-93160727D01*
X147793744Y-93160727D02*
X147746125Y-93184536D01*
X148198505Y-93041679D02*
X148508029Y-93041679D01*
X148508029Y-93041679D02*
X148341362Y-93232155D01*
X148341362Y-93232155D02*
X148412791Y-93232155D01*
X148412791Y-93232155D02*
X148460410Y-93255965D01*
X148460410Y-93255965D02*
X148484219Y-93279774D01*
X148484219Y-93279774D02*
X148508029Y-93327393D01*
X148508029Y-93327393D02*
X148508029Y-93446441D01*
X148508029Y-93446441D02*
X148484219Y-93494060D01*
X148484219Y-93494060D02*
X148460410Y-93517870D01*
X148460410Y-93517870D02*
X148412791Y-93541679D01*
X148412791Y-93541679D02*
X148269934Y-93541679D01*
X148269934Y-93541679D02*
X148222315Y-93517870D01*
X148222315Y-93517870D02*
X148198505Y-93494060D01*
X148722314Y-93351203D02*
X149103267Y-93351203D01*
X149436600Y-93041679D02*
X149484219Y-93041679D01*
X149484219Y-93041679D02*
X149531838Y-93065489D01*
X149531838Y-93065489D02*
X149555648Y-93089298D01*
X149555648Y-93089298D02*
X149579457Y-93136917D01*
X149579457Y-93136917D02*
X149603267Y-93232155D01*
X149603267Y-93232155D02*
X149603267Y-93351203D01*
X149603267Y-93351203D02*
X149579457Y-93446441D01*
X149579457Y-93446441D02*
X149555648Y-93494060D01*
X149555648Y-93494060D02*
X149531838Y-93517870D01*
X149531838Y-93517870D02*
X149484219Y-93541679D01*
X149484219Y-93541679D02*
X149436600Y-93541679D01*
X149436600Y-93541679D02*
X149388981Y-93517870D01*
X149388981Y-93517870D02*
X149365172Y-93494060D01*
X149365172Y-93494060D02*
X149341362Y-93446441D01*
X149341362Y-93446441D02*
X149317553Y-93351203D01*
X149317553Y-93351203D02*
X149317553Y-93232155D01*
X149317553Y-93232155D02*
X149341362Y-93136917D01*
X149341362Y-93136917D02*
X149365172Y-93089298D01*
X149365172Y-93089298D02*
X149388981Y-93065489D01*
X149388981Y-93065489D02*
X149436600Y-93041679D01*
X149817552Y-93494060D02*
X149841362Y-93517870D01*
X149841362Y-93517870D02*
X149817552Y-93541679D01*
X149817552Y-93541679D02*
X149793743Y-93517870D01*
X149793743Y-93517870D02*
X149817552Y-93494060D01*
X149817552Y-93494060D02*
X149817552Y-93541679D01*
X150317552Y-93541679D02*
X150031838Y-93541679D01*
X150174695Y-93541679D02*
X150174695Y-93041679D01*
X150174695Y-93041679D02*
X150127076Y-93113108D01*
X150127076Y-93113108D02*
X150079457Y-93160727D01*
X150079457Y-93160727D02*
X150031838Y-93184536D01*
X150508028Y-93089298D02*
X150531837Y-93065489D01*
X150531837Y-93065489D02*
X150579456Y-93041679D01*
X150579456Y-93041679D02*
X150698504Y-93041679D01*
X150698504Y-93041679D02*
X150746123Y-93065489D01*
X150746123Y-93065489D02*
X150769932Y-93089298D01*
X150769932Y-93089298D02*
X150793742Y-93136917D01*
X150793742Y-93136917D02*
X150793742Y-93184536D01*
X150793742Y-93184536D02*
X150769932Y-93255965D01*
X150769932Y-93255965D02*
X150484218Y-93541679D01*
X150484218Y-93541679D02*
X150793742Y-93541679D01*
X143698508Y-94322842D02*
X143769936Y-94346651D01*
X143769936Y-94346651D02*
X143888984Y-94346651D01*
X143888984Y-94346651D02*
X143936603Y-94322842D01*
X143936603Y-94322842D02*
X143960412Y-94299032D01*
X143960412Y-94299032D02*
X143984222Y-94251413D01*
X143984222Y-94251413D02*
X143984222Y-94203794D01*
X143984222Y-94203794D02*
X143960412Y-94156175D01*
X143960412Y-94156175D02*
X143936603Y-94132365D01*
X143936603Y-94132365D02*
X143888984Y-94108556D01*
X143888984Y-94108556D02*
X143793746Y-94084746D01*
X143793746Y-94084746D02*
X143746127Y-94060937D01*
X143746127Y-94060937D02*
X143722317Y-94037127D01*
X143722317Y-94037127D02*
X143698508Y-93989508D01*
X143698508Y-93989508D02*
X143698508Y-93941889D01*
X143698508Y-93941889D02*
X143722317Y-93894270D01*
X143722317Y-93894270D02*
X143746127Y-93870461D01*
X143746127Y-93870461D02*
X143793746Y-93846651D01*
X143793746Y-93846651D02*
X143912793Y-93846651D01*
X143912793Y-93846651D02*
X143984222Y-93870461D01*
X144174698Y-93894270D02*
X144198507Y-93870461D01*
X144198507Y-93870461D02*
X144246126Y-93846651D01*
X144246126Y-93846651D02*
X144365174Y-93846651D01*
X144365174Y-93846651D02*
X144412793Y-93870461D01*
X144412793Y-93870461D02*
X144436602Y-93894270D01*
X144436602Y-93894270D02*
X144460412Y-93941889D01*
X144460412Y-93941889D02*
X144460412Y-93989508D01*
X144460412Y-93989508D02*
X144436602Y-94060937D01*
X144436602Y-94060937D02*
X144150888Y-94346651D01*
X144150888Y-94346651D02*
X144460412Y-94346651D01*
X145436601Y-94156175D02*
X145817554Y-94156175D01*
X146055649Y-94013318D02*
X146436602Y-94156175D01*
X146436602Y-94156175D02*
X146055649Y-94299032D01*
X147150887Y-93846651D02*
X147198506Y-93846651D01*
X147198506Y-93846651D02*
X147246125Y-93870461D01*
X147246125Y-93870461D02*
X147269935Y-93894270D01*
X147269935Y-93894270D02*
X147293744Y-93941889D01*
X147293744Y-93941889D02*
X147317554Y-94037127D01*
X147317554Y-94037127D02*
X147317554Y-94156175D01*
X147317554Y-94156175D02*
X147293744Y-94251413D01*
X147293744Y-94251413D02*
X147269935Y-94299032D01*
X147269935Y-94299032D02*
X147246125Y-94322842D01*
X147246125Y-94322842D02*
X147198506Y-94346651D01*
X147198506Y-94346651D02*
X147150887Y-94346651D01*
X147150887Y-94346651D02*
X147103268Y-94322842D01*
X147103268Y-94322842D02*
X147079459Y-94299032D01*
X147079459Y-94299032D02*
X147055649Y-94251413D01*
X147055649Y-94251413D02*
X147031840Y-94156175D01*
X147031840Y-94156175D02*
X147031840Y-94037127D01*
X147031840Y-94037127D02*
X147055649Y-93941889D01*
X147055649Y-93941889D02*
X147079459Y-93894270D01*
X147079459Y-93894270D02*
X147103268Y-93870461D01*
X147103268Y-93870461D02*
X147150887Y-93846651D01*
X147531839Y-94299032D02*
X147555649Y-94322842D01*
X147555649Y-94322842D02*
X147531839Y-94346651D01*
X147531839Y-94346651D02*
X147508030Y-94322842D01*
X147508030Y-94322842D02*
X147531839Y-94299032D01*
X147531839Y-94299032D02*
X147531839Y-94346651D01*
X148031839Y-94346651D02*
X147746125Y-94346651D01*
X147888982Y-94346651D02*
X147888982Y-93846651D01*
X147888982Y-93846651D02*
X147841363Y-93918080D01*
X147841363Y-93918080D02*
X147793744Y-93965699D01*
X147793744Y-93965699D02*
X147746125Y-93989508D01*
X148198505Y-93846651D02*
X148508029Y-93846651D01*
X148508029Y-93846651D02*
X148341362Y-94037127D01*
X148341362Y-94037127D02*
X148412791Y-94037127D01*
X148412791Y-94037127D02*
X148460410Y-94060937D01*
X148460410Y-94060937D02*
X148484219Y-94084746D01*
X148484219Y-94084746D02*
X148508029Y-94132365D01*
X148508029Y-94132365D02*
X148508029Y-94251413D01*
X148508029Y-94251413D02*
X148484219Y-94299032D01*
X148484219Y-94299032D02*
X148460410Y-94322842D01*
X148460410Y-94322842D02*
X148412791Y-94346651D01*
X148412791Y-94346651D02*
X148269934Y-94346651D01*
X148269934Y-94346651D02*
X148222315Y-94322842D01*
X148222315Y-94322842D02*
X148198505Y-94299032D01*
X148722314Y-94156175D02*
X149103267Y-94156175D01*
X149436600Y-93846651D02*
X149484219Y-93846651D01*
X149484219Y-93846651D02*
X149531838Y-93870461D01*
X149531838Y-93870461D02*
X149555648Y-93894270D01*
X149555648Y-93894270D02*
X149579457Y-93941889D01*
X149579457Y-93941889D02*
X149603267Y-94037127D01*
X149603267Y-94037127D02*
X149603267Y-94156175D01*
X149603267Y-94156175D02*
X149579457Y-94251413D01*
X149579457Y-94251413D02*
X149555648Y-94299032D01*
X149555648Y-94299032D02*
X149531838Y-94322842D01*
X149531838Y-94322842D02*
X149484219Y-94346651D01*
X149484219Y-94346651D02*
X149436600Y-94346651D01*
X149436600Y-94346651D02*
X149388981Y-94322842D01*
X149388981Y-94322842D02*
X149365172Y-94299032D01*
X149365172Y-94299032D02*
X149341362Y-94251413D01*
X149341362Y-94251413D02*
X149317553Y-94156175D01*
X149317553Y-94156175D02*
X149317553Y-94037127D01*
X149317553Y-94037127D02*
X149341362Y-93941889D01*
X149341362Y-93941889D02*
X149365172Y-93894270D01*
X149365172Y-93894270D02*
X149388981Y-93870461D01*
X149388981Y-93870461D02*
X149436600Y-93846651D01*
X149817552Y-94299032D02*
X149841362Y-94322842D01*
X149841362Y-94322842D02*
X149817552Y-94346651D01*
X149817552Y-94346651D02*
X149793743Y-94322842D01*
X149793743Y-94322842D02*
X149817552Y-94299032D01*
X149817552Y-94299032D02*
X149817552Y-94346651D01*
X150317552Y-94346651D02*
X150031838Y-94346651D01*
X150174695Y-94346651D02*
X150174695Y-93846651D01*
X150174695Y-93846651D02*
X150127076Y-93918080D01*
X150127076Y-93918080D02*
X150079457Y-93965699D01*
X150079457Y-93965699D02*
X150031838Y-93989508D01*
X150508028Y-93894270D02*
X150531837Y-93870461D01*
X150531837Y-93870461D02*
X150579456Y-93846651D01*
X150579456Y-93846651D02*
X150698504Y-93846651D01*
X150698504Y-93846651D02*
X150746123Y-93870461D01*
X150746123Y-93870461D02*
X150769932Y-93894270D01*
X150769932Y-93894270D02*
X150793742Y-93941889D01*
X150793742Y-93941889D02*
X150793742Y-93989508D01*
X150793742Y-93989508D02*
X150769932Y-94060937D01*
X150769932Y-94060937D02*
X150484218Y-94346651D01*
X150484218Y-94346651D02*
X150793742Y-94346651D01*
X143888984Y-94889718D02*
X143960412Y-94913528D01*
X143960412Y-94913528D02*
X143984222Y-94937337D01*
X143984222Y-94937337D02*
X144008031Y-94984956D01*
X144008031Y-94984956D02*
X144008031Y-95056385D01*
X144008031Y-95056385D02*
X143984222Y-95104004D01*
X143984222Y-95104004D02*
X143960412Y-95127814D01*
X143960412Y-95127814D02*
X143912793Y-95151623D01*
X143912793Y-95151623D02*
X143722317Y-95151623D01*
X143722317Y-95151623D02*
X143722317Y-94651623D01*
X143722317Y-94651623D02*
X143888984Y-94651623D01*
X143888984Y-94651623D02*
X143936603Y-94675433D01*
X143936603Y-94675433D02*
X143960412Y-94699242D01*
X143960412Y-94699242D02*
X143984222Y-94746861D01*
X143984222Y-94746861D02*
X143984222Y-94794480D01*
X143984222Y-94794480D02*
X143960412Y-94842099D01*
X143960412Y-94842099D02*
X143936603Y-94865909D01*
X143936603Y-94865909D02*
X143888984Y-94889718D01*
X143888984Y-94889718D02*
X143722317Y-94889718D01*
X144317555Y-94651623D02*
X144412793Y-94651623D01*
X144412793Y-94651623D02*
X144460412Y-94675433D01*
X144460412Y-94675433D02*
X144508031Y-94723052D01*
X144508031Y-94723052D02*
X144531841Y-94818290D01*
X144531841Y-94818290D02*
X144531841Y-94984956D01*
X144531841Y-94984956D02*
X144508031Y-95080194D01*
X144508031Y-95080194D02*
X144460412Y-95127814D01*
X144460412Y-95127814D02*
X144412793Y-95151623D01*
X144412793Y-95151623D02*
X144317555Y-95151623D01*
X144317555Y-95151623D02*
X144269936Y-95127814D01*
X144269936Y-95127814D02*
X144222317Y-95080194D01*
X144222317Y-95080194D02*
X144198508Y-94984956D01*
X144198508Y-94984956D02*
X144198508Y-94818290D01*
X144198508Y-94818290D02*
X144222317Y-94723052D01*
X144222317Y-94723052D02*
X144269936Y-94675433D01*
X144269936Y-94675433D02*
X144317555Y-94651623D01*
X144674699Y-94651623D02*
X144960413Y-94651623D01*
X144817556Y-95151623D02*
X144817556Y-94651623D01*
X145508031Y-94961147D02*
X145888984Y-94961147D01*
X146127079Y-94818290D02*
X146508032Y-94961147D01*
X146508032Y-94961147D02*
X146127079Y-95104004D01*
X147222317Y-94651623D02*
X147269936Y-94651623D01*
X147269936Y-94651623D02*
X147317555Y-94675433D01*
X147317555Y-94675433D02*
X147341365Y-94699242D01*
X147341365Y-94699242D02*
X147365174Y-94746861D01*
X147365174Y-94746861D02*
X147388984Y-94842099D01*
X147388984Y-94842099D02*
X147388984Y-94961147D01*
X147388984Y-94961147D02*
X147365174Y-95056385D01*
X147365174Y-95056385D02*
X147341365Y-95104004D01*
X147341365Y-95104004D02*
X147317555Y-95127814D01*
X147317555Y-95127814D02*
X147269936Y-95151623D01*
X147269936Y-95151623D02*
X147222317Y-95151623D01*
X147222317Y-95151623D02*
X147174698Y-95127814D01*
X147174698Y-95127814D02*
X147150889Y-95104004D01*
X147150889Y-95104004D02*
X147127079Y-95056385D01*
X147127079Y-95056385D02*
X147103270Y-94961147D01*
X147103270Y-94961147D02*
X147103270Y-94842099D01*
X147103270Y-94842099D02*
X147127079Y-94746861D01*
X147127079Y-94746861D02*
X147150889Y-94699242D01*
X147150889Y-94699242D02*
X147174698Y-94675433D01*
X147174698Y-94675433D02*
X147222317Y-94651623D01*
X147603269Y-95104004D02*
X147627079Y-95127814D01*
X147627079Y-95127814D02*
X147603269Y-95151623D01*
X147603269Y-95151623D02*
X147579460Y-95127814D01*
X147579460Y-95127814D02*
X147603269Y-95104004D01*
X147603269Y-95104004D02*
X147603269Y-95151623D01*
X148103269Y-95151623D02*
X147817555Y-95151623D01*
X147960412Y-95151623D02*
X147960412Y-94651623D01*
X147960412Y-94651623D02*
X147912793Y-94723052D01*
X147912793Y-94723052D02*
X147865174Y-94770671D01*
X147865174Y-94770671D02*
X147817555Y-94794480D01*
X148531840Y-94818290D02*
X148531840Y-95151623D01*
X148412792Y-94627814D02*
X148293745Y-94984956D01*
X148293745Y-94984956D02*
X148603268Y-94984956D01*
X148793744Y-94961147D02*
X149174697Y-94961147D01*
X149508030Y-94651623D02*
X149555649Y-94651623D01*
X149555649Y-94651623D02*
X149603268Y-94675433D01*
X149603268Y-94675433D02*
X149627078Y-94699242D01*
X149627078Y-94699242D02*
X149650887Y-94746861D01*
X149650887Y-94746861D02*
X149674697Y-94842099D01*
X149674697Y-94842099D02*
X149674697Y-94961147D01*
X149674697Y-94961147D02*
X149650887Y-95056385D01*
X149650887Y-95056385D02*
X149627078Y-95104004D01*
X149627078Y-95104004D02*
X149603268Y-95127814D01*
X149603268Y-95127814D02*
X149555649Y-95151623D01*
X149555649Y-95151623D02*
X149508030Y-95151623D01*
X149508030Y-95151623D02*
X149460411Y-95127814D01*
X149460411Y-95127814D02*
X149436602Y-95104004D01*
X149436602Y-95104004D02*
X149412792Y-95056385D01*
X149412792Y-95056385D02*
X149388983Y-94961147D01*
X149388983Y-94961147D02*
X149388983Y-94842099D01*
X149388983Y-94842099D02*
X149412792Y-94746861D01*
X149412792Y-94746861D02*
X149436602Y-94699242D01*
X149436602Y-94699242D02*
X149460411Y-94675433D01*
X149460411Y-94675433D02*
X149508030Y-94651623D01*
X149888982Y-95104004D02*
X149912792Y-95127814D01*
X149912792Y-95127814D02*
X149888982Y-95151623D01*
X149888982Y-95151623D02*
X149865173Y-95127814D01*
X149865173Y-95127814D02*
X149888982Y-95104004D01*
X149888982Y-95104004D02*
X149888982Y-95151623D01*
X150388982Y-95151623D02*
X150103268Y-95151623D01*
X150246125Y-95151623D02*
X150246125Y-94651623D01*
X150246125Y-94651623D02*
X150198506Y-94723052D01*
X150198506Y-94723052D02*
X150150887Y-94770671D01*
X150150887Y-94770671D02*
X150103268Y-94794480D01*
X150865172Y-95151623D02*
X150579458Y-95151623D01*
X150722315Y-95151623D02*
X150722315Y-94651623D01*
X150722315Y-94651623D02*
X150674696Y-94723052D01*
X150674696Y-94723052D02*
X150627077Y-94770671D01*
X150627077Y-94770671D02*
X150579458Y-94794480D01*
X146727317Y-100321623D02*
X146727317Y-99821623D01*
X146727317Y-99821623D02*
X146846365Y-99821623D01*
X146846365Y-99821623D02*
X146917793Y-99845433D01*
X146917793Y-99845433D02*
X146965412Y-99893052D01*
X146965412Y-99893052D02*
X146989222Y-99940671D01*
X146989222Y-99940671D02*
X147013031Y-100035909D01*
X147013031Y-100035909D02*
X147013031Y-100107337D01*
X147013031Y-100107337D02*
X146989222Y-100202575D01*
X146989222Y-100202575D02*
X146965412Y-100250194D01*
X146965412Y-100250194D02*
X146917793Y-100297814D01*
X146917793Y-100297814D02*
X146846365Y-100321623D01*
X146846365Y-100321623D02*
X146727317Y-100321623D01*
X147513031Y-100321623D02*
X147346365Y-100083528D01*
X147227317Y-100321623D02*
X147227317Y-99821623D01*
X147227317Y-99821623D02*
X147417793Y-99821623D01*
X147417793Y-99821623D02*
X147465412Y-99845433D01*
X147465412Y-99845433D02*
X147489222Y-99869242D01*
X147489222Y-99869242D02*
X147513031Y-99916861D01*
X147513031Y-99916861D02*
X147513031Y-99988290D01*
X147513031Y-99988290D02*
X147489222Y-100035909D01*
X147489222Y-100035909D02*
X147465412Y-100059718D01*
X147465412Y-100059718D02*
X147417793Y-100083528D01*
X147417793Y-100083528D02*
X147227317Y-100083528D01*
X147703508Y-100178766D02*
X147941603Y-100178766D01*
X147655889Y-100321623D02*
X147822555Y-99821623D01*
X147822555Y-99821623D02*
X147989222Y-100321623D01*
X148155888Y-100321623D02*
X148155888Y-99821623D01*
X148155888Y-99821623D02*
X148322555Y-100178766D01*
X148322555Y-100178766D02*
X148489221Y-99821623D01*
X148489221Y-99821623D02*
X148489221Y-100321623D01*
X149346364Y-100321623D02*
X149108269Y-100321623D01*
X149108269Y-100321623D02*
X149108269Y-99821623D01*
X149513031Y-100059718D02*
X149679698Y-100059718D01*
X149751126Y-100321623D02*
X149513031Y-100321623D01*
X149513031Y-100321623D02*
X149513031Y-99821623D01*
X149513031Y-99821623D02*
X149751126Y-99821623D01*
X149965412Y-100321623D02*
X149965412Y-99821623D01*
X149965412Y-99821623D02*
X150251126Y-100321623D01*
X150251126Y-100321623D02*
X150251126Y-99821623D01*
X150751127Y-99845433D02*
X150703508Y-99821623D01*
X150703508Y-99821623D02*
X150632079Y-99821623D01*
X150632079Y-99821623D02*
X150560651Y-99845433D01*
X150560651Y-99845433D02*
X150513032Y-99893052D01*
X150513032Y-99893052D02*
X150489222Y-99940671D01*
X150489222Y-99940671D02*
X150465413Y-100035909D01*
X150465413Y-100035909D02*
X150465413Y-100107337D01*
X150465413Y-100107337D02*
X150489222Y-100202575D01*
X150489222Y-100202575D02*
X150513032Y-100250194D01*
X150513032Y-100250194D02*
X150560651Y-100297814D01*
X150560651Y-100297814D02*
X150632079Y-100321623D01*
X150632079Y-100321623D02*
X150679698Y-100321623D01*
X150679698Y-100321623D02*
X150751127Y-100297814D01*
X150751127Y-100297814D02*
X150774936Y-100274004D01*
X150774936Y-100274004D02*
X150774936Y-100107337D01*
X150774936Y-100107337D02*
X150679698Y-100107337D01*
X150917794Y-99821623D02*
X151203508Y-99821623D01*
X151060651Y-100321623D02*
X151060651Y-99821623D01*
X151370174Y-100321623D02*
X151370174Y-99821623D01*
X151370174Y-100059718D02*
X151655888Y-100059718D01*
X151655888Y-100321623D02*
X151655888Y-99821623D01*
X152274936Y-100321623D02*
X152274936Y-99821623D01*
X152274936Y-99821623D02*
X152393984Y-99821623D01*
X152393984Y-99821623D02*
X152465412Y-99845433D01*
X152465412Y-99845433D02*
X152513031Y-99893052D01*
X152513031Y-99893052D02*
X152536841Y-99940671D01*
X152536841Y-99940671D02*
X152560650Y-100035909D01*
X152560650Y-100035909D02*
X152560650Y-100107337D01*
X152560650Y-100107337D02*
X152536841Y-100202575D01*
X152536841Y-100202575D02*
X152513031Y-100250194D01*
X152513031Y-100250194D02*
X152465412Y-100297814D01*
X152465412Y-100297814D02*
X152393984Y-100321623D01*
X152393984Y-100321623D02*
X152274936Y-100321623D01*
X153108269Y-100369242D02*
X153060650Y-100345433D01*
X153060650Y-100345433D02*
X153013031Y-100297814D01*
X153013031Y-100297814D02*
X152941603Y-100226385D01*
X152941603Y-100226385D02*
X152893984Y-100202575D01*
X152893984Y-100202575D02*
X152846365Y-100202575D01*
X152870174Y-100321623D02*
X152822555Y-100297814D01*
X152822555Y-100297814D02*
X152774936Y-100250194D01*
X152774936Y-100250194D02*
X152751127Y-100154956D01*
X152751127Y-100154956D02*
X152751127Y-99988290D01*
X152751127Y-99988290D02*
X152774936Y-99893052D01*
X152774936Y-99893052D02*
X152822555Y-99845433D01*
X152822555Y-99845433D02*
X152870174Y-99821623D01*
X152870174Y-99821623D02*
X152965412Y-99821623D01*
X152965412Y-99821623D02*
X153013031Y-99845433D01*
X153013031Y-99845433D02*
X153060650Y-99893052D01*
X153060650Y-99893052D02*
X153084460Y-99988290D01*
X153084460Y-99988290D02*
X153084460Y-100154956D01*
X153084460Y-100154956D02*
X153060650Y-100250194D01*
X153060650Y-100250194D02*
X153013031Y-100297814D01*
X153013031Y-100297814D02*
X152965412Y-100321623D01*
X152965412Y-100321623D02*
X152870174Y-100321623D01*
X146655889Y-100626595D02*
X146941603Y-100626595D01*
X146798746Y-101126595D02*
X146798746Y-100626595D01*
X147108269Y-100936119D02*
X147489222Y-100936119D01*
X147727317Y-100793262D02*
X148108270Y-100936119D01*
X148108270Y-100936119D02*
X147727317Y-101078976D01*
X148441603Y-100626595D02*
X148489222Y-100626595D01*
X148489222Y-100626595D02*
X148536841Y-100650405D01*
X148536841Y-100650405D02*
X148560651Y-100674214D01*
X148560651Y-100674214D02*
X148584460Y-100721833D01*
X148584460Y-100721833D02*
X148608270Y-100817071D01*
X148608270Y-100817071D02*
X148608270Y-100936119D01*
X148608270Y-100936119D02*
X148584460Y-101031357D01*
X148584460Y-101031357D02*
X148560651Y-101078976D01*
X148560651Y-101078976D02*
X148536841Y-101102786D01*
X148536841Y-101102786D02*
X148489222Y-101126595D01*
X148489222Y-101126595D02*
X148441603Y-101126595D01*
X148441603Y-101126595D02*
X148393984Y-101102786D01*
X148393984Y-101102786D02*
X148370175Y-101078976D01*
X148370175Y-101078976D02*
X148346365Y-101031357D01*
X148346365Y-101031357D02*
X148322556Y-100936119D01*
X148322556Y-100936119D02*
X148322556Y-100817071D01*
X148322556Y-100817071D02*
X148346365Y-100721833D01*
X148346365Y-100721833D02*
X148370175Y-100674214D01*
X148370175Y-100674214D02*
X148393984Y-100650405D01*
X148393984Y-100650405D02*
X148441603Y-100626595D01*
X148822555Y-101078976D02*
X148846365Y-101102786D01*
X148846365Y-101102786D02*
X148822555Y-101126595D01*
X148822555Y-101126595D02*
X148798746Y-101102786D01*
X148798746Y-101102786D02*
X148822555Y-101078976D01*
X148822555Y-101078976D02*
X148822555Y-101126595D01*
X149084460Y-101126595D02*
X149179698Y-101126595D01*
X149179698Y-101126595D02*
X149227317Y-101102786D01*
X149227317Y-101102786D02*
X149251126Y-101078976D01*
X149251126Y-101078976D02*
X149298745Y-101007547D01*
X149298745Y-101007547D02*
X149322555Y-100912309D01*
X149322555Y-100912309D02*
X149322555Y-100721833D01*
X149322555Y-100721833D02*
X149298745Y-100674214D01*
X149298745Y-100674214D02*
X149274936Y-100650405D01*
X149274936Y-100650405D02*
X149227317Y-100626595D01*
X149227317Y-100626595D02*
X149132079Y-100626595D01*
X149132079Y-100626595D02*
X149084460Y-100650405D01*
X149084460Y-100650405D02*
X149060650Y-100674214D01*
X149060650Y-100674214D02*
X149036841Y-100721833D01*
X149036841Y-100721833D02*
X149036841Y-100840881D01*
X149036841Y-100840881D02*
X149060650Y-100888500D01*
X149060650Y-100888500D02*
X149084460Y-100912309D01*
X149084460Y-100912309D02*
X149132079Y-100936119D01*
X149132079Y-100936119D02*
X149227317Y-100936119D01*
X149227317Y-100936119D02*
X149274936Y-100912309D01*
X149274936Y-100912309D02*
X149298745Y-100888500D01*
X149298745Y-100888500D02*
X149322555Y-100840881D01*
X149489221Y-100626595D02*
X149798745Y-100626595D01*
X149798745Y-100626595D02*
X149632078Y-100817071D01*
X149632078Y-100817071D02*
X149703507Y-100817071D01*
X149703507Y-100817071D02*
X149751126Y-100840881D01*
X149751126Y-100840881D02*
X149774935Y-100864690D01*
X149774935Y-100864690D02*
X149798745Y-100912309D01*
X149798745Y-100912309D02*
X149798745Y-101031357D01*
X149798745Y-101031357D02*
X149774935Y-101078976D01*
X149774935Y-101078976D02*
X149751126Y-101102786D01*
X149751126Y-101102786D02*
X149703507Y-101126595D01*
X149703507Y-101126595D02*
X149560650Y-101126595D01*
X149560650Y-101126595D02*
X149513031Y-101102786D01*
X149513031Y-101102786D02*
X149489221Y-101078976D01*
X150393982Y-100936119D02*
X150774935Y-100936119D01*
X151013030Y-100936119D02*
X151393983Y-100936119D01*
X152013030Y-101126595D02*
X152013030Y-100626595D01*
X152251125Y-101126595D02*
X152251125Y-100626595D01*
X152251125Y-100626595D02*
X152536839Y-101126595D01*
X152536839Y-101126595D02*
X152536839Y-100626595D01*
X153155887Y-100936119D02*
X153536840Y-100936119D01*
X153774935Y-100793262D02*
X154155888Y-100936119D01*
X154155888Y-100936119D02*
X153774935Y-101078976D01*
X154751126Y-100674214D02*
X154774935Y-100650405D01*
X154774935Y-100650405D02*
X154822554Y-100626595D01*
X154822554Y-100626595D02*
X154941602Y-100626595D01*
X154941602Y-100626595D02*
X154989221Y-100650405D01*
X154989221Y-100650405D02*
X155013030Y-100674214D01*
X155013030Y-100674214D02*
X155036840Y-100721833D01*
X155036840Y-100721833D02*
X155036840Y-100769452D01*
X155036840Y-100769452D02*
X155013030Y-100840881D01*
X155013030Y-100840881D02*
X154727316Y-101126595D01*
X154727316Y-101126595D02*
X155036840Y-101126595D01*
X155465411Y-100626595D02*
X155370173Y-100626595D01*
X155370173Y-100626595D02*
X155322554Y-100650405D01*
X155322554Y-100650405D02*
X155298744Y-100674214D01*
X155298744Y-100674214D02*
X155251125Y-100745643D01*
X155251125Y-100745643D02*
X155227316Y-100840881D01*
X155227316Y-100840881D02*
X155227316Y-101031357D01*
X155227316Y-101031357D02*
X155251125Y-101078976D01*
X155251125Y-101078976D02*
X155274935Y-101102786D01*
X155274935Y-101102786D02*
X155322554Y-101126595D01*
X155322554Y-101126595D02*
X155417792Y-101126595D01*
X155417792Y-101126595D02*
X155465411Y-101102786D01*
X155465411Y-101102786D02*
X155489220Y-101078976D01*
X155489220Y-101078976D02*
X155513030Y-101031357D01*
X155513030Y-101031357D02*
X155513030Y-100912309D01*
X155513030Y-100912309D02*
X155489220Y-100864690D01*
X155489220Y-100864690D02*
X155465411Y-100840881D01*
X155465411Y-100840881D02*
X155417792Y-100817071D01*
X155417792Y-100817071D02*
X155322554Y-100817071D01*
X155322554Y-100817071D02*
X155274935Y-100840881D01*
X155274935Y-100840881D02*
X155251125Y-100864690D01*
X155251125Y-100864690D02*
X155227316Y-100912309D01*
X155727315Y-101078976D02*
X155751125Y-101102786D01*
X155751125Y-101102786D02*
X155727315Y-101126595D01*
X155727315Y-101126595D02*
X155703506Y-101102786D01*
X155703506Y-101102786D02*
X155727315Y-101078976D01*
X155727315Y-101078976D02*
X155727315Y-101126595D01*
X155941601Y-100674214D02*
X155965410Y-100650405D01*
X155965410Y-100650405D02*
X156013029Y-100626595D01*
X156013029Y-100626595D02*
X156132077Y-100626595D01*
X156132077Y-100626595D02*
X156179696Y-100650405D01*
X156179696Y-100650405D02*
X156203505Y-100674214D01*
X156203505Y-100674214D02*
X156227315Y-100721833D01*
X156227315Y-100721833D02*
X156227315Y-100769452D01*
X156227315Y-100769452D02*
X156203505Y-100840881D01*
X156203505Y-100840881D02*
X155917791Y-101126595D01*
X155917791Y-101126595D02*
X156227315Y-101126595D01*
X156393981Y-100626595D02*
X156703505Y-100626595D01*
X156703505Y-100626595D02*
X156536838Y-100817071D01*
X156536838Y-100817071D02*
X156608267Y-100817071D01*
X156608267Y-100817071D02*
X156655886Y-100840881D01*
X156655886Y-100840881D02*
X156679695Y-100864690D01*
X156679695Y-100864690D02*
X156703505Y-100912309D01*
X156703505Y-100912309D02*
X156703505Y-101031357D01*
X156703505Y-101031357D02*
X156679695Y-101078976D01*
X156679695Y-101078976D02*
X156655886Y-101102786D01*
X156655886Y-101102786D02*
X156608267Y-101126595D01*
X156608267Y-101126595D02*
X156465410Y-101126595D01*
X156465410Y-101126595D02*
X156417791Y-101102786D01*
X156417791Y-101102786D02*
X156393981Y-101078976D01*
X157132076Y-100793262D02*
X157132076Y-101126595D01*
X157013028Y-100602786D02*
X156893981Y-100959928D01*
X156893981Y-100959928D02*
X157203504Y-100959928D01*
X157608266Y-100793262D02*
X157608266Y-101126595D01*
X157489218Y-100602786D02*
X157370171Y-100959928D01*
X157370171Y-100959928D02*
X157679694Y-100959928D01*
X146167481Y-99428014D02*
X160337481Y-99428014D01*
X160337481Y-113598014D01*
X146167481Y-113598014D01*
X146167481Y-99428014D01*
M02*
