%TF.GenerationSoftware,KiCad,Pcbnew,8.99.0-2767-g6be6680d8c*%
%TF.CreationDate,2024-10-27T19:28:17+01:00*%
%TF.ProjectId,SBC,5342432e-6b69-4636-9164-5f7063625858,rev?*%
%TF.SameCoordinates,Original*%
%TF.FileFunction,Glue,Top*%
%TF.FilePolarity,Positive*%
%FSLAX46Y46*%
G04 Gerber Fmt 4.6, Leading zero omitted, Abs format (unit mm)*
G04 Created by KiCad (PCBNEW 8.99.0-2767-g6be6680d8c) date 2024-10-27 19:28:17*
%MOMM*%
%LPD*%
G01*
G04 APERTURE LIST*
%ADD10C,0.100000*%
%ADD11C,0.166667*%
%ADD12C,0.233333*%
G04 APERTURE END LIST*
D10*
%TO.C,Y5*%
X70182500Y-125230400D02*
G75*
G02*
X69182500Y-125230400I-500000J0D01*
G01*
X69182500Y-125230400D02*
G75*
G02*
X70182500Y-125230400I500000J0D01*
G01*
D11*
X70099167Y-125230400D02*
G75*
G02*
X69265833Y-125230400I-416667J0D01*
G01*
X69265833Y-125230400D02*
G75*
G02*
X70099167Y-125230400I416667J0D01*
G01*
X69949167Y-125230400D02*
G75*
G02*
X69415833Y-125230400I-266667J0D01*
G01*
X69415833Y-125230400D02*
G75*
G02*
X69949167Y-125230400I266667J0D01*
G01*
D12*
X69799167Y-125230400D02*
G75*
G02*
X69565833Y-125230400I-116667J0D01*
G01*
X69565833Y-125230400D02*
G75*
G02*
X69799167Y-125230400I116667J0D01*
G01*
D10*
%TO.C,Y1*%
X95308481Y-97423014D02*
G75*
G02*
X94308481Y-97423014I-500000J0D01*
G01*
X94308481Y-97423014D02*
G75*
G02*
X95308481Y-97423014I500000J0D01*
G01*
D11*
X95225148Y-97423014D02*
G75*
G02*
X94391814Y-97423014I-416667J0D01*
G01*
X94391814Y-97423014D02*
G75*
G02*
X95225148Y-97423014I416667J0D01*
G01*
X95075148Y-97423014D02*
G75*
G02*
X94541814Y-97423014I-266667J0D01*
G01*
X94541814Y-97423014D02*
G75*
G02*
X95075148Y-97423014I266667J0D01*
G01*
D12*
X94925148Y-97423014D02*
G75*
G02*
X94691814Y-97423014I-116667J0D01*
G01*
X94691814Y-97423014D02*
G75*
G02*
X94925148Y-97423014I116667J0D01*
G01*
D10*
%TO.C,Y2*%
X101858481Y-97423014D02*
G75*
G02*
X100858481Y-97423014I-500000J0D01*
G01*
X100858481Y-97423014D02*
G75*
G02*
X101858481Y-97423014I500000J0D01*
G01*
D11*
X101775148Y-97423014D02*
G75*
G02*
X100941814Y-97423014I-416667J0D01*
G01*
X100941814Y-97423014D02*
G75*
G02*
X101775148Y-97423014I416667J0D01*
G01*
X101625148Y-97423014D02*
G75*
G02*
X101091814Y-97423014I-266667J0D01*
G01*
X101091814Y-97423014D02*
G75*
G02*
X101625148Y-97423014I266667J0D01*
G01*
D12*
X101475148Y-97423014D02*
G75*
G02*
X101241814Y-97423014I-116667J0D01*
G01*
X101241814Y-97423014D02*
G75*
G02*
X101475148Y-97423014I116667J0D01*
G01*
%TD*%
M02*
