%TF.GenerationSoftware,KiCad,Pcbnew,8.99.0-2767-g6be6680d8c*%
%TF.CreationDate,2024-10-27T19:28:17+01:00*%
%TF.ProjectId,SBC,5342432e-6b69-4636-9164-5f7063625858,rev?*%
%TF.SameCoordinates,Original*%
%TF.FileFunction,Paste,Top*%
%TF.FilePolarity,Positive*%
%FSLAX46Y46*%
G04 Gerber Fmt 4.6, Leading zero omitted, Abs format (unit mm)*
G04 Created by KiCad (PCBNEW 8.99.0-2767-g6be6680d8c) date 2024-10-27 19:28:17*
%MOMM*%
%LPD*%
G01*
G04 APERTURE LIST*
G04 Aperture macros list*
%AMRoundRect*
0 Rectangle with rounded corners*
0 $1 Rounding radius*
0 $2 $3 $4 $5 $6 $7 $8 $9 X,Y pos of 4 corners*
0 Add a 4 corners polygon primitive as box body*
4,1,4,$2,$3,$4,$5,$6,$7,$8,$9,$2,$3,0*
0 Add four circle primitives for the rounded corners*
1,1,$1+$1,$2,$3*
1,1,$1+$1,$4,$5*
1,1,$1+$1,$6,$7*
1,1,$1+$1,$8,$9*
0 Add four rect primitives between the rounded corners*
20,1,$1+$1,$2,$3,$4,$5,0*
20,1,$1+$1,$4,$5,$6,$7,0*
20,1,$1+$1,$6,$7,$8,$9,0*
20,1,$1+$1,$8,$9,$2,$3,0*%
%AMFreePoly0*
4,1,25,0.317682,0.485319,0.329034,0.475624,0.407847,0.396811,0.434540,0.344422,0.435711,0.329540,0.435711,-0.329540,0.417542,-0.385459,0.407847,-0.396811,0.329034,-0.475624,0.276645,-0.502317,0.261763,-0.503488,-0.261763,-0.503488,-0.317682,-0.485319,-0.329034,-0.475624,-0.407847,-0.396811,-0.434540,-0.344422,-0.435711,-0.329540,-0.435711,0.329540,-0.417542,0.385459,-0.407847,0.396811,
-0.329034,0.475624,-0.276645,0.502317,-0.261763,0.503488,0.261763,0.503488,0.317682,0.485319,0.317682,0.485319,$1*%
G04 Aperture macros list end*
%ADD10C,1.550000*%
%ADD11RoundRect,0.218750X0.256250X-0.218750X0.256250X0.218750X-0.256250X0.218750X-0.256250X-0.218750X0*%
%ADD12RoundRect,0.135000X0.135000X0.185000X-0.135000X0.185000X-0.135000X-0.185000X0.135000X-0.185000X0*%
%ADD13RoundRect,0.135000X0.185000X-0.135000X0.185000X0.135000X-0.185000X0.135000X-0.185000X-0.135000X0*%
%ADD14RoundRect,0.250000X0.435000X0.555000X-0.435000X0.555000X-0.435000X-0.555000X0.435000X-0.555000X0*%
%ADD15RoundRect,0.125000X0.262500X0.125000X-0.262500X0.125000X-0.262500X-0.125000X0.262500X-0.125000X0*%
%ADD16RoundRect,0.150000X0.512500X0.150000X-0.512500X0.150000X-0.512500X-0.150000X0.512500X-0.150000X0*%
%ADD17RoundRect,0.140000X-0.170000X0.140000X-0.170000X-0.140000X0.170000X-0.140000X0.170000X0.140000X0*%
%ADD18RoundRect,0.140000X0.140000X0.170000X-0.140000X0.170000X-0.140000X-0.170000X0.140000X-0.170000X0*%
%ADD19RoundRect,0.135000X-0.185000X0.135000X-0.185000X-0.135000X0.185000X-0.135000X0.185000X0.135000X0*%
%ADD20RoundRect,0.135000X-0.135000X-0.185000X0.135000X-0.185000X0.135000X0.185000X-0.135000X0.185000X0*%
%ADD21R,0.250000X0.700000*%
%ADD22R,0.900000X0.250000*%
%ADD23R,0.400000X1.250000*%
%ADD24R,0.250000X0.400000*%
%ADD25RoundRect,0.079500X-0.100500X0.079500X-0.100500X-0.079500X0.100500X-0.079500X0.100500X0.079500X0*%
%ADD26RoundRect,0.079500X0.079500X0.100500X-0.079500X0.100500X-0.079500X-0.100500X0.079500X-0.100500X0*%
%ADD27RoundRect,0.140000X0.170000X-0.140000X0.170000X0.140000X-0.170000X0.140000X-0.170000X-0.140000X0*%
%ADD28RoundRect,0.250000X0.285000X-0.285000X0.285000X0.285000X-0.285000X0.285000X-0.285000X-0.285000X0*%
%ADD29RoundRect,0.062500X0.062500X-0.337500X0.062500X0.337500X-0.062500X0.337500X-0.062500X-0.337500X0*%
%ADD30RoundRect,0.062500X0.337500X-0.062500X0.337500X0.062500X-0.337500X0.062500X-0.337500X-0.062500X0*%
%ADD31R,2.000000X1.100000*%
%ADD32RoundRect,0.140000X-0.140000X-0.170000X0.140000X-0.170000X0.140000X0.170000X-0.140000X0.170000X0*%
%ADD33RoundRect,0.062500X-0.375000X-0.062500X0.375000X-0.062500X0.375000X0.062500X-0.375000X0.062500X0*%
%ADD34RoundRect,0.062500X-0.062500X-0.375000X0.062500X-0.375000X0.062500X0.375000X-0.062500X0.375000X0*%
%ADD35RoundRect,0.106599X0.418401X0.723401X-0.418401X0.723401X-0.418401X-0.723401X0.418401X-0.723401X0*%
%ADD36RoundRect,0.106599X0.418401X0.633401X-0.418401X0.633401X-0.418401X-0.633401X0.418401X-0.633401X0*%
%ADD37RoundRect,0.200000X0.785000X-1.540000X0.785000X1.540000X-0.785000X1.540000X-0.785000X-1.540000X0*%
%ADD38RoundRect,0.079500X-0.079500X-0.100500X0.079500X-0.100500X0.079500X0.100500X-0.079500X0.100500X0*%
%ADD39C,0.270000*%
%ADD40RoundRect,0.079500X0.100500X-0.079500X0.100500X0.079500X-0.100500X0.079500X-0.100500X-0.079500X0*%
%ADD41R,1.000000X1.000000*%
%ADD42R,1.000000X2.130000*%
%ADD43R,1.000000X3.800000*%
%ADD44R,1.650000X1.000000*%
%ADD45R,3.800000X1.000000*%
%ADD46RoundRect,0.225000X-0.225000X-0.250000X0.225000X-0.250000X0.225000X0.250000X-0.225000X0.250000X0*%
%ADD47RoundRect,0.250000X-0.650000X0.325000X-0.650000X-0.325000X0.650000X-0.325000X0.650000X0.325000X0*%
%ADD48RoundRect,0.218750X0.218750X0.256250X-0.218750X0.256250X-0.218750X-0.256250X0.218750X-0.256250X0*%
%ADD49R,1.100000X2.000000*%
%ADD50RoundRect,0.250000X-0.255000X0.255000X-0.255000X-0.255000X0.255000X-0.255000X0.255000X0.255000X0*%
%ADD51RoundRect,0.062500X-0.062500X0.375000X-0.062500X-0.375000X0.062500X-0.375000X0.062500X0.375000X0*%
%ADD52RoundRect,0.062500X-0.375000X0.062500X-0.375000X-0.062500X0.375000X-0.062500X0.375000X0.062500X0*%
%ADD53RoundRect,0.225000X0.225000X0.250000X-0.225000X0.250000X-0.225000X-0.250000X0.225000X-0.250000X0*%
%ADD54RoundRect,0.250000X1.500000X0.550000X-1.500000X0.550000X-1.500000X-0.550000X1.500000X-0.550000X0*%
%ADD55RoundRect,0.112500X0.237500X-0.112500X0.237500X0.112500X-0.237500X0.112500X-0.237500X-0.112500X0*%
%ADD56RoundRect,0.218750X-0.218750X-0.256250X0.218750X-0.256250X0.218750X0.256250X-0.218750X0.256250X0*%
%ADD57O,0.200000X0.350000*%
%ADD58O,0.350000X0.200000*%
%ADD59C,0.350000*%
%ADD60RoundRect,0.112500X-0.237500X0.112500X-0.237500X-0.112500X0.237500X-0.112500X0.237500X0.112500X0*%
%ADD61RoundRect,0.225000X0.250000X-0.225000X0.250000X0.225000X-0.250000X0.225000X-0.250000X-0.225000X0*%
%ADD62R,0.450000X1.450000*%
%ADD63RoundRect,0.076200X1.066800X0.685800X-1.066800X0.685800X-1.066800X-0.685800X1.066800X-0.685800X0*%
%ADD64RoundRect,0.079500X-0.127279X-0.014849X-0.014849X-0.127279X0.127279X0.014849X0.014849X0.127279X0*%
%ADD65RoundRect,0.173913X-0.226087X-0.726087X0.226087X-0.726087X0.226087X0.726087X-0.226087X0.726087X0*%
%ADD66RoundRect,0.025000X-0.225000X-0.975000X0.225000X-0.975000X0.225000X0.975000X-0.225000X0.975000X0*%
%ADD67RoundRect,0.112500X0.112500X-0.187500X0.112500X0.187500X-0.112500X0.187500X-0.112500X-0.187500X0*%
%ADD68R,4.950000X3.175000*%
%ADD69C,0.330200*%
%ADD70FreePoly0,0.000000*%
%ADD71RoundRect,0.067500X-0.357500X-0.067500X0.357500X-0.067500X0.357500X0.067500X-0.357500X0.067500X0*%
%ADD72RoundRect,0.067500X-0.067500X0.357500X-0.067500X-0.357500X0.067500X-0.357500X0.067500X0.357500X0*%
%ADD73RoundRect,0.250000X0.262500X0.450000X-0.262500X0.450000X-0.262500X-0.450000X0.262500X-0.450000X0*%
%ADD74R,0.405000X0.990000*%
%ADD75R,2.235000X1.725000*%
%ADD76R,0.406250X0.760000*%
%ADD77R,1.900000X2.400000*%
%ADD78RoundRect,0.250000X0.275000X0.275000X-0.275000X0.275000X-0.275000X-0.275000X0.275000X-0.275000X0*%
%ADD79RoundRect,0.050000X0.362500X0.050000X-0.362500X0.050000X-0.362500X-0.050000X0.362500X-0.050000X0*%
%ADD80RoundRect,0.050000X0.050000X0.362500X-0.050000X0.362500X-0.050000X-0.362500X0.050000X-0.362500X0*%
%ADD81RoundRect,0.218750X-0.256250X0.218750X-0.256250X-0.218750X0.256250X-0.218750X0.256250X0.218750X0*%
%ADD82R,2.650000X0.760000*%
%ADD83RoundRect,0.112500X-0.112500X-0.237500X0.112500X-0.237500X0.112500X0.237500X-0.112500X0.237500X0*%
%ADD84RoundRect,0.250000X-0.375000X-0.850000X0.375000X-0.850000X0.375000X0.850000X-0.375000X0.850000X0*%
%ADD85RoundRect,0.175000X-0.325000X0.175000X-0.325000X-0.175000X0.325000X-0.175000X0.325000X0.175000X0*%
%ADD86RoundRect,0.150000X-0.150000X0.200000X-0.150000X-0.200000X0.150000X-0.200000X0.150000X0.200000X0*%
%ADD87RoundRect,0.112500X0.112500X0.237500X-0.112500X0.237500X-0.112500X-0.237500X0.112500X-0.237500X0*%
%ADD88R,1.800000X1.200000*%
%ADD89RoundRect,0.250000X0.275000X0.250000X-0.275000X0.250000X-0.275000X-0.250000X0.275000X-0.250000X0*%
%ADD90RoundRect,0.250000X0.850000X0.275000X-0.850000X0.275000X-0.850000X-0.275000X0.850000X-0.275000X0*%
%ADD91RoundRect,0.225000X-0.250000X0.225000X-0.250000X-0.225000X0.250000X-0.225000X0.250000X0.225000X0*%
%ADD92RoundRect,0.150000X0.150000X-0.512500X0.150000X0.512500X-0.150000X0.512500X-0.150000X-0.512500X0*%
%ADD93RoundRect,0.150000X-0.512500X-0.150000X0.512500X-0.150000X0.512500X0.150000X-0.512500X0.150000X0*%
%ADD94RoundRect,0.150000X0.150000X-0.587500X0.150000X0.587500X-0.150000X0.587500X-0.150000X-0.587500X0*%
G04 APERTURE END LIST*
D10*
X138340481Y-128545014D02*
G75*
G02*
X136790481Y-128545014I-775000J0D01*
G01*
X136790481Y-128545014D02*
G75*
G02*
X138340481Y-128545014I775000J0D01*
G01*
X138340481Y-81545014D02*
G75*
G02*
X136790481Y-81545014I-775000J0D01*
G01*
X136790481Y-81545014D02*
G75*
G02*
X138340481Y-81545014I775000J0D01*
G01*
X62340481Y-81545014D02*
G75*
G02*
X60790481Y-81545014I-775000J0D01*
G01*
X60790481Y-81545014D02*
G75*
G02*
X62340481Y-81545014I775000J0D01*
G01*
X62340481Y-128545014D02*
G75*
G02*
X60790481Y-128545014I-775000J0D01*
G01*
X60790481Y-128545014D02*
G75*
G02*
X62340481Y-128545014I775000J0D01*
G01*
D11*
%TO.C,D4*%
X104809481Y-89762514D03*
X104809481Y-88187514D03*
%TD*%
D12*
%TO.C,R85*%
X96565081Y-93818814D03*
X95545081Y-93818814D03*
%TD*%
D13*
%TO.C,R108*%
X62148081Y-122014814D03*
X62148081Y-120994814D03*
%TD*%
D14*
%TO.C,U14*%
X75802681Y-98174314D03*
X75802681Y-96174314D03*
X74102681Y-98174314D03*
X74102681Y-96174314D03*
D15*
X78702681Y-99079314D03*
X78702681Y-97809314D03*
X78702681Y-96539314D03*
X78702681Y-95269314D03*
X71202681Y-95269314D03*
X71202681Y-96539314D03*
X71202681Y-97809314D03*
X71202681Y-99079314D03*
%TD*%
D16*
%TO.C,U10*%
X108486981Y-98951014D03*
X108486981Y-98001014D03*
X108486981Y-97051014D03*
X106211981Y-97051014D03*
X106211981Y-98951014D03*
%TD*%
D12*
%TO.C,R78*%
X113925481Y-121995014D03*
X112905481Y-121995014D03*
%TD*%
D17*
%TO.C,C17*%
X122343462Y-109070028D03*
X122343462Y-110030028D03*
%TD*%
D18*
%TO.C,C61*%
X124120000Y-93030400D03*
X123160000Y-93030400D03*
%TD*%
D13*
%TO.C,R3*%
X122318462Y-105355028D03*
X122318462Y-104335028D03*
%TD*%
D17*
%TO.C,C328*%
X65882500Y-123650400D03*
X65882500Y-124610400D03*
%TD*%
D19*
%TO.C,R32*%
X106206481Y-91256014D03*
X106206481Y-92276014D03*
%TD*%
D20*
%TO.C,R87*%
X71517481Y-101818014D03*
X72537481Y-101818014D03*
%TD*%
D18*
%TO.C,C55*%
X118023462Y-92112527D03*
X117063462Y-92112527D03*
%TD*%
D17*
%TO.C,C318*%
X63920000Y-122712900D03*
X63920000Y-123672900D03*
%TD*%
%TO.C,C35*%
X129243462Y-97877528D03*
X129243462Y-98837528D03*
%TD*%
D11*
%TO.C,D5*%
X135314881Y-100151114D03*
X135314881Y-98576114D03*
%TD*%
D21*
%TO.C,U5*%
X87552481Y-86170014D03*
X88052481Y-86170014D03*
X88552481Y-86170014D03*
D22*
X89402481Y-85720014D03*
X89402481Y-85220014D03*
X89402481Y-84720014D03*
D21*
X88552481Y-84270014D03*
X88052481Y-84270014D03*
X87552481Y-84270014D03*
D22*
X86702481Y-85720014D03*
X86702481Y-85220014D03*
D23*
X86952481Y-85220014D03*
D22*
X86702481Y-84720014D03*
D24*
X88052481Y-85220014D03*
%TD*%
D25*
%TO.C,R42*%
X99714681Y-125935014D03*
X99714681Y-126625014D03*
%TD*%
D26*
%TO.C,R110*%
X67127500Y-122730400D03*
X66437500Y-122730400D03*
%TD*%
D20*
%TO.C,R24*%
X83217481Y-81818014D03*
X84237481Y-81818014D03*
%TD*%
D13*
%TO.C,R91*%
X65240000Y-95060000D03*
X65240000Y-94040000D03*
%TD*%
D27*
%TO.C,C64*%
X111093000Y-84608000D03*
X111093000Y-83648000D03*
%TD*%
D25*
%TO.C,R102*%
X65627881Y-111177614D03*
X65627881Y-111867614D03*
%TD*%
D13*
%TO.C,R10*%
X129458462Y-81970028D03*
X129458462Y-80950028D03*
%TD*%
D25*
%TO.C,C66*%
X81227481Y-83660514D03*
X81227481Y-84350514D03*
%TD*%
D17*
%TO.C,C40*%
X130193462Y-97877528D03*
X130193462Y-98837528D03*
%TD*%
D28*
%TO.C,U19*%
X70247481Y-87148014D03*
X71567481Y-87148014D03*
X72887481Y-87148014D03*
X74207481Y-87148014D03*
X70247481Y-85828014D03*
X71567481Y-85828014D03*
X72887481Y-85828014D03*
X74207481Y-85828014D03*
X70247481Y-84508014D03*
X71567481Y-84508014D03*
X72887481Y-84508014D03*
X74207481Y-84508014D03*
X70247481Y-83188014D03*
X71567481Y-83188014D03*
X72887481Y-83188014D03*
X74207481Y-83188014D03*
D29*
X69477481Y-88618014D03*
X69977481Y-88618014D03*
X70477481Y-88618014D03*
X70977481Y-88618014D03*
X71477481Y-88618014D03*
X71977481Y-88618014D03*
X72477481Y-88618014D03*
X72977481Y-88618014D03*
X73477481Y-88618014D03*
X73977481Y-88618014D03*
X74477481Y-88618014D03*
X74977481Y-88618014D03*
D30*
X75677481Y-87918014D03*
X75677481Y-87418014D03*
X75677481Y-86918014D03*
X75677481Y-86418014D03*
X75677481Y-85918014D03*
X75677481Y-85418014D03*
X75677481Y-84918014D03*
X75677481Y-84418014D03*
X75677481Y-83918014D03*
X75677481Y-83418014D03*
X75677481Y-82918014D03*
X75677481Y-82418014D03*
D29*
X74977481Y-81718014D03*
X74477481Y-81718014D03*
X73977481Y-81718014D03*
X73477481Y-81718014D03*
X72977481Y-81718014D03*
X72477481Y-81718014D03*
X71977481Y-81718014D03*
X71477481Y-81718014D03*
X70977481Y-81718014D03*
X70477481Y-81718014D03*
X69977481Y-81718014D03*
X69477481Y-81718014D03*
D30*
X68777481Y-82418014D03*
X68777481Y-82918014D03*
X68777481Y-83418014D03*
X68777481Y-83918014D03*
X68777481Y-84418014D03*
X68777481Y-84918014D03*
X68777481Y-85418014D03*
X68777481Y-85918014D03*
X68777481Y-86418014D03*
X68777481Y-86918014D03*
X68777481Y-87418014D03*
X68777481Y-87918014D03*
%TD*%
D17*
%TO.C,C39*%
X137780000Y-89230400D03*
X137780000Y-90190400D03*
%TD*%
%TO.C,C60*%
X130755962Y-93090028D03*
X130755962Y-94050028D03*
%TD*%
D31*
%TO.C,L5*%
X126593462Y-94325028D03*
X126593462Y-96225028D03*
%TD*%
D32*
%TO.C,C63*%
X133505962Y-85270028D03*
X134465962Y-85270028D03*
%TD*%
D33*
%TO.C,U2*%
X123655962Y-105270028D03*
X123655962Y-105770028D03*
X123655962Y-106270028D03*
X123655962Y-106770028D03*
X123655962Y-107270028D03*
X123655962Y-107770028D03*
X123655962Y-108270028D03*
X123655962Y-108770028D03*
D34*
X124343462Y-109457528D03*
X124843462Y-109457528D03*
X125343462Y-109457528D03*
X125843462Y-109457528D03*
X126343462Y-109457528D03*
X126843462Y-109457528D03*
X127343462Y-109457528D03*
X127843462Y-109457528D03*
D33*
X128530962Y-108770028D03*
X128530962Y-108270028D03*
X128530962Y-107770028D03*
X128530962Y-107270028D03*
X128530962Y-106770028D03*
X128530962Y-106270028D03*
X128530962Y-105770028D03*
X128530962Y-105270028D03*
D34*
X127843462Y-104582528D03*
X127343462Y-104582528D03*
X126843462Y-104582528D03*
X126343462Y-104582528D03*
X125843462Y-104582528D03*
X125343462Y-104582528D03*
X124843462Y-104582528D03*
X124343462Y-104582528D03*
D35*
X124878462Y-106110028D03*
D36*
X124878462Y-108020028D03*
D37*
X126848462Y-107020028D03*
%TD*%
D25*
%TO.C,C98*%
X81940400Y-118120600D03*
X81940400Y-118810600D03*
%TD*%
D38*
%TO.C,C75*%
X90501481Y-88268014D03*
X91191481Y-88268014D03*
%TD*%
D17*
%TO.C,C1*%
X121365481Y-109065014D03*
X121365481Y-110025014D03*
%TD*%
D13*
%TO.C,R1*%
X122318462Y-107280028D03*
X122318462Y-106260028D03*
%TD*%
D39*
%TO.C,U12*%
X108195000Y-104005400D03*
X108995000Y-104005400D03*
X109795000Y-104005400D03*
X110595000Y-104005400D03*
X111395000Y-104005400D03*
X113795000Y-104005400D03*
X114595000Y-104005400D03*
X115395000Y-104005400D03*
X116195000Y-104005400D03*
X116995000Y-104005400D03*
X108195000Y-117005400D03*
X108995000Y-117005400D03*
X109795000Y-117005400D03*
X110595000Y-117005400D03*
X111395000Y-117005400D03*
X113795000Y-117005400D03*
X114595000Y-117005400D03*
X115395000Y-117005400D03*
X116195000Y-117005400D03*
X116995000Y-117005400D03*
X108195000Y-117655400D03*
X108995000Y-117655400D03*
X109795000Y-117655400D03*
X110595000Y-117655400D03*
X111395000Y-117655400D03*
X113795000Y-117655400D03*
X114595000Y-117655400D03*
X115395000Y-117655400D03*
X116195000Y-117655400D03*
X116995000Y-117655400D03*
X108195000Y-104655400D03*
X108995000Y-104655400D03*
X109795000Y-104655400D03*
X110595000Y-104655400D03*
X111395000Y-104655400D03*
X113795000Y-104655400D03*
X114595000Y-104655400D03*
X115395000Y-104655400D03*
X116195000Y-104655400D03*
X116995000Y-104655400D03*
X108195000Y-105305400D03*
X108995000Y-105305400D03*
X109795000Y-105305400D03*
X110595000Y-105305400D03*
X111395000Y-105305400D03*
X113795000Y-105305400D03*
X114595000Y-105305400D03*
X115395000Y-105305400D03*
X116195000Y-105305400D03*
X116995000Y-105305400D03*
X108195000Y-105955400D03*
X108995000Y-105955400D03*
X109795000Y-105955400D03*
X110595000Y-105955400D03*
X111395000Y-105955400D03*
X113795000Y-105955400D03*
X114595000Y-105955400D03*
X115395000Y-105955400D03*
X116195000Y-105955400D03*
X116995000Y-105955400D03*
X108195000Y-106605400D03*
X108995000Y-106605400D03*
X109795000Y-106605400D03*
X110595000Y-106605400D03*
X111395000Y-106605400D03*
X113795000Y-106605400D03*
X114595000Y-106605400D03*
X115395000Y-106605400D03*
X116195000Y-106605400D03*
X116995000Y-106605400D03*
X108195000Y-107255400D03*
X108995000Y-107255400D03*
X109795000Y-107255400D03*
X110595000Y-107255400D03*
X111395000Y-107255400D03*
X113795000Y-107255400D03*
X114595000Y-107255400D03*
X115395000Y-107255400D03*
X116195000Y-107255400D03*
X116995000Y-107255400D03*
X108195000Y-107905400D03*
X108995000Y-107905400D03*
X109795000Y-107905400D03*
X110595000Y-107905400D03*
X111395000Y-107905400D03*
X113795000Y-107905400D03*
X114595000Y-107905400D03*
X115395000Y-107905400D03*
X116195000Y-107905400D03*
X116995000Y-107905400D03*
X108195000Y-108555400D03*
X108995000Y-108555400D03*
X109795000Y-108555400D03*
X110595000Y-108555400D03*
X111395000Y-108555400D03*
X113795000Y-108555400D03*
X114595000Y-108555400D03*
X115395000Y-108555400D03*
X116195000Y-108555400D03*
X116995000Y-108555400D03*
X108195000Y-109205400D03*
X108995000Y-109205400D03*
X109795000Y-109205400D03*
X110595000Y-109205400D03*
X111395000Y-109205400D03*
X113795000Y-109205400D03*
X114595000Y-109205400D03*
X115395000Y-109205400D03*
X116195000Y-109205400D03*
X116995000Y-109205400D03*
X108195000Y-109855400D03*
X108995000Y-109855400D03*
X109795000Y-109855400D03*
X110595000Y-109855400D03*
X111395000Y-109855400D03*
X113795000Y-109855400D03*
X114595000Y-109855400D03*
X115395000Y-109855400D03*
X116195000Y-109855400D03*
X116995000Y-109855400D03*
X108195000Y-111805400D03*
X108995000Y-111805400D03*
X109795000Y-111805400D03*
X110595000Y-111805400D03*
X111395000Y-111805400D03*
X113795000Y-111805400D03*
X114595000Y-111805400D03*
X115395000Y-111805400D03*
X116195000Y-111805400D03*
X116995000Y-111805400D03*
X108195000Y-112455400D03*
X108995000Y-112455400D03*
X109795000Y-112455400D03*
X110595000Y-112455400D03*
X111395000Y-112455400D03*
X113795000Y-112455400D03*
X114595000Y-112455400D03*
X115395000Y-112455400D03*
X116195000Y-112455400D03*
X116995000Y-112455400D03*
X108195000Y-113105400D03*
X108995000Y-113105400D03*
X109795000Y-113105400D03*
X110595000Y-113105400D03*
X111395000Y-113105400D03*
X113795000Y-113105400D03*
X114595000Y-113105400D03*
X115395000Y-113105400D03*
X116195000Y-113105400D03*
X116995000Y-113105400D03*
X108195000Y-113755400D03*
X108995000Y-113755400D03*
X109795000Y-113755400D03*
X110595000Y-113755400D03*
X111395000Y-113755400D03*
X113795000Y-113755400D03*
X114595000Y-113755400D03*
X115395000Y-113755400D03*
X116195000Y-113755400D03*
X116995000Y-113755400D03*
X108195000Y-114405400D03*
X108995000Y-114405400D03*
X109795000Y-114405400D03*
X110595000Y-114405400D03*
X111395000Y-114405400D03*
X113795000Y-114405400D03*
X114595000Y-114405400D03*
X115395000Y-114405400D03*
X116195000Y-114405400D03*
X116995000Y-114405400D03*
X108195000Y-115055400D03*
X108995000Y-115055400D03*
X109795000Y-115055400D03*
X110595000Y-115055400D03*
X111395000Y-115055400D03*
X113795000Y-115055400D03*
X114595000Y-115055400D03*
X115395000Y-115055400D03*
X116195000Y-115055400D03*
X116995000Y-115055400D03*
X108195000Y-115705400D03*
X108995000Y-115705400D03*
X109795000Y-115705400D03*
X110595000Y-115705400D03*
X111395000Y-115705400D03*
X113795000Y-115705400D03*
X114595000Y-115705400D03*
X115395000Y-115705400D03*
X116195000Y-115705400D03*
X116995000Y-115705400D03*
X108195000Y-116355400D03*
X108995000Y-116355400D03*
X109795000Y-116355400D03*
X110595000Y-116355400D03*
X111395000Y-116355400D03*
X113795000Y-116355400D03*
X114595000Y-116355400D03*
X115395000Y-116355400D03*
X116195000Y-116355400D03*
X116995000Y-116355400D03*
%TD*%
D40*
%TO.C,C314*%
X64262481Y-88724014D03*
X64262481Y-88034014D03*
%TD*%
D41*
%TO.C,J4*%
X65444481Y-79175014D03*
D42*
X65444481Y-80740014D03*
D43*
X65444481Y-85905014D03*
D42*
X65444481Y-91070014D03*
D41*
X65444481Y-92635014D03*
D44*
X66769481Y-79175014D03*
X66769481Y-92635014D03*
D45*
X71694481Y-79175014D03*
X71694481Y-92635014D03*
D44*
X76619481Y-79175014D03*
X76619481Y-92635014D03*
D41*
X77944481Y-79175014D03*
D42*
X77944481Y-80740014D03*
D43*
X77944481Y-85905014D03*
D42*
X77944481Y-91070014D03*
D41*
X77944481Y-92635014D03*
%TD*%
D18*
%TO.C,C317*%
X67657481Y-85418014D03*
X66697481Y-85418014D03*
%TD*%
D46*
%TO.C,C76*%
X90833481Y-90935014D03*
X92383481Y-90935014D03*
%TD*%
D12*
%TO.C,R18*%
X111003000Y-82728000D03*
X109983000Y-82728000D03*
%TD*%
D19*
%TO.C,R15*%
X124143462Y-80935028D03*
X124143462Y-81955028D03*
%TD*%
D25*
%TO.C,C100*%
X83566000Y-118120600D03*
X83566000Y-118810600D03*
%TD*%
D47*
%TO.C,C47*%
X130443462Y-116370028D03*
X130443462Y-119320028D03*
%TD*%
D12*
%TO.C,R68*%
X111503000Y-101924200D03*
X110483000Y-101924200D03*
%TD*%
D48*
%TO.C,D8*%
X99892581Y-94301414D03*
X98317581Y-94301414D03*
%TD*%
D19*
%TO.C,R7*%
X124875481Y-101910614D03*
X124875481Y-102930614D03*
%TD*%
D49*
%TO.C,L1*%
X121568462Y-87525028D03*
X119668462Y-87525028D03*
%TD*%
D40*
%TO.C,R49*%
X102762681Y-126625014D03*
X102762681Y-125935014D03*
%TD*%
D38*
%TO.C,C108*%
X96157481Y-125029214D03*
X96847481Y-125029214D03*
%TD*%
D50*
%TO.C,U15*%
X88950481Y-96130214D03*
X87700481Y-96130214D03*
X88950481Y-97380214D03*
X87700481Y-97380214D03*
D51*
X89575481Y-94817714D03*
X89075481Y-94817714D03*
X88575481Y-94817714D03*
X88075481Y-94817714D03*
X87575481Y-94817714D03*
X87075481Y-94817714D03*
D52*
X86387981Y-95505214D03*
X86387981Y-96005214D03*
X86387981Y-96505214D03*
X86387981Y-97005214D03*
X86387981Y-97505214D03*
X86387981Y-98005214D03*
D51*
X87075481Y-98692714D03*
X87575481Y-98692714D03*
X88075481Y-98692714D03*
X88575481Y-98692714D03*
X89075481Y-98692714D03*
X89575481Y-98692714D03*
D52*
X90262981Y-98005214D03*
X90262981Y-97505214D03*
X90262981Y-97005214D03*
X90262981Y-96505214D03*
X90262981Y-96005214D03*
X90262981Y-95505214D03*
%TD*%
D12*
%TO.C,R90*%
X80800881Y-89474314D03*
X79780881Y-89474314D03*
%TD*%
D53*
%TO.C,C288*%
X134115481Y-81545014D03*
X132565481Y-81545014D03*
%TD*%
D38*
%TO.C,C87*%
X95828286Y-82964214D03*
X96518286Y-82964214D03*
%TD*%
D25*
%TO.C,C150*%
X104916581Y-97026014D03*
X104916581Y-97716014D03*
%TD*%
D19*
%TO.C,R60*%
X114865481Y-90535014D03*
X114865481Y-91555014D03*
%TD*%
D18*
%TO.C,C50*%
X118023462Y-90175861D03*
X117063462Y-90175861D03*
%TD*%
D13*
%TO.C,R11*%
X123193462Y-81955028D03*
X123193462Y-80935028D03*
%TD*%
D54*
%TO.C,C20*%
X127293462Y-121170028D03*
X121893462Y-121170028D03*
%TD*%
D40*
%TO.C,R52*%
X104286681Y-126625014D03*
X104286681Y-125935014D03*
%TD*%
D46*
%TO.C,C86*%
X100412286Y-90584214D03*
X101962286Y-90584214D03*
%TD*%
D49*
%TO.C,L4*%
X134818462Y-87125028D03*
X136718462Y-87125028D03*
%TD*%
D18*
%TO.C,C45*%
X118023462Y-89207528D03*
X117063462Y-89207528D03*
%TD*%
D46*
%TO.C,C74*%
X82094481Y-88033514D03*
X83644481Y-88033514D03*
%TD*%
D48*
%TO.C,D7*%
X99892581Y-92802814D03*
X98317581Y-92802814D03*
%TD*%
D25*
%TO.C,R104*%
X67380481Y-111152214D03*
X67380481Y-111842214D03*
%TD*%
D55*
%TO.C,Q3*%
X105030562Y-82347095D03*
X105030562Y-81047095D03*
X103030562Y-81697095D03*
%TD*%
D17*
%TO.C,C54*%
X131705962Y-93090028D03*
X131705962Y-94050028D03*
%TD*%
D18*
%TO.C,C316*%
X67657481Y-87018014D03*
X66697481Y-87018014D03*
%TD*%
D17*
%TO.C,C26*%
X128318462Y-80965028D03*
X128318462Y-81925028D03*
%TD*%
D40*
%TO.C,R47*%
X100527481Y-126625014D03*
X100527481Y-125935014D03*
%TD*%
D56*
%TO.C,FB8*%
X62632500Y-108992900D03*
X64207500Y-108992900D03*
%TD*%
D12*
%TO.C,R26*%
X91991481Y-86871014D03*
X90971481Y-86871014D03*
%TD*%
D38*
%TO.C,C163*%
X102718481Y-99963014D03*
X103408481Y-99963014D03*
%TD*%
D27*
%TO.C,C65*%
X65470000Y-107258462D03*
X65470000Y-106298462D03*
%TD*%
D20*
%TO.C,R80*%
X115934681Y-94563014D03*
X116954681Y-94563014D03*
%TD*%
D49*
%TO.C,L2*%
X121568462Y-89925028D03*
X119668462Y-89925028D03*
%TD*%
D46*
%TO.C,C77*%
X86515481Y-82045014D03*
X88065481Y-82045014D03*
%TD*%
D57*
%TO.C,U13*%
X75600000Y-106625000D03*
X76100000Y-106625000D03*
X76600000Y-106625000D03*
X77100000Y-106625000D03*
X77600000Y-106625000D03*
X78100000Y-106625000D03*
X78600000Y-106625000D03*
X79100000Y-106625000D03*
X79600000Y-106625000D03*
X80100000Y-106625000D03*
X80600000Y-106625000D03*
X81100000Y-106625000D03*
X81600000Y-106625000D03*
X82100000Y-106625000D03*
D58*
X75600000Y-107125000D03*
D59*
X76100000Y-107125000D03*
X76600000Y-107125000D03*
X77100000Y-107125000D03*
X77600000Y-107125000D03*
X78100000Y-107125000D03*
X78600000Y-107125000D03*
X79100000Y-107125000D03*
X79600000Y-107125000D03*
X80100000Y-107125000D03*
X80600000Y-107125000D03*
X81100000Y-107125000D03*
X81600000Y-107125000D03*
D58*
X82100000Y-107125000D03*
X75600000Y-107625000D03*
D59*
X76100000Y-107625000D03*
X76600000Y-107625000D03*
X77100000Y-107625000D03*
X77600000Y-107625000D03*
X78100000Y-107625000D03*
X78600000Y-107625000D03*
X79100000Y-107625000D03*
X79600000Y-107625000D03*
X80100000Y-107625000D03*
X80600000Y-107625000D03*
X81100000Y-107625000D03*
X81600000Y-107625000D03*
D58*
X82100000Y-107625000D03*
X75600000Y-108125000D03*
D59*
X76100000Y-108125000D03*
X76600000Y-108125000D03*
X77100000Y-108125000D03*
X81100000Y-108125000D03*
X81600000Y-108125000D03*
D58*
X82100000Y-108125000D03*
X75600000Y-108625000D03*
D59*
X76100000Y-108625000D03*
X76600000Y-108625000D03*
X77600000Y-108625000D03*
X78100000Y-108625000D03*
X78600000Y-108625000D03*
X79100000Y-108625000D03*
X79600000Y-108625000D03*
X80100000Y-108625000D03*
X81100000Y-108625000D03*
X81600000Y-108625000D03*
D58*
X82100000Y-108625000D03*
X75600000Y-109125000D03*
D59*
X76100000Y-109125000D03*
X76600000Y-109125000D03*
X77600000Y-109125000D03*
X80100000Y-109125000D03*
X81100000Y-109125000D03*
X81600000Y-109125000D03*
D58*
X82100000Y-109125000D03*
X75600000Y-109625000D03*
D59*
X76100000Y-109625000D03*
X76600000Y-109625000D03*
X77600000Y-109625000D03*
X80100000Y-109625000D03*
X81100000Y-109625000D03*
X81600000Y-109625000D03*
D58*
X82100000Y-109625000D03*
X75600000Y-110125000D03*
D59*
X76100000Y-110125000D03*
X76600000Y-110125000D03*
X77600000Y-110125000D03*
X80100000Y-110125000D03*
X81100000Y-110125000D03*
X81600000Y-110125000D03*
D58*
X82100000Y-110125000D03*
X75600000Y-110625000D03*
D59*
X76100000Y-110625000D03*
X76600000Y-110625000D03*
X77600000Y-110625000D03*
X80100000Y-110625000D03*
X81100000Y-110625000D03*
X81600000Y-110625000D03*
D58*
X82100000Y-110625000D03*
X75600000Y-111125000D03*
D59*
X76100000Y-111125000D03*
X76600000Y-111125000D03*
X77600000Y-111125000D03*
X78100000Y-111125000D03*
X78600000Y-111125000D03*
X79100000Y-111125000D03*
X79600000Y-111125000D03*
X80100000Y-111125000D03*
X81100000Y-111125000D03*
X81600000Y-111125000D03*
D58*
X82100000Y-111125000D03*
X75600000Y-111625000D03*
D59*
X76100000Y-111625000D03*
X76600000Y-111625000D03*
X81100000Y-111625000D03*
X81600000Y-111625000D03*
D58*
X82100000Y-111625000D03*
X75600000Y-112125000D03*
D59*
X76100000Y-112125000D03*
X76600000Y-112125000D03*
X77100000Y-112125000D03*
X77600000Y-112125000D03*
X78100000Y-112125000D03*
X78600000Y-112125000D03*
X79100000Y-112125000D03*
X79600000Y-112125000D03*
X80100000Y-112125000D03*
X80600000Y-112125000D03*
X81100000Y-112125000D03*
X81600000Y-112125000D03*
D58*
X82100000Y-112125000D03*
X75600000Y-112625000D03*
D59*
X76100000Y-112625000D03*
X76600000Y-112625000D03*
X77100000Y-112625000D03*
X77600000Y-112625000D03*
X78100000Y-112625000D03*
X78600000Y-112625000D03*
X79100000Y-112625000D03*
X79600000Y-112625000D03*
X80100000Y-112625000D03*
X80600000Y-112625000D03*
X81100000Y-112625000D03*
X81600000Y-112625000D03*
D58*
X82100000Y-112625000D03*
D57*
X75600000Y-113125000D03*
X76100000Y-113125000D03*
X76600000Y-113125000D03*
X77100000Y-113125000D03*
X77600000Y-113125000D03*
X78100000Y-113125000D03*
X78600000Y-113125000D03*
X79100000Y-113125000D03*
X79600000Y-113125000D03*
X80100000Y-113125000D03*
X80600000Y-113125000D03*
X81100000Y-113125000D03*
X81600000Y-113125000D03*
X82100000Y-113125000D03*
%TD*%
D19*
%TO.C,R13*%
X122193462Y-80935028D03*
X122193462Y-81955028D03*
%TD*%
D20*
%TO.C,R20*%
X84214981Y-89418014D03*
X85234981Y-89418014D03*
%TD*%
D46*
%TO.C,C78*%
X90833481Y-89411014D03*
X92383481Y-89411014D03*
%TD*%
D54*
%TO.C,C27*%
X127293462Y-114070028D03*
X121893462Y-114070028D03*
%TD*%
D38*
%TO.C,C79*%
X87133481Y-83188014D03*
X87823481Y-83188014D03*
%TD*%
D13*
%TO.C,R76*%
X134070281Y-99594214D03*
X134070281Y-98574214D03*
%TD*%
D25*
%TO.C,C97*%
X81229200Y-118120600D03*
X81229200Y-118810600D03*
%TD*%
D13*
%TO.C,R2*%
X121365481Y-107255014D03*
X121365481Y-106235014D03*
%TD*%
D20*
%TO.C,R79*%
X120172481Y-94563014D03*
X121192481Y-94563014D03*
%TD*%
D31*
%TO.C,L3*%
X128993462Y-94325028D03*
X128993462Y-96225028D03*
%TD*%
D26*
%TO.C,C133*%
X93629481Y-100090014D03*
X92939481Y-100090014D03*
%TD*%
D25*
%TO.C,C107*%
X105759881Y-123649014D03*
X105759881Y-124339014D03*
%TD*%
D60*
%TO.C,Q7*%
X111565481Y-97151514D03*
X111565481Y-98451514D03*
X113565481Y-97801514D03*
%TD*%
D18*
%TO.C,C51*%
X118023462Y-87307528D03*
X117063462Y-87307528D03*
%TD*%
D61*
%TO.C,C81*%
X107476481Y-92798014D03*
X107476481Y-91248014D03*
%TD*%
D25*
%TO.C,R45*%
X105048681Y-125935014D03*
X105048681Y-126625014D03*
%TD*%
D62*
%TO.C,U6*%
X68276281Y-106859014D03*
X68926281Y-106859014D03*
X69576281Y-106859014D03*
X70226281Y-106859014D03*
X70226281Y-102459014D03*
X69576281Y-102459014D03*
X68926281Y-102459014D03*
D63*
X69251281Y-104659014D03*
D62*
X68276281Y-102459014D03*
%TD*%
D64*
%TO.C,C103*%
X97858529Y-124274062D03*
X98346433Y-124761966D03*
%TD*%
D25*
%TO.C,R44*%
X105759881Y-125935014D03*
X105759881Y-126625014D03*
%TD*%
%TO.C,R105*%
X68091681Y-111152214D03*
X68091681Y-111842214D03*
%TD*%
D20*
%TO.C,R36*%
X89882881Y-100676814D03*
X90902881Y-100676814D03*
%TD*%
D61*
%TO.C,C291*%
X137567200Y-124662600D03*
X137567200Y-123112600D03*
%TD*%
D12*
%TO.C,R19*%
X82987481Y-89418014D03*
X81967481Y-89418014D03*
%TD*%
D17*
%TO.C,C33*%
X127243462Y-97877528D03*
X127243462Y-98837528D03*
%TD*%
D19*
%TO.C,R58*%
X121915481Y-83285014D03*
X121915481Y-84305014D03*
%TD*%
D20*
%TO.C,R82*%
X115934681Y-100557414D03*
X116954681Y-100557414D03*
%TD*%
D38*
%TO.C,C83*%
X100080286Y-87917214D03*
X100770286Y-87917214D03*
%TD*%
D40*
%TO.C,R53*%
X103575481Y-126625014D03*
X103575481Y-125935014D03*
%TD*%
D18*
%TO.C,C16*%
X134465962Y-83370028D03*
X133505962Y-83370028D03*
%TD*%
D65*
%TO.C,L7*%
X69602881Y-109160414D03*
X68002881Y-109160414D03*
%TD*%
D66*
%TO.C,SW2*%
X137815481Y-96045014D03*
X135515481Y-96045014D03*
%TD*%
D20*
%TO.C,R109*%
X68172500Y-122730400D03*
X69192500Y-122730400D03*
%TD*%
D66*
%TO.C,SW1*%
X137815481Y-93545014D03*
X135515481Y-93545014D03*
%TD*%
D27*
%TO.C,C49*%
X121193462Y-81945028D03*
X121193462Y-80985028D03*
%TD*%
D47*
%TO.C,C43*%
X132743462Y-116370028D03*
X132743462Y-119320028D03*
%TD*%
D12*
%TO.C,R59*%
X136475481Y-91745014D03*
X135455481Y-91745014D03*
%TD*%
D67*
%TO.C,D10*%
X65720000Y-98130000D03*
X65720000Y-96030000D03*
%TD*%
D68*
%TO.C,L6*%
X134793462Y-104012528D03*
X134793462Y-113027528D03*
%TD*%
D25*
%TO.C,C101*%
X105048681Y-123649014D03*
X105048681Y-124339014D03*
%TD*%
D69*
%TO.C,U9*%
X87245000Y-118305400D03*
X87245000Y-117655400D03*
X87245000Y-117005400D03*
X87245000Y-116355400D03*
X87245000Y-115705400D03*
X87245000Y-115055400D03*
X87245000Y-114405400D03*
X87245000Y-113755400D03*
X87245000Y-113105400D03*
X87245000Y-112455400D03*
X87245000Y-111805400D03*
X87245000Y-111155400D03*
X87245000Y-110505400D03*
X87245000Y-109855400D03*
X87245000Y-109205400D03*
X87245000Y-108555400D03*
X87245000Y-107905400D03*
X87245000Y-107255400D03*
X87245000Y-106605400D03*
X87245000Y-105955400D03*
X87245000Y-105305400D03*
X87245000Y-104655400D03*
X87245000Y-104005400D03*
X100245000Y-118955400D03*
X100245000Y-118305400D03*
X100245000Y-117655400D03*
X100245000Y-117005400D03*
X100245000Y-116355400D03*
X100245000Y-115705400D03*
X100245000Y-115055400D03*
X100245000Y-114405400D03*
X100245000Y-113755400D03*
X100245000Y-113105400D03*
X100245000Y-112455400D03*
X100245000Y-111805400D03*
X100245000Y-111155400D03*
X100245000Y-110505400D03*
X100245000Y-109855400D03*
X100245000Y-109205400D03*
X100245000Y-108555400D03*
X100245000Y-107905400D03*
X100245000Y-107255400D03*
X100245000Y-106605400D03*
X100245000Y-105955400D03*
X100245000Y-105305400D03*
X100245000Y-104655400D03*
X100245000Y-104005400D03*
X100245000Y-103355400D03*
X100895000Y-118955400D03*
X100895000Y-118305400D03*
X100895000Y-117655400D03*
X100895000Y-117005400D03*
X100895000Y-116355400D03*
X100895000Y-115705400D03*
X100895000Y-115055400D03*
X100895000Y-114405400D03*
X100895000Y-113755400D03*
X100895000Y-113105400D03*
X100895000Y-112455400D03*
X100895000Y-111805400D03*
X100895000Y-111155400D03*
X100895000Y-110505400D03*
X100895000Y-109855400D03*
X100895000Y-109205400D03*
X100895000Y-108555400D03*
X100895000Y-107905400D03*
X100895000Y-107255400D03*
X100895000Y-106605400D03*
X100895000Y-105955400D03*
X100895000Y-105305400D03*
X100895000Y-104655400D03*
X100895000Y-104005400D03*
X100895000Y-103355400D03*
X101545000Y-118955400D03*
X101545000Y-118305400D03*
X101545000Y-117655400D03*
X101545000Y-117005400D03*
X101545000Y-116355400D03*
X101545000Y-115705400D03*
X101545000Y-115055400D03*
X101545000Y-114405400D03*
X101545000Y-113755400D03*
X101545000Y-113105400D03*
X101545000Y-112455400D03*
X101545000Y-111805400D03*
X101545000Y-111155400D03*
X101545000Y-110505400D03*
X101545000Y-109855400D03*
X101545000Y-109205400D03*
X101545000Y-108555400D03*
X101545000Y-107905400D03*
X101545000Y-107255400D03*
X101545000Y-106605400D03*
X101545000Y-105955400D03*
X101545000Y-105305400D03*
X101545000Y-104655400D03*
X101545000Y-104005400D03*
X101545000Y-103355400D03*
X102195000Y-118955400D03*
X102195000Y-118305400D03*
X102195000Y-117655400D03*
X102195000Y-117005400D03*
X102195000Y-116355400D03*
X102195000Y-115705400D03*
X102195000Y-115055400D03*
X102195000Y-114405400D03*
X102195000Y-113755400D03*
X102195000Y-113105400D03*
X102195000Y-112455400D03*
X102195000Y-111805400D03*
X102195000Y-111155400D03*
X102195000Y-110505400D03*
X102195000Y-109855400D03*
X102195000Y-109205400D03*
X102195000Y-108555400D03*
X102195000Y-107905400D03*
X102195000Y-107255400D03*
X102195000Y-106605400D03*
X102195000Y-105955400D03*
X102195000Y-105305400D03*
X102195000Y-104655400D03*
X102195000Y-104005400D03*
X102195000Y-103355400D03*
X102845000Y-118305400D03*
X102845000Y-117655400D03*
X102845000Y-117005400D03*
X102845000Y-116355400D03*
X102845000Y-115705400D03*
X102845000Y-115055400D03*
X102845000Y-114405400D03*
X102845000Y-113755400D03*
X102845000Y-113105400D03*
X102845000Y-112455400D03*
X102845000Y-111805400D03*
X102845000Y-111155400D03*
X102845000Y-110505400D03*
X102845000Y-109855400D03*
X102845000Y-109205400D03*
X102845000Y-108555400D03*
X102845000Y-107905400D03*
X102845000Y-107255400D03*
X102845000Y-106605400D03*
X102845000Y-105955400D03*
X102845000Y-105305400D03*
X102845000Y-104655400D03*
X102845000Y-104005400D03*
X87895000Y-118955400D03*
X87895000Y-118305400D03*
X87895000Y-117655400D03*
X87895000Y-117005400D03*
X87895000Y-116355400D03*
X87895000Y-115705400D03*
X87895000Y-115055400D03*
X87895000Y-114405400D03*
X87895000Y-113755400D03*
X87895000Y-113105400D03*
X87895000Y-112455400D03*
X87895000Y-111805400D03*
X87895000Y-111155400D03*
X87895000Y-110505400D03*
X87895000Y-109855400D03*
X87895000Y-109205400D03*
X87895000Y-108555400D03*
X87895000Y-107905400D03*
X87895000Y-107255400D03*
X87895000Y-106605400D03*
X87895000Y-105955400D03*
X87895000Y-105305400D03*
X87895000Y-104655400D03*
X87895000Y-104005400D03*
X87895000Y-103355400D03*
X88545000Y-118955400D03*
X88545000Y-118305400D03*
X88545000Y-117655400D03*
X88545000Y-117005400D03*
X88545000Y-116355400D03*
X88545000Y-115705400D03*
X88545000Y-115055400D03*
X88545000Y-114405400D03*
X88545000Y-113755400D03*
X88545000Y-113105400D03*
X88545000Y-112455400D03*
X88545000Y-111805400D03*
X88545000Y-111155400D03*
X88545000Y-110505400D03*
X88545000Y-109855400D03*
X88545000Y-109205400D03*
X88545000Y-108555400D03*
X88545000Y-107905400D03*
X88545000Y-107255400D03*
X88545000Y-106605400D03*
X88545000Y-105955400D03*
X88545000Y-105305400D03*
X88545000Y-104655400D03*
X88545000Y-104005400D03*
X88545000Y-103355400D03*
X89195000Y-118955400D03*
X89195000Y-118305400D03*
X89195000Y-117655400D03*
X89195000Y-117005400D03*
X89195000Y-116355400D03*
X89195000Y-115705400D03*
X89195000Y-115055400D03*
X89195000Y-114405400D03*
X89195000Y-113755400D03*
X89195000Y-113105400D03*
X89195000Y-112455400D03*
X89195000Y-111805400D03*
X89195000Y-111155400D03*
X89195000Y-110505400D03*
X89195000Y-109855400D03*
X89195000Y-109205400D03*
X89195000Y-108555400D03*
X89195000Y-107905400D03*
X89195000Y-107255400D03*
X89195000Y-106605400D03*
X89195000Y-105955400D03*
X89195000Y-105305400D03*
X89195000Y-104655400D03*
X89195000Y-104005400D03*
X89195000Y-103355400D03*
X89845000Y-118955400D03*
X89845000Y-118305400D03*
X89845000Y-117655400D03*
X89845000Y-117005400D03*
X89845000Y-116355400D03*
X89845000Y-115705400D03*
X89845000Y-115055400D03*
X89845000Y-114405400D03*
X89845000Y-113755400D03*
X89845000Y-113105400D03*
X89845000Y-112455400D03*
X89845000Y-111805400D03*
X89845000Y-111155400D03*
X89845000Y-110505400D03*
X89845000Y-109855400D03*
X89845000Y-109205400D03*
X89845000Y-108555400D03*
X89845000Y-107905400D03*
X89845000Y-107255400D03*
X89845000Y-106605400D03*
X89845000Y-105955400D03*
X89845000Y-105305400D03*
X89845000Y-104655400D03*
X89845000Y-104005400D03*
X89845000Y-103355400D03*
X90495000Y-118955400D03*
X90495000Y-118305400D03*
X90495000Y-117655400D03*
X90495000Y-117005400D03*
X90495000Y-116355400D03*
X90495000Y-115705400D03*
X90495000Y-115055400D03*
X90495000Y-114405400D03*
X90495000Y-113755400D03*
X90495000Y-113105400D03*
X90495000Y-112455400D03*
X90495000Y-111805400D03*
X90495000Y-111155400D03*
X90495000Y-110505400D03*
X90495000Y-109855400D03*
X90495000Y-109205400D03*
X90495000Y-108555400D03*
X90495000Y-107905400D03*
X90495000Y-107255400D03*
X90495000Y-106605400D03*
X90495000Y-105955400D03*
X90495000Y-105305400D03*
X90495000Y-104655400D03*
X90495000Y-104005400D03*
X90495000Y-103355400D03*
X91145000Y-118955400D03*
X91145000Y-118305400D03*
X91145000Y-117655400D03*
X91145000Y-117005400D03*
X91145000Y-116355400D03*
X91145000Y-115705400D03*
X91145000Y-115055400D03*
X91145000Y-114405400D03*
X91145000Y-113755400D03*
X91145000Y-113105400D03*
X91145000Y-112455400D03*
X91145000Y-111805400D03*
X91145000Y-111155400D03*
X91145000Y-110505400D03*
X91145000Y-109855400D03*
X91145000Y-109205400D03*
X91145000Y-108555400D03*
X91145000Y-107905400D03*
X91145000Y-107255400D03*
X91145000Y-106605400D03*
X91145000Y-105955400D03*
X91145000Y-105305400D03*
X91145000Y-104655400D03*
X91145000Y-104005400D03*
X91145000Y-103355400D03*
X91795000Y-118955400D03*
X91795000Y-118305400D03*
X91795000Y-117655400D03*
X91795000Y-117005400D03*
X91795000Y-116355400D03*
X91795000Y-115705400D03*
X91795000Y-115055400D03*
X91795000Y-114405400D03*
X91795000Y-113755400D03*
X91795000Y-113105400D03*
X91795000Y-112455400D03*
X91795000Y-111805400D03*
X91795000Y-111155400D03*
X91795000Y-110505400D03*
X91795000Y-109855400D03*
X91795000Y-109205400D03*
X91795000Y-108555400D03*
X91795000Y-107905400D03*
X91795000Y-107255400D03*
X91795000Y-106605400D03*
X91795000Y-105955400D03*
X91795000Y-105305400D03*
X91795000Y-104655400D03*
X91795000Y-104005400D03*
X91795000Y-103355400D03*
X92445000Y-118955400D03*
X92445000Y-118305400D03*
X92445000Y-117655400D03*
X92445000Y-117005400D03*
X92445000Y-116355400D03*
X92445000Y-115705400D03*
X92445000Y-115055400D03*
X92445000Y-114405400D03*
X92445000Y-113755400D03*
X92445000Y-113105400D03*
X92445000Y-112455400D03*
X92445000Y-111805400D03*
X92445000Y-111155400D03*
X92445000Y-110505400D03*
X92445000Y-109855400D03*
X92445000Y-109205400D03*
X92445000Y-108555400D03*
X92445000Y-107905400D03*
X92445000Y-107255400D03*
X92445000Y-106605400D03*
X92445000Y-105955400D03*
X92445000Y-105305400D03*
X92445000Y-104655400D03*
X92445000Y-104005400D03*
X92445000Y-103355400D03*
X93095000Y-118955400D03*
X93095000Y-118305400D03*
X93095000Y-117655400D03*
X93095000Y-117005400D03*
X93095000Y-116355400D03*
X93095000Y-115705400D03*
X93095000Y-115055400D03*
X93095000Y-114405400D03*
X93095000Y-113755400D03*
X93095000Y-113105400D03*
X93095000Y-112455400D03*
X93095000Y-111805400D03*
X93095000Y-111155400D03*
X93095000Y-110505400D03*
X93095000Y-109855400D03*
X93095000Y-109205400D03*
X93095000Y-108555400D03*
X93095000Y-107905400D03*
X93095000Y-107255400D03*
X93095000Y-106605400D03*
X93095000Y-105955400D03*
X93095000Y-105305400D03*
X93095000Y-104655400D03*
X93095000Y-104005400D03*
X93095000Y-103355400D03*
X93745000Y-118955400D03*
X93745000Y-118305400D03*
X93745000Y-117655400D03*
X93745000Y-117005400D03*
X93745000Y-116355400D03*
X93745000Y-115705400D03*
X93745000Y-115055400D03*
X93745000Y-114405400D03*
X93745000Y-113755400D03*
X93745000Y-113105400D03*
X93745000Y-112455400D03*
X93745000Y-111805400D03*
X93745000Y-111155400D03*
X93745000Y-110505400D03*
X93745000Y-109855400D03*
X93745000Y-109205400D03*
X93745000Y-108555400D03*
X93745000Y-107905400D03*
X93745000Y-107255400D03*
X93745000Y-106605400D03*
X93745000Y-105955400D03*
X93745000Y-105305400D03*
X93745000Y-104655400D03*
X93745000Y-104005400D03*
X93745000Y-103355400D03*
X94395000Y-118955400D03*
X94395000Y-118305400D03*
X94395000Y-117655400D03*
X94395000Y-117005400D03*
X94395000Y-116355400D03*
X94395000Y-115705400D03*
X94395000Y-115055400D03*
X94395000Y-114405400D03*
X94395000Y-113755400D03*
X94395000Y-113105400D03*
X94395000Y-112455400D03*
X94395000Y-111805400D03*
X94395000Y-111155400D03*
X94395000Y-110505400D03*
X94395000Y-109855400D03*
X94395000Y-109205400D03*
X94395000Y-108555400D03*
X94395000Y-107905400D03*
X94395000Y-107255400D03*
X94395000Y-106605400D03*
X94395000Y-105955400D03*
X94395000Y-105305400D03*
X94395000Y-104655400D03*
X94395000Y-104005400D03*
X94395000Y-103355400D03*
X95045000Y-118955400D03*
X95045000Y-118305400D03*
X95045000Y-117655400D03*
X95045000Y-117005400D03*
X95045000Y-116355400D03*
X95045000Y-115705400D03*
X95045000Y-115055400D03*
X95045000Y-114405400D03*
X95045000Y-113755400D03*
X95045000Y-113105400D03*
X95045000Y-112455400D03*
X95045000Y-111805400D03*
X95045000Y-111155400D03*
X95045000Y-110505400D03*
X95045000Y-109855400D03*
X95045000Y-109205400D03*
X95045000Y-108555400D03*
X95045000Y-107905400D03*
X95045000Y-107255400D03*
X95045000Y-106605400D03*
X95045000Y-105955400D03*
X95045000Y-105305400D03*
X95045000Y-104655400D03*
X95045000Y-104005400D03*
X95045000Y-103355400D03*
X95695000Y-118955400D03*
X95695000Y-118305400D03*
X95695000Y-117655400D03*
X95695000Y-117005400D03*
X95695000Y-116355400D03*
X95695000Y-115705400D03*
X95695000Y-115055400D03*
X95695000Y-114405400D03*
X95695000Y-113755400D03*
X95695000Y-113105400D03*
X95695000Y-112455400D03*
X95695000Y-111805400D03*
X95695000Y-111155400D03*
X95695000Y-110505400D03*
X95695000Y-109855400D03*
X95695000Y-109205400D03*
X95695000Y-108555400D03*
X95695000Y-107905400D03*
X95695000Y-107255400D03*
X95695000Y-106605400D03*
X95695000Y-105955400D03*
X95695000Y-105305400D03*
X95695000Y-104655400D03*
X95695000Y-104005400D03*
X95695000Y-103355400D03*
X96345000Y-118955400D03*
X96345000Y-118305400D03*
X96345000Y-117655400D03*
X96345000Y-117005400D03*
X96345000Y-116355400D03*
X96345000Y-115705400D03*
X96345000Y-115055400D03*
X96345000Y-114405400D03*
X96345000Y-113755400D03*
X96345000Y-113105400D03*
X96345000Y-112455400D03*
X96345000Y-111805400D03*
X96345000Y-111155400D03*
X96345000Y-110505400D03*
X96345000Y-109855400D03*
X96345000Y-109205400D03*
X96345000Y-108555400D03*
X96345000Y-107905400D03*
X96345000Y-107255400D03*
X96345000Y-106605400D03*
X96345000Y-105955400D03*
X96345000Y-105305400D03*
X96345000Y-104655400D03*
X96345000Y-104005400D03*
X96345000Y-103355400D03*
X96995000Y-118955400D03*
X96995000Y-118305400D03*
X96995000Y-117655400D03*
X96995000Y-117005400D03*
X96995000Y-116355400D03*
X96995000Y-115705400D03*
X96995000Y-115055400D03*
X96995000Y-114405400D03*
X96995000Y-113755400D03*
X96995000Y-113105400D03*
X96995000Y-112455400D03*
X96995000Y-111805400D03*
X96995000Y-111155400D03*
X96995000Y-110505400D03*
X96995000Y-109855400D03*
X96995000Y-109205400D03*
X96995000Y-108555400D03*
X96995000Y-107905400D03*
X96995000Y-107255400D03*
X96995000Y-106605400D03*
X96995000Y-105955400D03*
X96995000Y-105305400D03*
X96995000Y-104655400D03*
X96995000Y-104005400D03*
X96995000Y-103355400D03*
X97645000Y-118955400D03*
X97645000Y-118305400D03*
X97645000Y-117655400D03*
X97645000Y-117005400D03*
X97645000Y-116355400D03*
X97645000Y-115705400D03*
X97645000Y-115055400D03*
X97645000Y-114405400D03*
X97645000Y-113755400D03*
X97645000Y-113105400D03*
X97645000Y-112455400D03*
X97645000Y-111805400D03*
X97645000Y-111155400D03*
X97645000Y-110505400D03*
X97645000Y-109855400D03*
X97645000Y-109205400D03*
X97645000Y-108555400D03*
X97645000Y-107905400D03*
X97645000Y-107255400D03*
X97645000Y-106605400D03*
X97645000Y-105955400D03*
X97645000Y-105305400D03*
X97645000Y-104655400D03*
X97645000Y-104005400D03*
X97645000Y-103355400D03*
X98295000Y-118955400D03*
X98295000Y-118305400D03*
X98295000Y-117655400D03*
X98295000Y-117005400D03*
X98295000Y-116355400D03*
X98295000Y-115705400D03*
X98295000Y-115055400D03*
X98295000Y-114405400D03*
X98295000Y-113755400D03*
X98295000Y-113105400D03*
X98295000Y-112455400D03*
X98295000Y-111805400D03*
X98295000Y-111155400D03*
X98295000Y-110505400D03*
X98295000Y-109855400D03*
X98295000Y-109205400D03*
X98295000Y-108555400D03*
X98295000Y-107905400D03*
X98295000Y-107255400D03*
X98295000Y-106605400D03*
X98295000Y-105955400D03*
X98295000Y-105305400D03*
X98295000Y-104655400D03*
X98295000Y-104005400D03*
X98295000Y-103355400D03*
X98945000Y-118955400D03*
X98945000Y-118305400D03*
X98945000Y-117655400D03*
X98945000Y-117005400D03*
X98945000Y-116355400D03*
X98945000Y-115705400D03*
X98945000Y-115055400D03*
X98945000Y-114405400D03*
X98945000Y-113755400D03*
X98945000Y-113105400D03*
X98945000Y-112455400D03*
X98945000Y-111805400D03*
X98945000Y-111155400D03*
X98945000Y-110505400D03*
X98945000Y-109855400D03*
X98945000Y-109205400D03*
X98945000Y-108555400D03*
X98945000Y-107905400D03*
X98945000Y-107255400D03*
X98945000Y-106605400D03*
X98945000Y-105955400D03*
X98945000Y-105305400D03*
X98945000Y-104655400D03*
X98945000Y-104005400D03*
X98945000Y-103355400D03*
X99595000Y-118955400D03*
X99595000Y-118305400D03*
X99595000Y-117655400D03*
X99595000Y-117005400D03*
X99595000Y-116355400D03*
X99595000Y-115705400D03*
X99595000Y-115055400D03*
X99595000Y-114405400D03*
X99595000Y-113755400D03*
X99595000Y-113105400D03*
X99595000Y-112455400D03*
X99595000Y-111805400D03*
X99595000Y-111155400D03*
X99595000Y-110505400D03*
X99595000Y-109855400D03*
X99595000Y-109205400D03*
X99595000Y-108555400D03*
X99595000Y-107905400D03*
X99595000Y-107255400D03*
X99595000Y-106605400D03*
X99595000Y-105955400D03*
X99595000Y-105305400D03*
X99595000Y-104655400D03*
X99595000Y-104005400D03*
X99595000Y-103355400D03*
%TD*%
D11*
%TO.C,D2*%
X100433767Y-82515595D03*
X100433767Y-80940595D03*
%TD*%
D21*
%TO.C,U7*%
X97141767Y-85910228D03*
X97641767Y-85910228D03*
X98141767Y-85910228D03*
D22*
X98991767Y-85460228D03*
X98991767Y-84960228D03*
X98991767Y-84460228D03*
D21*
X98141767Y-84010228D03*
X97641767Y-84010228D03*
X97141767Y-84010228D03*
D22*
X96291767Y-85460228D03*
X96291767Y-84960228D03*
D23*
X96541767Y-84960228D03*
D22*
X96291767Y-84460228D03*
D24*
X97641767Y-84960228D03*
%TD*%
D32*
%TO.C,C62*%
X133318462Y-89325028D03*
X134278462Y-89325028D03*
%TD*%
D16*
%TO.C,U3*%
X64082500Y-107258462D03*
X64082500Y-106308462D03*
X64082500Y-105358462D03*
X61807500Y-105358462D03*
X61807500Y-107258462D03*
%TD*%
D25*
%TO.C,C111*%
X102762681Y-123649014D03*
X102762681Y-124339014D03*
%TD*%
D26*
%TO.C,C149*%
X100106481Y-99963014D03*
X99416481Y-99963014D03*
%TD*%
D38*
%TO.C,C160*%
X96241481Y-100090014D03*
X96931481Y-100090014D03*
%TD*%
D12*
%TO.C,R28*%
X101401767Y-84310228D03*
X100381767Y-84310228D03*
%TD*%
D26*
%TO.C,C95*%
X84647481Y-102018014D03*
X83957481Y-102018014D03*
%TD*%
D18*
%TO.C,C46*%
X118023462Y-88257528D03*
X117063462Y-88257528D03*
%TD*%
D25*
%TO.C,C212*%
X114765481Y-92400014D03*
X114765481Y-93090014D03*
%TD*%
D38*
%TO.C,C73*%
X82524481Y-86890514D03*
X83214481Y-86890514D03*
%TD*%
D70*
%TO.C,U1*%
X126393462Y-85707528D03*
X126393462Y-86882528D03*
X126393462Y-88057528D03*
X126393462Y-89232528D03*
X127393462Y-85707528D03*
X127393462Y-86882528D03*
X127393462Y-88057528D03*
X127393462Y-89232528D03*
X128393462Y-85707528D03*
X128393462Y-86882528D03*
X128393462Y-88057528D03*
X128393462Y-89232528D03*
X129393462Y-85707528D03*
X129393462Y-86882528D03*
X129393462Y-88057528D03*
X129393462Y-89232528D03*
D71*
X123955962Y-84220028D03*
X123955962Y-84720028D03*
X123955962Y-85220028D03*
X123955962Y-85720028D03*
X123955962Y-86220028D03*
X123955962Y-86720028D03*
X123955962Y-87220028D03*
X123955962Y-87720028D03*
X123955962Y-88220028D03*
X123955962Y-88720028D03*
X123955962Y-89220028D03*
X123955962Y-89720028D03*
X123955962Y-90220028D03*
X123955962Y-90720028D03*
D72*
X124643462Y-91407528D03*
X125143462Y-91407528D03*
X125643462Y-91407528D03*
X126143462Y-91407528D03*
X126643462Y-91407528D03*
X127143462Y-91407528D03*
X127643462Y-91407528D03*
X128143462Y-91407528D03*
X128643462Y-91407528D03*
X129143462Y-91407528D03*
X129643462Y-91407528D03*
X130143462Y-91407528D03*
X130643462Y-91407528D03*
X131143462Y-91407528D03*
D71*
X131830962Y-90720028D03*
X131830962Y-90220028D03*
X131830962Y-89720028D03*
X131830962Y-89220028D03*
X131830962Y-88720028D03*
X131830962Y-88220028D03*
X131830962Y-87720028D03*
X131830962Y-87220028D03*
X131830962Y-86720028D03*
X131830962Y-86220028D03*
X131830962Y-85720028D03*
X131830962Y-85220028D03*
X131830962Y-84720028D03*
X131830962Y-84220028D03*
D72*
X131143462Y-83532528D03*
X130643462Y-83532528D03*
X130143462Y-83532528D03*
X129643462Y-83532528D03*
X129143462Y-83532528D03*
X128643462Y-83532528D03*
X128143462Y-83532528D03*
X127643462Y-83532528D03*
X127143462Y-83532528D03*
X126643462Y-83532528D03*
X126143462Y-83532528D03*
X125643462Y-83532528D03*
X125143462Y-83532528D03*
X124643462Y-83532528D03*
%TD*%
D46*
%TO.C,C289*%
X65790481Y-128545014D03*
X67340481Y-128545014D03*
%TD*%
D18*
%TO.C,C58*%
X109045481Y-82745014D03*
X108085481Y-82745014D03*
%TD*%
D19*
%TO.C,R21*%
X70911081Y-108752014D03*
X70911081Y-109772014D03*
%TD*%
D13*
%TO.C,R94*%
X66200000Y-103350000D03*
X66200000Y-102330000D03*
%TD*%
D19*
%TO.C,R14*%
X125093462Y-80935028D03*
X125093462Y-81955028D03*
%TD*%
D18*
%TO.C,C53*%
X118023462Y-85407528D03*
X117063462Y-85407528D03*
%TD*%
D27*
%TO.C,C59*%
X131318462Y-81925028D03*
X131318462Y-80965028D03*
%TD*%
D13*
%TO.C,R93*%
X65227481Y-103350000D03*
X65227481Y-102330000D03*
%TD*%
D17*
%TO.C,C23*%
X128293462Y-97877528D03*
X128293462Y-98837528D03*
%TD*%
D73*
%TO.C,SH2*%
X98879267Y-90810228D03*
X97054267Y-90810228D03*
%TD*%
D25*
%TO.C,C104*%
X104286681Y-123649014D03*
X104286681Y-124339014D03*
%TD*%
D17*
%TO.C,C34*%
X135870000Y-89230400D03*
X135870000Y-90190400D03*
%TD*%
D12*
%TO.C,R16*%
X113056481Y-80402014D03*
X112036481Y-80402014D03*
%TD*%
D17*
%TO.C,C30*%
X126293462Y-97877528D03*
X126293462Y-98837528D03*
%TD*%
D47*
%TO.C,C41*%
X135043462Y-116370028D03*
X135043462Y-119320028D03*
%TD*%
D13*
%TO.C,R107*%
X64920000Y-123702900D03*
X64920000Y-122682900D03*
%TD*%
D61*
%TO.C,C82*%
X104809481Y-92798014D03*
X104809481Y-91248014D03*
%TD*%
D74*
%TO.C,Q2*%
X114705481Y-83110014D03*
X114045481Y-83110014D03*
X113385481Y-83110014D03*
X112725481Y-83110014D03*
D75*
X113705481Y-85102514D03*
D76*
X114705481Y-86095014D03*
X114044231Y-86095014D03*
X113382981Y-86095014D03*
X112721731Y-86095014D03*
%TD*%
D16*
%TO.C,Q4*%
X110046981Y-128246014D03*
X110046981Y-126346014D03*
X107771981Y-127296014D03*
%TD*%
D40*
%TO.C,R89*%
X67150000Y-97705000D03*
X67150000Y-97015000D03*
%TD*%
%TO.C,R51*%
X97581081Y-126625014D03*
X97581081Y-125935014D03*
%TD*%
D77*
%TO.C,Y5*%
X71732500Y-125230400D03*
X67632500Y-125230400D03*
%TD*%
D12*
%TO.C,R29*%
X105065481Y-83641014D03*
X104045481Y-83641014D03*
%TD*%
D18*
%TO.C,C56*%
X118023462Y-86357528D03*
X117063462Y-86357528D03*
%TD*%
D73*
%TO.C,SH1*%
X88800481Y-90808014D03*
X86975481Y-90808014D03*
%TD*%
D13*
%TO.C,R92*%
X67170000Y-101160000D03*
X67170000Y-100140000D03*
%TD*%
D32*
%TO.C,C320*%
X72002500Y-122730400D03*
X72962500Y-122730400D03*
%TD*%
D78*
%TO.C,U17*%
X69270000Y-118980400D03*
X69270000Y-117680400D03*
X69270000Y-116380400D03*
X69270000Y-115080400D03*
X67970000Y-118980400D03*
X67970000Y-117680400D03*
X67970000Y-116380400D03*
X67970000Y-115080400D03*
X66670000Y-118980400D03*
X66670000Y-117680400D03*
X66670000Y-116380400D03*
X66670000Y-115080400D03*
X65370000Y-118980400D03*
X65370000Y-117680400D03*
X65370000Y-116380400D03*
X65370000Y-115080400D03*
D79*
X71257500Y-120230400D03*
X71257500Y-119830400D03*
X71257500Y-119430400D03*
X71257500Y-119030400D03*
X71257500Y-118630400D03*
X71257500Y-118230400D03*
X71257500Y-117830400D03*
X71257500Y-117430400D03*
X71257500Y-117030400D03*
X71257500Y-116630400D03*
X71257500Y-116230400D03*
X71257500Y-115830400D03*
X71257500Y-115430400D03*
X71257500Y-115030400D03*
X71257500Y-114630400D03*
X71257500Y-114230400D03*
X71257500Y-113830400D03*
D80*
X70520000Y-113092900D03*
X70120000Y-113092900D03*
X69720000Y-113092900D03*
X69320000Y-113092900D03*
X68920000Y-113092900D03*
X68520000Y-113092900D03*
X68120000Y-113092900D03*
X67720000Y-113092900D03*
X67320000Y-113092900D03*
X66920000Y-113092900D03*
X66520000Y-113092900D03*
X66120000Y-113092900D03*
X65720000Y-113092900D03*
X65320000Y-113092900D03*
X64920000Y-113092900D03*
X64520000Y-113092900D03*
X64120000Y-113092900D03*
D79*
X63382500Y-113830400D03*
X63382500Y-114230400D03*
X63382500Y-114630400D03*
X63382500Y-115030400D03*
X63382500Y-115430400D03*
X63382500Y-115830400D03*
X63382500Y-116230400D03*
X63382500Y-116630400D03*
X63382500Y-117030400D03*
X63382500Y-117430400D03*
X63382500Y-117830400D03*
X63382500Y-118230400D03*
X63382500Y-118630400D03*
X63382500Y-119030400D03*
X63382500Y-119430400D03*
X63382500Y-119830400D03*
X63382500Y-120230400D03*
D80*
X64120000Y-120967900D03*
X64520000Y-120967900D03*
X64920000Y-120967900D03*
X65320000Y-120967900D03*
X65720000Y-120967900D03*
X66120000Y-120967900D03*
X66520000Y-120967900D03*
X66920000Y-120967900D03*
X67320000Y-120967900D03*
X67720000Y-120967900D03*
X68120000Y-120967900D03*
X68520000Y-120967900D03*
X68920000Y-120967900D03*
X69320000Y-120967900D03*
X69720000Y-120967900D03*
X70120000Y-120967900D03*
X70520000Y-120967900D03*
%TD*%
D20*
%TO.C,R31*%
X100381767Y-85285228D03*
X101401767Y-85285228D03*
%TD*%
D27*
%TO.C,C70*%
X60420000Y-107258462D03*
X60420000Y-106298462D03*
%TD*%
D81*
%TO.C,D11*%
X81027481Y-90668014D03*
X81027481Y-92243014D03*
%TD*%
D17*
%TO.C,C24*%
X127343462Y-80965028D03*
X127343462Y-81925028D03*
%TD*%
D19*
%TO.C,R67*%
X105903000Y-114944200D03*
X105903000Y-115964200D03*
%TD*%
D82*
%TO.C,SW3*%
X115940481Y-96910014D03*
X115940481Y-98180014D03*
X121190481Y-98180014D03*
X121190481Y-96910014D03*
%TD*%
D25*
%TO.C,R103*%
X66339081Y-111177614D03*
X66339081Y-111867614D03*
%TD*%
D18*
%TO.C,C312*%
X67657481Y-82418014D03*
X66697481Y-82418014D03*
%TD*%
D20*
%TO.C,R61*%
X111855481Y-94445014D03*
X112875481Y-94445014D03*
%TD*%
D16*
%TO.C,Q8*%
X94146581Y-94464014D03*
X94146581Y-92564014D03*
X91871581Y-93514014D03*
%TD*%
D20*
%TO.C,R81*%
X120172481Y-100532014D03*
X121192481Y-100532014D03*
%TD*%
%TO.C,R23*%
X83217481Y-80818014D03*
X84237481Y-80818014D03*
%TD*%
%TO.C,R27*%
X90971481Y-85855014D03*
X91991481Y-85855014D03*
%TD*%
D25*
%TO.C,C99*%
X82854800Y-118120600D03*
X82854800Y-118810600D03*
%TD*%
D83*
%TO.C,Q6*%
X110467981Y-122545014D03*
X111767981Y-122545014D03*
X111117981Y-120545014D03*
%TD*%
D84*
%TO.C,L8*%
X86812981Y-88395014D03*
X88962981Y-88395014D03*
%TD*%
D17*
%TO.C,C32*%
X131143462Y-97877528D03*
X131143462Y-98837528D03*
%TD*%
D40*
%TO.C,R50*%
X98292281Y-126625014D03*
X98292281Y-125935014D03*
%TD*%
D85*
%TO.C,U8*%
X105874481Y-84800014D03*
D86*
X104174481Y-84800014D03*
X104174481Y-86800014D03*
X106074481Y-86800014D03*
%TD*%
D18*
%TO.C,C57*%
X112923000Y-81563000D03*
X111963000Y-81563000D03*
%TD*%
D40*
%TO.C,C80*%
X107349481Y-85646014D03*
X107349481Y-84956014D03*
%TD*%
D56*
%TO.C,D6*%
X113327981Y-120645014D03*
X114902981Y-120645014D03*
%TD*%
D18*
%TO.C,C310*%
X71062500Y-122730400D03*
X70102500Y-122730400D03*
%TD*%
D19*
%TO.C,R88*%
X69427481Y-94398014D03*
X69427481Y-95418014D03*
%TD*%
%TO.C,R96*%
X72620000Y-120692900D03*
X72620000Y-121712900D03*
%TD*%
D67*
%TO.C,D9*%
X65710000Y-101340000D03*
X65710000Y-99240000D03*
%TD*%
D19*
%TO.C,R25*%
X101703767Y-81599095D03*
X101703767Y-82619095D03*
%TD*%
D20*
%TO.C,R86*%
X71442481Y-100918014D03*
X72462481Y-100918014D03*
%TD*%
D25*
%TO.C,C106*%
X101238681Y-123649014D03*
X101238681Y-124339014D03*
%TD*%
%TO.C,R101*%
X64916681Y-111177614D03*
X64916681Y-111867614D03*
%TD*%
D17*
%TO.C,C38*%
X124393462Y-97877528D03*
X124393462Y-98837528D03*
%TD*%
D87*
%TO.C,Q5*%
X138123881Y-98135014D03*
X136823881Y-98135014D03*
X137473881Y-100135014D03*
%TD*%
D88*
%TO.C,Y1*%
X96808481Y-96223014D03*
X92808481Y-96223014D03*
X92808481Y-98623014D03*
X96808481Y-98623014D03*
%TD*%
D50*
%TO.C,U16*%
X83499481Y-96114814D03*
X82249481Y-96114814D03*
X83499481Y-97364814D03*
X82249481Y-97364814D03*
D51*
X84124481Y-94802314D03*
X83624481Y-94802314D03*
X83124481Y-94802314D03*
X82624481Y-94802314D03*
X82124481Y-94802314D03*
X81624481Y-94802314D03*
D52*
X80936981Y-95489814D03*
X80936981Y-95989814D03*
X80936981Y-96489814D03*
X80936981Y-96989814D03*
X80936981Y-97489814D03*
X80936981Y-97989814D03*
D51*
X81624481Y-98677314D03*
X82124481Y-98677314D03*
X82624481Y-98677314D03*
X83124481Y-98677314D03*
X83624481Y-98677314D03*
X84124481Y-98677314D03*
D52*
X84811981Y-97989814D03*
X84811981Y-97489814D03*
X84811981Y-96989814D03*
X84811981Y-96489814D03*
X84811981Y-95989814D03*
X84811981Y-95489814D03*
%TD*%
D84*
%TO.C,L9*%
X96566767Y-88272814D03*
X98716767Y-88272814D03*
%TD*%
D88*
%TO.C,Y2*%
X103358481Y-96223014D03*
X99358481Y-96223014D03*
X99358481Y-98623014D03*
X103358481Y-98623014D03*
%TD*%
D40*
%TO.C,R48*%
X102051481Y-126625014D03*
X102051481Y-125935014D03*
%TD*%
D11*
%TO.C,D3*%
X106460481Y-89762514D03*
X106460481Y-88187514D03*
%TD*%
D38*
%TO.C,C102*%
X96157481Y-124318014D03*
X96847481Y-124318014D03*
%TD*%
D25*
%TO.C,C110*%
X103575481Y-123649014D03*
X103575481Y-124339014D03*
%TD*%
D20*
%TO.C,R69*%
X113213000Y-101864200D03*
X114233000Y-101864200D03*
%TD*%
D17*
%TO.C,C18*%
X133343462Y-90225028D03*
X133343462Y-91185028D03*
%TD*%
D12*
%TO.C,R30*%
X101401767Y-86260228D03*
X100381767Y-86260228D03*
%TD*%
D81*
%TO.C,D12*%
X79554281Y-90682614D03*
X79554281Y-92257614D03*
%TD*%
D89*
%TO.C,J3*%
X62838481Y-88699014D03*
D90*
X61313481Y-90174014D03*
X61313481Y-87224014D03*
%TD*%
D12*
%TO.C,R54*%
X95445481Y-100217014D03*
X94425481Y-100217014D03*
%TD*%
D40*
%TO.C,C173*%
X67030000Y-99340000D03*
X67030000Y-98650000D03*
%TD*%
D12*
%TO.C,R22*%
X91991481Y-84839014D03*
X90971481Y-84839014D03*
%TD*%
D25*
%TO.C,C112*%
X100527481Y-123649014D03*
X100527481Y-124339014D03*
%TD*%
D20*
%TO.C,R9*%
X125855481Y-101945014D03*
X126875481Y-101945014D03*
%TD*%
D18*
%TO.C,C322*%
X63880000Y-110292900D03*
X62920000Y-110292900D03*
%TD*%
D12*
%TO.C,R17*%
X110853000Y-81563000D03*
X109833000Y-81563000D03*
%TD*%
D27*
%TO.C,C315*%
X76777481Y-84698014D03*
X76777481Y-83738014D03*
%TD*%
D18*
%TO.C,C14*%
X134465962Y-84320028D03*
X133505962Y-84320028D03*
%TD*%
D46*
%TO.C,C84*%
X100412286Y-89060214D03*
X101962286Y-89060214D03*
%TD*%
D27*
%TO.C,C19*%
X134318462Y-91180028D03*
X134318462Y-90220028D03*
%TD*%
D12*
%TO.C,R77*%
X117075481Y-120645014D03*
X116055481Y-120645014D03*
%TD*%
D46*
%TO.C,C85*%
X95205286Y-81821214D03*
X96755286Y-81821214D03*
%TD*%
D18*
%TO.C,C52*%
X118023462Y-91144194D03*
X117063462Y-91144194D03*
%TD*%
D20*
%TO.C,R12*%
X121055481Y-85577528D03*
X122075481Y-85577528D03*
%TD*%
D12*
%TO.C,R6*%
X123963081Y-102928614D03*
X122943081Y-102928614D03*
%TD*%
D25*
%TO.C,C313*%
X67249481Y-89497014D03*
X67249481Y-90187014D03*
%TD*%
D91*
%TO.C,C69*%
X80075481Y-83194514D03*
X80075481Y-84744514D03*
%TD*%
D83*
%TO.C,Q1*%
X108515481Y-86045014D03*
X109815481Y-86045014D03*
X109165481Y-84045014D03*
%TD*%
D17*
%TO.C,C25*%
X126418462Y-80965028D03*
X126418462Y-81925028D03*
%TD*%
D20*
%TO.C,R84*%
X112376681Y-95629814D03*
X113396681Y-95629814D03*
%TD*%
D12*
%TO.C,R8*%
X126858681Y-102979414D03*
X125838681Y-102979414D03*
%TD*%
%TO.C,R95*%
X83282881Y-90313614D03*
X82262881Y-90313614D03*
%TD*%
D92*
%TO.C,U4*%
X82327481Y-85505514D03*
X83277481Y-85505514D03*
X84227481Y-85505514D03*
X84227481Y-83230514D03*
X82327481Y-83230514D03*
%TD*%
D26*
%TO.C,L10*%
X67279481Y-88699014D03*
X66589481Y-88699014D03*
%TD*%
D54*
%TO.C,C28*%
X127293462Y-128270028D03*
X121893462Y-128270028D03*
%TD*%
D13*
%TO.C,R66*%
X105963000Y-107269400D03*
X105963000Y-106249400D03*
%TD*%
D17*
%TO.C,C31*%
X136825000Y-89230400D03*
X136825000Y-90190400D03*
%TD*%
D19*
%TO.C,R33*%
X103539481Y-91776014D03*
X103539481Y-92796014D03*
%TD*%
D93*
%TO.C,Q9*%
X82676781Y-91431214D03*
X82676781Y-93331214D03*
X84951781Y-92381214D03*
%TD*%
D19*
%TO.C,R83*%
X101111681Y-93029414D03*
X101111681Y-94049414D03*
%TD*%
D47*
%TO.C,C36*%
X137343462Y-116370028D03*
X137343462Y-119320028D03*
%TD*%
D64*
%TO.C,C109*%
X98358529Y-123774062D03*
X98846433Y-124261966D03*
%TD*%
D25*
%TO.C,R106*%
X68802881Y-111152214D03*
X68802881Y-111842214D03*
%TD*%
%TO.C,C105*%
X102051481Y-123649014D03*
X102051481Y-124339014D03*
%TD*%
D94*
%TO.C,U11*%
X111715481Y-92982514D03*
X113615481Y-92982514D03*
X112665481Y-91107514D03*
%TD*%
D25*
%TO.C,R43*%
X99003481Y-125935014D03*
X99003481Y-126625014D03*
%TD*%
D17*
%TO.C,C22*%
X138720000Y-89230400D03*
X138720000Y-90190400D03*
%TD*%
%TO.C,C21*%
X125343462Y-97877528D03*
X125343462Y-98837528D03*
%TD*%
D40*
%TO.C,R46*%
X101238681Y-126625014D03*
X101238681Y-125935014D03*
%TD*%
D12*
%TO.C,R55*%
X101922481Y-100090014D03*
X100902481Y-100090014D03*
%TD*%
D26*
%TO.C,C96*%
X84652481Y-101318014D03*
X83962481Y-101318014D03*
%TD*%
D13*
%TO.C,R4*%
X121368462Y-105355028D03*
X121368462Y-104335028D03*
%TD*%
D12*
%TO.C,R5*%
X123963081Y-101963414D03*
X122943081Y-101963414D03*
%TD*%
M02*
