%TF.GenerationSoftware,KiCad,Pcbnew,8.99.0-2767-g6be6680d8c*%
%TF.CreationDate,2024-10-27T19:28:18+01:00*%
%TF.ProjectId,SBC,5342432e-6b69-4636-9164-5f7063625858,rev?*%
%TF.SameCoordinates,Original*%
%TF.FileFunction,Other,User*%
%FSLAX46Y46*%
G04 Gerber Fmt 4.6, Leading zero omitted, Abs format (unit mm)*
G04 Created by KiCad (PCBNEW 8.99.0-2767-g6be6680d8c) date 2024-10-27 19:28:18*
%MOMM*%
%LPD*%
G01*
G04 APERTURE LIST*
%ADD10C,0.050000*%
G04 APERTURE END LIST*
D10*
%TO.C,C166*%
X93205481Y-113439200D02*
X93205481Y-115259200D01*
X93205481Y-115259200D02*
X94125481Y-115259200D01*
X94125481Y-113439200D02*
X93205481Y-113439200D01*
X94125481Y-115259200D02*
X94125481Y-113439200D01*
%TO.C,C138*%
X70915481Y-97045014D02*
X70915481Y-97745014D01*
X70915481Y-97745014D02*
X72315481Y-97745014D01*
X72315481Y-97045014D02*
X70915481Y-97045014D01*
X72315481Y-97745014D02*
X72315481Y-97045014D01*
%TO.C,C216*%
X96893495Y-112083020D02*
X96893495Y-112783020D01*
X96893495Y-112783020D02*
X98293495Y-112783020D01*
X98293495Y-112083020D02*
X96893495Y-112083020D01*
X98293495Y-112783020D02*
X98293495Y-112083020D01*
%TO.C,C296*%
X85959081Y-95145214D02*
X85959081Y-95845214D01*
X85959081Y-95845214D02*
X87359081Y-95845214D01*
X87359081Y-95145214D02*
X85959081Y-95145214D01*
X87359081Y-95845214D02*
X87359081Y-95145214D01*
%TO.C,R37*%
X85850000Y-110660400D02*
X85850000Y-112520400D01*
X85850000Y-112520400D02*
X86790000Y-112520400D01*
X86790000Y-110660400D02*
X85850000Y-110660400D01*
X86790000Y-112520400D02*
X86790000Y-110660400D01*
%TO.C,C5*%
X124483462Y-88097528D02*
X124483462Y-89017528D01*
X124483462Y-89017528D02*
X126303462Y-89017528D01*
X126303462Y-88097528D02*
X124483462Y-88097528D01*
X126303462Y-89017528D02*
X126303462Y-88097528D01*
%TO.C,C181*%
X109815481Y-91295014D02*
X109815481Y-92695014D01*
X109815481Y-92695014D02*
X110515481Y-92695014D01*
X110515481Y-91295014D02*
X109815481Y-91295014D01*
X110515481Y-92695014D02*
X110515481Y-91295014D01*
%TO.C,R63*%
X106190000Y-121260400D02*
X106190000Y-122200400D01*
X106190000Y-122200400D02*
X108050000Y-122200400D01*
X108050000Y-121260400D02*
X106190000Y-121260400D01*
X108050000Y-122200400D02*
X108050000Y-121260400D01*
%TO.C,C161*%
X97821881Y-108345014D02*
X97821881Y-109045014D01*
X97821881Y-109045014D02*
X99221881Y-109045014D01*
X99221881Y-108345014D02*
X97821881Y-108345014D01*
X99221881Y-109045014D02*
X99221881Y-108345014D01*
%TO.C,C241*%
X100965481Y-103923790D02*
X100965481Y-105323790D01*
X100965481Y-105323790D02*
X101665481Y-105323790D01*
X101665481Y-103923790D02*
X100965481Y-103923790D01*
X101665481Y-105323790D02*
X101665481Y-103923790D01*
%TO.C,R74*%
X78873881Y-111938814D02*
X78873881Y-113798814D01*
X78873881Y-113798814D02*
X79813881Y-113798814D01*
X79813881Y-111938814D02*
X78873881Y-111938814D01*
X79813881Y-113798814D02*
X79813881Y-111938814D01*
%TO.C,C284*%
X77015000Y-112365000D02*
X77015000Y-113285000D01*
X77015000Y-113285000D02*
X78835000Y-113285000D01*
X78835000Y-112365000D02*
X77015000Y-112365000D01*
X78835000Y-113285000D02*
X78835000Y-112365000D01*
%TO.C,C185*%
X98862281Y-115211214D02*
X98862281Y-115911214D01*
X98862281Y-115911214D02*
X100262281Y-115911214D01*
X100262281Y-115211214D02*
X98862281Y-115211214D01*
X100262281Y-115911214D02*
X100262281Y-115211214D01*
%TO.C,C10*%
X129183462Y-89197528D02*
X129183462Y-91017528D01*
X129183462Y-91017528D02*
X130103462Y-91017528D01*
X130103462Y-89197528D02*
X129183462Y-89197528D01*
X130103462Y-91017528D02*
X130103462Y-89197528D01*
%TO.C,C246*%
X91718000Y-111599200D02*
X91718000Y-112999200D01*
X91718000Y-112999200D02*
X92418000Y-112999200D01*
X92418000Y-111599200D02*
X91718000Y-111599200D01*
X92418000Y-112999200D02*
X92418000Y-111599200D01*
%TO.C,C198*%
X99571405Y-106474585D02*
X99571405Y-107874585D01*
X99571405Y-107874585D02*
X100271405Y-107874585D01*
X100271405Y-106474585D02*
X99571405Y-106474585D01*
X100271405Y-107874585D02*
X100271405Y-106474585D01*
%TO.C,J1*%
X71265481Y-122995014D02*
X71265481Y-130095014D01*
X71265481Y-130095014D02*
X134565481Y-130095014D01*
X134565481Y-122995014D02*
X71265481Y-122995014D01*
X134565481Y-130095014D02*
X134565481Y-122995014D01*
%TO.C,C208*%
X100817910Y-107118475D02*
X100817910Y-108518475D01*
X100817910Y-108518475D02*
X101517910Y-108518475D01*
X101517910Y-107118475D02*
X100817910Y-107118475D01*
X101517910Y-108518475D02*
X101517910Y-107118475D01*
%TO.C,C193*%
X89510019Y-113490501D02*
X90004994Y-113985476D01*
X90004994Y-113985476D02*
X90994943Y-112995527D01*
X90499968Y-112500552D02*
X89510019Y-113490501D01*
X90994943Y-112995527D02*
X90499968Y-112500552D01*
%TO.C,C222*%
X95459681Y-107026614D02*
X95459681Y-107726614D01*
X95459681Y-107726614D02*
X96859681Y-107726614D01*
X96859681Y-107026614D02*
X95459681Y-107026614D01*
X96859681Y-107726614D02*
X96859681Y-107026614D01*
%TO.C,R38*%
X86450000Y-102425400D02*
X86450000Y-104285400D01*
X86450000Y-104285400D02*
X87390000Y-104285400D01*
X87390000Y-102425400D02*
X86450000Y-102425400D01*
X87390000Y-104285400D02*
X87390000Y-102425400D01*
%TO.C,C331*%
X69510000Y-115720400D02*
X69510000Y-116640400D01*
X69510000Y-116640400D02*
X71330000Y-116640400D01*
X71330000Y-115720400D02*
X69510000Y-115720400D01*
X71330000Y-116640400D02*
X71330000Y-115720400D01*
%TO.C,C215*%
X92515481Y-113795014D02*
X92515481Y-115195014D01*
X92515481Y-115195014D02*
X93215481Y-115195014D01*
X93215481Y-113795014D02*
X92515481Y-113795014D01*
X93215481Y-115195014D02*
X93215481Y-113795014D01*
%TO.C,C211*%
X95475921Y-109763683D02*
X95475921Y-110463683D01*
X95475921Y-110463683D02*
X96875921Y-110463683D01*
X96875921Y-109763683D02*
X95475921Y-109763683D01*
X96875921Y-110463683D02*
X96875921Y-109763683D01*
%TO.C,C118*%
X90515481Y-107195014D02*
X90515481Y-107895014D01*
X90515481Y-107895014D02*
X91915481Y-107895014D01*
X91915481Y-107195014D02*
X90515481Y-107195014D01*
X91915481Y-107895014D02*
X91915481Y-107195014D01*
%TO.C,C125*%
X97665481Y-118345014D02*
X97665481Y-119745014D01*
X97665481Y-119745014D02*
X98365481Y-119745014D01*
X98365481Y-118345014D02*
X97665481Y-118345014D01*
X98365481Y-119745014D02*
X98365481Y-118345014D01*
%TO.C,C227*%
X91995481Y-100785014D02*
X91995481Y-101485014D01*
X91995481Y-101485014D02*
X93395481Y-101485014D01*
X93395481Y-100785014D02*
X91995481Y-100785014D01*
X93395481Y-101485014D02*
X93395481Y-100785014D01*
%TO.C,C276*%
X71150881Y-98650414D02*
X71150881Y-99350414D01*
X71150881Y-99350414D02*
X72550881Y-99350414D01*
X72550881Y-98650414D02*
X71150881Y-98650414D01*
X72550881Y-99350414D02*
X72550881Y-98650414D01*
%TO.C,C186*%
X99675430Y-108632430D02*
X99675430Y-109332430D01*
X99675430Y-109332430D02*
X101075430Y-109332430D01*
X101075430Y-108632430D02*
X99675430Y-108632430D01*
X101075430Y-109332430D02*
X101075430Y-108632430D01*
%TO.C,R97*%
X68077981Y-119275414D02*
X68077981Y-121135414D01*
X68077981Y-121135414D02*
X69017981Y-121135414D01*
X69017981Y-119275414D02*
X68077981Y-119275414D01*
X69017981Y-121135414D02*
X69017981Y-119275414D01*
%TO.C,C255*%
X105130400Y-109386800D02*
X105130400Y-110786800D01*
X105130400Y-110786800D02*
X105830400Y-110786800D01*
X105830400Y-109386800D02*
X105130400Y-109386800D01*
X105830400Y-110786800D02*
X105830400Y-109386800D01*
%TO.C,R72*%
X132868462Y-88855028D02*
X132868462Y-89795028D01*
X132868462Y-89795028D02*
X134728462Y-89795028D01*
X134728462Y-88855028D02*
X132868462Y-88855028D01*
X134728462Y-89795028D02*
X134728462Y-88855028D01*
%TO.C,C213*%
X84455481Y-104235014D02*
X84455481Y-105155014D01*
X84455481Y-105155014D02*
X86275481Y-105155014D01*
X86275481Y-104235014D02*
X84455481Y-104235014D01*
X86275481Y-105155014D02*
X86275481Y-104235014D01*
%TO.C,C12*%
X129333462Y-83960028D02*
X129333462Y-85780028D01*
X129333462Y-85780028D02*
X130253462Y-85780028D01*
X130253462Y-83960028D02*
X129333462Y-83960028D01*
X130253462Y-85780028D02*
X130253462Y-83960028D01*
%TO.C,C113*%
X89795481Y-104695014D02*
X89795481Y-105395014D01*
X89795481Y-105395014D02*
X91195481Y-105395014D01*
X91195481Y-104695014D02*
X89795481Y-104695014D01*
X91195481Y-105395014D02*
X91195481Y-104695014D01*
%TO.C,C29*%
X119885481Y-105515014D02*
X119885481Y-106975014D01*
X119885481Y-106975014D02*
X122845481Y-106975014D01*
X122845481Y-105515014D02*
X119885481Y-105515014D01*
X122845481Y-106975014D02*
X122845481Y-105515014D01*
%TO.C,C183*%
X94165481Y-112645014D02*
X94165481Y-114045014D01*
X94165481Y-114045014D02*
X94865481Y-114045014D01*
X94865481Y-112645014D02*
X94165481Y-112645014D01*
X94865481Y-114045014D02*
X94865481Y-112645014D01*
%TO.C,C89*%
X90023081Y-101546014D02*
X90023081Y-102246014D01*
X90023081Y-102246014D02*
X91423081Y-102246014D01*
X91423081Y-101546014D02*
X90023081Y-101546014D01*
X91423081Y-102246014D02*
X91423081Y-101546014D01*
%TO.C,C209*%
X100905425Y-116862665D02*
X100905425Y-117562665D01*
X100905425Y-117562665D02*
X102305425Y-117562665D01*
X102305425Y-116862665D02*
X100905425Y-116862665D01*
X102305425Y-117562665D02*
X102305425Y-116862665D01*
%TO.C,C334*%
X63085000Y-114995400D02*
X63085000Y-115915400D01*
X63085000Y-115915400D02*
X64905000Y-115915400D01*
X64905000Y-114995400D02*
X63085000Y-114995400D01*
X64905000Y-115915400D02*
X64905000Y-114995400D01*
%TO.C,C178*%
X100806365Y-113676235D02*
X100806365Y-114376235D01*
X100806365Y-114376235D02*
X102206365Y-114376235D01*
X102206365Y-113676235D02*
X100806365Y-113676235D01*
X102206365Y-114376235D02*
X102206365Y-113676235D01*
%TO.C,C256*%
X107907513Y-110446881D02*
X107907513Y-113406881D01*
X107907513Y-113406881D02*
X109367513Y-113406881D01*
X109367513Y-110446881D02*
X107907513Y-110446881D01*
X109367513Y-113406881D02*
X109367513Y-110446881D01*
%TO.C,C123*%
X89115481Y-107945014D02*
X89115481Y-108645014D01*
X89115481Y-108645014D02*
X90515481Y-108645014D01*
X90515481Y-107945014D02*
X89115481Y-107945014D01*
X90515481Y-108645014D02*
X90515481Y-107945014D01*
%TO.C,C250*%
X100265481Y-103923790D02*
X100265481Y-105323790D01*
X100265481Y-105323790D02*
X100965481Y-105323790D01*
X100965481Y-103923790D02*
X100265481Y-103923790D01*
X100965481Y-105323790D02*
X100965481Y-103923790D01*
%TO.C,C202*%
X93841800Y-111342632D02*
X93841800Y-112742632D01*
X93841800Y-112742632D02*
X94541800Y-112742632D01*
X94541800Y-111342632D02*
X93841800Y-111342632D01*
X94541800Y-112742632D02*
X94541800Y-111342632D01*
%TO.C,C267*%
X111533000Y-104004200D02*
X111533000Y-105404200D01*
X111533000Y-105404200D02*
X112233000Y-105404200D01*
X112233000Y-104004200D02*
X111533000Y-104004200D01*
X112233000Y-105404200D02*
X112233000Y-104004200D01*
%TO.C,C90*%
X90023081Y-100809414D02*
X90023081Y-101509414D01*
X90023081Y-101509414D02*
X91423081Y-101509414D01*
X91423081Y-100809414D02*
X90023081Y-100809414D01*
X91423081Y-101509414D02*
X91423081Y-100809414D01*
%TO.C,C265*%
X114270000Y-116030400D02*
X114270000Y-117430400D01*
X114270000Y-117430400D02*
X114970000Y-117430400D01*
X114970000Y-116030400D02*
X114270000Y-116030400D01*
X114970000Y-117430400D02*
X114970000Y-116030400D01*
%TO.C,C234*%
X94553000Y-111225014D02*
X94553000Y-112625014D01*
X94553000Y-112625014D02*
X95253000Y-112625014D01*
X95253000Y-111225014D02*
X94553000Y-111225014D01*
X95253000Y-112625014D02*
X95253000Y-111225014D01*
%TO.C,C190*%
X95665481Y-118320014D02*
X95665481Y-119720014D01*
X95665481Y-119720014D02*
X96365481Y-119720014D01*
X96365481Y-118320014D02*
X95665481Y-118320014D01*
X96365481Y-119720014D02*
X96365481Y-118320014D01*
%TO.C,C162*%
X90515481Y-111245014D02*
X90515481Y-112645014D01*
X90515481Y-112645014D02*
X91215481Y-112645014D01*
X91215481Y-111245014D02*
X90515481Y-111245014D01*
X91215481Y-112645014D02*
X91215481Y-111245014D01*
%TO.C,R70*%
X103994400Y-110731600D02*
X103994400Y-112591600D01*
X103994400Y-112591600D02*
X104934400Y-112591600D01*
X104934400Y-110731600D02*
X103994400Y-110731600D01*
X104934400Y-112591600D02*
X104934400Y-110731600D01*
%TO.C,R75*%
X77169281Y-110265214D02*
X77169281Y-111205214D01*
X77169281Y-111205214D02*
X79029281Y-111205214D01*
X79029281Y-110265214D02*
X77169281Y-110265214D01*
X79029281Y-111205214D02*
X79029281Y-110265214D01*
%TO.C,C220*%
X95469301Y-111843369D02*
X95469301Y-112543369D01*
X95469301Y-112543369D02*
X96869301Y-112543369D01*
X96869301Y-111843369D02*
X95469301Y-111843369D01*
X96869301Y-112543369D02*
X96869301Y-111843369D01*
%TO.C,C72*%
X97377481Y-121918014D02*
X97377481Y-122618014D01*
X97377481Y-122618014D02*
X98777481Y-122618014D01*
X98777481Y-121918014D02*
X97377481Y-121918014D01*
X98777481Y-122618014D02*
X98777481Y-121918014D01*
%TO.C,C203*%
X94352400Y-107937600D02*
X94352400Y-109757600D01*
X94352400Y-109757600D02*
X95272400Y-109757600D01*
X95272400Y-107937600D02*
X94352400Y-107937600D01*
X95272400Y-109757600D02*
X95272400Y-107937600D01*
%TO.C,C159*%
X101157705Y-105814790D02*
X101157705Y-106734790D01*
X101157705Y-106734790D02*
X102977705Y-106734790D01*
X102977705Y-105814790D02*
X101157705Y-105814790D01*
X102977705Y-106734790D02*
X102977705Y-105814790D01*
%TO.C,R100*%
X70053081Y-126723014D02*
X70053081Y-128123014D01*
X70053081Y-128123014D02*
X70753081Y-128123014D01*
X70753081Y-126723014D02*
X70053081Y-126723014D01*
X70753081Y-128123014D02*
X70753081Y-126723014D01*
%TO.C,C197*%
X98935481Y-114515014D02*
X98935481Y-115215014D01*
X98935481Y-115215014D02*
X100335481Y-115215014D01*
X100335481Y-114515014D02*
X98935481Y-114515014D01*
X100335481Y-115215014D02*
X100335481Y-114515014D01*
%TO.C,C117*%
X87765481Y-111920014D02*
X87765481Y-113320014D01*
X87765481Y-113320014D02*
X88465481Y-113320014D01*
X88465481Y-111920014D02*
X87765481Y-111920014D01*
X88465481Y-113320014D02*
X88465481Y-111920014D01*
%TO.C,C235*%
X89800000Y-108950000D02*
X89800000Y-109650000D01*
X89800000Y-109650000D02*
X91200000Y-109650000D01*
X91200000Y-108950000D02*
X89800000Y-108950000D01*
X91200000Y-109650000D02*
X91200000Y-108950000D01*
%TO.C,C135*%
X95320481Y-107620014D02*
X95320481Y-108320014D01*
X95320481Y-108320014D02*
X96720481Y-108320014D01*
X96720481Y-107620014D02*
X95320481Y-107620014D01*
X96720481Y-108320014D02*
X96720481Y-107620014D01*
%TO.C,C281*%
X78290000Y-108470400D02*
X78290000Y-109390400D01*
X78290000Y-109390400D02*
X80110000Y-109390400D01*
X80110000Y-108470400D02*
X78290000Y-108470400D01*
X80110000Y-109390400D02*
X80110000Y-108470400D01*
%TO.C,C189*%
X101665481Y-103932045D02*
X101665481Y-105332045D01*
X101665481Y-105332045D02*
X102365481Y-105332045D01*
X102365481Y-103932045D02*
X101665481Y-103932045D01*
X102365481Y-105332045D02*
X102365481Y-103932045D01*
%TO.C,C206*%
X98874695Y-107839414D02*
X98874695Y-108539414D01*
X98874695Y-108539414D02*
X100274695Y-108539414D01*
X100274695Y-107839414D02*
X98874695Y-107839414D01*
X100274695Y-108539414D02*
X100274695Y-107839414D01*
%TO.C,C175*%
X96843965Y-109697325D02*
X96843965Y-110397325D01*
X96843965Y-110397325D02*
X98243965Y-110397325D01*
X98243965Y-109697325D02*
X96843965Y-109697325D01*
X98243965Y-110397325D02*
X98243965Y-109697325D01*
%TO.C,R71*%
X103994400Y-108852000D02*
X103994400Y-110712000D01*
X103994400Y-110712000D02*
X104934400Y-110712000D01*
X104934400Y-108852000D02*
X103994400Y-108852000D01*
X104934400Y-110712000D02*
X104934400Y-108852000D01*
%TO.C,C285*%
X75460000Y-109120400D02*
X75460000Y-110940400D01*
X75460000Y-110940400D02*
X76380000Y-110940400D01*
X76380000Y-109120400D02*
X75460000Y-109120400D01*
X76380000Y-110940400D02*
X76380000Y-109120400D01*
%TO.C,R99*%
X69341881Y-126723014D02*
X69341881Y-128123014D01*
X69341881Y-128123014D02*
X70041881Y-128123014D01*
X70041881Y-126723014D02*
X69341881Y-126723014D01*
X70041881Y-128123014D02*
X70041881Y-126723014D01*
%TO.C,C128*%
X93765481Y-116845014D02*
X93765481Y-117545014D01*
X93765481Y-117545014D02*
X95165481Y-117545014D01*
X95165481Y-116845014D02*
X93765481Y-116845014D01*
X95165481Y-117545014D02*
X95165481Y-116845014D01*
%TO.C,C299*%
X88696681Y-94302414D02*
X88696681Y-95702414D01*
X88696681Y-95702414D02*
X89396681Y-95702414D01*
X89396681Y-94302414D02*
X88696681Y-94302414D01*
X89396681Y-95702414D02*
X89396681Y-94302414D01*
%TO.C,C237*%
X91018000Y-113024200D02*
X91018000Y-113724200D01*
X91018000Y-113724200D02*
X92418000Y-113724200D01*
X92418000Y-113024200D02*
X91018000Y-113024200D01*
X92418000Y-113724200D02*
X92418000Y-113024200D01*
%TO.C,C177*%
X100900460Y-117577560D02*
X100900460Y-118977560D01*
X100900460Y-118977560D02*
X101600460Y-118977560D01*
X101600460Y-117577560D02*
X100900460Y-117577560D01*
X101600460Y-118977560D02*
X101600460Y-117577560D01*
%TO.C,C248*%
X99675430Y-109334105D02*
X99675430Y-110034105D01*
X99675430Y-110034105D02*
X101075430Y-110034105D01*
X101075430Y-109334105D02*
X99675430Y-109334105D01*
X101075430Y-110034105D02*
X101075430Y-109334105D01*
%TO.C,C7*%
X126333462Y-89197528D02*
X126333462Y-91017528D01*
X126333462Y-91017528D02*
X127253462Y-91017528D01*
X127253462Y-89197528D02*
X126333462Y-89197528D01*
X127253462Y-91017528D02*
X127253462Y-89197528D01*
%TO.C,Y4*%
X79377481Y-87012014D02*
X83577481Y-87012014D01*
X79377481Y-93412014D02*
X79377481Y-87012014D01*
X83577481Y-87012014D02*
X83577481Y-93412014D01*
X83577481Y-93412014D02*
X79377481Y-93412014D01*
%TO.C,C304*%
X80421881Y-97177214D02*
X80421881Y-97877214D01*
X80421881Y-97877214D02*
X81821881Y-97877214D01*
X81821881Y-97177214D02*
X80421881Y-97177214D01*
X81821881Y-97877214D02*
X81821881Y-97177214D01*
%TO.C,C134*%
X95405481Y-112435014D02*
X95405481Y-114255014D01*
X95405481Y-114255014D02*
X96325481Y-114255014D01*
X96325481Y-112435014D02*
X95405481Y-112435014D01*
X96325481Y-114255014D02*
X96325481Y-112435014D01*
%TO.C,C233*%
X92419400Y-111344400D02*
X92419400Y-112744400D01*
X92419400Y-112744400D02*
X93119400Y-112744400D01*
X93119400Y-111344400D02*
X92419400Y-111344400D01*
X93119400Y-112744400D02*
X93119400Y-111344400D01*
%TO.C,C6*%
X124483462Y-89047528D02*
X124483462Y-89967528D01*
X124483462Y-89967528D02*
X126303462Y-89967528D01*
X126303462Y-89047528D02*
X124483462Y-89047528D01*
X126303462Y-89967528D02*
X126303462Y-89047528D01*
%TO.C,C151*%
X89815481Y-111245014D02*
X89815481Y-112645014D01*
X89815481Y-112645014D02*
X90515481Y-112645014D01*
X90515481Y-111245014D02*
X89815481Y-111245014D01*
X90515481Y-112645014D02*
X90515481Y-111245014D01*
%TO.C,Y3*%
X86743481Y-85996014D02*
X90943481Y-85996014D01*
X86743481Y-92396014D02*
X86743481Y-85996014D01*
X90943481Y-85996014D02*
X90943481Y-92396014D01*
X90943481Y-92396014D02*
X86743481Y-92396014D01*
%TO.C,C275*%
X71067481Y-99378614D02*
X71067481Y-100298614D01*
X71067481Y-100298614D02*
X72887481Y-100298614D01*
X72887481Y-99378614D02*
X71067481Y-99378614D01*
X72887481Y-100298614D02*
X72887481Y-99378614D01*
%TO.C,C201*%
X94465481Y-97895014D02*
X94465481Y-99295014D01*
X94465481Y-99295014D02*
X95165481Y-99295014D01*
X95165481Y-97895014D02*
X94465481Y-97895014D01*
X95165481Y-99295014D02*
X95165481Y-97895014D01*
%TO.C,U18*%
X68552481Y-82473014D02*
X75952481Y-82473014D01*
X68552481Y-87873014D02*
X68552481Y-82473014D01*
X75952481Y-82473014D02*
X75952481Y-87873014D01*
X75952481Y-87873014D02*
X68552481Y-87873014D01*
%TO.C,C306*%
X82702281Y-97706014D02*
X82702281Y-99106014D01*
X82702281Y-99106014D02*
X83402281Y-99106014D01*
X83402281Y-97706014D02*
X82702281Y-97706014D01*
X83402281Y-99106014D02*
X83402281Y-97706014D01*
%TO.C,C214*%
X91185800Y-108624800D02*
X91185800Y-110024800D01*
X91185800Y-110024800D02*
X91885800Y-110024800D01*
X91885800Y-108624800D02*
X91185800Y-108624800D01*
X91885800Y-110024800D02*
X91885800Y-108624800D01*
%TO.C,C283*%
X79020000Y-110965000D02*
X79020000Y-111885000D01*
X79020000Y-111885000D02*
X80840000Y-111885000D01*
X80840000Y-110965000D02*
X79020000Y-110965000D01*
X80840000Y-111885000D02*
X80840000Y-110965000D01*
%TO.C,C2*%
X127033462Y-83960028D02*
X127033462Y-85780028D01*
X127033462Y-85780028D02*
X127953462Y-85780028D01*
X127953462Y-83960028D02*
X127033462Y-83960028D01*
X127953462Y-85780028D02*
X127953462Y-83960028D01*
%TO.C,C324*%
X69560000Y-113520400D02*
X69560000Y-114440400D01*
X69560000Y-114440400D02*
X71380000Y-114440400D01*
X71380000Y-113520400D02*
X69560000Y-113520400D01*
X71380000Y-114440400D02*
X71380000Y-113520400D01*
%TO.C,C42*%
X124743462Y-109570028D02*
X124743462Y-114170028D01*
X124743462Y-114170028D02*
X127043462Y-114170028D01*
X127043462Y-109570028D02*
X124743462Y-109570028D01*
X127043462Y-114170028D02*
X127043462Y-109570028D01*
%TO.C,C187*%
X96754000Y-107019000D02*
X96754000Y-107719000D01*
X96754000Y-107719000D02*
X98154000Y-107719000D01*
X98154000Y-107019000D02*
X96754000Y-107019000D01*
X98154000Y-107719000D02*
X98154000Y-107019000D01*
%TO.C,C303*%
X83368281Y-96872414D02*
X83368281Y-97572414D01*
X83368281Y-97572414D02*
X84768281Y-97572414D01*
X84768281Y-96872414D02*
X83368281Y-96872414D01*
X84768281Y-97572414D02*
X84768281Y-96872414D01*
%TO.C,C140*%
X91165481Y-115195014D02*
X91165481Y-116595014D01*
X91165481Y-116595014D02*
X91865481Y-116595014D01*
X91865481Y-115195014D02*
X91165481Y-115195014D01*
X91865481Y-116595014D02*
X91865481Y-115195014D01*
%TO.C,C321*%
X69710000Y-112232900D02*
X69710000Y-113152900D01*
X69710000Y-113152900D02*
X71530000Y-113152900D01*
X71530000Y-112232900D02*
X69710000Y-112232900D01*
X71530000Y-113152900D02*
X71530000Y-112232900D01*
%TO.C,C115*%
X87020281Y-112397414D02*
X87020281Y-113797414D01*
X87020281Y-113797414D02*
X87720281Y-113797414D01*
X87720281Y-112397414D02*
X87020281Y-112397414D01*
X87720281Y-113797414D02*
X87720281Y-112397414D01*
%TO.C,C13*%
X129483462Y-88247528D02*
X129483462Y-89167528D01*
X129483462Y-89167528D02*
X131303462Y-89167528D01*
X131303462Y-88247528D02*
X129483462Y-88247528D01*
X131303462Y-89167528D02*
X131303462Y-88247528D01*
%TO.C,C300*%
X88290281Y-97792414D02*
X88290281Y-99192414D01*
X88290281Y-99192414D02*
X88990281Y-99192414D01*
X88990281Y-97792414D02*
X88290281Y-97792414D01*
X88990281Y-99192414D02*
X88990281Y-97792414D01*
%TO.C,C308*%
X81437881Y-93722814D02*
X81437881Y-94422814D01*
X81437881Y-94422814D02*
X82837881Y-94422814D01*
X82837881Y-93722814D02*
X81437881Y-93722814D01*
X82837881Y-94422814D02*
X82837881Y-93722814D01*
%TO.C,C263*%
X107320000Y-115505400D02*
X107320000Y-116905400D01*
X107320000Y-116905400D02*
X108020000Y-116905400D01*
X108020000Y-115505400D02*
X107320000Y-115505400D01*
X108020000Y-116905400D02*
X108020000Y-115505400D01*
%TO.C,C305*%
X85959081Y-94434014D02*
X85959081Y-95134014D01*
X85959081Y-95134014D02*
X87359081Y-95134014D01*
X87359081Y-94434014D02*
X85959081Y-94434014D01*
X87359081Y-95134014D02*
X87359081Y-94434014D01*
%TO.C,C94*%
X93929081Y-121439814D02*
X93929081Y-122839814D01*
X93929081Y-122839814D02*
X94629081Y-122839814D01*
X94629081Y-121439814D02*
X93929081Y-121439814D01*
X94629081Y-122839814D02*
X94629081Y-121439814D01*
%TO.C,C298*%
X80015481Y-94434014D02*
X80015481Y-95134014D01*
X80015481Y-95134014D02*
X81415481Y-95134014D01*
X81415481Y-94434014D02*
X80015481Y-94434014D01*
X81415481Y-95134014D02*
X81415481Y-94434014D01*
%TO.C,FB6*%
X82833481Y-94263214D02*
X82833481Y-95203214D01*
X82833481Y-95203214D02*
X84693481Y-95203214D01*
X84693481Y-94263214D02*
X82833481Y-94263214D01*
X84693481Y-95203214D02*
X84693481Y-94263214D01*
%TO.C,C330*%
X63085000Y-118520400D02*
X63085000Y-119440400D01*
X63085000Y-119440400D02*
X64905000Y-119440400D01*
X64905000Y-118520400D02*
X63085000Y-118520400D01*
X64905000Y-119440400D02*
X64905000Y-118520400D01*
%TO.C,C191*%
X90883683Y-110387139D02*
X90883683Y-111307139D01*
X90883683Y-111307139D02*
X92703683Y-111307139D01*
X92703683Y-110387139D02*
X90883683Y-110387139D01*
X92703683Y-111307139D02*
X92703683Y-110387139D01*
%TO.C,C116*%
X89165481Y-111895014D02*
X89165481Y-113295014D01*
X89165481Y-113295014D02*
X89865481Y-113295014D01*
X89865481Y-111895014D02*
X89165481Y-111895014D01*
X89865481Y-113295014D02*
X89865481Y-111895014D01*
%TO.C,C196*%
X92273019Y-113442501D02*
X92767994Y-113937476D01*
X92767994Y-113937476D02*
X93757943Y-112947527D01*
X93262968Y-112452552D02*
X92273019Y-113442501D01*
X93757943Y-112947527D02*
X93262968Y-112452552D01*
%TO.C,C171*%
X91837145Y-104144612D02*
X92487683Y-104795150D01*
X92487683Y-104795150D02*
X93774617Y-103508216D01*
X93124079Y-102857678D02*
X91837145Y-104144612D01*
X93774617Y-103508216D02*
X93124079Y-102857678D01*
%TO.C,C336*%
X69560000Y-114620400D02*
X69560000Y-115540400D01*
X69560000Y-115540400D02*
X71380000Y-115540400D01*
X71380000Y-114620400D02*
X69560000Y-114620400D01*
X71380000Y-115540400D02*
X71380000Y-114620400D01*
%TO.C,C139*%
X93823019Y-107317501D02*
X94317994Y-107812476D01*
X94317994Y-107812476D02*
X95307943Y-106822527D01*
X94812968Y-106327552D02*
X93823019Y-107317501D01*
X95307943Y-106822527D02*
X94812968Y-106327552D01*
%TO.C,C180*%
X95334181Y-110460157D02*
X95334181Y-111860157D01*
X95334181Y-111860157D02*
X96034181Y-111860157D01*
X96034181Y-110460157D02*
X95334181Y-110460157D01*
X96034181Y-111860157D02*
X96034181Y-110460157D01*
%TO.C,C253*%
X113065481Y-113495014D02*
X113065481Y-114895014D01*
X113065481Y-114895014D02*
X113765481Y-114895014D01*
X113765481Y-113495014D02*
X113065481Y-113495014D01*
X113765481Y-114895014D02*
X113765481Y-113495014D01*
%TO.C,C172*%
X94765481Y-112595014D02*
X94765481Y-113995014D01*
X94765481Y-113995014D02*
X95465481Y-113995014D01*
X95465481Y-112595014D02*
X94765481Y-112595014D01*
X95465481Y-113995014D02*
X95465481Y-112595014D01*
%TO.C,C217*%
X98272080Y-111348325D02*
X98272080Y-112048325D01*
X98272080Y-112048325D02*
X99672080Y-112048325D01*
X99672080Y-111348325D02*
X98272080Y-111348325D01*
X99672080Y-112048325D02*
X99672080Y-111348325D01*
%TO.C,D1*%
X126746481Y-119012414D02*
X126746481Y-122512414D01*
X126746481Y-122512414D02*
X133746481Y-122512414D01*
X133746481Y-119012414D02*
X126746481Y-119012414D01*
X133746481Y-122512414D02*
X133746481Y-119012414D01*
%TO.C,C155*%
X102055481Y-85485014D02*
X102055481Y-87305014D01*
X102055481Y-87305014D02*
X102975481Y-87305014D01*
X102975481Y-85485014D02*
X102055481Y-85485014D01*
X102975481Y-87305014D02*
X102975481Y-85485014D01*
%TO.C,C254*%
X105028800Y-111012400D02*
X105028800Y-112412400D01*
X105028800Y-112412400D02*
X105728800Y-112412400D01*
X105728800Y-111012400D02*
X105028800Y-111012400D01*
X105728800Y-112412400D02*
X105728800Y-111012400D01*
%TO.C,C333*%
X66060000Y-119275414D02*
X66060000Y-121095414D01*
X66060000Y-121095414D02*
X66980000Y-121095414D01*
X66980000Y-119275414D02*
X66060000Y-119275414D01*
X66980000Y-121095414D02*
X66980000Y-119275414D01*
%TO.C,C329*%
X65160000Y-112782900D02*
X65160000Y-114602900D01*
X65160000Y-114602900D02*
X66080000Y-114602900D01*
X66080000Y-112782900D02*
X65160000Y-112782900D01*
X66080000Y-114602900D02*
X66080000Y-112782900D01*
%TO.C,C68*%
X67779881Y-105565014D02*
X67779881Y-110165014D01*
X67779881Y-110165014D02*
X70079881Y-110165014D01*
X70079881Y-105565014D02*
X67779881Y-105565014D01*
X70079881Y-110165014D02*
X70079881Y-105565014D01*
%TO.C,FB2*%
X96628081Y-108372814D02*
X96628081Y-109072814D01*
X96628081Y-109072814D02*
X98028081Y-109072814D01*
X98028081Y-108372814D02*
X96628081Y-108372814D01*
X98028081Y-109072814D02*
X98028081Y-108372814D01*
%TO.C,C238*%
X98255570Y-109713835D02*
X98255570Y-110413835D01*
X98255570Y-110413835D02*
X99655570Y-110413835D01*
X99655570Y-109713835D02*
X98255570Y-109713835D01*
X99655570Y-110413835D02*
X99655570Y-109713835D01*
%TO.C,C93*%
X93217881Y-121439814D02*
X93217881Y-122839814D01*
X93217881Y-122839814D02*
X93917881Y-122839814D01*
X93917881Y-121439814D02*
X93217881Y-121439814D01*
X93917881Y-122839814D02*
X93917881Y-121439814D01*
%TO.C,C156*%
X97896980Y-110421080D02*
X97896980Y-111341080D01*
X97896980Y-111341080D02*
X99716980Y-111341080D01*
X99716980Y-110421080D02*
X97896980Y-110421080D01*
X99716980Y-111341080D02*
X99716980Y-110421080D01*
%TO.C,R57*%
X96215000Y-103951200D02*
X96215000Y-105351200D01*
X96215000Y-105351200D02*
X96915000Y-105351200D01*
X96915000Y-103951200D02*
X96215000Y-103951200D01*
X96915000Y-105351200D02*
X96915000Y-103951200D01*
%TO.C,C219*%
X102365481Y-103932045D02*
X102365481Y-105332045D01*
X102365481Y-105332045D02*
X103065481Y-105332045D01*
X103065481Y-103932045D02*
X102365481Y-103932045D01*
X103065481Y-105332045D02*
X103065481Y-103932045D01*
%TO.C,C280*%
X75140000Y-111415000D02*
X75140000Y-112335000D01*
X75140000Y-112335000D02*
X76960000Y-112335000D01*
X76960000Y-111415000D02*
X75140000Y-111415000D01*
X76960000Y-112335000D02*
X76960000Y-111415000D01*
%TO.C,C92*%
X92430481Y-121439814D02*
X92430481Y-122839814D01*
X92430481Y-122839814D02*
X93130481Y-122839814D01*
X93130481Y-121439814D02*
X92430481Y-121439814D01*
X93130481Y-122839814D02*
X93130481Y-121439814D01*
%TO.C,C15*%
X125908462Y-83990028D02*
X125908462Y-85810028D01*
X125908462Y-85810028D02*
X126828462Y-85810028D01*
X126828462Y-83990028D02*
X125908462Y-83990028D01*
X126828462Y-85810028D02*
X126828462Y-83990028D01*
%TO.C,C146*%
X89165481Y-117045014D02*
X89165481Y-118445014D01*
X89165481Y-118445014D02*
X89865481Y-118445014D01*
X89865481Y-117045014D02*
X89165481Y-117045014D01*
X89865481Y-118445014D02*
X89865481Y-117045014D01*
%TO.C,C221*%
X96365175Y-112858990D02*
X96365175Y-113558990D01*
X96365175Y-113558990D02*
X97765175Y-113558990D01*
X97765175Y-112858990D02*
X96365175Y-112858990D01*
X97765175Y-113558990D02*
X97765175Y-112858990D01*
%TO.C,C326*%
X69510000Y-119520400D02*
X69510000Y-121340400D01*
X69510000Y-121340400D02*
X70430000Y-121340400D01*
X70430000Y-119520400D02*
X69510000Y-119520400D01*
X70430000Y-121340400D02*
X70430000Y-119520400D01*
%TO.C,C153*%
X97027800Y-103367000D02*
X97027800Y-104767000D01*
X97027800Y-104767000D02*
X97727800Y-104767000D01*
X97727800Y-103367000D02*
X97027800Y-103367000D01*
X97727800Y-104767000D02*
X97727800Y-103367000D01*
%TO.C,C319*%
X64210000Y-112820400D02*
X64210000Y-114640400D01*
X64210000Y-114640400D02*
X65130000Y-114640400D01*
X65130000Y-112820400D02*
X64210000Y-112820400D01*
X65130000Y-114640400D02*
X65130000Y-112820400D01*
%TO.C,C231*%
X100814620Y-114373014D02*
X100814620Y-115073014D01*
X100814620Y-115073014D02*
X102214620Y-115073014D01*
X102214620Y-114373014D02*
X100814620Y-114373014D01*
X102214620Y-115073014D02*
X102214620Y-114373014D01*
%TO.C,C232*%
X88365481Y-107220014D02*
X88365481Y-107920014D01*
X88365481Y-107920014D02*
X89765481Y-107920014D01*
X89765481Y-107220014D02*
X88365481Y-107220014D01*
X89765481Y-107920014D02*
X89765481Y-107220014D01*
%TO.C,R35*%
X102088281Y-111666614D02*
X102088281Y-112606614D01*
X102088281Y-112606614D02*
X103948281Y-112606614D01*
X103948281Y-111666614D02*
X102088281Y-111666614D01*
X103948281Y-112606614D02*
X103948281Y-111666614D01*
%TO.C,C152*%
X94255481Y-113885014D02*
X94255481Y-115705014D01*
X94255481Y-115705014D02*
X95175481Y-115705014D01*
X95175481Y-113885014D02*
X94255481Y-113885014D01*
X95175481Y-115705014D02*
X95175481Y-113885014D01*
%TO.C,C264*%
X115323000Y-113674200D02*
X115323000Y-115074200D01*
X115323000Y-115074200D02*
X116023000Y-115074200D01*
X116023000Y-113674200D02*
X115323000Y-113674200D01*
X116023000Y-115074200D02*
X116023000Y-113674200D01*
%TO.C,C169*%
X99721335Y-110457414D02*
X99721335Y-111377414D01*
X99721335Y-111377414D02*
X101541335Y-111377414D01*
X101541335Y-110457414D02*
X99721335Y-110457414D01*
X101541335Y-111377414D02*
X101541335Y-110457414D01*
%TO.C,R39*%
X85850000Y-112510400D02*
X85850000Y-114370400D01*
X85850000Y-114370400D02*
X86790000Y-114370400D01*
X86790000Y-112510400D02*
X85850000Y-112510400D01*
X86790000Y-114370400D02*
X86790000Y-112510400D01*
%TO.C,C44*%
X123728462Y-104970028D02*
X123728462Y-109570028D01*
X123728462Y-109570028D02*
X126028462Y-109570028D01*
X126028462Y-104970028D02*
X123728462Y-104970028D01*
X126028462Y-109570028D02*
X126028462Y-104970028D01*
%TO.C,C88*%
X101529200Y-110600400D02*
X101529200Y-111300400D01*
X101529200Y-111300400D02*
X102929200Y-111300400D01*
X102929200Y-110600400D02*
X101529200Y-110600400D01*
X102929200Y-111300400D02*
X102929200Y-110600400D01*
%TO.C,C121*%
X88340481Y-110495014D02*
X88340481Y-111895014D01*
X88340481Y-111895014D02*
X89040481Y-111895014D01*
X89040481Y-110495014D02*
X88340481Y-110495014D01*
X89040481Y-111895014D02*
X89040481Y-110495014D01*
%TO.C,C225*%
X93649600Y-108980400D02*
X93649600Y-110380400D01*
X93649600Y-110380400D02*
X94349600Y-110380400D01*
X94349600Y-108980400D02*
X93649600Y-108980400D01*
X94349600Y-110380400D02*
X94349600Y-108980400D01*
%TO.C,C332*%
X69510000Y-117620400D02*
X69510000Y-118540400D01*
X69510000Y-118540400D02*
X71330000Y-118540400D01*
X71330000Y-117620400D02*
X69510000Y-117620400D01*
X71330000Y-118540400D02*
X71330000Y-117620400D01*
%TO.C,C91*%
X91719281Y-121439814D02*
X91719281Y-122839814D01*
X91719281Y-122839814D02*
X92419281Y-122839814D01*
X92419281Y-121439814D02*
X91719281Y-121439814D01*
X92419281Y-122839814D02*
X92419281Y-121439814D01*
%TO.C,C228*%
X98280335Y-112074765D02*
X98280335Y-112774765D01*
X98280335Y-112774765D02*
X99680335Y-112774765D01*
X99680335Y-112074765D02*
X98280335Y-112074765D01*
X99680335Y-112774765D02*
X99680335Y-112074765D01*
%TO.C,C286*%
X75940000Y-113765000D02*
X75940000Y-114685000D01*
X75940000Y-114685000D02*
X77760000Y-114685000D01*
X77760000Y-113765000D02*
X75940000Y-113765000D01*
X77760000Y-114685000D02*
X77760000Y-113765000D01*
%TO.C,C294*%
X86009881Y-97634414D02*
X86009881Y-98334414D01*
X86009881Y-98334414D02*
X87409881Y-98334414D01*
X87409881Y-97634414D02*
X86009881Y-97634414D01*
X87409881Y-98334414D02*
X87409881Y-97634414D01*
%TO.C,R64*%
X112612863Y-109594729D02*
X112612863Y-110534729D01*
X112612863Y-110534729D02*
X114472863Y-110534729D01*
X114472863Y-109594729D02*
X112612863Y-109594729D01*
X114472863Y-110534729D02*
X114472863Y-109594729D01*
%TO.C,C242*%
X95459681Y-108322014D02*
X95459681Y-109022014D01*
X95459681Y-109022014D02*
X96859681Y-109022014D01*
X96859681Y-108322014D02*
X95459681Y-108322014D01*
X96859681Y-109022014D02*
X96859681Y-108322014D01*
%TO.C,C204*%
X93391052Y-107620546D02*
X93391052Y-109020546D01*
X93391052Y-109020546D02*
X94091052Y-109020546D01*
X94091052Y-107620546D02*
X93391052Y-107620546D01*
X94091052Y-109020546D02*
X94091052Y-107620546D01*
%TO.C,R73*%
X74240000Y-105522900D02*
X74240000Y-106462900D01*
X74240000Y-106462900D02*
X76100000Y-106462900D01*
X76100000Y-105522900D02*
X74240000Y-105522900D01*
X76100000Y-106462900D02*
X76100000Y-105522900D01*
%TO.C,C131*%
X103355481Y-94385014D02*
X103355481Y-95305014D01*
X103355481Y-95305014D02*
X105175481Y-95305014D01*
X105175481Y-94385014D02*
X103355481Y-94385014D01*
X105175481Y-95305014D02*
X105175481Y-94385014D01*
%TO.C,C335*%
X69510000Y-116670400D02*
X69510000Y-117590400D01*
X69510000Y-117590400D02*
X71330000Y-117590400D01*
X71330000Y-116670400D02*
X69510000Y-116670400D01*
X71330000Y-117590400D02*
X71330000Y-116670400D01*
%TO.C,C179*%
X92759481Y-110404632D02*
X92759481Y-111324632D01*
X92759481Y-111324632D02*
X94579481Y-111324632D01*
X94579481Y-110404632D02*
X92759481Y-110404632D01*
X94579481Y-111324632D02*
X94579481Y-110404632D01*
%TO.C,C218*%
X101066400Y-108523200D02*
X101066400Y-109923200D01*
X101066400Y-109923200D02*
X101766400Y-109923200D01*
X101766400Y-108523200D02*
X101066400Y-108523200D01*
X101766400Y-109923200D02*
X101766400Y-108523200D01*
%TO.C,C240*%
X100657775Y-112471005D02*
X100657775Y-113171005D01*
X100657775Y-113171005D02*
X102057775Y-113171005D01*
X102057775Y-112471005D02*
X100657775Y-112471005D01*
X102057775Y-113171005D02*
X102057775Y-112471005D01*
%TO.C,C262*%
X107415481Y-104645014D02*
X107415481Y-106045014D01*
X107415481Y-106045014D02*
X108115481Y-106045014D01*
X108115481Y-104645014D02*
X107415481Y-104645014D01*
X108115481Y-106045014D02*
X108115481Y-104645014D01*
%TO.C,C269*%
X117020000Y-113830400D02*
X117020000Y-115230400D01*
X117020000Y-115230400D02*
X117720000Y-115230400D01*
X117720000Y-113830400D02*
X117020000Y-113830400D01*
X117720000Y-115230400D02*
X117720000Y-113830400D01*
%TO.C,C37*%
X122443462Y-109570028D02*
X122443462Y-114170028D01*
X122443462Y-114170028D02*
X124743462Y-114170028D01*
X124743462Y-109570028D02*
X122443462Y-109570028D01*
X124743462Y-114170028D02*
X124743462Y-109570028D01*
%TO.C,C260*%
X109163000Y-109264200D02*
X109163000Y-109964200D01*
X109163000Y-109964200D02*
X110563000Y-109964200D01*
X110563000Y-109264200D02*
X109163000Y-109264200D01*
X110563000Y-109964200D02*
X110563000Y-109264200D01*
%TO.C,R34*%
X116080051Y-112455131D02*
X117395269Y-113770349D01*
X116744731Y-111790451D02*
X116080051Y-112455131D01*
X117395269Y-113770349D02*
X118059949Y-113105669D01*
X118059949Y-113105669D02*
X116744731Y-111790451D01*
%TO.C,C126*%
X89815481Y-106520014D02*
X89815481Y-107920014D01*
X89815481Y-107920014D02*
X90515481Y-107920014D01*
X90515481Y-106520014D02*
X89815481Y-106520014D01*
X90515481Y-107920014D02*
X90515481Y-106520014D01*
%TO.C,C9*%
X128233462Y-89197528D02*
X128233462Y-91017528D01*
X128233462Y-91017528D02*
X129153462Y-91017528D01*
X129153462Y-89197528D02*
X128233462Y-89197528D01*
X129153462Y-91017528D02*
X129153462Y-89197528D01*
%TO.C,C257*%
X113259400Y-103298200D02*
X113259400Y-106258200D01*
X113259400Y-106258200D02*
X114719400Y-106258200D01*
X114719400Y-103298200D02*
X113259400Y-103298200D01*
X114719400Y-106258200D02*
X114719400Y-103298200D01*
%TO.C,C277*%
X75515000Y-107465000D02*
X75515000Y-108385000D01*
X75515000Y-108385000D02*
X77335000Y-108385000D01*
X77335000Y-107465000D02*
X75515000Y-107465000D01*
X77335000Y-108385000D02*
X77335000Y-107465000D01*
%TO.C,C295*%
X89093481Y-97228014D02*
X89093481Y-97928014D01*
X89093481Y-97928014D02*
X90493481Y-97928014D01*
X90493481Y-97228014D02*
X89093481Y-97228014D01*
X90493481Y-97928014D02*
X90493481Y-97228014D01*
%TO.C,C271*%
X116283000Y-107274200D02*
X116283000Y-107974200D01*
X116283000Y-107974200D02*
X117683000Y-107974200D01*
X117683000Y-107274200D02*
X116283000Y-107274200D01*
X117683000Y-107974200D02*
X117683000Y-107274200D01*
%TO.C,C244*%
X89810000Y-109652538D02*
X89810000Y-110352538D01*
X89810000Y-110352538D02*
X91210000Y-110352538D01*
X91210000Y-109652538D02*
X89810000Y-109652538D01*
X91210000Y-110352538D02*
X91210000Y-109652538D01*
%TO.C,C67*%
X68948281Y-100840614D02*
X68948281Y-105440614D01*
X68948281Y-105440614D02*
X71248281Y-105440614D01*
X71248281Y-100840614D02*
X68948281Y-100840614D01*
X71248281Y-105440614D02*
X71248281Y-100840614D01*
%TO.C,C158*%
X101359481Y-115563945D02*
X101359481Y-116483945D01*
X101359481Y-116483945D02*
X103179481Y-116483945D01*
X103179481Y-115563945D02*
X101359481Y-115563945D01*
X103179481Y-116483945D02*
X103179481Y-115563945D01*
%TO.C,C302*%
X78587481Y-90782014D02*
X78587481Y-92182014D01*
X78587481Y-92182014D02*
X79287481Y-92182014D01*
X79287481Y-90782014D02*
X78587481Y-90782014D01*
X79287481Y-92182014D02*
X79287481Y-90782014D01*
%TO.C,C114*%
X90365481Y-103195014D02*
X90365481Y-103895014D01*
X90365481Y-103895014D02*
X91765481Y-103895014D01*
X91765481Y-103195014D02*
X90365481Y-103195014D01*
X91765481Y-103895014D02*
X91765481Y-103195014D01*
%TO.C,C210*%
X94601837Y-109907400D02*
X94601837Y-111307400D01*
X94601837Y-111307400D02*
X95301837Y-111307400D01*
X95301837Y-109907400D02*
X94601837Y-109907400D01*
X95301837Y-111307400D02*
X95301837Y-109907400D01*
%TO.C,C293*%
X88930881Y-92656014D02*
X88930881Y-93356014D01*
X88930881Y-93356014D02*
X90330881Y-93356014D01*
X90330881Y-92656014D02*
X88930881Y-92656014D01*
X90330881Y-93356014D02*
X90330881Y-92656014D01*
%TO.C,C226*%
X91122481Y-111218014D02*
X91122481Y-112618014D01*
X91122481Y-112618014D02*
X91822481Y-112618014D01*
X91822481Y-111218014D02*
X91122481Y-111218014D01*
X91822481Y-112618014D02*
X91822481Y-111218014D01*
%TO.C,C268*%
X116290000Y-108450400D02*
X116290000Y-111410400D01*
X116290000Y-111410400D02*
X117750000Y-111410400D01*
X117750000Y-108450400D02*
X116290000Y-108450400D01*
X117750000Y-111410400D02*
X117750000Y-108450400D01*
%TO.C,C147*%
X98159419Y-116710727D02*
X99149368Y-117700676D01*
X98654394Y-116215752D02*
X98159419Y-116710727D01*
X99149368Y-117700676D02*
X99644343Y-117205701D01*
X99644343Y-117205701D02*
X98654394Y-116215752D01*
%TO.C,C120*%
X88465481Y-111895014D02*
X88465481Y-113295014D01*
X88465481Y-113295014D02*
X89165481Y-113295014D01*
X89165481Y-111895014D02*
X88465481Y-111895014D01*
X89165481Y-113295014D02*
X89165481Y-111895014D01*
%TO.C,C251*%
X93130600Y-111345742D02*
X93130600Y-112745742D01*
X93130600Y-112745742D02*
X93830600Y-112745742D01*
X93830600Y-111345742D02*
X93130600Y-111345742D01*
X93830600Y-112745742D02*
X93830600Y-111345742D01*
%TO.C,C136*%
X98215481Y-103253414D02*
X98215481Y-104653414D01*
X98215481Y-104653414D02*
X98915481Y-104653414D01*
X98915481Y-103253414D02*
X98215481Y-103253414D01*
X98915481Y-104653414D02*
X98915481Y-103253414D01*
%TO.C,C168*%
X97525481Y-114525014D02*
X97525481Y-115225014D01*
X97525481Y-115225014D02*
X98925481Y-115225014D01*
X98925481Y-114525014D02*
X97525481Y-114525014D01*
X98925481Y-115225014D02*
X98925481Y-114525014D01*
%TO.C,C137*%
X86675481Y-114555014D02*
X86675481Y-115255014D01*
X86675481Y-115255014D02*
X88075481Y-115255014D01*
X88075481Y-114555014D02*
X86675481Y-114555014D01*
X88075481Y-115255014D02*
X88075481Y-114555014D01*
%TO.C,R41*%
X93740000Y-119222900D02*
X93740000Y-120162900D01*
X93740000Y-120162900D02*
X95600000Y-120162900D01*
X95600000Y-119222900D02*
X93740000Y-119222900D01*
X95600000Y-120162900D02*
X95600000Y-119222900D01*
%TO.C,C124*%
X90515481Y-107920014D02*
X90515481Y-108620014D01*
X90515481Y-108620014D02*
X91915481Y-108620014D01*
X91915481Y-107920014D02*
X90515481Y-107920014D01*
X91915481Y-108620014D02*
X91915481Y-107920014D01*
%TO.C,C4*%
X124483462Y-86747528D02*
X124483462Y-87667528D01*
X124483462Y-87667528D02*
X126303462Y-87667528D01*
X126303462Y-86747528D02*
X124483462Y-86747528D01*
X126303462Y-87667528D02*
X126303462Y-86747528D01*
%TO.C,C249*%
X101519585Y-106738745D02*
X101519585Y-108138745D01*
X101519585Y-108138745D02*
X102219585Y-108138745D01*
X102219585Y-106738745D02*
X101519585Y-106738745D01*
X102219585Y-108138745D02*
X102219585Y-106738745D01*
%TO.C,R40*%
X88090675Y-106545045D02*
X88755355Y-107209725D01*
X88755355Y-107209725D02*
X90070573Y-105894507D01*
X89405893Y-105229827D02*
X88090675Y-106545045D01*
X90070573Y-105894507D02*
X89405893Y-105229827D01*
%TO.C,C230*%
X99691940Y-111777585D02*
X99691940Y-112477585D01*
X99691940Y-112477585D02*
X101091940Y-112477585D01*
X101091940Y-111777585D02*
X99691940Y-111777585D01*
X101091940Y-112477585D02*
X101091940Y-111777585D01*
%TO.C,C338*%
X63085000Y-117510400D02*
X63085000Y-118430400D01*
X63085000Y-118430400D02*
X64905000Y-118430400D01*
X64905000Y-117510400D02*
X63085000Y-117510400D01*
X64905000Y-118430400D02*
X64905000Y-117510400D01*
%TO.C,C272*%
X107568881Y-113428614D02*
X107568881Y-114828614D01*
X107568881Y-114828614D02*
X108268881Y-114828614D01*
X108268881Y-113428614D02*
X107568881Y-113428614D01*
X108268881Y-114828614D02*
X108268881Y-113428614D01*
%TO.C,FB4*%
X89460481Y-94329214D02*
X89460481Y-95269214D01*
X89460481Y-95269214D02*
X91320481Y-95269214D01*
X91320481Y-94329214D02*
X89460481Y-94329214D01*
X91320481Y-95269214D02*
X91320481Y-94329214D01*
%TO.C,C130*%
X95694800Y-114327600D02*
X95694800Y-115247600D01*
X95694800Y-115247600D02*
X97514800Y-115247600D01*
X97514800Y-114327600D02*
X95694800Y-114327600D01*
X97514800Y-115247600D02*
X97514800Y-114327600D01*
%TO.C,C188*%
X100198785Y-117577560D02*
X100198785Y-118977560D01*
X100198785Y-118977560D02*
X100898785Y-118977560D01*
X100898785Y-117577560D02*
X100198785Y-117577560D01*
X100898785Y-118977560D02*
X100898785Y-117577560D01*
%TO.C,C266*%
X111583000Y-107684200D02*
X111583000Y-109084200D01*
X111583000Y-109084200D02*
X112283000Y-109084200D01*
X112283000Y-107684200D02*
X111583000Y-107684200D01*
X112283000Y-109084200D02*
X112283000Y-107684200D01*
%TO.C,C148*%
X96240481Y-115895014D02*
X96240481Y-117295014D01*
X96240481Y-117295014D02*
X96940481Y-117295014D01*
X96940481Y-115895014D02*
X96240481Y-115895014D01*
X96940481Y-117295014D02*
X96940481Y-115895014D01*
%TO.C,C3*%
X129483462Y-86347528D02*
X129483462Y-87267528D01*
X129483462Y-87267528D02*
X131303462Y-87267528D01*
X131303462Y-86347528D02*
X129483462Y-86347528D01*
X131303462Y-87267528D02*
X131303462Y-86347528D01*
%TO.C,C245*%
X91915481Y-108995014D02*
X91915481Y-110395014D01*
X91915481Y-110395014D02*
X92615481Y-110395014D01*
X92615481Y-108995014D02*
X91915481Y-108995014D01*
X92615481Y-110395014D02*
X92615481Y-108995014D01*
%TO.C,C309*%
X81437881Y-94434014D02*
X81437881Y-95134014D01*
X81437881Y-95134014D02*
X82837881Y-95134014D01*
X82837881Y-94434014D02*
X81437881Y-94434014D01*
X82837881Y-95134014D02*
X82837881Y-94434014D01*
%TO.C,C252*%
X95065481Y-94145014D02*
X95065481Y-94845014D01*
X95065481Y-94845014D02*
X96465481Y-94845014D01*
X96465481Y-94145014D02*
X95065481Y-94145014D01*
X96465481Y-94845014D02*
X96465481Y-94145014D01*
%TO.C,C184*%
X91865481Y-113795014D02*
X91865481Y-115195014D01*
X91865481Y-115195014D02*
X92565481Y-115195014D01*
X92565481Y-113795014D02*
X91865481Y-113795014D01*
X92565481Y-115195014D02*
X92565481Y-113795014D01*
%TO.C,C243*%
X95448870Y-109028670D02*
X95448870Y-109728670D01*
X95448870Y-109728670D02*
X96848870Y-109728670D01*
X96848870Y-109028670D02*
X95448870Y-109028670D01*
X96848870Y-109728670D02*
X96848870Y-109028670D01*
%TO.C,C259*%
X114583000Y-109774200D02*
X114583000Y-110474200D01*
X114583000Y-110474200D02*
X115983000Y-110474200D01*
X115983000Y-109774200D02*
X114583000Y-109774200D01*
X115983000Y-110474200D02*
X115983000Y-109774200D01*
%TO.C,C239*%
X99254425Y-112875500D02*
X99254425Y-113575500D01*
X99254425Y-113575500D02*
X100654425Y-113575500D01*
X100654425Y-112875500D02*
X99254425Y-112875500D01*
X100654425Y-113575500D02*
X100654425Y-112875500D01*
%TO.C,C170*%
X102698481Y-116513014D02*
X102698481Y-118333014D01*
X102698481Y-118333014D02*
X103618481Y-118333014D01*
X103618481Y-116513014D02*
X102698481Y-116513014D01*
X103618481Y-118333014D02*
X103618481Y-116513014D01*
%TO.C,C141*%
X93780481Y-117560014D02*
X93780481Y-118480014D01*
X93780481Y-118480014D02*
X95600481Y-118480014D01*
X95600481Y-117560014D02*
X93780481Y-117560014D01*
X95600481Y-118480014D02*
X95600481Y-117560014D01*
%TO.C,C339*%
X63085000Y-119445400D02*
X63085000Y-120365400D01*
X63085000Y-120365400D02*
X64905000Y-120365400D01*
X64905000Y-119445400D02*
X63085000Y-119445400D01*
X64905000Y-120365400D02*
X64905000Y-119445400D01*
%TO.C,C258*%
X107453000Y-109164200D02*
X107453000Y-109864200D01*
X107453000Y-109864200D02*
X108853000Y-109864200D01*
X108853000Y-109164200D02*
X107453000Y-109164200D01*
X108853000Y-109864200D02*
X108853000Y-109164200D01*
%TO.C,C311*%
X69337481Y-81508014D02*
X69337481Y-82428014D01*
X69337481Y-82428014D02*
X71157481Y-82428014D01*
X71157481Y-81508014D02*
X69337481Y-81508014D01*
X71157481Y-82428014D02*
X71157481Y-81508014D01*
%TO.C,C144*%
X78755481Y-116596014D02*
X78755481Y-117296014D01*
X78755481Y-117296014D02*
X80155481Y-117296014D01*
X80155481Y-116596014D02*
X78755481Y-116596014D01*
X80155481Y-117296014D02*
X80155481Y-116596014D01*
%TO.C,C274*%
X109853000Y-107819814D02*
X109853000Y-108519814D01*
X109853000Y-108519814D02*
X111253000Y-108519814D01*
X111253000Y-107819814D02*
X109853000Y-107819814D01*
X111253000Y-108519814D02*
X111253000Y-107819814D01*
%TO.C,C207*%
X96893495Y-111356580D02*
X96893495Y-112056580D01*
X96893495Y-112056580D02*
X98293495Y-112056580D01*
X98293495Y-111356580D02*
X96893495Y-111356580D01*
X98293495Y-112056580D02*
X98293495Y-111356580D01*
%TO.C,C223*%
X94845481Y-103985014D02*
X94845481Y-104685014D01*
X94845481Y-104685014D02*
X96245481Y-104685014D01*
X96245481Y-103985014D02*
X94845481Y-103985014D01*
X96245481Y-104685014D02*
X96245481Y-103985014D01*
%TO.C,C129*%
X89905481Y-117035014D02*
X89905481Y-118435014D01*
X89905481Y-118435014D02*
X90605481Y-118435014D01*
X90605481Y-117035014D02*
X89905481Y-117035014D01*
X90605481Y-118435014D02*
X90605481Y-117035014D01*
%TO.C,C270*%
X106763000Y-107034200D02*
X106763000Y-107734200D01*
X106763000Y-107734200D02*
X108163000Y-107734200D01*
X108163000Y-107034200D02*
X106763000Y-107034200D01*
X108163000Y-107734200D02*
X108163000Y-107034200D01*
%TO.C,C337*%
X68364519Y-112620400D02*
X68364519Y-114440400D01*
X68364519Y-114440400D02*
X69284519Y-114440400D01*
X69284519Y-112620400D02*
X68364519Y-112620400D01*
X69284519Y-114440400D02*
X69284519Y-112620400D01*
%TO.C,C307*%
X80320281Y-95145214D02*
X80320281Y-95845214D01*
X80320281Y-95845214D02*
X81720281Y-95845214D01*
X81720281Y-95145214D02*
X80320281Y-95145214D01*
X81720281Y-95845214D02*
X81720281Y-95145214D01*
%TO.C,C290*%
X59235481Y-85040014D02*
X59235481Y-88000014D01*
X59235481Y-88000014D02*
X60695481Y-88000014D01*
X60695481Y-85040014D02*
X59235481Y-85040014D01*
X60695481Y-88000014D02*
X60695481Y-85040014D01*
%TO.C,C199*%
X101732400Y-109686000D02*
X101732400Y-110386000D01*
X101732400Y-110386000D02*
X103132400Y-110386000D01*
X103132400Y-109686000D02*
X101732400Y-109686000D01*
X103132400Y-110386000D02*
X103132400Y-109686000D01*
%TO.C,R56*%
X96921600Y-104809200D02*
X96921600Y-105509200D01*
X96921600Y-105509200D02*
X98321600Y-105509200D01*
X98321600Y-104809200D02*
X96921600Y-104809200D01*
X98321600Y-105509200D02*
X98321600Y-104809200D01*
%TO.C,C165*%
X98915481Y-103310400D02*
X98915481Y-104710400D01*
X98915481Y-104710400D02*
X99615481Y-104710400D01*
X99615481Y-103310400D02*
X98915481Y-103310400D01*
X99615481Y-104710400D02*
X99615481Y-103310400D01*
%TO.C,C8*%
X127283462Y-89197528D02*
X127283462Y-91017528D01*
X127283462Y-91017528D02*
X128203462Y-91017528D01*
X128203462Y-89197528D02*
X127283462Y-89197528D01*
X128203462Y-91017528D02*
X128203462Y-89197528D01*
%TO.C,C194*%
X89036706Y-110377857D02*
X89036706Y-111297857D01*
X89036706Y-111297857D02*
X90856706Y-111297857D01*
X90856706Y-110377857D02*
X89036706Y-110377857D01*
X90856706Y-111297857D02*
X90856706Y-110377857D01*
%TO.C,C205*%
X91165481Y-113795014D02*
X91165481Y-115195014D01*
X91165481Y-115195014D02*
X91865481Y-115195014D01*
X91865481Y-113795014D02*
X91165481Y-113795014D01*
X91865481Y-115195014D02*
X91865481Y-113795014D01*
%TO.C,R98*%
X67077981Y-119275414D02*
X67077981Y-121135414D01*
X67077981Y-121135414D02*
X68017981Y-121135414D01*
X68017981Y-119275414D02*
X67077981Y-119275414D01*
X68017981Y-121135414D02*
X68017981Y-119275414D01*
%TO.C,C164*%
X96579805Y-113618450D02*
X96579805Y-114318450D01*
X96579805Y-114318450D02*
X97979805Y-114318450D01*
X97979805Y-113618450D02*
X96579805Y-113618450D01*
X97979805Y-114318450D02*
X97979805Y-113618450D01*
%TO.C,C127*%
X97715481Y-116945014D02*
X97715481Y-118345014D01*
X97715481Y-118345014D02*
X98415481Y-118345014D01*
X98415481Y-116945014D02*
X97715481Y-116945014D01*
X98415481Y-118345014D02*
X98415481Y-116945014D01*
%TO.C,C145*%
X70275481Y-89485014D02*
X70275481Y-90185014D01*
X70275481Y-90185014D02*
X71675481Y-90185014D01*
X71675481Y-89485014D02*
X70275481Y-89485014D01*
X71675481Y-90185014D02*
X71675481Y-89485014D01*
%TO.C,C167*%
X96056115Y-110454100D02*
X96056115Y-111374100D01*
X96056115Y-111374100D02*
X97876115Y-111374100D01*
X97876115Y-110454100D02*
X96056115Y-110454100D01*
X97876115Y-111374100D02*
X97876115Y-110454100D01*
%TO.C,C229*%
X98239060Y-108979140D02*
X98239060Y-109679140D01*
X98239060Y-109679140D02*
X99639060Y-109679140D01*
X99639060Y-108979140D02*
X98239060Y-108979140D01*
X99639060Y-109679140D02*
X99639060Y-108979140D01*
%TO.C,C122*%
X90390481Y-103945014D02*
X90390481Y-104645014D01*
X90390481Y-104645014D02*
X91790481Y-104645014D01*
X91790481Y-103945014D02*
X90390481Y-103945014D01*
X91790481Y-104645014D02*
X91790481Y-103945014D01*
%TO.C,C323*%
X63085000Y-116590400D02*
X63085000Y-117510400D01*
X63085000Y-117510400D02*
X64905000Y-117510400D01*
X64905000Y-116590400D02*
X63085000Y-116590400D01*
X64905000Y-117510400D02*
X64905000Y-116590400D01*
%TO.C,C132*%
X96855600Y-107704800D02*
X96855600Y-108404800D01*
X96855600Y-108404800D02*
X98255600Y-108404800D01*
X98255600Y-107704800D02*
X96855600Y-107704800D01*
X98255600Y-108404800D02*
X98255600Y-107704800D01*
%TO.C,C11*%
X129483462Y-87347528D02*
X129483462Y-88267528D01*
X129483462Y-88267528D02*
X131303462Y-88267528D01*
X131303462Y-87347528D02*
X129483462Y-87347528D01*
X131303462Y-88267528D02*
X131303462Y-87347528D01*
%TO.C,C176*%
X96810945Y-108979140D02*
X96810945Y-109679140D01*
X96810945Y-109679140D02*
X98210945Y-109679140D01*
X98210945Y-108979140D02*
X96810945Y-108979140D01*
X98210945Y-109679140D02*
X98210945Y-108979140D01*
%TO.C,C157*%
X98466575Y-113582745D02*
X98466575Y-114502745D01*
X98466575Y-114502745D02*
X100286575Y-114502745D01*
X100286575Y-113582745D02*
X98466575Y-113582745D01*
X100286575Y-114502745D02*
X100286575Y-113582745D01*
%TO.C,C273*%
X114453000Y-107584200D02*
X114453000Y-108284200D01*
X114453000Y-108284200D02*
X115853000Y-108284200D01*
X115853000Y-107584200D02*
X114453000Y-107584200D01*
X115853000Y-108284200D02*
X115853000Y-107584200D01*
%TO.C,C182*%
X93776681Y-103320014D02*
X93776681Y-104720014D01*
X93776681Y-104720014D02*
X94476681Y-104720014D01*
X94476681Y-103320014D02*
X93776681Y-103320014D01*
X94476681Y-104720014D02*
X94476681Y-103320014D01*
%TO.C,C48*%
X125893462Y-108920028D02*
X125893462Y-109620028D01*
X125893462Y-109620028D02*
X127293462Y-109620028D01*
X127293462Y-108920028D02*
X125893462Y-108920028D01*
X127293462Y-109620028D02*
X127293462Y-108920028D01*
%TO.C,C224*%
X92938400Y-108998119D02*
X92938400Y-110398119D01*
X92938400Y-110398119D02*
X93638400Y-110398119D01*
X93638400Y-108998119D02*
X92938400Y-108998119D01*
X93638400Y-110398119D02*
X93638400Y-108998119D01*
%TO.C,C292*%
X85887881Y-87480014D02*
X85887881Y-88880014D01*
X85887881Y-88880014D02*
X86587881Y-88880014D01*
X86587881Y-87480014D02*
X85887881Y-87480014D01*
X86587881Y-88880014D02*
X86587881Y-87480014D01*
%TO.C,C143*%
X87773019Y-114172527D02*
X88762968Y-115162476D01*
X88267994Y-113677552D02*
X87773019Y-114172527D01*
X88762968Y-115162476D02*
X89257943Y-114667501D01*
X89257943Y-114667501D02*
X88267994Y-113677552D01*
%TO.C,C325*%
X69510000Y-118570400D02*
X69510000Y-119490400D01*
X69510000Y-119490400D02*
X71330000Y-119490400D01*
X71330000Y-118570400D02*
X69510000Y-118570400D01*
X71330000Y-119490400D02*
X71330000Y-118570400D01*
%TO.C,FB7*%
X69140000Y-110762900D02*
X69140000Y-112222900D01*
X69140000Y-112222900D02*
X72100000Y-112222900D01*
X72100000Y-110762900D02*
X69140000Y-110762900D01*
X72100000Y-112222900D02*
X72100000Y-110762900D01*
%TO.C,C301*%
X78587481Y-88496014D02*
X78587481Y-89896014D01*
X78587481Y-89896014D02*
X79287481Y-89896014D01*
X79287481Y-88496014D02*
X78587481Y-88496014D01*
X79287481Y-89896014D02*
X79287481Y-88496014D01*
%TO.C,C279*%
X75490000Y-106515000D02*
X75490000Y-107435000D01*
X75490000Y-107435000D02*
X77310000Y-107435000D01*
X77310000Y-106515000D02*
X75490000Y-106515000D01*
X77310000Y-107435000D02*
X77310000Y-106515000D01*
%TO.C,C247*%
X97781891Y-112863067D02*
X97781891Y-113563067D01*
X97781891Y-113563067D02*
X99181891Y-113563067D01*
X99181891Y-112863067D02*
X97781891Y-112863067D01*
X99181891Y-113563067D02*
X99181891Y-112863067D01*
%TO.C,C174*%
X95455481Y-92585014D02*
X95455481Y-93505014D01*
X95455481Y-93505014D02*
X97275481Y-93505014D01*
X97275481Y-92585014D02*
X95455481Y-92585014D01*
X97275481Y-93505014D02*
X97275481Y-92585014D01*
%TO.C,C278*%
X78140000Y-106315000D02*
X78140000Y-108135000D01*
X78140000Y-108135000D02*
X79060000Y-108135000D01*
X79060000Y-106315000D02*
X78140000Y-106315000D01*
X79060000Y-108135000D02*
X79060000Y-106315000D01*
%TO.C,R62*%
X106190000Y-120160400D02*
X106190000Y-121100400D01*
X106190000Y-121100400D02*
X108050000Y-121100400D01*
X108050000Y-120160400D02*
X106190000Y-120160400D01*
X108050000Y-121100400D02*
X108050000Y-120160400D01*
%TO.C,C297*%
X87985481Y-94302414D02*
X87985481Y-95702414D01*
X87985481Y-95702414D02*
X88685481Y-95702414D01*
X88685481Y-94302414D02*
X87985481Y-94302414D01*
X88685481Y-95702414D02*
X88685481Y-94302414D01*
%TO.C,C154*%
X98159338Y-107540287D02*
X98654313Y-108035262D01*
X98654313Y-108035262D02*
X99644262Y-107045313D01*
X99149287Y-106550338D02*
X98159338Y-107540287D01*
X99644262Y-107045313D02*
X99149287Y-106550338D01*
%TO.C,C142*%
X89035481Y-116085014D02*
X89035481Y-117005014D01*
X89035481Y-117005014D02*
X90855481Y-117005014D01*
X90855481Y-116085014D02*
X89035481Y-116085014D01*
X90855481Y-117005014D02*
X90855481Y-116085014D01*
%TO.C,C200*%
X101618645Y-117577560D02*
X101618645Y-118977560D01*
X101618645Y-118977560D02*
X102318645Y-118977560D01*
X102318645Y-117577560D02*
X101618645Y-117577560D01*
X102318645Y-118977560D02*
X102318645Y-117577560D01*
%TO.C,C327*%
X66060000Y-112645400D02*
X66060000Y-114465400D01*
X66060000Y-114465400D02*
X66980000Y-114465400D01*
X66980000Y-112645400D02*
X66060000Y-112645400D01*
X66980000Y-114465400D02*
X66980000Y-112645400D01*
%TO.C,C236*%
X92095481Y-107605014D02*
X92095481Y-109005014D01*
X92095481Y-109005014D02*
X92795481Y-109005014D01*
X92795481Y-107605014D02*
X92095481Y-107605014D01*
X92795481Y-109005014D02*
X92795481Y-107605014D01*
%TO.C,C119*%
X96940481Y-116845014D02*
X96940481Y-118245014D01*
X96940481Y-118245014D02*
X97640481Y-118245014D01*
X97640481Y-116845014D02*
X96940481Y-116845014D01*
X97640481Y-118245014D02*
X97640481Y-116845014D01*
%TO.C,FB3*%
X90504281Y-97108014D02*
X90504281Y-98048014D01*
X90504281Y-98048014D02*
X92364281Y-98048014D01*
X92364281Y-97108014D02*
X90504281Y-97108014D01*
X92364281Y-98048014D02*
X92364281Y-97108014D01*
%TO.C,C192*%
X93865481Y-100795014D02*
X93865481Y-101495014D01*
X93865481Y-101495014D02*
X95265481Y-101495014D01*
X95265481Y-100795014D02*
X93865481Y-100795014D01*
X95265481Y-101495014D02*
X95265481Y-100795014D01*
%TO.C,C195*%
X92735200Y-107608800D02*
X92735200Y-109008800D01*
X92735200Y-109008800D02*
X93435200Y-109008800D01*
X93435200Y-107608800D02*
X92735200Y-107608800D01*
X93435200Y-109008800D02*
X93435200Y-107608800D01*
%TO.C,C71*%
X66509881Y-100815214D02*
X66509881Y-105415214D01*
X66509881Y-105415214D02*
X68809881Y-105415214D01*
X68809881Y-100815214D02*
X66509881Y-100815214D01*
X68809881Y-105415214D02*
X68809881Y-100815214D01*
%TO.C,C282*%
X75140000Y-112365000D02*
X75140000Y-113285000D01*
X75140000Y-113285000D02*
X76960000Y-113285000D01*
X76960000Y-112365000D02*
X75140000Y-112365000D01*
X76960000Y-113285000D02*
X76960000Y-112365000D01*
%TO.C,R65*%
X113117061Y-112004440D02*
X113781741Y-112669120D01*
X113781741Y-112669120D02*
X115096959Y-111353902D01*
X114432279Y-110689222D02*
X113117061Y-112004440D01*
X115096959Y-111353902D02*
X114432279Y-110689222D01*
%TO.C,C261*%
X115453000Y-103304200D02*
X115453000Y-104704200D01*
X115453000Y-104704200D02*
X116153000Y-104704200D01*
X116153000Y-103304200D02*
X115453000Y-103304200D01*
X116153000Y-104704200D02*
X116153000Y-103304200D01*
%TO.C,C287*%
X80190000Y-108515000D02*
X80190000Y-110335000D01*
X80190000Y-110335000D02*
X81110000Y-110335000D01*
X81110000Y-108515000D02*
X80190000Y-108515000D01*
X81110000Y-110335000D02*
X81110000Y-108515000D01*
%TO.C,FB5*%
X84763881Y-96650814D02*
X84763881Y-97590814D01*
X84763881Y-97590814D02*
X86623881Y-97590814D01*
X86623881Y-96650814D02*
X84763881Y-96650814D01*
X86623881Y-97590814D02*
X86623881Y-96650814D01*
%TO.C,FB1*%
X88980000Y-108510000D02*
X88980000Y-110370000D01*
X88980000Y-110370000D02*
X89920000Y-110370000D01*
X89920000Y-108510000D02*
X88980000Y-108510000D01*
X89920000Y-110370000D02*
X89920000Y-108510000D01*
%TD*%
M02*
