M48
INCH
T1C0.0059
T2C0.0079
T3C0.0079
T4C0.0157
T5C0.0295
T6C0.1063
%
G90
G05
T1
X-0.1135Y1.5607
X-0.1135Y1.5214
X-0.1135Y1.482
X-0.1135Y1.4426
X-0.1135Y1.4033
X-0.1135Y1.3639
X-0.1135Y1.3245
X-0.1131Y1.2923
X-0.1131Y1.253
X-0.1131Y1.2136
X-0.1131Y1.1742
X-0.1131Y1.1348
X-0.1131Y1.0955
X-0.1131Y1.0561
X-0.1131Y1.0167
X-0.1131Y0.9774
X-0.1131Y0.938
X-0.1131Y0.8986
X-0.1131Y0.8593
X-0.1131Y0.8199
X-0.1131Y0.7805
X-0.1131Y0.7411
X-0.1131Y0.7018
X-0.1131Y0.6624
X-0.1131Y0.623
X-0.1131Y0.5837
X-0.1131Y0.5443
X-0.1131Y0.5049
X-0.1131Y0.4656
X-0.1131Y0.4262
X-0.1131Y0.3868
X-0.1131Y0.3474
X-0.1131Y0.3081
X-0.1131Y0.2687
X-0.1131Y0.2293
X-0.1131Y0.19
X-0.1131Y0.1506
X-0.1075Y1.6025
X-0.0512Y0.5321
X-0.0512Y0.5002
X-0.0481Y0.8132
X-0.0451Y0.8869
X-0.0181Y0.4712
X-0.0125Y1.6825
X-0.0001Y0.4852
X0.0049Y0.8142
X0.0099Y0.3431
X0.0149Y0.3746
X0.0152Y0.764
X0.0159Y0.8772
X0.0218Y1.7289
X0.0219Y0.2342
X0.0282Y0.5478
X0.0292Y0.5153
X0.0415Y0.4376
X0.0415Y0.3588
X0.0415Y0.3273
X0.0423Y0.7186
X0.0543Y0.8755
X0.0625Y1.7275
X0.0699Y0.9252
X0.0702Y0.834
X0.0902Y0.814
X0.0959Y0.6422
X0.0969Y1.4735
X0.0979Y0.7362
X0.1084Y1.7289
X0.1129Y0.6472
X0.1169Y0.9262
X0.1169Y0.7582
X0.1179Y0.7372
X0.1319Y0.7102
X0.1442Y0.9794
X0.1501Y1.7294
X0.1501Y1.6192
X0.1527Y1.6787
X0.1537Y0.8869
X0.1608Y1.303
X0.1616Y0.1044
X0.1636Y0.2683
X0.1754Y0.506
X0.1754Y0.4509
X0.1754Y0.4036
X0.1879Y0.7102
X0.1923Y1.0797
X0.1935Y0.9172
X0.1951Y0.2683
X0.2016Y-0.1115
X0.2019Y1.9616
X0.2069Y0.6452
X0.2108Y0.2565
X0.2266Y0.5021
X0.2266Y0.4548
X0.2266Y0.4036
X0.2266Y0.2683
X0.2289Y0.7112
X0.232Y1.1765
X0.2409Y-0.1115
X0.2413Y1.9616
X0.2423Y0.255
X0.2439Y1.7372
X0.2529Y1.7572
X0.2538Y1.816
X0.2538Y1.6979
X0.2539Y1.6389
X0.2569Y0.7112
X0.2581Y0.2683
X0.2682Y1.3337
X0.2777Y0.506
X0.2777Y0.4548
X0.2777Y0.4036
X0.2803Y-0.1115
X0.2806Y1.9616
X0.2849Y0.7112
X0.3038Y0.6477
X0.3089Y1.3642
X0.3115Y1.5424
X0.3197Y-0.1115
X0.32Y1.9616
X0.3371Y1.3042
X0.3417Y1.524
X0.3509Y1.5424
X0.3525Y0.2683
X0.3579Y1.2272
X0.359Y-0.1115
X0.3594Y1.9616
X0.3706Y1.8711
X0.3706Y1.5424
X0.3739Y0.2167
X0.3784Y1.4144
X0.384Y0.6143
X0.3883Y1.8948
X0.3984Y-0.1115
X0.3987Y1.9616
X0.4Y1.5236
X0.4047Y0.6713
X0.4089Y1.2362
X0.4099Y1.8711
X0.4119Y1.8928
X0.4136Y0.5793
X0.4181Y0.3579
X0.4182Y0.5173
X0.4182Y0.4996
X0.4182Y0.4701
X0.4182Y0.4523
X0.4182Y0.4228
X0.4182Y0.4051
X0.4182Y0.3756
X0.4226Y0.269
X0.432Y1.0522
X0.4329Y0.3392
X0.4335Y1.4144
X0.4364Y0.4886
X0.4372Y0.5352
X0.4372Y0.4382
X0.4372Y0.3902
X0.4378Y-0.1115
X0.4381Y1.9616
X0.4419Y1.0877
X0.4532Y1.879
X0.4661Y0.133
X0.4771Y-0.1115
X0.4775Y1.9616
X0.4887Y1.8711
X0.5165Y-0.1115
X0.5168Y1.9616
X0.5562Y1.9616
X0.5562Y-0.1112
X0.5589Y0.9153
X0.5839Y0.9192
X0.5888Y0.8864
X0.5891Y1.7176
X0.5919Y0.5913
X0.5927Y1.4138
X0.5956Y1.9616
X0.5956Y-0.1112
X0.5989Y1.7845
X0.6142Y0.0078
X0.6154Y0.9192
X0.6189Y0.9542
X0.635Y1.9616
X0.635Y-0.1112
X0.6405Y0.9157
X0.6448Y1.4138
X0.6461Y1.9105
X0.6461Y1.8633
X0.6461Y1.7373
X0.6461Y1.7058
X0.6461Y1.6664
X0.6461Y1.627
X0.6461Y1.5011
X0.6461Y1.4538
X0.6557Y0.725
X0.6573Y0.9692
X0.6574Y0.1146
X0.6689Y0.9842
X0.6707Y0.8787
X0.6713Y0.1007
X0.6732Y0.0078
X0.6743Y1.9616
X0.6743Y-0.1112
X0.6903Y0.8787
X0.6911Y0.7447
X0.6913Y0.4645
X0.6973Y1.5995
X0.7042Y0.4322
X0.71Y0.8787
X0.7137Y1.9616
X0.7137Y-0.1112
X0.717Y1.2747
X0.7192Y0.1146
X0.7269Y1.2452
X0.7272Y0.4488
X0.7288Y1.8062
X0.7289Y0.8792
X0.7323Y0.0078
X0.7329Y1.2915
X0.7331Y0.1007
X0.7339Y1.2192
X0.7367Y1.5879
X0.7489Y0.8792
X0.7531Y1.9616
X0.7531Y-0.1112
X0.7535Y-0.065
X0.7717Y0.0157
X0.7731Y0.1083
X0.7741Y1.7904
X0.7822Y1.604
X0.7871Y0.0944
X0.7913Y0.0078
X0.7924Y1.9616
X0.7924Y-0.1112
X0.7997Y1.6389
X0.7999Y1.2912
X0.8039Y1.2222
X0.811Y-0.0656
X0.8174Y1.8101
X0.8233Y1.8396
X0.8312Y1.4304
X0.8318Y1.9616
X0.8318Y-0.1112
X0.8459Y1.148
X0.8459Y1.3572
X0.8491Y0.1095
X0.8504Y0.0078
X0.8514Y0.1422
X0.8639Y1.3576
X0.8651Y1.3844
X0.8659Y1.2222
X0.8679Y1.2862
X0.8691Y0.1422
X0.8712Y1.9616
X0.8712Y-0.1112
X0.8789Y1.5052
X0.8839Y1.3576
X0.8898Y0.1456
X0.8898Y0.0078
X0.9094Y0.0078
X0.9104Y0.2279
X0.9106Y1.9616
X0.9106Y-0.1112
X0.9115Y0.1088
X0.9173Y0.9232
X0.9281Y0.2279
X0.9355Y1.5685
X0.9363Y1.5057
X0.9413Y1.4557
X0.948Y1.2374
X0.9488Y0.1456
X0.9499Y1.9616
X0.9499Y-0.1112
X0.952Y1.2105
X0.9528Y1.2664
X0.9559Y0.9612
X0.9596Y0.0998
X0.9631Y1.3534
X0.9663Y1.5057
X0.9663Y1.4557
X0.9685Y0.0078
X0.9695Y0.2279
X0.9729Y1.3141
X0.9739Y0.2707
X0.9776Y0.622
X0.9848Y0.6386
X0.9872Y0.2279
X0.9882Y0.1038
X0.9893Y1.9616
X0.9893Y-0.1112
X0.9923Y0.412
X0.9982Y1.0045
X0.9982Y0.9789
X0.9982Y0.8254
X0.9982Y0.7998
X0.9982Y0.7742
X0.9982Y0.7486
X0.9982Y0.6974
X0.9982Y0.6719
X1.0017Y0.6464
X1.0053Y1.1438
X1.0079Y0.1456
X1.0079Y0.0078
X1.0179Y0.3844
X1.0209Y1.2852
X1.023Y1.1438
X1.0238Y1.0045
X1.0238Y0.8254
X1.0238Y0.7998
X1.0238Y0.7742
X1.0238Y0.7486
X1.0238Y0.6974
X1.0239Y1.2222
X1.0256Y0.6458
X1.0258Y0.6719
X1.0267Y1.6279
X1.0276Y0.0083
X1.0285Y0.2279
X1.0287Y1.9616
X1.0287Y-0.1112
X1.0463Y0.2279
X1.0472Y0.0078
X1.0473Y1.3556
X1.0494Y0.8254
X1.0494Y0.7998
X1.0494Y0.7742
X1.0494Y0.6462
X1.0494Y0.5951
X1.0494Y0.5695
X1.0494Y0.5183
X1.0494Y0.4927
X1.0494Y0.4671
X1.0506Y0.6713
X1.0649Y1.147
X1.0669Y0.1456
X1.0672Y0.1022
X1.068Y1.9616
X1.068Y-0.1112
X1.075Y0.7998
X1.075Y0.7742
X1.075Y0.7486
X1.075Y0.723
X1.075Y0.6718
X1.075Y0.6462
X1.075Y0.6207
X1.075Y0.5695
X1.075Y0.5439
X1.075Y0.5183
X1.075Y0.4927
X1.075Y0.4671
X1.075Y0.4415
X1.0819Y1.2932
X1.083Y1.0621
X1.0839Y1.3592
X1.0849Y1.2222
X1.0866Y0.0073
X1.0876Y0.1422
X1.0962Y0.1058
X1.0969Y1.0482
X1.1006Y0.8254
X1.1006Y0.7486
X1.1006Y0.6718
X1.1006Y0.6462
X1.1006Y0.6207
X1.1006Y0.5695
X1.1006Y0.5439
X1.1006Y0.5183
X1.1006Y0.4415
X1.1006Y0.4159
X1.1039Y1.3592
X1.1053Y0.1422
X1.1074Y1.9616
X1.1074Y-0.1112
X1.116Y0.3012
X1.1212Y1.4704
X1.1259Y0.1455
X1.126Y-0.0622
X1.1262Y0.9277
X1.1262Y0.8766
X1.1262Y0.851
X1.1262Y0.8254
X1.1262Y0.7998
X1.1262Y0.7742
X1.1262Y0.723
X1.1262Y0.6718
X1.1262Y0.6462
X1.1262Y0.6207
X1.1262Y0.5695
X1.1262Y0.5439
X1.1262Y0.5183
X1.1262Y0.4671
X1.1279Y0.261
X1.1279Y0.2413
X1.1299Y0.3151
X1.1452Y0.0099
X1.1468Y1.9616
X1.1468Y-0.1112
X1.1518Y0.9533
X1.1518Y0.9277
X1.1518Y0.8766
X1.1518Y0.851
X1.1518Y0.7998
X1.1518Y0.7486
X1.1518Y0.723
X1.1518Y0.6718
X1.1518Y0.6462
X1.1518Y0.6207
X1.1518Y0.5951
X1.1518Y0.5695
X1.1518Y0.5439
X1.1518Y0.5183
X1.1559Y1.2192
X1.1599Y0.34
X1.1599Y0.3203
X1.1654Y0.0078
X1.1769Y1.0108
X1.1773Y0.9533
X1.1773Y0.9277
X1.1773Y0.851
X1.1773Y0.8254
X1.1773Y0.7998
X1.1773Y0.7486
X1.1773Y0.723
X1.1773Y0.6718
X1.1773Y0.6462
X1.1773Y0.5951
X1.1773Y0.5695
X1.1773Y0.5183
X1.1839Y0.1002
X1.185Y0.1456
X1.1861Y1.9616
X1.1861Y-0.1112
X1.1872Y1.0238
X1.1992Y1.0787
X1.2021Y1.0089
X1.2025Y0.1008
X1.2029Y0.9533
X1.2029Y0.9022
X1.2029Y0.8766
X1.2029Y0.851
X1.2029Y0.8254
X1.2029Y0.7998
X1.2029Y0.7742
X1.2029Y0.7486
X1.2029Y0.723
X1.2029Y0.6718
X1.2029Y0.6462
X1.2029Y0.5951
X1.2029Y0.5695
X1.2029Y0.5439
X1.2029Y0.5183
X1.2029Y0.4927
X1.2029Y0.4179
X1.2155Y1.0284
X1.2175Y1.1179
X1.2244Y-0.0629
X1.2255Y1.9616
X1.2255Y-0.1112
X1.2265Y0.3521
X1.2282Y0.9279
X1.2285Y0.8254
X1.2285Y0.7998
X1.2285Y0.7742
X1.2285Y0.7486
X1.2285Y0.723
X1.2285Y0.6718
X1.2285Y0.6207
X1.2285Y0.5951
X1.2285Y0.5695
X1.2285Y0.5439
X1.2285Y0.5183
X1.2285Y0.4927
X1.2325Y1.3129
X1.2459Y0.0172
X1.249Y1.0868
X1.2495Y0.1074
X1.2541Y0.9533
X1.2541Y0.9277
X1.2541Y0.9022
X1.2541Y0.7998
X1.2541Y0.7742
X1.2541Y0.7486
X1.2541Y0.723
X1.2541Y0.6718
X1.2541Y0.6207
X1.2541Y0.5951
X1.2541Y0.5695
X1.2541Y0.5439
X1.2541Y0.5183
X1.2564Y0.1339
X1.262Y0.0172
X1.2649Y1.9616
X1.2649Y-0.1112
X1.2649Y1.0172
X1.2692Y0.1211
X1.2717Y1.0788
X1.2797Y0.9533
X1.2797Y0.9277
X1.2797Y0.9022
X1.2797Y0.8254
X1.2797Y0.7998
X1.2797Y0.7742
X1.2797Y0.7486
X1.2797Y0.723
X1.2797Y0.6718
X1.2797Y0.6207
X1.2797Y0.5951
X1.2797Y0.5695
X1.2797Y0.5439
X1.2797Y0.5183
X1.2797Y0.4927
X1.2797Y0.4162
X1.2835Y0.0069
X1.2898Y1.0279
X1.2925Y1.0114
X1.3043Y1.9616
X1.3043Y-0.1112
X1.3049Y0.0172
X1.3053Y0.8254
X1.3071Y1.2146
X1.3099Y1.5095
X1.3099Y1.4645
X1.3102Y1.4882
X1.311Y1.1516
X1.3181Y1.0098
X1.3184Y0.133
X1.3211Y0.0172
X1.3232Y1.0477
X1.3239Y1.3406
X1.3268Y1.0787
X1.3307Y1.3957
X1.3309Y0.9533
X1.3309Y0.9277
X1.3309Y0.9022
X1.3309Y0.8766
X1.3309Y0.8254
X1.3309Y0.7998
X1.3309Y0.7486
X1.3309Y0.723
X1.3309Y0.6462
X1.3309Y0.6207
X1.3309Y0.5951
X1.3309Y0.5695
X1.3309Y0.5183
X1.3309Y0.4927
X1.3309Y0.4671
X1.3309Y0.4415
X1.3309Y0.4159
X1.3329Y0.851
X1.334Y0.1339
X1.3349Y1.5082
X1.3349Y1.4632
X1.3352Y1.4882
X1.3425Y0.0079
X1.3432Y0.2416
X1.3436Y1.9616
X1.3436Y-0.1112
X1.3437Y1.0244
X1.3485Y0.1247
X1.354Y1.0496
X1.3545Y0.3419
X1.3553Y0.3891
X1.3565Y0.9533
X1.3565Y0.9277
X1.3565Y0.9022
X1.3565Y0.8766
X1.3565Y0.851
X1.3565Y0.8254
X1.3565Y0.7742
X1.3565Y0.723
X1.3565Y0.6718
X1.3565Y0.6207
X1.3565Y0.5951
X1.3565Y0.5695
X1.3565Y0.5183
X1.3565Y0.4927
X1.3565Y0.4671
X1.3565Y0.4415
X1.3565Y0.4159
X1.3597Y0.1074
X1.3599Y1.5095
X1.3599Y1.4632
X1.3602Y1.4882
X1.3622Y0.0169
X1.3742Y1.0335
X1.378Y1.3406
X1.3798Y0.1078
X1.3819Y0.0169
X1.3821Y1.0045
X1.3821Y0.9533
X1.3821Y0.9277
X1.3821Y0.9022
X1.3821Y0.8766
X1.3821Y0.851
X1.3821Y0.8254
X1.3821Y0.7998
X1.3821Y0.7742
X1.3821Y0.7486
X1.3821Y0.723
X1.3821Y0.6718
X1.3821Y0.6462
X1.3821Y0.6207
X1.3821Y0.5951
X1.3821Y0.5439
X1.3821Y0.5183
X1.3821Y0.4927
X1.3821Y0.4415
X1.3821Y0.4159
X1.383Y1.9616
X1.383Y-0.1112
X1.3843Y0.2767
X1.4016Y-0.0644
X1.4059Y1.3592
X1.4074Y1.0372
X1.4077Y1.0054
X1.4077Y0.9533
X1.4077Y0.9277
X1.4077Y0.9022
X1.4077Y0.8766
X1.4077Y0.851
X1.4077Y0.8254
X1.4077Y0.7998
X1.4077Y0.7486
X1.4077Y0.723
X1.4077Y0.6718
X1.4077Y0.6462
X1.4077Y0.6207
X1.4077Y0.5951
X1.4077Y0.5439
X1.4077Y0.5183
X1.4077Y0.4927
X1.4077Y0.4671
X1.4077Y0.4159
X1.4094Y1.3957
X1.4207Y0.2422
X1.4213Y0.1126
X1.4213Y0.0179
X1.4224Y1.9616
X1.4224Y-0.1112
X1.4332Y0.9533
X1.4332Y0.9277
X1.4332Y0.9022
X1.4332Y0.8766
X1.4332Y0.851
X1.4332Y0.8254
X1.4332Y0.7486
X1.4332Y0.723
X1.4332Y0.6718
X1.4332Y0.6462
X1.4332Y0.5951
X1.4332Y0.5695
X1.4332Y0.5439
X1.4332Y0.5183
X1.4332Y0.4927
X1.4332Y0.4671
X1.4332Y0.4415
X1.4332Y0.4159
X1.4333Y0.7743
X1.4409Y0.1126
X1.4409Y0.0179
X1.4528Y1.0827
X1.4588Y0.9277
X1.4588Y0.9022
X1.4588Y0.8766
X1.4588Y0.851
X1.4588Y0.7998
X1.4588Y0.7486
X1.4588Y0.723
X1.4588Y0.6718
X1.4588Y0.6462
X1.4588Y0.6207
X1.4588Y0.5951
X1.4588Y0.5695
X1.4588Y0.5183
X1.4588Y0.4927
X1.4588Y0.4671
X1.4588Y0.4415
X1.4588Y0.4159
X1.4606Y0.1305
X1.4606Y-0.065
X1.4617Y1.9616
X1.4617Y-0.1112
X1.4803Y0.1134
X1.4821Y0.0172
X1.4844Y1.0045
X1.4844Y0.9789
X1.4844Y0.9533
X1.4844Y0.9022
X1.4844Y0.8766
X1.4844Y0.8254
X1.4844Y0.7998
X1.4844Y0.7742
X1.4844Y0.7486
X1.4844Y0.723
X1.4844Y0.6718
X1.4844Y0.6462
X1.4844Y0.6207
X1.4844Y0.5951
X1.4844Y0.5439
X1.4844Y0.5183
X1.4844Y0.4927
X1.4844Y0.4671
X1.4844Y0.4415
X1.4844Y0.4159
X1.4866Y1.0786
X1.4921Y1.1102
X1.4982Y0.0172
X1.5Y0.1134
X1.5011Y1.9616
X1.5011Y-0.1112
X1.51Y1.0045
X1.51Y0.9789
X1.51Y0.9533
X1.51Y0.9277
X1.51Y0.9022
X1.51Y0.8766
X1.51Y0.851
X1.51Y0.8254
X1.51Y0.7998
X1.51Y0.7742
X1.51Y0.7486
X1.51Y0.723
X1.51Y0.6718
X1.51Y0.6462
X1.51Y0.6207
X1.51Y0.5695
X1.51Y0.5439
X1.51Y0.5183
X1.51Y0.4927
X1.51Y0.4671
X1.51Y0.4415
X1.51Y0.4159
X1.51Y0.3903
X1.51Y0.3647
X1.5197Y-0.0644
X1.5201Y0.1409
X1.5325Y1.8979
X1.5356Y1.0045
X1.5356Y0.9789
X1.5356Y0.9533
X1.5356Y0.9022
X1.5356Y0.8766
X1.5356Y0.851
X1.5356Y0.8254
X1.5356Y0.7998
X1.5356Y0.7742
X1.5356Y0.7486
X1.5356Y0.723
X1.5356Y0.6718
X1.5356Y0.6462
X1.5356Y0.6207
X1.5356Y0.5951
X1.5356Y0.5695
X1.5356Y0.5439
X1.5356Y0.5183
X1.5356Y0.4927
X1.5356Y0.4671
X1.5356Y0.4415
X1.5356Y0.4159
X1.5356Y0.3903
X1.5356Y0.3647
X1.5394Y0.1126
X1.5405Y1.9616
X1.5405Y-0.1112
X1.5411Y0.0172
X1.5573Y0.0172
X1.5591Y0.1126
X1.5612Y1.0045
X1.5612Y0.9789
X1.5612Y0.9533
X1.5612Y0.9277
X1.5612Y0.9022
X1.5612Y0.8766
X1.5612Y0.851
X1.5612Y0.8254
X1.5612Y0.7998
X1.5612Y0.7742
X1.5612Y0.6718
X1.5612Y0.6462
X1.5612Y0.5951
X1.5612Y0.5695
X1.5612Y0.5439
X1.5612Y0.5183
X1.5612Y0.4927
X1.5612Y0.4671
X1.5612Y0.4415
X1.5612Y0.4159
X1.5612Y0.3903
X1.5612Y0.3647
X1.5787Y0.1417
X1.5787Y0.01
X1.5798Y1.9616
X1.5798Y-0.1112
X1.5802Y1.8779
X1.5825Y0.3446
X1.5846Y0.7998
X1.5868Y0.9022
X1.5868Y0.8766
X1.5868Y0.7742
X1.5868Y0.7486
X1.5868Y0.723
X1.5868Y0.5183
X1.5868Y0.4927
X1.5868Y0.4671
X1.5892Y0.5949
X1.5949Y1.7035
X1.5954Y1.0581
X1.5965Y0.3546
X1.5984Y0.1134
X1.6044Y1.0994
X1.6076Y1.0459
X1.6096Y0.5695
X1.61Y0.8014
X1.6121Y0.5954
X1.6122Y1.6969
X1.6122Y1.624
X1.6124Y0.9022
X1.6124Y0.851
X1.6124Y0.8254
X1.6124Y0.7742
X1.6124Y0.7486
X1.6124Y0.6718
X1.6124Y0.6207
X1.6124Y0.5439
X1.6124Y0.4927
X1.6124Y0.4415
X1.6124Y0.4159
X1.6181Y0.1134
X1.6192Y1.9616
X1.6192Y-0.1112
X1.6203Y0.3667
X1.6369Y0.9966
X1.6369Y0.6207
X1.6374Y0.1389
X1.6378Y0.01
X1.638Y0.9533
X1.638Y0.9277
X1.638Y0.7998
X1.638Y0.5439
X1.6439Y0.3825
X1.6457Y1.3268
X1.6461Y1.1664
X1.6508Y0.8894
X1.6508Y0.7358
X1.6508Y0.4927
X1.6575Y0.1138
X1.6586Y1.9616
X1.6586Y-0.1112
X1.6636Y0.8382
X1.6636Y0.5183
X1.6636Y0.4415
X1.6725Y1.8975
X1.6764Y0.9533
X1.6764Y0.9022
X1.6764Y0.6079
X1.6772Y0.1138
X1.6812Y0.5426
X1.6892Y0.8382
X1.6969Y0.1427
X1.6969Y0.0078
X1.698Y1.9616
X1.698Y-0.1112
X1.7019Y0.4927
X1.7028Y1.3976
X1.7067Y1.1988
X1.7125Y1.8175
X1.7135Y0.5696
X1.7165Y0.1138
X1.7165Y-0.0743
X1.7248Y1.3168
X1.7362Y0.1138
X1.7362Y-0.0669
X1.7373Y1.9616
X1.7373Y-0.1112
X1.7469Y0.2683
X1.7559Y0.0078
X1.7569Y0.1462
X1.7575Y1.3979
X1.765Y1.3535
X1.7756Y0.0109
X1.7767Y1.9616
X1.7767Y-0.1112
X1.7775Y1.7229
X1.7845Y1.3035
X1.7953Y-0.0669
X1.7985Y0.0867
X1.7996Y0.8361
X1.8019Y1.2522
X1.8132Y0.4789
X1.815Y0.1457
X1.815Y-0.063
X1.8161Y1.9616
X1.8161Y-0.1112
X1.8181Y0.4938
X1.8188Y0.5449
X1.8196Y0.9261
X1.8196Y0.9011
X1.8196Y0.8311
X1.8196Y0.7461
X1.8346Y-0.0743
X1.8429Y1.3172
X1.8466Y0.5931
X1.8488Y0.5449
X1.8496Y0.9511
X1.8496Y0.7511
X1.8504Y0.6682
X1.8508Y0.4669
X1.8525Y0.5163
X1.8528Y0.6429
X1.8528Y0.4409
X1.8529Y0.7777
X1.8535Y1.4389
X1.8543Y-0.0669
X1.8546Y0.9011
X1.8546Y0.8761
X1.8546Y0.8511
X1.8546Y0.8261
X1.8554Y1.9616
X1.8554Y-0.1112
X1.8563Y1.2913
X1.8594Y0.0226
X1.8645Y1.7831
X1.8658Y0.242
X1.8734Y1.2399
X1.8734Y1.2025
X1.874Y-0.063
X1.878Y1.1664
X1.8789Y1.7096
X1.8795Y0.597
X1.8796Y0.7961
X1.8801Y0.4376
X1.8804Y0.9777
X1.8808Y0.7749
X1.8814Y0.6227
X1.8828Y0.5429
X1.8839Y0.5177
X1.8846Y0.9511
X1.8846Y0.9261
X1.8846Y0.8761
X1.8846Y0.8511
X1.8846Y0.8261
X1.8846Y0.7461
X1.8848Y0.4629
X1.886Y0.5714
X1.8929Y1.4495
X1.8937Y-0.0743
X1.8948Y1.9616
X1.8948Y-0.1112
X1.9035Y1.8799
X1.9134Y-0.0669
X1.9145Y0.5426
X1.9146Y0.8761
X1.9146Y0.8011
X1.9146Y0.7761
X1.9146Y0.7461
X1.9149Y0.9012
X1.9155Y0.5941
X1.9169Y0.6202
X1.9188Y0.5689
X1.9257Y0.9865
X1.9311Y1.4272
X1.9331Y-0.063
X1.9342Y1.9616
X1.9342Y-0.1112
X1.9379Y0.4112
X1.9446Y0.9511
X1.9446Y0.9011
X1.9446Y0.8511
X1.9446Y0.8011
X1.9446Y0.7761
X1.9446Y0.7511
X1.9448Y0.4376
X1.9458Y0.5439
X1.9468Y0.6449
X1.9475Y0.4726
X1.948Y1.2215
X1.9482Y0.5901
X1.9488Y0.6209
X1.9528Y0.0118
X1.9719Y-0.0728
X1.9725Y0.6446
X1.9735Y1.9616
X1.9735Y-0.1112
X1.9745Y0.5186
X1.9746Y0.5931
X1.9746Y0.4415
X1.9766Y0.5459
X1.9768Y0.8589
X1.9796Y0.9511
X1.9796Y0.8761
X1.9796Y0.8111
X1.9799Y0.9262
X1.9825Y0.473
X1.9825Y0.7526
X1.9846Y0.7761
X1.9898Y1.2959
X1.9921Y-0.063
X1.9989Y0.5182
X2.0046Y0.8761
X2.0048Y0.8549
X2.0123Y-0.0737
X2.0129Y1.9616
X2.0129Y-0.1112
X2.033Y-0.0737
X2.0346Y0.9161
X2.0346Y0.8411
X2.0369Y0.8729
X2.0377Y0.7929
X2.0395Y0.5557
X2.0396Y0.8161
X2.0415Y0.5734
X2.0415Y0.5242
X2.0425Y0.4426
X2.0451Y0.4671
X2.0466Y0.4947
X2.0514Y0.0045
X2.0523Y1.9616
X2.0523Y-0.1112
X2.0591Y0.1456
X2.0696Y0.9061
X2.0696Y0.8761
X2.0705Y0.5186
X2.0709Y0.7742
X2.0717Y0.011
X2.0725Y0.4406
X2.0738Y0.6195
X2.0746Y0.9561
X2.0746Y0.8511
X2.0746Y0.7961
X2.0748Y1.3969
X2.0849Y1.1602
X2.0906Y0.1456
X2.0908Y0.9829
X2.0917Y1.9616
X2.0917Y-0.1112
X2.0984Y1.5157
X2.0989Y0.7505
X2.0996Y0.7261
X2.0999Y0.4992
X2.1003Y0.4209
X2.1005Y0.5206
X2.1013Y0.9008
X2.1022Y0.5689
X2.1025Y0.5466
X2.1028Y0.6209
X2.1028Y0.5949
X2.1034Y0.6509
X2.1046Y0.8761
X2.1046Y0.8511
X2.1046Y0.8261
X2.1046Y0.7761
X2.1059Y0.6716
X2.1245Y1.1439
X2.1296Y0.7511
X2.1296Y0.7261
X2.1299Y0.0078
X2.1301Y0.5695
X2.1305Y0.5466
X2.131Y1.9616
X2.131Y-0.1112
X2.134Y0.6462
X2.1346Y0.9811
X2.1346Y0.9511
X2.1346Y0.9261
X2.1346Y0.8761
X2.1346Y0.8511
X2.1346Y0.8261
X2.1348Y0.6229
X2.1365Y0.5186
X2.1368Y0.5949
X2.138Y0.4972
X2.138Y0.4671
X2.138Y0.4432
X2.1396Y0.8011
X2.1396Y0.7711
X2.1409Y1.3909
X2.1496Y0.0078
X2.1498Y1.0045
X2.1505Y0.3926
X2.1596Y0.6699
X2.1625Y1.1339
X2.1645Y0.5466
X2.1646Y0.8761
X2.1646Y0.8511
X2.1646Y0.7511
X2.1648Y0.6229
X2.1665Y0.5226
X2.1693Y-0.063
X2.1696Y0.8211
X2.1704Y1.9616
X2.1704Y-0.1112
X2.189Y0.2204
X2.189Y0.0078
X2.1929Y0.1378
X2.1946Y0.8511
X2.1946Y0.8261
X2.1951Y0.5419
X2.1958Y0.9529
X2.1965Y0.4666
X2.197Y0.5872
X2.199Y0.6325
X2.1996Y0.7711
X2.1996Y0.9211
X2.1996Y0.5661
X2.2035Y1.1009
X2.2065Y1.3359
X2.2087Y0.063
X2.2087Y0.0437
X2.2098Y1.9616
X2.2098Y-0.1112
X2.2126Y0.311
X2.2165Y0.0944
X2.2187Y0.7919
X2.2187Y0.7289
X2.2266Y0.8943
X2.2266Y0.6581
X2.2266Y0.5951
X2.2266Y0.5006
X2.2283Y0.1484
X2.2299Y0.1126
X2.2323Y0.0787
X2.239Y0.0087
X2.248Y0.2204
X2.248Y0.1259
X2.2491Y1.9616
X2.2491Y-0.1112
X2.2736Y1.1949
X2.2829Y1.8411
X2.2829Y0.7777
X2.2885Y1.9616
X2.2885Y-0.1112
X2.3014Y1.8195
X2.3279Y1.9616
X2.3279Y-0.1112
X2.3417Y1.8106
X2.3502Y0.0522
X2.3565Y-0.0861
X2.3661Y0.2204
X2.3672Y1.9616
X2.3672Y-0.1112
X2.376Y1.8002
X2.3809Y1.0135
X2.4029Y1.7627
X2.4066Y1.9616
X2.4066Y-0.1112
X2.4213Y1.1181
X2.446Y1.9616
X2.446Y-0.1112
X2.4822Y1.4134
X2.4825Y1.9605
X2.4854Y-0.1112
X2.5039Y1.4134
X2.5196Y1.4311
X2.5219Y1.9605
X2.5613Y1.9605
X2.6006Y1.9605
X2.6035Y-0.1112
X2.64Y1.9605
X2.6794Y1.9605
X2.6822Y-0.1112
X2.6997Y1.9025
X2.7187Y1.9605
X2.7216Y-0.1112
X2.7391Y1.9025
X2.7462Y1.8244
X2.7525Y1.4229
X2.7581Y1.9605
X2.7609Y-0.1112
X2.7975Y1.9605
X2.8003Y-0.1112
X2.8025Y1.8925
X2.8025Y1.7579
X2.8061Y1.6915
X2.8249Y1.5647
X2.8397Y-0.1112
X2.8455Y1.3219
X2.8545Y1.1189
X2.874Y1.2795
X2.9724Y1.4488
X3.0118Y1.378
X3.0118Y1.2795
X3.0125Y1.1969
X3.0125Y1.1529
X3.0424Y0.4262
X3.0424Y0.3868
X3.0424Y0.3474
X3.0424Y0.3081
X3.0424Y0.2687
X3.0424Y0.2293
X3.0424Y0.19
X3.0739Y0.499
X3.0984Y1.2638
X3.0984Y1.2205
X3.0984Y1.1811
X3.0984Y1.1457
X3.1005Y0.5565
X3.1005Y0.5171
X3.1005Y0.4778
X3.1005Y0.4384
X3.1005Y0.399
X3.1005Y0.3597
X3.1005Y0.3203
X3.1005Y0.2809
X3.1005Y0.2416
X3.1005Y0.2022
X3.1006Y1.7053
X3.1006Y1.6659
X3.1006Y1.6344
X3.1006Y1.6029
X3.1006Y1.5714
X3.1006Y1.5399
X3.1015Y1.503
X3.1015Y1.4636
X3.1015Y1.4242
X3.1015Y1.3848
X3.1015Y1.3455
X3.1015Y1.3061
X3.1015Y1.1075
X3.1015Y1.0681
X3.1015Y1.0305
X3.1015Y0.9911
X3.1015Y0.9518
X3.1015Y0.9124
X3.1015Y0.873
X3.1015Y0.8337
X3.1015Y0.7943
X3.1015Y0.7549
X3.1015Y0.7156
X3.1015Y0.6762
X3.1015Y0.6368
X3.1015Y0.5974
T2
X-0.0807Y0.1368
X-0.0423Y0.1368
X-0.0099Y1.6475
X-0.0099Y1.49
X-0.0075Y1.7175
X-0.0039Y0.1368
X0.0344Y0.1368
X0.0728Y0.1368
X0.0927Y0.1808
X0.1062Y1.603
X0.124Y0.1112
X0.124Y0.0728
X0.124Y-0.0679
X0.124Y-0.1063
X0.134Y1.8127
X0.1347Y1.8572
X0.1353Y1.955
X0.1353Y1.9199
X0.1399Y1.7762
X0.152Y1.4952
X0.152Y1.4538
X0.152Y1.4085
X0.1624Y0.0728
X0.1624Y-0.0679
X0.1624Y-0.1063
X0.17Y0.1439
X0.1894Y1.6979
X0.191Y1.6349
X0.2013Y1.4085
X0.2238Y1.5021
X0.2264Y0.0472
X0.2264Y-0.0551
X0.2451Y0.0
X0.2906Y0.7484
X0.2908Y0.8041
X0.3171Y1.0557
X0.3642Y1.1601
X0.3644Y1.0557
X0.3644Y1.0163
X0.3669Y0.7222
X0.3688Y1.7587
X0.3688Y1.7087
X0.3688Y1.6587
X0.3793Y1.3095
X0.4089Y1.2582
X0.4089Y1.2079
X0.4188Y1.7587
X0.4188Y1.6587
X0.4198Y1.7078
X0.4266Y1.1632
X0.4435Y1.1302
X0.4597Y0.2289
X0.4688Y1.6537
X0.4709Y1.1952
X0.4719Y1.2838
X0.4738Y1.7587
X0.4738Y1.7087
X0.5271Y1.2351
X0.5372Y0.8138
X0.5388Y0.6366
X0.5841Y1.2838
X0.5841Y1.1932
X0.6109Y0.6652
X0.6116Y0.5913
X0.6155Y0.7646
X0.6155Y0.6366
X0.6292Y0.806
X0.6299Y0.6642
X0.6313Y0.5913
X0.6462Y1.2101
X0.651Y0.8079
X0.651Y0.7685
X0.651Y0.6622
X0.651Y0.5913
X0.6899Y1.3101
X0.6899Y1.2601
X0.7027Y0.6982
X0.7108Y0.7407
X0.7192Y1.6963
X0.7198Y1.1638
X0.7469Y0.7082
X0.7481Y1.6957
X0.7514Y0.7941
X0.7533Y0.674
X0.7751Y1.7227
X0.8752Y1.6408
X0.896Y1.6109
X0.8966Y1.5803
X0.9449Y1.721
X0.9463Y1.6907
X0.9493Y1.8278
X0.9513Y1.8557
X0.9613Y1.8007
X0.9744Y1.7407
X0.9843Y1.7857
X1.0613Y1.7857
X1.0813Y1.8457
X1.0813Y1.8257
X1.0813Y1.8057
X1.0813Y1.7857
X1.1863Y1.5857
X1.2154Y1.6807
X1.2463Y1.5557
X1.2463Y1.5307
X1.2463Y1.4907
X1.2463Y1.4707
X1.2949Y1.8395
X1.3099Y1.8745
X1.3099Y1.8095
X1.3125Y1.7275
X1.3125Y1.6925
X1.3325Y1.7925
X1.3349Y1.7425
X1.3349Y1.7125
X1.3349Y1.6825
X1.4225Y1.8425
X1.4225Y1.8175
X1.4225Y1.7925
X1.4525Y1.8175
X1.4525Y1.7925
X1.5625Y1.6025
X1.6175Y1.5625
X1.6175Y1.5425
X1.6175Y1.5025
X1.6175Y1.4825
X1.6525Y1.3899
X1.8075Y1.4083
X1.831Y1.6431
X1.831Y1.6037
X1.8703Y1.604
X1.8789Y1.6329
X1.9097Y1.604
X1.9275Y1.6375
X1.944Y1.855
X1.949Y1.604
X1.9557Y1.6969
X1.9557Y1.6585
X1.9884Y1.604
X2.0197Y1.6457
X2.0258Y1.8954
X2.0258Y1.8639
X2.0258Y1.8324
X2.0278Y1.604
X2.0573Y1.8954
X2.0573Y1.8639
X2.0573Y1.8324
X2.0581Y1.6457
X2.0671Y1.604
X2.0888Y1.8639
X2.0888Y1.8324
X2.0888Y1.8009
X2.0921Y1.9004
X2.0965Y1.6969
X2.0965Y1.6585
X2.1065Y1.604
X2.1203Y1.8639
X2.1203Y1.8324
X2.1203Y1.8009
X2.1221Y1.9004
X2.1571Y1.9004
X2.1571Y1.8689
X2.1571Y1.8374
X2.1571Y1.802
X2.1625Y1.7003
X2.1625Y1.5487
X2.1645Y1.6629
X2.1645Y1.6255
X2.1645Y1.5881
X2.1645Y1.5113
X2.1645Y1.4739
X2.1645Y1.4365
X2.1842Y1.6806
X2.1842Y1.6452
X2.1842Y1.6058
X2.1842Y1.529
X2.1842Y1.4936
X2.1842Y1.4542
X2.1886Y1.9004
X2.1886Y1.8689
X2.1886Y1.8374
X2.1886Y1.802
X2.2491Y1.6668
X2.2491Y1.6235
X2.2491Y1.5822
X2.2491Y1.5527
X2.2491Y1.5113
X2.2491Y1.468
X2.2964Y1.6668
X2.2964Y1.468
X2.3228Y1.6916
X2.3334Y0.9481
X2.3348Y0.8022
X2.3476Y1.8916
X2.4134Y0.9565
X2.414Y1.3982
X2.4145Y0.8967
X2.4165Y0.8573
X2.4184Y0.8179
X2.4263Y1.8916
X2.4263Y0.7392
X2.4263Y0.7116
X2.4263Y0.6841
X2.4288Y1.4892
X2.4539Y0.7392
X2.4539Y0.7116
X2.4539Y0.6841
X2.4676Y0.8593
X2.4721Y1.1486
X2.4814Y0.8297
X2.4814Y0.7904
X2.4818Y1.8744
X2.4834Y1.4368
X2.4854Y0.7116
X2.4854Y0.6841
X2.4918Y1.1703
X2.4926Y0.8917
X2.4926Y0.8587
X2.4932Y1.6801
X2.4932Y1.6486
X2.4932Y1.6216
X2.4932Y1.5935
X2.4932Y1.562
X2.4932Y1.5305
X2.4932Y0.9085
X2.4932Y0.875
X2.5011Y1.4956
X2.5031Y1.7977
X2.505Y1.283
X2.505Y1.2357
X2.505Y0.81
X2.5095Y1.1506
X2.5129Y0.7116
X2.5129Y0.6841
X2.5272Y1.1703
X2.5287Y1.7372
X2.5326Y1.4956
X2.5405Y0.8986
X2.5405Y0.8691
X2.5405Y0.8258
X2.5405Y0.7943
X2.5469Y1.1506
X2.5483Y1.2357
X2.5543Y1.8967
X2.5641Y1.7377
X2.5641Y1.4957
X2.5666Y1.1703
X2.568Y0.8986
X2.568Y0.8691
X2.568Y0.8258
X2.568Y0.7943
X2.572Y1.8691
X2.5843Y1.1506
X2.5886Y0.1211
X2.5886Y0.0659
X2.5886Y0.0108
X2.5897Y1.2357
X2.5917Y1.8967
X2.5956Y1.4956
X2.5956Y0.8967
X2.5956Y0.8671
X2.5956Y0.8238
X2.5956Y0.7923
X2.5995Y0.7215
X2.5995Y0.6683
X2.6013Y1.7378
X2.6113Y1.8691
X2.6161Y0.1486
X2.6161Y0.0935
X2.6161Y0.0384
X2.6161Y-0.0719
X2.6228Y1.1468
X2.6231Y1.2357
X2.6271Y1.4956
X2.6291Y1.8967
X2.631Y0.7451
X2.631Y0.6959
X2.6414Y1.7963
X2.6428Y1.7377
X2.6437Y0.1211
X2.6437Y0.0659
X2.6437Y0.0108
X2.6468Y1.8691
X2.6504Y1.1724
X2.6507Y0.7215
X2.6507Y0.6683
X2.6586Y1.4956
X2.6645Y1.2357
X2.6645Y1.1467
X2.6665Y1.8967
X2.6665Y0.875
X2.6665Y0.8356
X2.6665Y0.7963
X2.6704Y0.7451
X2.6704Y0.6959
X2.6713Y0.1486
X2.6713Y0.0935
X2.6713Y0.0384
X2.6713Y-0.0719
X2.6743Y1.7377
X2.6822Y1.1722
X2.6901Y1.4956
X2.6901Y0.8553
X2.6901Y0.8159
X2.6901Y0.7766
X2.6901Y0.7215
X2.6901Y0.6683
X2.6978Y1.0104
X2.7019Y1.1467
X2.7078Y1.283
X2.7078Y1.2357
X2.7171Y0.9321
X2.7196Y1.7377
X2.7216Y1.1722
X2.724Y1.4069
X2.724Y1.3376
X2.7274Y1.5778
X2.7274Y1.5541
X2.7274Y1.5226
X2.7275Y1.6959
X2.7275Y1.6644
X2.7275Y1.6334
X2.7275Y1.6093
X2.7275Y1.4956
X2.7393Y1.1467
X2.7418Y1.3376
X2.7614Y1.3376
X2.7659Y1.8732
X2.7698Y0.8524
X2.7698Y0.813
X2.7698Y0.7736
X2.7698Y0.7343
X2.7698Y0.6949
X2.7885Y0.5236
X2.7885Y0.4843
X2.7885Y0.4449
X2.7929Y1.5482
X2.7975Y1.8125
X2.7985Y1.5089
X2.8092Y0.8524
X2.8092Y0.813
X2.8092Y0.7736
X2.8092Y0.7343
X2.8092Y0.6949
X2.8238Y1.9225
X2.8279Y0.5236
X2.8279Y0.4843
X2.8279Y0.4449
X2.8366Y1.9592
X2.8375Y1.8125
X2.8485Y0.8524
X2.8485Y0.813
X2.8485Y0.7736
X2.8485Y0.7343
X2.8485Y0.6949
X2.8525Y1.9225
X2.8622Y0.188
X2.8622Y-0.1063
X2.8642Y0.002
X2.8661Y0.1575
X2.8672Y0.5236
X2.8672Y0.4843
X2.8672Y0.4449
X2.8689Y1.9592
X2.8701Y1.7663
X2.8701Y1.7289
X2.8712Y1.8081
X2.884Y1.5087
X2.8851Y1.5441
X2.8869Y1.7034
X2.8879Y0.8524
X2.8879Y0.813
X2.8879Y0.7736
X2.8879Y0.7343
X2.8879Y0.6949
X2.9066Y0.5236
X2.9066Y0.4843
X2.9066Y0.4449
X2.9254Y1.499
X2.9262Y0.188
X2.9273Y0.8524
X2.9273Y0.813
X2.9273Y0.7736
X2.9273Y0.7343
X2.9273Y0.6949
X2.9294Y1.7155
X2.9309Y1.0537
X2.946Y0.5236
X2.946Y0.4843
X2.946Y0.4449
X2.9558Y1.6845
X2.963Y1.499
X2.9667Y0.8524
X2.9667Y0.813
X2.9667Y0.7736
X2.9667Y0.7343
X2.9667Y0.6949
X2.9762Y1.7155
X2.9854Y0.5236
X2.9854Y0.4843
X2.9854Y0.4449
X3.0006Y1.499
X3.0031Y1.6845
X3.0031Y1.6412
X3.0031Y1.5999
X3.006Y0.8524
X3.006Y0.813
X3.006Y0.7736
X3.006Y0.7343
X3.006Y0.6949
X3.006Y0.6555
X3.006Y0.6161
X3.006Y0.5768
X3.0214Y0.9215
X3.023Y0.9774
X3.0262Y1.0569
X3.0291Y1.7135
X3.0376Y1.499
X3.0454Y0.8524
X3.0454Y0.813
X3.0454Y0.7736
X3.0454Y0.7343
X3.0454Y0.6949
X3.0454Y0.6555
X3.0454Y0.6161
X3.0454Y0.5768
X3.0727Y1.7122
T3
X0.2829Y0.9601
X0.2829Y0.9207
X0.3026Y0.9601
X0.3026Y0.9207
X0.3223Y0.9601
X0.3223Y0.9207
X2.5326Y1.7096
X2.5326Y1.6634
X2.5326Y1.6171
X2.5326Y1.5709
X2.5326Y1.5246
X2.572Y1.7096
X2.572Y1.6634
X2.572Y1.6171
X2.572Y1.5709
X2.572Y1.5246
X2.6113Y1.7096
X2.6113Y1.6634
X2.6113Y1.6171
X2.6113Y1.5709
X2.6113Y1.5246
X2.6507Y1.7096
X2.6507Y1.6634
X2.6507Y1.6171
X2.6507Y1.5709
X2.6507Y1.5246
X2.6901Y1.7096
X2.6901Y1.6634
X2.6901Y1.6171
X2.6901Y1.5709
X2.6901Y1.5246
T4
X0.5102Y-0.0353
X0.5522Y0.2441
X0.6142Y0.2441
X0.6732Y0.2441
X0.7323Y0.2441
X0.7913Y0.2441
X1.3875Y1.178
X1.4879Y1.2725
X1.9724Y0.1304
X2.0906Y0.2397
X2.1102Y-0.0866
X2.2949Y0.0311
X2.3071Y0.2441
X2.3071Y-0.0866
X2.364Y0.4974
X2.364Y0.4224
X2.364Y0.3474
X2.3909Y0.0421
X2.4102Y-0.0812
X2.414Y0.6224
X2.414Y0.4974
X2.414Y0.4224
X2.414Y0.3474
X2.4224Y0.0817
X2.5039Y0.1435
X2.5039Y-0.0776
X2.748Y0.3159
X2.748Y0.2421
X2.748Y0.1634
X2.748Y-0.0335
X2.8268Y0.3159
X2.8268Y0.2421
X2.8268Y0.1634
X2.8268Y-0.0335
X2.9055Y0.3159
X2.9055Y0.2421
X2.9843Y0.3159
X2.9843Y0.2421
T5
X-0.035Y1.3554
X-0.035Y1.2767
X-0.035Y1.1979
X-0.035Y1.1192
X-0.035Y1.0404
X0.0438Y1.3554
X0.0438Y1.2767
X0.0438Y1.1979
X0.0438Y1.1192
X0.0438Y1.0404
T6
X0.0Y1.8504
X0.0Y0.0
X2.9921Y1.8504
X2.9921Y0.0
M30
