%TF.GenerationSoftware,KiCad,Pcbnew,7.99.0-3958-g1df84f4d92*%
%TF.CreationDate,2023-12-24T00:45:37+01:00*%
%TF.ProjectId,SBC,5342432e-6b69-4636-9164-5f7063625858,rev?*%
%TF.SameCoordinates,Original*%
%TF.FileFunction,Soldermask,Top*%
%TF.FilePolarity,Negative*%
%FSLAX46Y46*%
G04 Gerber Fmt 4.6, Leading zero omitted, Abs format (unit mm)*
G04 Created by KiCad (PCBNEW 7.99.0-3958-g1df84f4d92) date 2023-12-24 00:45:37*
%MOMM*%
%LPD*%
G01*
G04 APERTURE LIST*
G04 Aperture macros list*
%AMRoundRect*
0 Rectangle with rounded corners*
0 $1 Rounding radius*
0 $2 $3 $4 $5 $6 $7 $8 $9 X,Y pos of 4 corners*
0 Add a 4 corners polygon primitive as box body*
4,1,4,$2,$3,$4,$5,$6,$7,$8,$9,$2,$3,0*
0 Add four circle primitives for the rounded corners*
1,1,$1+$1,$2,$3*
1,1,$1+$1,$4,$5*
1,1,$1+$1,$6,$7*
1,1,$1+$1,$8,$9*
0 Add four rect primitives between the rounded corners*
20,1,$1+$1,$2,$3,$4,$5,0*
20,1,$1+$1,$4,$5,$6,$7,0*
20,1,$1+$1,$6,$7,$8,$9,0*
20,1,$1+$1,$8,$9,$2,$3,0*%
G04 Aperture macros list end*
%ADD10C,1.000000*%
%ADD11RoundRect,0.218750X0.256250X-0.218750X0.256250X0.218750X-0.256250X0.218750X-0.256250X-0.218750X0*%
%ADD12RoundRect,0.135000X0.135000X0.185000X-0.135000X0.185000X-0.135000X-0.185000X0.135000X-0.185000X0*%
%ADD13RoundRect,0.135000X0.185000X-0.135000X0.185000X0.135000X-0.185000X0.135000X-0.185000X-0.135000X0*%
%ADD14RoundRect,0.250000X-0.350000X0.350000X-0.350000X-0.350000X0.350000X-0.350000X0.350000X0.350000X0*%
%ADD15C,1.200000*%
%ADD16RoundRect,0.125000X0.262500X0.125000X-0.262500X0.125000X-0.262500X-0.125000X0.262500X-0.125000X0*%
%ADD17R,4.700000X4.600000*%
%ADD18RoundRect,0.150000X0.512500X0.150000X-0.512500X0.150000X-0.512500X-0.150000X0.512500X-0.150000X0*%
%ADD19RoundRect,0.140000X-0.170000X0.140000X-0.170000X-0.140000X0.170000X-0.140000X0.170000X0.140000X0*%
%ADD20RoundRect,0.140000X0.140000X0.170000X-0.140000X0.170000X-0.140000X-0.170000X0.140000X-0.170000X0*%
%ADD21RoundRect,0.160000X-0.160000X0.197500X-0.160000X-0.197500X0.160000X-0.197500X0.160000X0.197500X0*%
%ADD22RoundRect,0.135000X-0.135000X-0.185000X0.135000X-0.185000X0.135000X0.185000X-0.135000X0.185000X0*%
%ADD23R,0.250000X0.700000*%
%ADD24R,0.900000X0.250000*%
%ADD25R,0.400000X1.250000*%
%ADD26R,0.250000X0.400000*%
%ADD27RoundRect,0.100000X-0.100000X0.217500X-0.100000X-0.217500X0.100000X-0.217500X0.100000X0.217500X0*%
%ADD28RoundRect,0.160000X-0.197500X-0.160000X0.197500X-0.160000X0.197500X0.160000X-0.197500X0.160000X0*%
%ADD29RoundRect,0.140000X0.170000X-0.140000X0.170000X0.140000X-0.170000X0.140000X-0.170000X-0.140000X0*%
%ADD30RoundRect,0.100000X-0.100000X0.130000X-0.100000X-0.130000X0.100000X-0.130000X0.100000X0.130000X0*%
%ADD31RoundRect,0.062500X0.062500X-0.337500X0.062500X0.337500X-0.062500X0.337500X-0.062500X-0.337500X0*%
%ADD32RoundRect,0.062500X0.337500X-0.062500X0.337500X0.062500X-0.337500X0.062500X-0.337500X-0.062500X0*%
%ADD33R,5.300000X5.300000*%
%ADD34R,2.000000X1.100000*%
%ADD35RoundRect,0.140000X-0.140000X-0.170000X0.140000X-0.170000X0.140000X0.170000X-0.140000X0.170000X0*%
%ADD36RoundRect,0.062500X-0.375000X-0.062500X0.375000X-0.062500X0.375000X0.062500X-0.375000X0.062500X0*%
%ADD37RoundRect,0.062500X-0.062500X-0.375000X0.062500X-0.375000X0.062500X0.375000X-0.062500X0.375000X0*%
%ADD38RoundRect,0.106599X0.418401X0.723401X-0.418401X0.723401X-0.418401X-0.723401X0.418401X-0.723401X0*%
%ADD39RoundRect,0.106599X0.418401X0.633401X-0.418401X0.633401X-0.418401X-0.633401X0.418401X-0.633401X0*%
%ADD40RoundRect,0.200000X0.785000X-1.540000X0.785000X1.540000X-0.785000X1.540000X-0.785000X-1.540000X0*%
%ADD41RoundRect,0.100000X-0.130000X-0.100000X0.130000X-0.100000X0.130000X0.100000X-0.130000X0.100000X0*%
%ADD42C,0.270000*%
%ADD43RoundRect,0.100000X0.100000X-0.130000X0.100000X0.130000X-0.100000X0.130000X-0.100000X-0.130000X0*%
%ADD44R,1.000000X1.000000*%
%ADD45R,1.000000X2.130000*%
%ADD46R,1.000000X3.800000*%
%ADD47R,1.650000X1.000000*%
%ADD48R,3.800000X1.000000*%
%ADD49RoundRect,0.225000X-0.225000X-0.250000X0.225000X-0.250000X0.225000X0.250000X-0.225000X0.250000X0*%
%ADD50RoundRect,0.160000X0.197500X0.160000X-0.197500X0.160000X-0.197500X-0.160000X0.197500X-0.160000X0*%
%ADD51RoundRect,0.135000X-0.185000X0.135000X-0.185000X-0.135000X0.185000X-0.135000X0.185000X0.135000X0*%
%ADD52RoundRect,0.250000X-0.650000X0.325000X-0.650000X-0.325000X0.650000X-0.325000X0.650000X0.325000X0*%
%ADD53RoundRect,0.218750X0.218750X0.256250X-0.218750X0.256250X-0.218750X-0.256250X0.218750X-0.256250X0*%
%ADD54R,1.100000X2.000000*%
%ADD55RoundRect,0.100000X0.100000X-0.217500X0.100000X0.217500X-0.100000X0.217500X-0.100000X-0.217500X0*%
%ADD56RoundRect,0.062500X-0.062500X0.375000X-0.062500X-0.375000X0.062500X-0.375000X0.062500X0.375000X0*%
%ADD57RoundRect,0.062500X-0.375000X0.062500X-0.375000X-0.062500X0.375000X-0.062500X0.375000X0.062500X0*%
%ADD58R,2.500000X2.500000*%
%ADD59RoundRect,0.225000X0.225000X0.250000X-0.225000X0.250000X-0.225000X-0.250000X0.225000X-0.250000X0*%
%ADD60RoundRect,0.250000X1.500000X0.550000X-1.500000X0.550000X-1.500000X-0.550000X1.500000X-0.550000X0*%
%ADD61R,0.450000X0.700000*%
%ADD62RoundRect,0.218750X-0.218750X-0.256250X0.218750X-0.256250X0.218750X0.256250X-0.218750X0.256250X0*%
%ADD63O,0.200000X0.350000*%
%ADD64O,0.350000X0.200000*%
%ADD65C,0.350000*%
%ADD66RoundRect,0.100000X0.130000X0.100000X-0.130000X0.100000X-0.130000X-0.100000X0.130000X-0.100000X0*%
%ADD67R,0.700000X0.450000*%
%ADD68RoundRect,0.225000X0.250000X-0.225000X0.250000X0.225000X-0.250000X0.225000X-0.250000X-0.225000X0*%
%ADD69R,0.450000X1.450000*%
%ADD70C,0.300000*%
%ADD71RoundRect,0.076200X1.066800X0.685800X-1.066800X0.685800X-1.066800X-0.685800X1.066800X-0.685800X0*%
%ADD72C,3.100000*%
%ADD73C,4.700000*%
%ADD74RoundRect,0.100000X-0.162635X0.021213X0.021213X-0.162635X0.162635X-0.021213X-0.021213X0.162635X0*%
%ADD75RoundRect,0.173913X-0.226087X-0.726087X0.226087X-0.726087X0.226087X0.726087X-0.226087X0.726087X0*%
%ADD76RoundRect,0.025000X-0.225000X-0.975000X0.225000X-0.975000X0.225000X0.975000X-0.225000X0.975000X0*%
%ADD77RoundRect,0.112500X0.112500X-0.187500X0.112500X0.187500X-0.112500X0.187500X-0.112500X-0.187500X0*%
%ADD78R,4.950000X3.175000*%
%ADD79C,0.330200*%
%ADD80RoundRect,0.067500X-0.357500X-0.067500X0.357500X-0.067500X0.357500X0.067500X-0.357500X0.067500X0*%
%ADD81RoundRect,0.067500X-0.067500X0.357500X-0.067500X-0.357500X0.067500X-0.357500X0.067500X0.357500X0*%
%ADD82R,5.060000X5.200000*%
%ADD83RoundRect,0.250000X0.262500X0.450000X-0.262500X0.450000X-0.262500X-0.450000X0.262500X-0.450000X0*%
%ADD84R,0.405000X0.990000*%
%ADD85R,2.235000X1.725000*%
%ADD86R,0.406250X0.760000*%
%ADD87R,1.900000X2.400000*%
%ADD88RoundRect,0.050000X0.362500X0.050000X-0.362500X0.050000X-0.362500X-0.050000X0.362500X-0.050000X0*%
%ADD89RoundRect,0.050000X0.050000X0.362500X-0.050000X0.362500X-0.050000X-0.362500X0.050000X-0.362500X0*%
%ADD90R,5.200000X5.200000*%
%ADD91RoundRect,0.218750X-0.256250X0.218750X-0.256250X-0.218750X0.256250X-0.218750X0.256250X0.218750X0*%
%ADD92R,2.650000X0.760000*%
%ADD93RoundRect,0.250000X-0.375000X-0.850000X0.375000X-0.850000X0.375000X0.850000X-0.375000X0.850000X0*%
%ADD94R,1.000000X0.700000*%
%ADD95R,0.600000X0.700000*%
%ADD96R,1.800000X1.200000*%
%ADD97RoundRect,0.250000X0.275000X0.250000X-0.275000X0.250000X-0.275000X-0.250000X0.275000X-0.250000X0*%
%ADD98RoundRect,0.250000X0.850000X0.275000X-0.850000X0.275000X-0.850000X-0.275000X0.850000X-0.275000X0*%
%ADD99RoundRect,0.225000X-0.250000X0.225000X-0.250000X-0.225000X0.250000X-0.225000X0.250000X0.225000X0*%
%ADD100RoundRect,0.150000X0.150000X-0.512500X0.150000X0.512500X-0.150000X0.512500X-0.150000X-0.512500X0*%
%ADD101RoundRect,0.150000X-0.512500X-0.150000X0.512500X-0.150000X0.512500X0.150000X-0.512500X0.150000X0*%
%ADD102RoundRect,0.150000X0.150000X-0.587500X0.150000X0.587500X-0.150000X0.587500X-0.150000X-0.587500X0*%
%ADD103C,1.600000*%
%ADD104C,0.900000*%
G04 APERTURE END LIST*
D10*
X-4000000Y51000000D02*
X80000000Y51000000D01*
X80000000Y-4000000D01*
X-4000000Y-4000000D01*
X-4000000Y51000000D01*
%TO.C,J4*%
G36*
X738000Y38906000D02*
G01*
X-1352000Y38906000D01*
X-1352000Y40786000D01*
X738000Y40786000D01*
X738000Y38906000D01*
G37*
%TD*%
D11*
%TO.C,D4*%
X43244000Y38782500D03*
X43244000Y40357500D03*
%TD*%
D12*
%TO.C,R84*%
X34999600Y34726200D03*
X33979600Y34726200D03*
%TD*%
D13*
%TO.C,R107*%
X582600Y6530200D03*
X582600Y7550200D03*
%TD*%
D14*
%TO.C,J3*%
X1112000Y34427000D03*
D15*
X-888000Y34427000D03*
X1112000Y32427000D03*
X-888000Y32427000D03*
X1112000Y30427000D03*
X-888000Y30427000D03*
X1112000Y28427000D03*
X-888000Y28427000D03*
X1112000Y26427000D03*
X-888000Y26427000D03*
%TD*%
D16*
%TO.C,U14*%
X17137200Y29465700D03*
X17137200Y30735700D03*
X17137200Y32005700D03*
X17137200Y33275700D03*
X9637200Y33275700D03*
X9637200Y32005700D03*
X9637200Y30735700D03*
X9637200Y29465700D03*
D17*
X13387200Y31370700D03*
%TD*%
D18*
%TO.C,U10*%
X46921500Y29594000D03*
X46921500Y30544000D03*
X46921500Y31494000D03*
X44646500Y31494000D03*
X44646500Y29594000D03*
%TD*%
D12*
%TO.C,R77*%
X50027900Y8429600D03*
X49007900Y8429600D03*
%TD*%
D19*
%TO.C,C17*%
X60777981Y19474986D03*
X60777981Y18514986D03*
%TD*%
D20*
%TO.C,C60*%
X62554519Y35514614D03*
X61594519Y35514614D03*
%TD*%
D13*
%TO.C,R3*%
X60752981Y23189986D03*
X60752981Y24209986D03*
%TD*%
D19*
%TO.C,C327*%
X4317019Y4894614D03*
X4317019Y3934614D03*
%TD*%
D21*
%TO.C,R31*%
X44641000Y37376500D03*
X44641000Y36181500D03*
%TD*%
D22*
%TO.C,R86*%
X9952000Y26727000D03*
X10972000Y26727000D03*
%TD*%
D20*
%TO.C,C54*%
X56457981Y36432487D03*
X55497981Y36432487D03*
%TD*%
D19*
%TO.C,C317*%
X2354519Y5832114D03*
X2354519Y4872114D03*
%TD*%
%TO.C,C34*%
X67677981Y30667486D03*
X67677981Y29707486D03*
%TD*%
D11*
%TO.C,D5*%
X73749400Y28393900D03*
X73749400Y29968900D03*
%TD*%
D23*
%TO.C,U5*%
X25987000Y42375000D03*
X26487000Y42375000D03*
X26987000Y42375000D03*
D24*
X27837000Y42825000D03*
X27837000Y43325000D03*
X27837000Y43825000D03*
D23*
X26987000Y44275000D03*
X26487000Y44275000D03*
X25987000Y44275000D03*
D24*
X25137000Y42825000D03*
X25137000Y43325000D03*
D25*
X25387000Y43325000D03*
D24*
X25137000Y43825000D03*
D26*
X26487000Y43325000D03*
%TD*%
D27*
%TO.C,R41*%
X38149200Y2672500D03*
X38149200Y1857500D03*
%TD*%
D12*
%TO.C,R109*%
X5727019Y5814614D03*
X4707019Y5814614D03*
%TD*%
D28*
%TO.C,R23*%
X21564500Y46727000D03*
X22759500Y46727000D03*
%TD*%
D13*
%TO.C,R90*%
X3674519Y33485014D03*
X3674519Y34505014D03*
%TD*%
D29*
%TO.C,C63*%
X49527519Y43937014D03*
X49527519Y44897014D03*
%TD*%
D27*
%TO.C,R101*%
X4062400Y17429900D03*
X4062400Y16614900D03*
%TD*%
D13*
%TO.C,R9*%
X67892981Y46574986D03*
X67892981Y47594986D03*
%TD*%
D30*
%TO.C,C65*%
X19662000Y44859500D03*
X19662000Y44219500D03*
%TD*%
D19*
%TO.C,C39*%
X68627981Y30667486D03*
X68627981Y29707486D03*
%TD*%
D31*
%TO.C,U19*%
X7912000Y39927000D03*
X8412000Y39927000D03*
X8912000Y39927000D03*
X9412000Y39927000D03*
X9912000Y39927000D03*
X10412000Y39927000D03*
X10912000Y39927000D03*
X11412000Y39927000D03*
X11912000Y39927000D03*
X12412000Y39927000D03*
X12912000Y39927000D03*
X13412000Y39927000D03*
D32*
X14112000Y40627000D03*
X14112000Y41127000D03*
X14112000Y41627000D03*
X14112000Y42127000D03*
X14112000Y42627000D03*
X14112000Y43127000D03*
X14112000Y43627000D03*
X14112000Y44127000D03*
X14112000Y44627000D03*
X14112000Y45127000D03*
X14112000Y45627000D03*
X14112000Y46127000D03*
D31*
X13412000Y46827000D03*
X12912000Y46827000D03*
X12412000Y46827000D03*
X11912000Y46827000D03*
X11412000Y46827000D03*
X10912000Y46827000D03*
X10412000Y46827000D03*
X9912000Y46827000D03*
X9412000Y46827000D03*
X8912000Y46827000D03*
X8412000Y46827000D03*
X7912000Y46827000D03*
D32*
X7212000Y46127000D03*
X7212000Y45627000D03*
X7212000Y45127000D03*
X7212000Y44627000D03*
X7212000Y44127000D03*
X7212000Y43627000D03*
X7212000Y43127000D03*
X7212000Y42627000D03*
X7212000Y42127000D03*
X7212000Y41627000D03*
X7212000Y41127000D03*
X7212000Y40627000D03*
D33*
X10662000Y43377000D03*
%TD*%
D19*
%TO.C,C38*%
X76214519Y39314614D03*
X76214519Y38354614D03*
%TD*%
%TO.C,C59*%
X69190481Y35454986D03*
X69190481Y34494986D03*
%TD*%
D34*
%TO.C,L5*%
X65027981Y34219986D03*
X65027981Y32319986D03*
%TD*%
D35*
%TO.C,C62*%
X71940481Y43274986D03*
X72900481Y43274986D03*
%TD*%
D36*
%TO.C,U2*%
X62090481Y23274986D03*
X62090481Y22774986D03*
X62090481Y22274986D03*
X62090481Y21774986D03*
X62090481Y21274986D03*
X62090481Y20774986D03*
X62090481Y20274986D03*
X62090481Y19774986D03*
D37*
X62777981Y19087486D03*
X63277981Y19087486D03*
X63777981Y19087486D03*
X64277981Y19087486D03*
X64777981Y19087486D03*
X65277981Y19087486D03*
X65777981Y19087486D03*
X66277981Y19087486D03*
D36*
X66965481Y19774986D03*
X66965481Y20274986D03*
X66965481Y20774986D03*
X66965481Y21274986D03*
X66965481Y21774986D03*
X66965481Y22274986D03*
X66965481Y22774986D03*
X66965481Y23274986D03*
D37*
X66277981Y23962486D03*
X65777981Y23962486D03*
X65277981Y23962486D03*
X64777981Y23962486D03*
X64277981Y23962486D03*
X63777981Y23962486D03*
X63277981Y23962486D03*
X62777981Y23962486D03*
D38*
X63312981Y22434986D03*
D39*
X63312981Y20524986D03*
D40*
X65282981Y21524986D03*
%TD*%
D30*
%TO.C,C97*%
X20374919Y10399414D03*
X20374919Y9759414D03*
%TD*%
D41*
%TO.C,C74*%
X28961000Y40277000D03*
X29601000Y40277000D03*
%TD*%
D20*
%TO.C,C1*%
X60807981Y20374986D03*
X59847981Y20374986D03*
%TD*%
D13*
%TO.C,R1*%
X60752981Y21264986D03*
X60752981Y22284986D03*
%TD*%
D42*
%TO.C,U12*%
X46629519Y24539614D03*
X47429519Y24539614D03*
X48229519Y24539614D03*
X49029519Y24539614D03*
X49829519Y24539614D03*
X52229519Y24539614D03*
X53029519Y24539614D03*
X53829519Y24539614D03*
X54629519Y24539614D03*
X55429519Y24539614D03*
X46629519Y11539614D03*
X47429519Y11539614D03*
X48229519Y11539614D03*
X49029519Y11539614D03*
X49829519Y11539614D03*
X52229519Y11539614D03*
X53029519Y11539614D03*
X53829519Y11539614D03*
X54629519Y11539614D03*
X55429519Y11539614D03*
X46629519Y10889614D03*
X47429519Y10889614D03*
X48229519Y10889614D03*
X49029519Y10889614D03*
X49829519Y10889614D03*
X52229519Y10889614D03*
X53029519Y10889614D03*
X53829519Y10889614D03*
X54629519Y10889614D03*
X55429519Y10889614D03*
X46629519Y23889614D03*
X47429519Y23889614D03*
X48229519Y23889614D03*
X49029519Y23889614D03*
X49829519Y23889614D03*
X52229519Y23889614D03*
X53029519Y23889614D03*
X53829519Y23889614D03*
X54629519Y23889614D03*
X55429519Y23889614D03*
X46629519Y23239614D03*
X47429519Y23239614D03*
X48229519Y23239614D03*
X49029519Y23239614D03*
X49829519Y23239614D03*
X52229519Y23239614D03*
X53029519Y23239614D03*
X53829519Y23239614D03*
X54629519Y23239614D03*
X55429519Y23239614D03*
X46629519Y22589614D03*
X47429519Y22589614D03*
X48229519Y22589614D03*
X49029519Y22589614D03*
X49829519Y22589614D03*
X52229519Y22589614D03*
X53029519Y22589614D03*
X53829519Y22589614D03*
X54629519Y22589614D03*
X55429519Y22589614D03*
X46629519Y21939614D03*
X47429519Y21939614D03*
X48229519Y21939614D03*
X49029519Y21939614D03*
X49829519Y21939614D03*
X52229519Y21939614D03*
X53029519Y21939614D03*
X53829519Y21939614D03*
X54629519Y21939614D03*
X55429519Y21939614D03*
X46629519Y21289614D03*
X47429519Y21289614D03*
X48229519Y21289614D03*
X49029519Y21289614D03*
X49829519Y21289614D03*
X52229519Y21289614D03*
X53029519Y21289614D03*
X53829519Y21289614D03*
X54629519Y21289614D03*
X55429519Y21289614D03*
X46629519Y20639614D03*
X47429519Y20639614D03*
X48229519Y20639614D03*
X49029519Y20639614D03*
X49829519Y20639614D03*
X52229519Y20639614D03*
X53029519Y20639614D03*
X53829519Y20639614D03*
X54629519Y20639614D03*
X55429519Y20639614D03*
X46629519Y19989614D03*
X47429519Y19989614D03*
X48229519Y19989614D03*
X49029519Y19989614D03*
X49829519Y19989614D03*
X52229519Y19989614D03*
X53029519Y19989614D03*
X53829519Y19989614D03*
X54629519Y19989614D03*
X55429519Y19989614D03*
X46629519Y19339614D03*
X47429519Y19339614D03*
X48229519Y19339614D03*
X49029519Y19339614D03*
X49829519Y19339614D03*
X52229519Y19339614D03*
X53029519Y19339614D03*
X53829519Y19339614D03*
X54629519Y19339614D03*
X55429519Y19339614D03*
X46629519Y18689614D03*
X47429519Y18689614D03*
X48229519Y18689614D03*
X49029519Y18689614D03*
X49829519Y18689614D03*
X52229519Y18689614D03*
X53029519Y18689614D03*
X53829519Y18689614D03*
X54629519Y18689614D03*
X55429519Y18689614D03*
X46629519Y16739614D03*
X47429519Y16739614D03*
X48229519Y16739614D03*
X49029519Y16739614D03*
X49829519Y16739614D03*
X52229519Y16739614D03*
X53029519Y16739614D03*
X53829519Y16739614D03*
X54629519Y16739614D03*
X55429519Y16739614D03*
X46629519Y16089614D03*
X47429519Y16089614D03*
X48229519Y16089614D03*
X49029519Y16089614D03*
X49829519Y16089614D03*
X52229519Y16089614D03*
X53029519Y16089614D03*
X53829519Y16089614D03*
X54629519Y16089614D03*
X55429519Y16089614D03*
X46629519Y15439614D03*
X47429519Y15439614D03*
X48229519Y15439614D03*
X49029519Y15439614D03*
X49829519Y15439614D03*
X52229519Y15439614D03*
X53029519Y15439614D03*
X53829519Y15439614D03*
X54629519Y15439614D03*
X55429519Y15439614D03*
X46629519Y14789614D03*
X47429519Y14789614D03*
X48229519Y14789614D03*
X49029519Y14789614D03*
X49829519Y14789614D03*
X52229519Y14789614D03*
X53029519Y14789614D03*
X53829519Y14789614D03*
X54629519Y14789614D03*
X55429519Y14789614D03*
X46629519Y14139614D03*
X47429519Y14139614D03*
X48229519Y14139614D03*
X49029519Y14139614D03*
X49829519Y14139614D03*
X52229519Y14139614D03*
X53029519Y14139614D03*
X53829519Y14139614D03*
X54629519Y14139614D03*
X55429519Y14139614D03*
X46629519Y13489614D03*
X47429519Y13489614D03*
X48229519Y13489614D03*
X49029519Y13489614D03*
X49829519Y13489614D03*
X52229519Y13489614D03*
X53029519Y13489614D03*
X53829519Y13489614D03*
X54629519Y13489614D03*
X55429519Y13489614D03*
X46629519Y12839614D03*
X47429519Y12839614D03*
X48229519Y12839614D03*
X49029519Y12839614D03*
X49829519Y12839614D03*
X52229519Y12839614D03*
X53029519Y12839614D03*
X53829519Y12839614D03*
X54629519Y12839614D03*
X55429519Y12839614D03*
X46629519Y12189614D03*
X47429519Y12189614D03*
X48229519Y12189614D03*
X49029519Y12189614D03*
X49829519Y12189614D03*
X52229519Y12189614D03*
X53029519Y12189614D03*
X53829519Y12189614D03*
X54629519Y12189614D03*
X55429519Y12189614D03*
%TD*%
D43*
%TO.C,C314*%
X2697000Y39846000D03*
X2697000Y40486000D03*
%TD*%
D44*
%TO.C,J2*%
X3879000Y49370000D03*
D45*
X3879000Y47805000D03*
D46*
X3879000Y42640000D03*
D45*
X3879000Y37475000D03*
D44*
X3879000Y35910000D03*
D47*
X5204000Y49370000D03*
X5204000Y35910000D03*
D48*
X10129000Y49370000D03*
X10129000Y35910000D03*
D47*
X15054000Y49370000D03*
X15054000Y35910000D03*
D44*
X16379000Y49370000D03*
D45*
X16379000Y47805000D03*
D46*
X16379000Y42640000D03*
D45*
X16379000Y37475000D03*
D44*
X16379000Y35910000D03*
%TD*%
D20*
%TO.C,C316*%
X6092000Y43127000D03*
X5132000Y43127000D03*
%TD*%
D49*
%TO.C,C75*%
X29268000Y37610000D03*
X30818000Y37610000D03*
%TD*%
D50*
%TO.C,R17*%
X49525019Y45817014D03*
X48330019Y45817014D03*
%TD*%
D51*
%TO.C,R14*%
X62577981Y47609986D03*
X62577981Y46589986D03*
%TD*%
D30*
%TO.C,C99*%
X22000519Y10399414D03*
X22000519Y9759414D03*
%TD*%
D52*
%TO.C,C46*%
X68877981Y12174986D03*
X68877981Y9224986D03*
%TD*%
D12*
%TO.C,R67*%
X49937519Y26620814D03*
X48917519Y26620814D03*
%TD*%
D53*
%TO.C,D8*%
X38327100Y34243600D03*
X36752100Y34243600D03*
%TD*%
D51*
%TO.C,R7*%
X63310000Y26634400D03*
X63310000Y25614400D03*
%TD*%
D54*
%TO.C,L1*%
X60002981Y41019986D03*
X58102981Y41019986D03*
%TD*%
D55*
%TO.C,R48*%
X41197200Y1857500D03*
X41197200Y2672500D03*
%TD*%
D41*
%TO.C,C107*%
X34617000Y3515800D03*
X35257000Y3515800D03*
%TD*%
D56*
%TO.C,U15*%
X28010000Y33727300D03*
X27510000Y33727300D03*
X27010000Y33727300D03*
X26510000Y33727300D03*
X26010000Y33727300D03*
X25510000Y33727300D03*
D57*
X24822500Y33039800D03*
X24822500Y32539800D03*
X24822500Y32039800D03*
X24822500Y31539800D03*
X24822500Y31039800D03*
X24822500Y30539800D03*
D56*
X25510000Y29852300D03*
X26010000Y29852300D03*
X26510000Y29852300D03*
X27010000Y29852300D03*
X27510000Y29852300D03*
X28010000Y29852300D03*
D57*
X28697500Y30539800D03*
X28697500Y31039800D03*
X28697500Y31539800D03*
X28697500Y32039800D03*
X28697500Y32539800D03*
X28697500Y33039800D03*
D58*
X26760000Y31789800D03*
%TD*%
D12*
%TO.C,R89*%
X19235400Y39070700D03*
X18215400Y39070700D03*
%TD*%
D59*
%TO.C,C287*%
X72550000Y47000000D03*
X71000000Y47000000D03*
%TD*%
D41*
%TO.C,C86*%
X34287805Y45580800D03*
X34927805Y45580800D03*
%TD*%
D30*
%TO.C,C149*%
X43351100Y31494000D03*
X43351100Y30854000D03*
%TD*%
D51*
%TO.C,R59*%
X53300000Y38010000D03*
X53300000Y36990000D03*
%TD*%
D20*
%TO.C,C49*%
X56457981Y38369153D03*
X55497981Y38369153D03*
%TD*%
D13*
%TO.C,R10*%
X61627981Y46589986D03*
X61627981Y47609986D03*
%TD*%
D60*
%TO.C,C20*%
X65727981Y7374986D03*
X60327981Y7374986D03*
%TD*%
D55*
%TO.C,R51*%
X42721200Y1857500D03*
X42721200Y2672500D03*
%TD*%
D49*
%TO.C,C85*%
X38846805Y37960800D03*
X40396805Y37960800D03*
%TD*%
D54*
%TO.C,L4*%
X73252981Y41419986D03*
X75152981Y41419986D03*
%TD*%
D20*
%TO.C,C44*%
X56457981Y39337486D03*
X55497981Y39337486D03*
%TD*%
D49*
%TO.C,C73*%
X20529000Y40511500D03*
X22079000Y40511500D03*
%TD*%
D53*
%TO.C,D7*%
X38327100Y35742200D03*
X36752100Y35742200D03*
%TD*%
D27*
%TO.C,R103*%
X5815000Y17455300D03*
X5815000Y16640300D03*
%TD*%
D61*
%TO.C,Q3*%
X41266286Y46197919D03*
X42566286Y46197919D03*
X41916286Y48197919D03*
%TD*%
D19*
%TO.C,C53*%
X70140481Y35454986D03*
X70140481Y34494986D03*
%TD*%
D20*
%TO.C,C315*%
X6092000Y41527000D03*
X5132000Y41527000D03*
%TD*%
D19*
%TO.C,C26*%
X66752981Y47579986D03*
X66752981Y46619986D03*
%TD*%
D55*
%TO.C,R46*%
X38962000Y1857500D03*
X38962000Y2672500D03*
%TD*%
D62*
%TO.C,FB8*%
X1067019Y19552114D03*
X2642019Y19552114D03*
%TD*%
D50*
%TO.C,R25*%
X30513500Y41674000D03*
X29318500Y41674000D03*
%TD*%
D41*
%TO.C,C162*%
X41178000Y28582000D03*
X41818000Y28582000D03*
%TD*%
D29*
%TO.C,C64*%
X3904519Y21286552D03*
X3904519Y22246552D03*
%TD*%
D22*
%TO.C,R79*%
X54369200Y33982000D03*
X55389200Y33982000D03*
%TD*%
D54*
%TO.C,L2*%
X60002981Y38619986D03*
X58102981Y38619986D03*
%TD*%
D49*
%TO.C,C76*%
X24950000Y46500000D03*
X26500000Y46500000D03*
%TD*%
D63*
%TO.C,U13*%
X14034519Y21920014D03*
X14534519Y21920014D03*
X15034519Y21920014D03*
X15534519Y21920014D03*
X16034519Y21920014D03*
X16534519Y21920014D03*
X17034519Y21920014D03*
X17534519Y21920014D03*
X18034519Y21920014D03*
X18534519Y21920014D03*
X19034519Y21920014D03*
X19534519Y21920014D03*
X20034519Y21920014D03*
X20534519Y21920014D03*
D64*
X14034519Y21420014D03*
D65*
X14534519Y21420014D03*
X15034519Y21420014D03*
X15534519Y21420014D03*
X16034519Y21420014D03*
X16534519Y21420014D03*
X17034519Y21420014D03*
X17534519Y21420014D03*
X18034519Y21420014D03*
X18534519Y21420014D03*
X19034519Y21420014D03*
X19534519Y21420014D03*
X20034519Y21420014D03*
D64*
X20534519Y21420014D03*
X14034519Y20920014D03*
D65*
X14534519Y20920014D03*
X15034519Y20920014D03*
X15534519Y20920014D03*
X16034519Y20920014D03*
X16534519Y20920014D03*
X17034519Y20920014D03*
X17534519Y20920014D03*
X18034519Y20920014D03*
X18534519Y20920014D03*
X19034519Y20920014D03*
X19534519Y20920014D03*
X20034519Y20920014D03*
D64*
X20534519Y20920014D03*
X14034519Y20420014D03*
D65*
X14534519Y20420014D03*
X15034519Y20420014D03*
X15534519Y20420014D03*
X19534519Y20420014D03*
X20034519Y20420014D03*
D64*
X20534519Y20420014D03*
X14034519Y19920014D03*
D65*
X14534519Y19920014D03*
X15034519Y19920014D03*
X16034519Y19920014D03*
X16534519Y19920014D03*
X17034519Y19920014D03*
X17534519Y19920014D03*
X18034519Y19920014D03*
X18534519Y19920014D03*
X19534519Y19920014D03*
X20034519Y19920014D03*
D64*
X20534519Y19920014D03*
X14034519Y19420014D03*
D65*
X14534519Y19420014D03*
X15034519Y19420014D03*
X16034519Y19420014D03*
X18534519Y19420014D03*
X19534519Y19420014D03*
X20034519Y19420014D03*
D64*
X20534519Y19420014D03*
X14034519Y18920014D03*
D65*
X14534519Y18920014D03*
X15034519Y18920014D03*
X16034519Y18920014D03*
X18534519Y18920014D03*
X19534519Y18920014D03*
X20034519Y18920014D03*
D64*
X20534519Y18920014D03*
X14034519Y18420014D03*
D65*
X14534519Y18420014D03*
X15034519Y18420014D03*
X16034519Y18420014D03*
X18534519Y18420014D03*
X19534519Y18420014D03*
X20034519Y18420014D03*
D64*
X20534519Y18420014D03*
X14034519Y17920014D03*
D65*
X14534519Y17920014D03*
X15034519Y17920014D03*
X16034519Y17920014D03*
X18534519Y17920014D03*
X19534519Y17920014D03*
X20034519Y17920014D03*
D64*
X20534519Y17920014D03*
X14034519Y17420014D03*
D65*
X14534519Y17420014D03*
X15034519Y17420014D03*
X16034519Y17420014D03*
X16534519Y17420014D03*
X17034519Y17420014D03*
X17534519Y17420014D03*
X18034519Y17420014D03*
X18534519Y17420014D03*
X19534519Y17420014D03*
X20034519Y17420014D03*
D64*
X20534519Y17420014D03*
X14034519Y16920014D03*
D65*
X14534519Y16920014D03*
X15034519Y16920014D03*
X19534519Y16920014D03*
X20034519Y16920014D03*
D64*
X20534519Y16920014D03*
X14034519Y16420014D03*
D65*
X14534519Y16420014D03*
X15034519Y16420014D03*
X15534519Y16420014D03*
X16034519Y16420014D03*
X16534519Y16420014D03*
X17034519Y16420014D03*
X17534519Y16420014D03*
X18034519Y16420014D03*
X18534519Y16420014D03*
X19034519Y16420014D03*
X19534519Y16420014D03*
X20034519Y16420014D03*
D64*
X20534519Y16420014D03*
X14034519Y15920014D03*
D65*
X14534519Y15920014D03*
X15034519Y15920014D03*
X15534519Y15920014D03*
X16034519Y15920014D03*
X16534519Y15920014D03*
X17034519Y15920014D03*
X17534519Y15920014D03*
X18034519Y15920014D03*
X18534519Y15920014D03*
X19034519Y15920014D03*
X19534519Y15920014D03*
X20034519Y15920014D03*
D64*
X20534519Y15920014D03*
D63*
X14034519Y15420014D03*
X14534519Y15420014D03*
X15034519Y15420014D03*
X15534519Y15420014D03*
X16034519Y15420014D03*
X16534519Y15420014D03*
X17034519Y15420014D03*
X17534519Y15420014D03*
X18034519Y15420014D03*
X18534519Y15420014D03*
X19034519Y15420014D03*
X19534519Y15420014D03*
X20034519Y15420014D03*
X20534519Y15420014D03*
%TD*%
D51*
%TO.C,R12*%
X60627981Y47609986D03*
X60627981Y46589986D03*
%TD*%
D28*
%TO.C,R19*%
X22562000Y39127000D03*
X23757000Y39127000D03*
%TD*%
D49*
%TO.C,C77*%
X29268000Y39134000D03*
X30818000Y39134000D03*
%TD*%
D60*
%TO.C,C27*%
X65727981Y14474986D03*
X60327981Y14474986D03*
%TD*%
D41*
%TO.C,C78*%
X25593000Y45357000D03*
X26233000Y45357000D03*
%TD*%
D13*
%TO.C,R75*%
X72504800Y28950800D03*
X72504800Y29970800D03*
%TD*%
D30*
%TO.C,C96*%
X19663719Y10399414D03*
X19663719Y9759414D03*
%TD*%
D13*
%TO.C,R2*%
X59802981Y21264986D03*
X59802981Y22284986D03*
%TD*%
D22*
%TO.C,R78*%
X58607000Y33982000D03*
X59627000Y33982000D03*
%TD*%
D34*
%TO.C,L3*%
X67427981Y34219986D03*
X67427981Y32319986D03*
%TD*%
D66*
%TO.C,C132*%
X32039000Y28455000D03*
X31399000Y28455000D03*
%TD*%
D30*
%TO.C,C106*%
X44194400Y4871000D03*
X44194400Y4231000D03*
%TD*%
D67*
%TO.C,Q7*%
X51829200Y30375200D03*
X51829200Y31675200D03*
X49829200Y31025200D03*
%TD*%
D20*
%TO.C,C50*%
X56457981Y41237486D03*
X55497981Y41237486D03*
%TD*%
D68*
%TO.C,C80*%
X45911000Y35747000D03*
X45911000Y37297000D03*
%TD*%
D27*
%TO.C,R44*%
X43483200Y2672500D03*
X43483200Y1857500D03*
%TD*%
D69*
%TO.C,U6*%
X6710800Y21686000D03*
X7360800Y21686000D03*
X8010800Y21686000D03*
X8660800Y21686000D03*
X8660800Y26086000D03*
X8010800Y26086000D03*
X7360800Y26086000D03*
D70*
X7185800Y23386000D03*
X7685800Y23386000D03*
X8185800Y23386000D03*
D71*
X7685800Y23886000D03*
D70*
X7185800Y24386000D03*
X7685800Y24386000D03*
X8185800Y24386000D03*
D69*
X6710800Y26086000D03*
%TD*%
D72*
%TO.C,H3*%
X0Y47000000D03*
D73*
X0Y47000000D03*
%TD*%
D74*
%TO.C,C102*%
X36310726Y4253274D03*
X36763274Y3800726D03*
%TD*%
D27*
%TO.C,R43*%
X44194400Y2672500D03*
X44194400Y1857500D03*
%TD*%
%TO.C,R104*%
X6526200Y17455300D03*
X6526200Y16640300D03*
%TD*%
D22*
%TO.C,R35*%
X28317400Y27868200D03*
X29337400Y27868200D03*
%TD*%
D68*
%TO.C,C290*%
X76001719Y3882414D03*
X76001719Y5432414D03*
%TD*%
D50*
%TO.C,R18*%
X21509500Y39127000D03*
X20314500Y39127000D03*
%TD*%
D19*
%TO.C,C32*%
X65677981Y30667486D03*
X65677981Y29707486D03*
%TD*%
D51*
%TO.C,R57*%
X60350000Y45260000D03*
X60350000Y44240000D03*
%TD*%
D22*
%TO.C,R81*%
X54369200Y27987600D03*
X55389200Y27987600D03*
%TD*%
D41*
%TO.C,C82*%
X38539805Y40627800D03*
X39179805Y40627800D03*
%TD*%
D55*
%TO.C,R52*%
X42010000Y1857500D03*
X42010000Y2672500D03*
%TD*%
D20*
%TO.C,C16*%
X72900481Y45174986D03*
X71940481Y45174986D03*
%TD*%
D75*
%TO.C,L7*%
X8037400Y19384600D03*
X6437400Y19384600D03*
%TD*%
D76*
%TO.C,SW2*%
X76250000Y32500000D03*
X73950000Y32500000D03*
%TD*%
D22*
%TO.C,R108*%
X6607019Y5814614D03*
X7627019Y5814614D03*
%TD*%
D76*
%TO.C,SW1*%
X76250000Y35000000D03*
X73950000Y35000000D03*
%TD*%
D72*
%TO.C,H1*%
X76000000Y47000000D03*
D73*
X76000000Y47000000D03*
%TD*%
D29*
%TO.C,C48*%
X59627981Y46599986D03*
X59627981Y47559986D03*
%TD*%
D52*
%TO.C,C42*%
X71177981Y12174986D03*
X71177981Y9224986D03*
%TD*%
D12*
%TO.C,R58*%
X74910000Y36800000D03*
X73890000Y36800000D03*
%TD*%
D77*
%TO.C,D10*%
X4154519Y30415014D03*
X4154519Y32515014D03*
%TD*%
D78*
%TO.C,L6*%
X73227981Y24532486D03*
X73227981Y15517486D03*
%TD*%
D30*
%TO.C,C100*%
X43483200Y4871000D03*
X43483200Y4231000D03*
%TD*%
D79*
%TO.C,U9*%
X25679519Y10239614D03*
X25679519Y10889614D03*
X25679519Y11539614D03*
X25679519Y12189614D03*
X25679519Y12839614D03*
X25679519Y13489614D03*
X25679519Y14139614D03*
X25679519Y14789614D03*
X25679519Y15439614D03*
X25679519Y16089614D03*
X25679519Y16739614D03*
X25679519Y17389614D03*
X25679519Y18039614D03*
X25679519Y18689614D03*
X25679519Y19339614D03*
X25679519Y19989614D03*
X25679519Y20639614D03*
X25679519Y21289614D03*
X25679519Y21939614D03*
X25679519Y22589614D03*
X25679519Y23239614D03*
X25679519Y23889614D03*
X25679519Y24539614D03*
X38679519Y9589614D03*
X38679519Y10239614D03*
X38679519Y10889614D03*
X38679519Y11539614D03*
X38679519Y12189614D03*
X38679519Y12839614D03*
X38679519Y13489614D03*
X38679519Y14139614D03*
X38679519Y14789614D03*
X38679519Y15439614D03*
X38679519Y16089614D03*
X38679519Y16739614D03*
X38679519Y17389614D03*
X38679519Y18039614D03*
X38679519Y18689614D03*
X38679519Y19339614D03*
X38679519Y19989614D03*
X38679519Y20639614D03*
X38679519Y21289614D03*
X38679519Y21939614D03*
X38679519Y22589614D03*
X38679519Y23239614D03*
X38679519Y23889614D03*
X38679519Y24539614D03*
X38679519Y25189614D03*
X39329519Y9589614D03*
X39329519Y10239614D03*
X39329519Y10889614D03*
X39329519Y11539614D03*
X39329519Y12189614D03*
X39329519Y12839614D03*
X39329519Y13489614D03*
X39329519Y14139614D03*
X39329519Y14789614D03*
X39329519Y15439614D03*
X39329519Y16089614D03*
X39329519Y16739614D03*
X39329519Y17389614D03*
X39329519Y18039614D03*
X39329519Y18689614D03*
X39329519Y19339614D03*
X39329519Y19989614D03*
X39329519Y20639614D03*
X39329519Y21289614D03*
X39329519Y21939614D03*
X39329519Y22589614D03*
X39329519Y23239614D03*
X39329519Y23889614D03*
X39329519Y24539614D03*
X39329519Y25189614D03*
X39979519Y9589614D03*
X39979519Y10239614D03*
X39979519Y10889614D03*
X39979519Y11539614D03*
X39979519Y12189614D03*
X39979519Y12839614D03*
X39979519Y13489614D03*
X39979519Y14139614D03*
X39979519Y14789614D03*
X39979519Y15439614D03*
X39979519Y16089614D03*
X39979519Y16739614D03*
X39979519Y17389614D03*
X39979519Y18039614D03*
X39979519Y18689614D03*
X39979519Y19339614D03*
X39979519Y19989614D03*
X39979519Y20639614D03*
X39979519Y21289614D03*
X39979519Y21939614D03*
X39979519Y22589614D03*
X39979519Y23239614D03*
X39979519Y23889614D03*
X39979519Y24539614D03*
X39979519Y25189614D03*
X40629519Y9589614D03*
X40629519Y10239614D03*
X40629519Y10889614D03*
X40629519Y11539614D03*
X40629519Y12189614D03*
X40629519Y12839614D03*
X40629519Y13489614D03*
X40629519Y14139614D03*
X40629519Y14789614D03*
X40629519Y15439614D03*
X40629519Y16089614D03*
X40629519Y16739614D03*
X40629519Y17389614D03*
X40629519Y18039614D03*
X40629519Y18689614D03*
X40629519Y19339614D03*
X40629519Y19989614D03*
X40629519Y20639614D03*
X40629519Y21289614D03*
X40629519Y21939614D03*
X40629519Y22589614D03*
X40629519Y23239614D03*
X40629519Y23889614D03*
X40629519Y24539614D03*
X40629519Y25189614D03*
X41279519Y10239614D03*
X41279519Y10889614D03*
X41279519Y11539614D03*
X41279519Y12189614D03*
X41279519Y12839614D03*
X41279519Y13489614D03*
X41279519Y14139614D03*
X41279519Y14789614D03*
X41279519Y15439614D03*
X41279519Y16089614D03*
X41279519Y16739614D03*
X41279519Y17389614D03*
X41279519Y18039614D03*
X41279519Y18689614D03*
X41279519Y19339614D03*
X41279519Y19989614D03*
X41279519Y20639614D03*
X41279519Y21289614D03*
X41279519Y21939614D03*
X41279519Y22589614D03*
X41279519Y23239614D03*
X41279519Y23889614D03*
X41279519Y24539614D03*
X26329519Y9589614D03*
X26329519Y10239614D03*
X26329519Y10889614D03*
X26329519Y11539614D03*
X26329519Y12189614D03*
X26329519Y12839614D03*
X26329519Y13489614D03*
X26329519Y14139614D03*
X26329519Y14789614D03*
X26329519Y15439614D03*
X26329519Y16089614D03*
X26329519Y16739614D03*
X26329519Y17389614D03*
X26329519Y18039614D03*
X26329519Y18689614D03*
X26329519Y19339614D03*
X26329519Y19989614D03*
X26329519Y20639614D03*
X26329519Y21289614D03*
X26329519Y21939614D03*
X26329519Y22589614D03*
X26329519Y23239614D03*
X26329519Y23889614D03*
X26329519Y24539614D03*
X26329519Y25189614D03*
X26979519Y9589614D03*
X26979519Y10239614D03*
X26979519Y10889614D03*
X26979519Y11539614D03*
X26979519Y12189614D03*
X26979519Y12839614D03*
X26979519Y13489614D03*
X26979519Y14139614D03*
X26979519Y14789614D03*
X26979519Y15439614D03*
X26979519Y16089614D03*
X26979519Y16739614D03*
X26979519Y17389614D03*
X26979519Y18039614D03*
X26979519Y18689614D03*
X26979519Y19339614D03*
X26979519Y19989614D03*
X26979519Y20639614D03*
X26979519Y21289614D03*
X26979519Y21939614D03*
X26979519Y22589614D03*
X26979519Y23239614D03*
X26979519Y23889614D03*
X26979519Y24539614D03*
X26979519Y25189614D03*
X27629519Y9589614D03*
X27629519Y10239614D03*
X27629519Y10889614D03*
X27629519Y11539614D03*
X27629519Y12189614D03*
X27629519Y12839614D03*
X27629519Y13489614D03*
X27629519Y14139614D03*
X27629519Y14789614D03*
X27629519Y15439614D03*
X27629519Y16089614D03*
X27629519Y16739614D03*
X27629519Y17389614D03*
X27629519Y18039614D03*
X27629519Y18689614D03*
X27629519Y19339614D03*
X27629519Y19989614D03*
X27629519Y20639614D03*
X27629519Y21289614D03*
X27629519Y21939614D03*
X27629519Y22589614D03*
X27629519Y23239614D03*
X27629519Y23889614D03*
X27629519Y24539614D03*
X27629519Y25189614D03*
X28279519Y9589614D03*
X28279519Y10239614D03*
X28279519Y10889614D03*
X28279519Y11539614D03*
X28279519Y12189614D03*
X28279519Y12839614D03*
X28279519Y13489614D03*
X28279519Y14139614D03*
X28279519Y14789614D03*
X28279519Y15439614D03*
X28279519Y16089614D03*
X28279519Y16739614D03*
X28279519Y17389614D03*
X28279519Y18039614D03*
X28279519Y18689614D03*
X28279519Y19339614D03*
X28279519Y19989614D03*
X28279519Y20639614D03*
X28279519Y21289614D03*
X28279519Y21939614D03*
X28279519Y22589614D03*
X28279519Y23239614D03*
X28279519Y23889614D03*
X28279519Y24539614D03*
X28279519Y25189614D03*
X28929519Y9589614D03*
X28929519Y10239614D03*
X28929519Y10889614D03*
X28929519Y11539614D03*
X28929519Y12189614D03*
X28929519Y12839614D03*
X28929519Y13489614D03*
X28929519Y14139614D03*
X28929519Y14789614D03*
X28929519Y15439614D03*
X28929519Y16089614D03*
X28929519Y16739614D03*
X28929519Y17389614D03*
X28929519Y18039614D03*
X28929519Y18689614D03*
X28929519Y19339614D03*
X28929519Y19989614D03*
X28929519Y20639614D03*
X28929519Y21289614D03*
X28929519Y21939614D03*
X28929519Y22589614D03*
X28929519Y23239614D03*
X28929519Y23889614D03*
X28929519Y24539614D03*
X28929519Y25189614D03*
X29579519Y9589614D03*
X29579519Y10239614D03*
X29579519Y10889614D03*
X29579519Y11539614D03*
X29579519Y12189614D03*
X29579519Y12839614D03*
X29579519Y13489614D03*
X29579519Y14139614D03*
X29579519Y14789614D03*
X29579519Y15439614D03*
X29579519Y16089614D03*
X29579519Y16739614D03*
X29579519Y17389614D03*
X29579519Y18039614D03*
X29579519Y18689614D03*
X29579519Y19339614D03*
X29579519Y19989614D03*
X29579519Y20639614D03*
X29579519Y21289614D03*
X29579519Y21939614D03*
X29579519Y22589614D03*
X29579519Y23239614D03*
X29579519Y23889614D03*
X29579519Y24539614D03*
X29579519Y25189614D03*
X30229519Y9589614D03*
X30229519Y10239614D03*
X30229519Y10889614D03*
X30229519Y11539614D03*
X30229519Y12189614D03*
X30229519Y12839614D03*
X30229519Y13489614D03*
X30229519Y14139614D03*
X30229519Y14789614D03*
X30229519Y15439614D03*
X30229519Y16089614D03*
X30229519Y16739614D03*
X30229519Y17389614D03*
X30229519Y18039614D03*
X30229519Y18689614D03*
X30229519Y19339614D03*
X30229519Y19989614D03*
X30229519Y20639614D03*
X30229519Y21289614D03*
X30229519Y21939614D03*
X30229519Y22589614D03*
X30229519Y23239614D03*
X30229519Y23889614D03*
X30229519Y24539614D03*
X30229519Y25189614D03*
X30879519Y9589614D03*
X30879519Y10239614D03*
X30879519Y10889614D03*
X30879519Y11539614D03*
X30879519Y12189614D03*
X30879519Y12839614D03*
X30879519Y13489614D03*
X30879519Y14139614D03*
X30879519Y14789614D03*
X30879519Y15439614D03*
X30879519Y16089614D03*
X30879519Y16739614D03*
X30879519Y17389614D03*
X30879519Y18039614D03*
X30879519Y18689614D03*
X30879519Y19339614D03*
X30879519Y19989614D03*
X30879519Y20639614D03*
X30879519Y21289614D03*
X30879519Y21939614D03*
X30879519Y22589614D03*
X30879519Y23239614D03*
X30879519Y23889614D03*
X30879519Y24539614D03*
X30879519Y25189614D03*
X31529519Y9589614D03*
X31529519Y10239614D03*
X31529519Y10889614D03*
X31529519Y11539614D03*
X31529519Y12189614D03*
X31529519Y12839614D03*
X31529519Y13489614D03*
X31529519Y14139614D03*
X31529519Y14789614D03*
X31529519Y15439614D03*
X31529519Y16089614D03*
X31529519Y16739614D03*
X31529519Y17389614D03*
X31529519Y18039614D03*
X31529519Y18689614D03*
X31529519Y19339614D03*
X31529519Y19989614D03*
X31529519Y20639614D03*
X31529519Y21289614D03*
X31529519Y21939614D03*
X31529519Y22589614D03*
X31529519Y23239614D03*
X31529519Y23889614D03*
X31529519Y24539614D03*
X31529519Y25189614D03*
X32179519Y9589614D03*
X32179519Y10239614D03*
X32179519Y10889614D03*
X32179519Y11539614D03*
X32179519Y12189614D03*
X32179519Y12839614D03*
X32179519Y13489614D03*
X32179519Y14139614D03*
X32179519Y14789614D03*
X32179519Y15439614D03*
X32179519Y16089614D03*
X32179519Y16739614D03*
X32179519Y17389614D03*
X32179519Y18039614D03*
X32179519Y18689614D03*
X32179519Y19339614D03*
X32179519Y19989614D03*
X32179519Y20639614D03*
X32179519Y21289614D03*
X32179519Y21939614D03*
X32179519Y22589614D03*
X32179519Y23239614D03*
X32179519Y23889614D03*
X32179519Y24539614D03*
X32179519Y25189614D03*
X32829519Y9589614D03*
X32829519Y10239614D03*
X32829519Y10889614D03*
X32829519Y11539614D03*
X32829519Y12189614D03*
X32829519Y12839614D03*
X32829519Y13489614D03*
X32829519Y14139614D03*
X32829519Y14789614D03*
X32829519Y15439614D03*
X32829519Y16089614D03*
X32829519Y16739614D03*
X32829519Y17389614D03*
X32829519Y18039614D03*
X32829519Y18689614D03*
X32829519Y19339614D03*
X32829519Y19989614D03*
X32829519Y20639614D03*
X32829519Y21289614D03*
X32829519Y21939614D03*
X32829519Y22589614D03*
X32829519Y23239614D03*
X32829519Y23889614D03*
X32829519Y24539614D03*
X32829519Y25189614D03*
X33479519Y9589614D03*
X33479519Y10239614D03*
X33479519Y10889614D03*
X33479519Y11539614D03*
X33479519Y12189614D03*
X33479519Y12839614D03*
X33479519Y13489614D03*
X33479519Y14139614D03*
X33479519Y14789614D03*
X33479519Y15439614D03*
X33479519Y16089614D03*
X33479519Y16739614D03*
X33479519Y17389614D03*
X33479519Y18039614D03*
X33479519Y18689614D03*
X33479519Y19339614D03*
X33479519Y19989614D03*
X33479519Y20639614D03*
X33479519Y21289614D03*
X33479519Y21939614D03*
X33479519Y22589614D03*
X33479519Y23239614D03*
X33479519Y23889614D03*
X33479519Y24539614D03*
X33479519Y25189614D03*
X34129519Y9589614D03*
X34129519Y10239614D03*
X34129519Y10889614D03*
X34129519Y11539614D03*
X34129519Y12189614D03*
X34129519Y12839614D03*
X34129519Y13489614D03*
X34129519Y14139614D03*
X34129519Y14789614D03*
X34129519Y15439614D03*
X34129519Y16089614D03*
X34129519Y16739614D03*
X34129519Y17389614D03*
X34129519Y18039614D03*
X34129519Y18689614D03*
X34129519Y19339614D03*
X34129519Y19989614D03*
X34129519Y20639614D03*
X34129519Y21289614D03*
X34129519Y21939614D03*
X34129519Y22589614D03*
X34129519Y23239614D03*
X34129519Y23889614D03*
X34129519Y24539614D03*
X34129519Y25189614D03*
X34779519Y9589614D03*
X34779519Y10239614D03*
X34779519Y10889614D03*
X34779519Y11539614D03*
X34779519Y12189614D03*
X34779519Y12839614D03*
X34779519Y13489614D03*
X34779519Y14139614D03*
X34779519Y14789614D03*
X34779519Y15439614D03*
X34779519Y16089614D03*
X34779519Y16739614D03*
X34779519Y17389614D03*
X34779519Y18039614D03*
X34779519Y18689614D03*
X34779519Y19339614D03*
X34779519Y19989614D03*
X34779519Y20639614D03*
X34779519Y21289614D03*
X34779519Y21939614D03*
X34779519Y22589614D03*
X34779519Y23239614D03*
X34779519Y23889614D03*
X34779519Y24539614D03*
X34779519Y25189614D03*
X35429519Y9589614D03*
X35429519Y10239614D03*
X35429519Y10889614D03*
X35429519Y11539614D03*
X35429519Y12189614D03*
X35429519Y12839614D03*
X35429519Y13489614D03*
X35429519Y14139614D03*
X35429519Y14789614D03*
X35429519Y15439614D03*
X35429519Y16089614D03*
X35429519Y16739614D03*
X35429519Y17389614D03*
X35429519Y18039614D03*
X35429519Y18689614D03*
X35429519Y19339614D03*
X35429519Y19989614D03*
X35429519Y20639614D03*
X35429519Y21289614D03*
X35429519Y21939614D03*
X35429519Y22589614D03*
X35429519Y23239614D03*
X35429519Y23889614D03*
X35429519Y24539614D03*
X35429519Y25189614D03*
X36079519Y9589614D03*
X36079519Y10239614D03*
X36079519Y10889614D03*
X36079519Y11539614D03*
X36079519Y12189614D03*
X36079519Y12839614D03*
X36079519Y13489614D03*
X36079519Y14139614D03*
X36079519Y14789614D03*
X36079519Y15439614D03*
X36079519Y16089614D03*
X36079519Y16739614D03*
X36079519Y17389614D03*
X36079519Y18039614D03*
X36079519Y18689614D03*
X36079519Y19339614D03*
X36079519Y19989614D03*
X36079519Y20639614D03*
X36079519Y21289614D03*
X36079519Y21939614D03*
X36079519Y22589614D03*
X36079519Y23239614D03*
X36079519Y23889614D03*
X36079519Y24539614D03*
X36079519Y25189614D03*
X36729519Y9589614D03*
X36729519Y10239614D03*
X36729519Y10889614D03*
X36729519Y11539614D03*
X36729519Y12189614D03*
X36729519Y12839614D03*
X36729519Y13489614D03*
X36729519Y14139614D03*
X36729519Y14789614D03*
X36729519Y15439614D03*
X36729519Y16089614D03*
X36729519Y16739614D03*
X36729519Y17389614D03*
X36729519Y18039614D03*
X36729519Y18689614D03*
X36729519Y19339614D03*
X36729519Y19989614D03*
X36729519Y20639614D03*
X36729519Y21289614D03*
X36729519Y21939614D03*
X36729519Y22589614D03*
X36729519Y23239614D03*
X36729519Y23889614D03*
X36729519Y24539614D03*
X36729519Y25189614D03*
X37379519Y9589614D03*
X37379519Y10239614D03*
X37379519Y10889614D03*
X37379519Y11539614D03*
X37379519Y12189614D03*
X37379519Y12839614D03*
X37379519Y13489614D03*
X37379519Y14139614D03*
X37379519Y14789614D03*
X37379519Y15439614D03*
X37379519Y16089614D03*
X37379519Y16739614D03*
X37379519Y17389614D03*
X37379519Y18039614D03*
X37379519Y18689614D03*
X37379519Y19339614D03*
X37379519Y19989614D03*
X37379519Y20639614D03*
X37379519Y21289614D03*
X37379519Y21939614D03*
X37379519Y22589614D03*
X37379519Y23239614D03*
X37379519Y23889614D03*
X37379519Y24539614D03*
X37379519Y25189614D03*
X38029519Y9589614D03*
X38029519Y10239614D03*
X38029519Y10889614D03*
X38029519Y11539614D03*
X38029519Y12189614D03*
X38029519Y12839614D03*
X38029519Y13489614D03*
X38029519Y14139614D03*
X38029519Y14789614D03*
X38029519Y15439614D03*
X38029519Y16089614D03*
X38029519Y16739614D03*
X38029519Y17389614D03*
X38029519Y18039614D03*
X38029519Y18689614D03*
X38029519Y19339614D03*
X38029519Y19989614D03*
X38029519Y20639614D03*
X38029519Y21289614D03*
X38029519Y21939614D03*
X38029519Y22589614D03*
X38029519Y23239614D03*
X38029519Y23889614D03*
X38029519Y24539614D03*
X38029519Y25189614D03*
%TD*%
D72*
%TO.C,H2*%
X0Y0D03*
D73*
X0Y0D03*
%TD*%
D11*
%TO.C,D2*%
X38868286Y46029419D03*
X38868286Y47604419D03*
%TD*%
D23*
%TO.C,U7*%
X35576286Y42634786D03*
X36076286Y42634786D03*
X36576286Y42634786D03*
D24*
X37426286Y43084786D03*
X37426286Y43584786D03*
X37426286Y44084786D03*
D23*
X36576286Y44534786D03*
X36076286Y44534786D03*
X35576286Y44534786D03*
D24*
X34726286Y43084786D03*
X34726286Y43584786D03*
D25*
X34976286Y43584786D03*
D24*
X34726286Y44084786D03*
D26*
X36076286Y43584786D03*
%TD*%
D35*
%TO.C,C61*%
X71752981Y39219986D03*
X72712981Y39219986D03*
%TD*%
D18*
%TO.C,U3*%
X2517019Y21286552D03*
X2517019Y22236552D03*
X2517019Y23186552D03*
X242019Y23186552D03*
X242019Y21286552D03*
%TD*%
D30*
%TO.C,C110*%
X41197200Y4871000D03*
X41197200Y4231000D03*
%TD*%
D66*
%TO.C,C148*%
X38516000Y28582000D03*
X37876000Y28582000D03*
%TD*%
D41*
%TO.C,C159*%
X34701000Y28455000D03*
X35341000Y28455000D03*
%TD*%
D50*
%TO.C,R27*%
X39923786Y44234786D03*
X38728786Y44234786D03*
%TD*%
D66*
%TO.C,C94*%
X23057000Y26527000D03*
X22417000Y26527000D03*
%TD*%
D20*
%TO.C,C45*%
X56457981Y40287486D03*
X55497981Y40287486D03*
%TD*%
D30*
%TO.C,C211*%
X53200000Y36120000D03*
X53200000Y35480000D03*
%TD*%
D41*
%TO.C,C72*%
X20984000Y41654500D03*
X21624000Y41654500D03*
%TD*%
D80*
%TO.C,U1*%
X62390481Y44324986D03*
X62390481Y43824986D03*
X62390481Y43324986D03*
X62390481Y42824986D03*
X62390481Y42324986D03*
X62390481Y41824986D03*
X62390481Y41324986D03*
X62390481Y40824986D03*
X62390481Y40324986D03*
X62390481Y39824986D03*
X62390481Y39324986D03*
X62390481Y38824986D03*
X62390481Y38324986D03*
X62390481Y37824986D03*
D81*
X63077981Y37137486D03*
X63577981Y37137486D03*
X64077981Y37137486D03*
X64577981Y37137486D03*
X65077981Y37137486D03*
X65577981Y37137486D03*
X66077981Y37137486D03*
X66577981Y37137486D03*
X67077981Y37137486D03*
X67577981Y37137486D03*
X68077981Y37137486D03*
X68577981Y37137486D03*
X69077981Y37137486D03*
X69577981Y37137486D03*
D80*
X70265481Y37824986D03*
X70265481Y38324986D03*
X70265481Y38824986D03*
X70265481Y39324986D03*
X70265481Y39824986D03*
X70265481Y40324986D03*
X70265481Y40824986D03*
X70265481Y41324986D03*
X70265481Y41824986D03*
X70265481Y42324986D03*
X70265481Y42824986D03*
X70265481Y43324986D03*
X70265481Y43824986D03*
X70265481Y44324986D03*
D81*
X69577981Y45012486D03*
X69077981Y45012486D03*
X68577981Y45012486D03*
X68077981Y45012486D03*
X67577981Y45012486D03*
X67077981Y45012486D03*
X66577981Y45012486D03*
X66077981Y45012486D03*
X65577981Y45012486D03*
X65077981Y45012486D03*
X64577981Y45012486D03*
X64077981Y45012486D03*
X63577981Y45012486D03*
X63077981Y45012486D03*
D82*
X66327981Y41074986D03*
%TD*%
D49*
%TO.C,C288*%
X4225000Y0D03*
X5775000Y0D03*
%TD*%
D35*
%TO.C,C57*%
X46397519Y45792000D03*
X47357519Y45792000D03*
%TD*%
D21*
%TO.C,R20*%
X9345600Y19880500D03*
X9345600Y18685500D03*
%TD*%
D13*
%TO.C,R93*%
X4634519Y25195014D03*
X4634519Y26215014D03*
%TD*%
D51*
%TO.C,R13*%
X63527981Y47609986D03*
X63527981Y46589986D03*
%TD*%
D20*
%TO.C,C52*%
X56457981Y43137486D03*
X55497981Y43137486D03*
%TD*%
D29*
%TO.C,C58*%
X69752981Y46619986D03*
X69752981Y47579986D03*
%TD*%
D13*
%TO.C,R92*%
X3662000Y25195014D03*
X3662000Y26215014D03*
%TD*%
D19*
%TO.C,C23*%
X66727981Y30667486D03*
X66727981Y29707486D03*
%TD*%
D83*
%TO.C,SH2*%
X37313786Y37734786D03*
X35488786Y37734786D03*
%TD*%
D30*
%TO.C,C103*%
X42721200Y4871000D03*
X42721200Y4231000D03*
%TD*%
D19*
%TO.C,C33*%
X74304519Y39314614D03*
X74304519Y38354614D03*
%TD*%
D50*
%TO.C,R15*%
X51578500Y48143000D03*
X50383500Y48143000D03*
%TD*%
D19*
%TO.C,C29*%
X64727981Y30667486D03*
X64727981Y29707486D03*
%TD*%
D52*
%TO.C,C40*%
X73477981Y12174986D03*
X73477981Y9224986D03*
%TD*%
D13*
%TO.C,R106*%
X3354519Y4842114D03*
X3354519Y5862114D03*
%TD*%
D68*
%TO.C,C81*%
X43244000Y35747000D03*
X43244000Y37297000D03*
%TD*%
D84*
%TO.C,Q2*%
X53140000Y45435000D03*
X52480000Y45435000D03*
X51820000Y45435000D03*
X51160000Y45435000D03*
D85*
X52140000Y43442500D03*
D86*
X53140000Y42450000D03*
X52478750Y42450000D03*
X51817500Y42450000D03*
X51156250Y42450000D03*
%TD*%
D18*
%TO.C,Q4*%
X48481500Y299000D03*
X48481500Y2199000D03*
X46206500Y1249000D03*
%TD*%
D13*
%TO.C,R88*%
X5584519Y30675014D03*
X5584519Y31695014D03*
%TD*%
D55*
%TO.C,R50*%
X36015600Y1857500D03*
X36015600Y2672500D03*
%TD*%
D87*
%TO.C,Y5*%
X10167019Y3314614D03*
X6067019Y3314614D03*
%TD*%
D50*
%TO.C,R28*%
X43587500Y44904000D03*
X42392500Y44904000D03*
%TD*%
D20*
%TO.C,C55*%
X56457981Y42187486D03*
X55497981Y42187486D03*
%TD*%
D83*
%TO.C,SH1*%
X27235000Y37737000D03*
X25410000Y37737000D03*
%TD*%
D13*
%TO.C,R91*%
X5604519Y27385014D03*
X5604519Y28405014D03*
%TD*%
D35*
%TO.C,C319*%
X10437019Y5814614D03*
X11397019Y5814614D03*
%TD*%
D88*
%TO.C,U17*%
X9692019Y8314614D03*
X9692019Y8714614D03*
X9692019Y9114614D03*
X9692019Y9514614D03*
X9692019Y9914614D03*
X9692019Y10314614D03*
X9692019Y10714614D03*
X9692019Y11114614D03*
X9692019Y11514614D03*
X9692019Y11914614D03*
X9692019Y12314614D03*
X9692019Y12714614D03*
X9692019Y13114614D03*
X9692019Y13514614D03*
X9692019Y13914614D03*
X9692019Y14314614D03*
X9692019Y14714614D03*
D89*
X8954519Y15452114D03*
X8554519Y15452114D03*
X8154519Y15452114D03*
X7754519Y15452114D03*
X7354519Y15452114D03*
X6954519Y15452114D03*
X6554519Y15452114D03*
X6154519Y15452114D03*
X5754519Y15452114D03*
X5354519Y15452114D03*
X4954519Y15452114D03*
X4554519Y15452114D03*
X4154519Y15452114D03*
X3754519Y15452114D03*
X3354519Y15452114D03*
X2954519Y15452114D03*
X2554519Y15452114D03*
D88*
X1817019Y14714614D03*
X1817019Y14314614D03*
X1817019Y13914614D03*
X1817019Y13514614D03*
X1817019Y13114614D03*
X1817019Y12714614D03*
X1817019Y12314614D03*
X1817019Y11914614D03*
X1817019Y11514614D03*
X1817019Y11114614D03*
X1817019Y10714614D03*
X1817019Y10314614D03*
X1817019Y9914614D03*
X1817019Y9514614D03*
X1817019Y9114614D03*
X1817019Y8714614D03*
X1817019Y8314614D03*
D89*
X2554519Y7577114D03*
X2954519Y7577114D03*
X3354519Y7577114D03*
X3754519Y7577114D03*
X4154519Y7577114D03*
X4554519Y7577114D03*
X4954519Y7577114D03*
X5354519Y7577114D03*
X5754519Y7577114D03*
X6154519Y7577114D03*
X6554519Y7577114D03*
X6954519Y7577114D03*
X7354519Y7577114D03*
X7754519Y7577114D03*
X8154519Y7577114D03*
X8554519Y7577114D03*
X8954519Y7577114D03*
D90*
X5754519Y11514614D03*
%TD*%
D28*
%TO.C,R30*%
X38728786Y43259786D03*
X39923786Y43259786D03*
%TD*%
D29*
%TO.C,C69*%
X-1145481Y21286552D03*
X-1145481Y22246552D03*
%TD*%
D91*
%TO.C,D11*%
X19462000Y37877000D03*
X19462000Y36302000D03*
%TD*%
D19*
%TO.C,C24*%
X65777981Y47579986D03*
X65777981Y46619986D03*
%TD*%
D51*
%TO.C,R66*%
X44337519Y13600814D03*
X44337519Y12580814D03*
%TD*%
D92*
%TO.C,SW3*%
X54375000Y31635000D03*
X54375000Y30365000D03*
X59625000Y30365000D03*
X59625000Y31635000D03*
%TD*%
D27*
%TO.C,R102*%
X4773600Y17429900D03*
X4773600Y16614900D03*
%TD*%
D20*
%TO.C,C311*%
X6092000Y46127000D03*
X5132000Y46127000D03*
%TD*%
D22*
%TO.C,R60*%
X50290000Y34100000D03*
X51310000Y34100000D03*
%TD*%
D18*
%TO.C,Q8*%
X32581100Y34081000D03*
X32581100Y35981000D03*
X30306100Y35031000D03*
%TD*%
D22*
%TO.C,R80*%
X58607000Y28013000D03*
X59627000Y28013000D03*
%TD*%
D28*
%TO.C,R22*%
X21564500Y47727000D03*
X22759500Y47727000D03*
%TD*%
%TO.C,R26*%
X29318500Y42690000D03*
X30513500Y42690000D03*
%TD*%
D30*
%TO.C,C98*%
X21289319Y10399414D03*
X21289319Y9759414D03*
%TD*%
D67*
%TO.C,Q6*%
X47739900Y7108800D03*
X47739900Y8408800D03*
X45739900Y7758800D03*
%TD*%
D93*
%TO.C,L8*%
X25247500Y40150000D03*
X27397500Y40150000D03*
%TD*%
D19*
%TO.C,C31*%
X69577981Y30667486D03*
X69577981Y29707486D03*
%TD*%
D55*
%TO.C,R49*%
X36726800Y1857500D03*
X36726800Y2672500D03*
%TD*%
D94*
%TO.C,U8*%
X44309000Y43745000D03*
D95*
X42609000Y43745000D03*
X42609000Y41745000D03*
X44509000Y41745000D03*
%TD*%
D20*
%TO.C,C56*%
X51357519Y46982014D03*
X50397519Y46982014D03*
%TD*%
D43*
%TO.C,C79*%
X45784000Y42924000D03*
X45784000Y43564000D03*
%TD*%
D62*
%TO.C,D6*%
X49340000Y7210400D03*
X50915000Y7210400D03*
%TD*%
D20*
%TO.C,C309*%
X9497019Y5814614D03*
X8537019Y5814614D03*
%TD*%
D51*
%TO.C,R87*%
X7862000Y34147000D03*
X7862000Y33127000D03*
%TD*%
%TO.C,R95*%
X11054519Y7852114D03*
X11054519Y6832114D03*
%TD*%
D77*
%TO.C,D9*%
X4144519Y27205014D03*
X4144519Y29305014D03*
%TD*%
D21*
%TO.C,R24*%
X40138286Y47033419D03*
X40138286Y45838419D03*
%TD*%
D22*
%TO.C,R85*%
X9877000Y27627000D03*
X10897000Y27627000D03*
%TD*%
D30*
%TO.C,C105*%
X39673200Y4871000D03*
X39673200Y4231000D03*
%TD*%
D27*
%TO.C,R100*%
X3351200Y17429900D03*
X3351200Y16614900D03*
%TD*%
D19*
%TO.C,C37*%
X62827981Y30667486D03*
X62827981Y29707486D03*
%TD*%
D61*
%TO.C,Q5*%
X75258400Y28410000D03*
X76558400Y28410000D03*
X75908400Y30410000D03*
%TD*%
D96*
%TO.C,Y1*%
X35243000Y32322000D03*
X31243000Y32322000D03*
X31243000Y29922000D03*
X35243000Y29922000D03*
%TD*%
D56*
%TO.C,U16*%
X22559000Y33742700D03*
X22059000Y33742700D03*
X21559000Y33742700D03*
X21059000Y33742700D03*
X20559000Y33742700D03*
X20059000Y33742700D03*
D57*
X19371500Y33055200D03*
X19371500Y32555200D03*
X19371500Y32055200D03*
X19371500Y31555200D03*
X19371500Y31055200D03*
X19371500Y30555200D03*
D56*
X20059000Y29867700D03*
X20559000Y29867700D03*
X21059000Y29867700D03*
X21559000Y29867700D03*
X22059000Y29867700D03*
X22559000Y29867700D03*
D57*
X23246500Y30555200D03*
X23246500Y31055200D03*
X23246500Y31555200D03*
X23246500Y32055200D03*
X23246500Y32555200D03*
X23246500Y33055200D03*
D58*
X21309000Y31805200D03*
%TD*%
D93*
%TO.C,L9*%
X35001286Y40272200D03*
X37151286Y40272200D03*
%TD*%
D96*
%TO.C,Y2*%
X41793000Y32322000D03*
X37793000Y32322000D03*
X37793000Y29922000D03*
X41793000Y29922000D03*
%TD*%
D55*
%TO.C,R47*%
X40486000Y1857500D03*
X40486000Y2672500D03*
%TD*%
D11*
%TO.C,D3*%
X44895000Y38782500D03*
X44895000Y40357500D03*
%TD*%
D41*
%TO.C,C101*%
X34617000Y4227000D03*
X35257000Y4227000D03*
%TD*%
D30*
%TO.C,C109*%
X42010000Y4871000D03*
X42010000Y4231000D03*
%TD*%
D22*
%TO.C,R68*%
X51647519Y26680814D03*
X52667519Y26680814D03*
%TD*%
D19*
%TO.C,C18*%
X71777981Y38319986D03*
X71777981Y37359986D03*
%TD*%
D50*
%TO.C,R29*%
X39923786Y42284786D03*
X38728786Y42284786D03*
%TD*%
D91*
%TO.C,D12*%
X17988800Y37862400D03*
X17988800Y36287400D03*
%TD*%
D97*
%TO.C,J4*%
X1273000Y39846000D03*
D98*
X-252000Y38371000D03*
X-252000Y41321000D03*
%TD*%
D12*
%TO.C,R53*%
X33880000Y28328000D03*
X32860000Y28328000D03*
%TD*%
D43*
%TO.C,C172*%
X5464519Y29230014D03*
X5464519Y29870014D03*
%TD*%
D50*
%TO.C,R21*%
X30513500Y43706000D03*
X29318500Y43706000D03*
%TD*%
D30*
%TO.C,C111*%
X38962000Y4871000D03*
X38962000Y4231000D03*
%TD*%
D72*
%TO.C,H4*%
X76000000Y0D03*
D73*
X76000000Y0D03*
%TD*%
D20*
%TO.C,C321*%
X2314519Y18252114D03*
X1354519Y18252114D03*
%TD*%
D50*
%TO.C,R16*%
X49375019Y46982014D03*
X48180019Y46982014D03*
%TD*%
D29*
%TO.C,C313*%
X15212000Y43847000D03*
X15212000Y44807000D03*
%TD*%
D20*
%TO.C,C14*%
X72900481Y44224986D03*
X71940481Y44224986D03*
%TD*%
D49*
%TO.C,C83*%
X38846805Y39484800D03*
X40396805Y39484800D03*
%TD*%
D29*
%TO.C,C19*%
X72752981Y37364986D03*
X72752981Y38324986D03*
%TD*%
D51*
%TO.C,R76*%
X52159500Y8230400D03*
X52159500Y7210400D03*
%TD*%
D49*
%TO.C,C84*%
X33639805Y46723800D03*
X35189805Y46723800D03*
%TD*%
D20*
%TO.C,C51*%
X56457981Y37400820D03*
X55497981Y37400820D03*
%TD*%
D22*
%TO.C,R11*%
X59490000Y42967486D03*
X60510000Y42967486D03*
%TD*%
D12*
%TO.C,R6*%
X62397600Y25616400D03*
X61377600Y25616400D03*
%TD*%
D30*
%TO.C,C312*%
X5684000Y39023000D03*
X5684000Y38383000D03*
%TD*%
D99*
%TO.C,C68*%
X18510000Y45350500D03*
X18510000Y43800500D03*
%TD*%
D61*
%TO.C,Q1*%
X48377519Y44617014D03*
X47077519Y44617014D03*
X47727519Y42617014D03*
%TD*%
D19*
%TO.C,C25*%
X64852981Y47579986D03*
X64852981Y46619986D03*
%TD*%
D22*
%TO.C,R83*%
X50811200Y32915200D03*
X51831200Y32915200D03*
%TD*%
D12*
%TO.C,R8*%
X65293200Y25565600D03*
X64273200Y25565600D03*
%TD*%
%TO.C,R94*%
X21717400Y38231400D03*
X20697400Y38231400D03*
%TD*%
D100*
%TO.C,U4*%
X20762000Y43039500D03*
X21712000Y43039500D03*
X22662000Y43039500D03*
X22662000Y45314500D03*
X20762000Y45314500D03*
%TD*%
D66*
%TO.C,L10*%
X5689000Y39846000D03*
X5049000Y39846000D03*
%TD*%
D60*
%TO.C,C28*%
X65727981Y274986D03*
X60327981Y274986D03*
%TD*%
D13*
%TO.C,R65*%
X44397519Y21275614D03*
X44397519Y22295614D03*
%TD*%
D19*
%TO.C,C30*%
X75259519Y39314614D03*
X75259519Y38354614D03*
%TD*%
D21*
%TO.C,R32*%
X41974000Y36856500D03*
X41974000Y35661500D03*
%TD*%
D101*
%TO.C,Q9*%
X21111300Y37113800D03*
X21111300Y35213800D03*
X23386300Y36163800D03*
%TD*%
D51*
%TO.C,R82*%
X39546200Y35515600D03*
X39546200Y34495600D03*
%TD*%
D52*
%TO.C,C35*%
X75777981Y12174986D03*
X75777981Y9224986D03*
%TD*%
D74*
%TO.C,C108*%
X36810726Y4753274D03*
X37263274Y4300726D03*
%TD*%
D27*
%TO.C,R105*%
X7237400Y17455300D03*
X7237400Y16640300D03*
%TD*%
D30*
%TO.C,C104*%
X40486000Y4871000D03*
X40486000Y4231000D03*
%TD*%
D102*
%TO.C,U11*%
X50150000Y35562500D03*
X52050000Y35562500D03*
X51100000Y37437500D03*
%TD*%
D27*
%TO.C,R42*%
X37438000Y2672500D03*
X37438000Y1857500D03*
%TD*%
D19*
%TO.C,C22*%
X77154519Y39314614D03*
X77154519Y38354614D03*
%TD*%
%TO.C,C21*%
X63777981Y30667486D03*
X63777981Y29707486D03*
%TD*%
D55*
%TO.C,R45*%
X39673200Y1857500D03*
X39673200Y2672500D03*
%TD*%
D12*
%TO.C,R54*%
X40357000Y28455000D03*
X39337000Y28455000D03*
%TD*%
D66*
%TO.C,C95*%
X23062000Y27227000D03*
X22422000Y27227000D03*
%TD*%
D13*
%TO.C,R4*%
X59802981Y23189986D03*
X59802981Y24209986D03*
%TD*%
D12*
%TO.C,R5*%
X62397600Y26581600D03*
X61377600Y26581600D03*
%TD*%
D103*
%TO.C,J1*%
X70200000Y2000000D03*
D104*
X12500000Y2000000D03*
%TD*%
M02*
