%TF.GenerationSoftware,KiCad,Pcbnew,7.99.0-3958-g1df84f4d92*%
%TF.CreationDate,2023-12-24T00:45:37+01:00*%
%TF.ProjectId,SBC,5342432e-6b69-4636-9164-5f7063625858,rev?*%
%TF.SameCoordinates,Original*%
%TF.FileFunction,Legend,Top*%
%TF.FilePolarity,Positive*%
%FSLAX46Y46*%
G04 Gerber Fmt 4.6, Leading zero omitted, Abs format (unit mm)*
G04 Created by KiCad (PCBNEW 7.99.0-3958-g1df84f4d92) date 2023-12-24 00:45:37*
%MOMM*%
%LPD*%
G01*
G04 APERTURE LIST*
G04 Aperture macros list*
%AMRoundRect*
0 Rectangle with rounded corners*
0 $1 Rounding radius*
0 $2 $3 $4 $5 $6 $7 $8 $9 X,Y pos of 4 corners*
0 Add a 4 corners polygon primitive as box body*
4,1,4,$2,$3,$4,$5,$6,$7,$8,$9,$2,$3,0*
0 Add four circle primitives for the rounded corners*
1,1,$1+$1,$2,$3*
1,1,$1+$1,$4,$5*
1,1,$1+$1,$6,$7*
1,1,$1+$1,$8,$9*
0 Add four rect primitives between the rounded corners*
20,1,$1+$1,$2,$3,$4,$5,0*
20,1,$1+$1,$4,$5,$6,$7,0*
20,1,$1+$1,$6,$7,$8,$9,0*
20,1,$1+$1,$8,$9,$2,$3,0*%
G04 Aperture macros list end*
%ADD10C,0.250000*%
%ADD11C,0.600000*%
%ADD12C,0.120000*%
%ADD13C,0.100000*%
%ADD14C,0.127000*%
%ADD15C,0.200000*%
%ADD16C,0.240000*%
%ADD17C,1.000000*%
%ADD18RoundRect,0.218750X0.256250X-0.218750X0.256250X0.218750X-0.256250X0.218750X-0.256250X-0.218750X0*%
%ADD19RoundRect,0.135000X0.135000X0.185000X-0.135000X0.185000X-0.135000X-0.185000X0.135000X-0.185000X0*%
%ADD20RoundRect,0.135000X0.185000X-0.135000X0.185000X0.135000X-0.185000X0.135000X-0.185000X-0.135000X0*%
%ADD21RoundRect,0.250000X-0.350000X0.350000X-0.350000X-0.350000X0.350000X-0.350000X0.350000X0.350000X0*%
%ADD22C,1.200000*%
%ADD23RoundRect,0.125000X0.262500X0.125000X-0.262500X0.125000X-0.262500X-0.125000X0.262500X-0.125000X0*%
%ADD24R,4.700000X4.600000*%
%ADD25RoundRect,0.150000X0.512500X0.150000X-0.512500X0.150000X-0.512500X-0.150000X0.512500X-0.150000X0*%
%ADD26RoundRect,0.140000X-0.170000X0.140000X-0.170000X-0.140000X0.170000X-0.140000X0.170000X0.140000X0*%
%ADD27RoundRect,0.140000X0.140000X0.170000X-0.140000X0.170000X-0.140000X-0.170000X0.140000X-0.170000X0*%
%ADD28RoundRect,0.160000X-0.160000X0.197500X-0.160000X-0.197500X0.160000X-0.197500X0.160000X0.197500X0*%
%ADD29RoundRect,0.135000X-0.135000X-0.185000X0.135000X-0.185000X0.135000X0.185000X-0.135000X0.185000X0*%
%ADD30R,0.250000X0.700000*%
%ADD31R,0.900000X0.250000*%
%ADD32R,0.400000X1.250000*%
%ADD33R,0.250000X0.400000*%
%ADD34RoundRect,0.100000X-0.100000X0.217500X-0.100000X-0.217500X0.100000X-0.217500X0.100000X0.217500X0*%
%ADD35RoundRect,0.160000X-0.197500X-0.160000X0.197500X-0.160000X0.197500X0.160000X-0.197500X0.160000X0*%
%ADD36RoundRect,0.140000X0.170000X-0.140000X0.170000X0.140000X-0.170000X0.140000X-0.170000X-0.140000X0*%
%ADD37RoundRect,0.100000X-0.100000X0.130000X-0.100000X-0.130000X0.100000X-0.130000X0.100000X0.130000X0*%
%ADD38RoundRect,0.062500X0.062500X-0.337500X0.062500X0.337500X-0.062500X0.337500X-0.062500X-0.337500X0*%
%ADD39RoundRect,0.062500X0.337500X-0.062500X0.337500X0.062500X-0.337500X0.062500X-0.337500X-0.062500X0*%
%ADD40R,5.300000X5.300000*%
%ADD41R,2.000000X1.100000*%
%ADD42RoundRect,0.140000X-0.140000X-0.170000X0.140000X-0.170000X0.140000X0.170000X-0.140000X0.170000X0*%
%ADD43RoundRect,0.062500X-0.375000X-0.062500X0.375000X-0.062500X0.375000X0.062500X-0.375000X0.062500X0*%
%ADD44RoundRect,0.062500X-0.062500X-0.375000X0.062500X-0.375000X0.062500X0.375000X-0.062500X0.375000X0*%
%ADD45RoundRect,0.106599X0.418401X0.723401X-0.418401X0.723401X-0.418401X-0.723401X0.418401X-0.723401X0*%
%ADD46RoundRect,0.106599X0.418401X0.633401X-0.418401X0.633401X-0.418401X-0.633401X0.418401X-0.633401X0*%
%ADD47RoundRect,0.200000X0.785000X-1.540000X0.785000X1.540000X-0.785000X1.540000X-0.785000X-1.540000X0*%
%ADD48RoundRect,0.100000X-0.130000X-0.100000X0.130000X-0.100000X0.130000X0.100000X-0.130000X0.100000X0*%
%ADD49C,0.270000*%
%ADD50RoundRect,0.100000X0.100000X-0.130000X0.100000X0.130000X-0.100000X0.130000X-0.100000X-0.130000X0*%
%ADD51R,1.000000X1.000000*%
%ADD52R,1.000000X2.130000*%
%ADD53R,1.000000X3.800000*%
%ADD54R,1.650000X1.000000*%
%ADD55R,3.800000X1.000000*%
%ADD56RoundRect,0.225000X-0.225000X-0.250000X0.225000X-0.250000X0.225000X0.250000X-0.225000X0.250000X0*%
%ADD57RoundRect,0.160000X0.197500X0.160000X-0.197500X0.160000X-0.197500X-0.160000X0.197500X-0.160000X0*%
%ADD58RoundRect,0.135000X-0.185000X0.135000X-0.185000X-0.135000X0.185000X-0.135000X0.185000X0.135000X0*%
%ADD59RoundRect,0.250000X-0.650000X0.325000X-0.650000X-0.325000X0.650000X-0.325000X0.650000X0.325000X0*%
%ADD60RoundRect,0.218750X0.218750X0.256250X-0.218750X0.256250X-0.218750X-0.256250X0.218750X-0.256250X0*%
%ADD61R,1.100000X2.000000*%
%ADD62RoundRect,0.100000X0.100000X-0.217500X0.100000X0.217500X-0.100000X0.217500X-0.100000X-0.217500X0*%
%ADD63RoundRect,0.062500X-0.062500X0.375000X-0.062500X-0.375000X0.062500X-0.375000X0.062500X0.375000X0*%
%ADD64RoundRect,0.062500X-0.375000X0.062500X-0.375000X-0.062500X0.375000X-0.062500X0.375000X0.062500X0*%
%ADD65R,2.500000X2.500000*%
%ADD66RoundRect,0.225000X0.225000X0.250000X-0.225000X0.250000X-0.225000X-0.250000X0.225000X-0.250000X0*%
%ADD67RoundRect,0.250000X1.500000X0.550000X-1.500000X0.550000X-1.500000X-0.550000X1.500000X-0.550000X0*%
%ADD68R,0.450000X0.700000*%
%ADD69RoundRect,0.218750X-0.218750X-0.256250X0.218750X-0.256250X0.218750X0.256250X-0.218750X0.256250X0*%
%ADD70O,0.200000X0.350000*%
%ADD71O,0.350000X0.200000*%
%ADD72C,0.350000*%
%ADD73RoundRect,0.100000X0.130000X0.100000X-0.130000X0.100000X-0.130000X-0.100000X0.130000X-0.100000X0*%
%ADD74R,0.700000X0.450000*%
%ADD75RoundRect,0.225000X0.250000X-0.225000X0.250000X0.225000X-0.250000X0.225000X-0.250000X-0.225000X0*%
%ADD76R,0.450000X1.450000*%
%ADD77C,0.300000*%
%ADD78RoundRect,0.076200X1.066800X0.685800X-1.066800X0.685800X-1.066800X-0.685800X1.066800X-0.685800X0*%
%ADD79C,3.100000*%
%ADD80C,4.700000*%
%ADD81RoundRect,0.100000X-0.162635X0.021213X0.021213X-0.162635X0.162635X-0.021213X-0.021213X0.162635X0*%
%ADD82RoundRect,0.173913X-0.226087X-0.726087X0.226087X-0.726087X0.226087X0.726087X-0.226087X0.726087X0*%
%ADD83RoundRect,0.025000X-0.225000X-0.975000X0.225000X-0.975000X0.225000X0.975000X-0.225000X0.975000X0*%
%ADD84RoundRect,0.112500X0.112500X-0.187500X0.112500X0.187500X-0.112500X0.187500X-0.112500X-0.187500X0*%
%ADD85R,4.950000X3.175000*%
%ADD86C,0.330200*%
%ADD87RoundRect,0.067500X-0.357500X-0.067500X0.357500X-0.067500X0.357500X0.067500X-0.357500X0.067500X0*%
%ADD88RoundRect,0.067500X-0.067500X0.357500X-0.067500X-0.357500X0.067500X-0.357500X0.067500X0.357500X0*%
%ADD89R,5.060000X5.200000*%
%ADD90RoundRect,0.250000X0.262500X0.450000X-0.262500X0.450000X-0.262500X-0.450000X0.262500X-0.450000X0*%
%ADD91R,0.405000X0.990000*%
%ADD92R,2.235000X1.725000*%
%ADD93R,0.406250X0.760000*%
%ADD94R,1.900000X2.400000*%
%ADD95RoundRect,0.050000X0.362500X0.050000X-0.362500X0.050000X-0.362500X-0.050000X0.362500X-0.050000X0*%
%ADD96RoundRect,0.050000X0.050000X0.362500X-0.050000X0.362500X-0.050000X-0.362500X0.050000X-0.362500X0*%
%ADD97R,5.200000X5.200000*%
%ADD98RoundRect,0.218750X-0.256250X0.218750X-0.256250X-0.218750X0.256250X-0.218750X0.256250X0.218750X0*%
%ADD99R,2.650000X0.760000*%
%ADD100RoundRect,0.250000X-0.375000X-0.850000X0.375000X-0.850000X0.375000X0.850000X-0.375000X0.850000X0*%
%ADD101R,1.000000X0.700000*%
%ADD102R,0.600000X0.700000*%
%ADD103R,1.800000X1.200000*%
%ADD104RoundRect,0.250000X0.275000X0.250000X-0.275000X0.250000X-0.275000X-0.250000X0.275000X-0.250000X0*%
%ADD105RoundRect,0.250000X0.850000X0.275000X-0.850000X0.275000X-0.850000X-0.275000X0.850000X-0.275000X0*%
%ADD106RoundRect,0.225000X-0.250000X0.225000X-0.250000X-0.225000X0.250000X-0.225000X0.250000X0.225000X0*%
%ADD107RoundRect,0.150000X0.150000X-0.512500X0.150000X0.512500X-0.150000X0.512500X-0.150000X-0.512500X0*%
%ADD108RoundRect,0.150000X-0.512500X-0.150000X0.512500X-0.150000X0.512500X0.150000X-0.512500X0.150000X0*%
%ADD109RoundRect,0.150000X0.150000X-0.587500X0.150000X0.587500X-0.150000X0.587500X-0.150000X-0.587500X0*%
%ADD110C,1.600000*%
%ADD111C,0.900000*%
G04 APERTURE END LIST*
D10*
X14814647Y-2451019D02*
X14481314Y-1974828D01*
X14243219Y-2451019D02*
X14243219Y-1451019D01*
X14243219Y-1451019D02*
X14624171Y-1451019D01*
X14624171Y-1451019D02*
X14719409Y-1498638D01*
X14719409Y-1498638D02*
X14767028Y-1546257D01*
X14767028Y-1546257D02*
X14814647Y-1641495D01*
X14814647Y-1641495D02*
X14814647Y-1784352D01*
X14814647Y-1784352D02*
X14767028Y-1879590D01*
X14767028Y-1879590D02*
X14719409Y-1927209D01*
X14719409Y-1927209D02*
X14624171Y-1974828D01*
X14624171Y-1974828D02*
X14243219Y-1974828D01*
X15767028Y-2451019D02*
X15195600Y-2451019D01*
X15481314Y-2451019D02*
X15481314Y-1451019D01*
X15481314Y-1451019D02*
X15386076Y-1593876D01*
X15386076Y-1593876D02*
X15290838Y-1689114D01*
X15290838Y-1689114D02*
X15195600Y-1736733D01*
X16195600Y-2355780D02*
X16243219Y-2403400D01*
X16243219Y-2403400D02*
X16195600Y-2451019D01*
X16195600Y-2451019D02*
X16147981Y-2403400D01*
X16147981Y-2403400D02*
X16195600Y-2355780D01*
X16195600Y-2355780D02*
X16195600Y-2451019D01*
X16862266Y-1451019D02*
X16957504Y-1451019D01*
X16957504Y-1451019D02*
X17052742Y-1498638D01*
X17052742Y-1498638D02*
X17100361Y-1546257D01*
X17100361Y-1546257D02*
X17147980Y-1641495D01*
X17147980Y-1641495D02*
X17195599Y-1831971D01*
X17195599Y-1831971D02*
X17195599Y-2070066D01*
X17195599Y-2070066D02*
X17147980Y-2260542D01*
X17147980Y-2260542D02*
X17100361Y-2355780D01*
X17100361Y-2355780D02*
X17052742Y-2403400D01*
X17052742Y-2403400D02*
X16957504Y-2451019D01*
X16957504Y-2451019D02*
X16862266Y-2451019D01*
X16862266Y-2451019D02*
X16767028Y-2403400D01*
X16767028Y-2403400D02*
X16719409Y-2355780D01*
X16719409Y-2355780D02*
X16671790Y-2260542D01*
X16671790Y-2260542D02*
X16624171Y-2070066D01*
X16624171Y-2070066D02*
X16624171Y-1831971D01*
X16624171Y-1831971D02*
X16671790Y-1641495D01*
X16671790Y-1641495D02*
X16719409Y-1546257D01*
X16719409Y-1546257D02*
X16767028Y-1498638D01*
X16767028Y-1498638D02*
X16862266Y-1451019D01*
D11*
X14382399Y-777895D02*
X14382399Y2122105D01*
X15715732Y-777895D02*
X15715732Y2122105D01*
X15715732Y2122105D02*
X16649066Y50677D01*
X16649066Y50677D02*
X17582399Y2122105D01*
X17582399Y2122105D02*
X17582399Y-777895D01*
X18649066Y2122105D02*
X20515732Y-777895D01*
X20515732Y2122105D02*
X18649066Y-777895D01*
X21982399Y879248D02*
X21715733Y1017343D01*
X21715733Y1017343D02*
X21582399Y1155439D01*
X21582399Y1155439D02*
X21449066Y1431629D01*
X21449066Y1431629D02*
X21449066Y1569724D01*
X21449066Y1569724D02*
X21582399Y1845915D01*
X21582399Y1845915D02*
X21715733Y1984010D01*
X21715733Y1984010D02*
X21982399Y2122105D01*
X21982399Y2122105D02*
X22515733Y2122105D01*
X22515733Y2122105D02*
X22782399Y1984010D01*
X22782399Y1984010D02*
X22915733Y1845915D01*
X22915733Y1845915D02*
X23049066Y1569724D01*
X23049066Y1569724D02*
X23049066Y1431629D01*
X23049066Y1431629D02*
X22915733Y1155439D01*
X22915733Y1155439D02*
X22782399Y1017343D01*
X22782399Y1017343D02*
X22515733Y879248D01*
X22515733Y879248D02*
X21982399Y879248D01*
X21982399Y879248D02*
X21715733Y741153D01*
X21715733Y741153D02*
X21582399Y603058D01*
X21582399Y603058D02*
X21449066Y326867D01*
X21449066Y326867D02*
X21449066Y-225514D01*
X21449066Y-225514D02*
X21582399Y-501704D01*
X21582399Y-501704D02*
X21715733Y-639800D01*
X21715733Y-639800D02*
X21982399Y-777895D01*
X21982399Y-777895D02*
X22515733Y-777895D01*
X22515733Y-777895D02*
X22782399Y-639800D01*
X22782399Y-639800D02*
X22915733Y-501704D01*
X22915733Y-501704D02*
X23049066Y-225514D01*
X23049066Y-225514D02*
X23049066Y326867D01*
X23049066Y326867D02*
X22915733Y603058D01*
X22915733Y603058D02*
X22782399Y741153D01*
X22782399Y741153D02*
X22515733Y879248D01*
X24249066Y-777895D02*
X24249066Y2122105D01*
X24249066Y2122105D02*
X25182400Y50677D01*
X25182400Y50677D02*
X26115733Y2122105D01*
X26115733Y2122105D02*
X26115733Y-777895D01*
X27315733Y-639800D02*
X27715733Y-777895D01*
X27715733Y-777895D02*
X28382400Y-777895D01*
X28382400Y-777895D02*
X28649066Y-639800D01*
X28649066Y-639800D02*
X28782400Y-501704D01*
X28782400Y-501704D02*
X28915733Y-225514D01*
X28915733Y-225514D02*
X28915733Y50677D01*
X28915733Y50677D02*
X28782400Y326867D01*
X28782400Y326867D02*
X28649066Y464962D01*
X28649066Y464962D02*
X28382400Y603058D01*
X28382400Y603058D02*
X27849066Y741153D01*
X27849066Y741153D02*
X27582400Y879248D01*
X27582400Y879248D02*
X27449066Y1017343D01*
X27449066Y1017343D02*
X27315733Y1293534D01*
X27315733Y1293534D02*
X27315733Y1569724D01*
X27315733Y1569724D02*
X27449066Y1845915D01*
X27449066Y1845915D02*
X27582400Y1984010D01*
X27582400Y1984010D02*
X27849066Y2122105D01*
X27849066Y2122105D02*
X28515733Y2122105D01*
X28515733Y2122105D02*
X28915733Y1984010D01*
X31049067Y741153D02*
X31449067Y603058D01*
X31449067Y603058D02*
X31582400Y464962D01*
X31582400Y464962D02*
X31715733Y188772D01*
X31715733Y188772D02*
X31715733Y-225514D01*
X31715733Y-225514D02*
X31582400Y-501704D01*
X31582400Y-501704D02*
X31449067Y-639800D01*
X31449067Y-639800D02*
X31182400Y-777895D01*
X31182400Y-777895D02*
X30115733Y-777895D01*
X30115733Y-777895D02*
X30115733Y2122105D01*
X30115733Y2122105D02*
X31049067Y2122105D01*
X31049067Y2122105D02*
X31315733Y1984010D01*
X31315733Y1984010D02*
X31449067Y1845915D01*
X31449067Y1845915D02*
X31582400Y1569724D01*
X31582400Y1569724D02*
X31582400Y1293534D01*
X31582400Y1293534D02*
X31449067Y1017343D01*
X31449067Y1017343D02*
X31315733Y879248D01*
X31315733Y879248D02*
X31049067Y741153D01*
X31049067Y741153D02*
X30115733Y741153D01*
X34515733Y-501704D02*
X34382400Y-639800D01*
X34382400Y-639800D02*
X33982400Y-777895D01*
X33982400Y-777895D02*
X33715733Y-777895D01*
X33715733Y-777895D02*
X33315733Y-639800D01*
X33315733Y-639800D02*
X33049067Y-363609D01*
X33049067Y-363609D02*
X32915733Y-87419D01*
X32915733Y-87419D02*
X32782400Y464962D01*
X32782400Y464962D02*
X32782400Y879248D01*
X32782400Y879248D02*
X32915733Y1431629D01*
X32915733Y1431629D02*
X33049067Y1707820D01*
X33049067Y1707820D02*
X33315733Y1984010D01*
X33315733Y1984010D02*
X33715733Y2122105D01*
X33715733Y2122105D02*
X33982400Y2122105D01*
X33982400Y2122105D02*
X34382400Y1984010D01*
X34382400Y1984010D02*
X34515733Y1845915D01*
D12*
%TO.C,D4*%
X42509000Y40370000D02*
X42509000Y38085000D01*
X42509000Y38085000D02*
X43979000Y38085000D01*
X43979000Y38085000D02*
X43979000Y40370000D01*
%TO.C,R84*%
X34643241Y35106200D02*
X34335959Y35106200D01*
X34643241Y34346200D02*
X34335959Y34346200D01*
%TO.C,R107*%
X202600Y6886559D02*
X202600Y7193841D01*
X962600Y6886559D02*
X962600Y7193841D01*
%TO.C,J3*%
X-2498000Y36487000D02*
X-2498000Y24367000D01*
X-2498000Y34457000D02*
X-1988000Y34457000D01*
X-2498000Y32957000D02*
X-1988000Y32957000D01*
X-2498000Y27897000D02*
X-1988000Y27897000D01*
X-2498000Y26397000D02*
X-1988000Y26397000D01*
X-2498000Y24367000D02*
X2722000Y24367000D01*
X-1988000Y35627000D02*
X-1988000Y25227000D01*
X-1988000Y25227000D02*
X2212000Y25227000D01*
X-788000Y36487000D02*
X-788000Y35627000D01*
X-788000Y24367000D02*
X-788000Y25227000D01*
X12000Y36487000D02*
X12000Y35627000D01*
X12000Y24367000D02*
X12000Y25227000D01*
X812000Y37287000D02*
X1412000Y37287000D01*
X1112000Y36687000D02*
X812000Y37287000D01*
X1412000Y37287000D02*
X1112000Y36687000D01*
X2212000Y35627000D02*
X-1988000Y35627000D01*
X2212000Y25227000D02*
X2212000Y35627000D01*
X2722000Y36487000D02*
X-2498000Y36487000D01*
X2722000Y33897000D02*
X2212000Y33897000D01*
X2722000Y32957000D02*
X2212000Y32957000D01*
X2722000Y27897000D02*
X2212000Y27897000D01*
X2722000Y26957000D02*
X2212000Y26957000D01*
X2722000Y24367000D02*
X2722000Y36487000D01*
%TO.C,U14*%
X17887200Y28120700D02*
X8887200Y28120700D01*
X8887200Y34620700D01*
X17887200Y34620700D01*
X17887200Y28120700D01*
X18137200Y27870700D02*
X17637200Y27870700D01*
X17637200Y28370700D01*
X18137200Y28370700D01*
X18137200Y27870700D01*
G36*
X18137200Y27870700D02*
G01*
X17637200Y27870700D01*
X17637200Y28370700D01*
X18137200Y28370700D01*
X18137200Y27870700D01*
G37*
%TO.C,U10*%
X45784000Y32104000D02*
X44984000Y32104000D01*
X45784000Y32104000D02*
X46584000Y32104000D01*
X45784000Y28984000D02*
X44984000Y28984000D01*
X45784000Y28984000D02*
X47584000Y28984000D01*
%TO.C,R77*%
X49671541Y8809600D02*
X49364259Y8809600D01*
X49671541Y8049600D02*
X49364259Y8049600D01*
%TO.C,C17*%
X60417981Y19102822D02*
X60417981Y18887150D01*
X61137981Y19102822D02*
X61137981Y18887150D01*
%TO.C,C60*%
X62182355Y35874614D02*
X61966683Y35874614D01*
X62182355Y35154614D02*
X61966683Y35154614D01*
%TO.C,R3*%
X60372981Y23546345D02*
X60372981Y23853627D01*
X61132981Y23546345D02*
X61132981Y23853627D01*
%TO.C,C327*%
X3957019Y4522450D02*
X3957019Y4306778D01*
X4677019Y4522450D02*
X4677019Y4306778D01*
%TO.C,R31*%
X44261000Y36946621D02*
X44261000Y36611379D01*
X45021000Y36946621D02*
X45021000Y36611379D01*
%TO.C,R86*%
X10308359Y27107000D02*
X10615641Y27107000D01*
X10308359Y26347000D02*
X10615641Y26347000D01*
%TO.C,C54*%
X56085817Y36792487D02*
X55870145Y36792487D01*
X56085817Y36072487D02*
X55870145Y36072487D01*
%TO.C,C317*%
X1994519Y5459950D02*
X1994519Y5244278D01*
X2714519Y5459950D02*
X2714519Y5244278D01*
%TO.C,C34*%
X67317981Y30295322D02*
X67317981Y30079650D01*
X68037981Y30295322D02*
X68037981Y30079650D01*
%TO.C,D5*%
X73014400Y29981400D02*
X73014400Y27696400D01*
X73014400Y27696400D02*
X74484400Y27696400D01*
X74484400Y27696400D02*
X74484400Y29981400D01*
%TO.C,U5*%
X24987000Y44325000D02*
X25487000Y44325000D01*
X24987000Y44075000D02*
X24987000Y44325000D01*
X24987000Y42575000D02*
X24987000Y42325000D01*
X24987000Y42325000D02*
X25487000Y42325000D01*
X27487000Y42325000D02*
X27987000Y42325000D01*
X27987000Y44325000D02*
X27487000Y44325000D01*
X27987000Y44075000D02*
X27987000Y44325000D01*
X27987000Y42325000D02*
X27987000Y42575000D01*
X25237000Y42075000D02*
X25487000Y42075000D01*
X25487000Y42325000D01*
X25237000Y42325000D01*
X25237000Y42075000D01*
G36*
X25237000Y42075000D02*
G01*
X25487000Y42075000D01*
X25487000Y42325000D01*
X25237000Y42325000D01*
X25237000Y42075000D01*
G37*
%TO.C,R109*%
X5370660Y6194614D02*
X5063378Y6194614D01*
X5370660Y5434614D02*
X5063378Y5434614D01*
%TO.C,R23*%
X21994379Y47107000D02*
X22329621Y47107000D01*
X21994379Y46347000D02*
X22329621Y46347000D01*
%TO.C,R90*%
X3294519Y33841373D02*
X3294519Y34148655D01*
X4054519Y33841373D02*
X4054519Y34148655D01*
%TO.C,C63*%
X49167519Y44309178D02*
X49167519Y44524850D01*
X49887519Y44309178D02*
X49887519Y44524850D01*
%TO.C,R9*%
X67512981Y46931345D02*
X67512981Y47238627D01*
X68272981Y46931345D02*
X68272981Y47238627D01*
%TO.C,C39*%
X68267981Y30295322D02*
X68267981Y30079650D01*
X68987981Y30295322D02*
X68987981Y30079650D01*
%TO.C,U19*%
X7052000Y46987000D02*
X7527000Y46987000D01*
X7052000Y46512000D02*
X7052000Y46987000D01*
X7052000Y40242000D02*
X7052000Y39767000D01*
X14272000Y46987000D02*
X13797000Y46987000D01*
X14272000Y46512000D02*
X14272000Y46987000D01*
X14272000Y40242000D02*
X14272000Y39767000D01*
X14272000Y39767000D02*
X13797000Y39767000D01*
%TO.C,C38*%
X75854519Y38942450D02*
X75854519Y38726778D01*
X76574519Y38942450D02*
X76574519Y38726778D01*
%TO.C,C59*%
X68830481Y35082822D02*
X68830481Y34867150D01*
X69550481Y35082822D02*
X69550481Y34867150D01*
%TO.C,L5*%
X63827981Y31569986D02*
X66227981Y31569986D01*
X66227981Y34969986D01*
X63827981Y34969986D01*
X63827981Y31569986D01*
%TO.C,C62*%
X72312645Y43634986D02*
X72528317Y43634986D01*
X72312645Y42914986D02*
X72528317Y42914986D01*
%TO.C,U2*%
X61917981Y18914986D02*
X61917981Y19389986D01*
X62392981Y18914986D02*
X61917981Y18914986D01*
X66662981Y24134986D02*
X67137981Y24134986D01*
X66662981Y18914986D02*
X67137981Y18914986D01*
X67137981Y24134986D02*
X67137981Y23659986D01*
X67137981Y18914986D02*
X67137981Y19389986D01*
D13*
X61927981Y24124986D02*
X62427981Y24124986D01*
X62427981Y23624986D01*
X61927981Y23624986D01*
X61927981Y24124986D01*
G36*
X61927981Y24124986D02*
G01*
X62427981Y24124986D01*
X62427981Y23624986D01*
X61927981Y23624986D01*
X61927981Y24124986D01*
G37*
D12*
%TO.C,C1*%
X60435817Y20734986D02*
X60220145Y20734986D01*
X60435817Y20014986D02*
X60220145Y20014986D01*
%TO.C,R1*%
X60372981Y21621345D02*
X60372981Y21928627D01*
X61132981Y21621345D02*
X61132981Y21928627D01*
%TO.C,U12*%
X45919519Y10354614D02*
X45919519Y24074614D01*
X46919519Y25074614D02*
X56139519Y25074614D01*
X56139519Y25074614D02*
X56139519Y10354614D01*
X56139519Y10354614D02*
X45919519Y10354614D01*
%TO.C,J2*%
X3629000Y46440000D02*
X3629000Y44840000D01*
X3629000Y40440000D02*
X3629000Y38840000D01*
X6329000Y49620000D02*
X7929000Y49620000D01*
X6329000Y35660000D02*
X7929000Y35660000D01*
X12329000Y49620000D02*
X13929000Y49620000D01*
X12329000Y35660000D02*
X13929000Y35660000D01*
X16629000Y46440000D02*
X16629000Y44840000D01*
X16629000Y40440000D02*
X16629000Y38840000D01*
%TO.C,C316*%
X5719836Y43487000D02*
X5504164Y43487000D01*
X5719836Y42767000D02*
X5504164Y42767000D01*
%TO.C,C75*%
X29902420Y38120000D02*
X30183580Y38120000D01*
X29902420Y37100000D02*
X30183580Y37100000D01*
%TO.C,R17*%
X49095140Y46197014D02*
X48759898Y46197014D01*
X49095140Y45437014D02*
X48759898Y45437014D01*
%TO.C,R14*%
X62197981Y47253627D02*
X62197981Y46946345D01*
X62957981Y47253627D02*
X62957981Y46946345D01*
%TO.C,C46*%
X67967981Y11411238D02*
X67967981Y9988734D01*
X69787981Y11411238D02*
X69787981Y9988734D01*
%TO.C,R67*%
X49581160Y27000814D02*
X49273878Y27000814D01*
X49581160Y26240814D02*
X49273878Y26240814D01*
%TO.C,D8*%
X36739600Y33508600D02*
X39024600Y33508600D01*
X39024600Y34978600D02*
X36739600Y34978600D01*
X39024600Y33508600D02*
X39024600Y34978600D01*
%TO.C,R7*%
X62930000Y26278041D02*
X62930000Y25970759D01*
X63690000Y26278041D02*
X63690000Y25970759D01*
%TO.C,L1*%
X57352981Y42219986D02*
X60752981Y42219986D01*
X60752981Y39819986D01*
X57352981Y39819986D01*
X57352981Y42219986D01*
%TO.C,U15*%
X24650000Y33899800D02*
X25125000Y33899800D01*
X24650000Y33424800D02*
X24650000Y33899800D01*
X24650000Y30154800D02*
X24650000Y29679800D01*
X24650000Y29679800D02*
X25125000Y29679800D01*
X28870000Y33424800D02*
X28870000Y33899800D01*
X28870000Y30154800D02*
X28870000Y29679800D01*
X28870000Y29679800D02*
X28395000Y29679800D01*
%TO.C,R89*%
X18879041Y39450700D02*
X18571759Y39450700D01*
X18879041Y38690700D02*
X18571759Y38690700D01*
%TO.C,C287*%
X71915580Y47510000D02*
X71634420Y47510000D01*
X71915580Y46490000D02*
X71634420Y46490000D01*
%TO.C,R59*%
X52920000Y37653641D02*
X52920000Y37346359D01*
X53680000Y37653641D02*
X53680000Y37346359D01*
%TO.C,C49*%
X56085817Y38729153D02*
X55870145Y38729153D01*
X56085817Y38009153D02*
X55870145Y38009153D01*
%TO.C,R10*%
X61247981Y46946345D02*
X61247981Y47253627D01*
X62007981Y46946345D02*
X62007981Y47253627D01*
%TO.C,C20*%
X59617981Y10784986D02*
X59617981Y8434986D01*
X59617981Y3964986D02*
X59617981Y6314986D01*
X65373544Y10784986D02*
X59617981Y10784986D01*
X65373544Y3964986D02*
X59617981Y3964986D01*
X66437981Y9720549D02*
X65373544Y10784986D01*
X66437981Y9720549D02*
X66437981Y8434986D01*
X66437981Y5029423D02*
X65373544Y3964986D01*
X66437981Y5029423D02*
X66437981Y6314986D01*
X67071731Y5133736D02*
X67071731Y5921236D01*
X67465481Y5527486D02*
X66677981Y5527486D01*
%TO.C,C85*%
X39481225Y38470800D02*
X39762385Y38470800D01*
X39481225Y37450800D02*
X39762385Y37450800D01*
%TO.C,L4*%
X75902981Y40219986D02*
X72502981Y40219986D01*
X72502981Y42619986D01*
X75902981Y42619986D01*
X75902981Y40219986D01*
%TO.C,C44*%
X56085817Y39697486D02*
X55870145Y39697486D01*
X56085817Y38977486D02*
X55870145Y38977486D01*
%TO.C,C73*%
X21163420Y41021500D02*
X21444580Y41021500D01*
X21163420Y40001500D02*
X21444580Y40001500D01*
%TO.C,D7*%
X36739600Y35007200D02*
X39024600Y35007200D01*
X39024600Y36477200D02*
X36739600Y36477200D01*
X39024600Y35007200D02*
X39024600Y36477200D01*
%TO.C,Q3*%
X40756286Y47927919D02*
X40756286Y45897919D01*
X40756286Y47927919D02*
X41416286Y47927919D01*
X42416286Y47927919D02*
X43076286Y47927919D01*
X43076286Y46517919D02*
X43076286Y47927919D01*
%TO.C,C53*%
X69780481Y35082822D02*
X69780481Y34867150D01*
X70500481Y35082822D02*
X70500481Y34867150D01*
%TO.C,C315*%
X5719836Y41887000D02*
X5504164Y41887000D01*
X5719836Y41167000D02*
X5504164Y41167000D01*
%TO.C,C26*%
X66392981Y47207822D02*
X66392981Y46992150D01*
X67112981Y47207822D02*
X67112981Y46992150D01*
%TO.C,FB8*%
X1691740Y20062114D02*
X2017298Y20062114D01*
X1691740Y19042114D02*
X2017298Y19042114D01*
%TO.C,R25*%
X30083621Y42054000D02*
X29748379Y42054000D01*
X30083621Y41294000D02*
X29748379Y41294000D01*
%TO.C,C64*%
X3544519Y21658716D02*
X3544519Y21874388D01*
X4264519Y21658716D02*
X4264519Y21874388D01*
%TO.C,R79*%
X54725559Y34362000D02*
X55032841Y34362000D01*
X54725559Y33602000D02*
X55032841Y33602000D01*
%TO.C,L2*%
X57352981Y39819986D02*
X60752981Y39819986D01*
X60752981Y37419986D01*
X57352981Y37419986D01*
X57352981Y39819986D01*
%TO.C,C76*%
X25584420Y47010000D02*
X25865580Y47010000D01*
X25584420Y45990000D02*
X25865580Y45990000D01*
D14*
%TO.C,U13*%
X11534519Y25170014D02*
X11534519Y21920014D01*
X11534519Y25170014D02*
X14409519Y25170014D01*
X11534519Y12170014D02*
X11534519Y15420014D01*
X11534519Y12170014D02*
X14409519Y12170014D01*
X23034519Y25170014D02*
X20159519Y25170014D01*
X23034519Y25170014D02*
X23034519Y21920014D01*
X23034519Y12170014D02*
X20159519Y12170014D01*
X23034519Y12170014D02*
X23034519Y15420014D01*
D15*
X11134519Y21920014D02*
G75*
G02*
X10934519Y21920014I-100000J0D01*
G01*
X10934519Y21920014D02*
G75*
G02*
X11134519Y21920014I100000J0D01*
G01*
D12*
%TO.C,R12*%
X60247981Y47253627D02*
X60247981Y46946345D01*
X61007981Y47253627D02*
X61007981Y46946345D01*
%TO.C,R19*%
X22991879Y39507000D02*
X23327121Y39507000D01*
X22991879Y38747000D02*
X23327121Y38747000D01*
%TO.C,C77*%
X29902420Y39644000D02*
X30183580Y39644000D01*
X29902420Y38624000D02*
X30183580Y38624000D01*
%TO.C,C27*%
X59617981Y17884986D02*
X59617981Y15534986D01*
X59617981Y11064986D02*
X59617981Y13414986D01*
X65373544Y17884986D02*
X59617981Y17884986D01*
X65373544Y11064986D02*
X59617981Y11064986D01*
X66437981Y16820549D02*
X65373544Y17884986D01*
X66437981Y16820549D02*
X66437981Y15534986D01*
X66437981Y12129423D02*
X65373544Y11064986D01*
X66437981Y12129423D02*
X66437981Y13414986D01*
X67071731Y12233736D02*
X67071731Y13021236D01*
X67465481Y12627486D02*
X66677981Y12627486D01*
%TO.C,R75*%
X72124800Y29307159D02*
X72124800Y29614441D01*
X72884800Y29307159D02*
X72884800Y29614441D01*
%TO.C,R2*%
X59422981Y21621345D02*
X59422981Y21928627D01*
X60182981Y21621345D02*
X60182981Y21928627D01*
%TO.C,R78*%
X58963359Y34362000D02*
X59270641Y34362000D01*
X58963359Y33602000D02*
X59270641Y33602000D01*
%TO.C,L3*%
X66227981Y31569986D02*
X68627981Y31569986D01*
X68627981Y34969986D01*
X66227981Y34969986D01*
X66227981Y31569986D01*
%TO.C,Q7*%
X50099200Y31525200D02*
X50099200Y32185200D01*
X50099200Y29865200D02*
X50099200Y30525200D01*
X50099200Y29865200D02*
X52129200Y29865200D01*
X51509200Y32185200D02*
X50099200Y32185200D01*
%TO.C,C50*%
X56085817Y41597486D02*
X55870145Y41597486D01*
X56085817Y40877486D02*
X55870145Y40877486D01*
%TO.C,C80*%
X45401000Y36381420D02*
X45401000Y36662580D01*
X46421000Y36381420D02*
X46421000Y36662580D01*
%TO.C,U6*%
X6065800Y23886000D02*
X6065800Y20886000D01*
X9305800Y24886000D02*
X9305800Y22886000D01*
%TO.C,R35*%
X28673759Y28248200D02*
X28981041Y28248200D01*
X28673759Y27488200D02*
X28981041Y27488200D01*
%TO.C,C290*%
X75491719Y4516834D02*
X75491719Y4797994D01*
X76511719Y4516834D02*
X76511719Y4797994D01*
%TO.C,R18*%
X21079621Y39507000D02*
X20744379Y39507000D01*
X21079621Y38747000D02*
X20744379Y38747000D01*
%TO.C,C32*%
X65317981Y30295322D02*
X65317981Y30079650D01*
X66037981Y30295322D02*
X66037981Y30079650D01*
%TO.C,R57*%
X59970000Y44903641D02*
X59970000Y44596359D01*
X60730000Y44903641D02*
X60730000Y44596359D01*
%TO.C,R81*%
X54725559Y28367600D02*
X55032841Y28367600D01*
X54725559Y27607600D02*
X55032841Y27607600D01*
%TO.C,C16*%
X72528317Y45534986D02*
X72312645Y45534986D01*
X72528317Y44814986D02*
X72312645Y44814986D01*
%TO.C,L7*%
X6976148Y20384600D02*
X7498652Y20384600D01*
X6976148Y18384600D02*
X7498652Y18384600D01*
%TO.C,SW2*%
X73550000Y33700000D02*
X76650000Y33700000D01*
X76650000Y31300000D01*
X73550000Y31300000D01*
X73550000Y33700000D01*
%TO.C,R108*%
X6963378Y6194614D02*
X7270660Y6194614D01*
X6963378Y5434614D02*
X7270660Y5434614D01*
%TO.C,SW1*%
X73550000Y36200000D02*
X76650000Y36200000D01*
X76650000Y33800000D01*
X73550000Y33800000D01*
X73550000Y36200000D01*
%TO.C,C48*%
X59267981Y46972150D02*
X59267981Y47187822D01*
X59987981Y46972150D02*
X59987981Y47187822D01*
%TO.C,C42*%
X70267981Y11411238D02*
X70267981Y9988734D01*
X72087981Y11411238D02*
X72087981Y9988734D01*
%TO.C,R58*%
X74553641Y37180000D02*
X74246359Y37180000D01*
X74553641Y36420000D02*
X74246359Y36420000D01*
%TO.C,D10*%
X3304519Y29855014D02*
X3304519Y32515014D01*
X3304519Y29855014D02*
X5004519Y29855014D01*
X5004519Y29855014D02*
X5004519Y32515014D01*
%TO.C,L6*%
X68047981Y25204986D02*
X68047981Y14844986D01*
X68047981Y14844986D02*
X70452981Y14844986D01*
X70452981Y25204986D02*
X68047981Y25204986D01*
X76002981Y25204986D02*
X78407981Y25204986D01*
X78407981Y25204986D02*
X78407981Y14844986D01*
X78407981Y14844986D02*
X76002981Y14844986D01*
D14*
%TO.C,U9*%
X24979519Y25889614D02*
X29229519Y25889614D01*
X24979519Y21639614D02*
X24979519Y25889614D01*
X24979519Y8889614D02*
X24979519Y13139614D01*
X29229519Y8889614D02*
X24979519Y8889614D01*
X37729519Y25889614D02*
X41979519Y25889614D01*
X41979519Y25889614D02*
X41979519Y21639614D01*
X41979519Y13139614D02*
X41979519Y8889614D01*
X41979519Y8889614D02*
X37729519Y8889614D01*
D16*
X25699519Y7889614D02*
G75*
G02*
X25459519Y7889614I-120000J0D01*
G01*
X25459519Y7889614D02*
G75*
G02*
X25699519Y7889614I120000J0D01*
G01*
D12*
%TO.C,D2*%
X38133286Y47616919D02*
X38133286Y45331919D01*
X38133286Y45331919D02*
X39603286Y45331919D01*
X39603286Y45331919D02*
X39603286Y47616919D01*
%TO.C,U7*%
X34576286Y44584786D02*
X35076286Y44584786D01*
X34576286Y44334786D02*
X34576286Y44584786D01*
X34576286Y42834786D02*
X34576286Y42584786D01*
X34576286Y42584786D02*
X35076286Y42584786D01*
X37076286Y42584786D02*
X37576286Y42584786D01*
X37576286Y44584786D02*
X37076286Y44584786D01*
X37576286Y44334786D02*
X37576286Y44584786D01*
X37576286Y42584786D02*
X37576286Y42834786D01*
X34826286Y42334786D02*
X35076286Y42334786D01*
X35076286Y42584786D01*
X34826286Y42584786D01*
X34826286Y42334786D01*
G36*
X34826286Y42334786D02*
G01*
X35076286Y42334786D01*
X35076286Y42584786D01*
X34826286Y42584786D01*
X34826286Y42334786D01*
G37*
%TO.C,C61*%
X72125145Y39579986D02*
X72340817Y39579986D01*
X72125145Y38859986D02*
X72340817Y38859986D01*
%TO.C,HS1*%
X23480519Y27389614D02*
X43480519Y27389614D01*
X43480519Y7389614D01*
X23480519Y7389614D01*
X23480519Y27389614D01*
%TO.C,U3*%
X1379519Y23796552D02*
X579519Y23796552D01*
X1379519Y23796552D02*
X2179519Y23796552D01*
X1379519Y20676552D02*
X579519Y20676552D01*
X1379519Y20676552D02*
X3179519Y20676552D01*
%TO.C,R27*%
X39493907Y44614786D02*
X39158665Y44614786D01*
X39493907Y43854786D02*
X39158665Y43854786D01*
%TO.C,C45*%
X56085817Y40647486D02*
X55870145Y40647486D01*
X56085817Y39927486D02*
X55870145Y39927486D01*
%TO.C,U1*%
X62217981Y36964986D02*
X62217981Y37439986D01*
X62692981Y45184986D02*
X62217981Y45184986D01*
X62692981Y36964986D02*
X62217981Y36964986D01*
X69962981Y45184986D02*
X70437981Y45184986D01*
X69962981Y36964986D02*
X70437981Y36964986D01*
X70437981Y45184986D02*
X70437981Y44709986D01*
X70437981Y36964986D02*
X70437981Y37439986D01*
%TO.C,C288*%
X4859420Y510000D02*
X5140580Y510000D01*
X4859420Y-510000D02*
X5140580Y-510000D01*
%TO.C,C57*%
X46769683Y46152000D02*
X46985355Y46152000D01*
X46769683Y45432000D02*
X46985355Y45432000D01*
%TO.C,R20*%
X8965600Y19450621D02*
X8965600Y19115379D01*
X9725600Y19450621D02*
X9725600Y19115379D01*
%TO.C,R93*%
X4254519Y25551373D02*
X4254519Y25858655D01*
X5014519Y25551373D02*
X5014519Y25858655D01*
%TO.C,R13*%
X63147981Y47253627D02*
X63147981Y46946345D01*
X63907981Y47253627D02*
X63907981Y46946345D01*
%TO.C,C52*%
X56085817Y43497486D02*
X55870145Y43497486D01*
X56085817Y42777486D02*
X55870145Y42777486D01*
%TO.C,C58*%
X69392981Y46992150D02*
X69392981Y47207822D01*
X70112981Y46992150D02*
X70112981Y47207822D01*
%TO.C,R92*%
X3282000Y25551373D02*
X3282000Y25858655D01*
X4042000Y25551373D02*
X4042000Y25858655D01*
%TO.C,C23*%
X66367981Y30295322D02*
X66367981Y30079650D01*
X67087981Y30295322D02*
X67087981Y30079650D01*
%TO.C,SH2*%
X36628350Y38469786D02*
X36174222Y38469786D01*
X36628350Y36999786D02*
X36174222Y36999786D01*
%TO.C,C33*%
X73944519Y38942450D02*
X73944519Y38726778D01*
X74664519Y38942450D02*
X74664519Y38726778D01*
%TO.C,R15*%
X51148621Y48523000D02*
X50813379Y48523000D01*
X51148621Y47763000D02*
X50813379Y47763000D01*
%TO.C,C29*%
X64367981Y30295322D02*
X64367981Y30079650D01*
X65087981Y30295322D02*
X65087981Y30079650D01*
%TO.C,C40*%
X72567981Y11411238D02*
X72567981Y9988734D01*
X74387981Y11411238D02*
X74387981Y9988734D01*
%TO.C,R106*%
X2974519Y5198473D02*
X2974519Y5505755D01*
X3734519Y5198473D02*
X3734519Y5505755D01*
%TO.C,C81*%
X42734000Y36381420D02*
X42734000Y36662580D01*
X43754000Y36381420D02*
X43754000Y36662580D01*
%TO.C,Q2*%
X54140000Y46435000D02*
X50140000Y46435000D01*
X50140000Y41685000D01*
X54140000Y41685000D01*
X54140000Y46435000D01*
%TO.C,Q4*%
X47344000Y2809000D02*
X46544000Y2809000D01*
X47344000Y2809000D02*
X48144000Y2809000D01*
X47344000Y-311000D02*
X46544000Y-311000D01*
X47344000Y-311000D02*
X49144000Y-311000D01*
%TO.C,R88*%
X5204519Y31031373D02*
X5204519Y31338655D01*
X5964519Y31031373D02*
X5964519Y31338655D01*
%TO.C,Y5*%
X5417019Y1514614D02*
X11317019Y1514614D01*
X11317019Y5114614D02*
X5417019Y5114614D01*
X11317019Y1514614D02*
X11317019Y5114614D01*
%TO.C,R28*%
X43157621Y45284000D02*
X42822379Y45284000D01*
X43157621Y44524000D02*
X42822379Y44524000D01*
%TO.C,C55*%
X56085817Y42547486D02*
X55870145Y42547486D01*
X56085817Y41827486D02*
X55870145Y41827486D01*
%TO.C,SH1*%
X26549564Y38472000D02*
X26095436Y38472000D01*
X26549564Y37002000D02*
X26095436Y37002000D01*
%TO.C,R91*%
X5224519Y27741373D02*
X5224519Y28048655D01*
X5984519Y27741373D02*
X5984519Y28048655D01*
%TO.C,C319*%
X10809183Y6174614D02*
X11024855Y6174614D01*
X10809183Y5454614D02*
X11024855Y5454614D01*
%TO.C,U17*%
X1644519Y15624614D02*
X1644519Y15074614D01*
X1644519Y7404614D02*
X1644519Y7954614D01*
X2194519Y15624614D02*
X1644519Y15624614D01*
X2194519Y7404614D02*
X1644519Y7404614D01*
X9314519Y15624614D02*
X9864519Y15624614D01*
X9314519Y7404614D02*
X9864519Y7404614D01*
X9864519Y15624614D02*
X9864519Y15074614D01*
%TO.C,R30*%
X39158665Y43639786D02*
X39493907Y43639786D01*
X39158665Y42879786D02*
X39493907Y42879786D01*
%TO.C,C69*%
X-1505481Y21658716D02*
X-1505481Y21874388D01*
X-785481Y21658716D02*
X-785481Y21874388D01*
%TO.C,D11*%
X18727000Y38574500D02*
X18727000Y36289500D01*
X20197000Y38574500D02*
X18727000Y38574500D01*
X20197000Y36289500D02*
X20197000Y38574500D01*
%TO.C,C24*%
X65417981Y47207822D02*
X65417981Y46992150D01*
X66137981Y47207822D02*
X66137981Y46992150D01*
%TO.C,R66*%
X43957519Y13244455D02*
X43957519Y12937173D01*
X44717519Y13244455D02*
X44717519Y12937173D01*
%TO.C,SW3*%
X53049000Y32315000D02*
X54239000Y32315000D01*
X54239000Y33230000D02*
X54239000Y32315000D01*
X54239000Y33230000D02*
X59760000Y33230000D01*
X54239000Y29745000D02*
X54239000Y28770000D01*
X54239000Y28770000D02*
X59760000Y28770000D01*
X59760000Y33230000D02*
X59760000Y32255000D01*
X59760000Y29745000D02*
X59760000Y28770000D01*
%TO.C,C311*%
X5719836Y46487000D02*
X5504164Y46487000D01*
X5719836Y45767000D02*
X5504164Y45767000D01*
%TO.C,R60*%
X50646359Y34480000D02*
X50953641Y34480000D01*
X50646359Y33720000D02*
X50953641Y33720000D01*
%TO.C,Q8*%
X31443600Y36591000D02*
X30643600Y36591000D01*
X31443600Y36591000D02*
X32243600Y36591000D01*
X31443600Y33471000D02*
X30643600Y33471000D01*
X31443600Y33471000D02*
X33243600Y33471000D01*
%TO.C,R80*%
X58963359Y28393000D02*
X59270641Y28393000D01*
X58963359Y27633000D02*
X59270641Y27633000D01*
%TO.C,R22*%
X21994379Y48107000D02*
X22329621Y48107000D01*
X21994379Y47347000D02*
X22329621Y47347000D01*
%TO.C,R26*%
X29748379Y43070000D02*
X30083621Y43070000D01*
X29748379Y42310000D02*
X30083621Y42310000D01*
%TO.C,Q6*%
X46009900Y8258800D02*
X46009900Y8918800D01*
X46009900Y6598800D02*
X46009900Y7258800D01*
X46009900Y6598800D02*
X48039900Y6598800D01*
X47419900Y8918800D02*
X46009900Y8918800D01*
%TO.C,L8*%
X26061248Y41260000D02*
X26583752Y41260000D01*
X26061248Y39040000D02*
X26583752Y39040000D01*
%TO.C,C31*%
X69217981Y30295322D02*
X69217981Y30079650D01*
X69937981Y30295322D02*
X69937981Y30079650D01*
%TO.C,U8*%
X41999000Y43395000D02*
X41999000Y42095000D01*
X45119000Y42095000D02*
X45119000Y44095000D01*
%TO.C,C56*%
X50985355Y47342014D02*
X50769683Y47342014D01*
X50985355Y46622014D02*
X50769683Y46622014D01*
%TO.C,D6*%
X48642500Y7945400D02*
X48642500Y6475400D01*
X48642500Y6475400D02*
X50927500Y6475400D01*
X50927500Y7945400D02*
X48642500Y7945400D01*
%TO.C,C309*%
X9124855Y6174614D02*
X8909183Y6174614D01*
X9124855Y5454614D02*
X8909183Y5454614D01*
%TO.C,R87*%
X7482000Y33790641D02*
X7482000Y33483359D01*
X8242000Y33790641D02*
X8242000Y33483359D01*
%TO.C,R95*%
X10674519Y7495755D02*
X10674519Y7188473D01*
X11434519Y7495755D02*
X11434519Y7188473D01*
%TO.C,D9*%
X3294519Y26645014D02*
X3294519Y29305014D01*
X3294519Y26645014D02*
X4994519Y26645014D01*
X4994519Y26645014D02*
X4994519Y29305014D01*
%TO.C,R24*%
X39758286Y46603540D02*
X39758286Y46268298D01*
X40518286Y46603540D02*
X40518286Y46268298D01*
%TO.C,R85*%
X10233359Y28007000D02*
X10540641Y28007000D01*
X10233359Y27247000D02*
X10540641Y27247000D01*
%TO.C,C37*%
X62467981Y30295322D02*
X62467981Y30079650D01*
X63187981Y30295322D02*
X63187981Y30079650D01*
%TO.C,Q5*%
X74748400Y30140000D02*
X74748400Y28110000D01*
X74748400Y30140000D02*
X75408400Y30140000D01*
X76408400Y30140000D02*
X77068400Y30140000D01*
X77068400Y28730000D02*
X77068400Y30140000D01*
%TO.C,Y1*%
X30543000Y30722000D02*
X30543000Y31522000D01*
X32343000Y32922000D02*
X34143000Y32922000D01*
X34143000Y32922000D02*
X34143000Y33162000D01*
X34143000Y29322000D02*
X32343000Y29322000D01*
X35943000Y31522000D02*
X35943000Y30722000D01*
X36343000Y31522000D02*
X35943000Y31522000D01*
%TO.C,U16*%
X19199000Y33915200D02*
X19674000Y33915200D01*
X19199000Y33440200D02*
X19199000Y33915200D01*
X19199000Y30170200D02*
X19199000Y29695200D01*
X19199000Y29695200D02*
X19674000Y29695200D01*
X23419000Y33440200D02*
X23419000Y33915200D01*
X23419000Y30170200D02*
X23419000Y29695200D01*
X23419000Y29695200D02*
X22944000Y29695200D01*
%TO.C,L9*%
X35815034Y41382200D02*
X36337538Y41382200D01*
X35815034Y39162200D02*
X36337538Y39162200D01*
%TO.C,Y2*%
X37093000Y30722000D02*
X37093000Y31522000D01*
X38893000Y32922000D02*
X40693000Y32922000D01*
X40693000Y32922000D02*
X40693000Y33162000D01*
X40693000Y29322000D02*
X38893000Y29322000D01*
X42493000Y31522000D02*
X42493000Y30722000D01*
X42893000Y31522000D02*
X42493000Y31522000D01*
%TO.C,D3*%
X44160000Y40370000D02*
X44160000Y38085000D01*
X44160000Y38085000D02*
X45630000Y38085000D01*
X45630000Y38085000D02*
X45630000Y40370000D01*
%TO.C,R68*%
X52003878Y27060814D02*
X52311160Y27060814D01*
X52003878Y26300814D02*
X52311160Y26300814D01*
%TO.C,C18*%
X71417981Y37947822D02*
X71417981Y37732150D01*
X72137981Y37947822D02*
X72137981Y37732150D01*
%TO.C,R29*%
X39493907Y42664786D02*
X39158665Y42664786D01*
X39493907Y41904786D02*
X39158665Y41904786D01*
%TO.C,D12*%
X17253800Y38559900D02*
X17253800Y36274900D01*
X18723800Y38559900D02*
X17253800Y38559900D01*
X18723800Y36274900D02*
X18723800Y38559900D01*
%TO.C,J4*%
X-1612000Y38496000D02*
X-1612000Y41196000D01*
X1108000Y41246000D02*
X1108000Y40606000D01*
X1108000Y39086000D02*
X1738000Y39086000D01*
X1108000Y38446000D02*
X1108000Y39086000D01*
%TO.C,R53*%
X33523641Y28708000D02*
X33216359Y28708000D01*
X33523641Y27948000D02*
X33216359Y27948000D01*
%TO.C,R21*%
X30083621Y44086000D02*
X29748379Y44086000D01*
X30083621Y43326000D02*
X29748379Y43326000D01*
%TO.C,C321*%
X1942355Y18612114D02*
X1726683Y18612114D01*
X1942355Y17892114D02*
X1726683Y17892114D01*
%TO.C,R16*%
X48945140Y47362014D02*
X48609898Y47362014D01*
X48945140Y46602014D02*
X48609898Y46602014D01*
%TO.C,C313*%
X14852000Y44219164D02*
X14852000Y44434836D01*
X15572000Y44219164D02*
X15572000Y44434836D01*
%TO.C,C14*%
X72528317Y44584986D02*
X72312645Y44584986D01*
X72528317Y43864986D02*
X72312645Y43864986D01*
%TO.C,C83*%
X39481225Y39994800D02*
X39762385Y39994800D01*
X39481225Y38974800D02*
X39762385Y38974800D01*
%TO.C,C19*%
X72392981Y37737150D02*
X72392981Y37952822D01*
X73112981Y37737150D02*
X73112981Y37952822D01*
%TO.C,R76*%
X51779500Y7874041D02*
X51779500Y7566759D01*
X52539500Y7874041D02*
X52539500Y7566759D01*
%TO.C,C84*%
X34274225Y47233800D02*
X34555385Y47233800D01*
X34274225Y46213800D02*
X34555385Y46213800D01*
%TO.C,C51*%
X56085817Y37760820D02*
X55870145Y37760820D01*
X56085817Y37040820D02*
X55870145Y37040820D01*
%TO.C,R11*%
X59846359Y43347486D02*
X60153641Y43347486D01*
X59846359Y42587486D02*
X60153641Y42587486D01*
%TO.C,R6*%
X62041241Y25996400D02*
X61733959Y25996400D01*
X62041241Y25236400D02*
X61733959Y25236400D01*
%TO.C,C68*%
X18000000Y44716080D02*
X18000000Y44434920D01*
X19020000Y44716080D02*
X19020000Y44434920D01*
%TO.C,Q1*%
X46567519Y44297014D02*
X46567519Y42887014D01*
X47227519Y42887014D02*
X46567519Y42887014D01*
X48887519Y42887014D02*
X48227519Y42887014D01*
X48887519Y42887014D02*
X48887519Y44917014D01*
%TO.C,C25*%
X64492981Y47207822D02*
X64492981Y46992150D01*
X65212981Y47207822D02*
X65212981Y46992150D01*
%TO.C,R83*%
X51167559Y33295200D02*
X51474841Y33295200D01*
X51167559Y32535200D02*
X51474841Y32535200D01*
%TO.C,R8*%
X64936841Y25945600D02*
X64629559Y25945600D01*
X64936841Y25185600D02*
X64629559Y25185600D01*
%TO.C,R94*%
X21361041Y38611400D02*
X21053759Y38611400D01*
X21361041Y37851400D02*
X21053759Y37851400D01*
%TO.C,U4*%
X20152000Y44177000D02*
X20152000Y44977000D01*
X20152000Y44177000D02*
X20152000Y42377000D01*
X23272000Y44177000D02*
X23272000Y44977000D01*
X23272000Y44177000D02*
X23272000Y43377000D01*
%TO.C,C28*%
X59617981Y3684986D02*
X59617981Y1334986D01*
X59617981Y-3135014D02*
X59617981Y-785014D01*
X65373544Y3684986D02*
X59617981Y3684986D01*
X65373544Y-3135014D02*
X59617981Y-3135014D01*
X66437981Y2620549D02*
X65373544Y3684986D01*
X66437981Y2620549D02*
X66437981Y1334986D01*
X66437981Y-2070577D02*
X65373544Y-3135014D01*
X66437981Y-2070577D02*
X66437981Y-785014D01*
X67071731Y-1966264D02*
X67071731Y-1178764D01*
X67465481Y-1572514D02*
X66677981Y-1572514D01*
%TO.C,R65*%
X44017519Y21631973D02*
X44017519Y21939255D01*
X44777519Y21631973D02*
X44777519Y21939255D01*
%TO.C,C30*%
X74899519Y38942450D02*
X74899519Y38726778D01*
X75619519Y38942450D02*
X75619519Y38726778D01*
%TO.C,R32*%
X41594000Y36426621D02*
X41594000Y36091379D01*
X42354000Y36426621D02*
X42354000Y36091379D01*
%TO.C,Q9*%
X22248800Y37723800D02*
X20448800Y37723800D01*
X22248800Y37723800D02*
X23048800Y37723800D01*
X22248800Y34603800D02*
X21448800Y34603800D01*
X22248800Y34603800D02*
X23048800Y34603800D01*
%TO.C,R82*%
X39166200Y35159241D02*
X39166200Y34851959D01*
X39926200Y35159241D02*
X39926200Y34851959D01*
%TO.C,C35*%
X74867981Y11411238D02*
X74867981Y9988734D01*
X76687981Y11411238D02*
X76687981Y9988734D01*
%TO.C,U11*%
X49540000Y36500000D02*
X49540000Y37150000D01*
X49540000Y36500000D02*
X49540000Y34825000D01*
X52660000Y36500000D02*
X52660000Y37150000D01*
X52660000Y36500000D02*
X52660000Y35850000D01*
%TO.C,C22*%
X76794519Y38942450D02*
X76794519Y38726778D01*
X77514519Y38942450D02*
X77514519Y38726778D01*
%TO.C,C21*%
X63417981Y30295322D02*
X63417981Y30079650D01*
X64137981Y30295322D02*
X64137981Y30079650D01*
%TO.C,R54*%
X40000641Y28835000D02*
X39693359Y28835000D01*
X40000641Y28075000D02*
X39693359Y28075000D01*
%TO.C,R4*%
X59422981Y23546345D02*
X59422981Y23853627D01*
X60182981Y23546345D02*
X60182981Y23853627D01*
%TO.C,R5*%
X62041241Y26961600D02*
X61733959Y26961600D01*
X62041241Y26201600D02*
X61733959Y26201600D01*
%TD*%
%LPC*%
D17*
X-4000000Y51000000D02*
X80000000Y51000000D01*
X80000000Y-4000000D01*
X-4000000Y-4000000D01*
X-4000000Y51000000D01*
%TO.C,J4*%
G36*
X738000Y38906000D02*
G01*
X-1352000Y38906000D01*
X-1352000Y40786000D01*
X738000Y40786000D01*
X738000Y38906000D01*
G37*
%TD*%
D18*
%TO.C,D4*%
X43244000Y38782500D03*
X43244000Y40357500D03*
%TD*%
D19*
%TO.C,R84*%
X34999600Y34726200D03*
X33979600Y34726200D03*
%TD*%
D20*
%TO.C,R107*%
X582600Y6530200D03*
X582600Y7550200D03*
%TD*%
D21*
%TO.C,J3*%
X1112000Y34427000D03*
D22*
X-888000Y34427000D03*
X1112000Y32427000D03*
X-888000Y32427000D03*
X1112000Y30427000D03*
X-888000Y30427000D03*
X1112000Y28427000D03*
X-888000Y28427000D03*
X1112000Y26427000D03*
X-888000Y26427000D03*
%TD*%
D23*
%TO.C,U14*%
X17137200Y29465700D03*
X17137200Y30735700D03*
X17137200Y32005700D03*
X17137200Y33275700D03*
X9637200Y33275700D03*
X9637200Y32005700D03*
X9637200Y30735700D03*
X9637200Y29465700D03*
D24*
X13387200Y31370700D03*
%TD*%
D25*
%TO.C,U10*%
X46921500Y29594000D03*
X46921500Y30544000D03*
X46921500Y31494000D03*
X44646500Y31494000D03*
X44646500Y29594000D03*
%TD*%
D19*
%TO.C,R77*%
X50027900Y8429600D03*
X49007900Y8429600D03*
%TD*%
D26*
%TO.C,C17*%
X60777981Y19474986D03*
X60777981Y18514986D03*
%TD*%
D27*
%TO.C,C60*%
X62554519Y35514614D03*
X61594519Y35514614D03*
%TD*%
D20*
%TO.C,R3*%
X60752981Y23189986D03*
X60752981Y24209986D03*
%TD*%
D26*
%TO.C,C327*%
X4317019Y4894614D03*
X4317019Y3934614D03*
%TD*%
D28*
%TO.C,R31*%
X44641000Y37376500D03*
X44641000Y36181500D03*
%TD*%
D29*
%TO.C,R86*%
X9952000Y26727000D03*
X10972000Y26727000D03*
%TD*%
D27*
%TO.C,C54*%
X56457981Y36432487D03*
X55497981Y36432487D03*
%TD*%
D26*
%TO.C,C317*%
X2354519Y5832114D03*
X2354519Y4872114D03*
%TD*%
%TO.C,C34*%
X67677981Y30667486D03*
X67677981Y29707486D03*
%TD*%
D18*
%TO.C,D5*%
X73749400Y28393900D03*
X73749400Y29968900D03*
%TD*%
D30*
%TO.C,U5*%
X25987000Y42375000D03*
X26487000Y42375000D03*
X26987000Y42375000D03*
D31*
X27837000Y42825000D03*
X27837000Y43325000D03*
X27837000Y43825000D03*
D30*
X26987000Y44275000D03*
X26487000Y44275000D03*
X25987000Y44275000D03*
D31*
X25137000Y42825000D03*
X25137000Y43325000D03*
D32*
X25387000Y43325000D03*
D31*
X25137000Y43825000D03*
D33*
X26487000Y43325000D03*
%TD*%
D34*
%TO.C,R41*%
X38149200Y2672500D03*
X38149200Y1857500D03*
%TD*%
D19*
%TO.C,R109*%
X5727019Y5814614D03*
X4707019Y5814614D03*
%TD*%
D35*
%TO.C,R23*%
X21564500Y46727000D03*
X22759500Y46727000D03*
%TD*%
D20*
%TO.C,R90*%
X3674519Y33485014D03*
X3674519Y34505014D03*
%TD*%
D36*
%TO.C,C63*%
X49527519Y43937014D03*
X49527519Y44897014D03*
%TD*%
D34*
%TO.C,R101*%
X4062400Y17429900D03*
X4062400Y16614900D03*
%TD*%
D20*
%TO.C,R9*%
X67892981Y46574986D03*
X67892981Y47594986D03*
%TD*%
D37*
%TO.C,C65*%
X19662000Y44859500D03*
X19662000Y44219500D03*
%TD*%
D26*
%TO.C,C39*%
X68627981Y30667486D03*
X68627981Y29707486D03*
%TD*%
D38*
%TO.C,U19*%
X7912000Y39927000D03*
X8412000Y39927000D03*
X8912000Y39927000D03*
X9412000Y39927000D03*
X9912000Y39927000D03*
X10412000Y39927000D03*
X10912000Y39927000D03*
X11412000Y39927000D03*
X11912000Y39927000D03*
X12412000Y39927000D03*
X12912000Y39927000D03*
X13412000Y39927000D03*
D39*
X14112000Y40627000D03*
X14112000Y41127000D03*
X14112000Y41627000D03*
X14112000Y42127000D03*
X14112000Y42627000D03*
X14112000Y43127000D03*
X14112000Y43627000D03*
X14112000Y44127000D03*
X14112000Y44627000D03*
X14112000Y45127000D03*
X14112000Y45627000D03*
X14112000Y46127000D03*
D38*
X13412000Y46827000D03*
X12912000Y46827000D03*
X12412000Y46827000D03*
X11912000Y46827000D03*
X11412000Y46827000D03*
X10912000Y46827000D03*
X10412000Y46827000D03*
X9912000Y46827000D03*
X9412000Y46827000D03*
X8912000Y46827000D03*
X8412000Y46827000D03*
X7912000Y46827000D03*
D39*
X7212000Y46127000D03*
X7212000Y45627000D03*
X7212000Y45127000D03*
X7212000Y44627000D03*
X7212000Y44127000D03*
X7212000Y43627000D03*
X7212000Y43127000D03*
X7212000Y42627000D03*
X7212000Y42127000D03*
X7212000Y41627000D03*
X7212000Y41127000D03*
X7212000Y40627000D03*
D40*
X10662000Y43377000D03*
%TD*%
D26*
%TO.C,C38*%
X76214519Y39314614D03*
X76214519Y38354614D03*
%TD*%
%TO.C,C59*%
X69190481Y35454986D03*
X69190481Y34494986D03*
%TD*%
D41*
%TO.C,L5*%
X65027981Y34219986D03*
X65027981Y32319986D03*
%TD*%
D42*
%TO.C,C62*%
X71940481Y43274986D03*
X72900481Y43274986D03*
%TD*%
D43*
%TO.C,U2*%
X62090481Y23274986D03*
X62090481Y22774986D03*
X62090481Y22274986D03*
X62090481Y21774986D03*
X62090481Y21274986D03*
X62090481Y20774986D03*
X62090481Y20274986D03*
X62090481Y19774986D03*
D44*
X62777981Y19087486D03*
X63277981Y19087486D03*
X63777981Y19087486D03*
X64277981Y19087486D03*
X64777981Y19087486D03*
X65277981Y19087486D03*
X65777981Y19087486D03*
X66277981Y19087486D03*
D43*
X66965481Y19774986D03*
X66965481Y20274986D03*
X66965481Y20774986D03*
X66965481Y21274986D03*
X66965481Y21774986D03*
X66965481Y22274986D03*
X66965481Y22774986D03*
X66965481Y23274986D03*
D44*
X66277981Y23962486D03*
X65777981Y23962486D03*
X65277981Y23962486D03*
X64777981Y23962486D03*
X64277981Y23962486D03*
X63777981Y23962486D03*
X63277981Y23962486D03*
X62777981Y23962486D03*
D45*
X63312981Y22434986D03*
D46*
X63312981Y20524986D03*
D47*
X65282981Y21524986D03*
%TD*%
D37*
%TO.C,C97*%
X20374919Y10399414D03*
X20374919Y9759414D03*
%TD*%
D48*
%TO.C,C74*%
X28961000Y40277000D03*
X29601000Y40277000D03*
%TD*%
D27*
%TO.C,C1*%
X60807981Y20374986D03*
X59847981Y20374986D03*
%TD*%
D20*
%TO.C,R1*%
X60752981Y21264986D03*
X60752981Y22284986D03*
%TD*%
D49*
%TO.C,U12*%
X46629519Y24539614D03*
X47429519Y24539614D03*
X48229519Y24539614D03*
X49029519Y24539614D03*
X49829519Y24539614D03*
X52229519Y24539614D03*
X53029519Y24539614D03*
X53829519Y24539614D03*
X54629519Y24539614D03*
X55429519Y24539614D03*
X46629519Y11539614D03*
X47429519Y11539614D03*
X48229519Y11539614D03*
X49029519Y11539614D03*
X49829519Y11539614D03*
X52229519Y11539614D03*
X53029519Y11539614D03*
X53829519Y11539614D03*
X54629519Y11539614D03*
X55429519Y11539614D03*
X46629519Y10889614D03*
X47429519Y10889614D03*
X48229519Y10889614D03*
X49029519Y10889614D03*
X49829519Y10889614D03*
X52229519Y10889614D03*
X53029519Y10889614D03*
X53829519Y10889614D03*
X54629519Y10889614D03*
X55429519Y10889614D03*
X46629519Y23889614D03*
X47429519Y23889614D03*
X48229519Y23889614D03*
X49029519Y23889614D03*
X49829519Y23889614D03*
X52229519Y23889614D03*
X53029519Y23889614D03*
X53829519Y23889614D03*
X54629519Y23889614D03*
X55429519Y23889614D03*
X46629519Y23239614D03*
X47429519Y23239614D03*
X48229519Y23239614D03*
X49029519Y23239614D03*
X49829519Y23239614D03*
X52229519Y23239614D03*
X53029519Y23239614D03*
X53829519Y23239614D03*
X54629519Y23239614D03*
X55429519Y23239614D03*
X46629519Y22589614D03*
X47429519Y22589614D03*
X48229519Y22589614D03*
X49029519Y22589614D03*
X49829519Y22589614D03*
X52229519Y22589614D03*
X53029519Y22589614D03*
X53829519Y22589614D03*
X54629519Y22589614D03*
X55429519Y22589614D03*
X46629519Y21939614D03*
X47429519Y21939614D03*
X48229519Y21939614D03*
X49029519Y21939614D03*
X49829519Y21939614D03*
X52229519Y21939614D03*
X53029519Y21939614D03*
X53829519Y21939614D03*
X54629519Y21939614D03*
X55429519Y21939614D03*
X46629519Y21289614D03*
X47429519Y21289614D03*
X48229519Y21289614D03*
X49029519Y21289614D03*
X49829519Y21289614D03*
X52229519Y21289614D03*
X53029519Y21289614D03*
X53829519Y21289614D03*
X54629519Y21289614D03*
X55429519Y21289614D03*
X46629519Y20639614D03*
X47429519Y20639614D03*
X48229519Y20639614D03*
X49029519Y20639614D03*
X49829519Y20639614D03*
X52229519Y20639614D03*
X53029519Y20639614D03*
X53829519Y20639614D03*
X54629519Y20639614D03*
X55429519Y20639614D03*
X46629519Y19989614D03*
X47429519Y19989614D03*
X48229519Y19989614D03*
X49029519Y19989614D03*
X49829519Y19989614D03*
X52229519Y19989614D03*
X53029519Y19989614D03*
X53829519Y19989614D03*
X54629519Y19989614D03*
X55429519Y19989614D03*
X46629519Y19339614D03*
X47429519Y19339614D03*
X48229519Y19339614D03*
X49029519Y19339614D03*
X49829519Y19339614D03*
X52229519Y19339614D03*
X53029519Y19339614D03*
X53829519Y19339614D03*
X54629519Y19339614D03*
X55429519Y19339614D03*
X46629519Y18689614D03*
X47429519Y18689614D03*
X48229519Y18689614D03*
X49029519Y18689614D03*
X49829519Y18689614D03*
X52229519Y18689614D03*
X53029519Y18689614D03*
X53829519Y18689614D03*
X54629519Y18689614D03*
X55429519Y18689614D03*
X46629519Y16739614D03*
X47429519Y16739614D03*
X48229519Y16739614D03*
X49029519Y16739614D03*
X49829519Y16739614D03*
X52229519Y16739614D03*
X53029519Y16739614D03*
X53829519Y16739614D03*
X54629519Y16739614D03*
X55429519Y16739614D03*
X46629519Y16089614D03*
X47429519Y16089614D03*
X48229519Y16089614D03*
X49029519Y16089614D03*
X49829519Y16089614D03*
X52229519Y16089614D03*
X53029519Y16089614D03*
X53829519Y16089614D03*
X54629519Y16089614D03*
X55429519Y16089614D03*
X46629519Y15439614D03*
X47429519Y15439614D03*
X48229519Y15439614D03*
X49029519Y15439614D03*
X49829519Y15439614D03*
X52229519Y15439614D03*
X53029519Y15439614D03*
X53829519Y15439614D03*
X54629519Y15439614D03*
X55429519Y15439614D03*
X46629519Y14789614D03*
X47429519Y14789614D03*
X48229519Y14789614D03*
X49029519Y14789614D03*
X49829519Y14789614D03*
X52229519Y14789614D03*
X53029519Y14789614D03*
X53829519Y14789614D03*
X54629519Y14789614D03*
X55429519Y14789614D03*
X46629519Y14139614D03*
X47429519Y14139614D03*
X48229519Y14139614D03*
X49029519Y14139614D03*
X49829519Y14139614D03*
X52229519Y14139614D03*
X53029519Y14139614D03*
X53829519Y14139614D03*
X54629519Y14139614D03*
X55429519Y14139614D03*
X46629519Y13489614D03*
X47429519Y13489614D03*
X48229519Y13489614D03*
X49029519Y13489614D03*
X49829519Y13489614D03*
X52229519Y13489614D03*
X53029519Y13489614D03*
X53829519Y13489614D03*
X54629519Y13489614D03*
X55429519Y13489614D03*
X46629519Y12839614D03*
X47429519Y12839614D03*
X48229519Y12839614D03*
X49029519Y12839614D03*
X49829519Y12839614D03*
X52229519Y12839614D03*
X53029519Y12839614D03*
X53829519Y12839614D03*
X54629519Y12839614D03*
X55429519Y12839614D03*
X46629519Y12189614D03*
X47429519Y12189614D03*
X48229519Y12189614D03*
X49029519Y12189614D03*
X49829519Y12189614D03*
X52229519Y12189614D03*
X53029519Y12189614D03*
X53829519Y12189614D03*
X54629519Y12189614D03*
X55429519Y12189614D03*
%TD*%
D50*
%TO.C,C314*%
X2697000Y39846000D03*
X2697000Y40486000D03*
%TD*%
D51*
%TO.C,J2*%
X3879000Y49370000D03*
D52*
X3879000Y47805000D03*
D53*
X3879000Y42640000D03*
D52*
X3879000Y37475000D03*
D51*
X3879000Y35910000D03*
D54*
X5204000Y49370000D03*
X5204000Y35910000D03*
D55*
X10129000Y49370000D03*
X10129000Y35910000D03*
D54*
X15054000Y49370000D03*
X15054000Y35910000D03*
D51*
X16379000Y49370000D03*
D52*
X16379000Y47805000D03*
D53*
X16379000Y42640000D03*
D52*
X16379000Y37475000D03*
D51*
X16379000Y35910000D03*
%TD*%
D27*
%TO.C,C316*%
X6092000Y43127000D03*
X5132000Y43127000D03*
%TD*%
D56*
%TO.C,C75*%
X29268000Y37610000D03*
X30818000Y37610000D03*
%TD*%
D57*
%TO.C,R17*%
X49525019Y45817014D03*
X48330019Y45817014D03*
%TD*%
D58*
%TO.C,R14*%
X62577981Y47609986D03*
X62577981Y46589986D03*
%TD*%
D37*
%TO.C,C99*%
X22000519Y10399414D03*
X22000519Y9759414D03*
%TD*%
D59*
%TO.C,C46*%
X68877981Y12174986D03*
X68877981Y9224986D03*
%TD*%
D19*
%TO.C,R67*%
X49937519Y26620814D03*
X48917519Y26620814D03*
%TD*%
D60*
%TO.C,D8*%
X38327100Y34243600D03*
X36752100Y34243600D03*
%TD*%
D58*
%TO.C,R7*%
X63310000Y26634400D03*
X63310000Y25614400D03*
%TD*%
D61*
%TO.C,L1*%
X60002981Y41019986D03*
X58102981Y41019986D03*
%TD*%
D62*
%TO.C,R48*%
X41197200Y1857500D03*
X41197200Y2672500D03*
%TD*%
D48*
%TO.C,C107*%
X34617000Y3515800D03*
X35257000Y3515800D03*
%TD*%
D63*
%TO.C,U15*%
X28010000Y33727300D03*
X27510000Y33727300D03*
X27010000Y33727300D03*
X26510000Y33727300D03*
X26010000Y33727300D03*
X25510000Y33727300D03*
D64*
X24822500Y33039800D03*
X24822500Y32539800D03*
X24822500Y32039800D03*
X24822500Y31539800D03*
X24822500Y31039800D03*
X24822500Y30539800D03*
D63*
X25510000Y29852300D03*
X26010000Y29852300D03*
X26510000Y29852300D03*
X27010000Y29852300D03*
X27510000Y29852300D03*
X28010000Y29852300D03*
D64*
X28697500Y30539800D03*
X28697500Y31039800D03*
X28697500Y31539800D03*
X28697500Y32039800D03*
X28697500Y32539800D03*
X28697500Y33039800D03*
D65*
X26760000Y31789800D03*
%TD*%
D19*
%TO.C,R89*%
X19235400Y39070700D03*
X18215400Y39070700D03*
%TD*%
D66*
%TO.C,C287*%
X72550000Y47000000D03*
X71000000Y47000000D03*
%TD*%
D48*
%TO.C,C86*%
X34287805Y45580800D03*
X34927805Y45580800D03*
%TD*%
D37*
%TO.C,C149*%
X43351100Y31494000D03*
X43351100Y30854000D03*
%TD*%
D58*
%TO.C,R59*%
X53300000Y38010000D03*
X53300000Y36990000D03*
%TD*%
D27*
%TO.C,C49*%
X56457981Y38369153D03*
X55497981Y38369153D03*
%TD*%
D20*
%TO.C,R10*%
X61627981Y46589986D03*
X61627981Y47609986D03*
%TD*%
D67*
%TO.C,C20*%
X65727981Y7374986D03*
X60327981Y7374986D03*
%TD*%
D62*
%TO.C,R51*%
X42721200Y1857500D03*
X42721200Y2672500D03*
%TD*%
D56*
%TO.C,C85*%
X38846805Y37960800D03*
X40396805Y37960800D03*
%TD*%
D61*
%TO.C,L4*%
X73252981Y41419986D03*
X75152981Y41419986D03*
%TD*%
D27*
%TO.C,C44*%
X56457981Y39337486D03*
X55497981Y39337486D03*
%TD*%
D56*
%TO.C,C73*%
X20529000Y40511500D03*
X22079000Y40511500D03*
%TD*%
D60*
%TO.C,D7*%
X38327100Y35742200D03*
X36752100Y35742200D03*
%TD*%
D34*
%TO.C,R103*%
X5815000Y17455300D03*
X5815000Y16640300D03*
%TD*%
D68*
%TO.C,Q3*%
X41266286Y46197919D03*
X42566286Y46197919D03*
X41916286Y48197919D03*
%TD*%
D26*
%TO.C,C53*%
X70140481Y35454986D03*
X70140481Y34494986D03*
%TD*%
D27*
%TO.C,C315*%
X6092000Y41527000D03*
X5132000Y41527000D03*
%TD*%
D26*
%TO.C,C26*%
X66752981Y47579986D03*
X66752981Y46619986D03*
%TD*%
D62*
%TO.C,R46*%
X38962000Y1857500D03*
X38962000Y2672500D03*
%TD*%
D69*
%TO.C,FB8*%
X1067019Y19552114D03*
X2642019Y19552114D03*
%TD*%
D57*
%TO.C,R25*%
X30513500Y41674000D03*
X29318500Y41674000D03*
%TD*%
D48*
%TO.C,C162*%
X41178000Y28582000D03*
X41818000Y28582000D03*
%TD*%
D36*
%TO.C,C64*%
X3904519Y21286552D03*
X3904519Y22246552D03*
%TD*%
D29*
%TO.C,R79*%
X54369200Y33982000D03*
X55389200Y33982000D03*
%TD*%
D61*
%TO.C,L2*%
X60002981Y38619986D03*
X58102981Y38619986D03*
%TD*%
D56*
%TO.C,C76*%
X24950000Y46500000D03*
X26500000Y46500000D03*
%TD*%
D70*
%TO.C,U13*%
X14034519Y21920014D03*
X14534519Y21920014D03*
X15034519Y21920014D03*
X15534519Y21920014D03*
X16034519Y21920014D03*
X16534519Y21920014D03*
X17034519Y21920014D03*
X17534519Y21920014D03*
X18034519Y21920014D03*
X18534519Y21920014D03*
X19034519Y21920014D03*
X19534519Y21920014D03*
X20034519Y21920014D03*
X20534519Y21920014D03*
D71*
X14034519Y21420014D03*
D72*
X14534519Y21420014D03*
X15034519Y21420014D03*
X15534519Y21420014D03*
X16034519Y21420014D03*
X16534519Y21420014D03*
X17034519Y21420014D03*
X17534519Y21420014D03*
X18034519Y21420014D03*
X18534519Y21420014D03*
X19034519Y21420014D03*
X19534519Y21420014D03*
X20034519Y21420014D03*
D71*
X20534519Y21420014D03*
X14034519Y20920014D03*
D72*
X14534519Y20920014D03*
X15034519Y20920014D03*
X15534519Y20920014D03*
X16034519Y20920014D03*
X16534519Y20920014D03*
X17034519Y20920014D03*
X17534519Y20920014D03*
X18034519Y20920014D03*
X18534519Y20920014D03*
X19034519Y20920014D03*
X19534519Y20920014D03*
X20034519Y20920014D03*
D71*
X20534519Y20920014D03*
X14034519Y20420014D03*
D72*
X14534519Y20420014D03*
X15034519Y20420014D03*
X15534519Y20420014D03*
X19534519Y20420014D03*
X20034519Y20420014D03*
D71*
X20534519Y20420014D03*
X14034519Y19920014D03*
D72*
X14534519Y19920014D03*
X15034519Y19920014D03*
X16034519Y19920014D03*
X16534519Y19920014D03*
X17034519Y19920014D03*
X17534519Y19920014D03*
X18034519Y19920014D03*
X18534519Y19920014D03*
X19534519Y19920014D03*
X20034519Y19920014D03*
D71*
X20534519Y19920014D03*
X14034519Y19420014D03*
D72*
X14534519Y19420014D03*
X15034519Y19420014D03*
X16034519Y19420014D03*
X18534519Y19420014D03*
X19534519Y19420014D03*
X20034519Y19420014D03*
D71*
X20534519Y19420014D03*
X14034519Y18920014D03*
D72*
X14534519Y18920014D03*
X15034519Y18920014D03*
X16034519Y18920014D03*
X18534519Y18920014D03*
X19534519Y18920014D03*
X20034519Y18920014D03*
D71*
X20534519Y18920014D03*
X14034519Y18420014D03*
D72*
X14534519Y18420014D03*
X15034519Y18420014D03*
X16034519Y18420014D03*
X18534519Y18420014D03*
X19534519Y18420014D03*
X20034519Y18420014D03*
D71*
X20534519Y18420014D03*
X14034519Y17920014D03*
D72*
X14534519Y17920014D03*
X15034519Y17920014D03*
X16034519Y17920014D03*
X18534519Y17920014D03*
X19534519Y17920014D03*
X20034519Y17920014D03*
D71*
X20534519Y17920014D03*
X14034519Y17420014D03*
D72*
X14534519Y17420014D03*
X15034519Y17420014D03*
X16034519Y17420014D03*
X16534519Y17420014D03*
X17034519Y17420014D03*
X17534519Y17420014D03*
X18034519Y17420014D03*
X18534519Y17420014D03*
X19534519Y17420014D03*
X20034519Y17420014D03*
D71*
X20534519Y17420014D03*
X14034519Y16920014D03*
D72*
X14534519Y16920014D03*
X15034519Y16920014D03*
X19534519Y16920014D03*
X20034519Y16920014D03*
D71*
X20534519Y16920014D03*
X14034519Y16420014D03*
D72*
X14534519Y16420014D03*
X15034519Y16420014D03*
X15534519Y16420014D03*
X16034519Y16420014D03*
X16534519Y16420014D03*
X17034519Y16420014D03*
X17534519Y16420014D03*
X18034519Y16420014D03*
X18534519Y16420014D03*
X19034519Y16420014D03*
X19534519Y16420014D03*
X20034519Y16420014D03*
D71*
X20534519Y16420014D03*
X14034519Y15920014D03*
D72*
X14534519Y15920014D03*
X15034519Y15920014D03*
X15534519Y15920014D03*
X16034519Y15920014D03*
X16534519Y15920014D03*
X17034519Y15920014D03*
X17534519Y15920014D03*
X18034519Y15920014D03*
X18534519Y15920014D03*
X19034519Y15920014D03*
X19534519Y15920014D03*
X20034519Y15920014D03*
D71*
X20534519Y15920014D03*
D70*
X14034519Y15420014D03*
X14534519Y15420014D03*
X15034519Y15420014D03*
X15534519Y15420014D03*
X16034519Y15420014D03*
X16534519Y15420014D03*
X17034519Y15420014D03*
X17534519Y15420014D03*
X18034519Y15420014D03*
X18534519Y15420014D03*
X19034519Y15420014D03*
X19534519Y15420014D03*
X20034519Y15420014D03*
X20534519Y15420014D03*
%TD*%
D58*
%TO.C,R12*%
X60627981Y47609986D03*
X60627981Y46589986D03*
%TD*%
D35*
%TO.C,R19*%
X22562000Y39127000D03*
X23757000Y39127000D03*
%TD*%
D56*
%TO.C,C77*%
X29268000Y39134000D03*
X30818000Y39134000D03*
%TD*%
D67*
%TO.C,C27*%
X65727981Y14474986D03*
X60327981Y14474986D03*
%TD*%
D48*
%TO.C,C78*%
X25593000Y45357000D03*
X26233000Y45357000D03*
%TD*%
D20*
%TO.C,R75*%
X72504800Y28950800D03*
X72504800Y29970800D03*
%TD*%
D37*
%TO.C,C96*%
X19663719Y10399414D03*
X19663719Y9759414D03*
%TD*%
D20*
%TO.C,R2*%
X59802981Y21264986D03*
X59802981Y22284986D03*
%TD*%
D29*
%TO.C,R78*%
X58607000Y33982000D03*
X59627000Y33982000D03*
%TD*%
D41*
%TO.C,L3*%
X67427981Y34219986D03*
X67427981Y32319986D03*
%TD*%
D73*
%TO.C,C132*%
X32039000Y28455000D03*
X31399000Y28455000D03*
%TD*%
D37*
%TO.C,C106*%
X44194400Y4871000D03*
X44194400Y4231000D03*
%TD*%
D74*
%TO.C,Q7*%
X51829200Y30375200D03*
X51829200Y31675200D03*
X49829200Y31025200D03*
%TD*%
D27*
%TO.C,C50*%
X56457981Y41237486D03*
X55497981Y41237486D03*
%TD*%
D75*
%TO.C,C80*%
X45911000Y35747000D03*
X45911000Y37297000D03*
%TD*%
D34*
%TO.C,R44*%
X43483200Y2672500D03*
X43483200Y1857500D03*
%TD*%
D76*
%TO.C,U6*%
X6710800Y21686000D03*
X7360800Y21686000D03*
X8010800Y21686000D03*
X8660800Y21686000D03*
X8660800Y26086000D03*
X8010800Y26086000D03*
X7360800Y26086000D03*
D77*
X7185800Y23386000D03*
X7685800Y23386000D03*
X8185800Y23386000D03*
D78*
X7685800Y23886000D03*
D77*
X7185800Y24386000D03*
X7685800Y24386000D03*
X8185800Y24386000D03*
D76*
X6710800Y26086000D03*
%TD*%
D79*
%TO.C,H3*%
X0Y47000000D03*
D80*
X0Y47000000D03*
%TD*%
D81*
%TO.C,C102*%
X36310726Y4253274D03*
X36763274Y3800726D03*
%TD*%
D34*
%TO.C,R43*%
X44194400Y2672500D03*
X44194400Y1857500D03*
%TD*%
%TO.C,R104*%
X6526200Y17455300D03*
X6526200Y16640300D03*
%TD*%
D29*
%TO.C,R35*%
X28317400Y27868200D03*
X29337400Y27868200D03*
%TD*%
D75*
%TO.C,C290*%
X76001719Y3882414D03*
X76001719Y5432414D03*
%TD*%
D57*
%TO.C,R18*%
X21509500Y39127000D03*
X20314500Y39127000D03*
%TD*%
D26*
%TO.C,C32*%
X65677981Y30667486D03*
X65677981Y29707486D03*
%TD*%
D58*
%TO.C,R57*%
X60350000Y45260000D03*
X60350000Y44240000D03*
%TD*%
D29*
%TO.C,R81*%
X54369200Y27987600D03*
X55389200Y27987600D03*
%TD*%
D48*
%TO.C,C82*%
X38539805Y40627800D03*
X39179805Y40627800D03*
%TD*%
D62*
%TO.C,R52*%
X42010000Y1857500D03*
X42010000Y2672500D03*
%TD*%
D27*
%TO.C,C16*%
X72900481Y45174986D03*
X71940481Y45174986D03*
%TD*%
D82*
%TO.C,L7*%
X8037400Y19384600D03*
X6437400Y19384600D03*
%TD*%
D83*
%TO.C,SW2*%
X76250000Y32500000D03*
X73950000Y32500000D03*
%TD*%
D29*
%TO.C,R108*%
X6607019Y5814614D03*
X7627019Y5814614D03*
%TD*%
D83*
%TO.C,SW1*%
X76250000Y35000000D03*
X73950000Y35000000D03*
%TD*%
D79*
%TO.C,H1*%
X76000000Y47000000D03*
D80*
X76000000Y47000000D03*
%TD*%
D36*
%TO.C,C48*%
X59627981Y46599986D03*
X59627981Y47559986D03*
%TD*%
D59*
%TO.C,C42*%
X71177981Y12174986D03*
X71177981Y9224986D03*
%TD*%
D19*
%TO.C,R58*%
X74910000Y36800000D03*
X73890000Y36800000D03*
%TD*%
D84*
%TO.C,D10*%
X4154519Y30415014D03*
X4154519Y32515014D03*
%TD*%
D85*
%TO.C,L6*%
X73227981Y24532486D03*
X73227981Y15517486D03*
%TD*%
D37*
%TO.C,C100*%
X43483200Y4871000D03*
X43483200Y4231000D03*
%TD*%
D86*
%TO.C,U9*%
X25679519Y10239614D03*
X25679519Y10889614D03*
X25679519Y11539614D03*
X25679519Y12189614D03*
X25679519Y12839614D03*
X25679519Y13489614D03*
X25679519Y14139614D03*
X25679519Y14789614D03*
X25679519Y15439614D03*
X25679519Y16089614D03*
X25679519Y16739614D03*
X25679519Y17389614D03*
X25679519Y18039614D03*
X25679519Y18689614D03*
X25679519Y19339614D03*
X25679519Y19989614D03*
X25679519Y20639614D03*
X25679519Y21289614D03*
X25679519Y21939614D03*
X25679519Y22589614D03*
X25679519Y23239614D03*
X25679519Y23889614D03*
X25679519Y24539614D03*
X38679519Y9589614D03*
X38679519Y10239614D03*
X38679519Y10889614D03*
X38679519Y11539614D03*
X38679519Y12189614D03*
X38679519Y12839614D03*
X38679519Y13489614D03*
X38679519Y14139614D03*
X38679519Y14789614D03*
X38679519Y15439614D03*
X38679519Y16089614D03*
X38679519Y16739614D03*
X38679519Y17389614D03*
X38679519Y18039614D03*
X38679519Y18689614D03*
X38679519Y19339614D03*
X38679519Y19989614D03*
X38679519Y20639614D03*
X38679519Y21289614D03*
X38679519Y21939614D03*
X38679519Y22589614D03*
X38679519Y23239614D03*
X38679519Y23889614D03*
X38679519Y24539614D03*
X38679519Y25189614D03*
X39329519Y9589614D03*
X39329519Y10239614D03*
X39329519Y10889614D03*
X39329519Y11539614D03*
X39329519Y12189614D03*
X39329519Y12839614D03*
X39329519Y13489614D03*
X39329519Y14139614D03*
X39329519Y14789614D03*
X39329519Y15439614D03*
X39329519Y16089614D03*
X39329519Y16739614D03*
X39329519Y17389614D03*
X39329519Y18039614D03*
X39329519Y18689614D03*
X39329519Y19339614D03*
X39329519Y19989614D03*
X39329519Y20639614D03*
X39329519Y21289614D03*
X39329519Y21939614D03*
X39329519Y22589614D03*
X39329519Y23239614D03*
X39329519Y23889614D03*
X39329519Y24539614D03*
X39329519Y25189614D03*
X39979519Y9589614D03*
X39979519Y10239614D03*
X39979519Y10889614D03*
X39979519Y11539614D03*
X39979519Y12189614D03*
X39979519Y12839614D03*
X39979519Y13489614D03*
X39979519Y14139614D03*
X39979519Y14789614D03*
X39979519Y15439614D03*
X39979519Y16089614D03*
X39979519Y16739614D03*
X39979519Y17389614D03*
X39979519Y18039614D03*
X39979519Y18689614D03*
X39979519Y19339614D03*
X39979519Y19989614D03*
X39979519Y20639614D03*
X39979519Y21289614D03*
X39979519Y21939614D03*
X39979519Y22589614D03*
X39979519Y23239614D03*
X39979519Y23889614D03*
X39979519Y24539614D03*
X39979519Y25189614D03*
X40629519Y9589614D03*
X40629519Y10239614D03*
X40629519Y10889614D03*
X40629519Y11539614D03*
X40629519Y12189614D03*
X40629519Y12839614D03*
X40629519Y13489614D03*
X40629519Y14139614D03*
X40629519Y14789614D03*
X40629519Y15439614D03*
X40629519Y16089614D03*
X40629519Y16739614D03*
X40629519Y17389614D03*
X40629519Y18039614D03*
X40629519Y18689614D03*
X40629519Y19339614D03*
X40629519Y19989614D03*
X40629519Y20639614D03*
X40629519Y21289614D03*
X40629519Y21939614D03*
X40629519Y22589614D03*
X40629519Y23239614D03*
X40629519Y23889614D03*
X40629519Y24539614D03*
X40629519Y25189614D03*
X41279519Y10239614D03*
X41279519Y10889614D03*
X41279519Y11539614D03*
X41279519Y12189614D03*
X41279519Y12839614D03*
X41279519Y13489614D03*
X41279519Y14139614D03*
X41279519Y14789614D03*
X41279519Y15439614D03*
X41279519Y16089614D03*
X41279519Y16739614D03*
X41279519Y17389614D03*
X41279519Y18039614D03*
X41279519Y18689614D03*
X41279519Y19339614D03*
X41279519Y19989614D03*
X41279519Y20639614D03*
X41279519Y21289614D03*
X41279519Y21939614D03*
X41279519Y22589614D03*
X41279519Y23239614D03*
X41279519Y23889614D03*
X41279519Y24539614D03*
X26329519Y9589614D03*
X26329519Y10239614D03*
X26329519Y10889614D03*
X26329519Y11539614D03*
X26329519Y12189614D03*
X26329519Y12839614D03*
X26329519Y13489614D03*
X26329519Y14139614D03*
X26329519Y14789614D03*
X26329519Y15439614D03*
X26329519Y16089614D03*
X26329519Y16739614D03*
X26329519Y17389614D03*
X26329519Y18039614D03*
X26329519Y18689614D03*
X26329519Y19339614D03*
X26329519Y19989614D03*
X26329519Y20639614D03*
X26329519Y21289614D03*
X26329519Y21939614D03*
X26329519Y22589614D03*
X26329519Y23239614D03*
X26329519Y23889614D03*
X26329519Y24539614D03*
X26329519Y25189614D03*
X26979519Y9589614D03*
X26979519Y10239614D03*
X26979519Y10889614D03*
X26979519Y11539614D03*
X26979519Y12189614D03*
X26979519Y12839614D03*
X26979519Y13489614D03*
X26979519Y14139614D03*
X26979519Y14789614D03*
X26979519Y15439614D03*
X26979519Y16089614D03*
X26979519Y16739614D03*
X26979519Y17389614D03*
X26979519Y18039614D03*
X26979519Y18689614D03*
X26979519Y19339614D03*
X26979519Y19989614D03*
X26979519Y20639614D03*
X26979519Y21289614D03*
X26979519Y21939614D03*
X26979519Y22589614D03*
X26979519Y23239614D03*
X26979519Y23889614D03*
X26979519Y24539614D03*
X26979519Y25189614D03*
X27629519Y9589614D03*
X27629519Y10239614D03*
X27629519Y10889614D03*
X27629519Y11539614D03*
X27629519Y12189614D03*
X27629519Y12839614D03*
X27629519Y13489614D03*
X27629519Y14139614D03*
X27629519Y14789614D03*
X27629519Y15439614D03*
X27629519Y16089614D03*
X27629519Y16739614D03*
X27629519Y17389614D03*
X27629519Y18039614D03*
X27629519Y18689614D03*
X27629519Y19339614D03*
X27629519Y19989614D03*
X27629519Y20639614D03*
X27629519Y21289614D03*
X27629519Y21939614D03*
X27629519Y22589614D03*
X27629519Y23239614D03*
X27629519Y23889614D03*
X27629519Y24539614D03*
X27629519Y25189614D03*
X28279519Y9589614D03*
X28279519Y10239614D03*
X28279519Y10889614D03*
X28279519Y11539614D03*
X28279519Y12189614D03*
X28279519Y12839614D03*
X28279519Y13489614D03*
X28279519Y14139614D03*
X28279519Y14789614D03*
X28279519Y15439614D03*
X28279519Y16089614D03*
X28279519Y16739614D03*
X28279519Y17389614D03*
X28279519Y18039614D03*
X28279519Y18689614D03*
X28279519Y19339614D03*
X28279519Y19989614D03*
X28279519Y20639614D03*
X28279519Y21289614D03*
X28279519Y21939614D03*
X28279519Y22589614D03*
X28279519Y23239614D03*
X28279519Y23889614D03*
X28279519Y24539614D03*
X28279519Y25189614D03*
X28929519Y9589614D03*
X28929519Y10239614D03*
X28929519Y10889614D03*
X28929519Y11539614D03*
X28929519Y12189614D03*
X28929519Y12839614D03*
X28929519Y13489614D03*
X28929519Y14139614D03*
X28929519Y14789614D03*
X28929519Y15439614D03*
X28929519Y16089614D03*
X28929519Y16739614D03*
X28929519Y17389614D03*
X28929519Y18039614D03*
X28929519Y18689614D03*
X28929519Y19339614D03*
X28929519Y19989614D03*
X28929519Y20639614D03*
X28929519Y21289614D03*
X28929519Y21939614D03*
X28929519Y22589614D03*
X28929519Y23239614D03*
X28929519Y23889614D03*
X28929519Y24539614D03*
X28929519Y25189614D03*
X29579519Y9589614D03*
X29579519Y10239614D03*
X29579519Y10889614D03*
X29579519Y11539614D03*
X29579519Y12189614D03*
X29579519Y12839614D03*
X29579519Y13489614D03*
X29579519Y14139614D03*
X29579519Y14789614D03*
X29579519Y15439614D03*
X29579519Y16089614D03*
X29579519Y16739614D03*
X29579519Y17389614D03*
X29579519Y18039614D03*
X29579519Y18689614D03*
X29579519Y19339614D03*
X29579519Y19989614D03*
X29579519Y20639614D03*
X29579519Y21289614D03*
X29579519Y21939614D03*
X29579519Y22589614D03*
X29579519Y23239614D03*
X29579519Y23889614D03*
X29579519Y24539614D03*
X29579519Y25189614D03*
X30229519Y9589614D03*
X30229519Y10239614D03*
X30229519Y10889614D03*
X30229519Y11539614D03*
X30229519Y12189614D03*
X30229519Y12839614D03*
X30229519Y13489614D03*
X30229519Y14139614D03*
X30229519Y14789614D03*
X30229519Y15439614D03*
X30229519Y16089614D03*
X30229519Y16739614D03*
X30229519Y17389614D03*
X30229519Y18039614D03*
X30229519Y18689614D03*
X30229519Y19339614D03*
X30229519Y19989614D03*
X30229519Y20639614D03*
X30229519Y21289614D03*
X30229519Y21939614D03*
X30229519Y22589614D03*
X30229519Y23239614D03*
X30229519Y23889614D03*
X30229519Y24539614D03*
X30229519Y25189614D03*
X30879519Y9589614D03*
X30879519Y10239614D03*
X30879519Y10889614D03*
X30879519Y11539614D03*
X30879519Y12189614D03*
X30879519Y12839614D03*
X30879519Y13489614D03*
X30879519Y14139614D03*
X30879519Y14789614D03*
X30879519Y15439614D03*
X30879519Y16089614D03*
X30879519Y16739614D03*
X30879519Y17389614D03*
X30879519Y18039614D03*
X30879519Y18689614D03*
X30879519Y19339614D03*
X30879519Y19989614D03*
X30879519Y20639614D03*
X30879519Y21289614D03*
X30879519Y21939614D03*
X30879519Y22589614D03*
X30879519Y23239614D03*
X30879519Y23889614D03*
X30879519Y24539614D03*
X30879519Y25189614D03*
X31529519Y9589614D03*
X31529519Y10239614D03*
X31529519Y10889614D03*
X31529519Y11539614D03*
X31529519Y12189614D03*
X31529519Y12839614D03*
X31529519Y13489614D03*
X31529519Y14139614D03*
X31529519Y14789614D03*
X31529519Y15439614D03*
X31529519Y16089614D03*
X31529519Y16739614D03*
X31529519Y17389614D03*
X31529519Y18039614D03*
X31529519Y18689614D03*
X31529519Y19339614D03*
X31529519Y19989614D03*
X31529519Y20639614D03*
X31529519Y21289614D03*
X31529519Y21939614D03*
X31529519Y22589614D03*
X31529519Y23239614D03*
X31529519Y23889614D03*
X31529519Y24539614D03*
X31529519Y25189614D03*
X32179519Y9589614D03*
X32179519Y10239614D03*
X32179519Y10889614D03*
X32179519Y11539614D03*
X32179519Y12189614D03*
X32179519Y12839614D03*
X32179519Y13489614D03*
X32179519Y14139614D03*
X32179519Y14789614D03*
X32179519Y15439614D03*
X32179519Y16089614D03*
X32179519Y16739614D03*
X32179519Y17389614D03*
X32179519Y18039614D03*
X32179519Y18689614D03*
X32179519Y19339614D03*
X32179519Y19989614D03*
X32179519Y20639614D03*
X32179519Y21289614D03*
X32179519Y21939614D03*
X32179519Y22589614D03*
X32179519Y23239614D03*
X32179519Y23889614D03*
X32179519Y24539614D03*
X32179519Y25189614D03*
X32829519Y9589614D03*
X32829519Y10239614D03*
X32829519Y10889614D03*
X32829519Y11539614D03*
X32829519Y12189614D03*
X32829519Y12839614D03*
X32829519Y13489614D03*
X32829519Y14139614D03*
X32829519Y14789614D03*
X32829519Y15439614D03*
X32829519Y16089614D03*
X32829519Y16739614D03*
X32829519Y17389614D03*
X32829519Y18039614D03*
X32829519Y18689614D03*
X32829519Y19339614D03*
X32829519Y19989614D03*
X32829519Y20639614D03*
X32829519Y21289614D03*
X32829519Y21939614D03*
X32829519Y22589614D03*
X32829519Y23239614D03*
X32829519Y23889614D03*
X32829519Y24539614D03*
X32829519Y25189614D03*
X33479519Y9589614D03*
X33479519Y10239614D03*
X33479519Y10889614D03*
X33479519Y11539614D03*
X33479519Y12189614D03*
X33479519Y12839614D03*
X33479519Y13489614D03*
X33479519Y14139614D03*
X33479519Y14789614D03*
X33479519Y15439614D03*
X33479519Y16089614D03*
X33479519Y16739614D03*
X33479519Y17389614D03*
X33479519Y18039614D03*
X33479519Y18689614D03*
X33479519Y19339614D03*
X33479519Y19989614D03*
X33479519Y20639614D03*
X33479519Y21289614D03*
X33479519Y21939614D03*
X33479519Y22589614D03*
X33479519Y23239614D03*
X33479519Y23889614D03*
X33479519Y24539614D03*
X33479519Y25189614D03*
X34129519Y9589614D03*
X34129519Y10239614D03*
X34129519Y10889614D03*
X34129519Y11539614D03*
X34129519Y12189614D03*
X34129519Y12839614D03*
X34129519Y13489614D03*
X34129519Y14139614D03*
X34129519Y14789614D03*
X34129519Y15439614D03*
X34129519Y16089614D03*
X34129519Y16739614D03*
X34129519Y17389614D03*
X34129519Y18039614D03*
X34129519Y18689614D03*
X34129519Y19339614D03*
X34129519Y19989614D03*
X34129519Y20639614D03*
X34129519Y21289614D03*
X34129519Y21939614D03*
X34129519Y22589614D03*
X34129519Y23239614D03*
X34129519Y23889614D03*
X34129519Y24539614D03*
X34129519Y25189614D03*
X34779519Y9589614D03*
X34779519Y10239614D03*
X34779519Y10889614D03*
X34779519Y11539614D03*
X34779519Y12189614D03*
X34779519Y12839614D03*
X34779519Y13489614D03*
X34779519Y14139614D03*
X34779519Y14789614D03*
X34779519Y15439614D03*
X34779519Y16089614D03*
X34779519Y16739614D03*
X34779519Y17389614D03*
X34779519Y18039614D03*
X34779519Y18689614D03*
X34779519Y19339614D03*
X34779519Y19989614D03*
X34779519Y20639614D03*
X34779519Y21289614D03*
X34779519Y21939614D03*
X34779519Y22589614D03*
X34779519Y23239614D03*
X34779519Y23889614D03*
X34779519Y24539614D03*
X34779519Y25189614D03*
X35429519Y9589614D03*
X35429519Y10239614D03*
X35429519Y10889614D03*
X35429519Y11539614D03*
X35429519Y12189614D03*
X35429519Y12839614D03*
X35429519Y13489614D03*
X35429519Y14139614D03*
X35429519Y14789614D03*
X35429519Y15439614D03*
X35429519Y16089614D03*
X35429519Y16739614D03*
X35429519Y17389614D03*
X35429519Y18039614D03*
X35429519Y18689614D03*
X35429519Y19339614D03*
X35429519Y19989614D03*
X35429519Y20639614D03*
X35429519Y21289614D03*
X35429519Y21939614D03*
X35429519Y22589614D03*
X35429519Y23239614D03*
X35429519Y23889614D03*
X35429519Y24539614D03*
X35429519Y25189614D03*
X36079519Y9589614D03*
X36079519Y10239614D03*
X36079519Y10889614D03*
X36079519Y11539614D03*
X36079519Y12189614D03*
X36079519Y12839614D03*
X36079519Y13489614D03*
X36079519Y14139614D03*
X36079519Y14789614D03*
X36079519Y15439614D03*
X36079519Y16089614D03*
X36079519Y16739614D03*
X36079519Y17389614D03*
X36079519Y18039614D03*
X36079519Y18689614D03*
X36079519Y19339614D03*
X36079519Y19989614D03*
X36079519Y20639614D03*
X36079519Y21289614D03*
X36079519Y21939614D03*
X36079519Y22589614D03*
X36079519Y23239614D03*
X36079519Y23889614D03*
X36079519Y24539614D03*
X36079519Y25189614D03*
X36729519Y9589614D03*
X36729519Y10239614D03*
X36729519Y10889614D03*
X36729519Y11539614D03*
X36729519Y12189614D03*
X36729519Y12839614D03*
X36729519Y13489614D03*
X36729519Y14139614D03*
X36729519Y14789614D03*
X36729519Y15439614D03*
X36729519Y16089614D03*
X36729519Y16739614D03*
X36729519Y17389614D03*
X36729519Y18039614D03*
X36729519Y18689614D03*
X36729519Y19339614D03*
X36729519Y19989614D03*
X36729519Y20639614D03*
X36729519Y21289614D03*
X36729519Y21939614D03*
X36729519Y22589614D03*
X36729519Y23239614D03*
X36729519Y23889614D03*
X36729519Y24539614D03*
X36729519Y25189614D03*
X37379519Y9589614D03*
X37379519Y10239614D03*
X37379519Y10889614D03*
X37379519Y11539614D03*
X37379519Y12189614D03*
X37379519Y12839614D03*
X37379519Y13489614D03*
X37379519Y14139614D03*
X37379519Y14789614D03*
X37379519Y15439614D03*
X37379519Y16089614D03*
X37379519Y16739614D03*
X37379519Y17389614D03*
X37379519Y18039614D03*
X37379519Y18689614D03*
X37379519Y19339614D03*
X37379519Y19989614D03*
X37379519Y20639614D03*
X37379519Y21289614D03*
X37379519Y21939614D03*
X37379519Y22589614D03*
X37379519Y23239614D03*
X37379519Y23889614D03*
X37379519Y24539614D03*
X37379519Y25189614D03*
X38029519Y9589614D03*
X38029519Y10239614D03*
X38029519Y10889614D03*
X38029519Y11539614D03*
X38029519Y12189614D03*
X38029519Y12839614D03*
X38029519Y13489614D03*
X38029519Y14139614D03*
X38029519Y14789614D03*
X38029519Y15439614D03*
X38029519Y16089614D03*
X38029519Y16739614D03*
X38029519Y17389614D03*
X38029519Y18039614D03*
X38029519Y18689614D03*
X38029519Y19339614D03*
X38029519Y19989614D03*
X38029519Y20639614D03*
X38029519Y21289614D03*
X38029519Y21939614D03*
X38029519Y22589614D03*
X38029519Y23239614D03*
X38029519Y23889614D03*
X38029519Y24539614D03*
X38029519Y25189614D03*
%TD*%
D79*
%TO.C,H2*%
X0Y0D03*
D80*
X0Y0D03*
%TD*%
D18*
%TO.C,D2*%
X38868286Y46029419D03*
X38868286Y47604419D03*
%TD*%
D30*
%TO.C,U7*%
X35576286Y42634786D03*
X36076286Y42634786D03*
X36576286Y42634786D03*
D31*
X37426286Y43084786D03*
X37426286Y43584786D03*
X37426286Y44084786D03*
D30*
X36576286Y44534786D03*
X36076286Y44534786D03*
X35576286Y44534786D03*
D31*
X34726286Y43084786D03*
X34726286Y43584786D03*
D32*
X34976286Y43584786D03*
D31*
X34726286Y44084786D03*
D33*
X36076286Y43584786D03*
%TD*%
D42*
%TO.C,C61*%
X71752981Y39219986D03*
X72712981Y39219986D03*
%TD*%
D25*
%TO.C,U3*%
X2517019Y21286552D03*
X2517019Y22236552D03*
X2517019Y23186552D03*
X242019Y23186552D03*
X242019Y21286552D03*
%TD*%
D37*
%TO.C,C110*%
X41197200Y4871000D03*
X41197200Y4231000D03*
%TD*%
D73*
%TO.C,C148*%
X38516000Y28582000D03*
X37876000Y28582000D03*
%TD*%
D48*
%TO.C,C159*%
X34701000Y28455000D03*
X35341000Y28455000D03*
%TD*%
D57*
%TO.C,R27*%
X39923786Y44234786D03*
X38728786Y44234786D03*
%TD*%
D73*
%TO.C,C94*%
X23057000Y26527000D03*
X22417000Y26527000D03*
%TD*%
D27*
%TO.C,C45*%
X56457981Y40287486D03*
X55497981Y40287486D03*
%TD*%
D37*
%TO.C,C211*%
X53200000Y36120000D03*
X53200000Y35480000D03*
%TD*%
D48*
%TO.C,C72*%
X20984000Y41654500D03*
X21624000Y41654500D03*
%TD*%
D87*
%TO.C,U1*%
X62390481Y44324986D03*
X62390481Y43824986D03*
X62390481Y43324986D03*
X62390481Y42824986D03*
X62390481Y42324986D03*
X62390481Y41824986D03*
X62390481Y41324986D03*
X62390481Y40824986D03*
X62390481Y40324986D03*
X62390481Y39824986D03*
X62390481Y39324986D03*
X62390481Y38824986D03*
X62390481Y38324986D03*
X62390481Y37824986D03*
D88*
X63077981Y37137486D03*
X63577981Y37137486D03*
X64077981Y37137486D03*
X64577981Y37137486D03*
X65077981Y37137486D03*
X65577981Y37137486D03*
X66077981Y37137486D03*
X66577981Y37137486D03*
X67077981Y37137486D03*
X67577981Y37137486D03*
X68077981Y37137486D03*
X68577981Y37137486D03*
X69077981Y37137486D03*
X69577981Y37137486D03*
D87*
X70265481Y37824986D03*
X70265481Y38324986D03*
X70265481Y38824986D03*
X70265481Y39324986D03*
X70265481Y39824986D03*
X70265481Y40324986D03*
X70265481Y40824986D03*
X70265481Y41324986D03*
X70265481Y41824986D03*
X70265481Y42324986D03*
X70265481Y42824986D03*
X70265481Y43324986D03*
X70265481Y43824986D03*
X70265481Y44324986D03*
D88*
X69577981Y45012486D03*
X69077981Y45012486D03*
X68577981Y45012486D03*
X68077981Y45012486D03*
X67577981Y45012486D03*
X67077981Y45012486D03*
X66577981Y45012486D03*
X66077981Y45012486D03*
X65577981Y45012486D03*
X65077981Y45012486D03*
X64577981Y45012486D03*
X64077981Y45012486D03*
X63577981Y45012486D03*
X63077981Y45012486D03*
D89*
X66327981Y41074986D03*
%TD*%
D56*
%TO.C,C288*%
X4225000Y0D03*
X5775000Y0D03*
%TD*%
D42*
%TO.C,C57*%
X46397519Y45792000D03*
X47357519Y45792000D03*
%TD*%
D28*
%TO.C,R20*%
X9345600Y19880500D03*
X9345600Y18685500D03*
%TD*%
D20*
%TO.C,R93*%
X4634519Y25195014D03*
X4634519Y26215014D03*
%TD*%
D58*
%TO.C,R13*%
X63527981Y47609986D03*
X63527981Y46589986D03*
%TD*%
D27*
%TO.C,C52*%
X56457981Y43137486D03*
X55497981Y43137486D03*
%TD*%
D36*
%TO.C,C58*%
X69752981Y46619986D03*
X69752981Y47579986D03*
%TD*%
D20*
%TO.C,R92*%
X3662000Y25195014D03*
X3662000Y26215014D03*
%TD*%
D26*
%TO.C,C23*%
X66727981Y30667486D03*
X66727981Y29707486D03*
%TD*%
D90*
%TO.C,SH2*%
X37313786Y37734786D03*
X35488786Y37734786D03*
%TD*%
D37*
%TO.C,C103*%
X42721200Y4871000D03*
X42721200Y4231000D03*
%TD*%
D26*
%TO.C,C33*%
X74304519Y39314614D03*
X74304519Y38354614D03*
%TD*%
D57*
%TO.C,R15*%
X51578500Y48143000D03*
X50383500Y48143000D03*
%TD*%
D26*
%TO.C,C29*%
X64727981Y30667486D03*
X64727981Y29707486D03*
%TD*%
D59*
%TO.C,C40*%
X73477981Y12174986D03*
X73477981Y9224986D03*
%TD*%
D20*
%TO.C,R106*%
X3354519Y4842114D03*
X3354519Y5862114D03*
%TD*%
D75*
%TO.C,C81*%
X43244000Y35747000D03*
X43244000Y37297000D03*
%TD*%
D91*
%TO.C,Q2*%
X53140000Y45435000D03*
X52480000Y45435000D03*
X51820000Y45435000D03*
X51160000Y45435000D03*
D92*
X52140000Y43442500D03*
D93*
X53140000Y42450000D03*
X52478750Y42450000D03*
X51817500Y42450000D03*
X51156250Y42450000D03*
%TD*%
D25*
%TO.C,Q4*%
X48481500Y299000D03*
X48481500Y2199000D03*
X46206500Y1249000D03*
%TD*%
D20*
%TO.C,R88*%
X5584519Y30675014D03*
X5584519Y31695014D03*
%TD*%
D62*
%TO.C,R50*%
X36015600Y1857500D03*
X36015600Y2672500D03*
%TD*%
D94*
%TO.C,Y5*%
X10167019Y3314614D03*
X6067019Y3314614D03*
%TD*%
D57*
%TO.C,R28*%
X43587500Y44904000D03*
X42392500Y44904000D03*
%TD*%
D27*
%TO.C,C55*%
X56457981Y42187486D03*
X55497981Y42187486D03*
%TD*%
D90*
%TO.C,SH1*%
X27235000Y37737000D03*
X25410000Y37737000D03*
%TD*%
D20*
%TO.C,R91*%
X5604519Y27385014D03*
X5604519Y28405014D03*
%TD*%
D42*
%TO.C,C319*%
X10437019Y5814614D03*
X11397019Y5814614D03*
%TD*%
D95*
%TO.C,U17*%
X9692019Y8314614D03*
X9692019Y8714614D03*
X9692019Y9114614D03*
X9692019Y9514614D03*
X9692019Y9914614D03*
X9692019Y10314614D03*
X9692019Y10714614D03*
X9692019Y11114614D03*
X9692019Y11514614D03*
X9692019Y11914614D03*
X9692019Y12314614D03*
X9692019Y12714614D03*
X9692019Y13114614D03*
X9692019Y13514614D03*
X9692019Y13914614D03*
X9692019Y14314614D03*
X9692019Y14714614D03*
D96*
X8954519Y15452114D03*
X8554519Y15452114D03*
X8154519Y15452114D03*
X7754519Y15452114D03*
X7354519Y15452114D03*
X6954519Y15452114D03*
X6554519Y15452114D03*
X6154519Y15452114D03*
X5754519Y15452114D03*
X5354519Y15452114D03*
X4954519Y15452114D03*
X4554519Y15452114D03*
X4154519Y15452114D03*
X3754519Y15452114D03*
X3354519Y15452114D03*
X2954519Y15452114D03*
X2554519Y15452114D03*
D95*
X1817019Y14714614D03*
X1817019Y14314614D03*
X1817019Y13914614D03*
X1817019Y13514614D03*
X1817019Y13114614D03*
X1817019Y12714614D03*
X1817019Y12314614D03*
X1817019Y11914614D03*
X1817019Y11514614D03*
X1817019Y11114614D03*
X1817019Y10714614D03*
X1817019Y10314614D03*
X1817019Y9914614D03*
X1817019Y9514614D03*
X1817019Y9114614D03*
X1817019Y8714614D03*
X1817019Y8314614D03*
D96*
X2554519Y7577114D03*
X2954519Y7577114D03*
X3354519Y7577114D03*
X3754519Y7577114D03*
X4154519Y7577114D03*
X4554519Y7577114D03*
X4954519Y7577114D03*
X5354519Y7577114D03*
X5754519Y7577114D03*
X6154519Y7577114D03*
X6554519Y7577114D03*
X6954519Y7577114D03*
X7354519Y7577114D03*
X7754519Y7577114D03*
X8154519Y7577114D03*
X8554519Y7577114D03*
X8954519Y7577114D03*
D97*
X5754519Y11514614D03*
%TD*%
D35*
%TO.C,R30*%
X38728786Y43259786D03*
X39923786Y43259786D03*
%TD*%
D36*
%TO.C,C69*%
X-1145481Y21286552D03*
X-1145481Y22246552D03*
%TD*%
D98*
%TO.C,D11*%
X19462000Y37877000D03*
X19462000Y36302000D03*
%TD*%
D26*
%TO.C,C24*%
X65777981Y47579986D03*
X65777981Y46619986D03*
%TD*%
D58*
%TO.C,R66*%
X44337519Y13600814D03*
X44337519Y12580814D03*
%TD*%
D99*
%TO.C,SW3*%
X54375000Y31635000D03*
X54375000Y30365000D03*
X59625000Y30365000D03*
X59625000Y31635000D03*
%TD*%
D34*
%TO.C,R102*%
X4773600Y17429900D03*
X4773600Y16614900D03*
%TD*%
D27*
%TO.C,C311*%
X6092000Y46127000D03*
X5132000Y46127000D03*
%TD*%
D29*
%TO.C,R60*%
X50290000Y34100000D03*
X51310000Y34100000D03*
%TD*%
D25*
%TO.C,Q8*%
X32581100Y34081000D03*
X32581100Y35981000D03*
X30306100Y35031000D03*
%TD*%
D29*
%TO.C,R80*%
X58607000Y28013000D03*
X59627000Y28013000D03*
%TD*%
D35*
%TO.C,R22*%
X21564500Y47727000D03*
X22759500Y47727000D03*
%TD*%
%TO.C,R26*%
X29318500Y42690000D03*
X30513500Y42690000D03*
%TD*%
D37*
%TO.C,C98*%
X21289319Y10399414D03*
X21289319Y9759414D03*
%TD*%
D74*
%TO.C,Q6*%
X47739900Y7108800D03*
X47739900Y8408800D03*
X45739900Y7758800D03*
%TD*%
D100*
%TO.C,L8*%
X25247500Y40150000D03*
X27397500Y40150000D03*
%TD*%
D26*
%TO.C,C31*%
X69577981Y30667486D03*
X69577981Y29707486D03*
%TD*%
D62*
%TO.C,R49*%
X36726800Y1857500D03*
X36726800Y2672500D03*
%TD*%
D101*
%TO.C,U8*%
X44309000Y43745000D03*
D102*
X42609000Y43745000D03*
X42609000Y41745000D03*
X44509000Y41745000D03*
%TD*%
D27*
%TO.C,C56*%
X51357519Y46982014D03*
X50397519Y46982014D03*
%TD*%
D50*
%TO.C,C79*%
X45784000Y42924000D03*
X45784000Y43564000D03*
%TD*%
D69*
%TO.C,D6*%
X49340000Y7210400D03*
X50915000Y7210400D03*
%TD*%
D27*
%TO.C,C309*%
X9497019Y5814614D03*
X8537019Y5814614D03*
%TD*%
D58*
%TO.C,R87*%
X7862000Y34147000D03*
X7862000Y33127000D03*
%TD*%
%TO.C,R95*%
X11054519Y7852114D03*
X11054519Y6832114D03*
%TD*%
D84*
%TO.C,D9*%
X4144519Y27205014D03*
X4144519Y29305014D03*
%TD*%
D28*
%TO.C,R24*%
X40138286Y47033419D03*
X40138286Y45838419D03*
%TD*%
D29*
%TO.C,R85*%
X9877000Y27627000D03*
X10897000Y27627000D03*
%TD*%
D37*
%TO.C,C105*%
X39673200Y4871000D03*
X39673200Y4231000D03*
%TD*%
D34*
%TO.C,R100*%
X3351200Y17429900D03*
X3351200Y16614900D03*
%TD*%
D26*
%TO.C,C37*%
X62827981Y30667486D03*
X62827981Y29707486D03*
%TD*%
D68*
%TO.C,Q5*%
X75258400Y28410000D03*
X76558400Y28410000D03*
X75908400Y30410000D03*
%TD*%
D103*
%TO.C,Y1*%
X35243000Y32322000D03*
X31243000Y32322000D03*
X31243000Y29922000D03*
X35243000Y29922000D03*
%TD*%
D63*
%TO.C,U16*%
X22559000Y33742700D03*
X22059000Y33742700D03*
X21559000Y33742700D03*
X21059000Y33742700D03*
X20559000Y33742700D03*
X20059000Y33742700D03*
D64*
X19371500Y33055200D03*
X19371500Y32555200D03*
X19371500Y32055200D03*
X19371500Y31555200D03*
X19371500Y31055200D03*
X19371500Y30555200D03*
D63*
X20059000Y29867700D03*
X20559000Y29867700D03*
X21059000Y29867700D03*
X21559000Y29867700D03*
X22059000Y29867700D03*
X22559000Y29867700D03*
D64*
X23246500Y30555200D03*
X23246500Y31055200D03*
X23246500Y31555200D03*
X23246500Y32055200D03*
X23246500Y32555200D03*
X23246500Y33055200D03*
D65*
X21309000Y31805200D03*
%TD*%
D100*
%TO.C,L9*%
X35001286Y40272200D03*
X37151286Y40272200D03*
%TD*%
D103*
%TO.C,Y2*%
X41793000Y32322000D03*
X37793000Y32322000D03*
X37793000Y29922000D03*
X41793000Y29922000D03*
%TD*%
D62*
%TO.C,R47*%
X40486000Y1857500D03*
X40486000Y2672500D03*
%TD*%
D18*
%TO.C,D3*%
X44895000Y38782500D03*
X44895000Y40357500D03*
%TD*%
D48*
%TO.C,C101*%
X34617000Y4227000D03*
X35257000Y4227000D03*
%TD*%
D37*
%TO.C,C109*%
X42010000Y4871000D03*
X42010000Y4231000D03*
%TD*%
D29*
%TO.C,R68*%
X51647519Y26680814D03*
X52667519Y26680814D03*
%TD*%
D26*
%TO.C,C18*%
X71777981Y38319986D03*
X71777981Y37359986D03*
%TD*%
D57*
%TO.C,R29*%
X39923786Y42284786D03*
X38728786Y42284786D03*
%TD*%
D98*
%TO.C,D12*%
X17988800Y37862400D03*
X17988800Y36287400D03*
%TD*%
D104*
%TO.C,J4*%
X1273000Y39846000D03*
D105*
X-252000Y38371000D03*
X-252000Y41321000D03*
%TD*%
D19*
%TO.C,R53*%
X33880000Y28328000D03*
X32860000Y28328000D03*
%TD*%
D50*
%TO.C,C172*%
X5464519Y29230014D03*
X5464519Y29870014D03*
%TD*%
D57*
%TO.C,R21*%
X30513500Y43706000D03*
X29318500Y43706000D03*
%TD*%
D37*
%TO.C,C111*%
X38962000Y4871000D03*
X38962000Y4231000D03*
%TD*%
D79*
%TO.C,H4*%
X76000000Y0D03*
D80*
X76000000Y0D03*
%TD*%
D27*
%TO.C,C321*%
X2314519Y18252114D03*
X1354519Y18252114D03*
%TD*%
D57*
%TO.C,R16*%
X49375019Y46982014D03*
X48180019Y46982014D03*
%TD*%
D36*
%TO.C,C313*%
X15212000Y43847000D03*
X15212000Y44807000D03*
%TD*%
D27*
%TO.C,C14*%
X72900481Y44224986D03*
X71940481Y44224986D03*
%TD*%
D56*
%TO.C,C83*%
X38846805Y39484800D03*
X40396805Y39484800D03*
%TD*%
D36*
%TO.C,C19*%
X72752981Y37364986D03*
X72752981Y38324986D03*
%TD*%
D58*
%TO.C,R76*%
X52159500Y8230400D03*
X52159500Y7210400D03*
%TD*%
D56*
%TO.C,C84*%
X33639805Y46723800D03*
X35189805Y46723800D03*
%TD*%
D27*
%TO.C,C51*%
X56457981Y37400820D03*
X55497981Y37400820D03*
%TD*%
D29*
%TO.C,R11*%
X59490000Y42967486D03*
X60510000Y42967486D03*
%TD*%
D19*
%TO.C,R6*%
X62397600Y25616400D03*
X61377600Y25616400D03*
%TD*%
D37*
%TO.C,C312*%
X5684000Y39023000D03*
X5684000Y38383000D03*
%TD*%
D106*
%TO.C,C68*%
X18510000Y45350500D03*
X18510000Y43800500D03*
%TD*%
D68*
%TO.C,Q1*%
X48377519Y44617014D03*
X47077519Y44617014D03*
X47727519Y42617014D03*
%TD*%
D26*
%TO.C,C25*%
X64852981Y47579986D03*
X64852981Y46619986D03*
%TD*%
D29*
%TO.C,R83*%
X50811200Y32915200D03*
X51831200Y32915200D03*
%TD*%
D19*
%TO.C,R8*%
X65293200Y25565600D03*
X64273200Y25565600D03*
%TD*%
%TO.C,R94*%
X21717400Y38231400D03*
X20697400Y38231400D03*
%TD*%
D107*
%TO.C,U4*%
X20762000Y43039500D03*
X21712000Y43039500D03*
X22662000Y43039500D03*
X22662000Y45314500D03*
X20762000Y45314500D03*
%TD*%
D73*
%TO.C,L10*%
X5689000Y39846000D03*
X5049000Y39846000D03*
%TD*%
D67*
%TO.C,C28*%
X65727981Y274986D03*
X60327981Y274986D03*
%TD*%
D20*
%TO.C,R65*%
X44397519Y21275614D03*
X44397519Y22295614D03*
%TD*%
D26*
%TO.C,C30*%
X75259519Y39314614D03*
X75259519Y38354614D03*
%TD*%
D28*
%TO.C,R32*%
X41974000Y36856500D03*
X41974000Y35661500D03*
%TD*%
D108*
%TO.C,Q9*%
X21111300Y37113800D03*
X21111300Y35213800D03*
X23386300Y36163800D03*
%TD*%
D58*
%TO.C,R82*%
X39546200Y35515600D03*
X39546200Y34495600D03*
%TD*%
D59*
%TO.C,C35*%
X75777981Y12174986D03*
X75777981Y9224986D03*
%TD*%
D81*
%TO.C,C108*%
X36810726Y4753274D03*
X37263274Y4300726D03*
%TD*%
D34*
%TO.C,R105*%
X7237400Y17455300D03*
X7237400Y16640300D03*
%TD*%
D37*
%TO.C,C104*%
X40486000Y4871000D03*
X40486000Y4231000D03*
%TD*%
D109*
%TO.C,U11*%
X50150000Y35562500D03*
X52050000Y35562500D03*
X51100000Y37437500D03*
%TD*%
D34*
%TO.C,R42*%
X37438000Y2672500D03*
X37438000Y1857500D03*
%TD*%
D26*
%TO.C,C22*%
X77154519Y39314614D03*
X77154519Y38354614D03*
%TD*%
%TO.C,C21*%
X63777981Y30667486D03*
X63777981Y29707486D03*
%TD*%
D62*
%TO.C,R45*%
X39673200Y1857500D03*
X39673200Y2672500D03*
%TD*%
D19*
%TO.C,R54*%
X40357000Y28455000D03*
X39337000Y28455000D03*
%TD*%
D73*
%TO.C,C95*%
X23062000Y27227000D03*
X22422000Y27227000D03*
%TD*%
D20*
%TO.C,R4*%
X59802981Y23189986D03*
X59802981Y24209986D03*
%TD*%
D19*
%TO.C,R5*%
X62397600Y26581600D03*
X61377600Y26581600D03*
%TD*%
D110*
%TO.C,J1*%
X70200000Y2000000D03*
D111*
X12500000Y2000000D03*
%TD*%
%LPD*%
M02*
