%TF.GenerationSoftware,KiCad,Pcbnew,7.99.0-3958-g1df84f4d92*%
%TF.CreationDate,2023-12-24T00:45:37+01:00*%
%TF.ProjectId,SBC,5342432e-6b69-4636-9164-5f7063625858,rev?*%
%TF.SameCoordinates,Original*%
%TF.FileFunction,Legend,Bot*%
%TF.FilePolarity,Positive*%
%FSLAX46Y46*%
G04 Gerber Fmt 4.6, Leading zero omitted, Abs format (unit mm)*
G04 Created by KiCad (PCBNEW 7.99.0-3958-g1df84f4d92) date 2023-12-24 00:45:37*
%MOMM*%
%LPD*%
G01*
G04 APERTURE LIST*
G04 Aperture macros list*
%AMRoundRect*
0 Rectangle with rounded corners*
0 $1 Rounding radius*
0 $2 $3 $4 $5 $6 $7 $8 $9 X,Y pos of 4 corners*
0 Add a 4 corners polygon primitive as box body*
4,1,4,$2,$3,$4,$5,$6,$7,$8,$9,$2,$3,0*
0 Add four circle primitives for the rounded corners*
1,1,$1+$1,$2,$3*
1,1,$1+$1,$4,$5*
1,1,$1+$1,$6,$7*
1,1,$1+$1,$8,$9*
0 Add four rect primitives between the rounded corners*
20,1,$1+$1,$2,$3,$4,$5,0*
20,1,$1+$1,$4,$5,$6,$7,0*
20,1,$1+$1,$6,$7,$8,$9,0*
20,1,$1+$1,$8,$9,$2,$3,0*%
G04 Aperture macros list end*
%ADD10C,0.120000*%
%ADD11C,0.127000*%
%ADD12C,0.200000*%
%ADD13C,1.000000*%
%ADD14RoundRect,0.250000X-0.350000X0.350000X-0.350000X-0.350000X0.350000X-0.350000X0.350000X0.350000X0*%
%ADD15C,1.200000*%
%ADD16C,0.300000*%
%ADD17C,3.100000*%
%ADD18C,4.700000*%
%ADD19RoundRect,0.140000X-0.170000X0.140000X-0.170000X-0.140000X0.170000X-0.140000X0.170000X0.140000X0*%
%ADD20RoundRect,0.100000X0.130000X0.100000X-0.130000X0.100000X-0.130000X-0.100000X0.130000X-0.100000X0*%
%ADD21RoundRect,0.100000X-0.130000X-0.100000X0.130000X-0.100000X0.130000X0.100000X-0.130000X0.100000X0*%
%ADD22RoundRect,0.135000X-0.185000X0.135000X-0.185000X-0.135000X0.185000X-0.135000X0.185000X0.135000X0*%
%ADD23RoundRect,0.140000X0.140000X0.170000X-0.140000X0.170000X-0.140000X-0.170000X0.140000X-0.170000X0*%
%ADD24RoundRect,0.100000X-0.100000X0.130000X-0.100000X-0.130000X0.100000X-0.130000X0.100000X0.130000X0*%
%ADD25RoundRect,0.135000X-0.135000X-0.185000X0.135000X-0.185000X0.135000X0.185000X-0.135000X0.185000X0*%
%ADD26RoundRect,0.100000X0.100000X-0.130000X0.100000X0.130000X-0.100000X0.130000X-0.100000X-0.130000X0*%
%ADD27RoundRect,0.140000X-0.140000X-0.170000X0.140000X-0.170000X0.140000X0.170000X-0.140000X0.170000X0*%
%ADD28C,1.600000*%
%ADD29C,0.900000*%
%ADD30R,1.400000X3.300000*%
%ADD31R,0.250000X0.850000*%
%ADD32R,0.450000X1.200000*%
%ADD33R,0.300000X1.200000*%
%ADD34RoundRect,0.100000X0.021213X0.162635X-0.162635X-0.021213X-0.021213X-0.162635X0.162635X0.021213X0*%
%ADD35RoundRect,0.135000X0.185000X-0.135000X0.185000X0.135000X-0.185000X0.135000X-0.185000X-0.135000X0*%
%ADD36RoundRect,0.140000X0.170000X-0.140000X0.170000X0.140000X-0.170000X0.140000X-0.170000X-0.140000X0*%
%ADD37RoundRect,0.225000X-0.250000X0.225000X-0.250000X-0.225000X0.250000X-0.225000X0.250000X0.225000X0*%
%ADD38RoundRect,0.135000X0.135000X0.185000X-0.135000X0.185000X-0.135000X-0.185000X0.135000X-0.185000X0*%
%ADD39RoundRect,0.100000X-0.100000X0.217500X-0.100000X-0.217500X0.100000X-0.217500X0.100000X0.217500X0*%
%ADD40R,1.200000X1.800000*%
%ADD41RoundRect,0.160000X-0.197500X-0.160000X0.197500X-0.160000X0.197500X0.160000X-0.197500X0.160000X0*%
%ADD42RoundRect,0.150000X0.825000X0.150000X-0.825000X0.150000X-0.825000X-0.150000X0.825000X-0.150000X0*%
%ADD43RoundRect,0.250000X0.650000X-0.325000X0.650000X0.325000X-0.650000X0.325000X-0.650000X-0.325000X0*%
%ADD44RoundRect,0.147500X0.147500X0.172500X-0.147500X0.172500X-0.147500X-0.172500X0.147500X-0.172500X0*%
%ADD45RoundRect,0.100000X-0.021213X-0.162635X0.162635X0.021213X0.021213X0.162635X-0.162635X-0.021213X0*%
%ADD46RoundRect,0.140000X0.021213X-0.219203X0.219203X-0.021213X-0.021213X0.219203X-0.219203X0.021213X0*%
%ADD47RoundRect,0.250000X-1.000000X-0.650000X1.000000X-0.650000X1.000000X0.650000X-1.000000X0.650000X0*%
%ADD48RoundRect,0.250000X-0.650000X0.325000X-0.650000X-0.325000X0.650000X-0.325000X0.650000X0.325000X0*%
%ADD49RoundRect,0.135000X0.226274X0.035355X0.035355X0.226274X-0.226274X-0.035355X-0.035355X-0.226274X0*%
%ADD50RoundRect,0.225000X0.250000X-0.225000X0.250000X0.225000X-0.250000X0.225000X-0.250000X-0.225000X0*%
%ADD51RoundRect,0.100000X-0.162635X0.021213X0.021213X-0.162635X0.162635X-0.021213X-0.021213X0.162635X0*%
%ADD52RoundRect,0.135000X0.035355X-0.226274X0.226274X-0.035355X-0.035355X0.226274X-0.226274X0.035355X0*%
%ADD53RoundRect,0.100000X0.162635X-0.021213X-0.021213X0.162635X-0.162635X0.021213X0.021213X-0.162635X0*%
%ADD54RoundRect,0.218750X-0.218750X-0.256250X0.218750X-0.256250X0.218750X0.256250X-0.218750X0.256250X0*%
%ADD55RoundRect,0.147500X0.172500X-0.147500X0.172500X0.147500X-0.172500X0.147500X-0.172500X-0.147500X0*%
G04 APERTURE END LIST*
D10*
%TO.C,C165*%
X31740000Y14087978D02*
X31740000Y14303650D01*
X32460000Y14087978D02*
X32460000Y14303650D01*
%TO.C,R36*%
X24374519Y16800973D02*
X24374519Y17108255D01*
X25134519Y16800973D02*
X25134519Y17108255D01*
%TO.C,C5*%
X63720145Y40347486D02*
X63935817Y40347486D01*
X63720145Y39627486D02*
X63935817Y39627486D01*
%TO.C,R62*%
X45708160Y7194614D02*
X45400878Y7194614D01*
X45708160Y6434614D02*
X45400878Y6434614D01*
%TO.C,R73*%
X17398400Y15522559D02*
X17398400Y15829841D01*
X18158400Y15522559D02*
X18158400Y15829841D01*
%TO.C,C283*%
X16467355Y16080014D02*
X16251683Y16080014D01*
X16467355Y15360014D02*
X16251683Y15360014D01*
%TO.C,C10*%
X67717981Y38329650D02*
X67717981Y38545322D01*
X68437981Y38329650D02*
X68437981Y38545322D01*
D11*
%TO.C,J1*%
X10450000Y5100000D02*
X10450000Y4000000D01*
X10450000Y0D02*
X10450000Y-1100000D01*
X10450000Y-1100000D02*
X13350000Y-1100000D01*
X13350000Y5100000D02*
X10450000Y5100000D01*
X72250000Y5100000D02*
X69250000Y5100000D01*
X72250000Y5100000D02*
X72250000Y4000000D01*
X72250000Y100000D02*
X72250000Y-1100000D01*
X72250000Y-1100000D02*
X69250000Y-1100000D01*
D12*
X14125000Y5600000D02*
G75*
G02*
X13925000Y5600000I-100000J0D01*
G01*
X13925000Y5600000D02*
G75*
G02*
X14125000Y5600000I100000J0D01*
G01*
D10*
%TO.C,R37*%
X24974519Y25035973D02*
X24974519Y25343255D01*
X25734519Y25035973D02*
X25734519Y25343255D01*
%TO.C,C330*%
X8746683Y12724614D02*
X8962355Y12724614D01*
X8746683Y12004614D02*
X8962355Y12004614D01*
%TO.C,R96*%
X6602500Y8493241D02*
X6602500Y8185959D01*
X7362500Y8493241D02*
X7362500Y8185959D01*
%TO.C,R71*%
X72386622Y39599986D02*
X72079340Y39599986D01*
X72386622Y38839986D02*
X72079340Y38839986D01*
%TO.C,C212*%
X23907836Y24210000D02*
X23692164Y24210000D01*
X23907836Y23490000D02*
X23692164Y23490000D01*
%TO.C,C12*%
X67867981Y43782822D02*
X67867981Y43567150D01*
X68587981Y43782822D02*
X68587981Y43567150D01*
%TO.C,C333*%
X2537355Y13449614D02*
X2321683Y13449614D01*
X2537355Y12729614D02*
X2321683Y12729614D01*
%TO.C,C255*%
X46562032Y16477553D02*
X46562032Y16758713D01*
X47582032Y16477553D02*
X47582032Y16758713D01*
%TO.C,R69*%
X42518919Y16729773D02*
X42518919Y17037055D01*
X43278919Y16729773D02*
X43278919Y17037055D01*
%TO.C,R74*%
X16380159Y18189800D02*
X16687441Y18189800D01*
X16380159Y17429800D02*
X16687441Y17429800D01*
%TO.C,C202*%
X32886919Y19805250D02*
X32886919Y19589578D01*
X33606919Y19805250D02*
X33606919Y19589578D01*
%TO.C,C158*%
X40394388Y22630224D02*
X40610060Y22630224D01*
X40394388Y21910224D02*
X40610060Y21910224D01*
%TO.C,C280*%
X17742355Y19974614D02*
X17526683Y19974614D01*
X17742355Y19254614D02*
X17526683Y19254614D01*
%TO.C,R70*%
X42518919Y18609373D02*
X42518919Y18916655D01*
X43278919Y18609373D02*
X43278919Y18916655D01*
%TO.C,C284*%
X13994519Y18406778D02*
X13994519Y18622450D01*
X14714519Y18406778D02*
X14714519Y18622450D01*
%TO.C,C7*%
X64867981Y38329650D02*
X64867981Y38545322D01*
X65587981Y38329650D02*
X65587981Y38545322D01*
%TO.C,Y4*%
X17872000Y37433000D02*
X18112000Y37433000D01*
X18112000Y37433000D02*
X18112000Y39233000D01*
X19512000Y41033000D02*
X20312000Y41033000D01*
X19512000Y35633000D02*
X19512000Y35233000D01*
X20312000Y35633000D02*
X19512000Y35633000D01*
X21712000Y39233000D02*
X21712000Y37433000D01*
%TO.C,C133*%
X33940000Y15307836D02*
X33940000Y15092164D01*
X34660000Y15307836D02*
X34660000Y15092164D01*
%TO.C,C6*%
X63720145Y39397486D02*
X63935817Y39397486D01*
X63720145Y38677486D02*
X63935817Y38677486D01*
%TO.C,Y3*%
X25238000Y38449000D02*
X25478000Y38449000D01*
X25478000Y38449000D02*
X25478000Y40249000D01*
X26878000Y42049000D02*
X27678000Y42049000D01*
X26878000Y36649000D02*
X26878000Y36249000D01*
X27678000Y36649000D02*
X26878000Y36649000D01*
X29078000Y40249000D02*
X29078000Y38449000D01*
%TO.C,C274*%
X10478421Y29086400D02*
X10143179Y29086400D01*
X10478421Y28326400D02*
X10143179Y28326400D01*
%TO.C,U18*%
X8737000Y45932000D02*
X10687000Y45932000D01*
X8737000Y40812000D02*
X10687000Y40812000D01*
X12637000Y40812000D02*
X10687000Y40812000D01*
X14137000Y45932000D02*
X10687000Y45932000D01*
%TO.C,C282*%
X18472355Y17480014D02*
X18256683Y17480014D01*
X18472355Y16760014D02*
X18256683Y16760014D01*
%TO.C,C2*%
X65567981Y43782822D02*
X65567981Y43567150D01*
X66287981Y43782822D02*
X66287981Y43567150D01*
%TO.C,C323*%
X8796683Y14924614D02*
X9012355Y14924614D01*
X8796683Y14204614D02*
X9012355Y14204614D01*
%TO.C,C41*%
X63417981Y17386238D02*
X63417981Y15963734D01*
X65237981Y17386238D02*
X65237981Y15963734D01*
%TO.C,C320*%
X8946683Y16212114D02*
X9162355Y16212114D01*
X8946683Y15492114D02*
X9162355Y15492114D01*
%TO.C,C13*%
X68935817Y40197486D02*
X68720145Y40197486D01*
X68935817Y39477486D02*
X68720145Y39477486D01*
%TO.C,C329*%
X2537355Y9924614D02*
X2321683Y9924614D01*
X2537355Y9204614D02*
X2321683Y9204614D01*
%TO.C,C190*%
X30120366Y18057875D02*
X30336038Y18057875D01*
X30120366Y17337875D02*
X30336038Y17337875D01*
%TO.C,C170*%
X31062093Y25049410D02*
X30909590Y24896907D01*
X31571210Y24540293D02*
X31418707Y24387790D01*
%TO.C,C335*%
X8796683Y13824614D02*
X9012355Y13824614D01*
X8796683Y13104614D02*
X9012355Y13104614D01*
%TO.C,D1*%
X65171000Y9432600D02*
X65171000Y6132600D01*
X70681000Y9432600D02*
X65171000Y9432600D01*
X70681000Y6132600D02*
X65171000Y6132600D01*
%TO.C,C154*%
X40590000Y42257836D02*
X40590000Y42042164D01*
X41310000Y42257836D02*
X41310000Y42042164D01*
%TO.C,C332*%
X4594519Y8467436D02*
X4594519Y8251764D01*
X5314519Y8467436D02*
X5314519Y8251764D01*
%TO.C,C328*%
X3694519Y14744278D02*
X3694519Y14959950D01*
X4414519Y14744278D02*
X4414519Y14959950D01*
%TO.C,C67*%
X6454400Y19968748D02*
X6454400Y21391252D01*
X8274400Y19968748D02*
X8274400Y21391252D01*
%TO.C,C155*%
X37349335Y18023934D02*
X37133663Y18023934D01*
X37349335Y17303934D02*
X37133663Y17303934D01*
%TO.C,C279*%
X14376683Y17030014D02*
X14592355Y17030014D01*
X14376683Y16310014D02*
X14592355Y16310014D01*
%TO.C,C15*%
X64442981Y43752822D02*
X64442981Y43537150D01*
X65162981Y43752822D02*
X65162981Y43537150D01*
%TO.C,C325*%
X8044519Y8222450D02*
X8044519Y8006778D01*
X8764519Y8222450D02*
X8764519Y8006778D01*
%TO.C,C318*%
X2744519Y14706778D02*
X2744519Y14922450D01*
X3464519Y14706778D02*
X3464519Y14922450D01*
%TO.C,R34*%
X41299159Y16788400D02*
X41606441Y16788400D01*
X41299159Y16028400D02*
X41606441Y16028400D01*
%TO.C,C151*%
X32790000Y13642164D02*
X32790000Y13857836D01*
X33510000Y13642164D02*
X33510000Y13857836D01*
%TO.C,C168*%
X39173690Y17987600D02*
X38958018Y17987600D01*
X39173690Y17267600D02*
X38958018Y17267600D01*
%TO.C,R38*%
X24374519Y15258255D02*
X24374519Y14950973D01*
X25134519Y15258255D02*
X25134519Y14950973D01*
%TO.C,C43*%
X62402981Y20563734D02*
X62402981Y21986238D01*
X64222981Y20563734D02*
X64222981Y21986238D01*
%TO.C,C331*%
X8746683Y10824614D02*
X8962355Y10824614D01*
X8746683Y10104614D02*
X8962355Y10104614D01*
%TO.C,C285*%
X15392355Y14680014D02*
X15176683Y14680014D01*
X15392355Y13960014D02*
X15176683Y13960014D01*
%TO.C,R63*%
X52131023Y18860285D02*
X51823741Y18860285D01*
X52131023Y18100285D02*
X51823741Y18100285D01*
%TO.C,R72*%
X13450878Y22932114D02*
X13758160Y22932114D01*
X13450878Y22172114D02*
X13758160Y22172114D01*
%TO.C,C130*%
X42592164Y34060000D02*
X42807836Y34060000D01*
X42592164Y33340000D02*
X42807836Y33340000D01*
%TO.C,C334*%
X8746683Y11774614D02*
X8962355Y11774614D01*
X8746683Y11054614D02*
X8962355Y11054614D01*
%TO.C,C178*%
X32211836Y18040382D02*
X31996164Y18040382D01*
X32211836Y17320382D02*
X31996164Y17320382D01*
%TO.C,C36*%
X61117981Y17386238D02*
X61117981Y15963734D01*
X62937981Y17386238D02*
X62937981Y15963734D01*
%TO.C,R33*%
X55127178Y15604554D02*
X55344459Y15387273D01*
X55664579Y16141955D02*
X55881860Y15924674D01*
%TO.C,C9*%
X66767981Y38329650D02*
X66767981Y38545322D01*
X67487981Y38329650D02*
X67487981Y38545322D01*
%TO.C,C256*%
X51913919Y23907394D02*
X51913919Y23626234D01*
X52933919Y23907394D02*
X52933919Y23626234D01*
%TO.C,C276*%
X14967355Y20980014D02*
X14751683Y20980014D01*
X14967355Y20260014D02*
X14751683Y20260014D01*
%TO.C,C66*%
X7622800Y24693148D02*
X7622800Y26115652D01*
X9442800Y24693148D02*
X9442800Y26115652D01*
%TO.C,C157*%
X40811836Y12881069D02*
X40596164Y12881069D01*
X40811836Y12161069D02*
X40596164Y12161069D01*
%TO.C,C267*%
X54944519Y18755194D02*
X54944519Y18474034D01*
X55964519Y18755194D02*
X55964519Y18474034D01*
%TO.C,R40*%
X32950878Y9232114D02*
X33258160Y9232114D01*
X32950878Y8472114D02*
X33258160Y8472114D01*
%TO.C,C4*%
X63720145Y41697486D02*
X63935817Y41697486D01*
X63720145Y40977486D02*
X63935817Y40977486D01*
%TO.C,R39*%
X27355083Y22702579D02*
X27137802Y22485298D01*
X27892484Y22165178D02*
X27675203Y21947897D01*
%TO.C,C337*%
X2537355Y10934614D02*
X2321683Y10934614D01*
X2537355Y10214614D02*
X2321683Y10214614D01*
%TO.C,C129*%
X35147155Y14117414D02*
X34931483Y14117414D01*
X35147155Y13397414D02*
X34931483Y13397414D01*
%TO.C,C3*%
X68935817Y42097486D02*
X68720145Y42097486D01*
X68935817Y41377486D02*
X68720145Y41377486D01*
%TO.C,C169*%
X41233000Y11229836D02*
X41233000Y11014164D01*
X41953000Y11229836D02*
X41953000Y11014164D01*
%TO.C,C140*%
X33232836Y10885000D02*
X33017164Y10885000D01*
X33232836Y10165000D02*
X33017164Y10165000D01*
%TO.C,C338*%
X2537355Y8999614D02*
X2321683Y8999614D01*
X2537355Y8279614D02*
X2321683Y8279614D01*
%TO.C,C310*%
X8789836Y46937000D02*
X8574164Y46937000D01*
X8789836Y46217000D02*
X8574164Y46217000D01*
%TO.C,C336*%
X6899038Y14906778D02*
X6899038Y15122450D01*
X7619038Y14906778D02*
X7619038Y15122450D01*
%TO.C,C289*%
X-2110000Y41884420D02*
X-2110000Y42165580D01*
X-1090000Y41884420D02*
X-1090000Y42165580D01*
%TO.C,C8*%
X65817981Y38329650D02*
X65817981Y38545322D01*
X66537981Y38329650D02*
X66537981Y38545322D01*
%TO.C,C193*%
X28273389Y18067157D02*
X28489061Y18067157D01*
X28273389Y17347157D02*
X28489061Y17347157D01*
%TO.C,R97*%
X5602500Y8493241D02*
X5602500Y8185959D01*
X6362500Y8493241D02*
X6362500Y8185959D01*
%TO.C,C166*%
X35292798Y17990914D02*
X35508470Y17990914D01*
X35292798Y17270914D02*
X35508470Y17270914D01*
%TO.C,C322*%
X2537355Y11854614D02*
X2321683Y11854614D01*
X2537355Y11134614D02*
X2321683Y11134614D01*
%TO.C,C11*%
X68935817Y41097486D02*
X68720145Y41097486D01*
X68935817Y40377486D02*
X68720145Y40377486D01*
%TO.C,C156*%
X37703258Y14862269D02*
X37918930Y14862269D01*
X37703258Y14142269D02*
X37918930Y14142269D01*
%TO.C,C324*%
X8746683Y9874614D02*
X8962355Y9874614D01*
X8746683Y9154614D02*
X8962355Y9154614D01*
%TO.C,FB7*%
X9217298Y17562114D02*
X8891740Y17562114D01*
X9217298Y16542114D02*
X8891740Y16542114D01*
%TO.C,C278*%
X14942355Y21930014D02*
X14726683Y21930014D01*
X14942355Y21210014D02*
X14726683Y21210014D01*
%TO.C,C173*%
X34692164Y35860000D02*
X34907836Y35860000D01*
X34692164Y35140000D02*
X34907836Y35140000D01*
%TO.C,C277*%
X16674519Y21427850D02*
X16674519Y21212178D01*
X17394519Y21427850D02*
X17394519Y21212178D01*
%TO.C,R61*%
X45708160Y8294614D02*
X45400878Y8294614D01*
X45708160Y7534614D02*
X45400878Y7534614D01*
%TO.C,C141*%
X28272164Y12360000D02*
X28487836Y12360000D01*
X28272164Y11640000D02*
X28487836Y11640000D01*
%TO.C,C326*%
X4594519Y14881778D02*
X4594519Y15097450D01*
X5314519Y14881778D02*
X5314519Y15097450D01*
%TO.C,C70*%
X5184400Y24718548D02*
X5184400Y26141052D01*
X7004400Y24718548D02*
X7004400Y26141052D01*
%TO.C,C281*%
X14376683Y16080014D02*
X14592355Y16080014D01*
X14376683Y15360014D02*
X14592355Y15360014D01*
%TO.C,R64*%
X52381469Y17243184D02*
X52164188Y17025903D01*
X52918870Y16705783D02*
X52701589Y16488502D01*
%TO.C,C286*%
X18724519Y19227850D02*
X18724519Y19012178D01*
X19444519Y19227850D02*
X19444519Y19012178D01*
%TD*%
%LPC*%
D13*
X-4000000Y51000000D02*
X80000000Y51000000D01*
X80000000Y-4000000D01*
X-4000000Y-4000000D01*
X-4000000Y51000000D01*
D14*
%TO.C,J3*%
X1112000Y34427000D03*
D15*
X-888000Y34427000D03*
X1112000Y32427000D03*
X-888000Y32427000D03*
X1112000Y30427000D03*
X-888000Y30427000D03*
X1112000Y28427000D03*
X-888000Y28427000D03*
X1112000Y26427000D03*
X-888000Y26427000D03*
%TD*%
D16*
%TO.C,U6*%
X7185800Y23386000D03*
X7685800Y23386000D03*
X8185800Y23386000D03*
X7185800Y24386000D03*
X7685800Y24386000D03*
X8185800Y24386000D03*
%TD*%
D17*
%TO.C,H3*%
X0Y47000000D03*
D18*
X0Y47000000D03*
%TD*%
D17*
%TO.C,H1*%
X76000000Y47000000D03*
D18*
X76000000Y47000000D03*
%TD*%
D17*
%TO.C,H2*%
X0Y0D03*
D18*
X0Y0D03*
%TD*%
D17*
%TO.C,H4*%
X76000000Y0D03*
D18*
X76000000Y0D03*
%TD*%
D19*
%TO.C,C165*%
X32100000Y14675814D03*
X32100000Y13715814D03*
%TD*%
D20*
%TO.C,C137*%
X10370000Y31150000D03*
X9730000Y31150000D03*
%TD*%
%TO.C,C215*%
X36348014Y16111994D03*
X35708014Y16111994D03*
%TD*%
D21*
%TO.C,C295*%
X24773600Y33049800D03*
X25413600Y33049800D03*
%TD*%
D22*
%TO.C,R36*%
X24754519Y17464614D03*
X24754519Y16444614D03*
%TD*%
D23*
%TO.C,C5*%
X64307981Y39987486D03*
X63347981Y39987486D03*
%TD*%
D24*
%TO.C,C180*%
X48600000Y36870000D03*
X48600000Y36230000D03*
%TD*%
D25*
%TO.C,R62*%
X45044519Y6814614D03*
X46064519Y6814614D03*
%TD*%
D21*
%TO.C,C160*%
X36636400Y19850000D03*
X37276400Y19850000D03*
%TD*%
D26*
%TO.C,C240*%
X39750000Y23601224D03*
X39750000Y24241224D03*
%TD*%
D22*
%TO.C,R73*%
X17778400Y16186200D03*
X17778400Y15166200D03*
%TD*%
D27*
%TO.C,C283*%
X15879519Y15720014D03*
X16839519Y15720014D03*
%TD*%
D20*
%TO.C,C184*%
X38316800Y12983800D03*
X37676800Y12983800D03*
%TD*%
D19*
%TO.C,C10*%
X68077981Y38917486D03*
X68077981Y37957486D03*
%TD*%
D26*
%TO.C,C245*%
X30502519Y15925814D03*
X30502519Y16565814D03*
%TD*%
%TO.C,C197*%
X38355924Y21050429D03*
X38355924Y21690429D03*
%TD*%
D28*
%TO.C,J1*%
X70200000Y2000000D03*
D29*
X12500000Y2000000D03*
D30*
X72050000Y2000000D03*
D31*
X71225000Y3225000D03*
X71225000Y775000D03*
D30*
X10650000Y2000000D03*
D31*
X11475000Y3225000D03*
X11475000Y775000D03*
D32*
X14025000Y4700000D03*
D33*
X14600000Y4700000D03*
X15100000Y4700000D03*
X15600000Y4700000D03*
X16100000Y4700000D03*
X16600000Y4700000D03*
X17100000Y4700000D03*
X17600000Y4700000D03*
X18100000Y4700000D03*
X18600000Y4700000D03*
X19100000Y4700000D03*
X19600000Y4700000D03*
X20100000Y4700000D03*
X20600000Y4700000D03*
X21100000Y4700000D03*
X21600000Y4700000D03*
X22100000Y4700000D03*
X22600000Y4700000D03*
X23100000Y4700000D03*
X23600000Y4700000D03*
X24100000Y4700000D03*
X24600000Y4700000D03*
X25100000Y4700000D03*
X25600000Y4700000D03*
X26100000Y4700000D03*
X26600000Y4700000D03*
X27100000Y4700000D03*
X27600000Y4700000D03*
X28100000Y4700000D03*
X28600000Y4700000D03*
X29100000Y4700000D03*
X29600000Y4700000D03*
X30100000Y4700000D03*
X30600000Y4700000D03*
X31100000Y4700000D03*
X31600000Y4700000D03*
X32100000Y4700000D03*
X32600000Y4700000D03*
X33100000Y4700000D03*
X33600000Y4700000D03*
X34100000Y4700000D03*
X34600000Y4700000D03*
X35100000Y4700000D03*
X35600000Y4700000D03*
X36100000Y4700000D03*
X36600000Y4700000D03*
X37100000Y4700000D03*
X37600000Y4700000D03*
X38100000Y4700000D03*
X38600000Y4700000D03*
X39100000Y4700000D03*
X39600000Y4700000D03*
X40100000Y4700000D03*
X40600000Y4700000D03*
X41100000Y4700000D03*
X41600000Y4700000D03*
X42100000Y4700000D03*
X42600000Y4700000D03*
X43100000Y4700000D03*
X43600000Y4700000D03*
X44100000Y4700000D03*
X44600000Y4700000D03*
X45100000Y4700000D03*
X45600000Y4700000D03*
X46100000Y4700000D03*
X46600000Y4700000D03*
X47100000Y4700000D03*
X47600000Y4700000D03*
X48100000Y4700000D03*
X48600000Y4700000D03*
X49100000Y4700000D03*
X49600000Y4700000D03*
X50100000Y4700000D03*
X50600000Y4700000D03*
X51100000Y4700000D03*
X51600000Y4700000D03*
X52100000Y4700000D03*
X52600000Y4700000D03*
X53100000Y4700000D03*
X53600000Y4700000D03*
X54100000Y4700000D03*
X54600000Y4700000D03*
X55100000Y4700000D03*
X55600000Y4700000D03*
X56100000Y4700000D03*
X56600000Y4700000D03*
X57100000Y4700000D03*
X57600000Y4700000D03*
X58100000Y4700000D03*
X58600000Y4700000D03*
X59100000Y4700000D03*
X59600000Y4700000D03*
X60100000Y4700000D03*
X60600000Y4700000D03*
X61100000Y4700000D03*
X61600000Y4700000D03*
X62100000Y4700000D03*
X62600000Y4700000D03*
X63100000Y4700000D03*
X63600000Y4700000D03*
X64100000Y4700000D03*
X64600000Y4700000D03*
X65100000Y4700000D03*
X65600000Y4700000D03*
X66100000Y4700000D03*
X66600000Y4700000D03*
X67100000Y4700000D03*
X67600000Y4700000D03*
X68100000Y4700000D03*
D32*
X68675000Y4700000D03*
X14025000Y-700000D03*
D33*
X14600000Y-700000D03*
X15100000Y-700000D03*
X15600000Y-700000D03*
X16100000Y-700000D03*
X16600000Y-700000D03*
X17100000Y-700000D03*
X17600000Y-700000D03*
X18100000Y-700000D03*
X18600000Y-700000D03*
X19100000Y-700000D03*
X19600000Y-700000D03*
X20100000Y-700000D03*
X20600000Y-700000D03*
X21100000Y-700000D03*
X21600000Y-700000D03*
X22100000Y-700000D03*
X22600000Y-700000D03*
X23100000Y-700000D03*
X23600000Y-700000D03*
X24100000Y-700000D03*
X24600000Y-700000D03*
X25100000Y-700000D03*
X25600000Y-700000D03*
X26100000Y-700000D03*
X26600000Y-700000D03*
X27100000Y-700000D03*
X27600000Y-700000D03*
X28100000Y-700000D03*
X28600000Y-700000D03*
X29100000Y-700000D03*
X29600000Y-700000D03*
X30100000Y-700000D03*
X30600000Y-700000D03*
X31100000Y-700000D03*
X31600000Y-700000D03*
X32100000Y-700000D03*
X32600000Y-700000D03*
X33100000Y-700000D03*
X33600000Y-700000D03*
X34100000Y-700000D03*
X34600000Y-700000D03*
X35100000Y-700000D03*
X35600000Y-700000D03*
X36100000Y-700000D03*
X36600000Y-700000D03*
X37100000Y-700000D03*
X37600000Y-700000D03*
X38100000Y-700000D03*
X38600000Y-700000D03*
X39100000Y-700000D03*
X39600000Y-700000D03*
X40100000Y-700000D03*
X40600000Y-700000D03*
X41100000Y-700000D03*
X41600000Y-700000D03*
X42100000Y-700000D03*
X42600000Y-700000D03*
X43100000Y-700000D03*
X43600000Y-700000D03*
X44100000Y-700000D03*
X44600000Y-700000D03*
X45100000Y-700000D03*
X45600000Y-700000D03*
X46100000Y-700000D03*
X46600000Y-700000D03*
X47100000Y-700000D03*
X47600000Y-700000D03*
X48100000Y-700000D03*
X48600000Y-700000D03*
X49100000Y-700000D03*
X49600000Y-700000D03*
X50100000Y-700000D03*
X50600000Y-700000D03*
X51100000Y-700000D03*
X51600000Y-700000D03*
X52100000Y-700000D03*
X52600000Y-700000D03*
X53100000Y-700000D03*
X53600000Y-700000D03*
X54100000Y-700000D03*
X54600000Y-700000D03*
X55100000Y-700000D03*
X55600000Y-700000D03*
X56100000Y-700000D03*
X56600000Y-700000D03*
X57100000Y-700000D03*
X57600000Y-700000D03*
X58100000Y-700000D03*
X58600000Y-700000D03*
X59100000Y-700000D03*
X59600000Y-700000D03*
X60100000Y-700000D03*
X60600000Y-700000D03*
X61100000Y-700000D03*
X61600000Y-700000D03*
X62100000Y-700000D03*
X62600000Y-700000D03*
X63100000Y-700000D03*
X63600000Y-700000D03*
X64100000Y-700000D03*
X64600000Y-700000D03*
X65100000Y-700000D03*
X65600000Y-700000D03*
X66100000Y-700000D03*
X66600000Y-700000D03*
X67100000Y-700000D03*
X67600000Y-700000D03*
X68100000Y-700000D03*
D32*
X68675000Y-700000D03*
%TD*%
D26*
%TO.C,C207*%
X39602429Y20406539D03*
X39602429Y21046539D03*
%TD*%
D34*
%TO.C,C192*%
X28913274Y15528274D03*
X28460726Y15075726D03*
%TD*%
D20*
%TO.C,C221*%
X34914200Y21168400D03*
X34274200Y21168400D03*
%TD*%
D22*
%TO.C,R37*%
X25354519Y25699614D03*
X25354519Y24679614D03*
%TD*%
D23*
%TO.C,C330*%
X9334519Y12364614D03*
X8374519Y12364614D03*
%TD*%
D24*
%TO.C,C214*%
X31300000Y14370000D03*
X31300000Y13730000D03*
%TD*%
D21*
%TO.C,C210*%
X34290440Y18431331D03*
X34930440Y18431331D03*
%TD*%
D20*
%TO.C,C117*%
X29970000Y21000000D03*
X29330000Y21000000D03*
%TD*%
D24*
%TO.C,C124*%
X36450000Y9820000D03*
X36450000Y9180000D03*
%TD*%
D20*
%TO.C,C226*%
X31450000Y27410000D03*
X30810000Y27410000D03*
%TD*%
D21*
%TO.C,C275*%
X9965400Y29544600D03*
X10605400Y29544600D03*
%TD*%
D20*
%TO.C,C185*%
X39129949Y19562584D03*
X38489949Y19562584D03*
%TD*%
D35*
%TO.C,R96*%
X6982500Y7829600D03*
X6982500Y8849600D03*
%TD*%
D26*
%TO.C,C254*%
X43914919Y18138214D03*
X43914919Y18778214D03*
%TD*%
D25*
%TO.C,R71*%
X71722981Y39219986D03*
X72742981Y39219986D03*
%TD*%
D27*
%TO.C,C212*%
X23320000Y23850000D03*
X24280000Y23850000D03*
%TD*%
D36*
%TO.C,C12*%
X68227981Y43194986D03*
X68227981Y44154986D03*
%TD*%
D21*
%TO.C,C112*%
X28610000Y23500000D03*
X29250000Y23500000D03*
%TD*%
D26*
%TO.C,C182*%
X32950000Y14880000D03*
X32950000Y15520000D03*
%TD*%
D20*
%TO.C,C88*%
X29477600Y26649000D03*
X28837600Y26649000D03*
%TD*%
D21*
%TO.C,C208*%
X39719944Y11332349D03*
X40359944Y11332349D03*
%TD*%
D27*
%TO.C,C333*%
X1949519Y13089614D03*
X2909519Y13089614D03*
%TD*%
D20*
%TO.C,C177*%
X40260884Y14518779D03*
X39620884Y14518779D03*
%TD*%
D37*
%TO.C,C255*%
X47072032Y17393133D03*
X47072032Y15843133D03*
%TD*%
D21*
%TO.C,C122*%
X27930000Y20250000D03*
X28570000Y20250000D03*
%TD*%
D26*
%TO.C,C249*%
X39050000Y23601224D03*
X39050000Y24241224D03*
%TD*%
%TO.C,C201*%
X32626319Y16182382D03*
X32626319Y16822382D03*
%TD*%
%TO.C,C266*%
X50317519Y23520814D03*
X50317519Y24160814D03*
%TD*%
D20*
%TO.C,C89*%
X29477600Y27385600D03*
X28837600Y27385600D03*
%TD*%
D24*
%TO.C,C264*%
X53054519Y12134614D03*
X53054519Y11494614D03*
%TD*%
D26*
%TO.C,C233*%
X33337519Y16280000D03*
X33337519Y16920000D03*
%TD*%
D24*
%TO.C,C189*%
X34450000Y9845000D03*
X34450000Y9205000D03*
%TD*%
D26*
%TO.C,C161*%
X29300000Y16280000D03*
X29300000Y16920000D03*
%TD*%
D22*
%TO.C,R69*%
X42898919Y17393414D03*
X42898919Y16373414D03*
%TD*%
D38*
%TO.C,R74*%
X17043800Y17809800D03*
X16023800Y17809800D03*
%TD*%
D20*
%TO.C,C219*%
X34923820Y16351645D03*
X34283820Y16351645D03*
%TD*%
%TO.C,C71*%
X36832000Y6277000D03*
X36192000Y6277000D03*
%TD*%
D36*
%TO.C,C202*%
X33246919Y19217414D03*
X33246919Y20177414D03*
%TD*%
D23*
%TO.C,C158*%
X40982224Y22270224D03*
X40022224Y22270224D03*
%TD*%
D39*
%TO.C,R99*%
X8837600Y1529500D03*
X8837600Y714500D03*
%TD*%
D20*
%TO.C,C196*%
X38390000Y13680000D03*
X37750000Y13680000D03*
%TD*%
D24*
%TO.C,C116*%
X26550000Y16245000D03*
X26550000Y15605000D03*
%TD*%
D20*
%TO.C,C234*%
X29254519Y19245014D03*
X28614519Y19245014D03*
%TD*%
D21*
%TO.C,C134*%
X34135000Y20575000D03*
X34775000Y20575000D03*
%TD*%
D27*
%TO.C,C280*%
X17154519Y19614614D03*
X18114519Y19614614D03*
%TD*%
D26*
%TO.C,C188*%
X40450000Y23592969D03*
X40450000Y24232969D03*
%TD*%
D20*
%TO.C,C205*%
X38329214Y20355600D03*
X37689214Y20355600D03*
%TD*%
%TO.C,C174*%
X36298484Y18497689D03*
X35658484Y18497689D03*
%TD*%
D22*
%TO.C,R70*%
X42898919Y19273014D03*
X42898919Y18253014D03*
%TD*%
D19*
%TO.C,C284*%
X14354519Y18994614D03*
X14354519Y18034614D03*
%TD*%
D39*
%TO.C,R98*%
X8126400Y1529500D03*
X8126400Y714500D03*
%TD*%
D21*
%TO.C,C127*%
X32580000Y11350000D03*
X33220000Y11350000D03*
%TD*%
D24*
%TO.C,C298*%
X27481200Y33862600D03*
X27481200Y33222600D03*
%TD*%
D20*
%TO.C,C236*%
X30472519Y15170814D03*
X29832519Y15170814D03*
%TD*%
D24*
%TO.C,C176*%
X39684979Y10587454D03*
X39684979Y9947454D03*
%TD*%
D20*
%TO.C,C247*%
X39129949Y18860909D03*
X38489949Y18860909D03*
%TD*%
D19*
%TO.C,C7*%
X65227981Y38917486D03*
X65227981Y37957486D03*
%TD*%
D40*
%TO.C,Y4*%
X18712000Y36333000D03*
X18712000Y40333000D03*
X21112000Y40333000D03*
X21112000Y36333000D03*
%TD*%
D21*
%TO.C,C303*%
X19236400Y31017800D03*
X19876400Y31017800D03*
%TD*%
D36*
%TO.C,C133*%
X34300000Y14720000D03*
X34300000Y15680000D03*
%TD*%
D24*
%TO.C,C232*%
X31203919Y16820614D03*
X31203919Y16180614D03*
%TD*%
D23*
%TO.C,C6*%
X64307981Y39037486D03*
X63347981Y39037486D03*
%TD*%
D26*
%TO.C,C150*%
X28600000Y16280000D03*
X28600000Y16920000D03*
%TD*%
D40*
%TO.C,Y3*%
X26078000Y37349000D03*
X26078000Y41349000D03*
X28478000Y41349000D03*
X28478000Y37349000D03*
%TD*%
D41*
%TO.C,C274*%
X9713300Y28706400D03*
X10908300Y28706400D03*
%TD*%
D24*
%TO.C,C200*%
X33250000Y30270000D03*
X33250000Y29630000D03*
%TD*%
D42*
%TO.C,U18*%
X13162000Y45277000D03*
X13162000Y44007000D03*
X13162000Y42737000D03*
X13162000Y41467000D03*
X8212000Y41467000D03*
X8212000Y42737000D03*
X8212000Y44007000D03*
X8212000Y45277000D03*
%TD*%
D26*
%TO.C,C305*%
X21486800Y29819000D03*
X21486800Y30459000D03*
%TD*%
D24*
%TO.C,C213*%
X29970319Y19540214D03*
X29970319Y18900214D03*
%TD*%
D27*
%TO.C,C282*%
X17884519Y17120014D03*
X18844519Y17120014D03*
%TD*%
D36*
%TO.C,C2*%
X65927981Y43194986D03*
X65927981Y44154986D03*
%TD*%
D23*
%TO.C,C323*%
X9384519Y14564614D03*
X8424519Y14564614D03*
%TD*%
D43*
%TO.C,C41*%
X64327981Y15199986D03*
X64327981Y18149986D03*
%TD*%
D21*
%TO.C,C186*%
X35568519Y21176014D03*
X36208519Y21176014D03*
%TD*%
D20*
%TO.C,C302*%
X22822800Y31322600D03*
X22182800Y31322600D03*
%TD*%
D24*
%TO.C,C139*%
X29950000Y12970000D03*
X29950000Y12330000D03*
%TD*%
D23*
%TO.C,C320*%
X9534519Y15852114D03*
X8574519Y15852114D03*
%TD*%
D24*
%TO.C,C114*%
X25804800Y15767600D03*
X25804800Y15127600D03*
%TD*%
D27*
%TO.C,C13*%
X68347981Y39837486D03*
X69307981Y39837486D03*
%TD*%
D26*
%TO.C,C299*%
X27074800Y29732600D03*
X27074800Y30372600D03*
%TD*%
D20*
%TO.C,C307*%
X20892400Y34472200D03*
X20252400Y34472200D03*
%TD*%
D26*
%TO.C,C262*%
X46104519Y12019614D03*
X46104519Y12659614D03*
%TD*%
D21*
%TO.C,C304*%
X24773600Y33761000D03*
X25413600Y33761000D03*
%TD*%
D24*
%TO.C,C93*%
X32713600Y6725200D03*
X32713600Y6085200D03*
%TD*%
D21*
%TO.C,C297*%
X18830000Y33761000D03*
X19470000Y33761000D03*
%TD*%
D44*
%TO.C,FB6*%
X22683000Y33811800D03*
X21713000Y33811800D03*
%TD*%
D27*
%TO.C,C329*%
X1949519Y9564614D03*
X2909519Y9564614D03*
%TD*%
D23*
%TO.C,C190*%
X30708202Y17697875D03*
X29748202Y17697875D03*
%TD*%
D24*
%TO.C,C115*%
X27950000Y16270000D03*
X27950000Y15630000D03*
%TD*%
D45*
%TO.C,C195*%
X31223726Y15123726D03*
X31676274Y15576274D03*
%TD*%
D46*
%TO.C,C170*%
X30900989Y24379189D03*
X31579811Y25058011D03*
%TD*%
D23*
%TO.C,C335*%
X9384519Y13464614D03*
X8424519Y13464614D03*
%TD*%
D45*
%TO.C,C138*%
X32773726Y21248726D03*
X33226274Y21701274D03*
%TD*%
D24*
%TO.C,C179*%
X34118700Y17704857D03*
X34118700Y17064857D03*
%TD*%
D26*
%TO.C,C252*%
X51850000Y14030000D03*
X51850000Y14670000D03*
%TD*%
%TO.C,C171*%
X33550000Y14930000D03*
X33550000Y15570000D03*
%TD*%
D20*
%TO.C,C216*%
X37726599Y16846689D03*
X37086599Y16846689D03*
%TD*%
D47*
%TO.C,D1*%
X66681000Y7782600D03*
X70681000Y7782600D03*
%TD*%
D36*
%TO.C,C154*%
X40950000Y41670000D03*
X40950000Y42630000D03*
%TD*%
D26*
%TO.C,C253*%
X43813319Y16512614D03*
X43813319Y17152614D03*
%TD*%
D36*
%TO.C,C332*%
X4954519Y7879600D03*
X4954519Y8839600D03*
%TD*%
D19*
%TO.C,C328*%
X4054519Y15332114D03*
X4054519Y14372114D03*
%TD*%
D48*
%TO.C,C67*%
X7364400Y22155000D03*
X7364400Y19205000D03*
%TD*%
D20*
%TO.C,FB2*%
X36082600Y19822200D03*
X35442600Y19822200D03*
%TD*%
D21*
%TO.C,C237*%
X37070089Y18481179D03*
X37710089Y18481179D03*
%TD*%
D24*
%TO.C,C92*%
X32002400Y6725200D03*
X32002400Y6085200D03*
%TD*%
D27*
%TO.C,C155*%
X36761499Y17663934D03*
X37721499Y17663934D03*
%TD*%
D24*
%TO.C,R56*%
X34999519Y24213814D03*
X34999519Y23573814D03*
%TD*%
D26*
%TO.C,C218*%
X41150000Y23592969D03*
X41150000Y24232969D03*
%TD*%
D23*
%TO.C,C279*%
X14964519Y16670014D03*
X14004519Y16670014D03*
%TD*%
D24*
%TO.C,C91*%
X31215000Y6725200D03*
X31215000Y6085200D03*
%TD*%
D36*
%TO.C,C15*%
X64802981Y43164986D03*
X64802981Y44124986D03*
%TD*%
D26*
%TO.C,C145*%
X27950000Y10480000D03*
X27950000Y11120000D03*
%TD*%
D20*
%TO.C,C220*%
X35819694Y15336024D03*
X35179694Y15336024D03*
%TD*%
D36*
%TO.C,C325*%
X8404519Y7634614D03*
X8404519Y8594614D03*
%TD*%
D24*
%TO.C,C152*%
X35812319Y24798014D03*
X35812319Y24158014D03*
%TD*%
D19*
%TO.C,C318*%
X3104519Y15294614D03*
X3104519Y14334614D03*
%TD*%
D20*
%TO.C,C230*%
X40269139Y13822000D03*
X39629139Y13822000D03*
%TD*%
D21*
%TO.C,C231*%
X27180000Y20975000D03*
X27820000Y20975000D03*
%TD*%
D38*
%TO.C,R34*%
X41962800Y16408400D03*
X40942800Y16408400D03*
%TD*%
D19*
%TO.C,C151*%
X33150000Y14230000D03*
X33150000Y13270000D03*
%TD*%
D26*
%TO.C,C263*%
X54107519Y13850814D03*
X54107519Y14490814D03*
%TD*%
D27*
%TO.C,C168*%
X38585854Y17627600D03*
X39545854Y17627600D03*
%TD*%
D35*
%TO.C,R38*%
X24754519Y14594614D03*
X24754519Y15614614D03*
%TD*%
D48*
%TO.C,C43*%
X63312981Y22749986D03*
X63312981Y19799986D03*
%TD*%
D21*
%TO.C,C87*%
X40343719Y17594614D03*
X40983719Y17594614D03*
%TD*%
D24*
%TO.C,C120*%
X27125000Y17670000D03*
X27125000Y17030000D03*
%TD*%
D26*
%TO.C,C224*%
X32434119Y18544614D03*
X32434119Y19184614D03*
%TD*%
D23*
%TO.C,C331*%
X9334519Y10464614D03*
X8374519Y10464614D03*
%TD*%
D24*
%TO.C,C90*%
X30503800Y6725200D03*
X30503800Y6085200D03*
%TD*%
D21*
%TO.C,C227*%
X37094854Y16120249D03*
X37734854Y16120249D03*
%TD*%
D27*
%TO.C,C285*%
X14804519Y14320014D03*
X15764519Y14320014D03*
%TD*%
D21*
%TO.C,C293*%
X24824400Y30560600D03*
X25464400Y30560600D03*
%TD*%
D25*
%TO.C,R63*%
X51467382Y18480285D03*
X52487382Y18480285D03*
%TD*%
D20*
%TO.C,C241*%
X34914200Y19873000D03*
X34274200Y19873000D03*
%TD*%
D24*
%TO.C,C203*%
X32175571Y20544468D03*
X32175571Y19904468D03*
%TD*%
D38*
%TO.C,R72*%
X14114519Y22552114D03*
X13094519Y22552114D03*
%TD*%
D23*
%TO.C,C130*%
X43180000Y33700000D03*
X42220000Y33700000D03*
%TD*%
%TO.C,C334*%
X9334519Y11414614D03*
X8374519Y11414614D03*
%TD*%
D27*
%TO.C,C178*%
X31624000Y17680382D03*
X32584000Y17680382D03*
%TD*%
D24*
%TO.C,C217*%
X39850919Y19641814D03*
X39850919Y19001814D03*
%TD*%
D21*
%TO.C,C239*%
X39472294Y15724009D03*
X40112294Y15724009D03*
%TD*%
D26*
%TO.C,C261*%
X46200000Y22880000D03*
X46200000Y23520000D03*
%TD*%
D24*
%TO.C,C268*%
X55804519Y14334614D03*
X55804519Y13694614D03*
%TD*%
D43*
%TO.C,C36*%
X62027981Y15199986D03*
X62027981Y18149986D03*
%TD*%
D21*
%TO.C,C259*%
X47977519Y18930814D03*
X48617519Y18930814D03*
%TD*%
D49*
%TO.C,R33*%
X55865143Y15403990D03*
X55143895Y16125238D03*
%TD*%
D26*
%TO.C,C125*%
X28600000Y21005000D03*
X28600000Y21645000D03*
%TD*%
D19*
%TO.C,C9*%
X67127981Y38917486D03*
X67127981Y37957486D03*
%TD*%
D50*
%TO.C,C256*%
X52423919Y22991814D03*
X52423919Y24541814D03*
%TD*%
D27*
%TO.C,C276*%
X14379519Y20620014D03*
X15339519Y20620014D03*
%TD*%
D20*
%TO.C,C294*%
X28548000Y30967000D03*
X27908000Y30967000D03*
%TD*%
%TO.C,C270*%
X55737519Y20920814D03*
X55097519Y20920814D03*
%TD*%
%TO.C,C243*%
X29264519Y18542476D03*
X28624519Y18542476D03*
%TD*%
D48*
%TO.C,C66*%
X8532800Y26879400D03*
X8532800Y23929400D03*
%TD*%
D27*
%TO.C,C157*%
X40224000Y12521069D03*
X41184000Y12521069D03*
%TD*%
D26*
%TO.C,C301*%
X17372000Y36743000D03*
X17372000Y37383000D03*
%TD*%
D20*
%TO.C,C113*%
X29820000Y25000000D03*
X29180000Y25000000D03*
%TD*%
D26*
%TO.C,C209*%
X33386356Y17617614D03*
X33386356Y18257614D03*
%TD*%
D21*
%TO.C,C292*%
X27745400Y35539000D03*
X28385400Y35539000D03*
%TD*%
D26*
%TO.C,C225*%
X29907000Y16307000D03*
X29907000Y16947000D03*
%TD*%
D50*
%TO.C,C267*%
X55454519Y17839614D03*
X55454519Y19389614D03*
%TD*%
D51*
%TO.C,C146*%
X37110126Y11813074D03*
X37562674Y11360526D03*
%TD*%
D24*
%TO.C,C119*%
X27250000Y16270000D03*
X27250000Y15630000D03*
%TD*%
%TO.C,C250*%
X31915119Y16819272D03*
X31915119Y16179272D03*
%TD*%
D26*
%TO.C,C135*%
X37000000Y24271600D03*
X37000000Y24911600D03*
%TD*%
D21*
%TO.C,C167*%
X36340000Y13670000D03*
X36980000Y13670000D03*
%TD*%
D20*
%TO.C,C136*%
X26130000Y13640000D03*
X25490000Y13640000D03*
%TD*%
D38*
%TO.C,R40*%
X33614519Y8852114D03*
X32594519Y8852114D03*
%TD*%
D21*
%TO.C,C123*%
X29330000Y20275000D03*
X29970000Y20275000D03*
%TD*%
D23*
%TO.C,C4*%
X64307981Y41337486D03*
X63347981Y41337486D03*
%TD*%
D24*
%TO.C,C248*%
X40304104Y21426269D03*
X40304104Y20786269D03*
%TD*%
D52*
%TO.C,R39*%
X27154519Y21964614D03*
X27875767Y22685862D03*
%TD*%
D21*
%TO.C,C229*%
X38506459Y16417429D03*
X39146459Y16417429D03*
%TD*%
D27*
%TO.C,C337*%
X1949519Y10574614D03*
X2909519Y10574614D03*
%TD*%
D24*
%TO.C,C271*%
X46353400Y14736400D03*
X46353400Y14096400D03*
%TD*%
D44*
%TO.C,FB4*%
X29310000Y33745800D03*
X28340000Y33745800D03*
%TD*%
D27*
%TO.C,C129*%
X34559319Y13757414D03*
X35519319Y13757414D03*
%TD*%
D24*
%TO.C,C187*%
X38983304Y10587454D03*
X38983304Y9947454D03*
%TD*%
D26*
%TO.C,C265*%
X50367519Y19840814D03*
X50367519Y20480814D03*
%TD*%
D24*
%TO.C,C147*%
X35025000Y12270000D03*
X35025000Y11630000D03*
%TD*%
D27*
%TO.C,C3*%
X68347981Y41737486D03*
X69307981Y41737486D03*
%TD*%
D26*
%TO.C,C244*%
X30700000Y18530000D03*
X30700000Y19170000D03*
%TD*%
D20*
%TO.C,C308*%
X20892400Y33761000D03*
X20252400Y33761000D03*
%TD*%
%TO.C,C251*%
X34520000Y34050000D03*
X33880000Y34050000D03*
%TD*%
D24*
%TO.C,C183*%
X30650000Y14370000D03*
X30650000Y13730000D03*
%TD*%
D21*
%TO.C,C242*%
X34263389Y19166344D03*
X34903389Y19166344D03*
%TD*%
%TO.C,C258*%
X53397519Y18420814D03*
X54037519Y18420814D03*
%TD*%
D20*
%TO.C,C238*%
X38708944Y15319514D03*
X38068944Y15319514D03*
%TD*%
D36*
%TO.C,C169*%
X41593000Y10642000D03*
X41593000Y11602000D03*
%TD*%
D27*
%TO.C,C140*%
X32645000Y10525000D03*
X33605000Y10525000D03*
%TD*%
%TO.C,C338*%
X1949519Y8639614D03*
X2909519Y8639614D03*
%TD*%
D21*
%TO.C,C257*%
X46267519Y19030814D03*
X46907519Y19030814D03*
%TD*%
D27*
%TO.C,C310*%
X8202000Y46577000D03*
X9162000Y46577000D03*
%TD*%
D20*
%TO.C,C143*%
X18210000Y11599000D03*
X17570000Y11599000D03*
%TD*%
D21*
%TO.C,C273*%
X48667519Y20375200D03*
X49307519Y20375200D03*
%TD*%
%TO.C,C206*%
X35708014Y16838434D03*
X36348014Y16838434D03*
%TD*%
%TO.C,C222*%
X33660000Y24210000D03*
X34300000Y24210000D03*
%TD*%
D26*
%TO.C,C128*%
X28690000Y10490000D03*
X28690000Y11130000D03*
%TD*%
D21*
%TO.C,C269*%
X45577519Y21160814D03*
X46217519Y21160814D03*
%TD*%
D19*
%TO.C,C336*%
X7259038Y15494614D03*
X7259038Y14534614D03*
%TD*%
D21*
%TO.C,C306*%
X19134800Y33049800D03*
X19774800Y33049800D03*
%TD*%
D37*
%TO.C,C289*%
X-1600000Y42800000D03*
X-1600000Y41250000D03*
%TD*%
D21*
%TO.C,C198*%
X40546919Y18509014D03*
X41186919Y18509014D03*
%TD*%
D20*
%TO.C,R55*%
X36376119Y23385814D03*
X35736119Y23385814D03*
%TD*%
D24*
%TO.C,C164*%
X37700000Y24854614D03*
X37700000Y24214614D03*
%TD*%
D19*
%TO.C,C8*%
X66177981Y38917486D03*
X66177981Y37957486D03*
%TD*%
D23*
%TO.C,C193*%
X28861225Y17707157D03*
X27901225Y17707157D03*
%TD*%
D26*
%TO.C,C204*%
X29950000Y13730000D03*
X29950000Y14370000D03*
%TD*%
D35*
%TO.C,R97*%
X5982500Y7829600D03*
X5982500Y8849600D03*
%TD*%
D21*
%TO.C,C163*%
X35394324Y14576564D03*
X36034324Y14576564D03*
%TD*%
D24*
%TO.C,C126*%
X36500000Y11220000D03*
X36500000Y10580000D03*
%TD*%
D20*
%TO.C,C144*%
X9730000Y38710000D03*
X9090000Y38710000D03*
%TD*%
D23*
%TO.C,C166*%
X35880634Y17630914D03*
X34920634Y17630914D03*
%TD*%
D20*
%TO.C,C228*%
X37693579Y19215874D03*
X37053579Y19215874D03*
%TD*%
%TO.C,C121*%
X29845000Y24250000D03*
X29205000Y24250000D03*
%TD*%
D27*
%TO.C,C322*%
X1949519Y11494614D03*
X2909519Y11494614D03*
%TD*%
D21*
%TO.C,C131*%
X35670119Y20490214D03*
X36310119Y20490214D03*
%TD*%
D27*
%TO.C,C11*%
X68347981Y40737486D03*
X69307981Y40737486D03*
%TD*%
D21*
%TO.C,C175*%
X35625464Y19215874D03*
X36265464Y19215874D03*
%TD*%
D23*
%TO.C,C156*%
X38291094Y14502269D03*
X37331094Y14502269D03*
%TD*%
D21*
%TO.C,C272*%
X53267519Y20610814D03*
X53907519Y20610814D03*
%TD*%
D26*
%TO.C,C181*%
X32561200Y24205000D03*
X32561200Y24845000D03*
%TD*%
D20*
%TO.C,C47*%
X65347981Y19274986D03*
X64707981Y19274986D03*
%TD*%
D24*
%TO.C,C223*%
X31722919Y19166895D03*
X31722919Y18526895D03*
%TD*%
D26*
%TO.C,C291*%
X24672400Y40045000D03*
X24672400Y40685000D03*
%TD*%
D53*
%TO.C,C142*%
X27176274Y13898726D03*
X26723726Y14351274D03*
%TD*%
D23*
%TO.C,C324*%
X9334519Y9514614D03*
X8374519Y9514614D03*
%TD*%
D54*
%TO.C,FB7*%
X8267019Y17052114D03*
X9842019Y17052114D03*
%TD*%
D26*
%TO.C,C300*%
X17372000Y39029000D03*
X17372000Y39669000D03*
%TD*%
D27*
%TO.C,C278*%
X14354519Y21570014D03*
X15314519Y21570014D03*
%TD*%
D20*
%TO.C,C246*%
X37236410Y15331947D03*
X36596410Y15331947D03*
%TD*%
D23*
%TO.C,C173*%
X35280000Y35500000D03*
X34320000Y35500000D03*
%TD*%
D36*
%TO.C,C277*%
X17034519Y20840014D03*
X17034519Y21800014D03*
%TD*%
D25*
%TO.C,R61*%
X45044519Y7914614D03*
X46064519Y7914614D03*
%TD*%
D24*
%TO.C,C296*%
X26770000Y33862600D03*
X26770000Y33222600D03*
%TD*%
D45*
%TO.C,C153*%
X37110045Y21025940D03*
X37562593Y21478488D03*
%TD*%
D23*
%TO.C,C141*%
X28860000Y12000000D03*
X27900000Y12000000D03*
%TD*%
D26*
%TO.C,C199*%
X40403164Y9947454D03*
X40403164Y10587454D03*
%TD*%
D19*
%TO.C,C326*%
X4954519Y15469614D03*
X4954519Y14509614D03*
%TD*%
D24*
%TO.C,C235*%
X30880000Y20560000D03*
X30880000Y19920000D03*
%TD*%
D26*
%TO.C,C118*%
X35725000Y10680000D03*
X35725000Y11320000D03*
%TD*%
D44*
%TO.C,FB3*%
X30353800Y30967000D03*
X29383800Y30967000D03*
%TD*%
D20*
%TO.C,C191*%
X33320000Y27400000D03*
X32680000Y27400000D03*
%TD*%
D24*
%TO.C,C194*%
X31519719Y20556214D03*
X31519719Y19916214D03*
%TD*%
D48*
%TO.C,C70*%
X6094400Y26904800D03*
X6094400Y23954800D03*
%TD*%
D23*
%TO.C,C281*%
X14964519Y15720014D03*
X14004519Y15720014D03*
%TD*%
D52*
%TO.C,R64*%
X52180905Y16505219D03*
X52902153Y17226467D03*
%TD*%
D24*
%TO.C,C260*%
X54237519Y24860814D03*
X54237519Y24220814D03*
%TD*%
D36*
%TO.C,C286*%
X19084519Y18640014D03*
X19084519Y19600014D03*
%TD*%
D44*
%TO.C,FB5*%
X24613400Y31424200D03*
X23643400Y31424200D03*
%TD*%
D55*
%TO.C,FB1*%
X27884519Y18620014D03*
X27884519Y19590014D03*
%TD*%
%LPD*%
M02*
