G04 ================== begin FILE IDENTIFICATION RECORD ==================*
G04 Layout Name:  C:/WORK/2018project/imx8m-revC/FabOutput/LAY-38820_A.brd*
G04 Film Name:    L4_INT_1*
G04 File Format:  Gerber RS274X*
G04 File Origin:  Cadence Allegro 17.2-S037*
G04 Origin Date:  Thu Sep 06 15:25:29 2018*
G04 *
G04 Layer:  VIA CLASS/L4_INT_1*
G04 Layer:  PIN/L4_INT_1*
G04 Layer:  ETCH/L4_INT_1*
G04 Layer:  DRAWING FORMAT/FILM_TITLE_BLOCK*
G04 Layer:  BOARD GEOMETRY/OUTLINE*
G04 *
G04 Offset:    (0.00 0.00)*
G04 Mirror:    No*
G04 Mode:      Positive*
G04 Rotation:  0*
G04 FullContactRelief:  No*
G04 UndefLineWidth:     7.00*
G04 ================== end FILE IDENTIFICATION RECORD ====================*
%FSLAX55Y55*MOIN*%
%IR0*IPPOS*OFA0.00000B0.00000*MIA0B0*SFA1.00000B1.00000*%
%ADD16O,.065X.13*%
%ADD18C,.02*%
%ADD23O,.059X.106*%
%ADD19C,.014*%
%ADD20C,.06*%
%ADD13C,.052*%
%ADD15C,.026*%
%ADD10C,.018*%
%ADD21C,.055*%
%ADD11O,.071X.04*%
%ADD14O,.063X.04*%
%ADD12C,.22*%
%ADD27O,.072X.045*%
%ADD25O,.043X.083*%
%ADD17O,.08X.046*%
%ADD24C,.244*%
%ADD22O,.059X.09*%
%ADD26C,.194*%
%ADD28C,.01*%
%ADD29C,.004*%
%ADD30C,.007*%
%ADD31C,.006*%
%ADD32C,.0045*%
%ADD33C,.0079*%
%ADD35O,.07102X.10202*%
%ADD50O,.06902X.12002*%
%ADD34O,.07102X.11802*%
%ADD36O,.07702X.14202*%
%ADD58C,.02008*%
%ADD56C,.06004*%
%ADD53O,.06904X.12004*%
%ADD47C,.03008*%
%ADD59C,.02208*%
%ADD45C,.07204*%
%ADD60C,.07304*%
%ADD57C,.02408*%
%ADD54C,.09104*%
%ADD43C,.06404*%
%ADD42C,.02608*%
%ADD46C,.06704*%
%ADD55C,.02808*%
%ADD40C,.09306*%
%ADD38C,.06904*%
%ADD37C,.09704*%
%ADD39C,.08904*%
%ADD44C,.10404*%
%ADD41C,.23204*%
%ADD49C,.20604*%
%ADD61C,.18204*%
%ADD48C,.25604*%
%ADD51O,.06402X.08702*%
%ADD52O,.06404X.08704*%
G75*
%LPD*%
G75*
G36*
G01X-13000Y-13500D02*
X-13500Y-13000D01*
Y73500D01*
X-13238Y73762D01*
X-13030Y73554D01*
X-13039Y73461D01*
G03X-10448Y70622I2591J-237D01*
G01X-7348D01*
G03X-4767Y73550I0J2602D01*
G02X-4370Y74000I397J50D01*
G01X9061D01*
G02X9458Y73550I0J-400D01*
G03X9463Y72861I2581J-326D01*
G02X8839Y72476I-396J-56D01*
G03X10006Y70642I-1595J-2303D01*
G02X10619Y71044I394J67D01*
G03X12039Y70622I1421J2180D01*
G01X14339D01*
G03X16920Y73550I0J2602D01*
G02X17317Y74000I397J50D01*
G01X18500D01*
X24405Y68095D01*
G02X24140Y67412I-282J-283D01*
G03X23086Y66870I60J-1412D01*
G01X23079Y66861D01*
X22024Y65806D01*
X21946Y65803D01*
G03X21007Y63655I54J-1303D01*
G03X23457Y63275I1329J481D01*
G01X24317Y64135D01*
G02X25000Y63852I283J-283D01*
G01Y58500D01*
X23967Y57467D01*
G03X21597Y56264I-967J-1031D01*
G01X21598Y56251D01*
Y53985D01*
X21597Y53972D01*
G03X22389Y52525I1403J-172D01*
G02X22599Y52048I-173J-361D01*
G03X22548Y51464I1352J-412D01*
G01X22550Y51451D01*
Y49185D01*
X22548Y49172D01*
G03X24283Y47626I1403J-172D01*
G03X24530Y47646I19J1304D01*
G02X25000Y47253I70J-394D01*
G01Y46000D01*
X23973Y44973D01*
X23862Y45002D01*
G03X22097Y43464I-362J-1366D01*
G01X22098Y43451D01*
Y43254D01*
X21930Y43227D01*
G03X22134Y40635I204J-1288D01*
G03X22787Y39780I1365J366D01*
G03X24531Y38049I1483J-250D01*
G02X25000Y37655I69J-394D01*
G01Y34095D01*
G02X24459Y33720I-400J0D01*
G03Y31280I-459J-1220D01*
G02X25000Y30905I141J-375D01*
G01Y14500D01*
X43000Y-3500D01*
X117377D01*
G03X119568Y-3559I1123J1000D01*
G01X119626Y-3500D01*
X119972D01*
X120028Y-3547D01*
G03X122026Y-3500I973J1147D01*
G01X141500D01*
X145500Y500D01*
Y38500D01*
X165500Y58500D01*
X223184D01*
X223208Y58327D01*
G03X224679Y57208I1292J173D01*
G01X224778Y57222D01*
X228500Y53500D01*
Y49210D01*
X228393Y49154D01*
G03Y46846I607J-1154D01*
G01X228500Y46790D01*
Y46210D01*
X228393Y46154D01*
G03Y43846I607J-1154D01*
G01X228500Y43790D01*
Y43410D01*
X228393Y43354D01*
G03Y41046I607J-1154D01*
G01X228500Y40990D01*
Y28500D01*
X231500Y25500D01*
X245000D01*
X249000Y29500D01*
Y93000D01*
X257032Y101032D01*
G02X257710Y100808I282J-283D01*
G03X259192Y102290I1290J192D01*
G02X258968Y102968I59J396D01*
G01X285532Y129532D01*
G02X286210Y129308I282J-283D01*
G03X287692Y130790I1290J192D01*
G02X287468Y131468I59J396D01*
G01X290500Y134500D01*
Y140377D01*
G03Y142623I-1000J1123D01*
G01Y145897D01*
G03Y146103I-1500J103D01*
G01Y230500D01*
X287002Y233998D01*
G02X286983Y234543I283J283D01*
G03X285143Y236383I-983J857D01*
G02X284598Y236402I-262J302D01*
G01X269500Y251500D01*
X227500D01*
X226000Y253000D01*
Y274163D01*
G03Y275837I-1000J837D01*
G01Y286927D01*
G02X226722Y287164I400J0D01*
G03Y297946I7333J5391D01*
G02X226000Y298183I-322J237D01*
G01Y308000D01*
X213000Y321000D01*
Y343000D01*
X202000Y354000D01*
Y362000D01*
X199500Y364500D01*
X172000D01*
X166000Y358500D01*
X112816D01*
X112792Y358673D01*
G03X110208I-1292J-173D01*
G01X110184Y358500D01*
X94201D01*
G02X93802Y358923I0J400D01*
G03X91543Y359886I-1302J77D01*
G02X90957I-293J272D01*
G03X88698Y358923I-957J-886D01*
G02X88299Y358500I-399J-23D01*
G01X47000D01*
X36000Y347500D01*
Y339500D01*
X34500Y338000D01*
X20915D01*
G02X20518Y338448I0J400D01*
G03X11482I-4518J548D01*
G02X11085Y338000I-397J-48D01*
G01X-12500D01*
X-13500Y339000D01*
Y375000D01*
X-13000Y375500D01*
X12500D01*
X13000Y376000D01*
X23500D01*
Y375186D01*
G02X22995Y374800I-400J0D01*
G03X22235Y374902I-763J-2800D01*
G01X18835D01*
G03Y369098I0J-2902D01*
G01X22235D01*
G03X24474Y373846I0J2902D01*
G02X24782Y374500I309J254D01*
G01X33218D01*
G02X33526Y373846I-1J-400D01*
G03X35765Y369098I2239J-1846D01*
G01X39165D01*
G03Y374902I0J2902D01*
G01X35765D01*
G03X35005Y374800I3J-2902D01*
G02X34500Y375186I-105J386D01*
G01Y376000D01*
X50999D01*
X51047Y375952D01*
X264953D01*
X265000Y375999D01*
X265656D01*
X265732Y375952D01*
X275500D01*
X275548Y376000D01*
X292371D01*
G02X292559Y375247I0J-400D01*
G03X303441I5441J-10247D01*
G02X303629Y376000I188J353D01*
G01X317500D01*
Y375186D01*
G02X316995Y374800I-400J0D01*
G03X316235Y374902I-763J-2800D01*
G01X312835D01*
G03Y369098I0J-2902D01*
G01X316235D01*
G03X318474Y373846I0J2902D01*
G02X318782Y374500I309J254D01*
G01X327218D01*
G02X327526Y373846I-1J-400D01*
G03X329765Y369098I2239J-1846D01*
G01X333165D01*
G03Y374902I0J2902D01*
G01X329765D01*
G03X329005Y374800I3J-2902D01*
G02X328500Y375186I-105J386D01*
G01Y376000D01*
X337998D01*
Y360002D01*
X333498D01*
Y351498D01*
X373502D01*
Y376000D01*
X375000D01*
X376000Y375000D01*
Y329502D01*
X360002D01*
Y334002D01*
X351498D01*
Y296498D01*
X376000D01*
Y141000D01*
X376500Y140500D01*
Y97000D01*
X375500Y96000D01*
Y-13000D01*
X375000Y-13500D01*
X350000D01*
Y-10500D01*
X347453D01*
G02X347078Y-9960I0J400D01*
G03X347252Y-9000I-2577J963D01*
G01Y-5000D01*
G03X341748I-2752J0D01*
G01Y-9000D01*
G03X341922Y-9960I2751J3D01*
G02X341547Y-10500I-375J-140D01*
G01X327374D01*
G02X326999Y-9960I0J400D01*
G03X327172Y-9000I-2577J960D01*
G01Y-5000D01*
G03X321670I-2751J0D01*
G01Y-9000D01*
G03X321843Y-9960I2750J0D01*
G02X321468Y-10500I-375J-140D01*
G01X317500D01*
Y-13500D01*
X-13000D01*
G37*
G36*
G01X84280Y-1459D02*
G02X83906Y-2000I-375J-141D01*
G01X57594D01*
G02X57220Y-1459I1J400D01*
G03X54780I-1220J459D01*
G02X54406Y-2000I-375J-141D01*
G01X43500D01*
X26143Y15357D01*
X26197Y15482D01*
G03X26000Y16837I-1197J518D01*
G01Y18163D01*
G03Y19837I-1000J837D01*
G01Y21663D01*
G03Y23337I-1000J837D01*
G01Y27905D01*
G02X26541Y28280I400J0D01*
G03Y30720I459J1220D01*
G02X26000Y31095I-141J375D01*
G01Y47283D01*
G02X26470Y47676I400J-1D01*
G03X28003Y48912I230J1284D01*
G02X28415Y49297I400J-15D01*
G03X27150Y50648I38J1303D01*
G02X26738Y50263I-400J15D01*
G03X26470Y50244I-42J-1303D01*
G02X26000Y50637I-70J394D01*
G01Y55542D01*
G03Y57858I-600J1158D01*
G01Y62999D01*
G02X26423Y63398I400J0D01*
G03Y66002I77J1302D01*
G02X26000Y66401I-23J399D01*
G01Y68000D01*
X18500Y75500D01*
X15599D01*
G03X14339Y75826I-1261J-2276D01*
G01X12039D01*
G03X10779Y75500I1J-2602D01*
G01X-6088D01*
G03X-7348Y75826I-1261J-2276D01*
G01X-9826D01*
X-11000Y77000D01*
Y85163D01*
G03Y86837I-1000J837D01*
G01Y99663D01*
G03Y101337I-1000J837D01*
G01Y112163D01*
G03Y113837I-1000J837D01*
G01Y116163D01*
G03Y117837I-1000J837D01*
G01Y127156D01*
G02X-10286Y127403I400J-1D01*
G03Y131786I2786J2191D01*
G02X-11000Y132033I-314J248D01*
G01Y138965D01*
G02X-10286Y139212I400J0D01*
G03Y143599I2786J2194D01*
G02X-11000Y143846I-314J247D01*
G01Y254066D01*
G02X-10374Y254396I400J0D01*
G03Y259682I1807J2643D01*
G02X-11000Y260012I-226J330D01*
G01Y330500D01*
X-5000Y336500D01*
X12194D01*
G03X19806I3806J2496D01*
G01X35000D01*
X36500Y335000D01*
Y210500D01*
X38500Y208500D01*
Y203210D01*
X38393Y203154D01*
G03Y200846I607J-1154D01*
G01X38500Y200790D01*
Y199210D01*
X38393Y199154D01*
G03Y196846I607J-1154D01*
G01X38500Y196790D01*
Y194410D01*
X38393Y194354D01*
G03Y192046I607J-1154D01*
G01X38500Y191990D01*
Y190710D01*
X38393Y190654D01*
G03Y188346I607J-1154D01*
G01X38500Y188290D01*
Y183500D01*
X33500Y178500D01*
X28337D01*
G03X26208Y177321I-837J-1000D01*
G01X26222Y177222D01*
X19506Y170506D01*
X19430Y170502D01*
G03X18500Y168363I70J-1302D01*
G01Y166325D01*
G03Y164329I673J-998D01*
G01Y163602D01*
X18400Y163544D01*
G03X17800Y162400I600J-1044D01*
G01X17808Y162308D01*
X13500Y158000D01*
Y110000D01*
X27532Y95968D01*
G02X27308Y95290I-283J-282D01*
G03X28790Y93808I192J-1290D01*
G02X29468Y94032I396J-59D01*
G01X34500Y89000D01*
X38663D01*
G03X40337I837J1000D01*
G01X70682D01*
X70737Y88887D01*
G03X73263I1263J613D01*
G01X73318Y89000D01*
X73790D01*
X73846Y88893D01*
G03X76154I1154J607D01*
G01X76210Y89000D01*
X77290D01*
X77346Y88893D01*
G03X79654I1154J607D01*
G01X79710Y89000D01*
X80290D01*
X80346Y88893D01*
G03X82654I1154J607D01*
G01X82710Y89000D01*
X83500D01*
X88500Y94000D01*
X92163D01*
G03X93837I837J1000D01*
G01X97199D01*
G02X97504Y93342I0J-400D01*
G03X99496I996J-842D01*
G02X99801Y94000I305J258D01*
G01X104429D01*
G02X104797Y93445I-1J-400D01*
G03X107203I1203J-504D01*
G02X107571Y94000I369J155D01*
G01X136906D01*
G02X137280Y93459I-1J-400D01*
G03X139720I1220J-459D01*
G02X140094Y94000I375J141D01*
G01X141906D01*
G02X142280Y93459I-1J-400D01*
G03X144720I1220J-459D01*
G02X145094Y94000I375J141D01*
G01X157906D01*
G02X158280Y93459I-1J-400D01*
G03X160720I1220J-459D01*
G02X161094Y94000I375J141D01*
G01X167699D01*
G02X168004Y93342I0J-400D01*
G03X169996I996J-842D01*
G02X170301Y94000I305J258D01*
G01X181663D01*
G03X183337I837J1000D01*
G01X189290D01*
X189346Y93893D01*
G03X191654I1154J607D01*
G01X191710Y94000D01*
X221274D01*
G02X221673Y93582I0J-400D01*
G03X224279I1303J-58D01*
G02X224678Y94000I399J18D01*
G01X245000D01*
X247500Y91500D01*
Y65094D01*
G02X246959Y64720I-400J1D01*
G03Y62280I-459J-1220D01*
G02X247500Y61906I141J-375D01*
G01Y30500D01*
X244500Y27500D01*
X232000D01*
X230000Y29500D01*
Y41363D01*
G03Y43037I-1000J837D01*
G01Y44163D01*
G03Y45837I-1000J837D01*
G01Y47163D01*
G03Y48837I-1000J837D01*
G01Y53500D01*
X225643Y57857D01*
X225697Y57982D01*
G03X223663Y59500I-1197J518D01*
G01X177594D01*
G02X177220Y60041I1J400D01*
G03X174780I-1220J459D01*
G02X174406Y59500I-375J-141D01*
G01X170094D01*
G02X169720Y60041I1J400D01*
G03X167280I-1220J459D01*
G02X166906Y59500I-375J-141D01*
G01X163500D01*
X153143Y49143D01*
X153018Y49197D01*
G03X151303Y47482I-518J-1197D01*
G01X151357Y47357D01*
X143500Y39500D01*
X144000Y39000D01*
Y1500D01*
X140500Y-2000D01*
X122248D01*
X122196Y-1880D01*
G03X120008Y-1554I-1196J-520D01*
G02X119421Y-1577I-304J260D01*
G03X117346Y-1893I-921J-923D01*
G01X117290Y-2000D01*
X87094D01*
G02X86720Y-1459I1J400D01*
G03X84840Y125I-1220J459D01*
G02X84253Y360I-202J345D01*
G03X83660Y-1125I-1253J-360D01*
G02X84247Y-1360I202J-345D01*
G03X84280Y-1459I1252J362D01*
G37*
G36*
G01X64296Y177500D02*
G02X64696Y177100I0J-400D01*
G03X67304I1304J0D01*
G02X67704Y177500I400J0D01*
G01X86500D01*
X89000Y175000D01*
Y170801D01*
G02X88342Y170496I-400J0D01*
G03Y168504I-842J-996D01*
G02X89000Y168199I258J-305D01*
G01Y167301D01*
G02X88342Y166996I-400J0D01*
G03Y165004I-842J-996D01*
G02X89000Y164699I258J-305D01*
G01Y139816D01*
X88827Y139792D01*
G03Y137208I173J-1292D01*
G01X89000Y137184D01*
Y133801D01*
G02X88342Y133496I-400J0D01*
G03X87751Y131220I-842J-996D01*
G02X88220Y130751I77J-392D01*
G03X88893Y129346I1280J-251D01*
G01X89000Y129290D01*
Y121837D01*
G03Y120163I1000J-837D01*
G01Y118444D01*
G03Y116556I900J-944D01*
G01Y113316D01*
X88827Y113292D01*
G03X88242Y110939I173J-1292D01*
G02X88313Y110352I-232J-326D01*
G03X88414Y108543I987J-852D01*
G02Y107957I-272J-293D01*
G03X88496Y105973I886J-957D01*
G02X88543Y105386I-246J-315D01*
G03X88893Y103346I957J-886D01*
G01X89000Y103290D01*
Y97000D01*
X85861Y93861D01*
X85731Y93928D01*
G03X83572Y91769I-731J-1428D01*
G01X83639Y91639D01*
X82571Y90571D01*
X82431Y90681D01*
G03X80377Y90500I-931J-1181D01*
G01X79623D01*
G03X77377I-1123J-1000D01*
G01X76123D01*
G03X73877I-1123J-1000D01*
G01X73254D01*
G03X70746I-1254J-1000D01*
G01X40710D01*
X40654Y90607D01*
G03X38346I-1154J-607D01*
G01X38290Y90500D01*
X34500D01*
X14500Y110500D01*
Y156500D01*
X19346Y161346D01*
X19390Y161361D01*
G03X20139Y162110I-390J1139D01*
G01X20154Y162154D01*
X20500Y162500D01*
Y168363D01*
G03X20607Y169889I-1000J837D01*
G01X20523Y170023D01*
X26500Y176000D01*
X32663D01*
G03X34792Y177179I837J1000D01*
G01X34778Y177278D01*
X35777Y178277D01*
X35911Y178193D01*
G03X37707Y179989I689J1107D01*
G01X37623Y180123D01*
X40500Y183000D01*
Y208500D01*
X42000Y210000D01*
X55514D01*
G03X57486I986J1000D01*
G01X62500D01*
X64500Y208000D01*
Y200500D01*
X52000Y188000D01*
Y179500D01*
X54000Y177500D01*
X64296D01*
G37*
G36*
G01X49302Y357077D02*
G02X49701Y357500I399J23D01*
G01X103408D01*
X103432Y357494D01*
G03X104080I324J1262D01*
G01X104104Y357500D01*
X106663D01*
G03X108337I837J1000D01*
G01X110663D01*
G03X112337I837J1000D01*
G01X168500D01*
X175560Y350440D01*
G03X179699Y349500I2440J1160D01*
G01X181301D01*
G03X184699I1699J2100D01*
G01X186301D01*
G03X189699I1699J2100D01*
G01X191301D01*
G03X194699I1699J2100D01*
G01X196301D01*
G03X199699I1699J2100D01*
G01X203500D01*
X211000Y342000D01*
Y324500D01*
X206500Y320000D01*
X191000D01*
X190486Y319486D01*
X190369Y319525D01*
G03X189101Y318257I-315J-953D01*
G01X189140Y318140D01*
X187426Y316426D01*
X187359Y316417D01*
G03X186498Y315316I137J-994D01*
G01X186499Y315306D01*
Y315303D01*
X186500Y315291D01*
Y312402D01*
X186499Y312390D01*
Y312387D01*
G03Y312159I996J-114D01*
G01Y312156D01*
X186500Y312144D01*
Y309852D01*
X186499Y309840D01*
Y309837D01*
G03Y309609I996J-114D01*
G01Y309606D01*
X186500Y309594D01*
Y298129D01*
X186499Y298117D01*
Y298114D01*
G03Y297886I996J-114D01*
G01Y297883D01*
X186500Y297871D01*
Y293500D01*
X184816Y291816D01*
X184754Y291804D01*
X184753D01*
G03X183989Y290486I183J-987D01*
G01X184000Y290454D01*
Y288030D01*
X183989Y287998D01*
G03Y287336I947J-331D01*
G01X184000Y287304D01*
Y263947D01*
X183826Y263924D01*
G03Y261934I131J-995D01*
G01X184000Y261911D01*
Y261388D01*
X183826Y261365D01*
G03Y259373I130J-996D01*
G01X184000Y259350D01*
Y258830D01*
X183826Y258807D01*
G03Y256815I130J-996D01*
G01X184000Y256792D01*
Y256270D01*
X183826Y256247D01*
G03Y254255I130J-996D01*
G01X184000Y254232D01*
Y253000D01*
X185500Y251500D01*
Y232000D01*
X184500Y231000D01*
X181500D01*
X181132Y230632D01*
X181086Y230617D01*
G03X180899Y228790I311J-955D01*
G01X181000Y228732D01*
Y228033D01*
X180899Y227975D01*
G03Y226231I498J-872D01*
G01X181000Y226173D01*
Y225474D01*
X180899Y225416D01*
G03Y223672I498J-872D01*
G01X181000Y223614D01*
Y222915D01*
X180899Y222857D01*
G03Y221113I498J-872D01*
G01X181000Y221055D01*
Y218500D01*
X180231Y217731D01*
X179352D01*
X179309Y217754D01*
G03X178369I-470J-887D01*
G01X178326Y217731D01*
X176793D01*
X176750Y217754D01*
G03X175810I-470J-887D01*
G01X175767Y217731D01*
X171674D01*
X171630Y217754D01*
G03X170694I-468J-888D01*
G01X170650Y217731D01*
X169115D01*
X169071Y217754D01*
G03X168135I-468J-888D01*
G01X168091Y217731D01*
X163998D01*
X163955Y217754D01*
G03X163015I-470J-887D01*
G01X162972Y217731D01*
X158880D01*
X158837Y217754D01*
G03X157897I-470J-887D01*
G01X157854Y217731D01*
X156321D01*
X156278Y217754D01*
G03X155338I-470J-887D01*
G01X155295Y217731D01*
X153762D01*
X153719Y217754D01*
G03X152779I-470J-887D01*
G01X152736Y217731D01*
X151203D01*
X151160Y217754D01*
G03X150220I-470J-887D01*
G01X150177Y217731D01*
X148644D01*
X148601Y217754D01*
G03X147661I-470J-887D01*
G01X147618Y217731D01*
X147231D01*
X134000Y204500D01*
X87817D01*
G03X85683I-1067J-750D01*
G01X70000D01*
X63500Y211000D01*
X57915D01*
X57893Y211175D01*
G03X55107I-1393J-175D01*
G01X55085Y211000D01*
X38500D01*
X37500Y212000D01*
Y346500D01*
X47070Y356070D01*
X47209Y355964D01*
G03X49302Y357077I791J1036D01*
G37*
G36*
G01X54500Y179500D02*
X53000Y181000D01*
Y187500D01*
X64047Y198547D01*
G02X64722Y198343I283J-283D01*
G03X66257Y199878I1278J257D01*
G02X66053Y200553I79J392D01*
G01X69000Y203500D01*
X85462D01*
X85506Y203360D01*
G03X87994I1244J390D01*
G01X88038Y203500D01*
X134000D01*
X147628Y217128D01*
X151852D01*
G02X152250Y216767I0J-400D01*
G03X154252Y216917I999J100D01*
G01X154251Y216922D01*
Y217128D01*
X154806D01*
Y216922D01*
X154805Y216917D01*
G03X156811I1003J-50D01*
G01X156810Y216922D01*
Y217128D01*
X157365D01*
Y216922D01*
X157364Y216917D01*
G03X159366Y216767I1003J-50D01*
G02X159764Y217128I398J-39D01*
G01X167206D01*
G02X167604Y216767I0J-400D01*
G03X169606Y216917I999J98D01*
G01X169605Y216922D01*
Y217128D01*
X170160D01*
Y216922D01*
X170159Y216917D01*
G03X172161Y216767I1003J-52D01*
G02X172559Y217128I398J-39D01*
G01X174883D01*
G02X175281Y216767I0J-400D01*
G03X177283Y216917I999J100D01*
G01X177282Y216922D01*
Y217128D01*
X177837D01*
Y216922D01*
X177836Y216917D01*
G03X179842I1003J-50D01*
G01X179841Y216922D01*
Y217128D01*
X180396D01*
Y216922D01*
X180395Y216917D01*
G03X180899Y215996I1003J-50D01*
G01X181000Y215938D01*
Y215237D01*
X180899Y215180D01*
G03Y213436I498J-872D01*
G01X181000Y213379D01*
Y212678D01*
X180899Y212621D01*
G03Y210877I498J-872D01*
G01X181000Y210820D01*
Y210119D01*
X180899Y210062D01*
G03Y208318I498J-872D01*
G01X181000Y208261D01*
Y200000D01*
X171000Y190000D01*
X95000D01*
X84500Y179500D01*
X54500D01*
G37*
G36*
G01X288500Y147210D02*
X288393Y147154D01*
G03X287854Y146623I606J-1155D01*
G02X287386Y146432I-351J191D01*
G03X286800Y146483I-413J-1352D01*
G01X286787Y146482D01*
X284521D01*
X284508Y146483D01*
X284504D01*
G03X283721Y146353I-169J-1403D01*
G02X283184Y146546I-174J360D01*
G03X282494Y144793I-1184J-546D01*
G02X283018Y144568I151J-370D01*
G03X284504Y143677I1317J512D01*
G01X284508D01*
X284521Y143678D01*
X286787D01*
X286800Y143677D01*
X286804D01*
G03X287851Y143973I169J1403D01*
G02X288500Y143660I249J-313D01*
G01Y142623D01*
G03Y140377I1000J-1123D01*
G01Y134500D01*
X278500Y124500D01*
X277500D01*
X266143Y113143D01*
X266018Y113197D01*
G03X264303Y111482I-518J-1197D01*
G01X264357Y111357D01*
X255278Y102278D01*
X255179Y102292D01*
G03X253708Y100821I-179J-1292D01*
G01X253722Y100722D01*
X248500Y95500D01*
X207129D01*
G02X206747Y96017I0J400D01*
G03X204253I-1247J383D01*
G02X203871Y95500I-382J-117D01*
G01X191337D01*
G03X189663I-837J-1000D01*
G01X183710D01*
X183654Y95607D01*
G03X181346I-1154J-607D01*
G01X181290Y95500D01*
X172315D01*
X172292Y95673D01*
G03X171886Y96457I-1292J-172D01*
G02Y97043I272J293D01*
G03X170766Y99283I-886J957D01*
G02X170297Y99635I-71J394D01*
G03X169234Y98217I-1297J-135D01*
G02X169703Y97865I71J-394D01*
G03X170114Y97043I1297J135D01*
G02Y96457I-272J-293D01*
G03X169708Y95673I886J-956D01*
G01X169685Y95500D01*
X161178D01*
G02X160779Y95882I0J400D01*
G03X158173I-1303J-58D01*
G02X157774Y95500I-399J18D01*
G01X155118D01*
G02X154744Y96041I1J400D01*
G03X152304I-1220J459D01*
G02X151930Y95500I-375J-141D01*
G01X118977D01*
G02X118584Y95970I1J400D01*
G03X117447Y97496I-1284J230D01*
G02X117118Y98036I45J398D01*
G03X114680Y98960I-1218J464D01*
G02X114117Y98749I-374J142D01*
G03X114720Y97140I-617J-1149D01*
G02X115283Y97351I374J-142D01*
G03X115753Y97204I617J1149D01*
G02X116082Y96664I-45J-398D01*
G03X116016Y95970I1218J-466D01*
G02X115623Y95500I-394J-70D01*
G01X98000D01*
X96000Y97500D01*
X92500D01*
X90500Y99500D01*
Y102000D01*
X90750Y102250D01*
Y104129D01*
X90757Y104155D01*
G03Y104845I-1257J345D01*
G01X90750Y104871D01*
Y116511D01*
G03Y118489I-850J989D01*
G01Y119933D01*
G03Y122067I-750J1067D01*
G01Y130129D01*
X90757Y130155D01*
G03Y130845I-1257J345D01*
G01X90750Y130871D01*
Y183750D01*
X95500Y188500D01*
X171000D01*
X182000Y199500D01*
Y208387D01*
G03Y209993I-603J803D01*
G01Y210946D01*
G03Y212552I-603J803D01*
G01Y213505D01*
G03Y215111I-603J803D01*
G01Y216064D01*
G03Y217670I-602J803D01*
G01Y221182D01*
G03Y222788I-603J803D01*
G01Y223741D01*
G03Y225347I-603J803D01*
G01Y226300D01*
G03Y227906I-603J803D01*
G01Y228859D01*
G03X182393Y229784I-603J802D01*
G01Y229785D01*
X182382Y229882D01*
X182896Y230396D01*
X184750D01*
X184853Y230500D01*
X185500D01*
X187000Y232000D01*
Y233900D01*
G03Y235658I-485J879D01*
G01Y236458D01*
G03Y238218I-484J880D01*
G01Y244136D01*
G03Y245894I-485J879D01*
G01Y246695D01*
G03Y248453I-485J879D01*
G01Y249000D01*
X187500Y249500D01*
X188295D01*
G03X189853I779J633D01*
G01X190854D01*
G03X192412I779J633D01*
G01X193414D01*
G03X194972I779J633D01*
G01X195972D01*
G03X197530I779J633D01*
G01X198532D01*
G03X200090I779J633D01*
G01X201091D01*
G03X202612Y249457I779J633D01*
G03X203398Y249172I787J943D01*
G01X209109D01*
X209437Y249500D01*
X253290D01*
X253346Y249393D01*
G03X255654I1154J607D01*
G01X255710Y249500D01*
X269000D01*
X285070Y233430D01*
X284964Y233291D01*
G03X286922Y231578I1035J-792D01*
G01X288500Y230000D01*
Y195804D01*
G02X287836Y195504I-400J1D01*
G03Y193544I-860J-980D01*
G02X288500Y193244I264J-301D01*
G01Y147210D01*
G37*
%LPC*%
G75*
G36*
G01X372850Y132746D02*
X370150D01*
G02Y138450I0J2852D01*
G01X372850D01*
G02Y132746I0J-2852D01*
G37*
G36*
G01Y107550D02*
X370150D01*
G02Y113254I0J2852D01*
G01X372850D01*
G02Y107550I0J-2852D01*
G37*
G36*
G01X-7348Y35190D02*
X-10448D01*
G02Y40392I0J2601D01*
G01X-7348D01*
G02Y35190I0J-2601D01*
G37*
G36*
G01X363606Y133616D02*
X363617Y133614D01*
G02X365837Y130874I-581J-2740D01*
G02X363629Y128136I-2802J0D01*
G01X363618Y128134D01*
Y128766D01*
X361189D01*
G02X361049Y132850I1846J2108D01*
G01X363606D01*
Y133616D01*
G37*
G36*
G01X363617Y112386D02*
X363606Y112384D01*
Y113150D01*
X361049D01*
G02X361189Y117234I1986J1976D01*
G01X363618D01*
Y117866D01*
X363629Y117864D01*
G02X363617Y112386I-594J-2738D01*
G37*
G36*
G01X354597Y120536D02*
X354598Y120549D01*
Y122815D01*
X354597Y122828D01*
G02X357403I1403J172D01*
G01X357402Y122815D01*
Y120549D01*
X357403Y120536D01*
G02X354597I-1403J-172D01*
G37*
G36*
G01X330106Y143045D02*
X330093Y143046D01*
X327827D01*
X327814Y143045D01*
G02Y145851I-172J1403D01*
G01X327827Y145850D01*
X330093D01*
X330106Y145851D01*
G02Y143045I172J-1403D01*
G37*
G36*
G01X330264Y133938D02*
X330251Y133940D01*
X327985D01*
X327972Y133938D01*
G02Y136744I-172J1403D01*
G01X327985Y136742D01*
X330251D01*
X330264Y136744D01*
G02Y133938I172J-1403D01*
G37*
G36*
G01X299403Y48964D02*
X299402Y48951D01*
Y46685D01*
X299403Y46672D01*
G02X296597I-1403J-172D01*
G01X296598Y46685D01*
Y48951D01*
X296597Y48964D01*
G02X299403I1403J172D01*
G37*
G36*
G01X289756Y274836D02*
X289758Y274849D01*
Y277115D01*
X289756Y277128D01*
G02X292562I1403J172D01*
G01X292560Y277115D01*
Y274849D01*
X292562Y274836D01*
G02X289756I-1403J-172D01*
G37*
G36*
G01X280938D02*
X280940Y274849D01*
Y277115D01*
X280938Y277128D01*
G02X283744I1403J172D01*
G01X283742Y277115D01*
Y274849D01*
X283744Y274836D01*
G02X280938I-1403J-172D01*
G37*
G36*
G01X289756Y264836D02*
X289758Y264849D01*
Y267115D01*
X289756Y267128D01*
G02X292562I1403J172D01*
G01X292560Y267115D01*
Y264849D01*
X292562Y264836D01*
G02X289756I-1403J-172D01*
G37*
G36*
G01X287336Y63903D02*
X287349Y63902D01*
X289615D01*
X289628Y63903D01*
G02Y61097I172J-1403D01*
G01X289615Y61098D01*
X287349D01*
X287336Y61097D01*
G02Y63903I-172J1403D01*
G37*
G36*
G01X283803Y49364D02*
X283802Y49351D01*
Y47085D01*
X283803Y47072D01*
G02X280997I-1403J-172D01*
G01X280998Y47085D01*
Y49351D01*
X280997Y49364D01*
G02X283803I1403J172D01*
G37*
G36*
G01X269053Y264836D02*
X269054Y264849D01*
Y267115D01*
X269053Y267128D01*
G02X271859I1403J172D01*
G01X271858Y267115D01*
Y264849D01*
X271859Y264836D01*
G02X269053I-1403J-172D01*
G37*
G36*
G01X277903Y67964D02*
X277902Y67951D01*
Y65685D01*
X277903Y65672D01*
G02X275097I-1403J-172D01*
G01X275098Y65685D01*
Y67951D01*
X275097Y67964D01*
G02X277903I1403J172D01*
G37*
G36*
G01X271336Y63903D02*
X271349Y63902D01*
X273615D01*
X273628Y63903D01*
G02Y61097I172J-1403D01*
G01X273615Y61098D01*
X271349D01*
X271336Y61097D01*
G02Y63903I-172J1403D01*
G37*
G36*
G01X279336D02*
X279349Y63902D01*
X281615D01*
X281628Y63903D01*
G02Y61097I172J-1403D01*
G01X281615Y61098D01*
X279349D01*
X279336Y61097D01*
G02Y63903I-172J1403D01*
G37*
G36*
G01X280536Y37403D02*
X280549Y37402D01*
X282815D01*
X282828Y37403D01*
G02Y34597I172J-1403D01*
G01X282815Y34598D01*
X280549D01*
X280536Y34597D01*
G02Y37403I-172J1403D01*
G37*
G36*
G01X257836Y9403D02*
X257849Y9402D01*
X260115D01*
X260128Y9403D01*
G02Y6597I172J-1403D01*
G01X260115Y6598D01*
X257849D01*
X257836Y6597D01*
G02Y9403I-172J1403D01*
G37*
G36*
G01X299467Y347403D02*
G03X300053Y347397I296J269D01*
G02X300033Y345625I947J-897D01*
G03X299447Y345631I-296J-269D01*
G02X299467Y347403I-947J897D01*
G37*
G36*
G01X370802Y347302D02*
Y339698D01*
X370048D01*
Y339988D01*
X360698D01*
Y339998D01*
X356498D01*
Y347002D01*
X360698D01*
Y347012D01*
X370048D01*
Y347302D01*
X370802D01*
G37*
G36*
G01X279426Y329482D02*
G03Y328918I284J-282D01*
G02X277574I-926J-918D01*
G03Y329482I-284J282D01*
G02X279426I926J918D01*
G37*
G36*
G01X278926Y321982D02*
G03Y321418I284J-282D01*
G02X277074I-926J-918D01*
G03Y321982I-284J282D01*
G02X278926I926J918D01*
G37*
G36*
G01X338386Y321543D02*
G03Y320957I272J-293D01*
G02X336614I-886J-957D01*
G03Y321543I-272J293D01*
G02Y323457I886J957D01*
G03Y324043I-272J293D01*
G02Y325957I886J957D01*
G03Y326543I-272J293D01*
G02X338386I886J957D01*
G03Y325957I272J-293D01*
G02Y324043I-886J-957D01*
G03Y323457I272J-293D01*
G02Y321543I-886J-957D01*
G37*
G36*
G01X222043Y317614D02*
G03X221457I-293J-272D01*
G02Y319386I-957J886D01*
G03X222043I293J272D01*
G02Y317614I957J-886D01*
G37*
G36*
G01X281581Y313008D02*
G03X281591Y313590I-269J296D01*
G02X283377Y313560I909J935D01*
G03X283367Y312978I269J-296D01*
G02X281581Y313008I-909J-935D01*
G37*
G36*
G01X350302Y287452D02*
Y286698D01*
X342698D01*
Y287452D01*
X342988D01*
Y296802D01*
X343498D01*
Y301002D01*
X349502D01*
Y296802D01*
X350012D01*
Y287452D01*
X350302D01*
G37*
G36*
G01X279926Y261815D02*
G03Y261185I247J-315D01*
G02X278074I-926J-1185D01*
G03Y261815I-247J315D01*
G02X279926I926J1185D01*
G37*
G36*
G01X295135Y251203D02*
G03X294783Y250734I42J-398D01*
G02X293365Y251797I-1283J-234D01*
G03X293717Y252266I-42J398D01*
G02X295135Y251203I1283J234D01*
G37*
G36*
G01X326854Y227015D02*
G03Y226410I262J-303D01*
G02X325146I-854J-985D01*
G03Y227015I-262J303D01*
G02X326854I854J985D01*
G37*
G36*
G01X308543Y153114D02*
G03X307957I-293J-272D01*
G02Y154886I-957J886D01*
G03X308543I293J272D01*
G02Y153114I957J-886D01*
G37*
G36*
G01X294043Y126114D02*
G03X293457I-293J-272D01*
G02Y127886I-957J886D01*
G03X294043I293J272D01*
G02Y126114I957J-886D01*
G37*
G36*
G01X357402Y112615D02*
Y110349D01*
X357403Y110336D01*
G02X354597I-1403J-172D01*
G01X354598Y110349D01*
Y112615D01*
X354597Y112628D01*
G02X355122Y113908I1403J172D01*
G03X355138Y114521I-248J313D01*
G02X356862I862J979D01*
G03X356878Y113908I264J-300D01*
G02X357403Y112628I-878J-1108D01*
G01X357402Y112615D01*
G37*
G36*
G01X298543Y100114D02*
G03X297957I-293J-272D01*
G02Y101886I-957J886D01*
G03X298543I293J272D01*
G02Y100114I957J-886D01*
G37*
G36*
G01X292082Y100074D02*
G03X291518I-282J-284D01*
G02Y101926I-918J926D01*
G03X292082I282J284D01*
G02Y100074I918J-926D01*
G37*
G36*
G01X283267Y69691D02*
G03X283619Y69199I389J-94D01*
G02X282233Y68209I-119J-1299D01*
G03X281881Y68701I-389J94D01*
G02X283267Y69691I119J1299D01*
G37*
G36*
G01X320543Y64114D02*
G03X319957I-293J-272D01*
G02Y65886I-957J886D01*
G03X320543I293J272D01*
G02Y64114I957J-886D01*
G37*
G36*
G01X266778Y55982D02*
G03Y55418I284J-282D01*
G02X264926I-926J-918D01*
G03Y55982I-284J282D01*
G02X266778I926J918D01*
G37*
G36*
G01X5856Y50510D02*
G03Y51057I-291J274D01*
G02X7699Y54205I1388J1301D01*
G03X8178Y54478I96J388D01*
G02X8613Y55234I1822J-545D01*
G03Y55782I-292J274D01*
G02X8178Y56537I1387J1302D01*
G03X7699Y56810I-383J-115D01*
G02X5857Y59958I-455J1847D01*
G03Y60506I-292J274D01*
G02Y63108I1387J1301D01*
G03Y63656I-292J274D01*
G02X8631I1387J1301D01*
G03Y63108I292J-274D01*
G02X9066Y62352I-1387J-1301D01*
G03X9545Y62079I383J115D01*
G02X11388Y58931I455J-1847D01*
G03Y58384I291J-273D01*
G02X11387Y55782I-1388J-1300D01*
G03Y55234I292J-274D01*
G02Y52632I-1387J-1301D01*
G03Y52084I292J-274D01*
G02X9545Y48936I-1387J-1301D01*
G03X9066Y48663I-96J-388D01*
G02X8631Y47908I-1822J547D01*
G03Y47360I292J-274D01*
G02X5857I-1387J-1301D01*
G03Y47908I-292J274D01*
G02X5856Y50510I1387J1302D01*
G37*
G36*
G01X219089Y13571D02*
G03X219213Y12890I259J-305D01*
G02X214783Y11128I-1217J-3390D01*
G03X214407Y11709I-357J181D01*
G02X219089Y13571I-387J7791D01*
G37*
G36*
G01X168632Y11709D02*
G03X168256Y11128I-19J-400D01*
G02X163826Y12890I-3213J-1628D01*
G03X163951Y13571I-135J377D01*
G02X168632Y11709I5069J5929D01*
G37*
G36*
G01X241848Y306967D02*
G02X241597Y305458I1152J-967D01*
G03X240937Y305593I-373J-144D01*
G02X241180Y307055I-937J907D01*
G03X241848Y306967I362J170D01*
G37*
G36*
G01X310760Y301666D02*
G02X310171Y303118I-1260J334D01*
G03X310764Y303358I206J343D01*
G02X311119Y303963I1261J-333D01*
G03X311113Y304544I-278J288D01*
G02X312905Y304561I887J956D01*
G03X312911Y303980I278J-288D01*
G02X311353Y301906I-887J-956D01*
G03X310760Y301666I-206J-343D01*
G37*
G36*
G01X257280Y297210D02*
G02Y298790I-1280J790D01*
G03X257944Y298765I340J210D01*
G02Y297235I1056J-765D01*
G03X257280Y297210I-324J-235D01*
G37*
G36*
G01X301619Y282148D02*
G02X300381I-619J-1148D01*
G03Y282852I-189J352D01*
G02X301619I619J1148D01*
G03Y282148I189J-352D01*
G37*
G36*
G01X339719Y280148D02*
G02X338481I-619J-1148D01*
G03Y280852I-189J352D01*
G02X338214Y282957I619J1148D01*
G03Y283543I-272J293D01*
G02X339986I886J957D01*
G03Y282957I272J-293D01*
G02X339719Y280852I-886J-957D01*
G03Y280148I189J-352D01*
G37*
G36*
G01X337005Y277304D02*
G02X335847Y276609I-5J-1304D01*
G03X335495Y277196I-354J187D01*
G02X336653Y277891I5J1304D01*
G03X337005Y277304I354J-187D01*
G37*
G36*
G01X330340Y267625D02*
G02X329747Y266140I660J-1125D01*
G03X329160Y266375I-385J-110D01*
G02X329753Y267860I-660J1125D01*
G03X330340Y267625I385J110D01*
G37*
G36*
G01X295148Y245881D02*
G02Y247119I-1148J619D01*
G03X295852I352J189D01*
G02Y245881I1148J-619D01*
G03X295148I-352J-189D01*
G37*
G36*
G01X313265Y227556D02*
G02X311735I-765J-1056D01*
G03X311710Y228220I-235J324D01*
G02X313290I790J1280D01*
G03X313265Y227556I210J-340D01*
G37*
G36*
G01X333780Y219251D02*
G02X332751Y220280I-1280J-251D01*
G03X333220Y220749I77J392D01*
G02X334249Y219720I1280J251D01*
G03X333780Y219251I-77J-392D01*
G37*
G36*
G01X313271Y216757D02*
G02Y218243I-1071J743D01*
G03X313929I329J228D01*
G02Y216757I1071J-743D01*
G03X313271I-329J-228D01*
G37*
G36*
G01X339250Y174396D02*
X310750D01*
X307750Y177396D01*
X302750D01*
X301396Y178750D01*
Y191250D01*
X303250Y193104D01*
X315805D01*
G02X317195I695J-1104D01*
G01X321132D01*
G03X321464Y193726I0J400D01*
G02X323630I1083J727D01*
G03X323962Y193104I332J-222D01*
G01X338750D01*
X340604Y191250D01*
Y175750D01*
X339250Y174396D01*
G37*
G36*
G01X306619Y143648D02*
G02X305381I-619J-1148D01*
G03Y144352I-189J352D01*
G02X306619I619J1148D01*
G03Y143648I189J-352D01*
G37*
G36*
G01X301719D02*
G02X300481I-619J-1148D01*
G03Y144352I-189J352D01*
G02X301719I619J1148D01*
G03Y143648I189J-352D01*
G37*
G36*
G01X294780Y141710D02*
G02Y143290I-1280J790D01*
G03X295444Y143265I340J210D01*
G02X295881Y143648I1056J-765D01*
G03Y144352I-189J352D01*
G02X297119I619J1148D01*
G03Y143648I189J-352D01*
G02X295444Y141735I-619J-1148D01*
G03X294780Y141710I-324J-235D01*
G37*
G36*
G01X333239Y127074D02*
G02X331629Y126971I-740J-1074D01*
G03X331589Y127598I-267J298D01*
G02X333199Y127701I740J1074D01*
G03X333239Y127074I267J-298D01*
G37*
G36*
G01X303119Y127148D02*
G02X301881I-619J-1148D01*
G03Y127852I-189J352D01*
G02X303119I619J1148D01*
G03Y127148I189J-352D01*
G37*
G36*
G01X283648Y122881D02*
G02Y124119I-1148J619D01*
G03X284352I352J189D01*
G02X286648I1148J-619D01*
G03X287352I352J189D01*
G02Y122881I1148J-619D01*
G03X286648I-352J-189D01*
G02X284352I-1148J619D01*
G03X283648I-352J-189D01*
G37*
G36*
G01X281148Y100381D02*
G02Y101619I-1148J619D01*
G03X281852I352J189D01*
G02Y100381I1148J-619D01*
G03X281148I-352J-189D01*
G37*
G36*
G01X273148D02*
G02Y101619I-1148J619D01*
G03X273852I352J189D01*
G02Y100381I1148J-619D01*
G03X273148I-352J-189D01*
G37*
G36*
G01X324780Y89251D02*
G02X323751Y90280I-1280J-251D01*
G03X324220Y90749I77J392D01*
G02X325249Y89720I1280J251D01*
G03X324780Y89251I-77J-392D01*
G37*
G36*
G01X347119Y66148D02*
G02X345881I-619J-1148D01*
G03Y66852I-189J352D01*
G02X347119I619J1148D01*
G03Y66148I189J-352D01*
G37*
G36*
G01X226243Y43271D02*
G02X224757I-743J-1071D01*
G03Y43929I-228J329D01*
G02X224881Y46148I743J1071D01*
G03Y46852I-189J352D01*
G02X226119I619J1148D01*
G03Y46148I189J-352D01*
G02X226243Y43929I-619J-1148D01*
G03Y43271I228J-329D01*
G37*
G36*
G01X14339Y35190D02*
X12039D01*
G02X9463Y38155I0J2602D01*
G03X8839Y38540I-396J56D01*
G02X10006Y40373I-1595J2303D01*
G03X10619Y39970I394J-68D01*
G02X12039Y40392I1420J-2178D01*
G01X14339D01*
G02Y35190I0J-2601D01*
G37*
G36*
G01X52388Y44233D02*
G02X52548Y44230I56J-1303D01*
G02X53048Y44148I25J-1413D01*
G02X53824Y42157I-474J-1332D01*
G03X53988Y41618I354J-187D01*
G02X52135Y40887I-618J-1148D01*
G03X51756Y41416I-379J129D01*
G01X50122D01*
X50109Y41414D01*
G02X50022Y41406I-173J1403D01*
G02X49811Y41409I-85J1411D01*
G02X49735Y41418I128J1408D01*
G02X49703Y41423I202J1399D01*
G03X49501Y41119I-33J-197D01*
G02X48575Y41712I-1101J-699D01*
G03X48774Y42013I27J198D01*
G02X48651Y42231I1165J801D01*
G02X49626Y44196I1119J669D01*
G02X49970Y44230I310J-1379D01*
G02X50109Y44220I-32J-1413D01*
G01X50122Y44218D01*
X52245D01*
X52259Y44221D01*
G02X52388Y44233I185J-1291D01*
G37*
G36*
G01X35990Y51474D02*
G03X35747Y50982I139J-375D01*
G02X33968Y51791I-1247J-382D01*
G03X34179Y52298I-163J365D01*
G02X34097Y52972I1321J503D01*
G01X34098Y52985D01*
Y55251D01*
X34097Y55264D01*
G02X36903I1403J172D01*
G01X36902Y55251D01*
Y52985D01*
X36903Y52972D01*
G02X35990Y51474I-1403J-172D01*
G37*
G36*
G01X36750Y16574D02*
X33250D01*
G02Y27378I0J5402D01*
G01X36750D01*
G02Y16574I0J-5402D01*
G37*
G36*
G01X70109Y56453D02*
X70122Y56452D01*
X72388D01*
X72401Y56453D01*
G02Y53647I172J-1403D01*
G01X72388Y53648D01*
X70122D01*
X70109Y53647D01*
G02Y56453I-172J1403D01*
G37*
G36*
G01X12000Y296606D02*
G03X12547Y296861I163J366D01*
G02X13138Y295376I1253J-361D01*
G03X12837Y295218I-102J-172D01*
G02X12830Y295142I-1410J92D01*
G01X12828Y295129D01*
Y292863D01*
X12830Y292850D01*
G02X10024I-1403J-172D01*
G01X10026Y292863D01*
Y295129D01*
X10024Y295142D01*
G02X12000Y296606I1403J172D01*
G37*
G36*
G01X17498Y282492D02*
G03X16896Y282553I-327J-230D01*
G02X16653Y284629I-896J947D01*
G03X17254Y284975I201J346D01*
G01Y285755D01*
X17252Y285768D01*
G02X20058I1403J172D01*
G01X20056Y285755D01*
Y283489D01*
X20058Y283476D01*
G02X17498Y282492I-1403J-172D01*
G37*
G36*
G01X11760Y281597D02*
G03X11280Y281860I-380J-124D01*
G02X9524Y283401I-353J1369D01*
G01X9526Y283414D01*
Y285680D01*
X9524Y285693D01*
G02X10849Y287276I1403J172D01*
G03X11220Y287752I-22J400D01*
G02X12642Y286704I1280J248D01*
G03X12298Y286209I44J-398D01*
G02X12330Y285693I-1371J-344D01*
G01X12328Y285680D01*
Y283682D01*
G03X12792Y283287I400J0D01*
G02X11760Y281597I208J-1287D01*
G37*
G36*
G01X12372Y232642D02*
G03X12628Y232450I200J0D01*
G02X11721Y230945I372J-1250D01*
G03X11247Y231258I-392J-78D01*
G02X9555Y232814I-289J1384D01*
G01X9556Y232827D01*
Y235093D01*
X9555Y235106D01*
G02X12361I1403J172D01*
G01X12360Y235093D01*
Y232827D01*
X12361Y232814D01*
G02X12372Y232642I-1403J-176D01*
G37*
G36*
G01X9722Y196546D02*
G03X9802Y197110I-238J321D01*
G02X9524Y198137I1125J856D01*
G01X9526Y198150D01*
Y200416D01*
X9524Y200429D01*
G02X9519Y200729I1403J173D01*
G03X9233Y201149I-398J36D01*
G02X10904Y202381I367J1251D01*
G03X11221Y201984I400J-6D01*
G02X12330Y200429I-294J-1383D01*
G01X12328Y200416D01*
Y198150D01*
X12330Y198137D01*
G02X11699Y196781I-1403J-172D01*
G03X11585Y196224I219J-335D01*
G02X9722Y196546I-1084J-724D01*
G37*
G36*
G01X9334Y166035D02*
G03X9341Y166615I-272J293D01*
G02X11137Y166594I909J935D01*
G03X11130Y166014I272J-293D01*
G02X9334Y166035I-909J-935D01*
G37*
G36*
G01X209886Y91043D02*
G03Y90457I272J-293D01*
G02X208114I-886J-957D01*
G03Y91043I-272J293D01*
G02X209886I886J957D01*
G37*
G36*
G01X160492Y83846D02*
G03X161079Y83823I304J260D01*
G02X161008Y82054I921J-923D01*
G03X160421Y82077I-304J-260D01*
G02X160492Y83846I-921J923D01*
G37*
G36*
G01X144768Y80395D02*
G03X145157Y79902I389J-93D01*
G01X146815D01*
X146828Y79903D01*
G02X147174I173J-1403D01*
G03X147616Y80229I49J397D01*
G02X148825Y78698I1284J-229D01*
G03X148405Y78343I-23J-399D01*
G02X146828Y77097I-1405J157D01*
G01X146815Y77098D01*
X144549D01*
X144536Y77097D01*
G02X143060Y79046I-172J1403D01*
G03X142881Y79552I-369J154D01*
G02X144768Y80395I619J1148D01*
G37*
G36*
G01X33655Y73233D02*
G03X33475Y73807I-342J208D01*
G02X35189Y74465I525J1193D01*
G03X35554Y73902I365J-163D01*
G01X37315D01*
X37328Y73903D01*
G02Y71097I172J-1403D01*
G01X37315Y71098D01*
X35049D01*
X35036Y71097D01*
G02X33655Y73233I-172J1403D01*
G37*
G36*
G01X152743Y72159D02*
G03X152291Y71819I-56J-396D01*
G02X151102Y73300I-1291J181D01*
G03X151532Y73668I31J399D01*
G02X151538Y73731I1410J-102D01*
G01X151540Y73744D01*
Y76010D01*
X151538Y76023D01*
G02X151932Y77185I1403J172D01*
G03X151964Y77708I-286J280D01*
G02X153994Y77656I1036J792D01*
G03X153999Y77132I305J-259D01*
G02X154344Y76023I-1058J-937D01*
G01X154342Y76010D01*
Y73744D01*
X154344Y73731D01*
G02X152743Y72159I-1403J-172D01*
G37*
G36*
G01X198043Y67114D02*
G03X197457I-293J-272D01*
G02Y68886I-957J886D01*
G03X198043I293J272D01*
G02Y67114I957J-886D01*
G37*
G36*
G01X140027Y49605D02*
G03X139718Y49067I64J-395D01*
G02X137281Y49063I-1218J-467D01*
G03X136964Y49601I-374J142D01*
G02X136179Y49986I199J1399D01*
G03X135642Y50004I-278J-287D01*
G02Y51996I-842J996D01*
G03X136179Y52014I259J305D01*
G02X137336Y52403I985J-1014D01*
G01X137349Y52402D01*
X139615D01*
X139628Y52403D01*
G02X140798Y52001I172J-1403D01*
G03X141343Y51983I282J283D01*
G02Y50017I857J-983D01*
G03X140798Y49999I-263J-301D01*
G02X140027Y49605I-998J1001D01*
G37*
G36*
G01X90386Y46543D02*
G03Y45957I272J-293D01*
G02X88614I-886J-957D01*
G03Y46543I-272J293D01*
G02X90386I886J957D01*
G37*
G36*
G01X40886Y33043D02*
G03Y32457I272J-293D01*
G02X39114I-886J-957D01*
G03Y33043I-272J293D01*
G02X40886I886J957D01*
G37*
G36*
G01X86886Y16543D02*
G03Y15957I272J-293D01*
G02X85114I-886J-957D01*
G03Y16543I-272J293D01*
G02X86886I886J957D01*
G37*
G36*
G01X72386Y15543D02*
G03Y14957I272J-293D01*
G02X70614I-886J-957D01*
G03Y15543I-272J293D01*
G02X72386I886J957D01*
G37*
G36*
G01X12274Y325549D02*
G02X10672Y325508I-775J-1049D01*
G03X10641Y326149I-254J309D01*
G02X10024Y327496I786J1175D01*
G01X10026Y327509D01*
Y329775D01*
X10024Y329788D01*
G02X10511Y331036I1403J172D01*
G03X10544Y331613I-260J304D01*
G02X12403Y331559I956J887D01*
G03X12404Y330982I277J-288D01*
G02X12830Y329788I-977J-1022D01*
G01X12828Y329775D01*
Y327509D01*
X12830Y327496D01*
G02X12273Y326191I-1403J-172D01*
G03X12274Y325549I239J-321D01*
G37*
G36*
G01X-2035Y316377D02*
G02X-4017Y316316I-965J-877D01*
G03X-4052Y316855I-312J250D01*
G02X-4476Y318047I979J1020D01*
G01X-4474Y318060D01*
Y320326D01*
X-4476Y320339D01*
G02X-3765Y321744I1403J172D01*
G03X-3735Y322423I-196J349D01*
G02X-2318Y322388I736J1077D01*
G03X-2322Y321708I209J-341D01*
G02X-1670Y320339I-751J-1197D01*
G01X-1672Y320326D01*
Y318060D01*
X-1670Y318047D01*
G02X-2033Y316917I-1403J-173D01*
G03X-2035Y316377I294J-271D01*
G37*
G36*
G01X17167Y237082D02*
G02X14950Y237274I-1167J-582D01*
G03X14789Y237592I-161J118D01*
G01X14542D01*
X14529Y237591D01*
G02X13189Y238197I-172J1403D01*
G03X12540Y238213I-330J-225D01*
G02X12543Y239782I-1040J786D01*
G03X13193Y239796I320J240D01*
G02X14529Y240397I1164J-802D01*
G01X14542Y240396D01*
X16808D01*
X16821Y240397D01*
G02X17408Y237643I171J-1403D01*
G03X17167Y237082I117J-383D01*
G37*
G36*
G01X19648Y232881D02*
G02Y234119I-1148J619D01*
G03X20352I352J189D01*
G02Y232881I1148J-619D01*
G03X19648I-352J-189D01*
G37*
G36*
G01X12000Y214737D02*
G02X10373Y215044I-1000J-837D01*
G03X10488Y215651I-192J351D01*
G02X12115Y215344I1000J837D01*
G03X12000Y214737I192J-351D01*
G37*
G36*
G01X34119Y210648D02*
G02X32881I-619J-1148D01*
G03Y211352I-189J352D01*
G02X34119I619J1148D01*
G03Y210648I189J-352D01*
G37*
G36*
G01X13910Y207163D02*
G02X13212Y205796I590J-1163D01*
G03X12621Y206082I-395J-62D01*
G02X10524Y207486I-694J1232D01*
G01X10526Y207499D01*
Y209765D01*
X10524Y209778D01*
G02X13330I1403J172D01*
G01X13328Y209765D01*
Y207499D01*
X13330Y207486D01*
G02X13331Y207474I-1408J-123D01*
G03X13910Y207163I397J46D01*
G37*
G36*
G01X22546Y199692D02*
X22547Y199679D01*
G02X19919Y198801I-1403J-172D01*
G03X19345Y198929I-346J-200D01*
G02X17301Y199881I-745J1071D01*
G03X16809Y200233I-398J-37D01*
G02X17028Y202692I-309J1267D01*
G03X17568Y202927I162J366D01*
G02X19785Y203355I1232J-427D01*
G03X20320Y203292I302J262D01*
G02X22547Y201971I824J-1149D01*
G01X22546Y201958D01*
Y199692D01*
G37*
G36*
G01X150249Y90780D02*
G02X149220Y89751I251J-1280D01*
G03X148751Y90220I-392J77D01*
G02X149780Y91249I-251J1280D01*
G03X150249Y90780I392J-77D01*
G37*
G36*
G01X218119Y89148D02*
G02X216881I-619J-1148D01*
G03Y89852I-189J352D01*
G02X218119I619J1148D01*
G03Y89148I189J-352D01*
G37*
G36*
G01X88619Y78648D02*
G02X87381I-619J-1148D01*
G03Y79352I-189J352D01*
G02X88619I619J1148D01*
G03Y78648I189J-352D01*
G37*
G36*
G01X189648Y75881D02*
G02Y77119I-1148J619D01*
G03X190352I352J189D01*
G02Y75881I1148J-619D01*
G03X189648I-352J-189D01*
G37*
G36*
G01X96804Y74495D02*
G02X96109Y75653I-1304J5D01*
G03X96696Y76005I187J354D01*
G02X97391Y74847I1304J-5D01*
G03X96804Y74495I-187J-354D01*
G37*
G36*
G01X74648Y72381D02*
G02Y73619I-1148J619D01*
G03X75352I352J189D01*
G02Y72381I1148J-619D01*
G03X74648I-352J-189D01*
G37*
G36*
G01X51849Y62098D02*
X51836Y62097D01*
G02X50637Y64471I-172J1403D01*
G03X50617Y65040I-291J275D01*
G02X52492Y66846I883J960D01*
G03X53079Y66823I304J260D01*
G02X55076Y65163I921J-923D01*
G03X55162Y64620I330J-226D01*
G02X54128Y62097I-862J-1120D01*
G01X54115Y62098D01*
X51849D01*
G37*
G36*
G01X72449Y59524D02*
G02X71603Y58169I451J-1223D01*
G03X71049Y58498I-398J-40D01*
G02X69097Y59972I-549J1302D01*
G01X69098Y59985D01*
Y62251D01*
X69097Y62264D01*
G02X69394Y63316I1403J172D01*
G03X69297Y63902I-313J249D01*
G02X71064Y64247I703J1098D01*
G03X71194Y63667I327J-231D01*
G02X71903Y62264I-694J-1231D01*
G01X71902Y62251D01*
Y59985D01*
X71903Y59972D01*
G02X71911Y59877I-1404J-166D01*
G03X72449Y59524I399J22D01*
G37*
G36*
G01X153152Y58435D02*
X153153Y58422D01*
G02X150347I-1403J-172D01*
G01X150348Y58435D01*
Y60701D01*
X150347Y60714D01*
G02X150734Y61868I1403J171D01*
G03X150717Y62441I-288J278D01*
G02X152843Y63796I883J959D01*
G03X153406Y63561I381J121D01*
G02X153662Y61140I594J-1161D01*
G03X153160Y60783I-103J-386D01*
G02X153153Y60714I-1409J108D01*
G01X153152Y60701D01*
Y58435D01*
G37*
G36*
G01X37183Y41291D02*
G02X35731Y40301I-183J-1291D01*
G03X35377Y40792I-389J93D01*
G02X34097Y42372I123J1408D01*
G01X34098Y42385D01*
Y44651D01*
X34097Y44664D01*
G02X36165Y46083I1403J172D01*
G03X36739Y46334I187J353D01*
G02X37231Y44947I1261J-334D01*
G03X36913Y44792I-118J-161D01*
G02X36903Y44664I-1413J46D01*
G01X36902Y44651D01*
Y42385D01*
X36903Y42372D01*
G02X36856Y41800I-1403J-173D01*
G03X37183Y41291I384J-113D01*
G37*
G36*
G01X73148Y381D02*
G02Y1619I-1148J619D01*
G03X73852I352J189D01*
G02Y381I1148J-619D01*
G03X73148I-352J-189D01*
G37*
G36*
G01X38148Y105381D02*
G02Y106619I-1148J619D01*
G03X38852I352J189D01*
G02Y105381I1148J-619D01*
G03X38148I-352J-189D01*
G37*
G36*
G01X39119Y110148D02*
G02X37881I-619J-1148D01*
G03Y110852I-189J352D01*
G02X39119I619J1148D01*
G03Y110148I189J-352D01*
G37*
G36*
G01X60148Y125381D02*
G02Y126619I-1148J619D01*
G03X60852I352J189D01*
G02Y125381I1148J-619D01*
G03X60148I-352J-189D01*
G37*
G36*
G01X59876Y139942D02*
G02X58124I-876J-966D01*
G03Y140534I-269J296D01*
G02X58381Y142648I876J966D01*
G03Y143352I-189J352D01*
G02X59619I619J1148D01*
G03Y142648I189J-352D01*
G02X59876Y140534I-619J-1148D01*
G03Y139942I269J-296D01*
G37*
G36*
G01X38920Y91932D02*
G03X38380Y91744I-178J-358D01*
G02X36274Y93218I-1180J556D01*
G03Y93782I-284J282D01*
G02X38504Y94697I926J918D01*
G03X39044Y94322I400J0D01*
G02X38920Y91932I456J-1222D01*
G37*
G36*
G01X86886Y106043D02*
G03Y105457I272J-293D01*
G02X85114I-886J-957D01*
G03Y106043I-272J293D01*
G02Y107957I886J957D01*
G03Y108543I-272J293D01*
G02X85077Y110421I886J957D01*
G03X85054Y111008I-283J283D01*
G02X86823Y111079I846J992D01*
G03X86846Y110492I283J-283D01*
G02X86886Y108543I-846J-992D01*
G03Y107957I272J-293D01*
G02Y106043I-886J-957D01*
G37*
G36*
G01X52386Y114043D02*
G03Y113457I272J-293D01*
G02X50614I-886J-957D01*
G03Y114043I-272J293D01*
G02X52386I886J957D01*
G37*
G36*
G01X65043Y157614D02*
G03X64457I-293J-272D01*
G02Y159386I-957J886D01*
G03X65043I293J272D01*
G02Y157614I957J-886D01*
G37*
G36*
G01X36511Y174647D02*
G03X36394Y175204I-334J221D01*
G02X38144Y175518I707J1096D01*
G03X38227Y174955I320J-240D01*
G02X36511Y174647I-711J-971D01*
G37*
G36*
G01X78619Y219648D02*
G02X77381I-619J-1148D01*
G03Y220352I-189J352D01*
G02X78619I619J1148D01*
G03Y219648I189J-352D01*
G37*
G36*
G01X102265Y244056D02*
G02X100735I-765J-1056D01*
G03X100710Y244720I-235J324D01*
G02Y247280I790J1280D01*
G03X100735Y247944I-210J340D01*
G02X102265I765J1056D01*
G03X102290Y247280I235J-324D01*
G02Y244720I-790J-1280D01*
G03X102265Y244056I210J-340D01*
G37*
G36*
G01X132148Y243581D02*
G02X129852I-1148J618D01*
G03X129148I-352J-190D01*
G02X126852I-1148J619D01*
G03X126148I-352J-189D01*
G02Y244819I-1148J619D01*
G03X126852I352J189D01*
G02X129148Y244818I1148J-619D01*
G03X129852I352J190D01*
G02X132148I1148J-619D01*
G03X132852I352J190D01*
G02X135110Y244885I1148J-618D01*
G03X135790I340J210D01*
G02Y243515I1110J-685D01*
G03X135110I-340J-210D01*
G02X132852Y243581I-1110J685D01*
G03X132148I-352J-190D01*
G37*
G36*
G01X143791Y249500D02*
G02X142233I-779J633D01*
G01X139500D01*
X123500Y265500D01*
Y287290D01*
X123393Y287346D01*
G02Y289654I607J1154D01*
G01X123500Y289710D01*
Y308000D01*
X136000Y320500D01*
X152410D01*
X152418Y320501D01*
G02X152582I82J-1001D01*
G01X152590Y320500D01*
X154910D01*
X154918Y320501D01*
G02X156002Y319568I82J-1001D01*
G01X156007Y319493D01*
X158920Y316580D01*
X159031Y316609D01*
G02X160412Y316033I315J-1187D01*
G03X161085Y316002I346J200D01*
G02X160934Y315165I820J-580D01*
G03X160546Y315157I-193J-51D01*
G02X160510Y315030I-1198J271D01*
G01X160500Y314999D01*
Y309546D01*
X160510Y309515D01*
G02X160546Y309388I-1162J-398D01*
G03X160934Y309380I195J43D01*
G02X161240Y308371I971J-256D01*
G03X160574Y308072I-266J-299D01*
G01Y307462D01*
X160500Y307388D01*
Y283000D01*
X161349Y282151D01*
X161476Y282210D01*
G02X162810Y280876I424J-910D01*
G01X162751Y280749D01*
X163000Y280500D01*
Y276000D01*
X164000Y275000D01*
Y266350D01*
G02Y264626I-515J-862D01*
G01Y263791D01*
G02Y262067I-515J-862D01*
G01Y261232D01*
G02Y259508I-515J-862D01*
G01Y258672D01*
G02Y256948I-515J-862D01*
G01Y256113D01*
G02X163836Y254310I-515J-862D01*
G01X163795Y254295D01*
X163762Y254262D01*
G03X163886Y253613I283J-282D01*
G02X162564Y252291I-401J-921D01*
G03X161915Y252415I-367J-159D01*
G01X161882Y252382D01*
X161867Y252341D01*
G02X160199Y252000I-941J351D01*
G01X159094D01*
G02X158290Y251691I-727J692D01*
G01X158198Y251698D01*
X156801Y250301D01*
X156808Y250210D01*
G02X155029Y249500I-1001J-76D01*
G01X154028D01*
G02X152470I-779J633D01*
G01X148908D01*
G02X147350I-779J633D01*
G01X146350D01*
G02X144792I-779J633D01*
G01X143791D01*
G37*
G36*
G01X170535Y267481D02*
G02X169445Y267489I-551J-839D01*
G03X169449Y268161I-215J337D01*
G02X170539Y268153I551J839D01*
G03X170535Y267481I215J-337D01*
G37*
G36*
G01X182340Y269050D02*
G02X181017Y269380I-840J-550D01*
G03X181160Y269950I-192J351D01*
G02X181424Y271322I840J550D01*
G03Y271978I-229J328D01*
G02X182576I576J822D01*
G03Y271322I229J-328D01*
G02X182483Y269620I-576J-822D01*
G03X182340Y269050I192J-351D01*
G37*
G36*
G01X94030Y268700D02*
G02Y270300I-1030J800D01*
G03X94661I316J246D01*
G02Y268700I1030J-800D01*
G03X94030I-316J-246D01*
G37*
G36*
G01X168115Y274201D02*
G02X166783I-666J-752D01*
G03Y274799I-265J299D01*
G02X168115I666J752D01*
G03Y274201I265J-299D01*
G37*
G36*
G01X167576Y298322D02*
G02X166424I-576J-822D01*
G03Y298978I-229J328D01*
G02X167576I576J822D01*
G03Y298322I229J-328D01*
G37*
G36*
G01X78185Y303490D02*
G02X76755Y303446I-685J-990D01*
G03X76736Y304089I-247J314D01*
G02X78166Y304133I685J990D01*
G03X78185Y303490I247J-314D01*
G37*
G36*
G01X89254Y310438D02*
G02X87746I-754J-938D01*
G03Y311062I-251J312D01*
G02X89254I754J938D01*
G03Y310438I251J-312D01*
G37*
G36*
G01X74424Y317578D02*
G02X74403Y316363I1029J-625D01*
G03X73713Y316375I-349J-196D01*
G02X73734Y317590I-1029J625D01*
G03X74424Y317578I349J196D01*
G37*
G36*
G01X80143Y321947D02*
G02X78657I-743J-947D01*
G03Y322577I-247J315D01*
G02X80143I743J947D01*
G03Y321947I247J-315D01*
G37*
G36*
G01X159119Y326648D02*
G02X157881I-619J-1148D01*
G03Y327352I-189J352D01*
G02X159119I619J1148D01*
G03Y326648I189J-352D01*
G37*
G36*
G01X190635Y326639D02*
G02X189365I-635J-1139D01*
G03Y327337I-195J349D01*
G02X190635I635J1139D01*
G03Y326639I195J-349D01*
G37*
G36*
G01X74886Y223043D02*
G03Y222457I272J-293D01*
G02X73114I-886J-957D01*
G03Y223043I-272J293D01*
G02X74886I886J957D01*
G37*
G36*
G01X91886Y224043D02*
G03Y223457I272J-293D01*
G02X90114I-886J-957D01*
G03Y224043I-272J293D01*
G02X91886I886J957D01*
G37*
G36*
G01X46543Y226027D02*
G03X46559Y226597I-272J293D01*
G02X48441I941J903D01*
G03X48457Y226027I288J-277D01*
G02X46543I-957J-1027D01*
G37*
G36*
G01X116543Y230614D02*
G03X115957I-293J-272D01*
G02Y232386I-957J886D01*
G03X116543I293J272D01*
G02Y230614I957J-886D01*
G37*
G36*
G01X179027Y298707D02*
G03Y298137I280J-285D01*
G02X177617I-705J-715D01*
G03Y298707I-280J285D01*
G02X179027I705J715D01*
G37*
G36*
G01X99225Y307554D02*
G03X99519Y307026I376J-136D01*
G02X98025Y306196I-269J-1276D01*
G03X97731Y306724I-376J136D01*
G02X99225Y307554I269J1276D01*
G37*
G36*
G01X96148Y99881D02*
G02Y101119I-1148J619D01*
G03X96852I352J189D01*
G02X98918Y101426I1148J-619D01*
G03X99482I282J284D01*
G02Y99574I918J-926D01*
G03X98918I-282J-284D01*
G02X96852Y99881I-918J926D01*
G03X96148I-352J-189D01*
G37*
G36*
G01X105148D02*
G02Y101119I-1148J619D01*
G03X105852I352J189D01*
G02X108148I1148J-619D01*
G03X108852I352J189D01*
G02Y99881I1148J-619D01*
G03X108148I-352J-189D01*
G02X105852I-1148J619D01*
G03X105148I-352J-189D01*
G37*
G36*
G01X245648Y104381D02*
G02Y105619I-1148J619D01*
G03X246352I352J189D01*
G02Y104381I1148J-619D01*
G03X245648I-352J-189D01*
G37*
G36*
G01X219780Y105210D02*
G02Y106790I-1280J790D01*
G03X220444Y106765I340J210D01*
G02X222457Y106886I1056J-765D01*
G03X223043I293J272D01*
G02X224957I957J-886D01*
G03X225543I293J272D01*
G02Y105114I957J-886D01*
G03X224957I-293J-272D01*
G02X223043I-957J886D01*
G03X222457I-293J-272D01*
G02X220444Y105235I-957J886D01*
G03X219780Y105210I-324J-235D01*
G37*
G36*
G01X170648Y105381D02*
G02Y106619I-1148J619D01*
G03X171352I352J189D01*
G02Y105381I1148J-619D01*
G03X170648I-352J-189D01*
G37*
G36*
G01X217685Y112610D02*
G02X216315I-685J-1110D01*
G03Y113290I-210J340D01*
G02X217685I685J1110D01*
G03Y112610I210J-340D01*
G37*
G36*
G01X221217Y112589D02*
G02X219850Y112630I-717J-1089D01*
G03X219871Y113311I-199J347D01*
G02X221238Y113270I717J1089D01*
G03X221217Y112589I199J-347D01*
G37*
G36*
G01X130056Y114163D02*
G02X128468Y114104I-756J-1063D01*
G03X128444Y114737I-256J307D01*
G02X130032Y114796I756J1063D01*
G03X130056Y114163I256J-307D01*
G37*
G36*
G01X94731Y116676D02*
G02X93739Y115731I269J-1276D01*
G03X93269Y116224I-387J102D01*
G02X94261Y117169I-269J1276D01*
G03X94731Y116676I387J-102D01*
G37*
G36*
G01X185148Y120381D02*
G02Y121619I-1148J619D01*
G03X185852I352J189D01*
G02Y120381I1148J-619D01*
G03X185148I-352J-189D01*
G37*
G36*
G01X202961Y124233D02*
G02X201343Y124988I-1211J-484D01*
G03X201589Y125516I-125J380D01*
G02X203833Y126796I1211J484D01*
G03X204467I317J244D01*
G02X206780Y125749I1033J-796D01*
G03X207249Y125280I392J-77D01*
G02X206220Y124251I251J-1280D01*
G03X205751Y124720I-392J77D01*
G02X204467Y125204I-251J1280D01*
G03X203833I-317J-244D01*
G02X203207Y124761I-1033J796D01*
G03X202961Y124233I125J-380D01*
G37*
G36*
G01X230386Y127957D02*
G02X228614I-886J-957D01*
G03Y128543I-272J293D01*
G02X228661Y130498I886J957D01*
G03X228543Y131179I-258J306D01*
G02X229839Y131402I457J1221D01*
G03X229957Y130721I258J-306D01*
G02X230386Y128543I-457J-1221D01*
G03Y127957I272J-293D01*
G37*
G36*
G01X274749Y134280D02*
G02X273720Y133251I251J-1280D01*
G03X273251Y133720I-392J77D01*
G02X272381Y136148I-252J1280D01*
G03Y136852I-189J352D01*
G02X273619I619J1148D01*
G03Y136148I189J-352D01*
G02X274280Y134749I-619J-1148D01*
G03X274749Y134280I392J-77D01*
G37*
G36*
G01X157989Y136026D02*
X157976Y136024D01*
G02X156510Y137997I-172J1403D01*
G03X156251Y138543I-366J161D01*
G02X157724Y139139I349J1257D01*
G03X157885Y138838I173J-101D01*
G02X157976Y138830I-78J-1411D01*
G01X157989Y138828D01*
X160255D01*
X160268Y138830D01*
G02X161107Y138673I172J-1403D01*
G03X161696Y139020I189J353D01*
G02X162428Y137828I1304J-20D01*
G03X161853Y137459I-175J-360D01*
G02X160268Y136024I-1413J-32D01*
G01X160255Y136026D01*
X157989D01*
G37*
G36*
G01X169794Y137660D02*
G02X168660Y138794I-1294J-160D01*
G03X169106Y139240I49J397D01*
G02X170240Y138106I1294J160D01*
G03X169794Y137660I-49J-397D01*
G37*
G36*
G01X137956Y152387D02*
G02X136410Y152663I-956J-887D01*
G03X136511Y153304I-181J357D01*
G02X138083Y153023I989J996D01*
G03X137956Y152387I166J-364D01*
G37*
G36*
G01X190710Y159815D02*
G02X189318Y161773I-1110J685D01*
G03X189621Y162252I-87J390D01*
G02X189597Y162736I1379J311D01*
G01X189598Y162749D01*
Y165015D01*
X189597Y165028D01*
G02X189589Y165278I1403J170D01*
G03X189215Y165699I-400J22D01*
G02X189217Y168301I85J1301D01*
G03X189590Y168670I-26J399D01*
G02X189597Y168736I1409J-116D01*
G01X189598Y168749D01*
Y171015D01*
X189597Y171028D01*
G02X189589Y171278I1403J170D01*
G03X189215Y171699I-400J22D01*
G02X189217Y174301I85J1301D01*
G03X189590Y174670I-26J399D01*
G02X189597Y174736I1409J-116D01*
G01X189598Y174749D01*
Y177015D01*
X189597Y177028D01*
G02X192403I1403J172D01*
G01X192402Y177015D01*
Y174749D01*
X192403Y174736D01*
G02X192409Y174673I-1404J-165D01*
G03X192806Y174304I399J31D01*
G02X192808Y171696I-5J-1304D01*
G03X192412Y171275I3J-400D01*
G02X192403Y171028I-1412J-72D01*
G01X192402Y171015D01*
Y168749D01*
X192403Y168736D01*
G02X192410Y168663I-1403J-171D01*
G03X192760Y168294I399J28D01*
G02X192761Y165706I-160J-1294D01*
G03X192411Y165285I49J-397D01*
G02X192403Y165028I-1411J-85D01*
G01X192402Y165015D01*
Y162749D01*
X192403Y162736D01*
G02X192382Y162266I-1403J-173D01*
G03X192709Y161787I391J-84D01*
G02X191390Y159815I-209J-1287D01*
G03X190710I-340J-210D01*
G37*
G36*
G01X278796Y165333D02*
G02X277204I-796J-1033D01*
G03Y165967I-244J317D01*
G02X278796I796J1033D01*
G03Y165333I244J-317D01*
G37*
G36*
G01X283296D02*
G02X281704I-796J-1033D01*
G03Y165967I-244J317D01*
G02X283296I796J1033D01*
G03Y165333I244J-317D01*
G37*
G36*
G01X287296D02*
G02X285704I-796J-1033D01*
G03Y165967I-244J317D01*
G02X287296I796J1033D01*
G03Y165333I244J-317D01*
G37*
G36*
G01X143239Y175267D02*
G02Y176733I-1198J733D01*
G03X143913Y176721I341J209D01*
G02Y175279I1087J-721D01*
G03X143239Y175267I-333J-221D01*
G37*
G36*
G01X155744Y178267D02*
G02X154749Y176920I307J-1267D01*
G03X154256Y177284I-399J-25D01*
G02X155251Y178631I-307J1267D01*
G03X155744Y178267I399J25D01*
G37*
G36*
G01X162207Y176881D02*
G02Y178119I-1148J619D01*
G03X162911I352J189D01*
G02Y176881I1148J-619D01*
G03X162207I-352J-189D01*
G37*
G36*
G01X198725Y192234D02*
G02X197075I-825J-734D01*
G03Y192766I-298J266D01*
G02X197189Y194344I825J734D01*
G03Y194956I-258J306D01*
G02X198611I711J844D01*
G03Y194344I258J-306D01*
G02X198725Y192766I-711J-844D01*
G03Y192234I298J-266D01*
G37*
G36*
G01X185215Y195495D02*
G02Y196905I-715J705D01*
G03X185785I285J280D01*
G02X186261Y197175I715J-705D01*
G03X186546Y197688I-95J389D01*
G02X187739Y197025I954J312D01*
G03X187454Y196512I95J-389D01*
G02X185785Y195495I-954J-312D01*
G03X185215I-285J-280D01*
G37*
G36*
G01X216918Y216886D02*
G02Y218114I-918J614D01*
G03X217582I332J222D01*
G02X219418I918J-614D01*
G03X220082I332J222D01*
G02Y216886I918J-614D01*
G03X219418I-332J-222D01*
G02X217582I-918J614D01*
G03X216918I-332J-222D01*
G37*
G36*
G01X207902Y103446D02*
Y101685D01*
X207903Y101672D01*
G02X205097I-1403J-172D01*
G01X205098Y101685D01*
Y103951D01*
X205097Y103964D01*
G02X207233Y105345I1403J172D01*
G03X207807Y105525I208J342D01*
G02X208465Y103811I1193J-525D01*
G03X207902Y103446I-163J-365D01*
G37*
G36*
G01X208043Y107714D02*
G03X207457I-293J-272D01*
G02Y109486I-957J886D01*
G03X208043I293J272D01*
G02Y107714I957J-886D01*
G37*
G36*
G01X94266Y109717D02*
G03X93797Y109365I-71J-394D01*
G02X92734Y110783I-1297J135D01*
G03X93203Y111135I71J394D01*
G02X94266Y109717I1297J-135D01*
G37*
G36*
G01X198902Y112451D02*
Y110185D01*
X198903Y110172D01*
G02X196097I-1403J-172D01*
G01X196098Y110185D01*
Y112451D01*
X196097Y112464D01*
G02X196093Y112770I1403J171D01*
G03X195743Y113205I-398J38D01*
G02X195154Y113431I159J1294D01*
G03X194585Y113313I-229J-328D01*
G02X193509Y112696I-1109J687D01*
G03X193135Y112188I11J-400D01*
G02X191603Y110399I-1360J-386D01*
G01X191590Y110400D01*
X189324D01*
X189311Y110399D01*
G02X188754Y110442I-172J1403D01*
G03X188259Y110161I-109J-385D01*
G02X185699Y110417I-1259J340D01*
G03X185206Y110781I-399J-25D01*
G02X184704Y110752I-331J1374D01*
G01X184691Y110754D01*
X182425D01*
X182412Y110752D01*
G02X181969Y113542I-172J1403D01*
G03X182270Y114068I-76J393D01*
G02X184735Y114081I1230J432D01*
G03X185061Y113556I379J-128D01*
G02X186289Y112171I-185J-1401D01*
G03X186762Y111782I400J4D01*
G02X187277Y111774I238J-1282D01*
G03X187754Y112085I85J391D01*
G02X188910Y113197I1385J-283D01*
G03X189234Y113687I-64J395D01*
G02X191639Y114635I1266J313D01*
G03X192337I349J195D01*
G02X194222Y115069I1139J-635D01*
G03X194791Y115187I229J328D01*
G02X197203Y114459I1109J-687D01*
G03X197580Y114047I400J-12D01*
G02X198903Y112464I-80J-1411D01*
G01X198902Y112451D01*
G37*
G36*
G01X142905Y116857D02*
G03X142295I-305J-259D01*
G02Y118543I-995J843D01*
G03X142905I305J259D01*
G02Y116857I995J-843D01*
G37*
G36*
G01X199045Y124919D02*
G03X198740Y124403I75J-393D01*
G02X197255Y125281I-1240J-403D01*
G03X197560Y125797I-75J393D01*
G02X199045Y124919I1240J403D01*
G37*
G36*
G01X185543Y125614D02*
G03X184957I-293J-272D01*
G02Y127386I-957J886D01*
G03X185543I293J272D01*
G02Y125614I957J-886D01*
G37*
G36*
G01X112386Y132043D02*
G03Y131457I272J-293D01*
G02X110614I-886J-957D01*
G03Y132043I-272J293D01*
G02X112386I886J957D01*
G37*
G36*
G01X204486Y139543D02*
G03Y138957I272J-293D01*
G02X202714I-886J-957D01*
G03Y139543I-272J293D01*
G02X204486I886J957D01*
G37*
G36*
G01X162121Y146361D02*
X163725Y144757D01*
G02X161743Y142775I-861J-1121D01*
G01X160866Y143652D01*
G03X160211Y143517I-283J-283D01*
G02X158097Y144940I-1211J482D01*
G03X158010Y145278I-139J145D01*
G02X157999Y145281I366J1365D01*
G03X157519Y145037I-106J-386D01*
G02X156508Y146787I-1219J463D01*
G03X156972Y147182I64J395D01*
G01Y149095D01*
X156970Y149108D01*
G02X159776I1403J172D01*
G01X159774Y149095D01*
Y146829D01*
X159776Y146816D01*
G02X159783Y146739I-1404J-166D01*
G03X160109Y146597I200J13D01*
G02X162121Y146361I891J-1097D01*
G37*
G36*
G01X180005Y148657D02*
G03X179395I-305J-259D01*
G02Y150343I-995J843D01*
G03X180005I305J259D01*
G02X181957Y150386I995J-843D01*
G03X182543I293J272D01*
G02Y148614I957J-886D01*
G03X181957I-293J-272D01*
G02X180005Y148657I-957J886D01*
G37*
G36*
G01X153843Y159614D02*
G03X153257I-293J-272D01*
G02Y161386I-957J886D01*
G03X153843I293J272D01*
G02Y159614I957J-886D01*
G37*
G36*
G01X210957Y164114D02*
G03X211004Y163527I293J-272D01*
G02X209243Y163386I-804J-1027D01*
G03X209196Y163973I-293J272D01*
G02X210957Y164114I804J1027D01*
G37*
G36*
G01X161430Y167198D02*
G03X161230Y166932I-11J-200D01*
G02X159061Y167405I-1230J-432D01*
G03X158927Y167743I-144J138D01*
G02X158829Y167752I80J1411D01*
G01X158816Y167754D01*
X156550D01*
X156537Y167752D01*
G02Y170558I-172J1403D01*
G01X156550Y170556D01*
X158816D01*
X158829Y170558D01*
G02X160267Y169784I172J-1403D01*
G03X160830Y169619I358J178D01*
G02X162792Y168679I670J-1119D01*
G03X163224Y168335I396J54D01*
G02X163522Y168330I125J-1408D01*
G01X163535Y168328D01*
X165801D01*
X165814Y168330D01*
G02Y165524I172J-1403D01*
G01X165801Y165526D01*
X163535D01*
X163522Y165524D01*
G02X161940Y166825I-172J1403D01*
G03X161532Y167196I-399J-29D01*
G02X161430Y167198I-25J1304D01*
G37*
G36*
G01X209912Y172443D02*
G03X210163Y172260I200J10D01*
G02X209234Y170687I337J-1260D01*
G03X208770Y170983I-388J-96D01*
G02X207097Y172543I-270J1388D01*
G01X207098Y172556D01*
Y174822D01*
X207097Y174835D01*
G02X209225Y176220I1403J172D01*
G03X209799Y176408I205J343D01*
G02X210465Y174711I1201J-508D01*
G03X209902Y174346I-163J-365D01*
G01Y172556D01*
X209903Y172543D01*
G02X209912Y172443I-1403J-177D01*
G37*
G36*
G01X214258Y183294D02*
G03X214704Y183646I49J397D01*
G02X217088Y182782I1296J-146D01*
G03X217219Y182217I334J-220D01*
G02X217903Y180828I-719J-1217D01*
G01X217902Y180815D01*
Y178549D01*
X217903Y178536D01*
G02X215097I-1403J-172D01*
G01X215098Y178549D01*
Y180405D01*
G03X214558Y180779I-400J0D01*
G02X214258Y183294I-458J1221D01*
G37*
G36*
G01X209902Y181452D02*
Y180656D01*
X209903Y180643D01*
G02X207097I-1403J-172D01*
G01X207098Y180656D01*
Y182922D01*
X207097Y182935D01*
G02X208343Y184512I1403J172D01*
G03X208698Y184931I-44J397D01*
G02X211257Y184652I1302J69D01*
G03X211538Y184159I385J-107D01*
G02X210512Y181792I-338J-1259D01*
G03X209902Y181452I-210J-340D01*
G37*
G36*
G01X188411Y187280D02*
G03X188118Y187733I-395J66D01*
G02X188015Y187765I276J1069D01*
G03X187509Y187553I-140J-375D01*
G02X185766Y187175I-1009J447D01*
G03X185234I-266J-298D01*
G02X183538Y187459I-734J825D01*
G03X183006Y187619I-349J-196D01*
G02X183462Y189141I-506J981D01*
G03X183994Y188981I349J196D01*
G02X185234Y188825I506J-981D01*
G03X185766I266J298D01*
G02X186885Y189035I734J-825D01*
G03X187391Y189247I140J375D01*
G02X189489Y188620I1009J-448D01*
G03X189782Y188167I395J-66D01*
G02X188411Y187280I-282J-1067D01*
G37*
G36*
G01X250411Y209942D02*
G03X250663Y209760I200J11D01*
G02X249735Y208182I337J-1260D01*
G03X249271Y208477I-388J-98D01*
G02X247597Y210036I-271J1387D01*
G01X247598Y210049D01*
Y212315D01*
X247597Y212328D01*
G02X247594Y212350I1399J202D01*
G03X247151Y212705I-398J-42D01*
G02X248286Y214218I-151J1295D01*
G03X248751Y213891I394J67D01*
G02X250403Y212328I249J-1391D01*
G01X250402Y212315D01*
Y210049D01*
X250403Y210036D01*
G02X250411Y209942I-1404J-167D01*
G37*
G36*
G01X223102Y212980D02*
G03X223501Y212604I399J24D01*
G02X222198Y211220I-1J-1304D01*
G03X221799Y211596I-399J-24D01*
G02X223102Y212980I1J1304D01*
G37*
G36*
G01X226315Y231098D02*
X224049D01*
X224036Y231097D01*
G02X222784Y231588I-172J1403D01*
G03X222235Y231646I-305J-259D01*
G02X222313Y233488I-735J954D01*
G03X222865Y233500I270J295D01*
G02X224036Y233903I999J-1000D01*
G01X224049Y233902D01*
X226315D01*
X226328Y233903D01*
G02Y231097I172J-1403D01*
G01X226315Y231098D01*
G37*
G36*
G01X218335Y243347D02*
G03X217765I-285J-280D01*
G02Y244755I-716J704D01*
G03X218335I285J280D01*
G02Y243347I716J-704D01*
G37*
G54D35*
X301043Y-5307D03*
X243957D03*
G54D50*
X128213Y71283D03*
G54D34*
X301043Y18315D03*
X243957D03*
G54D36*
X18071Y12133D03*
X49961D03*
G54D58*
X184936Y312272D03*
X187495Y318572D03*
X184936D03*
X182377Y312272D03*
Y315422D03*
Y318572D03*
X184936Y309123D03*
X182377Y305974D03*
X182378Y309123D03*
X182377Y302823D03*
X184936Y303123D03*
Y293967D03*
X182377Y299000D03*
Y293967D03*
X184936Y298000D03*
X182377Y290817D03*
Y281368D03*
Y287668D03*
Y284518D03*
X182000Y275500D03*
X181397Y265488D03*
Y257810D03*
Y260370D03*
Y255251D03*
Y262929D03*
Y247574D03*
X183956D03*
Y250133D03*
X181398Y252693D03*
X181397Y250133D03*
X183956Y245015D03*
Y234779D03*
X183957Y237338D03*
X181397Y242456D03*
X183956D03*
X181397Y237338D03*
Y234779D03*
X172141Y312273D03*
X169582Y318572D03*
X177259Y312273D03*
X179818Y318572D03*
X169582Y312273D03*
X179818D03*
X169582Y315422D03*
X174500Y314500D03*
X169582Y309123D03*
X179818D03*
X172141Y309623D03*
X177259D03*
X179818Y293967D03*
X169582Y297117D03*
Y293967D03*
Y290818D03*
X179818Y290817D03*
X169582Y281368D03*
Y287667D03*
X179818Y281368D03*
Y287667D03*
X169582Y284518D03*
X179818D03*
X176279Y260370D03*
X171162Y257810D03*
Y255251D03*
X176279D03*
X171162Y260370D03*
X176279Y257810D03*
Y262929D03*
X178838Y260370D03*
Y255251D03*
Y257810D03*
X171162Y245015D03*
X178838D03*
X171162Y247574D03*
X176279D03*
X178838D03*
X176279Y245015D03*
Y252692D03*
X171162D03*
X178838D03*
X171162Y250133D03*
X176279D03*
X178838D03*
Y234779D03*
X171162Y242456D03*
Y234779D03*
X178838Y242456D03*
X176279D03*
X171162Y237338D03*
Y224543D03*
X178838Y229661D03*
X176279Y221985D03*
X171162Y229662D03*
Y227103D03*
X178838Y221985D03*
X171162D03*
X178838Y219426D03*
X171162Y219425D03*
X176280Y219426D03*
X164464Y312272D03*
X161905Y318572D03*
X164464D03*
X167023Y312272D03*
X161905Y312273D03*
X159346Y318572D03*
X167023D03*
X164464Y315422D03*
X167023D03*
X167089Y306040D03*
X167023Y309123D03*
X167035Y302500D03*
X164464Y305973D03*
X161905Y302823D03*
X167023Y293817D03*
X164464Y293467D03*
X167023Y290817D03*
X163500Y297500D03*
X164464Y290817D03*
X164470Y284500D03*
X164464Y281368D03*
X161905Y287670D03*
X167023Y287668D03*
X164463D03*
X161905Y284518D03*
X166044Y257811D03*
X168603D03*
Y262929D03*
Y260370D03*
X166044Y262929D03*
Y255251D03*
Y260370D03*
X168603Y255251D03*
X166044Y245015D03*
X160926Y250133D03*
X166044Y252692D03*
X168603Y247574D03*
Y245015D03*
Y252692D03*
X158367Y245016D03*
X163485Y247574D03*
X158366D03*
X168603Y250133D03*
X160926Y245015D03*
X166044Y250133D03*
X163485D03*
X160926Y242456D03*
Y234779D03*
X158367Y237339D03*
Y239898D03*
X160926Y239897D03*
X163485Y242456D03*
X163484Y239897D03*
X158367Y242457D03*
Y234779D03*
X168603D03*
X166044Y237338D03*
X160926D03*
X163485Y234779D03*
X168603Y242456D03*
X160926Y229662D03*
X158367D03*
Y227103D03*
X166044D03*
Y224544D03*
Y221985D03*
Y229662D03*
X168603Y227103D03*
Y221985D03*
Y224544D03*
Y229662D03*
X158367Y224544D03*
X163485Y221985D03*
X160926D03*
Y224544D03*
X163485Y227103D03*
Y229662D03*
Y224544D03*
X158367Y221985D03*
X168603Y219426D03*
X158367D03*
X160926D03*
X163485D03*
X150690Y245015D03*
Y247574D03*
X153249D03*
X155808Y245015D03*
X153249D03*
X155808Y247574D03*
X148130Y245015D03*
X150690Y242456D03*
X150689Y239897D03*
X148130D03*
X153249Y237338D03*
X150690D03*
X153249Y234779D03*
X150690D03*
X153249Y239897D03*
Y242456D03*
X148130Y234779D03*
X155808Y242456D03*
Y234780D03*
X155807Y239897D03*
X148130Y242456D03*
X155808Y237339D03*
X148130Y237338D03*
X153249Y224544D03*
Y227103D03*
Y221985D03*
X148130Y229662D03*
X150690D03*
Y227103D03*
Y221985D03*
X155808D03*
Y229662D03*
Y227103D03*
X148130Y221985D03*
X153249Y229662D03*
X155808Y224544D03*
X150690D03*
X148130Y227103D03*
X153249Y219426D03*
X155808D03*
X150690D03*
X148130D03*
X132500Y232000D03*
X135000D03*
X143012Y204071D03*
X145570Y201512D03*
Y204071D03*
X143000Y201500D03*
X153248Y201512D03*
X150690Y209190D03*
X155808Y206630D03*
X155807Y201512D03*
X155808Y209190D03*
X155807Y204071D03*
X150689Y201512D03*
Y204071D03*
X148129Y201512D03*
Y204071D03*
X150690Y206630D03*
X153248Y204071D03*
X153249Y209190D03*
Y206630D03*
X148129D03*
X155808Y214308D03*
X150690D03*
X153249D03*
X162200Y193500D03*
X168603Y209190D03*
X160926Y206630D03*
X163485Y209190D03*
X166044Y206630D03*
Y209190D03*
X163484Y201512D03*
Y204071D03*
X166043Y201512D03*
Y204071D03*
X158367Y209190D03*
Y206630D03*
X158366Y201512D03*
Y204071D03*
X160925Y201512D03*
Y204071D03*
X168602Y201512D03*
Y204071D03*
X163485Y206630D03*
X158367Y214308D03*
X166044Y214307D03*
X160926Y211749D03*
X168602D03*
X176279Y206630D03*
X173720Y204071D03*
X178838D03*
X173720Y201512D03*
X176279D03*
Y204071D03*
X178838Y201512D03*
X171162Y209190D03*
X176279Y211749D03*
Y214308D03*
X171162D03*
X178838D03*
X206988Y245015D03*
X204429D03*
Y247574D03*
X206988D03*
X204429Y242456D03*
X206988D03*
Y234779D03*
X204429D03*
Y237338D03*
X209830Y201329D03*
X204526Y201226D03*
X209000Y197500D03*
X196751Y247574D03*
X191633D03*
X201870D03*
X199311D03*
X201870Y245015D03*
X191633D03*
X194192Y247574D03*
X196751Y245015D03*
X194192D03*
X199310D03*
X194192Y239897D03*
X191633D03*
Y234779D03*
X201870Y239897D03*
Y237339D03*
Y242456D03*
X194192Y234779D03*
X191633Y237338D03*
X196751Y234779D03*
X199310D03*
Y237338D03*
X196751D03*
X194192Y242456D03*
X196751D03*
X191633D03*
X201869Y234779D03*
X194192Y237338D03*
X199311Y239897D03*
X201870Y229662D03*
X191633Y221985D03*
Y224543D03*
X194192Y221985D03*
X196751Y229662D03*
X199310D03*
X196751Y224544D03*
Y227103D03*
X199310D03*
Y224544D03*
X191633Y227103D03*
X194192Y224544D03*
Y227103D03*
X191633Y229662D03*
X194192D03*
X199310Y221985D03*
X196751D03*
X201870Y224544D03*
X191633Y211749D03*
X196751Y214308D03*
X201870Y211749D03*
X191633Y219426D03*
X194192Y214308D03*
Y216867D03*
Y211749D03*
X201869Y216867D03*
X201870Y214308D03*
X199310D03*
Y216867D03*
X191633D03*
X196751D03*
X199310Y219426D03*
X194193D03*
X196751D03*
X191633Y214308D03*
X201870Y219426D03*
X199310Y211749D03*
X196751Y206630D03*
X194192D03*
Y209190D03*
X199310Y206630D03*
X201870Y209190D03*
X191633D03*
X199310D03*
X196751D03*
X191633Y206630D03*
X189074Y245015D03*
X189075Y239897D03*
Y234779D03*
X189074Y242456D03*
Y224544D03*
Y229662D03*
Y227103D03*
Y221985D03*
X186515Y214308D03*
X189074Y216866D03*
X186515Y211749D03*
X189074D03*
Y214308D03*
X183956Y216867D03*
X186515Y219426D03*
X183956D03*
X186516Y216867D03*
X189074Y209190D03*
X186515D03*
X189074Y204071D03*
Y201512D03*
X186515Y204071D03*
Y201512D03*
X183956Y206630D03*
X186515D03*
G54D56*
X121087Y34472D03*
X114000Y36441D03*
X121087Y50220D03*
Y42346D03*
X114000Y46283D03*
X121087Y58094D03*
X114000Y54157D03*
Y64000D03*
X121087Y65969D03*
G54D53*
X106874Y29157D03*
G54D47*
X240500Y315000D03*
X253000Y310000D03*
X250500Y302500D03*
X249500Y315000D03*
X271500Y313000D03*
X278500Y335500D03*
X307000Y217500D03*
X324476Y211500D03*
X81337Y290000D03*
X72676Y289500D03*
X238000Y221500D03*
G54D59*
X128500Y232000D03*
X209392Y189325D03*
X202500Y193000D03*
X194500Y188300D03*
X162100Y186000D03*
X155200Y186400D03*
G54D45*
X165043Y1508D03*
X217996D03*
G54D60*
X279630Y172694D03*
G54D57*
X59000Y166000D03*
Y169000D03*
Y151000D03*
X44000Y175500D03*
X16500Y150000D03*
X18500Y147500D03*
X181000Y322500D03*
X177500D03*
X91500Y315000D03*
X81258Y335358D03*
X79390Y338000D03*
X89000Y331000D03*
X88500Y321000D03*
Y315000D03*
X82000Y305000D03*
X85500D03*
X89500D03*
X77421Y335421D03*
X74500Y327000D03*
X69547Y323047D03*
X78500Y326900D03*
X72700Y323000D03*
X74500Y313000D03*
X71600D03*
X77500D03*
X75500Y320500D03*
X69500Y320000D03*
X74000Y305000D03*
X215500Y232700D03*
X218400Y232601D03*
G54D54*
X16000Y190504D03*
Y253496D03*
Y276004D03*
X-500Y89500D03*
Y99500D03*
Y109500D03*
X211996Y143500D03*
X149004D03*
G54D43*
X-8567Y342539D03*
X8126D03*
X23874D03*
X31866D03*
X-4630Y186961D03*
Y272461D03*
X8126Y186961D03*
Y257039D03*
Y272461D03*
X23874Y186961D03*
Y257039D03*
Y272461D03*
X31866Y186961D03*
Y257039D03*
Y272461D03*
X215539Y168067D03*
Y151374D03*
Y135626D03*
Y127634D03*
X145461Y164130D03*
Y151374D03*
Y135626D03*
Y127634D03*
G54D42*
X-1000Y26000D03*
X20320Y31770D03*
X17340Y52820D03*
X18000Y57800D03*
X31000Y356000D03*
X40000D03*
X34500D03*
X35693Y360193D03*
X48000Y364500D03*
X86000Y-11000D03*
X90000Y363500D03*
X120000Y360500D03*
X133000Y-7500D03*
X129500D03*
X126000D03*
X136500D03*
X151000Y4500D03*
Y8500D03*
X150000Y360500D03*
X212500Y347500D03*
X204500Y362000D03*
X217500Y344000D03*
X220976D03*
X214500Y351500D03*
X222000Y365500D03*
X232500Y256500D03*
X229300Y256472D03*
X228900Y309000D03*
X231500Y315000D03*
X235900D03*
X246500Y257500D03*
X238500Y256000D03*
X251000Y34000D03*
Y54750D03*
X258000Y63000D03*
X257750Y54750D03*
X252500Y265000D03*
X250000Y257500D03*
Y296500D03*
X256500Y294500D03*
X250000Y293000D03*
X257500Y306500D03*
Y315000D03*
X248000Y329500D03*
Y326000D03*
X251900Y356000D03*
X255000D03*
Y359500D03*
X251900D03*
X259000Y33500D03*
X262500D03*
X266594D03*
X269000Y57500D03*
X263000Y101000D03*
X267000D03*
X260000Y263500D03*
X262000Y296000D03*
X265000Y299500D03*
X261500Y306500D03*
X265000Y309000D03*
X262000Y315000D03*
X264500Y331500D03*
X260500D03*
X266500Y340000D03*
X260524Y335000D03*
X275300Y53000D03*
X276500Y57500D03*
X280000Y89200D03*
X281000Y111500D03*
X280000Y253500D03*
X280500Y256800D03*
X272798Y337471D03*
X278500Y340000D03*
X285700Y29500D03*
X292000Y57500D03*
X291000Y53000D03*
X284500Y57500D03*
X286100Y53000D03*
X284000Y74000D03*
X287000Y93500D03*
X282500Y87500D03*
X286096Y87404D03*
X282700Y91700D03*
X284000Y113500D03*
X291500Y110000D03*
X292500Y123500D03*
X286000Y238500D03*
X288000Y249500D03*
X284500Y261000D03*
X291000Y282500D03*
Y286000D03*
Y289500D03*
X288976Y306476D03*
X301000Y32500D03*
X299551Y55449D03*
X297500Y83500D03*
Y79500D03*
X296500Y75900D03*
X297000Y92500D03*
X301283Y166500D03*
X302500Y226500D03*
Y231524D03*
Y240500D03*
Y244000D03*
X300000Y249000D03*
X301000Y255500D03*
X294500Y296500D03*
X301000Y293500D03*
X297000D03*
X301500Y309000D03*
X294500Y301000D03*
X301500Y302000D03*
X304500Y45500D03*
Y42000D03*
X310000Y58500D03*
X313500Y57500D03*
X304100Y95524D03*
X308500Y105500D03*
X306800Y108000D03*
X304100Y101700D03*
Y98600D03*
X314000Y160500D03*
X311500Y200500D03*
Y204500D03*
X311700Y223500D03*
X307000Y221500D03*
X313000Y235500D03*
Y246000D03*
X308500Y256516D03*
X315000Y268500D03*
X305000Y293500D03*
X305500Y302000D03*
X310460Y346850D03*
X315500Y35000D03*
Y60500D03*
X317500Y57500D03*
X315500Y54000D03*
X321500Y58000D03*
X324524Y72500D03*
X316000Y109500D03*
X316300Y123000D03*
X322200Y129476D03*
X316000Y163000D03*
X317000Y205000D03*
X318500Y199000D03*
X321500Y220500D03*
X326000Y221900D03*
Y231800D03*
X319000Y236524D03*
X319100Y233500D03*
X323500Y243500D03*
X325000Y350000D03*
Y354000D03*
X329490Y46458D03*
X330000Y59840D03*
Y81500D03*
Y77000D03*
X329500Y84500D03*
X328500Y90500D03*
X332500Y122900D03*
X336400Y145000D03*
X333500Y144000D03*
X335500Y164000D03*
X333000Y168500D03*
X326976Y168024D03*
X326500Y203500D03*
Y214000D03*
X337500Y218500D03*
X330800Y215300D03*
X331500Y226500D03*
X329500Y224000D03*
X333200Y239500D03*
X334700Y234000D03*
X327000Y249500D03*
X332000Y244000D03*
X330500Y256500D03*
X335700Y288100D03*
X328000Y297000D03*
X335500Y295000D03*
X334500Y303000D03*
Y306500D03*
X331000Y303000D03*
X328000Y302000D03*
X329693Y362000D03*
X341500Y104000D03*
X342500Y119000D03*
X338500Y168500D03*
X341500Y170000D03*
X343500Y191500D03*
X341500Y199500D03*
X344000Y234500D03*
Y265500D03*
Y260000D03*
X345500Y268524D03*
X354000Y30008D03*
X356490Y71059D03*
X350000Y73000D03*
X356500Y81000D03*
Y76000D03*
X350000Y84500D03*
X349976Y90024D03*
X354000Y104000D03*
X350000Y117500D03*
X357000Y179900D03*
Y183000D03*
Y186100D03*
X352500Y176500D03*
X359500Y204000D03*
X350500Y203500D03*
X357500Y211500D03*
X359000Y221500D03*
X351000Y221200D03*
X354100Y225000D03*
X351000Y228100D03*
Y225000D03*
X356000Y247500D03*
X349500Y276500D03*
X363500Y176500D03*
X367000D03*
X362500Y242000D03*
Y249000D03*
X361000Y262500D03*
Y272500D03*
X58000Y39000D03*
X-500Y161000D03*
X-5000D03*
X-8500D03*
X-3000Y200000D03*
Y206800D03*
Y203500D03*
Y213339D03*
Y210000D03*
X-1200Y222787D03*
X-1137Y225937D03*
X-1500Y291500D03*
Y295000D03*
Y298500D03*
Y302000D03*
X-1287Y308287D03*
X-1437Y311437D03*
X0Y80500D03*
X10576Y126524D03*
X7524D03*
X6500Y141000D03*
X7000Y132976D03*
X6500Y149000D03*
X10000Y161000D03*
X11100Y170850D03*
X9912Y227512D03*
X16000Y82300D03*
X19500D03*
X16000Y85400D03*
X19500D03*
Y78900D03*
X16000D03*
Y88500D03*
X19500D03*
X16500Y101000D03*
X18941Y180500D03*
X21500Y208614D03*
X20764Y211764D03*
X21000Y216500D03*
X11362Y219638D03*
X21500Y224500D03*
X22000Y227500D03*
X21500Y237500D03*
Y244500D03*
Y248500D03*
X11500Y247000D03*
X21500Y282000D03*
Y294114D03*
X21264Y297264D03*
X11488Y301988D03*
X11362Y305138D03*
X21661Y316161D03*
X21500Y324500D03*
Y329500D03*
Y334000D03*
X31500Y30500D03*
X28750Y66750D03*
X27000Y82500D03*
X23000Y79000D03*
X23500Y82400D03*
Y85500D03*
X27500Y90500D03*
X24059Y180500D03*
X33500Y193000D03*
Y220000D03*
X33488Y227512D03*
X33500Y233812D03*
X33409Y236961D03*
X33500Y299000D03*
Y295000D03*
Y304500D03*
Y319312D03*
X33488Y313012D03*
X33409Y322461D03*
X40200Y70500D03*
X42500Y63500D03*
X39500Y75000D03*
X41500Y78000D03*
X44000Y80000D03*
X38500Y81500D03*
X35000Y78000D03*
Y81500D03*
X36250Y87250D03*
X34000Y308000D03*
X56000Y2091D03*
X51000Y24500D03*
X50500Y33500D03*
X53000Y56500D03*
X49000Y74000D03*
X53000D03*
X55900Y81500D03*
Y78400D03*
X52500D03*
Y81500D03*
X49476Y79976D03*
X62500Y13000D03*
X61500Y48000D03*
X61000Y56500D03*
Y74500D03*
X57000Y74000D03*
X61000Y65500D03*
X65000Y74000D03*
Y78000D03*
X61500D03*
X59000Y81500D03*
X69000Y2000D03*
X70100Y10000D03*
X74900Y14000D03*
X74524Y19500D03*
X78000D03*
X71500Y20500D03*
X72000Y40000D03*
X73000Y51000D03*
X71000Y46500D03*
X70400Y73000D03*
X68500Y75500D03*
X84000Y11500D03*
X82100Y14000D03*
X79000D03*
X88500Y25500D03*
X85500Y34000D03*
X87200Y31339D03*
X85000Y60300D03*
X84500Y74400D03*
X88000Y67000D03*
X85000Y78000D03*
X97000Y20500D03*
X101000Y35500D03*
Y38700D03*
X96000D03*
Y35500D03*
X101000Y42000D03*
X96000D03*
X97906Y63000D03*
X97500Y70500D03*
X91700Y67000D03*
X95500D03*
X94500Y84000D03*
X104500Y3500D03*
X106000Y15500D03*
X103500Y81500D03*
X123500Y17500D03*
X117500Y26500D03*
X114000D03*
X121500Y22500D03*
X117500D03*
X114000D03*
X116500Y83500D03*
X112500Y86500D03*
X123000Y86000D03*
X118500Y88500D03*
X127500Y17500D03*
X134500Y47500D03*
X126059Y86500D03*
X135500Y4500D03*
X140500Y5000D03*
X135500Y8000D03*
X136000Y17500D03*
Y14000D03*
X140500Y8500D03*
X136000Y21000D03*
X140500Y45000D03*
X145500Y52000D03*
X136500Y45000D03*
X144000Y66500D03*
X143500Y86800D03*
X150500Y52000D03*
X148500Y86200D03*
X166500Y63000D03*
X168400Y65500D03*
X162000Y79800D03*
Y76500D03*
X159500Y88200D03*
X170500Y63000D03*
X176000Y65000D03*
X169000Y72000D03*
Y82600D03*
Y79500D03*
Y76400D03*
X179100Y76500D03*
X169100Y86700D03*
X191000Y68000D03*
X187500D03*
X184000Y77000D03*
X183500Y87500D03*
X187000Y91000D03*
X191500Y88000D03*
X194500Y91000D03*
X203000Y68000D03*
X210500Y80000D03*
X221000Y71000D03*
X217500Y67000D03*
X224500Y64500D03*
X221000Y66000D03*
X217500Y71000D03*
X229000Y58500D03*
X236000Y68000D03*
X233500Y82059D03*
X230000Y87500D03*
X229500Y90500D03*
X240000Y61500D03*
X243500Y71500D03*
X243000Y63500D03*
X244000Y81500D03*
X237500Y76000D03*
X238000Y87000D03*
X44000Y39000D03*
X40680Y53950D03*
X36500Y147300D03*
X85500Y142500D03*
X80900Y130500D03*
X84000D03*
X86800Y117500D03*
X68200Y171000D03*
X72500Y134500D03*
X70000Y129500D03*
Y126000D03*
X74500Y130500D03*
X64800Y171000D03*
X66000Y174000D03*
X62500Y148000D03*
X65000Y145500D03*
Y142424D03*
X61000Y133500D03*
X66000Y134000D03*
X65000Y138900D03*
X53000Y193500D03*
X46500Y165000D03*
X56000Y171500D03*
X49500Y160000D03*
X45500Y161700D03*
Y157800D03*
Y154300D03*
X49327Y142673D03*
X49500Y147000D03*
X45000Y151300D03*
Y147300D03*
X54000Y136500D03*
X55000Y126000D03*
X52000Y129000D03*
X56000Y94500D03*
X41500Y165000D03*
X36000D03*
X36500Y161700D03*
Y157800D03*
X34000Y159700D03*
Y156100D03*
X40500Y161700D03*
X43000Y159700D03*
X40500Y157800D03*
X43000Y156100D03*
X36700Y154500D03*
X39800D03*
X40000Y147300D03*
X42500Y149300D03*
X36500Y151300D03*
X34000Y149300D03*
Y153000D03*
X40000Y151300D03*
X42500Y153000D03*
X36500Y132000D03*
X41453Y134547D03*
X44500Y134500D03*
X36500Y128500D03*
X39500Y97000D03*
X31000Y165000D03*
X27500Y157000D03*
X27390Y161390D03*
X31500Y161700D03*
Y157800D03*
X31300Y154500D03*
X27500Y151500D03*
X31500Y151300D03*
X25500Y133524D03*
X28500Y131500D03*
Y108700D03*
X26500Y116000D03*
X24000Y108500D03*
X28500Y99000D03*
X24000Y105000D03*
X28500Y105500D03*
X18500Y144000D03*
X19000Y136000D03*
X20500Y108500D03*
X31580Y143460D03*
X27500Y143540D03*
X31500Y147300D03*
X35547Y143510D03*
X165000Y346150D03*
X206500Y324000D03*
X195000Y347500D03*
X193000Y333500D03*
X196500Y325500D03*
X196000Y328500D03*
X185500Y347500D03*
X189500Y333500D03*
X182500Y331000D03*
X175024Y347500D03*
X174500Y326000D03*
X175024Y331059D03*
X164500Y341500D03*
X165500Y325500D03*
X165000Y331500D03*
X155000Y341500D03*
X147000Y324000D03*
Y327500D03*
X148500Y331000D03*
X150500Y324000D03*
X155000Y323000D03*
X152024Y328476D03*
X155500Y331500D03*
X142500Y353800D03*
X141200Y341500D03*
X137476D03*
X125000Y346000D03*
X134000Y332000D03*
Y328976D03*
X125500Y323000D03*
X128750Y256750D03*
X126500Y250000D03*
X132000D03*
X124500Y231500D03*
X131800Y211900D03*
X112500Y322500D03*
X115000Y307500D03*
X118000Y278000D03*
Y274900D03*
X120000Y267500D03*
X114000Y268000D03*
X117100Y256500D03*
X123500Y254000D03*
X120000Y244524D03*
X114398Y243000D03*
X111500Y346000D03*
X104467Y324500D03*
X112000Y332500D03*
X109000Y315500D03*
Y319500D03*
X111524Y305500D03*
X109000Y303500D03*
X112000Y301500D03*
X109000Y292000D03*
Y295100D03*
Y299300D03*
X104467Y292000D03*
X106700Y276000D03*
X105000Y228000D03*
X95476Y315000D03*
X89998Y300500D03*
X93000Y278500D03*
X90500Y275500D03*
X98000Y256500D03*
X100500Y261100D03*
X91449Y247449D03*
X95000Y245100D03*
X98000Y244000D03*
X91400Y244400D03*
X91500Y250500D03*
X95000Y242000D03*
X97000Y228000D03*
X100500Y212500D03*
X95500D03*
X82000Y347500D03*
X85668Y290000D03*
X87000Y275500D03*
Y272000D03*
X85200Y261000D03*
X87900Y225000D03*
X67500Y347500D03*
X71500D03*
X75000D03*
X78500D03*
X75500Y354500D03*
X77006Y289606D03*
X67445Y289500D03*
X77000Y286500D03*
X75200Y246500D03*
X74000Y227500D03*
X72500Y231500D03*
X59000Y349500D03*
X64500Y354500D03*
X64214Y300000D03*
X60500D03*
X58000Y260500D03*
Y264000D03*
X59000Y216000D03*
X61524Y213500D03*
X48000Y348000D03*
X52500Y325000D03*
X50333Y292500D03*
X45000Y256000D03*
Y260000D03*
Y263500D03*
X45500Y246400D03*
Y249500D03*
Y243300D03*
X55500Y224000D03*
X47000Y231100D03*
X56000Y219000D03*
X44000Y348000D03*
Y321000D03*
X43500Y296000D03*
X42000Y229500D03*
X156000Y346150D03*
X141000D03*
X144500D03*
X148000D03*
X66000Y185500D03*
Y181500D03*
Y195500D03*
Y190500D03*
X79500Y185500D03*
Y181500D03*
X111500Y201000D03*
X115000D03*
X118100D03*
X284000Y211500D03*
X283100Y176800D03*
X270500Y140500D03*
Y128500D03*
X264000Y242300D03*
X265000Y236500D03*
X261500Y237500D03*
Y234000D03*
X264000Y230000D03*
X267476D03*
X264000Y226000D03*
X264700Y178500D03*
X266500Y168300D03*
Y165000D03*
Y171500D03*
X265500Y138500D03*
X267232Y136000D03*
X268701Y132200D03*
X261500Y132000D03*
X259000Y134500D03*
X262000Y128500D03*
X260000Y109800D03*
X258000Y237500D03*
X254000Y234000D03*
X257500D03*
X253000Y242300D03*
X255200Y150700D03*
Y147500D03*
X248700Y127000D03*
X255200Y114000D03*
X251300D03*
X255000Y109800D03*
X239000Y247000D03*
X237500Y225500D03*
X239900Y200400D03*
X236800D03*
X241500Y185500D03*
X245000Y159000D03*
X243500Y147000D03*
Y132000D03*
X245600Y127000D03*
X246500Y130600D03*
Y123000D03*
X246267Y114000D03*
X242750Y113750D03*
X239000Y101500D03*
X244500D03*
X234000Y225500D03*
X228000Y208800D03*
X234000Y182000D03*
X229000Y158000D03*
X228000Y150000D03*
X229000Y146000D03*
X235000Y124000D03*
X229000Y111500D03*
X230700Y114000D03*
X227000D03*
X233500Y106500D03*
X224200Y182500D03*
X224500Y166500D03*
X223300Y153500D03*
X222700Y131600D03*
Y135500D03*
X220244Y124744D03*
X215000Y106000D03*
X213500Y185500D03*
X208500Y168000D03*
X205500Y161500D03*
X209000Y138000D03*
X210500Y126000D03*
X203500Y105100D03*
X201250Y175850D03*
X200100Y161000D03*
X200250Y164150D03*
X195600Y149500D03*
X201600Y143500D03*
X192500Y137500D03*
X195500Y139000D03*
X195000Y126000D03*
X201500Y108000D03*
X190500Y149200D03*
X180800Y124900D03*
X185000Y97500D03*
X178500Y160500D03*
X172500D03*
X171250Y150000D03*
X178500Y140500D03*
X177500Y121000D03*
X177000Y109000D03*
X178500Y112000D03*
X174000D03*
X163700Y162800D03*
X159500Y99500D03*
Y103500D03*
X149500Y182500D03*
X152941Y149000D03*
X157000Y126000D03*
X147500Y117500D03*
X154500Y109000D03*
X141000Y158000D03*
X140780Y162473D03*
X138000Y131000D03*
Y134500D03*
Y138000D03*
X138200Y126800D03*
X138000Y110500D03*
X141200D03*
X130500Y126500D03*
X133100Y113000D03*
X119500Y147500D03*
X120500Y139500D03*
X119000Y126500D03*
X123500D03*
X123000Y123500D03*
X109500Y158000D03*
Y154900D03*
Y151500D03*
X110000Y147900D03*
X108500Y136500D03*
X104500D03*
X108500Y128000D03*
X106000Y125000D03*
X108900Y113500D03*
X106000Y114500D03*
X100500Y136500D03*
X96500D03*
X104900Y128000D03*
G54D46*
X169000Y54500D03*
X174000Y44500D03*
X179000Y54500D03*
X184000Y44500D03*
X189000Y54500D03*
X194000Y44500D03*
X204000D03*
X199000Y54500D03*
X214000Y44500D03*
X209000Y54500D03*
G54D55*
X-4800Y174000D03*
X-1200D03*
X-8500D03*
X-4800Y177500D03*
X-1200D03*
X-8500D03*
X2600D03*
X7500D03*
X14500Y174000D03*
X11200D03*
X14500Y177500D03*
X11200D03*
X56500Y207500D03*
Y204000D03*
X40500Y221500D03*
Y225000D03*
X44500Y220700D03*
Y214100D03*
Y217400D03*
X40500Y218000D03*
Y214500D03*
X142100Y172200D03*
Y168500D03*
X139400Y170400D03*
Y174100D03*
X137100Y165300D03*
X137500Y158100D03*
X137100Y162000D03*
X132000Y165400D03*
Y162000D03*
G54D40*
X358370Y172694D03*
G54D38*
X228492Y361295D03*
X259988D03*
G54D37*
X35000Y-5583D03*
G54D39*
X333870Y-5425D03*
Y22134D03*
G54D44*
X160516Y31508D03*
X222524D03*
G54D41*
X0Y0D03*
Y362205D03*
X362205Y0D03*
G54D49*
X345000Y132500D03*
G54D61*
X115945Y174445D03*
G54D48*
X319000Y283915D03*
G54D51*
X128213Y29157D03*
G54D52*
X106874Y71283D03*
%LPD*%
G75*
G36*
G01X311000Y175000D02*
X308000Y178000D01*
X303000D01*
X302000Y179000D01*
Y191000D01*
X303500Y192500D01*
X314799D01*
G02X315198Y192077I0J-400D01*
G03X317802I1302J-77D01*
G02X318201Y192500I399J23D01*
G01X338500D01*
X340000Y191000D01*
Y176000D01*
X339000Y175000D01*
X311000D01*
G37*
%LPC*%
G75*
G36*
G01X312543Y189114D02*
G03X311957I-293J-272D01*
G02Y190886I-957J886D01*
G03X312543I293J272D01*
G02Y189114I957J-886D01*
G37*
G54D42*
X306000Y180000D03*
Y184000D03*
X322000Y187000D03*
X325300D03*
X328500D03*
X336500Y189000D03*
%LPD*%
G75*
G54D10*
X-11500Y29500D03*
Y350500D03*
Y373500D03*
X-11000Y-11500D03*
X-4500Y29500D03*
X9500Y-11500D03*
Y32300D03*
X5000Y43900D03*
Y67000D03*
X4500Y119400D03*
X500Y123500D03*
X4500Y129000D03*
Y122600D03*
X500Y120000D03*
X7500Y350500D03*
X9000Y373500D03*
X19500Y-11500D03*
X14000Y-1000D03*
Y2500D03*
X11500Y8500D03*
X13000Y17500D03*
X12500Y32300D03*
X20365Y43865D03*
X21440Y51400D03*
X18547Y151547D03*
X19000Y157453D03*
X17000Y366646D03*
X14000Y375500D03*
X25000Y16000D03*
Y19000D03*
Y22500D03*
X23500Y35500D03*
X22500Y68000D03*
X28500Y102000D03*
X31524Y112601D03*
X28500Y134500D03*
X27500Y174000D03*
X33500Y243260D03*
X33409Y246409D03*
X33500Y328760D03*
X33409Y331909D03*
X29000Y360500D03*
X42500Y-7500D03*
X38500Y-12500D03*
Y134500D03*
X41453Y173953D03*
X34500Y174000D03*
X43000Y375500D03*
X46500Y-7500D03*
X54500Y-12700D03*
Y30500D03*
X48500Y174000D03*
X54000Y185200D03*
Y181500D03*
X64500Y-12700D03*
X59000D03*
Y153516D03*
X58858Y163358D03*
X57921Y159421D03*
X60500Y206000D03*
X63500Y205000D03*
Y207300D03*
X60500Y208500D03*
Y203500D03*
X64500Y367500D03*
X75000Y-12700D03*
X71500D03*
X68000D03*
X75000Y62600D03*
X77000Y61000D03*
X72900Y63500D03*
X77000Y64100D03*
X73600Y106000D03*
X71000D03*
X68600Y109600D03*
Y112700D03*
X74800Y109600D03*
Y112700D03*
X71700D03*
Y109600D03*
X70000Y361500D03*
X75500Y367500D03*
X81700Y-12700D03*
X89500D03*
X79000D03*
X88500Y92500D03*
X100500Y-12500D03*
X104000Y-12700D03*
X107500D03*
X111500Y-12500D03*
X107500Y358500D03*
X103756Y358756D03*
X118500Y-5000D03*
X123000Y-12500D03*
X122500Y-8000D03*
X116000Y7000D03*
X119500D03*
X122500Y9000D03*
X114600Y256500D03*
X123000Y374000D03*
X134500Y-12500D03*
X128000Y6500D03*
X126000Y9000D03*
X133500Y92200D03*
X130000Y93000D03*
X131700Y90500D03*
X126500Y360500D03*
X134000Y374000D03*
X146000Y500D03*
X137000Y80800D03*
X135500Y84500D03*
X138700D03*
X135500Y90500D03*
X157000Y-12500D03*
X147000D03*
X152000Y-2500D03*
X154000Y14000D03*
Y17500D03*
Y21000D03*
X152500Y45000D03*
Y374000D03*
X161500Y46000D03*
X166500Y374500D03*
X158500Y374000D03*
X172000Y-10500D03*
X180000Y3000D03*
X174000Y374500D03*
X184000Y-10500D03*
X182000Y14000D03*
Y22000D03*
X189000Y374500D03*
X181500D03*
X197500Y-10000D03*
X200000Y14000D03*
X191500Y15000D03*
X200000Y22000D03*
X196500Y374500D03*
X211000Y-10000D03*
X213531Y327469D03*
X209988Y352512D03*
X205500Y374500D03*
X223000Y-10000D03*
X215500Y374000D03*
X225000D03*
X228500Y-2500D03*
X235500Y35500D03*
Y32500D03*
X234000Y46500D03*
X233900Y55000D03*
X236200Y92500D03*
X231559Y208800D03*
X235500Y256500D03*
X230500Y264000D03*
X235500Y306000D03*
X231500D03*
X234300Y325500D03*
X231500D03*
X234300Y329000D03*
X231500D03*
X225500Y341000D03*
X232524Y358000D03*
X236000Y374000D03*
X236500Y-12500D03*
X237500Y46500D03*
X237000Y55000D03*
X242500Y92500D03*
X239500D03*
X242059Y364223D03*
X251000Y-12500D03*
X249941Y-1941D03*
X255900Y9700D03*
X258720Y13063D03*
X253728Y50728D03*
X251000Y49500D03*
X251500Y67500D03*
X258000Y71000D03*
X251500Y75000D03*
Y82500D03*
X258500Y84500D03*
Y80500D03*
X251500Y88500D03*
X258500D03*
X257000Y260500D03*
X256761Y276000D03*
X250000Y306400D03*
X253295Y314795D03*
X258500Y351500D03*
X252000Y374000D03*
X264000Y-12500D03*
X262000Y1500D03*
X263000Y8000D03*
X265500Y52000D03*
X267500Y50000D03*
X265500Y59500D03*
X269000Y63700D03*
X267000Y109500D03*
X259500Y276000D03*
X261500Y282000D03*
X259500Y294500D03*
X264800Y303500D03*
X261000Y328500D03*
X259500Y325000D03*
X263500Y351500D03*
X266500Y346500D03*
X265000Y359720D03*
X262000Y374000D03*
X277500Y-12500D03*
X270500Y1500D03*
X270531Y13063D03*
X276437D03*
X279000Y34000D03*
X271000Y43000D03*
X276500Y62000D03*
X274100Y66000D03*
Y68500D03*
X276000Y73500D03*
Y76500D03*
Y84000D03*
X279100Y113000D03*
X271000Y262300D03*
X270500Y269700D03*
X276500Y289000D03*
X278000Y318000D03*
X271012Y316000D03*
X278500Y333000D03*
Y325500D03*
X272500Y374000D03*
X290000Y-12500D03*
X283500Y1500D03*
X288248Y13000D03*
X282343D03*
X285500Y36500D03*
X286500Y43000D03*
X284500Y45500D03*
X283700Y43000D03*
X284500Y62000D03*
X292500Y62500D03*
X283000Y109500D03*
X290500Y249500D03*
X291000Y262000D03*
X282488Y271012D03*
X291400Y271000D03*
X291000Y280000D03*
X282500D03*
X288700Y302990D03*
X290831Y310752D03*
X282837Y309673D03*
X288350Y320010D03*
X288030Y314190D03*
X282500Y317000D03*
X288131Y326531D03*
Y332437D03*
Y336374D03*
X288000Y343500D03*
X290000Y346000D03*
X286000Y359000D03*
Y374500D03*
X301500Y-12500D03*
X300000Y50500D03*
X299500Y44500D03*
X295500Y43000D03*
X297000Y109500D03*
X298000Y114500D03*
X300697Y123000D03*
X301250Y170750D03*
X296500Y254500D03*
X295932Y310050D03*
X299610Y316550D03*
X299690Y328560D03*
X299720Y322530D03*
X299610Y334380D03*
X295752Y346282D03*
X310000Y22500D03*
X310500Y51500D03*
X306000D03*
X306828Y62328D03*
X305500Y73500D03*
X313500Y98000D03*
X311500Y145500D03*
X306000Y176524D03*
X311476Y177000D03*
X305500Y187941D03*
X310000Y202500D03*
X313000Y238500D03*
X304500Y238000D03*
X306000Y240500D03*
X315000Y257500D03*
X308500Y259000D03*
X311170Y310200D03*
X311390Y316500D03*
X305730Y316530D03*
X311650Y328480D03*
X305570Y328510D03*
X305670Y322610D03*
X311470Y322690D03*
X311440Y334440D03*
X305620Y334490D03*
X311520Y340470D03*
X304400Y346610D03*
X313469Y346591D03*
X309500Y375000D03*
X316000Y-12500D03*
Y-1000D03*
Y9000D03*
X321500Y51500D03*
X315500Y48500D03*
X321500Y61300D03*
X323500Y54976D03*
X324500Y75000D03*
X316000Y76500D03*
Y88000D03*
X315800Y92500D03*
X324200Y127000D03*
X325000Y135500D03*
X325300Y146000D03*
X321500Y157500D03*
X324024Y168000D03*
X320000Y194500D03*
X318500Y202500D03*
X317500Y220500D03*
X318016Y246500D03*
X323000Y257500D03*
X319000D03*
X318016Y268484D03*
X319500Y310323D03*
X317026Y310446D03*
X317450Y316550D03*
X323240Y328430D03*
X317660Y328620D03*
X323450Y322610D03*
X317470D03*
X323450Y334460D03*
X317470Y334410D03*
X323240Y340520D03*
X317390Y340360D03*
X319500Y360500D03*
X316307D03*
X323000Y361500D03*
X336500Y38500D03*
X333500Y33000D03*
X330500Y70500D03*
X332000Y115500D03*
X333000Y108500D03*
X326500D03*
Y115500D03*
X329000Y111500D03*
X333000Y136500D03*
X332000Y146000D03*
X334000Y157000D03*
X337000Y176000D03*
X336500Y195500D03*
X328524Y195524D03*
X334400Y215300D03*
X327000Y211500D03*
X329500Y239000D03*
X331500Y247000D03*
X336000Y244000D03*
X327000Y247000D03*
X327536Y265000D03*
X336200Y308500D03*
X332000Y308000D03*
X335570Y330930D03*
X335970Y335980D03*
X334850Y338080D03*
X337540Y347430D03*
X335620Y344880D03*
X330000Y352500D03*
X334500Y347500D03*
X336000Y350000D03*
X332500D03*
Y353000D03*
Y356000D03*
X330000Y355000D03*
X334000Y366000D03*
Y363000D03*
X336500Y364500D03*
Y361500D03*
X330000Y357500D03*
X332500Y359000D03*
X337000Y373000D03*
Y370500D03*
X336500Y367500D03*
X337000Y375500D03*
X341000Y38500D03*
X343000Y42500D03*
X348500Y43000D03*
X344976Y46000D03*
X346500Y54720D03*
X341500Y107500D03*
X342000Y115000D03*
X348500Y162000D03*
X342000Y176500D03*
X341500Y197000D03*
X343000Y204744D03*
X343500Y211500D03*
X339000Y221000D03*
X340000Y244000D03*
X346000Y256500D03*
X344000Y262500D03*
X339500Y265000D03*
X343000Y274000D03*
X348000Y283000D03*
X346500Y285500D03*
X342000Y298600D03*
X339050Y308550D03*
X341500Y307500D03*
X339500Y305000D03*
X342000Y301500D03*
X342500Y305000D03*
X344000Y308500D03*
X340700Y321100D03*
X343500Y321500D03*
X344000Y311500D03*
X346000Y319000D03*
X348000Y321000D03*
X343500Y318000D03*
X339000Y317900D03*
X341000Y333000D03*
Y326000D03*
X345500D03*
Y329500D03*
Y333000D03*
X348000Y326500D03*
Y324000D03*
Y333000D03*
Y330000D03*
X346000Y323000D03*
X343500Y324500D03*
Y328000D03*
Y331500D03*
X338400Y331453D03*
X340000Y329484D03*
X337720Y338050D03*
X343500Y338000D03*
Y335500D03*
X348000Y336000D03*
X345500Y336500D03*
X340330Y346930D03*
X346500Y345000D03*
X343000D03*
X344500Y347500D03*
X348000D03*
X346500Y350000D03*
X343000D03*
X339500D03*
X351000Y-11500D03*
X349500Y9000D03*
X358500Y19500D03*
X349000Y38500D03*
X353000Y54720D03*
X356000Y107500D03*
X355000Y118000D03*
X356000Y126000D03*
X352400Y147312D03*
X354500Y157500D03*
X357500Y163500D03*
X350059Y169441D03*
X356500Y196500D03*
Y199000D03*
X351000Y211000D03*
X354500Y228000D03*
X359500Y279500D03*
X353000D03*
X359000Y288500D03*
X356000D03*
X354500Y283000D03*
X357500D03*
X358500Y285500D03*
X352500D03*
X355500D03*
X351000Y283000D03*
X349500Y285500D03*
X360000Y291500D03*
X357000D03*
X356000Y294000D03*
X350500Y298500D03*
X359000Y294000D03*
X350500Y301000D03*
Y309600D03*
Y304000D03*
Y306900D03*
Y319500D03*
Y325500D03*
Y322500D03*
Y331500D03*
Y328500D03*
Y337500D03*
Y334500D03*
X358000Y337500D03*
X354500D03*
X359500Y335000D03*
X356000D03*
X353000D03*
X358000Y348000D03*
X359500Y350500D03*
X350000Y350000D03*
X357000Y350500D03*
X350500Y347000D03*
X366000Y28000D03*
X370500Y30500D03*
X366000Y33500D03*
X364000Y54720D03*
X370000Y74500D03*
Y78500D03*
Y83000D03*
X369500Y89500D03*
X365000Y95500D03*
X368500Y144500D03*
X367500Y161000D03*
X364476Y164024D03*
X362500Y209500D03*
X367000Y207000D03*
X360500Y201500D03*
X367000Y211500D03*
X362000Y221500D03*
X367000D03*
X362500Y252500D03*
X366500Y279500D03*
X365500Y288500D03*
X368500D03*
X362000D03*
X370500Y285500D03*
X369500Y283000D03*
X363500D03*
X366500D03*
X367500Y285500D03*
X361500D03*
X364500D03*
X360500Y283000D03*
X366500Y291500D03*
X369500D03*
X363000D03*
X368500Y294000D03*
X362000D03*
X365500D03*
X370000Y333500D03*
X368500Y331500D03*
X367000Y333500D03*
X365000Y331500D03*
X361500D03*
X363500Y333500D03*
X373000Y-11500D03*
X373500Y28000D03*
X374500Y40000D03*
X374000Y57000D03*
Y53500D03*
Y71500D03*
Y76500D03*
Y81500D03*
Y86000D03*
X373000Y89500D03*
X371500Y103500D03*
X375500Y142500D03*
Y164000D03*
Y153500D03*
Y174000D03*
Y184000D03*
Y195500D03*
Y207500D03*
X371500Y204500D03*
X375500Y219500D03*
Y227500D03*
Y237500D03*
Y247500D03*
Y257500D03*
Y267500D03*
X373000Y279500D03*
X374500Y288500D03*
X371500D03*
X372500Y283000D03*
X375500D03*
X373500Y285500D03*
X375500Y291500D03*
X372500D03*
X374500Y294000D03*
X371500D03*
X373500Y333500D03*
X372000Y331500D03*
X375000D03*
X372000Y336000D03*
X375000D03*
X372000Y339500D03*
Y343000D03*
X375000D03*
Y339500D03*
Y354000D03*
Y347000D03*
X372000D03*
Y350500D03*
X375000D03*
Y357000D03*
Y366000D03*
Y363000D03*
Y360000D03*
Y375000D03*
Y372000D03*
Y369000D03*
G54D11*
X-8898Y37791D03*
Y73224D03*
G54D20*
X165043Y1508D03*
G54D30*
G01X-12660Y-15748D02*
X319000D01*
Y-12000D01*
X349000D01*
Y-15748D01*
X373817D01*
G03X377953Y-12243I0J4193D01*
G01Y375500D01*
G03X375000Y377953I-2953J-551D01*
G01X328000D01*
Y375000D01*
X318000D01*
Y377953D01*
X34000D01*
Y375000D01*
X24000D01*
Y377953D01*
X-12500D01*
G03X-15748Y375235I0J-3300D01*
G01Y-12117D01*
G03X-12660Y-15748I3679J0D01*
G54D12*
X0Y0D03*
Y362205D03*
X298000Y365000D03*
X362205Y0D03*
G54D21*
X169000Y54500D03*
G54D31*
G01X-22757Y-202200D02*
X-22600Y-200835D01*
X-22365Y-199680D01*
X-22052Y-198630D01*
X-21660Y-197475D01*
X-21033Y-195900D01*
X-24167D01*
G01X-10000Y-202200D02*
X-10627Y-202095D01*
X-11175Y-201675D01*
X-11645Y-201045D01*
X-11958Y-200310D01*
X-12115Y-199470D01*
Y-198630D01*
X-11958Y-197790D01*
X-11645Y-197055D01*
X-11175Y-196425D01*
X-10627Y-196005D01*
X-10000Y-195900D01*
X-9373Y-196005D01*
X-8825Y-196425D01*
X-8355Y-197055D01*
X-8042Y-197790D01*
X-7885Y-198630D01*
Y-199470D01*
X-8042Y-200310D01*
X-8355Y-201045D01*
X-8825Y-201675D01*
X-9373Y-202095D01*
X-10000Y-202200D01*
G01X-5188D02*
Y-195900D01*
X-2212D01*
G01X-3308Y-198945D02*
X-5188D01*
G01X8900Y-202200D02*
Y-195900D01*
X7960Y-197160D01*
G01Y-202200D02*
X9840D01*
G01X13712Y-199575D02*
X14260Y-198840D01*
X14730Y-198420D01*
X15357Y-198210D01*
X15905Y-198420D01*
X16297Y-198840D01*
X16610Y-199470D01*
X16688Y-200205D01*
X16610Y-200835D01*
X16297Y-201465D01*
X15827Y-201990D01*
X15278Y-202200D01*
X14652Y-201990D01*
X14103Y-201360D01*
X13790Y-200415D01*
X13712Y-199365D01*
X13868Y-198000D01*
X14103Y-197265D01*
X14495Y-196530D01*
X15043Y-196005D01*
X15592Y-195900D01*
X16140Y-196110D01*
X16532Y-196635D01*
G01X-24847Y-117000D02*
Y-109500D01*
X-20553Y-117000D01*
Y-109500D01*
G01X-17160Y-117000D02*
X-13240Y-109500D01*
G01X-17160D02*
X-13240Y-117000D01*
G01X-9567D02*
Y-109500D01*
X-7327D01*
X-6580Y-109875D01*
X-6020Y-110750D01*
X-5833Y-111750D01*
X-6020Y-112750D01*
X-6487Y-113500D01*
X-7327Y-113875D01*
X-9567D01*
G01X50183Y-194300D02*
Y-200600D01*
X53317D01*
G01X58990D02*
Y-194300D01*
X56092Y-198815D01*
X60008D01*
G01X62000Y-202700D02*
X66700D01*
G01X69710Y-194300D02*
X71590D01*
G01X70650D02*
Y-200600D01*
G01X69710D02*
X71590D01*
G01X75148D02*
Y-194300D01*
X78752Y-200600D01*
Y-194300D01*
G01X83250D02*
Y-200600D01*
G01X81448Y-194300D02*
X85052D01*
G01X87200Y-202700D02*
X91900D01*
G01X95850Y-200600D02*
Y-194300D01*
X94910Y-195560D01*
G01Y-200600D02*
X96790D01*
G01X165205Y-162000D02*
X168495Y-155700D01*
G01X165205D02*
X168495Y-162000D01*
G01X235850Y-200000D02*
Y-193700D01*
X234910Y-194960D01*
G01Y-200000D02*
X236790D01*
G01X241993D02*
X242150Y-198635D01*
X242385Y-197480D01*
X242698Y-196430D01*
X243090Y-195275D01*
X243717Y-193700D01*
X240583D01*
G01X248450D02*
X247823Y-193910D01*
X247353Y-194435D01*
X247040Y-195065D01*
X246805Y-195905D01*
X246727Y-196850D01*
X246805Y-197795D01*
X247040Y-198635D01*
X247353Y-199265D01*
X247823Y-199790D01*
X248450Y-200000D01*
X249077Y-199790D01*
X249547Y-199265D01*
X249860Y-198635D01*
X250095Y-197795D01*
X250173Y-196850D01*
X250095Y-195905D01*
X249860Y-195065D01*
X249547Y-194435D01*
X249077Y-193910D01*
X248450Y-193700D01*
G01X253732Y-197900D02*
X255768D01*
G01X259327Y-198740D02*
X259797Y-199475D01*
X260423Y-199895D01*
X261128Y-200000D01*
X261755Y-199895D01*
X262382Y-199370D01*
X262773Y-198740D01*
X262852Y-198110D01*
X262695Y-197375D01*
X262147Y-196850D01*
X261598Y-196640D01*
X260893D01*
G01X261598D02*
X262068Y-196325D01*
X262460Y-195800D01*
X262617Y-195170D01*
X262460Y-194540D01*
X262068Y-194015D01*
X261363Y-193700D01*
X260658Y-193805D01*
X259953Y-194225D01*
G01X267350Y-200000D02*
X267898Y-199895D01*
X268525Y-199580D01*
X268917Y-199055D01*
X269073Y-198320D01*
X268917Y-197585D01*
X268447Y-196955D01*
X267742Y-196640D01*
X266958D01*
X266488Y-196430D01*
X266097Y-195905D01*
X265940Y-195170D01*
X266175Y-194435D01*
X266723Y-193910D01*
X267350Y-193700D01*
X267977Y-193910D01*
X268525Y-194435D01*
X268760Y-195170D01*
X268603Y-195905D01*
X268212Y-196430D01*
X267742Y-196640D01*
X266958D01*
X266253Y-196955D01*
X265783Y-197585D01*
X265627Y-198320D01*
X265783Y-199055D01*
X266175Y-199580D01*
X266802Y-199895D01*
X267350Y-200000D01*
G01X273650D02*
X274198Y-199895D01*
X274825Y-199580D01*
X275217Y-199055D01*
X275373Y-198320D01*
X275217Y-197585D01*
X274747Y-196955D01*
X274042Y-196640D01*
X273258D01*
X272788Y-196430D01*
X272397Y-195905D01*
X272240Y-195170D01*
X272475Y-194435D01*
X273023Y-193910D01*
X273650Y-193700D01*
X274277Y-193910D01*
X274825Y-194435D01*
X275060Y-195170D01*
X274903Y-195905D01*
X274512Y-196430D01*
X274042Y-196640D01*
X273258D01*
X272553Y-196955D01*
X272083Y-197585D01*
X271927Y-198320D01*
X272083Y-199055D01*
X272475Y-199580D01*
X273102Y-199895D01*
X273650Y-200000D01*
G01X278462Y-194750D02*
X278932Y-194120D01*
X279480Y-193805D01*
X280107Y-193700D01*
X280890Y-193910D01*
X281438Y-194435D01*
X281595Y-195065D01*
X281517Y-195695D01*
X281203Y-196220D01*
X279637Y-197270D01*
X278932Y-198005D01*
X278462Y-199055D01*
X278305Y-200000D01*
X281595D01*
G01X286250Y-193700D02*
X285623Y-193910D01*
X285153Y-194435D01*
X284840Y-195065D01*
X284605Y-195905D01*
X284527Y-196850D01*
X284605Y-197795D01*
X284840Y-198635D01*
X285153Y-199265D01*
X285623Y-199790D01*
X286250Y-200000D01*
X286877Y-199790D01*
X287347Y-199265D01*
X287660Y-198635D01*
X287895Y-197795D01*
X287973Y-196850D01*
X287895Y-195905D01*
X287660Y-195065D01*
X287347Y-194435D01*
X286877Y-193910D01*
X286250Y-193700D01*
G01X328783Y-200000D02*
Y-193700D01*
X330742D01*
X331368Y-194015D01*
X331760Y-194435D01*
X331917Y-195275D01*
X331760Y-196115D01*
X331290Y-196640D01*
X330742Y-196955D01*
X328783D01*
G01X330742D02*
X331917Y-200000D01*
G01X338217D02*
X335083D01*
Y-193700D01*
X338217D01*
G01X336963Y-196745D02*
X335083D01*
G01X340992Y-193700D02*
X342950Y-200000D01*
X344908Y-193700D01*
G01X353592Y-200000D02*
X355550Y-193700D01*
X357508Y-200000D01*
G01X356803Y-197795D02*
X354297D01*
G01X235813Y-127000D02*
Y-120700D01*
X237850Y-125950D01*
X239887Y-120700D01*
Y-127000D01*
G01X245873Y-121225D02*
X245403Y-120910D01*
X244855Y-120700D01*
X244228D01*
X243523Y-121015D01*
X242975Y-121540D01*
X242583Y-122170D01*
X242270Y-123220D01*
X242192Y-124165D01*
X242348Y-125110D01*
X242583Y-125740D01*
X243053Y-126370D01*
X243602Y-126790D01*
X244150Y-127000D01*
X244698D01*
X245247Y-126790D01*
X245717Y-126475D01*
X246108Y-126055D01*
G01X249510Y-120700D02*
X251390D01*
G01X250450D02*
Y-127000D01*
G01X249510D02*
X251390D01*
G01X254713D02*
Y-120700D01*
X256750Y-125950D01*
X258787Y-120700D01*
Y-127000D01*
G01X261405D02*
X264695Y-120700D01*
G01X261405D02*
X264695Y-127000D01*
G01X269350D02*
X269898Y-126895D01*
X270525Y-126580D01*
X270917Y-126055D01*
X271073Y-125320D01*
X270917Y-124585D01*
X270447Y-123955D01*
X269742Y-123640D01*
X268958D01*
X268488Y-123430D01*
X268097Y-122905D01*
X267940Y-122170D01*
X268175Y-121435D01*
X268723Y-120910D01*
X269350Y-120700D01*
X269977Y-120910D01*
X270525Y-121435D01*
X270760Y-122170D01*
X270603Y-122905D01*
X270212Y-123430D01*
X269742Y-123640D01*
X268958D01*
X268253Y-123955D01*
X267783Y-124585D01*
X267627Y-125320D01*
X267783Y-126055D01*
X268175Y-126580D01*
X268802Y-126895D01*
X269350Y-127000D01*
G01X273613D02*
Y-120700D01*
X275650Y-125950D01*
X277687Y-120700D01*
Y-127000D01*
G01X280932Y-124900D02*
X282968D01*
G01X289817Y-127000D02*
X286683D01*
Y-120700D01*
X289817D01*
G01X288563Y-123745D02*
X286683D01*
G01X292592Y-120700D02*
X294550Y-127000D01*
X296508Y-120700D01*
G01X299127Y-127000D02*
Y-120700D01*
G01X302103D02*
X299127Y-124585D01*
G01X302573Y-127000D02*
X300458Y-122800D01*
G01X307777Y-123640D02*
X308090Y-123325D01*
X308325Y-122800D01*
X308482Y-122065D01*
X308325Y-121435D01*
X308012Y-121015D01*
X307463Y-120700D01*
X305348D01*
Y-127000D01*
X307933D01*
X308482Y-126580D01*
X308795Y-125950D01*
X308952Y-125215D01*
X308795Y-124480D01*
X308325Y-123850D01*
X307777Y-123640D01*
X305348D01*
G54D22*
X243957Y-5307D03*
X301043D03*
G54D13*
X-8567Y342539D03*
X8126D03*
X23874D03*
X31866D03*
G54D32*
G01X156787Y315331D02*
X155048Y317070D01*
X142570D01*
X128500Y303000D01*
Y266000D01*
X137850Y256650D01*
Y256350D01*
X140219Y253981D01*
G01X147408Y252692D02*
X148130D01*
G01X149110Y318572D02*
X141872D01*
X127000Y303700D01*
Y265301D01*
X140888Y251413D01*
X142000D01*
G01X148500D02*
X149411D01*
X150690Y252692D01*
G01X155808D02*
X154530Y253970D01*
X154000D01*
G01X141479Y256521D02*
X130000Y268000D01*
Y302300D01*
X143370Y315670D01*
X154530D01*
X156200Y314000D01*
X157924D01*
X159346Y315422D01*
G01X143908Y313962D02*
X134000Y304054D01*
Y302800D01*
X133500Y302300D01*
X132300D01*
X131500Y301500D01*
Y297272D01*
X131939Y296833D01*
X133561D01*
X134000Y296394D01*
Y295772D01*
X133561Y295333D01*
X131939D01*
X131500Y294894D01*
Y268700D01*
X132280Y267920D01*
X132900D01*
X133380Y268400D01*
X134000D01*
X134441Y267959D01*
Y267339D01*
X133961Y266859D01*
Y266239D01*
X134492Y265708D01*
X135112D01*
X136392Y266988D01*
X137011D01*
X137452Y266547D01*
Y265927D01*
X136173Y264648D01*
Y264027D01*
X138812Y261388D01*
X139520D01*
X140256Y262124D01*
X140876D01*
X141317Y261683D01*
Y260817D01*
X140454Y259954D01*
Y259246D01*
X140996Y258704D01*
X141704D01*
X142500Y259500D01*
X146339D01*
X146839Y259000D01*
Y258339D01*
X146841Y258337D01*
G01X149948Y255251D02*
X153249D01*
G01X151669Y312473D02*
X151904Y312708D01*
X153600D01*
X154100Y313208D01*
Y313916D01*
X153746Y314270D01*
X149770D01*
X149200Y313700D01*
X148070D01*
X147500Y314270D01*
X146400D01*
X135500Y303370D01*
Y301878D01*
X134611Y300989D01*
Y299889D01*
X135500Y299000D01*
Y295025D01*
X133000Y292525D01*
Y291600D01*
X133575Y291025D01*
Y290100D01*
X133000Y289525D01*
Y288600D01*
X133575Y288025D01*
Y287100D01*
X133000Y286525D01*
Y285600D01*
X133575Y285025D01*
Y284100D01*
X133000Y283525D01*
Y282600D01*
X133575Y282025D01*
Y281100D01*
X133000Y280525D01*
Y270500D01*
X133500Y270000D01*
X134600D01*
X135600Y269000D01*
X137300D01*
X139000Y267300D01*
Y265400D01*
X139400Y265000D01*
X142500D01*
X143000Y264500D01*
Y261500D01*
X143500Y261000D01*
X148000D01*
X148500Y260500D01*
Y259501D01*
X149400Y258601D01*
G01X154000Y256531D02*
X155408D01*
X155808Y256131D01*
Y255251D01*
G01X159346Y309123D02*
Y307971D01*
X158845Y307470D01*
X152470D01*
X149749Y304749D01*
X148249D01*
X147500Y304000D01*
Y300514D01*
X147061Y300075D01*
X143939D01*
X143500Y299636D01*
Y299014D01*
X143939Y298575D01*
X147061D01*
X147500Y298136D01*
Y297500D01*
X147000Y297000D01*
X143000D01*
X142500Y296500D01*
Y281685D01*
X142939Y281246D01*
X143500D01*
X144000Y281746D01*
Y282500D01*
X144500Y283000D01*
X145000D01*
X145500Y282500D01*
Y280185D01*
X145061Y279746D01*
X142939D01*
X142500Y279307D01*
Y278685D01*
X142939Y278246D01*
X145061D01*
X145500Y277807D01*
Y277185D01*
X145061Y276746D01*
X142939D01*
X142500Y276307D01*
Y275685D01*
X142939Y275246D01*
X145061D01*
X145500Y274807D01*
Y274185D01*
X145061Y273746D01*
X142939D01*
X142500Y273307D01*
Y272500D01*
X143000Y272000D01*
X150500D01*
X153600Y268900D01*
Y266400D01*
X156500Y263500D01*
Y262001D01*
X158367Y260134D01*
Y257810D01*
G01Y255251D02*
X157090Y256528D01*
G01Y258610D02*
X156600Y259100D01*
G01X154530Y263600D02*
X152200Y265930D01*
Y268500D01*
X150000Y270700D01*
X141700D01*
X141000Y271400D01*
Y284217D01*
X140561Y284656D01*
X137939D01*
X137500Y285095D01*
Y285717D01*
X137939Y286156D01*
X140561D01*
X141000Y286595D01*
Y287346D01*
X140561Y287785D01*
X137939D01*
X137500Y288224D01*
Y288846D01*
X137939Y289285D01*
X140561D01*
X141000Y289724D01*
Y290346D01*
X140561Y290785D01*
X138939D01*
X138500Y291224D01*
Y291846D01*
X138939Y292285D01*
X140561D01*
X141000Y292724D01*
Y293346D01*
X140561Y293785D01*
X139939D01*
X139500Y294224D01*
Y294846D01*
X139939Y295285D01*
X140561D01*
X141000Y295724D01*
Y296346D01*
X140561Y296785D01*
X139939D01*
X139500Y297224D01*
Y297846D01*
X139939Y298285D01*
X141561D01*
X142000Y298724D01*
Y299346D01*
X141561Y299785D01*
X139939D01*
X139500Y300224D01*
Y301292D01*
X140000Y301792D01*
X140708D01*
X141298Y301202D01*
X141978D01*
X142500Y301724D01*
Y303500D01*
X143000Y304000D01*
X143857D01*
X144292Y303565D01*
Y302000D01*
X144792Y301500D01*
X145500D01*
X146000Y302000D01*
Y308000D01*
G01X159346Y305973D02*
Y304971D01*
X158845Y304470D01*
X151500D01*
X151000Y303970D01*
Y303394D01*
X150561Y302955D01*
X149439D01*
X149000Y302516D01*
Y301894D01*
X149439Y301455D01*
X151561D01*
X152000Y301016D01*
Y300394D01*
X151561Y299955D01*
X149439D01*
X149000Y299516D01*
Y298894D01*
X149439Y298455D01*
X150061D01*
X150500Y298016D01*
Y296000D01*
X151396Y295104D01*
Y293896D01*
X150500Y293000D01*
Y291225D01*
X150034Y290759D01*
X147939D01*
X147500Y291198D01*
Y295061D01*
X147061Y295500D01*
X146439D01*
X146000Y295061D01*
Y289513D01*
X146354Y289159D01*
X150034D01*
X150385Y288808D01*
G01Y286500D02*
X149885Y286000D01*
X144500D01*
X144104Y285604D01*
Y284896D01*
X144500Y284500D01*
X146500D01*
X147000Y284000D01*
Y277500D01*
X147600Y276900D01*
X148600D01*
X151000Y274500D01*
X152000D01*
X159741Y266759D01*
Y259100D01*
X159641Y259000D01*
G01Y257000D02*
Y256536D01*
X160926Y255251D01*
G01X163485D02*
X162200Y256536D01*
Y257000D01*
G01Y259000D02*
X162100Y259100D01*
Y266500D01*
X162500Y266900D01*
Y273500D01*
X157813Y278187D01*
X155620D01*
X155181Y277748D01*
Y276900D01*
X154781Y276500D01*
X153581D01*
X153181Y276900D01*
Y277748D01*
X152742Y278187D01*
X148939D01*
X148500Y278626D01*
Y282061D01*
X148939Y282500D01*
X149561D01*
X150000Y282061D01*
Y280126D01*
X150439Y279687D01*
X156400D01*
X156900Y280187D01*
Y282000D01*
X156400Y282500D01*
X152000D01*
X151354Y283146D01*
Y283854D01*
X152000Y284500D01*
Y285800D01*
X152700Y286500D01*
X153322D01*
X154252Y285570D01*
X154960D01*
X155460Y286070D01*
Y288500D01*
X154960Y289000D01*
X152500D01*
X152000Y289500D01*
Y292000D01*
X152500Y292500D01*
X156000D01*
X156500Y293000D01*
Y295088D01*
X156061Y295527D01*
X154939D01*
X154500Y295966D01*
Y296588D01*
X155000Y297088D01*
Y298000D01*
X154675Y298325D01*
X153500D01*
X153000Y298825D01*
Y299500D01*
X153500Y300000D01*
X154950D01*
X155400Y300450D01*
Y302500D01*
X154900Y303000D01*
X153500D01*
X153000Y302500D01*
G01X190054Y309123D02*
X191324Y307853D01*
G01Y305111D02*
X191935Y304500D01*
X198620D01*
X199020Y304100D01*
G01Y301120D02*
X199540Y300600D01*
X200000D01*
X200500Y300100D01*
Y297500D01*
X199998Y296998D01*
X196187D01*
X195647Y297538D01*
Y299561D01*
X195208Y300000D01*
X194500D01*
X193950Y299450D01*
Y296050D01*
X194500Y295500D01*
X198500D01*
X199003Y294997D01*
G01Y293186D02*
X198452Y292635D01*
X195851D01*
X195500Y292284D01*
Y291486D01*
X195851Y291135D01*
X200652D01*
X201003Y290784D01*
Y290135D01*
X200652Y289784D01*
X197451D01*
X197000Y289333D01*
Y288735D01*
X197451Y288284D01*
X198652D01*
X199003Y287933D01*
G01Y282490D02*
X198564Y282051D01*
X196939D01*
X196500Y281612D01*
Y280990D01*
X196939Y280551D01*
X198564D01*
X199003Y280112D01*
Y278000D01*
X195952Y274949D01*
X195388D01*
X194702Y275636D01*
X194138D01*
X193571Y275069D01*
Y274503D01*
X194256Y273818D01*
Y273253D01*
X193688Y272685D01*
X193124D01*
X191929Y273881D01*
X191366Y273882D01*
X190798Y273314D01*
Y272748D01*
X191992Y271554D01*
Y269493D01*
X190999Y268500D01*
X190000D01*
X189500Y269000D01*
X188500D01*
X187595Y268095D01*
Y264200D01*
X187795Y264000D01*
G01Y256530D02*
X189074Y255251D01*
G01X186515D02*
X185241Y256525D01*
G01Y264000D02*
Y266941D01*
X185946Y267646D01*
Y268354D01*
X185000Y269300D01*
Y270070D01*
X185430Y270500D01*
X188100D01*
X188500Y270900D01*
Y271700D01*
X188100Y272100D01*
X185371D01*
X184971Y272500D01*
Y273270D01*
X185401Y273700D01*
X187100D01*
X187500Y274100D01*
Y275100D01*
X187000Y275600D01*
X185371D01*
X184971Y276000D01*
Y277070D01*
X185401Y277500D01*
X186384D01*
X186784Y277900D01*
Y279000D01*
X186284Y279500D01*
X185500D01*
X185000Y280000D01*
Y281000D01*
X185500Y281500D01*
X186284D01*
X186784Y282000D01*
Y283000D01*
X186284Y283500D01*
X185500D01*
X185000Y284000D01*
Y285500D01*
X185500Y286000D01*
X187984D01*
X188384Y285600D01*
Y277900D01*
X188784Y277500D01*
X196459D01*
X197000Y278041D01*
Y278663D01*
X196561Y279102D01*
X191898D01*
X191500Y279500D01*
Y280208D01*
X191896Y280604D01*
X193104D01*
X193500Y281000D01*
Y281800D01*
X193000Y282300D01*
X191832D01*
X191566Y282566D01*
Y285000D01*
X192066Y285500D01*
X193600D01*
X194000Y285900D01*
Y286400D01*
X194400Y286800D01*
X195600D01*
X196000Y287200D01*
Y288000D01*
X195600Y288400D01*
X194400D01*
X194000Y288800D01*
Y292500D01*
X191340Y295160D01*
G01Y301040D02*
X191800Y301500D01*
X196408D01*
X197731Y302823D01*
G01X199310Y252692D02*
X200589Y251413D01*
G01X203400Y250400D02*
X208600D01*
X222500Y264300D01*
Y304522D01*
X208450Y318572D01*
X197731D01*
G01X190054Y315422D02*
X191576Y313900D01*
X193900D01*
X195422Y315422D01*
X207278D01*
X219500Y303200D01*
Y266000D01*
X212658Y259158D01*
X212092D01*
X211158Y260092D01*
X210592D01*
X210026Y259526D01*
Y258960D01*
X210960Y258026D01*
Y257460D01*
X210500Y257000D01*
X209440D01*
X208318Y255878D01*
G01Y254618D02*
X207670Y253970D01*
G01X195470D02*
X194192Y252692D01*
G01X203300Y308000D02*
Y303485D01*
X203800Y302985D01*
X204796D01*
X205296Y303485D01*
Y304896D01*
X205796Y305396D01*
X206604D01*
X207000Y305000D01*
Y301924D01*
X206561Y301485D01*
X203739D01*
X203300Y301046D01*
Y300500D01*
X203800Y300000D01*
X205500D01*
X206000Y299500D01*
Y295683D01*
X205561Y295244D01*
X204439D01*
X204000Y294805D01*
Y294183D01*
X204439Y293744D01*
X205561D01*
X206000Y293305D01*
Y291875D01*
X205500Y291375D01*
X204939D01*
X204500Y290936D01*
Y290314D01*
X204939Y289875D01*
X206061D01*
X206500Y289436D01*
Y276979D01*
X206939Y276540D01*
X210061D01*
X210500Y276101D01*
Y275479D01*
X210061Y275040D01*
X205939D01*
X205500Y274601D01*
Y274000D01*
X206000Y273500D01*
X210000D01*
X210500Y273000D01*
Y272155D01*
X210145Y271800D01*
X206500D01*
X204200Y269500D01*
X203400D01*
X203000Y269900D01*
Y271000D01*
X202500Y271500D01*
X201400D01*
X201000Y271100D01*
Y264700D01*
X200600Y264300D01*
X197940D01*
X197540Y264700D01*
Y266100D01*
X197140Y266500D01*
X196340D01*
X195940Y266100D01*
Y264700D01*
X195520Y264280D01*
X193581D01*
X192813Y263512D01*
Y261600D01*
X192913Y261500D01*
G01Y257000D02*
Y256531D01*
X191633Y255251D01*
G01X199310D02*
X200050D01*
G01X207630Y256530D02*
X208500Y257400D01*
Y261350D01*
X208900Y261750D01*
X213250D01*
X216000Y264500D01*
Y264800D01*
X218000Y266800D01*
Y284973D01*
X217561Y285412D01*
X216939D01*
X216500Y285851D01*
Y286473D01*
X216939Y286912D01*
X217561D01*
X218000Y287351D01*
Y287973D01*
X217561Y288412D01*
X216939D01*
X216500Y288851D01*
Y289473D01*
X216939Y289912D01*
X217561D01*
X218000Y290351D01*
Y290973D01*
X217561Y291412D01*
X216939D01*
X216500Y291851D01*
Y292473D01*
X216939Y292912D01*
X217561D01*
X218000Y293351D01*
Y293973D01*
X217561Y294412D01*
X216939D01*
X216500Y294851D01*
Y295473D01*
X216939Y295912D01*
X217561D01*
X218000Y296351D01*
Y296973D01*
X217561Y297412D01*
X216939D01*
X216500Y297851D01*
Y298473D01*
X216939Y298912D01*
X217561D01*
X218000Y299351D01*
Y299923D01*
X217561Y300362D01*
X216939D01*
X216500Y300801D01*
Y301423D01*
X217434Y302357D01*
Y303066D01*
X216724Y303776D01*
X216228D01*
X215474Y303022D01*
X214978D01*
X214325Y303675D01*
Y304271D01*
X214979Y304925D01*
Y305521D01*
X212910Y307590D01*
X211910D01*
X211349Y308151D01*
Y309151D01*
X210788Y309712D01*
X209788D01*
X209227Y310273D01*
Y311273D01*
X208666Y311834D01*
X207666D01*
X207105Y312395D01*
Y313395D01*
X206530Y313970D01*
X205500D01*
G01X197731Y312473D02*
Y313670D01*
X198231Y314170D01*
X203148D01*
X211400Y305918D01*
Y304100D01*
X215000Y300500D01*
Y284417D01*
X215439Y283978D01*
X216061D01*
X216500Y283539D01*
Y282917D01*
X216061Y282478D01*
X215439D01*
X215000Y282039D01*
Y281417D01*
X215439Y280978D01*
X216061D01*
X216500Y280539D01*
Y279917D01*
X216061Y279478D01*
X215439D01*
X215000Y279039D01*
Y278417D01*
X215439Y277978D01*
X216061D01*
X216500Y277539D01*
Y276917D01*
X216061Y276478D01*
X215439D01*
X215000Y276039D01*
Y275417D01*
X215439Y274978D01*
X216061D01*
X216500Y274539D01*
Y273917D01*
X216061Y273478D01*
X215439D01*
X215000Y273039D01*
Y272417D01*
X215439Y271978D01*
X216061D01*
X216500Y271539D01*
Y270917D01*
X216061Y270478D01*
X215439D01*
X215000Y270039D01*
Y269331D01*
X215500Y268831D01*
X216000D01*
X216500Y268331D01*
Y267500D01*
X216000Y267000D01*
X215400D01*
X215000Y266600D01*
Y265400D01*
X214600Y265000D01*
X213800D01*
X213400Y265400D01*
Y267034D01*
X213000Y267434D01*
X211934D01*
X211500Y267000D01*
Y265500D01*
X211000Y265000D01*
X207500D01*
X206900Y264400D01*
Y260400D01*
X205700Y259200D01*
X201200D01*
X200600Y258600D01*
G01X196000Y256531D02*
X195472D01*
X194192Y255251D01*
G01X192613Y305973D02*
X194140Y307500D01*
X200950D01*
X201722Y306728D01*
Y299778D01*
X203000Y298500D01*
X204000D01*
X204500Y298000D01*
Y297000D01*
X204000Y296500D01*
X203000D01*
X202500Y296000D01*
Y289000D01*
X203000Y288500D01*
X204500D01*
X205000Y288000D01*
Y286049D01*
X204561Y285610D01*
X201939D01*
X201500Y285171D01*
Y284549D01*
X201939Y284110D01*
X204261D01*
X204700Y283671D01*
Y283000D01*
X204200Y282500D01*
X201100D01*
X200600Y282000D01*
Y281159D01*
X201039Y280720D01*
X204561D01*
X205000Y280281D01*
Y279659D01*
X204561Y279220D01*
X201039D01*
X200600Y278781D01*
Y278159D01*
X201039Y277720D01*
X204561D01*
X205000Y277281D01*
Y276659D01*
X204561Y276220D01*
X201039D01*
X200600Y275781D01*
Y275159D01*
X201039Y274720D01*
X203161D01*
X203561Y274320D01*
Y273500D01*
X203061Y273000D01*
X199848D01*
X199448Y272600D01*
Y271900D01*
X199048Y271500D01*
X198248D01*
X197848Y271900D01*
Y272600D01*
X197448Y273000D01*
X196400D01*
X196000Y272600D01*
Y268000D01*
X195000Y267000D01*
X193700D01*
X191000Y264300D01*
Y262500D01*
X190200Y261700D01*
Y259243D01*
X191633Y257810D01*
G01X207722Y251422D02*
X215350Y259050D01*
Y259650D01*
X221000Y265300D01*
Y303900D01*
X208130Y316770D01*
X193961D01*
X192613Y315422D01*
G54D14*
X13189Y37791D03*
Y73224D03*
G54D23*
X243957Y18315D03*
X301043D03*
G54D33*
G01X-23969Y-192371D02*
X-23497Y-192764D01*
X-22966Y-193000D01*
X-22494D01*
X-22022Y-192764D01*
X-21668Y-192371D01*
X-21491Y-191820D01*
X-21609Y-191269D01*
X-21904Y-190797D01*
X-22435Y-190483D01*
X-23143Y-190325D01*
X-23556Y-190011D01*
X-23733Y-189460D01*
X-23615Y-188909D01*
X-23320Y-188516D01*
X-22907Y-188280D01*
X-22494D01*
X-22081Y-188437D01*
X-21727Y-188831D01*
G01X-19249Y-193000D02*
Y-188280D01*
G01X-16771D02*
Y-193000D01*
G01Y-190640D02*
X-19249D01*
G01X-12110Y-193000D02*
X-14470D01*
Y-188280D01*
X-12110D01*
G01X-13054Y-190561D02*
X-14470D01*
G01X-7390Y-193000D02*
X-9750D01*
Y-188280D01*
X-7390D01*
G01X-8334Y-190561D02*
X-9750D01*
G01X-3850Y-188280D02*
Y-193000D01*
G01X-5207Y-188280D02*
X-2493D01*
G01X-24205Y-132000D02*
X-22730Y-127280D01*
X-21255Y-132000D01*
G01X-21786Y-130348D02*
X-23674D01*
G01X-19308Y-127280D02*
Y-130663D01*
X-19072Y-131371D01*
X-18600Y-131843D01*
X-18010Y-132000D01*
X-17420Y-131843D01*
X-16948Y-131371D01*
X-16712Y-130663D01*
Y-127280D01*
G01X-14529Y-131371D02*
X-14057Y-131764D01*
X-13526Y-132000D01*
X-13054D01*
X-12582Y-131764D01*
X-12228Y-131371D01*
X-12051Y-130820D01*
X-12169Y-130269D01*
X-12464Y-129797D01*
X-12995Y-129483D01*
X-13703Y-129325D01*
X-14116Y-129011D01*
X-14293Y-128460D01*
X-14175Y-127909D01*
X-13880Y-127516D01*
X-13467Y-127280D01*
X-13054D01*
X-12641Y-127437D01*
X-12287Y-127831D01*
G01X-8570Y-127280D02*
Y-132000D01*
G01X-9927Y-127280D02*
X-7213D01*
G01X-4558D02*
X-3142D01*
G01X-3850D02*
Y-132000D01*
G01X-4558D02*
X-3142D01*
G01X-487D02*
Y-127280D01*
X2227Y-132000D01*
Y-127280D01*
G01X5590Y-132157D02*
X5472Y-132079D01*
Y-131921D01*
X5590Y-131843D01*
X5708Y-131921D01*
Y-132079D01*
X5590Y-132157D01*
G01X15030Y-127280D02*
Y-132000D01*
G01X13673Y-127280D02*
X16387D01*
G01X20930Y-132000D02*
X18570D01*
Y-127280D01*
X20930D01*
G01X19986Y-129561D02*
X18570D01*
G01X23231Y-132000D02*
X25709Y-127280D01*
G01X23231D02*
X25709Y-132000D01*
G01X27715D02*
X29190Y-127280D01*
X30665Y-132000D01*
G01X30134Y-130348D02*
X28246D01*
G01X32671Y-131371D02*
X33143Y-131764D01*
X33674Y-132000D01*
X34146D01*
X34618Y-131764D01*
X34972Y-131371D01*
X35149Y-130820D01*
X35031Y-130269D01*
X34736Y-129797D01*
X34205Y-129483D01*
X33497Y-129325D01*
X33084Y-129011D01*
X32907Y-128460D01*
X33025Y-127909D01*
X33320Y-127516D01*
X33733Y-127280D01*
X34146D01*
X34559Y-127437D01*
X34913Y-127831D01*
G01X43232Y-132000D02*
X43350Y-130977D01*
X43527Y-130112D01*
X43763Y-129325D01*
X44058Y-128460D01*
X44530Y-127280D01*
X42170D01*
G01X48070Y-132000D02*
X48483Y-131921D01*
X48955Y-131685D01*
X49250Y-131292D01*
X49368Y-130741D01*
X49250Y-130191D01*
X48896Y-129719D01*
X48365Y-129483D01*
X47775D01*
X47421Y-129325D01*
X47126Y-128932D01*
X47008Y-128381D01*
X47185Y-127831D01*
X47598Y-127437D01*
X48070Y-127280D01*
X48542Y-127437D01*
X48955Y-127831D01*
X49132Y-128381D01*
X49014Y-128932D01*
X48719Y-129325D01*
X48365Y-129483D01*
X47775D01*
X47244Y-129719D01*
X46890Y-130191D01*
X46772Y-130741D01*
X46890Y-131292D01*
X47185Y-131685D01*
X47657Y-131921D01*
X48070Y-132000D01*
G01X52672D02*
X52790Y-130977D01*
X52967Y-130112D01*
X53203Y-129325D01*
X53498Y-128460D01*
X53970Y-127280D01*
X51610D01*
G01X56212Y-131056D02*
X56566Y-131607D01*
X57038Y-131921D01*
X57569Y-132000D01*
X58041Y-131921D01*
X58513Y-131528D01*
X58808Y-131056D01*
X58867Y-130584D01*
X58749Y-130033D01*
X58336Y-129640D01*
X57923Y-129483D01*
X57392D01*
G01X57923D02*
X58277Y-129247D01*
X58572Y-128853D01*
X58690Y-128381D01*
X58572Y-127909D01*
X58277Y-127516D01*
X57746Y-127280D01*
X57215Y-127359D01*
X56684Y-127673D01*
G01X60932Y-131292D02*
X61286Y-131685D01*
X61699Y-131921D01*
X62230Y-132000D01*
X62761Y-131843D01*
X63174Y-131528D01*
X63469Y-130977D01*
X63528Y-130348D01*
X63410Y-129719D01*
X63115Y-129325D01*
X62702Y-129011D01*
X62289Y-128932D01*
X61876Y-129011D01*
X61345Y-129325D01*
X61522Y-127280D01*
X63115D01*
G01X70372D02*
Y-130663D01*
X70608Y-131371D01*
X71080Y-131843D01*
X71670Y-132000D01*
X72260Y-131843D01*
X72732Y-131371D01*
X72968Y-130663D01*
Y-127280D01*
G01X75151Y-131371D02*
X75623Y-131764D01*
X76154Y-132000D01*
X76626D01*
X77098Y-131764D01*
X77452Y-131371D01*
X77629Y-130820D01*
X77511Y-130269D01*
X77216Y-129797D01*
X76685Y-129483D01*
X75977Y-129325D01*
X75564Y-129011D01*
X75387Y-128460D01*
X75505Y-127909D01*
X75800Y-127516D01*
X76213Y-127280D01*
X76626D01*
X77039Y-127437D01*
X77393Y-127831D01*
G01X79635Y-132000D02*
X81110Y-127280D01*
X82585Y-132000D01*
G01X82054Y-130348D02*
X80166D01*
G01X-23851Y-123033D02*
X-23438Y-122483D01*
X-23084Y-122168D01*
X-22612Y-122011D01*
X-22199Y-122168D01*
X-21904Y-122483D01*
X-21668Y-122955D01*
X-21609Y-123505D01*
X-21668Y-123977D01*
X-21904Y-124449D01*
X-22258Y-124843D01*
X-22671Y-125000D01*
X-23143Y-124843D01*
X-23556Y-124371D01*
X-23792Y-123663D01*
X-23851Y-122876D01*
X-23733Y-121853D01*
X-23556Y-121303D01*
X-23261Y-120752D01*
X-22848Y-120359D01*
X-22435Y-120280D01*
X-22022Y-120437D01*
X-21727Y-120831D01*
G01X-19308Y-124292D02*
X-18954Y-124685D01*
X-18541Y-124921D01*
X-18010Y-125000D01*
X-17479Y-124843D01*
X-17066Y-124528D01*
X-16771Y-123977D01*
X-16712Y-123348D01*
X-16830Y-122719D01*
X-17125Y-122325D01*
X-17538Y-122011D01*
X-17951Y-121932D01*
X-18364Y-122011D01*
X-18895Y-122325D01*
X-18718Y-120280D01*
X-17125D01*
G01X-13290D02*
X-13762Y-120437D01*
X-14116Y-120831D01*
X-14352Y-121303D01*
X-14529Y-121932D01*
X-14588Y-122640D01*
X-14529Y-123348D01*
X-14352Y-123977D01*
X-14116Y-124449D01*
X-13762Y-124843D01*
X-13290Y-125000D01*
X-12818Y-124843D01*
X-12464Y-124449D01*
X-12228Y-123977D01*
X-12051Y-123348D01*
X-11992Y-122640D01*
X-12051Y-121932D01*
X-12228Y-121303D01*
X-12464Y-120831D01*
X-12818Y-120437D01*
X-13290Y-120280D01*
G01X-8570Y-125000D02*
Y-120280D01*
X-9278Y-121224D01*
G01Y-125000D02*
X-7862D01*
G01X-900Y-120280D02*
X-74Y-125000D01*
X870Y-120280D01*
X1814Y-125000D01*
X2640Y-120280D01*
G01X4882D02*
X6298D01*
G01X5590D02*
Y-125000D01*
G01X4882D02*
X6298D01*
G01X9130Y-120280D02*
Y-125000D01*
X11490D01*
G01X13850Y-120280D02*
Y-125000D01*
X16210D01*
G01X19042Y-120280D02*
X20458D01*
G01X19750D02*
Y-125000D01*
G01X19042D02*
X20458D01*
G01X22995D02*
X24470Y-120280D01*
X25945Y-125000D01*
G01X25414Y-123348D02*
X23526D01*
G01X27656Y-125000D02*
Y-120280D01*
X29190Y-124213D01*
X30724Y-120280D01*
Y-125000D01*
G01X39928Y-120673D02*
X39574Y-120437D01*
X39161Y-120280D01*
X38689D01*
X38158Y-120516D01*
X37745Y-120909D01*
X37450Y-121381D01*
X37214Y-122168D01*
X37155Y-122876D01*
X37273Y-123584D01*
X37450Y-124056D01*
X37804Y-124528D01*
X38217Y-124843D01*
X38630Y-125000D01*
X39043D01*
X39456Y-124843D01*
X39810Y-124607D01*
X40105Y-124292D01*
G01X41875Y-125000D02*
X43350Y-120280D01*
X44825Y-125000D01*
G01X44294Y-123348D02*
X42406D01*
G01X46713Y-125000D02*
Y-120280D01*
X49427Y-125000D01*
Y-120280D01*
G01X51433Y-125000D02*
Y-120280D01*
X54147Y-125000D01*
Y-120280D01*
G01X57510Y-125000D02*
X57038Y-124921D01*
X56625Y-124607D01*
X56271Y-124135D01*
X56035Y-123584D01*
X55917Y-122955D01*
Y-122325D01*
X56035Y-121696D01*
X56271Y-121145D01*
X56625Y-120673D01*
X57038Y-120359D01*
X57510Y-120280D01*
X57982Y-120359D01*
X58395Y-120673D01*
X58749Y-121145D01*
X58985Y-121696D01*
X59103Y-122325D01*
Y-122955D01*
X58985Y-123584D01*
X58749Y-124135D01*
X58395Y-124607D01*
X57982Y-124921D01*
X57510Y-125000D01*
G01X60873D02*
Y-120280D01*
X63587Y-125000D01*
Y-120280D01*
G01X70372Y-125000D02*
Y-120280D01*
X71552D01*
X72024Y-120516D01*
X72378Y-120831D01*
X72673Y-121303D01*
X72909Y-121853D01*
X72968Y-122640D01*
X72909Y-123427D01*
X72673Y-123977D01*
X72378Y-124449D01*
X72024Y-124764D01*
X71552Y-125000D01*
X70372D01*
G01X75210D02*
Y-120280D01*
X76685D01*
X77157Y-120516D01*
X77452Y-120831D01*
X77570Y-121460D01*
X77452Y-122089D01*
X77098Y-122483D01*
X76685Y-122719D01*
X75210D01*
G01X76685D02*
X77570Y-125000D01*
G01X80402Y-120280D02*
X81818D01*
G01X81110D02*
Y-125000D01*
G01X80402D02*
X81818D01*
G01X84355Y-120280D02*
X85830Y-125000D01*
X87305Y-120280D01*
G01X91730Y-125000D02*
X89370D01*
Y-120280D01*
X91730D01*
G01X90786Y-122561D02*
X89370D01*
G01X98220Y-120280D02*
X99046Y-125000D01*
X99990Y-120280D01*
X100934Y-125000D01*
X101760Y-120280D01*
G01X105890Y-125000D02*
X103530D01*
Y-120280D01*
X105890D01*
G01X104946Y-122561D02*
X103530D01*
G01X108191Y-124371D02*
X108663Y-124764D01*
X109194Y-125000D01*
X109666D01*
X110138Y-124764D01*
X110492Y-124371D01*
X110669Y-123820D01*
X110551Y-123269D01*
X110256Y-122797D01*
X109725Y-122483D01*
X109017Y-122325D01*
X108604Y-122011D01*
X108427Y-121460D01*
X108545Y-120909D01*
X108840Y-120516D01*
X109253Y-120280D01*
X109666D01*
X110079Y-120437D01*
X110433Y-120831D01*
G01X114150Y-120280D02*
Y-125000D01*
G01X112793Y-120280D02*
X115507D01*
G01X-16087Y-182000D02*
Y-177280D01*
X-13373Y-182000D01*
Y-177280D01*
G01X-11249Y-182000D02*
X-8771Y-177280D01*
G01X-11249D02*
X-8771Y-182000D01*
G01X-6470D02*
Y-177280D01*
X-5054D01*
X-4582Y-177516D01*
X-4228Y-178067D01*
X-4110Y-178696D01*
X-4228Y-179325D01*
X-4523Y-179797D01*
X-5054Y-180033D01*
X-6470D01*
G01X-570Y-182157D02*
X-688Y-182079D01*
Y-181921D01*
X-570Y-181843D01*
X-452Y-181921D01*
Y-182079D01*
X-570Y-182157D01*
G01X-15730Y-174000D02*
X-16202Y-173921D01*
X-16615Y-173607D01*
X-16969Y-173135D01*
X-17205Y-172584D01*
X-17323Y-171955D01*
Y-171325D01*
X-17205Y-170696D01*
X-16969Y-170145D01*
X-16615Y-169673D01*
X-16202Y-169359D01*
X-15730Y-169280D01*
X-15258Y-169359D01*
X-14845Y-169673D01*
X-14491Y-170145D01*
X-14255Y-170696D01*
X-14137Y-171325D01*
Y-171955D01*
X-14255Y-172584D01*
X-14491Y-173135D01*
X-14845Y-173607D01*
X-15258Y-173921D01*
X-15730Y-174000D01*
G01X-12190D02*
Y-169280D01*
X-10715D01*
X-10243Y-169516D01*
X-9948Y-169831D01*
X-9830Y-170460D01*
X-9948Y-171089D01*
X-10302Y-171483D01*
X-10715Y-171719D01*
X-12190D01*
G01X-10715D02*
X-9830Y-174000D01*
G01X-2278Y-169280D02*
X-862D01*
G01X-1570D02*
Y-174000D01*
G01X-2278D02*
X-862D01*
G01X1793D02*
Y-169280D01*
X4507Y-174000D01*
Y-169280D01*
G01X11410Y-174000D02*
Y-169280D01*
X12826D01*
X13298Y-169516D01*
X13652Y-170067D01*
X13770Y-170696D01*
X13652Y-171325D01*
X13357Y-171797D01*
X12826Y-172033D01*
X11410D01*
G01X15835Y-174000D02*
X17310Y-169280D01*
X18785Y-174000D01*
G01X18254Y-172348D02*
X16366D01*
G01X20850Y-174000D02*
Y-169280D01*
X22325D01*
X22797Y-169516D01*
X23092Y-169831D01*
X23210Y-170460D01*
X23092Y-171089D01*
X22738Y-171483D01*
X22325Y-171719D01*
X20850D01*
G01X22325D02*
X23210Y-174000D01*
G01X26750Y-169280D02*
Y-174000D01*
G01X25393Y-169280D02*
X28107D01*
G01X34420D02*
X35246Y-174000D01*
X36190Y-169280D01*
X37134Y-174000D01*
X37960Y-169280D01*
G01X40202D02*
X41618D01*
G01X40910D02*
Y-174000D01*
G01X40202D02*
X41618D01*
G01X45630Y-169280D02*
Y-174000D01*
G01X44273Y-169280D02*
X46987D01*
G01X49111Y-174000D02*
Y-169280D01*
G01X51589D02*
Y-174000D01*
G01Y-171640D02*
X49111D01*
G01X55070Y-174000D02*
X54598Y-173921D01*
X54185Y-173607D01*
X53831Y-173135D01*
X53595Y-172584D01*
X53477Y-171955D01*
Y-171325D01*
X53595Y-170696D01*
X53831Y-170145D01*
X54185Y-169673D01*
X54598Y-169359D01*
X55070Y-169280D01*
X55542Y-169359D01*
X55955Y-169673D01*
X56309Y-170145D01*
X56545Y-170696D01*
X56663Y-171325D01*
Y-171955D01*
X56545Y-172584D01*
X56309Y-173135D01*
X55955Y-173607D01*
X55542Y-173921D01*
X55070Y-174000D01*
G01X58492Y-169280D02*
Y-172663D01*
X58728Y-173371D01*
X59200Y-173843D01*
X59790Y-174000D01*
X60380Y-173843D01*
X60852Y-173371D01*
X61088Y-172663D01*
Y-169280D01*
G01X64510D02*
Y-174000D01*
G01X63153Y-169280D02*
X65867D01*
G01X73950D02*
Y-174000D01*
G01X72593Y-169280D02*
X75307D01*
G01X77431Y-174000D02*
Y-169280D01*
G01X79909D02*
Y-174000D01*
G01Y-171640D02*
X77431D01*
G01X84570Y-174000D02*
X82210D01*
Y-169280D01*
X84570D01*
G01X83626Y-171561D02*
X82210D01*
G01X94128Y-169673D02*
X93774Y-169437D01*
X93361Y-169280D01*
X92889D01*
X92358Y-169516D01*
X91945Y-169909D01*
X91650Y-170381D01*
X91414Y-171168D01*
X91355Y-171876D01*
X91473Y-172584D01*
X91650Y-173056D01*
X92004Y-173528D01*
X92417Y-173843D01*
X92830Y-174000D01*
X93243D01*
X93656Y-173843D01*
X94010Y-173607D01*
X94305Y-173292D01*
G01X97550Y-174000D02*
X97078Y-173921D01*
X96665Y-173607D01*
X96311Y-173135D01*
X96075Y-172584D01*
X95957Y-171955D01*
Y-171325D01*
X96075Y-170696D01*
X96311Y-170145D01*
X96665Y-169673D01*
X97078Y-169359D01*
X97550Y-169280D01*
X98022Y-169359D01*
X98435Y-169673D01*
X98789Y-170145D01*
X99025Y-170696D01*
X99143Y-171325D01*
Y-171955D01*
X99025Y-172584D01*
X98789Y-173135D01*
X98435Y-173607D01*
X98022Y-173921D01*
X97550Y-174000D01*
G01X100913D02*
Y-169280D01*
X103627Y-174000D01*
Y-169280D01*
G01X105751Y-173371D02*
X106223Y-173764D01*
X106754Y-174000D01*
X107226D01*
X107698Y-173764D01*
X108052Y-173371D01*
X108229Y-172820D01*
X108111Y-172269D01*
X107816Y-171797D01*
X107285Y-171483D01*
X106577Y-171325D01*
X106164Y-171011D01*
X105987Y-170460D01*
X106105Y-169909D01*
X106400Y-169516D01*
X106813Y-169280D01*
X107226D01*
X107639Y-169437D01*
X107993Y-169831D01*
G01X112890Y-174000D02*
X110530D01*
Y-169280D01*
X112890D01*
G01X111946Y-171561D02*
X110530D01*
G01X115073Y-174000D02*
Y-169280D01*
X117787Y-174000D01*
Y-169280D01*
G01X121150D02*
Y-174000D01*
G01X119793Y-169280D02*
X122507D01*
G01X130590Y-174000D02*
X130118Y-173921D01*
X129705Y-173607D01*
X129351Y-173135D01*
X129115Y-172584D01*
X128997Y-171955D01*
Y-171325D01*
X129115Y-170696D01*
X129351Y-170145D01*
X129705Y-169673D01*
X130118Y-169359D01*
X130590Y-169280D01*
X131062Y-169359D01*
X131475Y-169673D01*
X131829Y-170145D01*
X132065Y-170696D01*
X132183Y-171325D01*
Y-171955D01*
X132065Y-172584D01*
X131829Y-173135D01*
X131475Y-173607D01*
X131062Y-173921D01*
X130590Y-174000D01*
G01X134189D02*
Y-169280D01*
X136431D01*
G01X135605Y-171561D02*
X134189D01*
G01X-16910Y-166000D02*
Y-161280D01*
X-15494D01*
X-15022Y-161516D01*
X-14668Y-162067D01*
X-14550Y-162696D01*
X-14668Y-163325D01*
X-14963Y-163797D01*
X-15494Y-164033D01*
X-16910D01*
G01X-12190Y-166000D02*
Y-161280D01*
X-10715D01*
X-10243Y-161516D01*
X-9948Y-161831D01*
X-9830Y-162460D01*
X-9948Y-163089D01*
X-10302Y-163483D01*
X-10715Y-163719D01*
X-12190D01*
G01X-10715D02*
X-9830Y-166000D01*
G01X-6290D02*
X-6762Y-165921D01*
X-7175Y-165607D01*
X-7529Y-165135D01*
X-7765Y-164584D01*
X-7883Y-163955D01*
Y-163325D01*
X-7765Y-162696D01*
X-7529Y-162145D01*
X-7175Y-161673D01*
X-6762Y-161359D01*
X-6290Y-161280D01*
X-5818Y-161359D01*
X-5405Y-161673D01*
X-5051Y-162145D01*
X-4815Y-162696D01*
X-4697Y-163325D01*
Y-163955D01*
X-4815Y-164584D01*
X-5051Y-165135D01*
X-5405Y-165607D01*
X-5818Y-165921D01*
X-6290Y-166000D01*
G01X-272Y-161673D02*
X-626Y-161437D01*
X-1039Y-161280D01*
X-1511D01*
X-2042Y-161516D01*
X-2455Y-161909D01*
X-2750Y-162381D01*
X-2986Y-163168D01*
X-3045Y-163876D01*
X-2927Y-164584D01*
X-2750Y-165056D01*
X-2396Y-165528D01*
X-1983Y-165843D01*
X-1570Y-166000D01*
X-1157D01*
X-744Y-165843D01*
X-390Y-165607D01*
X-95Y-165292D01*
G01X1852Y-161280D02*
Y-164663D01*
X2088Y-165371D01*
X2560Y-165843D01*
X3150Y-166000D01*
X3740Y-165843D01*
X4212Y-165371D01*
X4448Y-164663D01*
Y-161280D01*
G01X6690Y-166000D02*
Y-161280D01*
X8165D01*
X8637Y-161516D01*
X8932Y-161831D01*
X9050Y-162460D01*
X8932Y-163089D01*
X8578Y-163483D01*
X8165Y-163719D01*
X6690D01*
G01X8165D02*
X9050Y-166000D01*
G01X13770D02*
X11410D01*
Y-161280D01*
X13770D01*
G01X12826Y-163561D02*
X11410D01*
G01X15776Y-166000D02*
Y-161280D01*
X17310Y-165213D01*
X18844Y-161280D01*
Y-166000D01*
G01X23210D02*
X20850D01*
Y-161280D01*
X23210D01*
G01X22266Y-163561D02*
X20850D01*
G01X25393Y-166000D02*
Y-161280D01*
X28107Y-166000D01*
Y-161280D01*
G01X31470D02*
Y-166000D01*
G01X30113Y-161280D02*
X32827D01*
G01X40910Y-166000D02*
X40438Y-165921D01*
X40025Y-165607D01*
X39671Y-165135D01*
X39435Y-164584D01*
X39317Y-163955D01*
Y-163325D01*
X39435Y-162696D01*
X39671Y-162145D01*
X40025Y-161673D01*
X40438Y-161359D01*
X40910Y-161280D01*
X41382Y-161359D01*
X41795Y-161673D01*
X42149Y-162145D01*
X42385Y-162696D01*
X42503Y-163325D01*
Y-163955D01*
X42385Y-164584D01*
X42149Y-165135D01*
X41795Y-165607D01*
X41382Y-165921D01*
X40910Y-166000D01*
G01X44450D02*
Y-161280D01*
X45925D01*
X46397Y-161516D01*
X46692Y-161831D01*
X46810Y-162460D01*
X46692Y-163089D01*
X46338Y-163483D01*
X45925Y-163719D01*
X44450D01*
G01X45925D02*
X46810Y-166000D01*
G01X53536D02*
Y-161280D01*
X55070Y-165213D01*
X56604Y-161280D01*
Y-166000D01*
G01X58315D02*
X59790Y-161280D01*
X61265Y-166000D01*
G01X60734Y-164348D02*
X58846D01*
G01X63153Y-166000D02*
Y-161280D01*
X65867Y-166000D01*
Y-161280D01*
G01X67932D02*
Y-164663D01*
X68168Y-165371D01*
X68640Y-165843D01*
X69230Y-166000D01*
X69820Y-165843D01*
X70292Y-165371D01*
X70528Y-164663D01*
Y-161280D01*
G01X72829Y-166000D02*
Y-161280D01*
X75071D01*
G01X74245Y-163561D02*
X72829D01*
G01X77195Y-166000D02*
X78670Y-161280D01*
X80145Y-166000D01*
G01X79614Y-164348D02*
X77726D01*
G01X84688Y-161673D02*
X84334Y-161437D01*
X83921Y-161280D01*
X83449D01*
X82918Y-161516D01*
X82505Y-161909D01*
X82210Y-162381D01*
X81974Y-163168D01*
X81915Y-163876D01*
X82033Y-164584D01*
X82210Y-165056D01*
X82564Y-165528D01*
X82977Y-165843D01*
X83390Y-166000D01*
X83803D01*
X84216Y-165843D01*
X84570Y-165607D01*
X84865Y-165292D01*
G01X88110Y-161280D02*
Y-166000D01*
G01X86753Y-161280D02*
X89467D01*
G01X91532D02*
Y-164663D01*
X91768Y-165371D01*
X92240Y-165843D01*
X92830Y-166000D01*
X93420Y-165843D01*
X93892Y-165371D01*
X94128Y-164663D01*
Y-161280D01*
G01X96370Y-166000D02*
Y-161280D01*
X97845D01*
X98317Y-161516D01*
X98612Y-161831D01*
X98730Y-162460D01*
X98612Y-163089D01*
X98258Y-163483D01*
X97845Y-163719D01*
X96370D01*
G01X97845D02*
X98730Y-166000D01*
G01X103450D02*
X101090D01*
Y-161280D01*
X103450D01*
G01X102506Y-163561D02*
X101090D01*
G01X111002Y-161280D02*
X112418D01*
G01X111710D02*
Y-166000D01*
G01X111002D02*
X112418D01*
G01X115073D02*
Y-161280D01*
X117787Y-166000D01*
Y-161280D01*
G01X124100D02*
X124926Y-166000D01*
X125870Y-161280D01*
X126814Y-166000D01*
X127640Y-161280D01*
G01X129351Y-166000D02*
Y-161280D01*
G01X131829D02*
Y-166000D01*
G01Y-163640D02*
X129351D01*
G01X135310Y-166000D02*
X134838Y-165921D01*
X134425Y-165607D01*
X134071Y-165135D01*
X133835Y-164584D01*
X133717Y-163955D01*
Y-163325D01*
X133835Y-162696D01*
X134071Y-162145D01*
X134425Y-161673D01*
X134838Y-161359D01*
X135310Y-161280D01*
X135782Y-161359D01*
X136195Y-161673D01*
X136549Y-162145D01*
X136785Y-162696D01*
X136903Y-163325D01*
Y-163955D01*
X136785Y-164584D01*
X136549Y-165135D01*
X136195Y-165607D01*
X135782Y-165921D01*
X135310Y-166000D01*
G01X138850Y-161280D02*
Y-166000D01*
X141210D01*
G01X145930D02*
X143570D01*
Y-161280D01*
X145930D01*
G01X144986Y-163561D02*
X143570D01*
G01X-17087Y-158000D02*
Y-153280D01*
X-14373Y-158000D01*
Y-153280D01*
G01X-11010Y-158000D02*
X-11482Y-157921D01*
X-11895Y-157607D01*
X-12249Y-157135D01*
X-12485Y-156584D01*
X-12603Y-155955D01*
Y-155325D01*
X-12485Y-154696D01*
X-12249Y-154145D01*
X-11895Y-153673D01*
X-11482Y-153359D01*
X-11010Y-153280D01*
X-10538Y-153359D01*
X-10125Y-153673D01*
X-9771Y-154145D01*
X-9535Y-154696D01*
X-9417Y-155325D01*
Y-155955D01*
X-9535Y-156584D01*
X-9771Y-157135D01*
X-10125Y-157607D01*
X-10538Y-157921D01*
X-11010Y-158000D01*
G01X-6290Y-153280D02*
Y-158000D01*
G01X-7647Y-153280D02*
X-4933D01*
G01X3622Y-155483D02*
X3858Y-155247D01*
X4035Y-154853D01*
X4153Y-154303D01*
X4035Y-153831D01*
X3799Y-153516D01*
X3386Y-153280D01*
X1793D01*
Y-158000D01*
X3740D01*
X4153Y-157685D01*
X4389Y-157213D01*
X4507Y-156663D01*
X4389Y-156112D01*
X4035Y-155640D01*
X3622Y-155483D01*
X1793D01*
G01X9050Y-158000D02*
X6690D01*
Y-153280D01*
X9050D01*
G01X8106Y-155561D02*
X6690D01*
G01X16012Y-153280D02*
Y-156663D01*
X16248Y-157371D01*
X16720Y-157843D01*
X17310Y-158000D01*
X17900Y-157843D01*
X18372Y-157371D01*
X18608Y-156663D01*
Y-153280D01*
G01X20791Y-157371D02*
X21263Y-157764D01*
X21794Y-158000D01*
X22266D01*
X22738Y-157764D01*
X23092Y-157371D01*
X23269Y-156820D01*
X23151Y-156269D01*
X22856Y-155797D01*
X22325Y-155483D01*
X21617Y-155325D01*
X21204Y-155011D01*
X21027Y-154460D01*
X21145Y-153909D01*
X21440Y-153516D01*
X21853Y-153280D01*
X22266D01*
X22679Y-153437D01*
X23033Y-153831D01*
G01X27930Y-158000D02*
X25570D01*
Y-153280D01*
X27930D01*
G01X26986Y-155561D02*
X25570D01*
G01X30172Y-158000D02*
Y-153280D01*
X31352D01*
X31824Y-153516D01*
X32178Y-153831D01*
X32473Y-154303D01*
X32709Y-154853D01*
X32768Y-155640D01*
X32709Y-156427D01*
X32473Y-156977D01*
X32178Y-157449D01*
X31824Y-157764D01*
X31352Y-158000D01*
X30172D01*
G01X39789D02*
Y-153280D01*
X42031D01*
G01X41205Y-155561D02*
X39789D01*
G01X45630Y-158000D02*
X45158Y-157921D01*
X44745Y-157607D01*
X44391Y-157135D01*
X44155Y-156584D01*
X44037Y-155955D01*
Y-155325D01*
X44155Y-154696D01*
X44391Y-154145D01*
X44745Y-153673D01*
X45158Y-153359D01*
X45630Y-153280D01*
X46102Y-153359D01*
X46515Y-153673D01*
X46869Y-154145D01*
X47105Y-154696D01*
X47223Y-155325D01*
Y-155955D01*
X47105Y-156584D01*
X46869Y-157135D01*
X46515Y-157607D01*
X46102Y-157921D01*
X45630Y-158000D01*
G01X49170D02*
Y-153280D01*
X50645D01*
X51117Y-153516D01*
X51412Y-153831D01*
X51530Y-154460D01*
X51412Y-155089D01*
X51058Y-155483D01*
X50645Y-155719D01*
X49170D01*
G01X50645D02*
X51530Y-158000D01*
G01X60970D02*
X58610D01*
Y-153280D01*
X60970D01*
G01X60026Y-155561D02*
X58610D01*
G01X63153Y-158000D02*
Y-153280D01*
X65867Y-158000D01*
Y-153280D01*
G01X69584Y-155640D02*
X70764D01*
Y-157056D01*
X70410Y-157528D01*
X69997Y-157843D01*
X69407Y-158000D01*
X68817Y-157843D01*
X68404Y-157528D01*
X68050Y-157056D01*
X67814Y-156505D01*
X67696Y-155876D01*
Y-155325D01*
X67814Y-154853D01*
X68050Y-154303D01*
X68404Y-153831D01*
X68758Y-153516D01*
X69230Y-153280D01*
X69643D01*
X70115Y-153437D01*
X70469Y-153752D01*
G01X73242Y-153280D02*
X74658D01*
G01X73950D02*
Y-158000D01*
G01X73242D02*
X74658D01*
G01X77313D02*
Y-153280D01*
X80027Y-158000D01*
Y-153280D01*
G01X84570Y-158000D02*
X82210D01*
Y-153280D01*
X84570D01*
G01X83626Y-155561D02*
X82210D01*
G01X89290Y-158000D02*
X86930D01*
Y-153280D01*
X89290D01*
G01X88346Y-155561D02*
X86930D01*
G01X91650Y-158000D02*
Y-153280D01*
X93125D01*
X93597Y-153516D01*
X93892Y-153831D01*
X94010Y-154460D01*
X93892Y-155089D01*
X93538Y-155483D01*
X93125Y-155719D01*
X91650D01*
G01X93125D02*
X94010Y-158000D01*
G01X96842Y-153280D02*
X98258D01*
G01X97550D02*
Y-158000D01*
G01X96842D02*
X98258D01*
G01X100913D02*
Y-153280D01*
X103627Y-158000D01*
Y-153280D01*
G01X107344Y-155640D02*
X108524D01*
Y-157056D01*
X108170Y-157528D01*
X107757Y-157843D01*
X107167Y-158000D01*
X106577Y-157843D01*
X106164Y-157528D01*
X105810Y-157056D01*
X105574Y-156505D01*
X105456Y-155876D01*
Y-155325D01*
X105574Y-154853D01*
X105810Y-154303D01*
X106164Y-153831D01*
X106518Y-153516D01*
X106990Y-153280D01*
X107403D01*
X107875Y-153437D01*
X108229Y-153752D01*
G01X115132Y-158000D02*
Y-153280D01*
X116312D01*
X116784Y-153516D01*
X117138Y-153831D01*
X117433Y-154303D01*
X117669Y-154853D01*
X117728Y-155640D01*
X117669Y-156427D01*
X117433Y-156977D01*
X117138Y-157449D01*
X116784Y-157764D01*
X116312Y-158000D01*
X115132D01*
G01X122330D02*
X119970D01*
Y-153280D01*
X122330D01*
G01X121386Y-155561D02*
X119970D01*
G01X124631Y-157371D02*
X125103Y-157764D01*
X125634Y-158000D01*
X126106D01*
X126578Y-157764D01*
X126932Y-157371D01*
X127109Y-156820D01*
X126991Y-156269D01*
X126696Y-155797D01*
X126165Y-155483D01*
X125457Y-155325D01*
X125044Y-155011D01*
X124867Y-154460D01*
X124985Y-153909D01*
X125280Y-153516D01*
X125693Y-153280D01*
X126106D01*
X126519Y-153437D01*
X126873Y-153831D01*
G01X129882Y-153280D02*
X131298D01*
G01X130590D02*
Y-158000D01*
G01X129882D02*
X131298D01*
G01X135664Y-155640D02*
X136844D01*
Y-157056D01*
X136490Y-157528D01*
X136077Y-157843D01*
X135487Y-158000D01*
X134897Y-157843D01*
X134484Y-157528D01*
X134130Y-157056D01*
X133894Y-156505D01*
X133776Y-155876D01*
Y-155325D01*
X133894Y-154853D01*
X134130Y-154303D01*
X134484Y-153831D01*
X134838Y-153516D01*
X135310Y-153280D01*
X135723D01*
X136195Y-153437D01*
X136549Y-153752D01*
G01X138673Y-158000D02*
Y-153280D01*
X141387Y-158000D01*
Y-153280D01*
G01X-16910Y-150000D02*
Y-145280D01*
X-15494D01*
X-15022Y-145516D01*
X-14668Y-146067D01*
X-14550Y-146696D01*
X-14668Y-147325D01*
X-14963Y-147797D01*
X-15494Y-148033D01*
X-16910D01*
G01X-12190Y-150000D02*
Y-145280D01*
X-10715D01*
X-10243Y-145516D01*
X-9948Y-145831D01*
X-9830Y-146460D01*
X-9948Y-147089D01*
X-10302Y-147483D01*
X-10715Y-147719D01*
X-12190D01*
G01X-10715D02*
X-9830Y-150000D01*
G01X-6290D02*
X-6762Y-149921D01*
X-7175Y-149607D01*
X-7529Y-149135D01*
X-7765Y-148584D01*
X-7883Y-147955D01*
Y-147325D01*
X-7765Y-146696D01*
X-7529Y-146145D01*
X-7175Y-145673D01*
X-6762Y-145359D01*
X-6290Y-145280D01*
X-5818Y-145359D01*
X-5405Y-145673D01*
X-5051Y-146145D01*
X-4815Y-146696D01*
X-4697Y-147325D01*
Y-147955D01*
X-4815Y-148584D01*
X-5051Y-149135D01*
X-5405Y-149607D01*
X-5818Y-149921D01*
X-6290Y-150000D01*
G01X-2750D02*
Y-145280D01*
X-1334D01*
X-862Y-145516D01*
X-508Y-146067D01*
X-390Y-146696D01*
X-508Y-147325D01*
X-803Y-147797D01*
X-1334Y-148033D01*
X-2750D01*
G01X1970Y-150000D02*
Y-145280D01*
X3445D01*
X3917Y-145516D01*
X4212Y-145831D01*
X4330Y-146460D01*
X4212Y-147089D01*
X3858Y-147483D01*
X3445Y-147719D01*
X1970D01*
G01X3445D02*
X4330Y-150000D01*
G01X7162Y-145280D02*
X8578D01*
G01X7870D02*
Y-150000D01*
G01X7162D02*
X8578D01*
G01X13770D02*
X11410D01*
Y-145280D01*
X13770D01*
G01X12826Y-147561D02*
X11410D01*
G01X17310Y-145280D02*
Y-150000D01*
G01X15953Y-145280D02*
X18667D01*
G01X20555Y-150000D02*
X22030Y-145280D01*
X23505Y-150000D01*
G01X22974Y-148348D02*
X21086D01*
G01X25570Y-150000D02*
Y-145280D01*
X27045D01*
X27517Y-145516D01*
X27812Y-145831D01*
X27930Y-146460D01*
X27812Y-147089D01*
X27458Y-147483D01*
X27045Y-147719D01*
X25570D01*
G01X27045D02*
X27930Y-150000D01*
G01X31470D02*
Y-147876D01*
X30290Y-145280D01*
G01X32650D02*
X31470Y-147876D01*
G01X40910Y-145280D02*
Y-150000D01*
G01X39553Y-145280D02*
X42267D01*
G01X45630Y-150000D02*
X45158Y-149921D01*
X44745Y-149607D01*
X44391Y-149135D01*
X44155Y-148584D01*
X44037Y-147955D01*
Y-147325D01*
X44155Y-146696D01*
X44391Y-146145D01*
X44745Y-145673D01*
X45158Y-145359D01*
X45630Y-145280D01*
X46102Y-145359D01*
X46515Y-145673D01*
X46869Y-146145D01*
X47105Y-146696D01*
X47223Y-147325D01*
Y-147955D01*
X47105Y-148584D01*
X46869Y-149135D01*
X46515Y-149607D01*
X46102Y-149921D01*
X45630Y-150000D01*
G01X53713D02*
Y-145280D01*
X56427Y-150000D01*
Y-145280D01*
G01X58551Y-150000D02*
X61029Y-145280D01*
G01X58551D02*
X61029Y-150000D01*
G01X63330D02*
Y-145280D01*
X64746D01*
X65218Y-145516D01*
X65572Y-146067D01*
X65690Y-146696D01*
X65572Y-147325D01*
X65277Y-147797D01*
X64746Y-148033D01*
X63330D01*
G01X72475Y-150000D02*
X73950Y-145280D01*
X75425Y-150000D01*
G01X74894Y-148348D02*
X73006D01*
G01X77313Y-150000D02*
Y-145280D01*
X80027Y-150000D01*
Y-145280D01*
G01X82092Y-150000D02*
Y-145280D01*
X83272D01*
X83744Y-145516D01*
X84098Y-145831D01*
X84393Y-146303D01*
X84629Y-146853D01*
X84688Y-147640D01*
X84629Y-148427D01*
X84393Y-148977D01*
X84098Y-149449D01*
X83744Y-149764D01*
X83272Y-150000D01*
X82092D01*
G01X91591Y-149371D02*
X92063Y-149764D01*
X92594Y-150000D01*
X93066D01*
X93538Y-149764D01*
X93892Y-149371D01*
X94069Y-148820D01*
X93951Y-148269D01*
X93656Y-147797D01*
X93125Y-147483D01*
X92417Y-147325D01*
X92004Y-147011D01*
X91827Y-146460D01*
X91945Y-145909D01*
X92240Y-145516D01*
X92653Y-145280D01*
X93066D01*
X93479Y-145437D01*
X93833Y-145831D01*
G01X96311Y-150000D02*
Y-145280D01*
G01X98789D02*
Y-150000D01*
G01Y-147640D02*
X96311D01*
G01X100795Y-150000D02*
X102270Y-145280D01*
X103745Y-150000D01*
G01X103214Y-148348D02*
X101326D01*
G01X105810Y-145280D02*
Y-150000D01*
X108170D01*
G01X110530Y-145280D02*
Y-150000D01*
X112890D01*
G01X-16730Y-137280D02*
Y-142000D01*
G01X-18087Y-137280D02*
X-15373D01*
G01X-13249Y-142000D02*
Y-137280D01*
G01X-10771D02*
Y-142000D01*
G01Y-139640D02*
X-13249D01*
G01X-7998Y-137280D02*
X-6582D01*
G01X-7290D02*
Y-142000D01*
G01X-7998D02*
X-6582D01*
G01X-3809Y-141371D02*
X-3337Y-141764D01*
X-2806Y-142000D01*
X-2334D01*
X-1862Y-141764D01*
X-1508Y-141371D01*
X-1331Y-140820D01*
X-1449Y-140269D01*
X-1744Y-139797D01*
X-2275Y-139483D01*
X-2983Y-139325D01*
X-3396Y-139011D01*
X-3573Y-138460D01*
X-3455Y-137909D01*
X-3160Y-137516D01*
X-2747Y-137280D01*
X-2334D01*
X-1921Y-137437D01*
X-1567Y-137831D01*
G01X5572Y-142000D02*
Y-137280D01*
X6752D01*
X7224Y-137516D01*
X7578Y-137831D01*
X7873Y-138303D01*
X8109Y-138853D01*
X8168Y-139640D01*
X8109Y-140427D01*
X7873Y-140977D01*
X7578Y-141449D01*
X7224Y-141764D01*
X6752Y-142000D01*
X5572D01*
G01X11590D02*
X11118Y-141921D01*
X10705Y-141607D01*
X10351Y-141135D01*
X10115Y-140584D01*
X9997Y-139955D01*
Y-139325D01*
X10115Y-138696D01*
X10351Y-138145D01*
X10705Y-137673D01*
X11118Y-137359D01*
X11590Y-137280D01*
X12062Y-137359D01*
X12475Y-137673D01*
X12829Y-138145D01*
X13065Y-138696D01*
X13183Y-139325D01*
Y-139955D01*
X13065Y-140584D01*
X12829Y-141135D01*
X12475Y-141607D01*
X12062Y-141921D01*
X11590Y-142000D01*
G01X17608Y-137673D02*
X17254Y-137437D01*
X16841Y-137280D01*
X16369D01*
X15838Y-137516D01*
X15425Y-137909D01*
X15130Y-138381D01*
X14894Y-139168D01*
X14835Y-139876D01*
X14953Y-140584D01*
X15130Y-141056D01*
X15484Y-141528D01*
X15897Y-141843D01*
X16310Y-142000D01*
X16723D01*
X17136Y-141843D01*
X17490Y-141607D01*
X17785Y-141292D01*
G01X19732Y-137280D02*
Y-140663D01*
X19968Y-141371D01*
X20440Y-141843D01*
X21030Y-142000D01*
X21620Y-141843D01*
X22092Y-141371D01*
X22328Y-140663D01*
Y-137280D01*
G01X24216Y-142000D02*
Y-137280D01*
X25750Y-141213D01*
X27284Y-137280D01*
Y-142000D01*
G01X31650D02*
X29290D01*
Y-137280D01*
X31650D01*
G01X30706Y-139561D02*
X29290D01*
G01X33833Y-142000D02*
Y-137280D01*
X36547Y-142000D01*
Y-137280D01*
G01X39910D02*
Y-142000D01*
G01X38553Y-137280D02*
X41267D01*
G01X50648Y-137673D02*
X50294Y-137437D01*
X49881Y-137280D01*
X49409D01*
X48878Y-137516D01*
X48465Y-137909D01*
X48170Y-138381D01*
X47934Y-139168D01*
X47875Y-139876D01*
X47993Y-140584D01*
X48170Y-141056D01*
X48524Y-141528D01*
X48937Y-141843D01*
X49350Y-142000D01*
X49763D01*
X50176Y-141843D01*
X50530Y-141607D01*
X50825Y-141292D01*
G01X54070Y-142000D02*
X53598Y-141921D01*
X53185Y-141607D01*
X52831Y-141135D01*
X52595Y-140584D01*
X52477Y-139955D01*
Y-139325D01*
X52595Y-138696D01*
X52831Y-138145D01*
X53185Y-137673D01*
X53598Y-137359D01*
X54070Y-137280D01*
X54542Y-137359D01*
X54955Y-137673D01*
X55309Y-138145D01*
X55545Y-138696D01*
X55663Y-139325D01*
Y-139955D01*
X55545Y-140584D01*
X55309Y-141135D01*
X54955Y-141607D01*
X54542Y-141921D01*
X54070Y-142000D01*
G01X57433D02*
Y-137280D01*
X60147Y-142000D01*
Y-137280D01*
G01X63510D02*
Y-142000D01*
G01X62153Y-137280D02*
X64867D01*
G01X66755Y-142000D02*
X68230Y-137280D01*
X69705Y-142000D01*
G01X69174Y-140348D02*
X67286D01*
G01X72242Y-137280D02*
X73658D01*
G01X72950D02*
Y-142000D01*
G01X72242D02*
X73658D01*
G01X76313D02*
Y-137280D01*
X79027Y-142000D01*
Y-137280D01*
G01X81151Y-141371D02*
X81623Y-141764D01*
X82154Y-142000D01*
X82626D01*
X83098Y-141764D01*
X83452Y-141371D01*
X83629Y-140820D01*
X83511Y-140269D01*
X83216Y-139797D01*
X82685Y-139483D01*
X81977Y-139325D01*
X81564Y-139011D01*
X81387Y-138460D01*
X81505Y-137909D01*
X81800Y-137516D01*
X82213Y-137280D01*
X82626D01*
X83039Y-137437D01*
X83393Y-137831D01*
G01X91122Y-137280D02*
X92538D01*
G01X91830D02*
Y-142000D01*
G01X91122D02*
X92538D01*
G01X95193D02*
Y-137280D01*
X97907Y-142000D01*
Y-137280D01*
G01X100149Y-142000D02*
Y-137280D01*
X102391D01*
G01X101565Y-139561D02*
X100149D01*
G01X105990Y-142000D02*
X105518Y-141921D01*
X105105Y-141607D01*
X104751Y-141135D01*
X104515Y-140584D01*
X104397Y-139955D01*
Y-139325D01*
X104515Y-138696D01*
X104751Y-138145D01*
X105105Y-137673D01*
X105518Y-137359D01*
X105990Y-137280D01*
X106462Y-137359D01*
X106875Y-137673D01*
X107229Y-138145D01*
X107465Y-138696D01*
X107583Y-139325D01*
Y-139955D01*
X107465Y-140584D01*
X107229Y-141135D01*
X106875Y-141607D01*
X106462Y-141921D01*
X105990Y-142000D01*
G01X109530D02*
Y-137280D01*
X111005D01*
X111477Y-137516D01*
X111772Y-137831D01*
X111890Y-138460D01*
X111772Y-139089D01*
X111418Y-139483D01*
X111005Y-139719D01*
X109530D01*
G01X111005D02*
X111890Y-142000D01*
G01X113896D02*
Y-137280D01*
X115430Y-141213D01*
X116964Y-137280D01*
Y-142000D01*
G01X118675D02*
X120150Y-137280D01*
X121625Y-142000D01*
G01X121094Y-140348D02*
X119206D01*
G01X124870Y-137280D02*
Y-142000D01*
G01X123513Y-137280D02*
X126227D01*
G01X128882D02*
X130298D01*
G01X129590D02*
Y-142000D01*
G01X128882D02*
X130298D01*
G01X134310D02*
X133838Y-141921D01*
X133425Y-141607D01*
X133071Y-141135D01*
X132835Y-140584D01*
X132717Y-139955D01*
Y-139325D01*
X132835Y-138696D01*
X133071Y-138145D01*
X133425Y-137673D01*
X133838Y-137359D01*
X134310Y-137280D01*
X134782Y-137359D01*
X135195Y-137673D01*
X135549Y-138145D01*
X135785Y-138696D01*
X135903Y-139325D01*
Y-139955D01*
X135785Y-140584D01*
X135549Y-141135D01*
X135195Y-141607D01*
X134782Y-141921D01*
X134310Y-142000D01*
G01X137673D02*
Y-137280D01*
X140387Y-142000D01*
Y-137280D01*
G01X26149Y-193000D02*
Y-188280D01*
X28391D01*
G01X27565Y-190561D02*
X26149D01*
G01X31282Y-188280D02*
X32698D01*
G01X31990D02*
Y-193000D01*
G01X31282D02*
X32698D01*
G01X35530Y-188280D02*
Y-193000D01*
X37890D01*
G01X39896D02*
Y-188280D01*
X41430Y-192213D01*
X42964Y-188280D01*
Y-193000D01*
G01X154270Y-196280D02*
X153798Y-196437D01*
X153444Y-196831D01*
X153208Y-197303D01*
X153031Y-197932D01*
X152972Y-198640D01*
X153031Y-199348D01*
X153208Y-199977D01*
X153444Y-200449D01*
X153798Y-200843D01*
X154270Y-201000D01*
X154742Y-200843D01*
X155096Y-200449D01*
X155332Y-199977D01*
X155509Y-199348D01*
X155568Y-198640D01*
X155509Y-197932D01*
X155332Y-197303D01*
X155096Y-196831D01*
X154742Y-196437D01*
X154270Y-196280D01*
G01X157987Y-200449D02*
X158400Y-200843D01*
X158872Y-201000D01*
X159344Y-200843D01*
X159757Y-200371D01*
X160052Y-199663D01*
X160170Y-198955D01*
Y-198089D01*
X160052Y-197381D01*
X159757Y-196752D01*
X159403Y-196437D01*
X158990Y-196280D01*
X158518Y-196437D01*
X158164Y-196752D01*
X157928Y-197224D01*
X157810Y-197853D01*
X157928Y-198404D01*
X158223Y-198955D01*
X158577Y-199269D01*
X158990Y-199348D01*
X159462Y-199191D01*
X159816Y-198797D01*
X160170Y-198089D01*
G01X162943Y-199427D02*
X164477D01*
G01X168430Y-196280D02*
X167958Y-196437D01*
X167604Y-196831D01*
X167368Y-197303D01*
X167191Y-197932D01*
X167132Y-198640D01*
X167191Y-199348D01*
X167368Y-199977D01*
X167604Y-200449D01*
X167958Y-200843D01*
X168430Y-201000D01*
X168902Y-200843D01*
X169256Y-200449D01*
X169492Y-199977D01*
X169669Y-199348D01*
X169728Y-198640D01*
X169669Y-197932D01*
X169492Y-197303D01*
X169256Y-196831D01*
X168902Y-196437D01*
X168430Y-196280D01*
G01X172029Y-199033D02*
X172442Y-198483D01*
X172796Y-198168D01*
X173268Y-198011D01*
X173681Y-198168D01*
X173976Y-198483D01*
X174212Y-198955D01*
X174271Y-199505D01*
X174212Y-199977D01*
X173976Y-200449D01*
X173622Y-200843D01*
X173209Y-201000D01*
X172737Y-200843D01*
X172324Y-200371D01*
X172088Y-199663D01*
X172029Y-198876D01*
X172147Y-197853D01*
X172324Y-197303D01*
X172619Y-196752D01*
X173032Y-196359D01*
X173445Y-196280D01*
X173858Y-196437D01*
X174153Y-196831D01*
G01X177103Y-199427D02*
X178637D01*
G01X182590Y-201000D02*
Y-196280D01*
X181882Y-197224D01*
G01Y-201000D02*
X183298D01*
G01X187310D02*
X187723Y-200921D01*
X188195Y-200685D01*
X188490Y-200292D01*
X188608Y-199741D01*
X188490Y-199191D01*
X188136Y-198719D01*
X187605Y-198483D01*
X187015D01*
X186661Y-198325D01*
X186366Y-197932D01*
X186248Y-197381D01*
X186425Y-196831D01*
X186838Y-196437D01*
X187310Y-196280D01*
X187782Y-196437D01*
X188195Y-196831D01*
X188372Y-197381D01*
X188254Y-197932D01*
X187959Y-198325D01*
X187605Y-198483D01*
X187015D01*
X186484Y-198719D01*
X186130Y-199191D01*
X186012Y-199741D01*
X186130Y-200292D01*
X186425Y-200685D01*
X186897Y-200921D01*
X187310Y-201000D01*
G01X150972Y-193000D02*
Y-188280D01*
X152152D01*
X152624Y-188516D01*
X152978Y-188831D01*
X153273Y-189303D01*
X153509Y-189853D01*
X153568Y-190640D01*
X153509Y-191427D01*
X153273Y-191977D01*
X152978Y-192449D01*
X152624Y-192764D01*
X152152Y-193000D01*
X150972D01*
G01X155515D02*
X156990Y-188280D01*
X158465Y-193000D01*
G01X157934Y-191348D02*
X156046D01*
G01X161710Y-188280D02*
Y-193000D01*
G01X160353Y-188280D02*
X163067D01*
G01X167610Y-193000D02*
X165250D01*
Y-188280D01*
X167610D01*
G01X166666Y-190561D02*
X165250D01*
G01X150913Y-113000D02*
Y-108280D01*
X153627Y-113000D01*
Y-108280D01*
G01X155515Y-113000D02*
X156990Y-108280D01*
X158465Y-113000D01*
G01X157934Y-111348D02*
X156046D01*
G01X160176Y-113000D02*
Y-108280D01*
X161710Y-112213D01*
X163244Y-108280D01*
Y-113000D01*
G01X167610D02*
X165250D01*
Y-108280D01*
X167610D01*
G01X166666Y-110561D02*
X165250D01*
G01X160500Y-179073D02*
X164040D01*
G01X165220D02*
X168760D01*
G01X169940D02*
X173480D01*
G01X179793Y-177500D02*
Y-172780D01*
X182507Y-177500D01*
Y-172780D01*
G01X187168Y-173173D02*
X186814Y-172937D01*
X186401Y-172780D01*
X185929D01*
X185398Y-173016D01*
X184985Y-173409D01*
X184690Y-173881D01*
X184454Y-174668D01*
X184395Y-175376D01*
X184513Y-176084D01*
X184690Y-176556D01*
X185044Y-177028D01*
X185457Y-177343D01*
X185870Y-177500D01*
X186283D01*
X186696Y-177343D01*
X187050Y-177107D01*
X187345Y-176792D01*
G01X189410Y-177500D02*
Y-172780D01*
X190826D01*
X191298Y-173016D01*
X191652Y-173567D01*
X191770Y-174196D01*
X191652Y-174825D01*
X191357Y-175297D01*
X190826Y-175533D01*
X189410D01*
G01X199735Y-179073D02*
X199145Y-178287D01*
X198850Y-177500D01*
Y-174353D01*
X199145Y-173567D01*
X199735Y-172780D01*
G01X203393Y-177500D02*
Y-172780D01*
X206107Y-177500D01*
Y-172780D01*
G01X208231Y-177500D02*
X210709Y-172780D01*
G01X208231D02*
X210709Y-177500D01*
G01X213010D02*
Y-172780D01*
X214426D01*
X214898Y-173016D01*
X215252Y-173567D01*
X215370Y-174196D01*
X215252Y-174825D01*
X214957Y-175297D01*
X214426Y-175533D01*
X213010D01*
G01X224928Y-173173D02*
X224574Y-172937D01*
X224161Y-172780D01*
X223689D01*
X223158Y-173016D01*
X222745Y-173409D01*
X222450Y-173881D01*
X222214Y-174668D01*
X222155Y-175376D01*
X222273Y-176084D01*
X222450Y-176556D01*
X222804Y-177028D01*
X223217Y-177343D01*
X223630Y-177500D01*
X224043D01*
X224456Y-177343D01*
X224810Y-177107D01*
X225105Y-176792D01*
G01X228350Y-177500D02*
X227878Y-177421D01*
X227465Y-177107D01*
X227111Y-176635D01*
X226875Y-176084D01*
X226757Y-175455D01*
Y-174825D01*
X226875Y-174196D01*
X227111Y-173645D01*
X227465Y-173173D01*
X227878Y-172859D01*
X228350Y-172780D01*
X228822Y-172859D01*
X229235Y-173173D01*
X229589Y-173645D01*
X229825Y-174196D01*
X229943Y-174825D01*
Y-175455D01*
X229825Y-176084D01*
X229589Y-176635D01*
X229235Y-177107D01*
X228822Y-177421D01*
X228350Y-177500D01*
G01X231713D02*
Y-172780D01*
X234427Y-177500D01*
Y-172780D01*
G01X236669Y-177500D02*
Y-172780D01*
X238911D01*
G01X238085Y-175061D02*
X236669D01*
G01X241802Y-172780D02*
X243218D01*
G01X242510D02*
Y-177500D01*
G01X241802D02*
X243218D01*
G01X245932D02*
Y-172780D01*
X247112D01*
X247584Y-173016D01*
X247938Y-173331D01*
X248233Y-173803D01*
X248469Y-174353D01*
X248528Y-175140D01*
X248469Y-175927D01*
X248233Y-176477D01*
X247938Y-176949D01*
X247584Y-177264D01*
X247112Y-177500D01*
X245932D01*
G01X253130D02*
X250770D01*
Y-172780D01*
X253130D01*
G01X252186Y-175061D02*
X250770D01*
G01X255313Y-177500D02*
Y-172780D01*
X258027Y-177500D01*
Y-172780D01*
G01X261390D02*
Y-177500D01*
G01X260033Y-172780D02*
X262747D01*
G01X265402D02*
X266818D01*
G01X266110D02*
Y-177500D01*
G01X265402D02*
X266818D01*
G01X269355D02*
X270830Y-172780D01*
X272305Y-177500D01*
G01X271774Y-175848D02*
X269886D01*
G01X274370Y-172780D02*
Y-177500D01*
X276730D01*
G01X283810D02*
Y-172780D01*
X285226D01*
X285698Y-173016D01*
X286052Y-173567D01*
X286170Y-174196D01*
X286052Y-174825D01*
X285757Y-175297D01*
X285226Y-175533D01*
X283810D01*
G01X288530Y-177500D02*
Y-172780D01*
X290005D01*
X290477Y-173016D01*
X290772Y-173331D01*
X290890Y-173960D01*
X290772Y-174589D01*
X290418Y-174983D01*
X290005Y-175219D01*
X288530D01*
G01X290005D02*
X290890Y-177500D01*
G01X294430D02*
X293958Y-177421D01*
X293545Y-177107D01*
X293191Y-176635D01*
X292955Y-176084D01*
X292837Y-175455D01*
Y-174825D01*
X292955Y-174196D01*
X293191Y-173645D01*
X293545Y-173173D01*
X293958Y-172859D01*
X294430Y-172780D01*
X294902Y-172859D01*
X295315Y-173173D01*
X295669Y-173645D01*
X295905Y-174196D01*
X296023Y-174825D01*
Y-175455D01*
X295905Y-176084D01*
X295669Y-176635D01*
X295315Y-177107D01*
X294902Y-177421D01*
X294430Y-177500D01*
G01X297970D02*
Y-172780D01*
X299386D01*
X299858Y-173016D01*
X300212Y-173567D01*
X300330Y-174196D01*
X300212Y-174825D01*
X299917Y-175297D01*
X299386Y-175533D01*
X297970D01*
G01X302690Y-177500D02*
Y-172780D01*
X304165D01*
X304637Y-173016D01*
X304932Y-173331D01*
X305050Y-173960D01*
X304932Y-174589D01*
X304578Y-174983D01*
X304165Y-175219D01*
X302690D01*
G01X304165D02*
X305050Y-177500D01*
G01X307882Y-172780D02*
X309298D01*
G01X308590D02*
Y-177500D01*
G01X307882D02*
X309298D01*
G01X314490D02*
X312130D01*
Y-172780D01*
X314490D01*
G01X313546Y-175061D02*
X312130D01*
G01X318030Y-172780D02*
Y-177500D01*
G01X316673Y-172780D02*
X319387D01*
G01X321275Y-177500D02*
X322750Y-172780D01*
X324225Y-177500D01*
G01X323694Y-175848D02*
X321806D01*
G01X326290Y-177500D02*
Y-172780D01*
X327765D01*
X328237Y-173016D01*
X328532Y-173331D01*
X328650Y-173960D01*
X328532Y-174589D01*
X328178Y-174983D01*
X327765Y-175219D01*
X326290D01*
G01X327765D02*
X328650Y-177500D01*
G01X332190D02*
Y-175376D01*
X331010Y-172780D01*
G01X333370D02*
X332190Y-175376D01*
G01X337205Y-179073D02*
X337795Y-178287D01*
X338090Y-177500D01*
Y-174353D01*
X337795Y-173567D01*
X337205Y-172780D01*
G01X160500Y-162573D02*
X164040D01*
G01X165220D02*
X168760D01*
G01X169940D02*
X173480D01*
G01X179793Y-161000D02*
Y-156280D01*
X182507Y-161000D01*
Y-156280D01*
G01X185162D02*
X186578D01*
G01X185870D02*
Y-161000D01*
G01X185162D02*
X186578D01*
G01X189292Y-156280D02*
Y-159663D01*
X189528Y-160371D01*
X190000Y-160843D01*
X190590Y-161000D01*
X191180Y-160843D01*
X191652Y-160371D01*
X191888Y-159663D01*
Y-156280D01*
G01X195310Y-161000D02*
X194838Y-160921D01*
X194425Y-160607D01*
X194071Y-160135D01*
X193835Y-159584D01*
X193717Y-158955D01*
Y-158325D01*
X193835Y-157696D01*
X194071Y-157145D01*
X194425Y-156673D01*
X194838Y-156359D01*
X195310Y-156280D01*
X195782Y-156359D01*
X196195Y-156673D01*
X196549Y-157145D01*
X196785Y-157696D01*
X196903Y-158325D01*
Y-158955D01*
X196785Y-159584D01*
X196549Y-160135D01*
X196195Y-160607D01*
X195782Y-160921D01*
X195310Y-161000D01*
G01X204455Y-162573D02*
X203865Y-161787D01*
X203570Y-161000D01*
Y-157853D01*
X203865Y-157067D01*
X204455Y-156280D01*
G01X208113Y-161000D02*
Y-156280D01*
X210827Y-161000D01*
Y-156280D01*
G01X212951Y-161000D02*
X215429Y-156280D01*
G01X212951D02*
X215429Y-161000D01*
G01X217730D02*
Y-156280D01*
X219146D01*
X219618Y-156516D01*
X219972Y-157067D01*
X220090Y-157696D01*
X219972Y-158325D01*
X219677Y-158797D01*
X219146Y-159033D01*
X217730D01*
G01X227642Y-156280D02*
X229058D01*
G01X228350D02*
Y-161000D01*
G01X227642D02*
X229058D01*
G01X231713D02*
Y-156280D01*
X234427Y-161000D01*
Y-156280D01*
G01X237790D02*
Y-161000D01*
G01X236433Y-156280D02*
X239147D01*
G01X243690Y-161000D02*
X241330D01*
Y-156280D01*
X243690D01*
G01X242746Y-158561D02*
X241330D01*
G01X246050Y-161000D02*
Y-156280D01*
X247525D01*
X247997Y-156516D01*
X248292Y-156831D01*
X248410Y-157460D01*
X248292Y-158089D01*
X247938Y-158483D01*
X247525Y-158719D01*
X246050D01*
G01X247525D02*
X248410Y-161000D01*
G01X250593D02*
Y-156280D01*
X253307Y-161000D01*
Y-156280D01*
G01X255195Y-161000D02*
X256670Y-156280D01*
X258145Y-161000D01*
G01X257614Y-159348D02*
X255726D01*
G01X260210Y-156280D02*
Y-161000D01*
X262570D01*
G01X269532Y-156280D02*
Y-159663D01*
X269768Y-160371D01*
X270240Y-160843D01*
X270830Y-161000D01*
X271420Y-160843D01*
X271892Y-160371D01*
X272128Y-159663D01*
Y-156280D01*
G01X274311Y-160371D02*
X274783Y-160764D01*
X275314Y-161000D01*
X275786D01*
X276258Y-160764D01*
X276612Y-160371D01*
X276789Y-159820D01*
X276671Y-159269D01*
X276376Y-158797D01*
X275845Y-158483D01*
X275137Y-158325D01*
X274724Y-158011D01*
X274547Y-157460D01*
X274665Y-156909D01*
X274960Y-156516D01*
X275373Y-156280D01*
X275786D01*
X276199Y-156437D01*
X276553Y-156831D01*
G01X281450Y-161000D02*
X279090D01*
Y-156280D01*
X281450D01*
G01X280506Y-158561D02*
X279090D01*
G01X289710Y-161000D02*
X289238Y-160921D01*
X288825Y-160607D01*
X288471Y-160135D01*
X288235Y-159584D01*
X288117Y-158955D01*
Y-158325D01*
X288235Y-157696D01*
X288471Y-157145D01*
X288825Y-156673D01*
X289238Y-156359D01*
X289710Y-156280D01*
X290182Y-156359D01*
X290595Y-156673D01*
X290949Y-157145D01*
X291185Y-157696D01*
X291303Y-158325D01*
Y-158955D01*
X291185Y-159584D01*
X290949Y-160135D01*
X290595Y-160607D01*
X290182Y-160921D01*
X289710Y-161000D01*
G01X293073D02*
Y-156280D01*
X295787Y-161000D01*
Y-156280D01*
G01X297970D02*
Y-161000D01*
X300330D01*
G01X303870D02*
Y-158876D01*
X302690Y-156280D01*
G01X305050D02*
X303870Y-158876D01*
G01X308885Y-162573D02*
X309475Y-161787D01*
X309770Y-161000D01*
Y-157853D01*
X309475Y-157067D01*
X308885Y-156280D01*
G01X160500Y-146573D02*
X164040D01*
G01X165220D02*
X168760D01*
G01X169940D02*
X173480D01*
G01X179970Y-145000D02*
Y-140280D01*
X181386D01*
X181858Y-140516D01*
X182212Y-141067D01*
X182330Y-141696D01*
X182212Y-142325D01*
X181917Y-142797D01*
X181386Y-143033D01*
X179970D01*
G01X184572Y-140280D02*
Y-143663D01*
X184808Y-144371D01*
X185280Y-144843D01*
X185870Y-145000D01*
X186460Y-144843D01*
X186932Y-144371D01*
X187168Y-143663D01*
Y-140280D01*
G01X191062Y-142483D02*
X191298Y-142247D01*
X191475Y-141853D01*
X191593Y-141303D01*
X191475Y-140831D01*
X191239Y-140516D01*
X190826Y-140280D01*
X189233D01*
Y-145000D01*
X191180D01*
X191593Y-144685D01*
X191829Y-144213D01*
X191947Y-143663D01*
X191829Y-143112D01*
X191475Y-142640D01*
X191062Y-142483D01*
X189233D01*
G01X194602Y-140280D02*
X196018D01*
G01X195310D02*
Y-145000D01*
G01X194602D02*
X196018D01*
G01X204455Y-146573D02*
X203865Y-145787D01*
X203570Y-145000D01*
Y-141853D01*
X203865Y-141067D01*
X204455Y-140280D01*
G01X208290Y-145000D02*
Y-140280D01*
X209706D01*
X210178Y-140516D01*
X210532Y-141067D01*
X210650Y-141696D01*
X210532Y-142325D01*
X210237Y-142797D01*
X209706Y-143033D01*
X208290D01*
G01X212892Y-140280D02*
Y-143663D01*
X213128Y-144371D01*
X213600Y-144843D01*
X214190Y-145000D01*
X214780Y-144843D01*
X215252Y-144371D01*
X215488Y-143663D01*
Y-140280D01*
G01X219382Y-142483D02*
X219618Y-142247D01*
X219795Y-141853D01*
X219913Y-141303D01*
X219795Y-140831D01*
X219559Y-140516D01*
X219146Y-140280D01*
X217553D01*
Y-145000D01*
X219500D01*
X219913Y-144685D01*
X220149Y-144213D01*
X220267Y-143663D01*
X220149Y-143112D01*
X219795Y-142640D01*
X219382Y-142483D01*
X217553D01*
G01X222450Y-140280D02*
Y-145000D01*
X224810D01*
G01X227642Y-140280D02*
X229058D01*
G01X228350D02*
Y-145000D01*
G01X227642D02*
X229058D01*
G01X234368Y-140673D02*
X234014Y-140437D01*
X233601Y-140280D01*
X233129D01*
X232598Y-140516D01*
X232185Y-140909D01*
X231890Y-141381D01*
X231654Y-142168D01*
X231595Y-142876D01*
X231713Y-143584D01*
X231890Y-144056D01*
X232244Y-144528D01*
X232657Y-144843D01*
X233070Y-145000D01*
X233483D01*
X233896Y-144843D01*
X234250Y-144607D01*
X234545Y-144292D01*
G01X241802Y-140280D02*
X243218D01*
G01X242510D02*
Y-145000D01*
G01X241802D02*
X243218D01*
G01X245873D02*
Y-140280D01*
X248587Y-145000D01*
Y-140280D01*
G01X250829Y-145000D02*
Y-140280D01*
X253071D01*
G01X252245Y-142561D02*
X250829D01*
G01X256670Y-145000D02*
X256198Y-144921D01*
X255785Y-144607D01*
X255431Y-144135D01*
X255195Y-143584D01*
X255077Y-142955D01*
Y-142325D01*
X255195Y-141696D01*
X255431Y-141145D01*
X255785Y-140673D01*
X256198Y-140359D01*
X256670Y-140280D01*
X257142Y-140359D01*
X257555Y-140673D01*
X257909Y-141145D01*
X258145Y-141696D01*
X258263Y-142325D01*
Y-142955D01*
X258145Y-143584D01*
X257909Y-144135D01*
X257555Y-144607D01*
X257142Y-144921D01*
X256670Y-145000D01*
G01X260210D02*
Y-140280D01*
X261685D01*
X262157Y-140516D01*
X262452Y-140831D01*
X262570Y-141460D01*
X262452Y-142089D01*
X262098Y-142483D01*
X261685Y-142719D01*
X260210D01*
G01X261685D02*
X262570Y-145000D01*
G01X264576D02*
Y-140280D01*
X266110Y-144213D01*
X267644Y-140280D01*
Y-145000D01*
G01X269355D02*
X270830Y-140280D01*
X272305Y-145000D01*
G01X271774Y-143348D02*
X269886D01*
G01X275550Y-140280D02*
Y-145000D01*
G01X274193Y-140280D02*
X276907D01*
G01X279562D02*
X280978D01*
G01X280270D02*
Y-145000D01*
G01X279562D02*
X280978D01*
G01X284990D02*
X284518Y-144921D01*
X284105Y-144607D01*
X283751Y-144135D01*
X283515Y-143584D01*
X283397Y-142955D01*
Y-142325D01*
X283515Y-141696D01*
X283751Y-141145D01*
X284105Y-140673D01*
X284518Y-140359D01*
X284990Y-140280D01*
X285462Y-140359D01*
X285875Y-140673D01*
X286229Y-141145D01*
X286465Y-141696D01*
X286583Y-142325D01*
Y-142955D01*
X286465Y-143584D01*
X286229Y-144135D01*
X285875Y-144607D01*
X285462Y-144921D01*
X284990Y-145000D01*
G01X288353D02*
Y-140280D01*
X291067Y-145000D01*
Y-140280D01*
G01X294725Y-146573D02*
X295315Y-145787D01*
X295610Y-145000D01*
Y-141853D01*
X295315Y-141067D01*
X294725Y-140280D01*
G01X200913Y-193000D02*
Y-188280D01*
X203627Y-193000D01*
Y-188280D01*
G01X205692D02*
Y-191663D01*
X205928Y-192371D01*
X206400Y-192843D01*
X206990Y-193000D01*
X207580Y-192843D01*
X208052Y-192371D01*
X208288Y-191663D01*
Y-188280D01*
G01X210176Y-193000D02*
Y-188280D01*
X211710Y-192213D01*
X213244Y-188280D01*
Y-193000D01*
G01X216902Y-190483D02*
X217138Y-190247D01*
X217315Y-189853D01*
X217433Y-189303D01*
X217315Y-188831D01*
X217079Y-188516D01*
X216666Y-188280D01*
X215073D01*
Y-193000D01*
X217020D01*
X217433Y-192685D01*
X217669Y-192213D01*
X217787Y-191663D01*
X217669Y-191112D01*
X217315Y-190640D01*
X216902Y-190483D01*
X215073D01*
G01X222330Y-193000D02*
X219970D01*
Y-188280D01*
X222330D01*
G01X221386Y-190561D02*
X219970D01*
G01X224690Y-193000D02*
Y-188280D01*
X226165D01*
X226637Y-188516D01*
X226932Y-188831D01*
X227050Y-189460D01*
X226932Y-190089D01*
X226578Y-190483D01*
X226165Y-190719D01*
X224690D01*
G01X226165D02*
X227050Y-193000D01*
G54D24*
X319000Y283915D03*
G54D15*
X10000Y43500D03*
Y67516D03*
G54D25*
X324421Y-7000D03*
X344500D03*
G54D16*
X18071Y12133D03*
G54D26*
X345000Y132500D03*
G54D17*
X20535Y372000D03*
X37465D03*
X314535D03*
X331465D03*
G54D27*
X371500Y110402D03*
Y135598D03*
G54D18*
G01X372500Y-105000D02*
Y-205000D01*
X-27500D01*
G01D02*
Y-105000D01*
X372500D01*
X67100Y264000D03*
Y256000D03*
X67500Y92500D03*
X75500Y122500D03*
X74000Y126500D03*
X73000Y249000D03*
X71000Y259500D03*
Y263000D03*
Y256000D03*
Y266500D03*
X80500Y126500D03*
X84000D03*
X98500Y140000D03*
X100500Y152500D03*
Y156500D03*
X104000Y152500D03*
Y149000D03*
Y156500D03*
G54D28*
G01X-27500Y-185000D02*
X372500D01*
G01X-27500Y-155000D02*
Y-135000D01*
X372500D01*
G01X-13250Y34989D02*
X-8898Y37791D01*
G01X-13250Y40593D02*
X-8898Y37791D01*
G01X-13250Y70422D02*
X-8898Y73224D01*
G01X-8545Y-8545D02*
X0Y0D01*
G01X-8545Y8545D02*
X0Y0D01*
G01X-8898Y37791D02*
X-4546Y34989D01*
G01X-8898Y37791D02*
X-4546Y40593D01*
G01X-8898Y73224D02*
X-4546Y70422D01*
G01X-8567Y342539D02*
X-5961Y339933D01*
G01X-11173Y345145D02*
X-8567Y342539D01*
G01D02*
X-5961Y345145D01*
G01X-11173Y339933D02*
X-8567Y342539D01*
G01X-8545Y353660D02*
X0Y362205D01*
G01X-8545Y370750D02*
X0Y362205D01*
G01Y0D02*
X8545Y-8545D01*
G01X0Y0D02*
X8545Y8545D01*
G01X9237Y34989D02*
X13189Y37791D01*
G01X8126Y342539D02*
X10732Y339933D01*
G01X5520Y345145D02*
X8126Y342539D01*
G01D02*
X10732Y345145D01*
G01X5520Y339933D02*
X8126Y342539D01*
G01X0Y362205D02*
X8545Y353660D01*
G01X0Y362205D02*
X8545Y370750D01*
G01X18071Y4831D02*
Y12133D01*
G01D02*
X22123D01*
G01X14019D02*
X18071D01*
G01D02*
Y19435D01*
G01X13189Y37791D02*
X17141Y34989D01*
G01X13189Y37791D02*
X17141Y40593D01*
G01X13189Y70422D02*
Y73224D01*
G01D02*
X17141Y70422D01*
G01X20535Y372000D02*
X25337Y368898D01*
G01X15733Y375102D02*
X20535Y372000D01*
G01X15733Y368898D02*
X20535Y372000D01*
G01X22500Y-205000D02*
Y-185000D01*
G01X23874Y342539D02*
X26480Y339933D01*
G01X21268Y345145D02*
X23874Y342539D01*
G01D02*
X26480Y345145D01*
G01X21268Y339933D02*
X23874Y342539D01*
G01X31866D02*
X34472Y339933D01*
G01X29260Y345145D02*
X31866Y342539D01*
G01D02*
X34472Y345145D01*
G01X29260Y339933D02*
X31866Y342539D01*
G01X37465Y372000D02*
X42267Y368898D01*
G01X37465Y372000D02*
X42267Y375102D01*
G01X32663Y368898D02*
X37465Y372000D01*
G01X148000Y-205000D02*
Y-185000D01*
G01X147500Y-135000D02*
Y-105000D01*
G01X165043Y1508D02*
X167931Y-1380D01*
G01X162155Y4396D02*
X165043Y1508D01*
G01D02*
X167931Y4396D01*
G01X162155Y-1380D02*
X165043Y1508D01*
G01X166288Y57212D02*
X169000Y54500D01*
G01X166288Y51788D02*
X169000Y54500D01*
G01D02*
X171712Y51788D01*
G01X169000Y54500D02*
X171712Y57212D01*
G01X197500Y-205000D02*
Y-185000D01*
G01X243957Y-5307D02*
X247709Y-10609D01*
G01X240205D02*
X243957Y-5307D01*
G01X240205Y-5D02*
X243957Y-5307D01*
G01D02*
X247709Y-5D01*
G01X243957Y18315D02*
X247709Y12213D01*
G01X240205D02*
X243957Y18315D01*
G01X240205Y24417D02*
X243957Y18315D01*
G01D02*
X247709Y24417D01*
G01X289455Y356455D02*
X298000Y365000D01*
G01X289455Y373545D02*
X298000Y365000D01*
G01X301043Y-5307D02*
X304795Y-10609D01*
G01X297291D02*
X301043Y-5307D01*
G01X297291Y-5D02*
X301043Y-5307D01*
G01D02*
X304795Y-5D01*
G01X301043Y18315D02*
X304795Y12213D01*
G01X297291D02*
X301043Y18315D01*
G01X297291Y24417D02*
X301043Y18315D01*
G01D02*
X304795Y24417D01*
G01X298000Y365000D02*
X306545Y356455D01*
G01X298000Y365000D02*
X306545Y373545D01*
G01X309606Y274521D02*
X319000Y283915D01*
G01X309606Y293309D02*
X319000Y283915D01*
G01X309733Y375102D02*
X314535Y372000D01*
G01X309733Y368898D02*
X314535Y372000D01*
G01X321469Y-2048D02*
X324421Y-7000D01*
G01D02*
X327373Y-2048D01*
G01X319000Y283915D02*
X328394Y274521D01*
G01X319000Y283915D02*
X328394Y293309D01*
G01X314535Y372000D02*
X319337Y368898D01*
G01X331465Y372000D02*
X336267Y368898D01*
G01X331465Y372000D02*
X336267Y375102D01*
G01X326663Y368898D02*
X331465Y372000D01*
G01X341548Y-2048D02*
X344500Y-7000D01*
G01D02*
X347452Y-2048D01*
G01X337374Y124874D02*
X345000Y132500D01*
G01D02*
X352626Y124874D01*
G01X337374Y140126D02*
X345000Y132500D01*
G01D02*
X352626Y140126D01*
G01X353660Y-8545D02*
X362205Y0D01*
G01X353660Y8545D02*
X362205Y0D01*
G01D02*
X370750Y-8545D01*
G01X362205Y0D02*
X370750Y8545D01*
G01X367098Y113454D02*
X371500Y110402D01*
G01X367098Y107350D02*
X371500Y110402D01*
G01X367098Y138650D02*
X371500Y135598D01*
G01X367098Y132546D02*
X371500Y135598D01*
G01Y110402D02*
X375902Y107350D01*
G01X371500Y110402D02*
X375902Y113454D01*
G01X371500Y135598D02*
X375902Y132546D01*
G01X371500Y135598D02*
X375902Y138650D01*
G54D19*
X146000Y308000D03*
X143908Y313962D03*
X155600Y193500D03*
X148131Y216867D03*
X150690D03*
X155808Y252692D03*
X148130D03*
X150690D03*
X153249Y255251D03*
X155808D03*
X153249Y260370D03*
Y257810D03*
X153000Y302500D03*
X156787Y309123D03*
Y315331D03*
X151669Y312473D03*
X156787Y312273D03*
X149110Y318572D03*
X160926Y214308D03*
X163485D03*
Y216867D03*
X166044Y239897D03*
X168603Y239797D03*
X158367Y257810D03*
Y255251D03*
X160926D03*
X163485D03*
X159346Y309123D03*
Y305973D03*
Y315422D03*
X178838Y209190D03*
X176279D03*
X178838Y206630D03*
Y211749D03*
X176279Y224543D03*
Y227103D03*
X178838D03*
X176279Y229662D03*
Y234780D03*
X178838Y239897D03*
X176279Y237338D03*
X171162Y239897D03*
X176279D03*
X186515Y221985D03*
X183956D03*
X186515Y229662D03*
X183956Y227103D03*
X186515Y224544D03*
Y227103D03*
X183956Y224544D03*
Y229662D03*
Y239897D03*
X181397D03*
X189074Y255251D03*
X186515D03*
X190054Y309123D03*
Y315422D03*
X199310Y252692D03*
X201870D03*
X194192D03*
X191633Y255251D03*
X199310D03*
X196751Y260370D03*
X194192Y255251D03*
X196751Y257810D03*
X191633D03*
X197731Y302823D03*
X192613Y309123D03*
Y305973D03*
X197731Y318572D03*
X192613Y315422D03*
X197731Y312473D03*
X192613Y312273D03*
X203300Y308000D03*
X205500Y313970D03*
X223000Y217500D03*
G54D29*
G01X140219Y253981D02*
X146119D01*
X147408Y252692D01*
G01X142000Y251413D02*
X148500D01*
G01X154000Y253970D02*
X147530D01*
X146850Y254650D01*
Y255850D01*
X146179Y256521D01*
X141479D01*
G01X146841Y258337D02*
Y257158D01*
X147469Y256530D01*
X148669D01*
X149948Y255251D01*
G01X149400Y258601D02*
Y257200D01*
X150069Y256531D01*
X154000D01*
G01X157090Y256528D02*
Y258610D01*
G01X156600Y259100D02*
X155200D01*
X154530Y259770D01*
Y263600D01*
G01X153249Y260370D02*
X152551Y259672D01*
X152171D01*
X151473Y260370D01*
X150974D01*
X150678Y260666D01*
Y261224D01*
X151305Y261851D01*
Y263195D01*
X150348Y264152D01*
X146692D01*
X146200Y264644D01*
Y267799D01*
X145099Y268900D01*
X141000D01*
X138143Y271757D01*
X136350D01*
X135599Y272508D01*
Y273144D01*
X136149Y273694D01*
X138494D01*
X139500Y274700D01*
Y276388D01*
X138494Y277394D01*
X135950D01*
X135450Y277894D01*
Y278694D01*
X135950Y279194D01*
X138494D01*
X139500Y280200D01*
Y281888D01*
X138494Y282894D01*
X136450D01*
X136000Y283344D01*
Y291500D01*
X138000Y293500D01*
Y302156D01*
X141344Y305500D01*
X143494D01*
X144500Y306506D01*
Y308999D01*
X145438Y309937D01*
X146956D01*
X147406Y309487D01*
Y308795D01*
X148413Y307788D01*
X150149D01*
X151156Y308795D01*
Y309599D01*
X151607Y310050D01*
X153051D01*
X153551Y310550D01*
X154894D01*
X155494Y311150D01*
X156060D01*
X157000Y310210D01*
Y309336D01*
X156787Y309123D01*
G01X153249Y257810D02*
X152689D01*
X151079Y259420D01*
X150580D01*
X149728Y260272D01*
Y261618D01*
X150355Y262245D01*
Y262801D01*
X149954Y263202D01*
X146298D01*
X145250Y264250D01*
Y267405D01*
X144705Y267950D01*
X140606D01*
X137749Y270807D01*
X135956D01*
X134649Y272114D01*
Y273538D01*
X135755Y274644D01*
X138100D01*
X138550Y275094D01*
Y275994D01*
X138100Y276444D01*
X135556D01*
X134500Y277500D01*
Y279088D01*
X135556Y280144D01*
X138100D01*
X138550Y280594D01*
Y281494D01*
X138100Y281944D01*
X136056D01*
X135050Y282950D01*
Y291894D01*
X137050Y293894D01*
Y302550D01*
X140950Y306450D01*
X143100D01*
X143550Y306900D01*
Y309393D01*
X145044Y310887D01*
X147350D01*
X148356Y309881D01*
Y309189D01*
X148807Y308738D01*
X149755D01*
X150206Y309189D01*
Y309993D01*
X151213Y311000D01*
X152657D01*
X153157Y311500D01*
X154500D01*
X155100Y312100D01*
X156614D01*
X156787Y312273D01*
G01X150385Y288808D02*
Y286500D01*
G01X159641Y259000D02*
Y257000D01*
G01X162200D02*
Y259000D01*
G01X191324Y307853D02*
Y305111D01*
G01X199020Y304100D02*
Y301120D01*
G01X199003Y294997D02*
Y293186D01*
G01Y287933D02*
Y282490D01*
G01X187795Y264000D02*
Y256530D01*
G01X185241Y256525D02*
Y264000D01*
G01X191340Y295160D02*
Y301040D01*
G01X200589Y251413D02*
X202387D01*
X203400Y250400D01*
G01X208318Y255878D02*
Y254618D01*
G01X207670Y253970D02*
X195470D01*
G01X192913Y261500D02*
Y257000D01*
G01X200050Y255251D02*
X201329Y256530D01*
X207630D01*
G01X196751Y260370D02*
Y259746D01*
X197047Y259450D01*
X197705D01*
X199705Y261450D01*
X202606D01*
X204050Y262894D01*
Y265794D01*
X207106Y268850D01*
X209506D01*
X212000Y271344D01*
Y277157D01*
X210566Y278591D01*
X209506D01*
X208500Y279597D01*
Y281285D01*
X209506Y282291D01*
X211550D01*
X212000Y282741D01*
Y283641D01*
X211550Y284091D01*
X209006D01*
X208000Y285097D01*
Y286785D01*
X209006Y287791D01*
X211550D01*
X212000Y288241D01*
Y289141D01*
X211550Y289591D01*
X209006D01*
X208000Y290597D01*
Y292285D01*
X209006Y293291D01*
X211550D01*
X212000Y293741D01*
Y294550D01*
X211550Y295000D01*
X209056D01*
X208050Y296006D01*
Y297841D01*
X209056Y298847D01*
X210650D01*
X211050Y299247D01*
Y300247D01*
X210650Y300647D01*
X209556D01*
X208550Y301653D01*
Y305452D01*
X204282Y309720D01*
X200849D01*
X200289Y309160D01*
X199211D01*
X198651Y309720D01*
X197349D01*
X196799Y309170D01*
X195757D01*
X195207Y309720D01*
X194435D01*
X193655Y310500D01*
X193062D01*
X192613Y310049D01*
Y309123D01*
G01X200600Y258600D02*
Y257304D01*
X199827Y256531D01*
X196000D01*
G01X196751Y257810D02*
X197441Y258500D01*
X198099D01*
X200099Y260500D01*
X203000D01*
X205000Y262500D01*
Y265400D01*
X207500Y267900D01*
X209900D01*
X212950Y270950D01*
Y277551D01*
X210960Y279541D01*
X209900D01*
X209450Y279991D01*
Y280891D01*
X209900Y281341D01*
X211944D01*
X212950Y282347D01*
Y284035D01*
X211944Y285041D01*
X209400D01*
X208950Y285491D01*
Y286391D01*
X209400Y286841D01*
X211944D01*
X212950Y287847D01*
Y289535D01*
X211944Y290541D01*
X209400D01*
X208950Y290991D01*
Y291891D01*
X209400Y292341D01*
X211944D01*
X212950Y293347D01*
Y294944D01*
X211944Y295950D01*
X209450D01*
X209000Y296400D01*
Y297447D01*
X209450Y297897D01*
X211044D01*
X212000Y298853D01*
Y300641D01*
X211044Y301597D01*
X209950D01*
X209500Y302047D01*
Y305846D01*
X204676Y310670D01*
X194829D01*
X194049Y311450D01*
X193084D01*
X192613Y311921D01*
Y312273D01*
G01X201870Y252692D02*
X202592D01*
X203862Y251422D01*
X207722D01*
M02*
