G04 ================== begin FILE IDENTIFICATION RECORD ==================*
G04 Layout Name:  C:/WORK/2018project/imx8m-revC/FabOutput/LAY-38820_A.brd*
G04 Film Name:    PSP.art*
G04 File Format:  Gerber RS274X*
G04 File Origin:  Cadence Allegro 17.2-S037*
G04 Origin Date:  Thu Sep 06 15:25:28 2018*
G04 *
G04 Layer:  BOARD GEOMETRY/PASTEMASK_TOP*
G04 Layer:  PACKAGE GEOMETRY/PASTEMASK_TOP*
G04 Layer:  DRAWING FORMAT/FILM_TITLE_BLOCK*
G04 Layer:  PIN/PASTEMASK_TOP*
G04 Layer:  BOARD GEOMETRY/OUTLINE*
G04 *
G04 Offset:    (0.00 0.00)*
G04 Mirror:    No*
G04 Mode:      Positive*
G04 Rotation:  0*
G04 FullContactRelief:  No*
G04 UndefLineWidth:     7.00*
G04 ================== end FILE IDENTIFICATION RECORD ====================*
%FSLAX55Y55*MOIN*%
%IR0*IPPOS*OFA0.00000B0.00000*MIA0B0*SFA1.00000B1.00000*%
%ADD88R,.012X.106*%
%ADD74R,.112X.07*%
%ADD85R,.119X.04*%
%ADD50C,.01*%
%ADD79C,.011*%
%ADD122R,.15X.039*%
%ADD76C,.013*%
%ADD66R,.008X.032*%
%ADD115R,.039X.15*%
%ADD69R,.146X.044*%
%ADD67R,.032X.008*%
%ADD61R,.008X.032*%
%AMMACRO56*
4,1,12,.01772,-.00492,
.01772,.00492,
-.00197,.00492,
-.00197,.01476,
.01772,.01476,
.01772,.02461,
-.01772,.02461,
-.01772,-.02461,
.01772,-.02461,
.01772,-.01476,
-.00197,-.01476,
-.00197,-.00492,
.01772,-.00492,
0.0*
%
%ADD56MACRO56*%
%ADD107R,.008X.026*%
%ADD82O,.008X.038*%
%ADD28C,.025*%
%ADD105R,.026X.008*%
%ADD81O,.038X.008*%
%ADD64R,.02X.02*%
%ADD59R,.012X.012*%
%ADD60R,.047X.008*%
%ADD39R,.079X.135*%
%ADD51R,.08X.08*%
%ADD121R,.075X.075*%
%ADD13R,.048X.048*%
%ADD98R,.03937X.03937*%
%AMMACRO35*
4,1,40,-.00595,-.004,
.00595,-.004,
.005959,-.003999,
.005967,-.003997,
.005975,-.003993,
.005982,-.003988,
.005988,-.003982,
.005993,-.003975,
.005997,-.003967,
.005999,-.003959,
.006,-.00395,
.006,.00395,
.005999,.003959,
.005997,.003967,
.005993,.003975,
.005988,.003982,
.005982,.003988,
.005975,.003993,
.005967,.003997,
.005959,.003999,
.00595,.004,
-.00595,.004,
-.005959,.003999,
-.005967,.003997,
-.005975,.003993,
-.005982,.003988,
-.005988,.003982,
-.005993,.003975,
-.005997,.003967,
-.005999,.003959,
-.006,.00395,
-.006,-.00395,
-.005999,-.003959,
-.005997,-.003967,
-.005993,-.003975,
-.005988,-.003982,
-.005982,-.003988,
-.005975,-.003993,
-.005967,-.003997,
-.005959,-.003999,
-.00595,-.004,
0.0*
%
%ADD35MACRO35*%
%AMMACRO62*
4,1,5,-.016,.004,
.012,.004,
.016,0.0,
.016,-.004,
-.016,-.004,
-.016,.004,
0.0*
%
%ADD62MACRO62*%
%ADD101O,.032X.011*%
%ADD100O,.011X.032*%
%ADD29O,.011X.033*%
%ADD23O,.033X.011*%
%ADD96R,.024X.01*%
%ADD110R,.05X.03*%
%ADD99R,.01X.024*%
%ADD46R,.01X.016*%
%ADD30R,.011X.033*%
%ADD90R,.015X.03*%
%ADD43R,.014X.022*%
%ADD24R,.033X.011*%
%ADD118R,.042X.04*%
%ADD108R,.06X.012*%
%ADD57R,.022X.014*%
%ADD47R,.036X.01*%
%ADD114R,.04X.042*%
%AMMACRO72*
21,1,.018,.02,0.0,0.0,45.*%
%ADD72MACRO72*%
%ADD63R,.032X.024*%
%ADD38R,.01X.028*%
%ADD21R,.02X.018*%
%ADD15R,.024X.032*%
%ADD116R,.053X.013*%
%ADD106R,.026X.012*%
%ADD103R,.011X.028*%
%ADD89R,.032X.024*%
%ADD48R,.01X.028*%
%ADD32R,.028X.01*%
%ADD31R,.052X.04*%
%ADD14R,.018X.02*%
%ADD104R,.028X.011*%
%ADD19R,.028X.012*%
%ADD18R,.071X.014*%
%ADD78R,.014X.071*%
%ADD117R,.053X.016*%
%ADD33R,.04X.055*%
%ADD94R,.049X.03*%
%ADD37R,.01X.059*%
%ADD12R,.033X.028*%
%ADD111R,.036X.016*%
%ADD42R,.035X.018*%
%ADD16R,.028X.033*%
%ADD86R,.063X.035*%
%ADD80R,.135X.185*%
%ADD68R,.043X.047*%
%ADD20R,.053X.037*%
%ADD109R,.047X.043*%
%ADD73R,.028X.044*%
%ADD71R,.039X.016*%
%ADD55R,.037X.053*%
%ADD54R,.185X.135*%
%ADD49R,.031X.059*%
%ADD26R,.044X.028*%
%ADD95R,.016X.039*%
%ADD87R,.028X.063*%
%ADD83R,.063X.055*%
%ADD44R,.071X.039*%
%ADD22R,.048X.035*%
%ADD10R,.035X.039*%
%ADD124R,.087X.042*%
%ADD120R,.039X.054*%
%ADD112R,.08X.039*%
%ADD93R,.047X.063*%
%ADD91R,.018X.057*%
%ADD77R,.056X.054*%
%ADD70R,.039X.027*%
%ADD58R,.039X.071*%
%ADD53R,.09X.075*%
%ADD45R,.035X.048*%
%ADD113R,.042X.087*%
%ADD92R,.075X.09*%
%ADD65R,.067X.044*%
%ADD52R,.055X.083*%
%ADD40R,.048X.055*%
%ADD27C,.008*%
%ADD25R,.028X.047*%
%ADD75R,.067X.037*%
%ADD102R,.079X.063*%
%ADD11R,.059X.028*%
%ADD84R,.047X.087*%
%ADD41R,.057X.078*%
%ADD34R,.079X.048*%
%ADD17R,.048X.079*%
%ADD123R,.03543X.04724*%
%ADD119R,.04724X.03543*%
%ADD97R,.02362X.02756*%
%AMMACRO36*
4,1,40,-.004,.00595,
-.004,-.00595,
-.003999,-.005959,
-.003997,-.005967,
-.003993,-.005975,
-.003988,-.005982,
-.003982,-.005988,
-.003975,-.005993,
-.003967,-.005997,
-.003959,-.005999,
-.00395,-.006,
.00395,-.006,
.003959,-.005999,
.003967,-.005997,
.003975,-.005993,
.003982,-.005988,
.003988,-.005982,
.003993,-.005975,
.003997,-.005967,
.003999,-.005959,
.004,-.00595,
.004,.00595,
.003999,.005959,
.003997,.005967,
.003993,.005975,
.003988,.005982,
.003982,.005988,
.003975,.005993,
.003967,.005997,
.003959,.005999,
.00395,.006,
-.00395,.006,
-.003959,.005999,
-.003967,.005997,
-.003975,.005993,
-.003982,.005988,
-.003988,.005982,
-.003993,.005975,
-.003997,.005967,
-.003999,.005959,
-.004,.00595,
0.0*
%
%ADD36MACRO36*%
%ADD125C,.02*%
%ADD126C,.007*%
%ADD127C,.006*%
%ADD128C,.0079*%
G75*
%LPD*%
G75*
G36*
G01X37713Y154106D02*
Y146626D01*
X31020D01*
Y154106D01*
X37713D01*
G37*
G36*
G01Y162374D02*
Y154894D01*
X31020D01*
Y162374D01*
X37713D01*
G37*
G36*
G01X45980Y154106D02*
Y146626D01*
X39287D01*
Y154106D01*
X45980D01*
G37*
G36*
G01Y162374D02*
Y154894D01*
X39287D01*
Y162374D01*
X45980D01*
G37*
G36*
G01X50472Y55900D02*
X52500D01*
Y54610D01*
X50472D01*
Y55900D01*
G37*
G36*
G01Y58390D02*
X52500D01*
Y57100D01*
X50472D01*
Y58390D01*
G37*
G36*
G01X53500Y55900D02*
X55528D01*
Y54610D01*
X53500D01*
Y55900D01*
G37*
G36*
G01Y58390D02*
X55528D01*
Y57100D01*
X53500D01*
Y58390D01*
G37*
G36*
G01X63091Y-6453D02*
X67224D01*
Y-8815D01*
X67028D01*
Y-9996D01*
X65650D01*
Y-8815D01*
X64469D01*
Y-9996D01*
X63091D01*
Y-6453D01*
G37*
G36*
G01X57776D02*
X61909D01*
Y-9996D01*
X60531D01*
Y-8815D01*
X59350D01*
Y-9996D01*
X57972D01*
Y-8815D01*
X57776D01*
Y-6453D01*
G37*
G36*
G01X61909Y-1728D02*
X57776D01*
Y-5862D01*
X61909D01*
Y-1728D01*
G37*
G36*
G01X63091D02*
X67224D01*
Y-5862D01*
X63091D01*
Y-1728D01*
G37*
G36*
G01X69213Y360713D02*
Y353626D01*
X63701D01*
Y360713D01*
X69213D01*
G37*
G36*
G01Y362287D02*
Y369374D01*
X63701D01*
Y362287D01*
X69213D01*
G37*
G36*
G01X75747Y26909D02*
Y22776D01*
X73385D01*
Y22972D01*
X72204D01*
Y24350D01*
X73385D01*
Y25531D01*
X72204D01*
Y26909D01*
X75747D01*
G37*
G36*
G01X80472D02*
Y22776D01*
X76338D01*
Y26909D01*
X80472D01*
G37*
G36*
G01X75747Y32224D02*
Y28091D01*
X72204D01*
Y29469D01*
X73385D01*
Y30650D01*
X72204D01*
Y32028D01*
X73385D01*
Y32224D01*
X75747D01*
G37*
G36*
G01X80472Y28091D02*
Y32224D01*
X76338D01*
Y28091D01*
X80472D01*
G37*
G36*
G01X70787Y360713D02*
Y353626D01*
X76299D01*
Y360713D01*
X70787D01*
G37*
G36*
G01Y362287D02*
Y369374D01*
X76299D01*
Y362287D01*
X70787D01*
G37*
G36*
G01X87776Y-6453D02*
X91909D01*
Y-9996D01*
X90531D01*
Y-8815D01*
X89350D01*
Y-9996D01*
X87972D01*
Y-8815D01*
X87776D01*
Y-6453D01*
G37*
G36*
G01X91909Y-1728D02*
X87776D01*
Y-5862D01*
X91909D01*
Y-1728D01*
G37*
G36*
G01X93091Y-6453D02*
X97224D01*
Y-8815D01*
X97028D01*
Y-9996D01*
X95650D01*
Y-8815D01*
X94469D01*
Y-9996D01*
X93091D01*
Y-6453D01*
G37*
G36*
G01Y-1728D02*
X97224D01*
Y-5862D01*
X93091D01*
Y-1728D01*
G37*
G36*
G01X94091Y9047D02*
X98224D01*
Y6685D01*
X98028D01*
Y5504D01*
X96650D01*
Y6685D01*
X95469D01*
Y5504D01*
X94091D01*
Y9047D01*
G37*
G36*
G01X88776D02*
X92909D01*
Y5504D01*
X91531D01*
Y6685D01*
X90350D01*
Y5504D01*
X88972D01*
Y6685D01*
X88776D01*
Y9047D01*
G37*
G36*
G01X92909Y13772D02*
X88776D01*
Y9638D01*
X92909D01*
Y13772D01*
G37*
G36*
G01X94091D02*
X98224D01*
Y9638D01*
X94091D01*
Y13772D01*
G37*
G36*
G01X107150Y92350D02*
Y94100D01*
X105400D01*
Y92350D01*
X107150D01*
G37*
G36*
G01X107850D02*
Y94100D01*
X109600D01*
Y92350D01*
X107850D01*
G37*
G36*
G01Y91650D02*
Y89900D01*
X109600D01*
Y91650D01*
X107850D01*
G37*
G36*
G01X107150D02*
Y89900D01*
X105400D01*
Y91650D01*
X107150D01*
G37*
G36*
G01X188500Y94500D02*
Y101476D01*
X181559D01*
Y94500D01*
X188500D01*
G37*
G36*
G01Y86520D02*
Y93500D01*
X181528D01*
Y86520D01*
X188500D01*
G37*
G36*
G01X196496Y94500D02*
Y101465D01*
X189500D01*
Y94500D01*
X196496D01*
G37*
G36*
G01Y86508D02*
Y93500D01*
X189500D01*
Y86508D01*
X196496D01*
G37*
G36*
G01X324421Y-11150D02*
G03X326571Y-9000I0J2150D01*
G01Y-5000D01*
G03X324421Y-2850I-2150J0D01*
G03X322271Y-5000I0J-2150D01*
G01Y-9000D01*
G03X324421Y-11150I2150J0D01*
G37*
G36*
G01X328195Y116195D02*
X324305D01*
Y112305D01*
X328195D01*
Y116195D01*
G37*
G36*
G01Y110695D02*
X324305D01*
Y106805D01*
X328195D01*
Y110695D01*
G37*
G36*
G01X321500Y187500D02*
Y184451D01*
X324539D01*
Y187500D01*
X321500D01*
G37*
G36*
G01Y182549D02*
Y179500D01*
X324539D01*
Y182549D01*
X321500D01*
G37*
G36*
G01X323000Y261500D02*
X319951D01*
Y258461D01*
X323000D01*
Y261500D01*
G37*
G36*
G01Y256539D02*
X319951D01*
Y253500D01*
X323000D01*
Y256539D01*
G37*
G36*
G01X318049Y261500D02*
X315000D01*
Y258461D01*
X318049D01*
Y261500D01*
G37*
G36*
G01Y256539D02*
X315000D01*
Y253500D01*
X318049D01*
Y256539D01*
G37*
G36*
G01X333695Y116195D02*
X329805D01*
Y112305D01*
X333695D01*
Y116195D01*
G37*
G36*
G01Y110695D02*
X329805D01*
Y106805D01*
X333695D01*
Y110695D01*
G37*
G36*
G01X326461Y187500D02*
Y184451D01*
X329500D01*
Y187500D01*
X326461D01*
G37*
G36*
G01Y182549D02*
Y179500D01*
X329500D01*
Y182549D01*
X326461D01*
G37*
G36*
G01X344500Y-11150D02*
G03X346650Y-9000I0J2150D01*
G01Y-5000D01*
G03X344500Y-2850I-2150J0D01*
G03X342350Y-5000I0J-2150D01*
G01Y-9000D01*
G03X344500Y-11150I2150J0D01*
G37*
G54D100*
X314079Y250177D03*
Y264823D03*
X324516Y176177D03*
X322547D03*
X320579D03*
Y190823D03*
X322547D03*
X324516D03*
X323921Y250177D03*
X321953D03*
X319984D03*
X318016D03*
X316047D03*
Y264823D03*
X318016D03*
X319984D03*
X321953D03*
X323921D03*
X330421Y176177D03*
X328453D03*
X326484D03*
Y190823D03*
X328453D03*
X330421D03*
G54D110*
X341400Y76000D03*
Y81000D03*
X365600D03*
Y76000D03*
G54D101*
X311677Y252579D03*
Y254547D03*
Y256516D03*
Y258484D03*
Y260453D03*
Y262421D03*
X318177Y178579D03*
Y180547D03*
Y182516D03*
Y184484D03*
Y186453D03*
Y188421D03*
X326323Y252579D03*
Y262421D03*
Y260453D03*
Y258484D03*
Y256516D03*
Y254547D03*
X332823Y186453D03*
Y184484D03*
Y182516D03*
Y180547D03*
Y178579D03*
Y188421D03*
G54D102*
X320484Y17803D03*
Y30008D03*
X347256Y17803D03*
Y30008D03*
G54D120*
X361657Y110402D03*
Y135598D03*
G54D111*
X345154Y109925D03*
Y113075D03*
X351846D03*
Y109925D03*
G54D112*
X351000Y232500D03*
Y242500D03*
Y252500D03*
Y262500D03*
Y272500D03*
X372000Y232500D03*
Y242500D03*
Y252500D03*
Y262500D03*
Y272500D03*
G54D10*
X-11831Y121130D03*
Y149870D03*
X-3169Y121130D03*
Y149870D03*
G54D103*
X326047Y103626D03*
X324079D03*
Y119374D03*
X326047D03*
X333921Y103626D03*
X331953D03*
X329984D03*
X328016D03*
Y119374D03*
X329984D03*
X331953D03*
X333921D03*
G54D121*
X371500Y118276D03*
Y127724D03*
G54D11*
X-610Y126642D03*
Y132547D03*
Y144358D03*
G54D113*
X340690Y292000D03*
X352310D03*
G54D20*
X22000Y92429D03*
Y98571D03*
X27500Y71929D03*
Y78071D03*
X90500Y127071D03*
Y120929D03*
G54D104*
X321126Y106579D03*
Y108547D03*
Y110516D03*
Y112484D03*
Y114453D03*
Y116421D03*
X336874Y106579D03*
Y116421D03*
Y114453D03*
Y112484D03*
Y110516D03*
Y108547D03*
G54D122*
X367500Y307067D03*
Y327933D03*
G54D123*
X361201Y314726D03*
G54D12*
X-1500Y170559D03*
Y165441D03*
X-7000Y170559D03*
Y165441D03*
X44000Y72059D03*
Y66941D03*
X43500Y107941D03*
Y103559D03*
Y98441D03*
Y113059D03*
X68500Y78941D03*
Y84059D03*
X78000Y133941D03*
Y139059D03*
X73000Y171441D03*
X78500D03*
X73000Y176559D03*
X78500D03*
X83500Y133941D03*
Y139059D03*
X84000Y171441D03*
Y176559D03*
X134000Y117441D03*
Y122559D03*
X178500Y331059D03*
Y325941D03*
X229500Y72059D03*
Y66941D03*
Y82059D03*
Y76941D03*
X312500Y101441D03*
Y106559D03*
X305500Y192941D03*
Y198059D03*
X306000Y243441D03*
Y248559D03*
X322000Y38441D03*
Y43559D03*
X327500Y38441D03*
Y43559D03*
X370500Y34441D03*
Y39559D03*
X370800Y56941D03*
Y62059D03*
G54D21*
X17000Y112024D03*
Y114976D03*
X21000D03*
Y112024D03*
X14000Y129524D03*
Y132476D03*
X33000Y35976D03*
Y33024D03*
X37000D03*
Y35976D03*
X43000Y31424D03*
Y34376D03*
X45000Y44976D03*
Y42024D03*
X41000D03*
Y44976D03*
X38500Y102976D03*
Y100024D03*
X35000Y125976D03*
Y123024D03*
X44000Y351024D03*
Y353976D03*
X47000Y34376D03*
Y31424D03*
X49190Y45174D03*
Y48126D03*
X53190Y45174D03*
Y48126D03*
X53000Y68524D03*
Y71476D03*
X49000D03*
Y68524D03*
X48500Y111024D03*
Y113976D03*
X55000Y128524D03*
Y131476D03*
X48000Y351024D03*
Y353976D03*
X61000Y44976D03*
Y42024D03*
X57000D03*
Y44976D03*
Y68524D03*
Y71476D03*
X61000D03*
Y68524D03*
X63000Y80524D03*
Y83476D03*
X59000Y128524D03*
X67000D03*
X63000D03*
X62000Y138976D03*
Y136024D03*
X59000Y131476D03*
X67000D03*
X63000D03*
X62000Y142524D03*
Y145476D03*
X72500Y66024D03*
Y68976D03*
X78000Y264524D03*
Y267476D03*
X90000Y28524D03*
Y31476D03*
X95000Y89524D03*
Y92476D03*
X98000Y106476D03*
Y103524D03*
X94000Y106476D03*
Y103524D03*
X92000Y112024D03*
Y114976D03*
X96500Y133976D03*
Y131024D03*
X100500Y133976D03*
Y131024D03*
X93000Y355976D03*
Y353024D03*
X106000Y103524D03*
Y106476D03*
X102000Y103524D03*
Y106476D03*
X104500Y133976D03*
Y131024D03*
X108500D03*
Y133976D03*
X112000Y337976D03*
Y335024D03*
X111500Y352524D03*
Y355476D03*
X107500D03*
Y352524D03*
X123500Y207024D03*
Y209976D03*
X121500Y250976D03*
Y248024D03*
X117000Y253476D03*
Y250524D03*
Y244524D03*
Y247476D03*
X121500Y264976D03*
Y262024D03*
X117000Y265124D03*
Y259124D03*
Y262076D03*
Y268076D03*
Y362476D03*
Y359524D03*
Y366024D03*
Y368976D03*
X127000Y207024D03*
Y209976D03*
X144000Y72524D03*
Y75476D03*
X137000Y297524D03*
Y300476D03*
Y316524D03*
Y319476D03*
Y328976D03*
Y326024D03*
X148000Y72524D03*
Y75476D03*
X155500Y328476D03*
Y325524D03*
X165000Y71024D03*
Y73976D03*
Y80024D03*
Y82976D03*
X179000Y73476D03*
Y70524D03*
X170500Y117976D03*
Y115024D03*
X174500Y117976D03*
Y115024D03*
X178500Y117976D03*
Y115024D03*
X175500Y191024D03*
Y193976D03*
X179500Y191024D03*
Y193976D03*
X183000Y73476D03*
Y70524D03*
X187000D03*
Y73476D03*
X191000Y70524D03*
Y73476D03*
X187000Y117476D03*
Y114524D03*
X187500Y191024D03*
Y193976D03*
X183500Y191024D03*
Y193976D03*
X195000Y73476D03*
Y70524D03*
X199000Y73476D03*
Y70524D03*
X201500Y113976D03*
Y111024D03*
X193000Y328476D03*
Y325524D03*
X213500Y68024D03*
Y70976D03*
X203000Y73476D03*
Y70524D03*
X213500Y102976D03*
Y100024D03*
X209500Y111024D03*
Y113976D03*
X213500D03*
Y111024D03*
X205500D03*
Y113976D03*
X224500Y70476D03*
Y67524D03*
X220000Y93524D03*
Y96476D03*
X221500Y102976D03*
Y100024D03*
X217500D03*
Y102976D03*
X224000Y118476D03*
Y115524D03*
Y109024D03*
Y111976D03*
X223000Y235024D03*
Y237976D03*
Y241024D03*
Y243976D03*
X226000Y307024D03*
Y309976D03*
X231500Y309024D03*
X236000D03*
X231500Y311976D03*
X236000D03*
X245000Y309024D03*
X240500D03*
X245000Y311976D03*
X240500D03*
X255000Y95524D03*
Y103524D03*
Y106476D03*
Y98476D03*
X258500Y281476D03*
Y278524D03*
Y285024D03*
Y287976D03*
X249500Y309024D03*
X253000Y304024D03*
Y306976D03*
X257500Y301024D03*
Y303976D03*
Y309024D03*
X249500Y311976D03*
X257500D03*
X259000Y95524D03*
X263000D03*
X267000D03*
Y103524D03*
Y106476D03*
X263000Y103524D03*
Y106476D03*
X259000Y103524D03*
Y106476D03*
Y98476D03*
X263000D03*
X267000D03*
X262500Y287976D03*
Y285024D03*
X268000Y290024D03*
Y292976D03*
X262000Y301024D03*
Y303976D03*
Y309024D03*
Y311976D03*
X279000Y70024D03*
Y72976D03*
X271000Y95524D03*
X275000D03*
X279000D03*
Y103524D03*
Y106476D03*
X275000Y103524D03*
Y106476D03*
X271000Y103524D03*
Y106476D03*
Y98476D03*
X275000D03*
X279000D03*
X283000Y95524D03*
Y103524D03*
Y106476D03*
X289000Y103524D03*
Y106476D03*
X283000Y98476D03*
X291500Y303524D03*
Y306476D03*
X293000Y95524D03*
X297000D03*
X301000D03*
Y103524D03*
Y106476D03*
X297000Y103524D03*
Y106476D03*
X293000Y103524D03*
Y106476D03*
Y98476D03*
X297000D03*
X301000D03*
X304000Y169476D03*
Y166524D03*
X294000Y261524D03*
Y264476D03*
Y270476D03*
Y267524D03*
X303000Y286524D03*
X295000D03*
X299000D03*
X297500Y299476D03*
Y296524D03*
X301500Y299476D03*
Y296524D03*
X303000Y289476D03*
X295000D03*
X299000D03*
X309000Y148524D03*
Y151476D03*
X310000Y195476D03*
Y192524D03*
X313700Y195476D03*
Y192524D03*
X305500Y299476D03*
Y296524D03*
X309500Y299476D03*
Y296524D03*
X326500Y52024D03*
Y54976D03*
X325000Y94024D03*
Y96976D03*
X317000Y129476D03*
Y126524D03*
X325000Y129524D03*
Y132476D03*
X322000Y239476D03*
Y236524D03*
X326000Y239476D03*
Y236524D03*
X323500Y305976D03*
Y303024D03*
X332500Y94024D03*
Y96976D03*
X329000Y126524D03*
Y129476D03*
X327000Y152224D03*
X331000D03*
X327000Y155176D03*
X331000D03*
X336000Y237524D03*
Y240476D03*
X331000Y249524D03*
Y252476D03*
X337000Y355976D03*
Y353024D03*
X340500Y187524D03*
Y190476D03*
X340000Y240476D03*
Y237524D03*
X344000Y240476D03*
Y237524D03*
X342000Y271476D03*
Y268524D03*
X338200Y271476D03*
Y268524D03*
X342500Y277524D03*
Y280476D03*
X346500D03*
Y277524D03*
X347500Y307024D03*
Y309976D03*
X338000Y311524D03*
Y314476D03*
X338500Y343976D03*
Y341024D03*
X355000Y144524D03*
Y147476D03*
X359000Y144524D03*
Y147476D03*
X354000Y164024D03*
Y166976D03*
X349900Y317476D03*
Y314524D03*
X354000Y343524D03*
X350500Y343976D03*
Y341024D03*
X354000Y355476D03*
Y352524D03*
Y346476D03*
X370500Y50024D03*
X366600Y53024D03*
Y55976D03*
X370500Y52976D03*
X363000Y144524D03*
Y147476D03*
X367500Y164024D03*
X361000D03*
X367500Y166976D03*
X361000D03*
X369500Y361476D03*
Y358524D03*
G54D114*
X346500Y298000D03*
G54D30*
X27673Y138874D03*
X29642D03*
X31610D03*
X27673Y170126D03*
X29642D03*
X31610D03*
X33579Y138874D03*
X35547D03*
X37516D03*
X39484D03*
X41453D03*
X43421D03*
X33579Y170126D03*
X35547D03*
X37516D03*
X39484D03*
X41453D03*
X43421D03*
X45390Y138874D03*
X47358D03*
X49327D03*
X45390Y170126D03*
X47358D03*
X49327D03*
G54D105*
X321657Y230150D03*
Y223850D03*
Y225425D03*
Y227000D03*
Y228575D03*
X316343Y223850D03*
Y225425D03*
Y227000D03*
Y228575D03*
X337343Y224850D03*
Y226425D03*
Y228000D03*
Y229575D03*
X342657Y231150D03*
Y224850D03*
Y226425D03*
Y228000D03*
Y229575D03*
G54D40*
X47453Y129331D03*
G54D124*
X365500Y337690D03*
Y349310D03*
G54D22*
X20000Y120500D03*
Y127500D03*
X30000Y120500D03*
Y127500D03*
X240000Y269500D03*
X250000D03*
X307000Y136500D03*
X310500Y352500D03*
X317000Y136500D03*
X320500Y352500D03*
X338500Y149000D03*
Y156000D03*
X348500Y149000D03*
Y156000D03*
X346000Y215000D03*
X356000D03*
G54D31*
X29000Y365701D03*
X323000D03*
G54D106*
X316343Y230346D03*
X337343Y231346D03*
G54D13*
X6500Y16488D03*
Y27512D03*
X59600Y23988D03*
Y35012D03*
G54D115*
X340067Y367500D03*
X360933D03*
G54D125*
G01X372500Y-105000D02*
Y-205000D01*
X-27500D01*
G01D02*
Y-105000D01*
X372500D01*
G54D41*
X50333Y284887D03*
Y317564D03*
X104467Y284887D03*
Y317564D03*
G54D14*
X10476Y129500D03*
X7524D03*
X10476Y136500D03*
X7524D03*
X13524Y136200D03*
X16476D03*
X13524Y162500D03*
X16476D03*
X13524Y166500D03*
X16476D03*
Y170500D03*
X13524D03*
X31524Y94000D03*
Y98000D03*
Y102000D03*
Y106000D03*
Y110000D03*
Y115500D03*
X31024Y133500D03*
X38524Y56500D03*
X41476D03*
X38524Y60500D03*
X41476D03*
X34476Y94000D03*
Y98000D03*
Y102000D03*
Y106000D03*
Y110000D03*
Y115500D03*
X33976Y133500D03*
X49476Y77000D03*
X46524D03*
X48024Y107500D03*
X50976D03*
Y103500D03*
X48024D03*
X52976Y223000D03*
X50024D03*
X52976Y227000D03*
X50024D03*
Y231000D03*
X52976D03*
Y235000D03*
X50024D03*
Y240000D03*
X52976D03*
X64524Y43500D03*
Y47000D03*
Y51000D03*
Y55000D03*
Y63000D03*
Y59000D03*
Y67000D03*
Y71000D03*
X61476Y172000D03*
X58524D03*
X61524Y217500D03*
X64476D03*
X77476Y16600D03*
X74524D03*
X67476Y43500D03*
Y47000D03*
Y51000D03*
Y55000D03*
Y63000D03*
Y59000D03*
Y67000D03*
Y71000D03*
X83476Y16600D03*
X80524D03*
X94976Y70500D03*
X92024D03*
X111024Y123500D03*
X111524Y311500D03*
Y315500D03*
Y319500D03*
Y325500D03*
Y329500D03*
X122024Y95000D03*
X113976Y123500D03*
X120476D03*
X117524D03*
X116976Y133000D03*
X114024D03*
Y137000D03*
X116976D03*
Y141000D03*
X114024D03*
Y146000D03*
X116976D03*
X123524Y291500D03*
X114476Y311500D03*
Y315500D03*
Y319500D03*
Y325500D03*
Y329500D03*
X124976Y95000D03*
X125524Y123500D03*
X128476D03*
X129524Y291500D03*
X132476D03*
Y295500D03*
X129524D03*
X126476Y291500D03*
X134524Y338500D03*
X138476Y96500D03*
X135524D03*
X137476Y338500D03*
X139476Y353500D03*
X136524D03*
X139476Y357500D03*
X136524D03*
X153524Y89000D03*
X156476D03*
X153524Y93000D03*
X156476D03*
X146524Y357500D03*
X149476D03*
X162524Y87500D03*
X165476D03*
X162524Y95500D03*
X165476D03*
X162524Y91500D03*
X165476D03*
X162524Y103500D03*
X165476D03*
X162524Y99500D03*
X165476D03*
X162524Y107500D03*
X165476D03*
X177976Y343000D03*
X175024D03*
X177976Y370500D03*
X175024D03*
X190524Y117500D03*
X184524Y343000D03*
X187476D03*
X185976Y370500D03*
X183024D03*
X193476Y117500D03*
X191524Y343000D03*
X194476D03*
X191524Y339000D03*
X194476D03*
X193024Y370500D03*
X195976D03*
X211524Y93500D03*
Y89000D03*
X212476Y118000D03*
X209524D03*
X204024Y345000D03*
X206976D03*
X214476Y93500D03*
Y89000D03*
X219976Y108500D03*
X217024D03*
X219476Y236000D03*
X216524D03*
X226524Y241500D03*
X229476D03*
X226524Y237500D03*
X229476D03*
X240476Y263500D03*
X237524D03*
X258524Y222000D03*
Y230000D03*
Y226000D03*
X251024D03*
X253976D03*
X251024Y230000D03*
X253976D03*
X261476Y222000D03*
Y230000D03*
Y226000D03*
X270024Y230000D03*
X269524Y252500D03*
Y256000D03*
X279024Y84000D03*
Y76500D03*
X271024Y163500D03*
X273976D03*
X271024Y167500D03*
X273976D03*
X276024Y230000D03*
X278976D03*
X272976D03*
X278976Y226000D03*
X276024D03*
X272476Y252500D03*
Y256000D03*
X281024Y319500D03*
Y327500D03*
Y331500D03*
Y323500D03*
Y339500D03*
Y335500D03*
X281976Y84000D03*
Y76500D03*
X291524Y116000D03*
Y120000D03*
X286976Y197500D03*
X284024D03*
X286976Y201500D03*
X284024D03*
X288476Y264000D03*
X285524D03*
X288476Y268000D03*
X285524D03*
Y274000D03*
X288476D03*
X285524Y278000D03*
X288476D03*
X291524Y293000D03*
X283976Y319500D03*
Y327500D03*
Y331500D03*
Y323500D03*
Y339500D03*
Y335500D03*
X302976Y71500D03*
X300024D03*
X302976Y75500D03*
X300024D03*
X302976Y83500D03*
X300024D03*
X302976Y79500D03*
X300024D03*
X294476Y116000D03*
Y120000D03*
X298524Y252000D03*
X301476D03*
X300476Y260000D03*
X297524D03*
Y264000D03*
X300476D03*
X294024Y274000D03*
X296976D03*
X297524Y268000D03*
X300476D03*
X296976Y282000D03*
X294024D03*
Y278000D03*
X296976D03*
X294476Y293000D03*
X310524Y115500D03*
X313476D03*
X310524Y111500D03*
X313476D03*
X310524Y124000D03*
X313476D03*
X310524Y142500D03*
X313476D03*
X311476Y173500D03*
X308524D03*
Y184000D03*
X311476D03*
X308524Y180000D03*
X311476D03*
X307024Y233500D03*
X309976D03*
X307024Y237500D03*
X309976D03*
X324524Y62000D03*
Y58500D03*
X320976Y69000D03*
X318024D03*
X320976Y74000D03*
X318024D03*
X324524Y65500D03*
Y69000D03*
X320976Y79000D03*
X318024D03*
X320976Y84000D03*
X318024D03*
X325976Y138000D03*
X323024D03*
X325976Y142000D03*
X323024D03*
X324524Y149000D03*
X324024Y171000D03*
X321024Y198500D03*
X323976D03*
X321024Y202500D03*
X323976D03*
X318524Y212500D03*
X321476D03*
X318476Y243500D03*
X315524D03*
X327476Y62000D03*
Y58500D03*
Y65500D03*
Y69000D03*
Y149000D03*
X333476D03*
X330524D03*
X337524Y162000D03*
Y166000D03*
X326976Y171000D03*
X337476Y198500D03*
X334524D03*
X328524D03*
X331476D03*
X329024Y229500D03*
X331976D03*
X329024Y233500D03*
X331976D03*
X326524Y243500D03*
X329476D03*
X331524Y270500D03*
X334476D03*
X331524Y274500D03*
X334476D03*
X347024Y97000D03*
Y93000D03*
Y109500D03*
Y113500D03*
X344524Y117000D03*
X347476D03*
X340476Y162000D03*
Y166000D03*
X338024Y173000D03*
X340976D03*
Y180000D03*
X338024D03*
X340976Y261000D03*
X338024D03*
X353476Y81000D03*
X350524D03*
X353476Y76000D03*
X350524D03*
X349976Y97000D03*
Y93000D03*
Y109500D03*
Y113500D03*
X353476Y120500D03*
X350524D03*
X356476Y314500D03*
X353524D03*
X356476Y330500D03*
X353524D03*
X363476Y300500D03*
X360524D03*
G54D32*
X42791Y85047D03*
Y87016D03*
Y88984D03*
Y90953D03*
X54209Y85047D03*
Y90953D03*
Y88984D03*
Y87016D03*
G54D116*
X360969Y117882D03*
Y128118D03*
G54D23*
X22874Y141705D03*
Y167295D03*
X54126Y141705D03*
Y167295D03*
G54D107*
X319000Y230248D03*
Y223752D03*
X340000Y231248D03*
Y224752D03*
G54D50*
G01X-27500Y-185000D02*
X372500D01*
G01X-27500Y-155000D02*
Y-135000D01*
X372500D01*
G01X22500Y-205000D02*
Y-185000D01*
G01X148000Y-205000D02*
Y-185000D01*
G01X147500Y-135000D02*
Y-105000D01*
G01X197500Y-205000D02*
Y-185000D01*
X59705Y309173D03*
X61673D03*
X63642D03*
X65610D03*
X59705Y307205D03*
X61673D03*
X63642D03*
X65610D03*
X59705Y320984D03*
X61673D03*
X63642D03*
X59705Y319016D03*
X61673D03*
X63642D03*
X59705Y317047D03*
X61673D03*
X63642D03*
X59705Y315079D03*
X61673D03*
X63642D03*
X59705Y313110D03*
X61673D03*
X63642D03*
X59705Y311142D03*
X61673D03*
X63642D03*
X65610D03*
X59705Y332795D03*
X61673D03*
X63642D03*
X65610D03*
X59705Y330827D03*
X61673D03*
X63642D03*
X65610D03*
X59705Y328858D03*
X61673D03*
X63642D03*
X65610D03*
X59705Y326890D03*
X61673D03*
X63642D03*
X59705Y324921D03*
X61673D03*
X63642D03*
X59705Y322953D03*
X61673D03*
X63642D03*
X73484Y307205D03*
X69547Y309173D03*
X71516D03*
X73484D03*
X67579D03*
X69547Y307205D03*
X71516D03*
X67579D03*
X75453D03*
Y309173D03*
X77421D03*
Y307205D03*
X67579Y319016D03*
Y317047D03*
Y315079D03*
X69547D03*
X71516D03*
X77421D03*
X69547Y311142D03*
X71516D03*
X73484D03*
X77421D03*
X67579D03*
Y320984D03*
X77421Y319016D03*
X73484Y315079D03*
X75453Y311142D03*
X77421Y317047D03*
X75453Y315079D03*
X77421Y320984D03*
X73484Y324921D03*
X75453D03*
X67579Y332795D03*
Y324921D03*
X69547Y332795D03*
X71516D03*
X73484D03*
X69547Y330827D03*
X71516D03*
X73484D03*
X75453D03*
X67579D03*
X69547Y328858D03*
X71516D03*
X73484D03*
X67579D03*
X75453Y332795D03*
X77421Y330827D03*
X71516Y324921D03*
X77421Y322953D03*
Y332795D03*
X69547Y324921D03*
X67579Y322953D03*
X77421Y324921D03*
Y328858D03*
X75453D03*
X85453Y68953D03*
Y66984D03*
Y65016D03*
Y63047D03*
X83484Y68953D03*
Y66984D03*
Y65016D03*
Y63047D03*
X81516Y68953D03*
Y66984D03*
Y65016D03*
Y63047D03*
X79547Y68953D03*
Y66984D03*
Y65016D03*
Y63047D03*
X85295Y309173D03*
X83327Y307205D03*
X85295D03*
X79390Y309173D03*
X81358D03*
X83327D03*
X79390Y307205D03*
X81358D03*
Y320984D03*
X83327D03*
X85295D03*
X81358Y319016D03*
X83327D03*
X85295D03*
X81358Y317047D03*
X83327D03*
X85295D03*
X81358Y315079D03*
X83327D03*
X85295D03*
X79390Y313110D03*
X81358D03*
X83327D03*
X85295D03*
X81358Y311142D03*
X85295D03*
X79390D03*
X83327D03*
Y332795D03*
X85295D03*
X81358Y330827D03*
X85295D03*
X81358Y328858D03*
X83327D03*
X85295D03*
X81358Y326890D03*
X83327D03*
X85295D03*
X81358Y324921D03*
X83327D03*
X85295D03*
X81358Y322953D03*
X83327D03*
X85295D03*
X79390Y332795D03*
X83327Y330827D03*
X81358Y332795D03*
X79390Y330827D03*
Y328858D03*
G54D126*
G01X-12660Y-15748D02*
X319000D01*
Y-12000D01*
X349000D01*
Y-15748D01*
X373817D01*
G03X377953Y-12243I0J4193D01*
G01Y375500D01*
G03X375000Y377953I-2953J-551D01*
G01X328000D01*
Y375000D01*
X318000D01*
Y377953D01*
X34000D01*
Y375000D01*
X24000D01*
Y377953D01*
X-12500D01*
G03X-15748Y375235I0J-3300D01*
G01Y-12117D01*
G03X-12660Y-15748I3679J0D01*
G54D42*
X54643Y354000D03*
Y359000D03*
Y364000D03*
Y369000D03*
X85357Y354000D03*
Y364000D03*
Y359000D03*
Y369000D03*
G54D33*
X40760Y120669D03*
Y129331D03*
X48240Y120669D03*
X125760Y310830D03*
X133240D03*
X129500Y302170D03*
X269760Y218830D03*
X267760Y284330D03*
X273500Y210170D03*
X277240Y218830D03*
X271500Y275670D03*
X275240Y284330D03*
G54D117*
X360969Y125559D03*
Y123000D03*
Y120441D03*
G54D15*
X7654Y122500D03*
X14346D03*
X355654Y33500D03*
X355154Y95000D03*
X362346Y33500D03*
X361846Y95000D03*
G54D108*
X335000Y49600D03*
Y47040D03*
Y62400D03*
Y59840D03*
Y57280D03*
Y54720D03*
Y52160D03*
Y64960D03*
X359000Y47040D03*
Y49600D03*
Y52160D03*
Y54720D03*
Y57280D03*
Y59840D03*
Y62400D03*
Y64960D03*
G54D24*
X22874Y151547D03*
Y149579D03*
Y147610D03*
Y145642D03*
Y143673D03*
Y163358D03*
Y161390D03*
Y159421D03*
Y157453D03*
Y155484D03*
Y153516D03*
Y165327D03*
X54126Y151547D03*
Y149579D03*
Y147610D03*
Y145642D03*
Y143673D03*
Y163358D03*
Y161390D03*
Y159421D03*
Y157453D03*
Y155484D03*
Y153516D03*
Y165327D03*
G54D51*
X76300Y-6500D03*
Y8500D03*
G54D60*
X98707Y116638D03*
Y119787D03*
X104293Y118213D03*
G54D127*
G01X-24847Y-117000D02*
Y-109500D01*
X-20553Y-117000D01*
Y-109500D01*
G01X-17160Y-117000D02*
X-13240Y-109500D01*
G01X-17160D02*
X-13240Y-117000D01*
G01X-9567D02*
Y-109500D01*
X-7327D01*
X-6580Y-109875D01*
X-6020Y-110750D01*
X-5833Y-111750D01*
X-6020Y-112750D01*
X-6487Y-113500D01*
X-7327Y-113875D01*
X-9567D01*
G01X-21200Y-201700D02*
Y-195400D01*
X-22140Y-196660D01*
G01Y-201700D02*
X-20260D01*
G01X-8600D02*
X-9227Y-201595D01*
X-9775Y-201175D01*
X-10245Y-200545D01*
X-10558Y-199810D01*
X-10715Y-198970D01*
Y-198130D01*
X-10558Y-197290D01*
X-10245Y-196555D01*
X-9775Y-195925D01*
X-9227Y-195505D01*
X-8600Y-195400D01*
X-7973Y-195505D01*
X-7425Y-195925D01*
X-6955Y-196555D01*
X-6642Y-197290D01*
X-6485Y-198130D01*
Y-198970D01*
X-6642Y-199810D01*
X-6955Y-200545D01*
X-7425Y-201175D01*
X-7973Y-201595D01*
X-8600Y-201700D01*
G01X-3788D02*
Y-195400D01*
X-812D01*
G01X-1908Y-198445D02*
X-3788D01*
G01X10300Y-201700D02*
Y-195400D01*
X9360Y-196660D01*
G01Y-201700D02*
X11240D01*
G01X15112Y-199075D02*
X15660Y-198340D01*
X16130Y-197920D01*
X16757Y-197710D01*
X17305Y-197920D01*
X17697Y-198340D01*
X18010Y-198970D01*
X18088Y-199705D01*
X18010Y-200335D01*
X17697Y-200965D01*
X17227Y-201490D01*
X16678Y-201700D01*
X16052Y-201490D01*
X15503Y-200860D01*
X15190Y-199915D01*
X15112Y-198865D01*
X15268Y-197500D01*
X15503Y-196765D01*
X15895Y-196030D01*
X16443Y-195505D01*
X16992Y-195400D01*
X17540Y-195610D01*
X17932Y-196135D01*
G01X25733Y-202100D02*
Y-195800D01*
X27613D01*
X28240Y-196115D01*
X28710Y-196850D01*
X28867Y-197690D01*
X28710Y-198530D01*
X28318Y-199160D01*
X27613Y-199475D01*
X25733D01*
G01X32033Y-202100D02*
Y-195800D01*
X33992D01*
X34618Y-196115D01*
X35010Y-196535D01*
X35167Y-197375D01*
X35010Y-198215D01*
X34540Y-198740D01*
X33992Y-199055D01*
X32033D01*
G01X33992D02*
X35167Y-202100D01*
G01X38960Y-195800D02*
X40840D01*
G01X39900D02*
Y-202100D01*
G01X38960D02*
X40840D01*
G01X44163D02*
Y-195800D01*
X46200Y-201050D01*
X48237Y-195800D01*
Y-202100D01*
G01X50542D02*
X52500Y-195800D01*
X54458Y-202100D01*
G01X53753Y-199895D02*
X51247D01*
G01X57233Y-202100D02*
Y-195800D01*
X59192D01*
X59818Y-196115D01*
X60210Y-196535D01*
X60367Y-197375D01*
X60210Y-198215D01*
X59740Y-198740D01*
X59192Y-199055D01*
X57233D01*
G01X59192D02*
X60367Y-202100D01*
G01X65100D02*
Y-199265D01*
X63533Y-195800D01*
G01X66667D02*
X65100Y-199265D01*
G01X76055Y-201260D02*
X76682Y-201785D01*
X77387Y-202100D01*
X78013D01*
X78640Y-201785D01*
X79110Y-201260D01*
X79345Y-200525D01*
X79188Y-199790D01*
X78797Y-199160D01*
X78092Y-198740D01*
X77152Y-198530D01*
X76603Y-198110D01*
X76368Y-197375D01*
X76525Y-196640D01*
X76917Y-196115D01*
X77465Y-195800D01*
X78013D01*
X78562Y-196010D01*
X79032Y-196535D01*
G01X84000Y-202100D02*
X83373Y-201995D01*
X82825Y-201575D01*
X82355Y-200945D01*
X82042Y-200210D01*
X81885Y-199370D01*
Y-198530D01*
X82042Y-197690D01*
X82355Y-196955D01*
X82825Y-196325D01*
X83373Y-195905D01*
X84000Y-195800D01*
X84627Y-195905D01*
X85175Y-196325D01*
X85645Y-196955D01*
X85958Y-197690D01*
X86115Y-198530D01*
Y-199370D01*
X85958Y-200210D01*
X85645Y-200945D01*
X85175Y-201575D01*
X84627Y-201995D01*
X84000Y-202100D01*
G01X88733Y-195800D02*
Y-202100D01*
X91867D01*
G01X94877D02*
Y-195800D01*
X96443D01*
X97070Y-196115D01*
X97540Y-196535D01*
X97932Y-197165D01*
X98245Y-197900D01*
X98323Y-198950D01*
X98245Y-200000D01*
X97932Y-200735D01*
X97540Y-201365D01*
X97070Y-201785D01*
X96443Y-202100D01*
X94877D01*
G01X104467D02*
X101333D01*
Y-195800D01*
X104467D01*
G01X103213Y-198845D02*
X101333D01*
G01X107633Y-202100D02*
Y-195800D01*
X109592D01*
X110218Y-196115D01*
X110610Y-196535D01*
X110767Y-197375D01*
X110610Y-198215D01*
X110140Y-198740D01*
X109592Y-199055D01*
X107633D01*
G01X109592D02*
X110767Y-202100D01*
G01X113933D02*
Y-195800D01*
X115813D01*
X116440Y-196115D01*
X116910Y-196850D01*
X117067Y-197690D01*
X116910Y-198530D01*
X116518Y-199160D01*
X115813Y-199475D01*
X113933D01*
G01X119842Y-202100D02*
X121800Y-195800D01*
X123758Y-202100D01*
G01X123053Y-199895D02*
X120547D01*
G01X126455Y-201260D02*
X127082Y-201785D01*
X127787Y-202100D01*
X128413D01*
X129040Y-201785D01*
X129510Y-201260D01*
X129745Y-200525D01*
X129588Y-199790D01*
X129197Y-199160D01*
X128492Y-198740D01*
X127552Y-198530D01*
X127003Y-198110D01*
X126768Y-197375D01*
X126925Y-196640D01*
X127317Y-196115D01*
X127865Y-195800D01*
X128413D01*
X128962Y-196010D01*
X129432Y-196535D01*
G01X134400Y-195800D02*
Y-202100D01*
G01X132598Y-195800D02*
X136202D01*
G01X142267Y-202100D02*
X139133D01*
Y-195800D01*
X142267D01*
G01X141013Y-198845D02*
X139133D01*
G01X165205Y-162000D02*
X168495Y-155700D01*
G01X165205D02*
X168495Y-162000D01*
G01X235850Y-200000D02*
Y-193700D01*
X234910Y-194960D01*
G01Y-200000D02*
X236790D01*
G01X241993D02*
X242150Y-198635D01*
X242385Y-197480D01*
X242698Y-196430D01*
X243090Y-195275D01*
X243717Y-193700D01*
X240583D01*
G01X248450D02*
X247823Y-193910D01*
X247353Y-194435D01*
X247040Y-195065D01*
X246805Y-195905D01*
X246727Y-196850D01*
X246805Y-197795D01*
X247040Y-198635D01*
X247353Y-199265D01*
X247823Y-199790D01*
X248450Y-200000D01*
X249077Y-199790D01*
X249547Y-199265D01*
X249860Y-198635D01*
X250095Y-197795D01*
X250173Y-196850D01*
X250095Y-195905D01*
X249860Y-195065D01*
X249547Y-194435D01*
X249077Y-193910D01*
X248450Y-193700D01*
G01X253732Y-197900D02*
X255768D01*
G01X259327Y-198740D02*
X259797Y-199475D01*
X260423Y-199895D01*
X261128Y-200000D01*
X261755Y-199895D01*
X262382Y-199370D01*
X262773Y-198740D01*
X262852Y-198110D01*
X262695Y-197375D01*
X262147Y-196850D01*
X261598Y-196640D01*
X260893D01*
G01X261598D02*
X262068Y-196325D01*
X262460Y-195800D01*
X262617Y-195170D01*
X262460Y-194540D01*
X262068Y-194015D01*
X261363Y-193700D01*
X260658Y-193805D01*
X259953Y-194225D01*
G01X267350Y-200000D02*
X267898Y-199895D01*
X268525Y-199580D01*
X268917Y-199055D01*
X269073Y-198320D01*
X268917Y-197585D01*
X268447Y-196955D01*
X267742Y-196640D01*
X266958D01*
X266488Y-196430D01*
X266097Y-195905D01*
X265940Y-195170D01*
X266175Y-194435D01*
X266723Y-193910D01*
X267350Y-193700D01*
X267977Y-193910D01*
X268525Y-194435D01*
X268760Y-195170D01*
X268603Y-195905D01*
X268212Y-196430D01*
X267742Y-196640D01*
X266958D01*
X266253Y-196955D01*
X265783Y-197585D01*
X265627Y-198320D01*
X265783Y-199055D01*
X266175Y-199580D01*
X266802Y-199895D01*
X267350Y-200000D01*
G01X273650D02*
X274198Y-199895D01*
X274825Y-199580D01*
X275217Y-199055D01*
X275373Y-198320D01*
X275217Y-197585D01*
X274747Y-196955D01*
X274042Y-196640D01*
X273258D01*
X272788Y-196430D01*
X272397Y-195905D01*
X272240Y-195170D01*
X272475Y-194435D01*
X273023Y-193910D01*
X273650Y-193700D01*
X274277Y-193910D01*
X274825Y-194435D01*
X275060Y-195170D01*
X274903Y-195905D01*
X274512Y-196430D01*
X274042Y-196640D01*
X273258D01*
X272553Y-196955D01*
X272083Y-197585D01*
X271927Y-198320D01*
X272083Y-199055D01*
X272475Y-199580D01*
X273102Y-199895D01*
X273650Y-200000D01*
G01X278462Y-194750D02*
X278932Y-194120D01*
X279480Y-193805D01*
X280107Y-193700D01*
X280890Y-193910D01*
X281438Y-194435D01*
X281595Y-195065D01*
X281517Y-195695D01*
X281203Y-196220D01*
X279637Y-197270D01*
X278932Y-198005D01*
X278462Y-199055D01*
X278305Y-200000D01*
X281595D01*
G01X286250Y-193700D02*
X285623Y-193910D01*
X285153Y-194435D01*
X284840Y-195065D01*
X284605Y-195905D01*
X284527Y-196850D01*
X284605Y-197795D01*
X284840Y-198635D01*
X285153Y-199265D01*
X285623Y-199790D01*
X286250Y-200000D01*
X286877Y-199790D01*
X287347Y-199265D01*
X287660Y-198635D01*
X287895Y-197795D01*
X287973Y-196850D01*
X287895Y-195905D01*
X287660Y-195065D01*
X287347Y-194435D01*
X286877Y-193910D01*
X286250Y-193700D01*
G01X328783Y-200000D02*
Y-193700D01*
X330742D01*
X331368Y-194015D01*
X331760Y-194435D01*
X331917Y-195275D01*
X331760Y-196115D01*
X331290Y-196640D01*
X330742Y-196955D01*
X328783D01*
G01X330742D02*
X331917Y-200000D01*
G01X338217D02*
X335083D01*
Y-193700D01*
X338217D01*
G01X336963Y-196745D02*
X335083D01*
G01X340992Y-193700D02*
X342950Y-200000D01*
X344908Y-193700D01*
G01X353592Y-200000D02*
X355550Y-193700D01*
X357508Y-200000D01*
G01X356803Y-197795D02*
X354297D01*
G01X235813Y-127000D02*
Y-120700D01*
X237850Y-125950D01*
X239887Y-120700D01*
Y-127000D01*
G01X245873Y-121225D02*
X245403Y-120910D01*
X244855Y-120700D01*
X244228D01*
X243523Y-121015D01*
X242975Y-121540D01*
X242583Y-122170D01*
X242270Y-123220D01*
X242192Y-124165D01*
X242348Y-125110D01*
X242583Y-125740D01*
X243053Y-126370D01*
X243602Y-126790D01*
X244150Y-127000D01*
X244698D01*
X245247Y-126790D01*
X245717Y-126475D01*
X246108Y-126055D01*
G01X249510Y-120700D02*
X251390D01*
G01X250450D02*
Y-127000D01*
G01X249510D02*
X251390D01*
G01X254713D02*
Y-120700D01*
X256750Y-125950D01*
X258787Y-120700D01*
Y-127000D01*
G01X261405D02*
X264695Y-120700D01*
G01X261405D02*
X264695Y-127000D01*
G01X269350D02*
X269898Y-126895D01*
X270525Y-126580D01*
X270917Y-126055D01*
X271073Y-125320D01*
X270917Y-124585D01*
X270447Y-123955D01*
X269742Y-123640D01*
X268958D01*
X268488Y-123430D01*
X268097Y-122905D01*
X267940Y-122170D01*
X268175Y-121435D01*
X268723Y-120910D01*
X269350Y-120700D01*
X269977Y-120910D01*
X270525Y-121435D01*
X270760Y-122170D01*
X270603Y-122905D01*
X270212Y-123430D01*
X269742Y-123640D01*
X268958D01*
X268253Y-123955D01*
X267783Y-124585D01*
X267627Y-125320D01*
X267783Y-126055D01*
X268175Y-126580D01*
X268802Y-126895D01*
X269350Y-127000D01*
G01X273613D02*
Y-120700D01*
X275650Y-125950D01*
X277687Y-120700D01*
Y-127000D01*
G01X280932Y-124900D02*
X282968D01*
G01X289817Y-127000D02*
X286683D01*
Y-120700D01*
X289817D01*
G01X288563Y-123745D02*
X286683D01*
G01X292592Y-120700D02*
X294550Y-127000D01*
X296508Y-120700D01*
G01X299127Y-127000D02*
Y-120700D01*
G01X302103D02*
X299127Y-124585D01*
G01X302573Y-127000D02*
X300458Y-122800D01*
G01X307777Y-123640D02*
X308090Y-123325D01*
X308325Y-122800D01*
X308482Y-122065D01*
X308325Y-121435D01*
X308012Y-121015D01*
X307463Y-120700D01*
X305348D01*
Y-127000D01*
X307933D01*
X308482Y-126580D01*
X308795Y-125950D01*
X308952Y-125215D01*
X308795Y-124480D01*
X308325Y-123850D01*
X307777Y-123640D01*
X305348D01*
G54D34*
X47500Y182025D03*
Y189975D03*
X281000Y345025D03*
Y352975D03*
G54D25*
X22307Y366646D03*
X35693D03*
X316307D03*
X329693D03*
G54D52*
X77339Y51000D03*
X94661D03*
G54D70*
X119900Y319250D03*
Y326750D03*
X130100Y319250D03*
Y323000D03*
Y326750D03*
G54D109*
X338846Y204744D03*
Y210256D03*
X332154D03*
Y204744D03*
G54D16*
X9941Y141000D03*
Y146500D03*
X15059Y141000D03*
Y146500D03*
X18941Y176500D03*
X24059D03*
X48941Y250500D03*
X54059D03*
X48941Y245000D03*
X54059D03*
X62559Y182500D03*
X57441D03*
X62559Y177000D03*
X57441D03*
X62559Y199000D03*
X57441D03*
X62559Y188000D03*
X57441D03*
X62559Y193500D03*
X57441D03*
X61941Y260000D03*
X67059D03*
X67941Y139500D03*
X73059D03*
X67941Y145000D03*
X73059D03*
X85941Y184500D03*
X93741Y31500D03*
X98859D03*
X91059Y184500D03*
X112941Y151000D03*
Y156500D03*
X111941Y206000D03*
X120941Y90000D03*
X118059Y151000D03*
Y156500D03*
X117059Y206000D03*
X126059Y90000D03*
X133441Y101500D03*
Y107000D03*
X138559Y101500D03*
Y107000D03*
X197141Y117900D03*
X202259D03*
X220941Y89500D03*
X226059D03*
X267441Y174500D03*
X272559D03*
X276941Y359000D03*
X282059D03*
X321441Y48000D03*
X326559D03*
X320441Y207500D03*
X325559D03*
X344941Y104000D03*
X350059D03*
X371559Y44500D03*
X366441D03*
X365241Y66600D03*
X370359D03*
G54D118*
X359500Y343500D03*
G54D43*
X58661Y2091D03*
X61220D03*
X63780D03*
X66339D03*
X88661D03*
X89661Y17591D03*
X91220Y2091D03*
X93780D03*
X96339D03*
X92220Y17591D03*
X94780D03*
X97339D03*
G54D61*
X100713Y113488D03*
X99138D03*
X100713Y124512D03*
X99138D03*
X103862Y113488D03*
X102287D03*
X103862Y124512D03*
X102287D03*
G54D128*
G01X-23969Y-192371D02*
X-23497Y-192764D01*
X-22966Y-193000D01*
X-22494D01*
X-22022Y-192764D01*
X-21668Y-192371D01*
X-21491Y-191820D01*
X-21609Y-191269D01*
X-21904Y-190797D01*
X-22435Y-190483D01*
X-23143Y-190325D01*
X-23556Y-190011D01*
X-23733Y-189460D01*
X-23615Y-188909D01*
X-23320Y-188516D01*
X-22907Y-188280D01*
X-22494D01*
X-22081Y-188437D01*
X-21727Y-188831D01*
G01X-19249Y-193000D02*
Y-188280D01*
G01X-16771D02*
Y-193000D01*
G01Y-190640D02*
X-19249D01*
G01X-12110Y-193000D02*
X-14470D01*
Y-188280D01*
X-12110D01*
G01X-13054Y-190561D02*
X-14470D01*
G01X-7390Y-193000D02*
X-9750D01*
Y-188280D01*
X-7390D01*
G01X-8334Y-190561D02*
X-9750D01*
G01X-3850Y-188280D02*
Y-193000D01*
G01X-5207Y-188280D02*
X-2493D01*
G01X-24205Y-132000D02*
X-22730Y-127280D01*
X-21255Y-132000D01*
G01X-21786Y-130348D02*
X-23674D01*
G01X-19308Y-127280D02*
Y-130663D01*
X-19072Y-131371D01*
X-18600Y-131843D01*
X-18010Y-132000D01*
X-17420Y-131843D01*
X-16948Y-131371D01*
X-16712Y-130663D01*
Y-127280D01*
G01X-14529Y-131371D02*
X-14057Y-131764D01*
X-13526Y-132000D01*
X-13054D01*
X-12582Y-131764D01*
X-12228Y-131371D01*
X-12051Y-130820D01*
X-12169Y-130269D01*
X-12464Y-129797D01*
X-12995Y-129483D01*
X-13703Y-129325D01*
X-14116Y-129011D01*
X-14293Y-128460D01*
X-14175Y-127909D01*
X-13880Y-127516D01*
X-13467Y-127280D01*
X-13054D01*
X-12641Y-127437D01*
X-12287Y-127831D01*
G01X-8570Y-127280D02*
Y-132000D01*
G01X-9927Y-127280D02*
X-7213D01*
G01X-4558D02*
X-3142D01*
G01X-3850D02*
Y-132000D01*
G01X-4558D02*
X-3142D01*
G01X-487D02*
Y-127280D01*
X2227Y-132000D01*
Y-127280D01*
G01X5590Y-132157D02*
X5472Y-132079D01*
Y-131921D01*
X5590Y-131843D01*
X5708Y-131921D01*
Y-132079D01*
X5590Y-132157D01*
G01X15030Y-127280D02*
Y-132000D01*
G01X13673Y-127280D02*
X16387D01*
G01X20930Y-132000D02*
X18570D01*
Y-127280D01*
X20930D01*
G01X19986Y-129561D02*
X18570D01*
G01X23231Y-132000D02*
X25709Y-127280D01*
G01X23231D02*
X25709Y-132000D01*
G01X27715D02*
X29190Y-127280D01*
X30665Y-132000D01*
G01X30134Y-130348D02*
X28246D01*
G01X32671Y-131371D02*
X33143Y-131764D01*
X33674Y-132000D01*
X34146D01*
X34618Y-131764D01*
X34972Y-131371D01*
X35149Y-130820D01*
X35031Y-130269D01*
X34736Y-129797D01*
X34205Y-129483D01*
X33497Y-129325D01*
X33084Y-129011D01*
X32907Y-128460D01*
X33025Y-127909D01*
X33320Y-127516D01*
X33733Y-127280D01*
X34146D01*
X34559Y-127437D01*
X34913Y-127831D01*
G01X43232Y-132000D02*
X43350Y-130977D01*
X43527Y-130112D01*
X43763Y-129325D01*
X44058Y-128460D01*
X44530Y-127280D01*
X42170D01*
G01X48070Y-132000D02*
X48483Y-131921D01*
X48955Y-131685D01*
X49250Y-131292D01*
X49368Y-130741D01*
X49250Y-130191D01*
X48896Y-129719D01*
X48365Y-129483D01*
X47775D01*
X47421Y-129325D01*
X47126Y-128932D01*
X47008Y-128381D01*
X47185Y-127831D01*
X47598Y-127437D01*
X48070Y-127280D01*
X48542Y-127437D01*
X48955Y-127831D01*
X49132Y-128381D01*
X49014Y-128932D01*
X48719Y-129325D01*
X48365Y-129483D01*
X47775D01*
X47244Y-129719D01*
X46890Y-130191D01*
X46772Y-130741D01*
X46890Y-131292D01*
X47185Y-131685D01*
X47657Y-131921D01*
X48070Y-132000D01*
G01X52672D02*
X52790Y-130977D01*
X52967Y-130112D01*
X53203Y-129325D01*
X53498Y-128460D01*
X53970Y-127280D01*
X51610D01*
G01X56212Y-131056D02*
X56566Y-131607D01*
X57038Y-131921D01*
X57569Y-132000D01*
X58041Y-131921D01*
X58513Y-131528D01*
X58808Y-131056D01*
X58867Y-130584D01*
X58749Y-130033D01*
X58336Y-129640D01*
X57923Y-129483D01*
X57392D01*
G01X57923D02*
X58277Y-129247D01*
X58572Y-128853D01*
X58690Y-128381D01*
X58572Y-127909D01*
X58277Y-127516D01*
X57746Y-127280D01*
X57215Y-127359D01*
X56684Y-127673D01*
G01X60932Y-131292D02*
X61286Y-131685D01*
X61699Y-131921D01*
X62230Y-132000D01*
X62761Y-131843D01*
X63174Y-131528D01*
X63469Y-130977D01*
X63528Y-130348D01*
X63410Y-129719D01*
X63115Y-129325D01*
X62702Y-129011D01*
X62289Y-128932D01*
X61876Y-129011D01*
X61345Y-129325D01*
X61522Y-127280D01*
X63115D01*
G01X70372D02*
Y-130663D01*
X70608Y-131371D01*
X71080Y-131843D01*
X71670Y-132000D01*
X72260Y-131843D01*
X72732Y-131371D01*
X72968Y-130663D01*
Y-127280D01*
G01X75151Y-131371D02*
X75623Y-131764D01*
X76154Y-132000D01*
X76626D01*
X77098Y-131764D01*
X77452Y-131371D01*
X77629Y-130820D01*
X77511Y-130269D01*
X77216Y-129797D01*
X76685Y-129483D01*
X75977Y-129325D01*
X75564Y-129011D01*
X75387Y-128460D01*
X75505Y-127909D01*
X75800Y-127516D01*
X76213Y-127280D01*
X76626D01*
X77039Y-127437D01*
X77393Y-127831D01*
G01X79635Y-132000D02*
X81110Y-127280D01*
X82585Y-132000D01*
G01X82054Y-130348D02*
X80166D01*
G01X-23851Y-123033D02*
X-23438Y-122483D01*
X-23084Y-122168D01*
X-22612Y-122011D01*
X-22199Y-122168D01*
X-21904Y-122483D01*
X-21668Y-122955D01*
X-21609Y-123505D01*
X-21668Y-123977D01*
X-21904Y-124449D01*
X-22258Y-124843D01*
X-22671Y-125000D01*
X-23143Y-124843D01*
X-23556Y-124371D01*
X-23792Y-123663D01*
X-23851Y-122876D01*
X-23733Y-121853D01*
X-23556Y-121303D01*
X-23261Y-120752D01*
X-22848Y-120359D01*
X-22435Y-120280D01*
X-22022Y-120437D01*
X-21727Y-120831D01*
G01X-19308Y-124292D02*
X-18954Y-124685D01*
X-18541Y-124921D01*
X-18010Y-125000D01*
X-17479Y-124843D01*
X-17066Y-124528D01*
X-16771Y-123977D01*
X-16712Y-123348D01*
X-16830Y-122719D01*
X-17125Y-122325D01*
X-17538Y-122011D01*
X-17951Y-121932D01*
X-18364Y-122011D01*
X-18895Y-122325D01*
X-18718Y-120280D01*
X-17125D01*
G01X-13290D02*
X-13762Y-120437D01*
X-14116Y-120831D01*
X-14352Y-121303D01*
X-14529Y-121932D01*
X-14588Y-122640D01*
X-14529Y-123348D01*
X-14352Y-123977D01*
X-14116Y-124449D01*
X-13762Y-124843D01*
X-13290Y-125000D01*
X-12818Y-124843D01*
X-12464Y-124449D01*
X-12228Y-123977D01*
X-12051Y-123348D01*
X-11992Y-122640D01*
X-12051Y-121932D01*
X-12228Y-121303D01*
X-12464Y-120831D01*
X-12818Y-120437D01*
X-13290Y-120280D01*
G01X-8570Y-125000D02*
Y-120280D01*
X-9278Y-121224D01*
G01Y-125000D02*
X-7862D01*
G01X-900Y-120280D02*
X-74Y-125000D01*
X870Y-120280D01*
X1814Y-125000D01*
X2640Y-120280D01*
G01X4882D02*
X6298D01*
G01X5590D02*
Y-125000D01*
G01X4882D02*
X6298D01*
G01X9130Y-120280D02*
Y-125000D01*
X11490D01*
G01X13850Y-120280D02*
Y-125000D01*
X16210D01*
G01X19042Y-120280D02*
X20458D01*
G01X19750D02*
Y-125000D01*
G01X19042D02*
X20458D01*
G01X22995D02*
X24470Y-120280D01*
X25945Y-125000D01*
G01X25414Y-123348D02*
X23526D01*
G01X27656Y-125000D02*
Y-120280D01*
X29190Y-124213D01*
X30724Y-120280D01*
Y-125000D01*
G01X39928Y-120673D02*
X39574Y-120437D01*
X39161Y-120280D01*
X38689D01*
X38158Y-120516D01*
X37745Y-120909D01*
X37450Y-121381D01*
X37214Y-122168D01*
X37155Y-122876D01*
X37273Y-123584D01*
X37450Y-124056D01*
X37804Y-124528D01*
X38217Y-124843D01*
X38630Y-125000D01*
X39043D01*
X39456Y-124843D01*
X39810Y-124607D01*
X40105Y-124292D01*
G01X41875Y-125000D02*
X43350Y-120280D01*
X44825Y-125000D01*
G01X44294Y-123348D02*
X42406D01*
G01X46713Y-125000D02*
Y-120280D01*
X49427Y-125000D01*
Y-120280D01*
G01X51433Y-125000D02*
Y-120280D01*
X54147Y-125000D01*
Y-120280D01*
G01X57510Y-125000D02*
X57038Y-124921D01*
X56625Y-124607D01*
X56271Y-124135D01*
X56035Y-123584D01*
X55917Y-122955D01*
Y-122325D01*
X56035Y-121696D01*
X56271Y-121145D01*
X56625Y-120673D01*
X57038Y-120359D01*
X57510Y-120280D01*
X57982Y-120359D01*
X58395Y-120673D01*
X58749Y-121145D01*
X58985Y-121696D01*
X59103Y-122325D01*
Y-122955D01*
X58985Y-123584D01*
X58749Y-124135D01*
X58395Y-124607D01*
X57982Y-124921D01*
X57510Y-125000D01*
G01X60873D02*
Y-120280D01*
X63587Y-125000D01*
Y-120280D01*
G01X70372Y-125000D02*
Y-120280D01*
X71552D01*
X72024Y-120516D01*
X72378Y-120831D01*
X72673Y-121303D01*
X72909Y-121853D01*
X72968Y-122640D01*
X72909Y-123427D01*
X72673Y-123977D01*
X72378Y-124449D01*
X72024Y-124764D01*
X71552Y-125000D01*
X70372D01*
G01X75210D02*
Y-120280D01*
X76685D01*
X77157Y-120516D01*
X77452Y-120831D01*
X77570Y-121460D01*
X77452Y-122089D01*
X77098Y-122483D01*
X76685Y-122719D01*
X75210D01*
G01X76685D02*
X77570Y-125000D01*
G01X80402Y-120280D02*
X81818D01*
G01X81110D02*
Y-125000D01*
G01X80402D02*
X81818D01*
G01X84355Y-120280D02*
X85830Y-125000D01*
X87305Y-120280D01*
G01X91730Y-125000D02*
X89370D01*
Y-120280D01*
X91730D01*
G01X90786Y-122561D02*
X89370D01*
G01X98220Y-120280D02*
X99046Y-125000D01*
X99990Y-120280D01*
X100934Y-125000D01*
X101760Y-120280D01*
G01X105890Y-125000D02*
X103530D01*
Y-120280D01*
X105890D01*
G01X104946Y-122561D02*
X103530D01*
G01X108191Y-124371D02*
X108663Y-124764D01*
X109194Y-125000D01*
X109666D01*
X110138Y-124764D01*
X110492Y-124371D01*
X110669Y-123820D01*
X110551Y-123269D01*
X110256Y-122797D01*
X109725Y-122483D01*
X109017Y-122325D01*
X108604Y-122011D01*
X108427Y-121460D01*
X108545Y-120909D01*
X108840Y-120516D01*
X109253Y-120280D01*
X109666D01*
X110079Y-120437D01*
X110433Y-120831D01*
G01X114150Y-120280D02*
Y-125000D01*
G01X112793Y-120280D02*
X115507D01*
G01X-16087Y-182000D02*
Y-177280D01*
X-13373Y-182000D01*
Y-177280D01*
G01X-11249Y-182000D02*
X-8771Y-177280D01*
G01X-11249D02*
X-8771Y-182000D01*
G01X-6470D02*
Y-177280D01*
X-5054D01*
X-4582Y-177516D01*
X-4228Y-178067D01*
X-4110Y-178696D01*
X-4228Y-179325D01*
X-4523Y-179797D01*
X-5054Y-180033D01*
X-6470D01*
G01X-570Y-182157D02*
X-688Y-182079D01*
Y-181921D01*
X-570Y-181843D01*
X-452Y-181921D01*
Y-182079D01*
X-570Y-182157D01*
G01X-15730Y-174000D02*
X-16202Y-173921D01*
X-16615Y-173607D01*
X-16969Y-173135D01*
X-17205Y-172584D01*
X-17323Y-171955D01*
Y-171325D01*
X-17205Y-170696D01*
X-16969Y-170145D01*
X-16615Y-169673D01*
X-16202Y-169359D01*
X-15730Y-169280D01*
X-15258Y-169359D01*
X-14845Y-169673D01*
X-14491Y-170145D01*
X-14255Y-170696D01*
X-14137Y-171325D01*
Y-171955D01*
X-14255Y-172584D01*
X-14491Y-173135D01*
X-14845Y-173607D01*
X-15258Y-173921D01*
X-15730Y-174000D01*
G01X-12190D02*
Y-169280D01*
X-10715D01*
X-10243Y-169516D01*
X-9948Y-169831D01*
X-9830Y-170460D01*
X-9948Y-171089D01*
X-10302Y-171483D01*
X-10715Y-171719D01*
X-12190D01*
G01X-10715D02*
X-9830Y-174000D01*
G01X-2278Y-169280D02*
X-862D01*
G01X-1570D02*
Y-174000D01*
G01X-2278D02*
X-862D01*
G01X1793D02*
Y-169280D01*
X4507Y-174000D01*
Y-169280D01*
G01X11410Y-174000D02*
Y-169280D01*
X12826D01*
X13298Y-169516D01*
X13652Y-170067D01*
X13770Y-170696D01*
X13652Y-171325D01*
X13357Y-171797D01*
X12826Y-172033D01*
X11410D01*
G01X15835Y-174000D02*
X17310Y-169280D01*
X18785Y-174000D01*
G01X18254Y-172348D02*
X16366D01*
G01X20850Y-174000D02*
Y-169280D01*
X22325D01*
X22797Y-169516D01*
X23092Y-169831D01*
X23210Y-170460D01*
X23092Y-171089D01*
X22738Y-171483D01*
X22325Y-171719D01*
X20850D01*
G01X22325D02*
X23210Y-174000D01*
G01X26750Y-169280D02*
Y-174000D01*
G01X25393Y-169280D02*
X28107D01*
G01X34420D02*
X35246Y-174000D01*
X36190Y-169280D01*
X37134Y-174000D01*
X37960Y-169280D01*
G01X40202D02*
X41618D01*
G01X40910D02*
Y-174000D01*
G01X40202D02*
X41618D01*
G01X45630Y-169280D02*
Y-174000D01*
G01X44273Y-169280D02*
X46987D01*
G01X49111Y-174000D02*
Y-169280D01*
G01X51589D02*
Y-174000D01*
G01Y-171640D02*
X49111D01*
G01X55070Y-174000D02*
X54598Y-173921D01*
X54185Y-173607D01*
X53831Y-173135D01*
X53595Y-172584D01*
X53477Y-171955D01*
Y-171325D01*
X53595Y-170696D01*
X53831Y-170145D01*
X54185Y-169673D01*
X54598Y-169359D01*
X55070Y-169280D01*
X55542Y-169359D01*
X55955Y-169673D01*
X56309Y-170145D01*
X56545Y-170696D01*
X56663Y-171325D01*
Y-171955D01*
X56545Y-172584D01*
X56309Y-173135D01*
X55955Y-173607D01*
X55542Y-173921D01*
X55070Y-174000D01*
G01X58492Y-169280D02*
Y-172663D01*
X58728Y-173371D01*
X59200Y-173843D01*
X59790Y-174000D01*
X60380Y-173843D01*
X60852Y-173371D01*
X61088Y-172663D01*
Y-169280D01*
G01X64510D02*
Y-174000D01*
G01X63153Y-169280D02*
X65867D01*
G01X73950D02*
Y-174000D01*
G01X72593Y-169280D02*
X75307D01*
G01X77431Y-174000D02*
Y-169280D01*
G01X79909D02*
Y-174000D01*
G01Y-171640D02*
X77431D01*
G01X84570Y-174000D02*
X82210D01*
Y-169280D01*
X84570D01*
G01X83626Y-171561D02*
X82210D01*
G01X94128Y-169673D02*
X93774Y-169437D01*
X93361Y-169280D01*
X92889D01*
X92358Y-169516D01*
X91945Y-169909D01*
X91650Y-170381D01*
X91414Y-171168D01*
X91355Y-171876D01*
X91473Y-172584D01*
X91650Y-173056D01*
X92004Y-173528D01*
X92417Y-173843D01*
X92830Y-174000D01*
X93243D01*
X93656Y-173843D01*
X94010Y-173607D01*
X94305Y-173292D01*
G01X97550Y-174000D02*
X97078Y-173921D01*
X96665Y-173607D01*
X96311Y-173135D01*
X96075Y-172584D01*
X95957Y-171955D01*
Y-171325D01*
X96075Y-170696D01*
X96311Y-170145D01*
X96665Y-169673D01*
X97078Y-169359D01*
X97550Y-169280D01*
X98022Y-169359D01*
X98435Y-169673D01*
X98789Y-170145D01*
X99025Y-170696D01*
X99143Y-171325D01*
Y-171955D01*
X99025Y-172584D01*
X98789Y-173135D01*
X98435Y-173607D01*
X98022Y-173921D01*
X97550Y-174000D01*
G01X100913D02*
Y-169280D01*
X103627Y-174000D01*
Y-169280D01*
G01X105751Y-173371D02*
X106223Y-173764D01*
X106754Y-174000D01*
X107226D01*
X107698Y-173764D01*
X108052Y-173371D01*
X108229Y-172820D01*
X108111Y-172269D01*
X107816Y-171797D01*
X107285Y-171483D01*
X106577Y-171325D01*
X106164Y-171011D01*
X105987Y-170460D01*
X106105Y-169909D01*
X106400Y-169516D01*
X106813Y-169280D01*
X107226D01*
X107639Y-169437D01*
X107993Y-169831D01*
G01X112890Y-174000D02*
X110530D01*
Y-169280D01*
X112890D01*
G01X111946Y-171561D02*
X110530D01*
G01X115073Y-174000D02*
Y-169280D01*
X117787Y-174000D01*
Y-169280D01*
G01X121150D02*
Y-174000D01*
G01X119793Y-169280D02*
X122507D01*
G01X130590Y-174000D02*
X130118Y-173921D01*
X129705Y-173607D01*
X129351Y-173135D01*
X129115Y-172584D01*
X128997Y-171955D01*
Y-171325D01*
X129115Y-170696D01*
X129351Y-170145D01*
X129705Y-169673D01*
X130118Y-169359D01*
X130590Y-169280D01*
X131062Y-169359D01*
X131475Y-169673D01*
X131829Y-170145D01*
X132065Y-170696D01*
X132183Y-171325D01*
Y-171955D01*
X132065Y-172584D01*
X131829Y-173135D01*
X131475Y-173607D01*
X131062Y-173921D01*
X130590Y-174000D01*
G01X134189D02*
Y-169280D01*
X136431D01*
G01X135605Y-171561D02*
X134189D01*
G01X-16910Y-166000D02*
Y-161280D01*
X-15494D01*
X-15022Y-161516D01*
X-14668Y-162067D01*
X-14550Y-162696D01*
X-14668Y-163325D01*
X-14963Y-163797D01*
X-15494Y-164033D01*
X-16910D01*
G01X-12190Y-166000D02*
Y-161280D01*
X-10715D01*
X-10243Y-161516D01*
X-9948Y-161831D01*
X-9830Y-162460D01*
X-9948Y-163089D01*
X-10302Y-163483D01*
X-10715Y-163719D01*
X-12190D01*
G01X-10715D02*
X-9830Y-166000D01*
G01X-6290D02*
X-6762Y-165921D01*
X-7175Y-165607D01*
X-7529Y-165135D01*
X-7765Y-164584D01*
X-7883Y-163955D01*
Y-163325D01*
X-7765Y-162696D01*
X-7529Y-162145D01*
X-7175Y-161673D01*
X-6762Y-161359D01*
X-6290Y-161280D01*
X-5818Y-161359D01*
X-5405Y-161673D01*
X-5051Y-162145D01*
X-4815Y-162696D01*
X-4697Y-163325D01*
Y-163955D01*
X-4815Y-164584D01*
X-5051Y-165135D01*
X-5405Y-165607D01*
X-5818Y-165921D01*
X-6290Y-166000D01*
G01X-272Y-161673D02*
X-626Y-161437D01*
X-1039Y-161280D01*
X-1511D01*
X-2042Y-161516D01*
X-2455Y-161909D01*
X-2750Y-162381D01*
X-2986Y-163168D01*
X-3045Y-163876D01*
X-2927Y-164584D01*
X-2750Y-165056D01*
X-2396Y-165528D01*
X-1983Y-165843D01*
X-1570Y-166000D01*
X-1157D01*
X-744Y-165843D01*
X-390Y-165607D01*
X-95Y-165292D01*
G01X1852Y-161280D02*
Y-164663D01*
X2088Y-165371D01*
X2560Y-165843D01*
X3150Y-166000D01*
X3740Y-165843D01*
X4212Y-165371D01*
X4448Y-164663D01*
Y-161280D01*
G01X6690Y-166000D02*
Y-161280D01*
X8165D01*
X8637Y-161516D01*
X8932Y-161831D01*
X9050Y-162460D01*
X8932Y-163089D01*
X8578Y-163483D01*
X8165Y-163719D01*
X6690D01*
G01X8165D02*
X9050Y-166000D01*
G01X13770D02*
X11410D01*
Y-161280D01*
X13770D01*
G01X12826Y-163561D02*
X11410D01*
G01X15776Y-166000D02*
Y-161280D01*
X17310Y-165213D01*
X18844Y-161280D01*
Y-166000D01*
G01X23210D02*
X20850D01*
Y-161280D01*
X23210D01*
G01X22266Y-163561D02*
X20850D01*
G01X25393Y-166000D02*
Y-161280D01*
X28107Y-166000D01*
Y-161280D01*
G01X31470D02*
Y-166000D01*
G01X30113Y-161280D02*
X32827D01*
G01X40910Y-166000D02*
X40438Y-165921D01*
X40025Y-165607D01*
X39671Y-165135D01*
X39435Y-164584D01*
X39317Y-163955D01*
Y-163325D01*
X39435Y-162696D01*
X39671Y-162145D01*
X40025Y-161673D01*
X40438Y-161359D01*
X40910Y-161280D01*
X41382Y-161359D01*
X41795Y-161673D01*
X42149Y-162145D01*
X42385Y-162696D01*
X42503Y-163325D01*
Y-163955D01*
X42385Y-164584D01*
X42149Y-165135D01*
X41795Y-165607D01*
X41382Y-165921D01*
X40910Y-166000D01*
G01X44450D02*
Y-161280D01*
X45925D01*
X46397Y-161516D01*
X46692Y-161831D01*
X46810Y-162460D01*
X46692Y-163089D01*
X46338Y-163483D01*
X45925Y-163719D01*
X44450D01*
G01X45925D02*
X46810Y-166000D01*
G01X53536D02*
Y-161280D01*
X55070Y-165213D01*
X56604Y-161280D01*
Y-166000D01*
G01X58315D02*
X59790Y-161280D01*
X61265Y-166000D01*
G01X60734Y-164348D02*
X58846D01*
G01X63153Y-166000D02*
Y-161280D01*
X65867Y-166000D01*
Y-161280D01*
G01X67932D02*
Y-164663D01*
X68168Y-165371D01*
X68640Y-165843D01*
X69230Y-166000D01*
X69820Y-165843D01*
X70292Y-165371D01*
X70528Y-164663D01*
Y-161280D01*
G01X72829Y-166000D02*
Y-161280D01*
X75071D01*
G01X74245Y-163561D02*
X72829D01*
G01X77195Y-166000D02*
X78670Y-161280D01*
X80145Y-166000D01*
G01X79614Y-164348D02*
X77726D01*
G01X84688Y-161673D02*
X84334Y-161437D01*
X83921Y-161280D01*
X83449D01*
X82918Y-161516D01*
X82505Y-161909D01*
X82210Y-162381D01*
X81974Y-163168D01*
X81915Y-163876D01*
X82033Y-164584D01*
X82210Y-165056D01*
X82564Y-165528D01*
X82977Y-165843D01*
X83390Y-166000D01*
X83803D01*
X84216Y-165843D01*
X84570Y-165607D01*
X84865Y-165292D01*
G01X88110Y-161280D02*
Y-166000D01*
G01X86753Y-161280D02*
X89467D01*
G01X91532D02*
Y-164663D01*
X91768Y-165371D01*
X92240Y-165843D01*
X92830Y-166000D01*
X93420Y-165843D01*
X93892Y-165371D01*
X94128Y-164663D01*
Y-161280D01*
G01X96370Y-166000D02*
Y-161280D01*
X97845D01*
X98317Y-161516D01*
X98612Y-161831D01*
X98730Y-162460D01*
X98612Y-163089D01*
X98258Y-163483D01*
X97845Y-163719D01*
X96370D01*
G01X97845D02*
X98730Y-166000D01*
G01X103450D02*
X101090D01*
Y-161280D01*
X103450D01*
G01X102506Y-163561D02*
X101090D01*
G01X111002Y-161280D02*
X112418D01*
G01X111710D02*
Y-166000D01*
G01X111002D02*
X112418D01*
G01X115073D02*
Y-161280D01*
X117787Y-166000D01*
Y-161280D01*
G01X124100D02*
X124926Y-166000D01*
X125870Y-161280D01*
X126814Y-166000D01*
X127640Y-161280D01*
G01X129351Y-166000D02*
Y-161280D01*
G01X131829D02*
Y-166000D01*
G01Y-163640D02*
X129351D01*
G01X135310Y-166000D02*
X134838Y-165921D01*
X134425Y-165607D01*
X134071Y-165135D01*
X133835Y-164584D01*
X133717Y-163955D01*
Y-163325D01*
X133835Y-162696D01*
X134071Y-162145D01*
X134425Y-161673D01*
X134838Y-161359D01*
X135310Y-161280D01*
X135782Y-161359D01*
X136195Y-161673D01*
X136549Y-162145D01*
X136785Y-162696D01*
X136903Y-163325D01*
Y-163955D01*
X136785Y-164584D01*
X136549Y-165135D01*
X136195Y-165607D01*
X135782Y-165921D01*
X135310Y-166000D01*
G01X138850Y-161280D02*
Y-166000D01*
X141210D01*
G01X145930D02*
X143570D01*
Y-161280D01*
X145930D01*
G01X144986Y-163561D02*
X143570D01*
G01X-17087Y-158000D02*
Y-153280D01*
X-14373Y-158000D01*
Y-153280D01*
G01X-11010Y-158000D02*
X-11482Y-157921D01*
X-11895Y-157607D01*
X-12249Y-157135D01*
X-12485Y-156584D01*
X-12603Y-155955D01*
Y-155325D01*
X-12485Y-154696D01*
X-12249Y-154145D01*
X-11895Y-153673D01*
X-11482Y-153359D01*
X-11010Y-153280D01*
X-10538Y-153359D01*
X-10125Y-153673D01*
X-9771Y-154145D01*
X-9535Y-154696D01*
X-9417Y-155325D01*
Y-155955D01*
X-9535Y-156584D01*
X-9771Y-157135D01*
X-10125Y-157607D01*
X-10538Y-157921D01*
X-11010Y-158000D01*
G01X-6290Y-153280D02*
Y-158000D01*
G01X-7647Y-153280D02*
X-4933D01*
G01X3622Y-155483D02*
X3858Y-155247D01*
X4035Y-154853D01*
X4153Y-154303D01*
X4035Y-153831D01*
X3799Y-153516D01*
X3386Y-153280D01*
X1793D01*
Y-158000D01*
X3740D01*
X4153Y-157685D01*
X4389Y-157213D01*
X4507Y-156663D01*
X4389Y-156112D01*
X4035Y-155640D01*
X3622Y-155483D01*
X1793D01*
G01X9050Y-158000D02*
X6690D01*
Y-153280D01*
X9050D01*
G01X8106Y-155561D02*
X6690D01*
G01X16012Y-153280D02*
Y-156663D01*
X16248Y-157371D01*
X16720Y-157843D01*
X17310Y-158000D01*
X17900Y-157843D01*
X18372Y-157371D01*
X18608Y-156663D01*
Y-153280D01*
G01X20791Y-157371D02*
X21263Y-157764D01*
X21794Y-158000D01*
X22266D01*
X22738Y-157764D01*
X23092Y-157371D01*
X23269Y-156820D01*
X23151Y-156269D01*
X22856Y-155797D01*
X22325Y-155483D01*
X21617Y-155325D01*
X21204Y-155011D01*
X21027Y-154460D01*
X21145Y-153909D01*
X21440Y-153516D01*
X21853Y-153280D01*
X22266D01*
X22679Y-153437D01*
X23033Y-153831D01*
G01X27930Y-158000D02*
X25570D01*
Y-153280D01*
X27930D01*
G01X26986Y-155561D02*
X25570D01*
G01X30172Y-158000D02*
Y-153280D01*
X31352D01*
X31824Y-153516D01*
X32178Y-153831D01*
X32473Y-154303D01*
X32709Y-154853D01*
X32768Y-155640D01*
X32709Y-156427D01*
X32473Y-156977D01*
X32178Y-157449D01*
X31824Y-157764D01*
X31352Y-158000D01*
X30172D01*
G01X39789D02*
Y-153280D01*
X42031D01*
G01X41205Y-155561D02*
X39789D01*
G01X45630Y-158000D02*
X45158Y-157921D01*
X44745Y-157607D01*
X44391Y-157135D01*
X44155Y-156584D01*
X44037Y-155955D01*
Y-155325D01*
X44155Y-154696D01*
X44391Y-154145D01*
X44745Y-153673D01*
X45158Y-153359D01*
X45630Y-153280D01*
X46102Y-153359D01*
X46515Y-153673D01*
X46869Y-154145D01*
X47105Y-154696D01*
X47223Y-155325D01*
Y-155955D01*
X47105Y-156584D01*
X46869Y-157135D01*
X46515Y-157607D01*
X46102Y-157921D01*
X45630Y-158000D01*
G01X49170D02*
Y-153280D01*
X50645D01*
X51117Y-153516D01*
X51412Y-153831D01*
X51530Y-154460D01*
X51412Y-155089D01*
X51058Y-155483D01*
X50645Y-155719D01*
X49170D01*
G01X50645D02*
X51530Y-158000D01*
G01X60970D02*
X58610D01*
Y-153280D01*
X60970D01*
G01X60026Y-155561D02*
X58610D01*
G01X63153Y-158000D02*
Y-153280D01*
X65867Y-158000D01*
Y-153280D01*
G01X69584Y-155640D02*
X70764D01*
Y-157056D01*
X70410Y-157528D01*
X69997Y-157843D01*
X69407Y-158000D01*
X68817Y-157843D01*
X68404Y-157528D01*
X68050Y-157056D01*
X67814Y-156505D01*
X67696Y-155876D01*
Y-155325D01*
X67814Y-154853D01*
X68050Y-154303D01*
X68404Y-153831D01*
X68758Y-153516D01*
X69230Y-153280D01*
X69643D01*
X70115Y-153437D01*
X70469Y-153752D01*
G01X73242Y-153280D02*
X74658D01*
G01X73950D02*
Y-158000D01*
G01X73242D02*
X74658D01*
G01X77313D02*
Y-153280D01*
X80027Y-158000D01*
Y-153280D01*
G01X84570Y-158000D02*
X82210D01*
Y-153280D01*
X84570D01*
G01X83626Y-155561D02*
X82210D01*
G01X89290Y-158000D02*
X86930D01*
Y-153280D01*
X89290D01*
G01X88346Y-155561D02*
X86930D01*
G01X91650Y-158000D02*
Y-153280D01*
X93125D01*
X93597Y-153516D01*
X93892Y-153831D01*
X94010Y-154460D01*
X93892Y-155089D01*
X93538Y-155483D01*
X93125Y-155719D01*
X91650D01*
G01X93125D02*
X94010Y-158000D01*
G01X96842Y-153280D02*
X98258D01*
G01X97550D02*
Y-158000D01*
G01X96842D02*
X98258D01*
G01X100913D02*
Y-153280D01*
X103627Y-158000D01*
Y-153280D01*
G01X107344Y-155640D02*
X108524D01*
Y-157056D01*
X108170Y-157528D01*
X107757Y-157843D01*
X107167Y-158000D01*
X106577Y-157843D01*
X106164Y-157528D01*
X105810Y-157056D01*
X105574Y-156505D01*
X105456Y-155876D01*
Y-155325D01*
X105574Y-154853D01*
X105810Y-154303D01*
X106164Y-153831D01*
X106518Y-153516D01*
X106990Y-153280D01*
X107403D01*
X107875Y-153437D01*
X108229Y-153752D01*
G01X115132Y-158000D02*
Y-153280D01*
X116312D01*
X116784Y-153516D01*
X117138Y-153831D01*
X117433Y-154303D01*
X117669Y-154853D01*
X117728Y-155640D01*
X117669Y-156427D01*
X117433Y-156977D01*
X117138Y-157449D01*
X116784Y-157764D01*
X116312Y-158000D01*
X115132D01*
G01X122330D02*
X119970D01*
Y-153280D01*
X122330D01*
G01X121386Y-155561D02*
X119970D01*
G01X124631Y-157371D02*
X125103Y-157764D01*
X125634Y-158000D01*
X126106D01*
X126578Y-157764D01*
X126932Y-157371D01*
X127109Y-156820D01*
X126991Y-156269D01*
X126696Y-155797D01*
X126165Y-155483D01*
X125457Y-155325D01*
X125044Y-155011D01*
X124867Y-154460D01*
X124985Y-153909D01*
X125280Y-153516D01*
X125693Y-153280D01*
X126106D01*
X126519Y-153437D01*
X126873Y-153831D01*
G01X129882Y-153280D02*
X131298D01*
G01X130590D02*
Y-158000D01*
G01X129882D02*
X131298D01*
G01X135664Y-155640D02*
X136844D01*
Y-157056D01*
X136490Y-157528D01*
X136077Y-157843D01*
X135487Y-158000D01*
X134897Y-157843D01*
X134484Y-157528D01*
X134130Y-157056D01*
X133894Y-156505D01*
X133776Y-155876D01*
Y-155325D01*
X133894Y-154853D01*
X134130Y-154303D01*
X134484Y-153831D01*
X134838Y-153516D01*
X135310Y-153280D01*
X135723D01*
X136195Y-153437D01*
X136549Y-153752D01*
G01X138673Y-158000D02*
Y-153280D01*
X141387Y-158000D01*
Y-153280D01*
G01X-16910Y-150000D02*
Y-145280D01*
X-15494D01*
X-15022Y-145516D01*
X-14668Y-146067D01*
X-14550Y-146696D01*
X-14668Y-147325D01*
X-14963Y-147797D01*
X-15494Y-148033D01*
X-16910D01*
G01X-12190Y-150000D02*
Y-145280D01*
X-10715D01*
X-10243Y-145516D01*
X-9948Y-145831D01*
X-9830Y-146460D01*
X-9948Y-147089D01*
X-10302Y-147483D01*
X-10715Y-147719D01*
X-12190D01*
G01X-10715D02*
X-9830Y-150000D01*
G01X-6290D02*
X-6762Y-149921D01*
X-7175Y-149607D01*
X-7529Y-149135D01*
X-7765Y-148584D01*
X-7883Y-147955D01*
Y-147325D01*
X-7765Y-146696D01*
X-7529Y-146145D01*
X-7175Y-145673D01*
X-6762Y-145359D01*
X-6290Y-145280D01*
X-5818Y-145359D01*
X-5405Y-145673D01*
X-5051Y-146145D01*
X-4815Y-146696D01*
X-4697Y-147325D01*
Y-147955D01*
X-4815Y-148584D01*
X-5051Y-149135D01*
X-5405Y-149607D01*
X-5818Y-149921D01*
X-6290Y-150000D01*
G01X-2750D02*
Y-145280D01*
X-1334D01*
X-862Y-145516D01*
X-508Y-146067D01*
X-390Y-146696D01*
X-508Y-147325D01*
X-803Y-147797D01*
X-1334Y-148033D01*
X-2750D01*
G01X1970Y-150000D02*
Y-145280D01*
X3445D01*
X3917Y-145516D01*
X4212Y-145831D01*
X4330Y-146460D01*
X4212Y-147089D01*
X3858Y-147483D01*
X3445Y-147719D01*
X1970D01*
G01X3445D02*
X4330Y-150000D01*
G01X7162Y-145280D02*
X8578D01*
G01X7870D02*
Y-150000D01*
G01X7162D02*
X8578D01*
G01X13770D02*
X11410D01*
Y-145280D01*
X13770D01*
G01X12826Y-147561D02*
X11410D01*
G01X17310Y-145280D02*
Y-150000D01*
G01X15953Y-145280D02*
X18667D01*
G01X20555Y-150000D02*
X22030Y-145280D01*
X23505Y-150000D01*
G01X22974Y-148348D02*
X21086D01*
G01X25570Y-150000D02*
Y-145280D01*
X27045D01*
X27517Y-145516D01*
X27812Y-145831D01*
X27930Y-146460D01*
X27812Y-147089D01*
X27458Y-147483D01*
X27045Y-147719D01*
X25570D01*
G01X27045D02*
X27930Y-150000D01*
G01X31470D02*
Y-147876D01*
X30290Y-145280D01*
G01X32650D02*
X31470Y-147876D01*
G01X40910Y-145280D02*
Y-150000D01*
G01X39553Y-145280D02*
X42267D01*
G01X45630Y-150000D02*
X45158Y-149921D01*
X44745Y-149607D01*
X44391Y-149135D01*
X44155Y-148584D01*
X44037Y-147955D01*
Y-147325D01*
X44155Y-146696D01*
X44391Y-146145D01*
X44745Y-145673D01*
X45158Y-145359D01*
X45630Y-145280D01*
X46102Y-145359D01*
X46515Y-145673D01*
X46869Y-146145D01*
X47105Y-146696D01*
X47223Y-147325D01*
Y-147955D01*
X47105Y-148584D01*
X46869Y-149135D01*
X46515Y-149607D01*
X46102Y-149921D01*
X45630Y-150000D01*
G01X53713D02*
Y-145280D01*
X56427Y-150000D01*
Y-145280D01*
G01X58551Y-150000D02*
X61029Y-145280D01*
G01X58551D02*
X61029Y-150000D01*
G01X63330D02*
Y-145280D01*
X64746D01*
X65218Y-145516D01*
X65572Y-146067D01*
X65690Y-146696D01*
X65572Y-147325D01*
X65277Y-147797D01*
X64746Y-148033D01*
X63330D01*
G01X72475Y-150000D02*
X73950Y-145280D01*
X75425Y-150000D01*
G01X74894Y-148348D02*
X73006D01*
G01X77313Y-150000D02*
Y-145280D01*
X80027Y-150000D01*
Y-145280D01*
G01X82092Y-150000D02*
Y-145280D01*
X83272D01*
X83744Y-145516D01*
X84098Y-145831D01*
X84393Y-146303D01*
X84629Y-146853D01*
X84688Y-147640D01*
X84629Y-148427D01*
X84393Y-148977D01*
X84098Y-149449D01*
X83744Y-149764D01*
X83272Y-150000D01*
X82092D01*
G01X91591Y-149371D02*
X92063Y-149764D01*
X92594Y-150000D01*
X93066D01*
X93538Y-149764D01*
X93892Y-149371D01*
X94069Y-148820D01*
X93951Y-148269D01*
X93656Y-147797D01*
X93125Y-147483D01*
X92417Y-147325D01*
X92004Y-147011D01*
X91827Y-146460D01*
X91945Y-145909D01*
X92240Y-145516D01*
X92653Y-145280D01*
X93066D01*
X93479Y-145437D01*
X93833Y-145831D01*
G01X96311Y-150000D02*
Y-145280D01*
G01X98789D02*
Y-150000D01*
G01Y-147640D02*
X96311D01*
G01X100795Y-150000D02*
X102270Y-145280D01*
X103745Y-150000D01*
G01X103214Y-148348D02*
X101326D01*
G01X105810Y-145280D02*
Y-150000D01*
X108170D01*
G01X110530Y-145280D02*
Y-150000D01*
X112890D01*
G01X-16730Y-137280D02*
Y-142000D01*
G01X-18087Y-137280D02*
X-15373D01*
G01X-13249Y-142000D02*
Y-137280D01*
G01X-10771D02*
Y-142000D01*
G01Y-139640D02*
X-13249D01*
G01X-7998Y-137280D02*
X-6582D01*
G01X-7290D02*
Y-142000D01*
G01X-7998D02*
X-6582D01*
G01X-3809Y-141371D02*
X-3337Y-141764D01*
X-2806Y-142000D01*
X-2334D01*
X-1862Y-141764D01*
X-1508Y-141371D01*
X-1331Y-140820D01*
X-1449Y-140269D01*
X-1744Y-139797D01*
X-2275Y-139483D01*
X-2983Y-139325D01*
X-3396Y-139011D01*
X-3573Y-138460D01*
X-3455Y-137909D01*
X-3160Y-137516D01*
X-2747Y-137280D01*
X-2334D01*
X-1921Y-137437D01*
X-1567Y-137831D01*
G01X5572Y-142000D02*
Y-137280D01*
X6752D01*
X7224Y-137516D01*
X7578Y-137831D01*
X7873Y-138303D01*
X8109Y-138853D01*
X8168Y-139640D01*
X8109Y-140427D01*
X7873Y-140977D01*
X7578Y-141449D01*
X7224Y-141764D01*
X6752Y-142000D01*
X5572D01*
G01X11590D02*
X11118Y-141921D01*
X10705Y-141607D01*
X10351Y-141135D01*
X10115Y-140584D01*
X9997Y-139955D01*
Y-139325D01*
X10115Y-138696D01*
X10351Y-138145D01*
X10705Y-137673D01*
X11118Y-137359D01*
X11590Y-137280D01*
X12062Y-137359D01*
X12475Y-137673D01*
X12829Y-138145D01*
X13065Y-138696D01*
X13183Y-139325D01*
Y-139955D01*
X13065Y-140584D01*
X12829Y-141135D01*
X12475Y-141607D01*
X12062Y-141921D01*
X11590Y-142000D01*
G01X17608Y-137673D02*
X17254Y-137437D01*
X16841Y-137280D01*
X16369D01*
X15838Y-137516D01*
X15425Y-137909D01*
X15130Y-138381D01*
X14894Y-139168D01*
X14835Y-139876D01*
X14953Y-140584D01*
X15130Y-141056D01*
X15484Y-141528D01*
X15897Y-141843D01*
X16310Y-142000D01*
X16723D01*
X17136Y-141843D01*
X17490Y-141607D01*
X17785Y-141292D01*
G01X19732Y-137280D02*
Y-140663D01*
X19968Y-141371D01*
X20440Y-141843D01*
X21030Y-142000D01*
X21620Y-141843D01*
X22092Y-141371D01*
X22328Y-140663D01*
Y-137280D01*
G01X24216Y-142000D02*
Y-137280D01*
X25750Y-141213D01*
X27284Y-137280D01*
Y-142000D01*
G01X31650D02*
X29290D01*
Y-137280D01*
X31650D01*
G01X30706Y-139561D02*
X29290D01*
G01X33833Y-142000D02*
Y-137280D01*
X36547Y-142000D01*
Y-137280D01*
G01X39910D02*
Y-142000D01*
G01X38553Y-137280D02*
X41267D01*
G01X50648Y-137673D02*
X50294Y-137437D01*
X49881Y-137280D01*
X49409D01*
X48878Y-137516D01*
X48465Y-137909D01*
X48170Y-138381D01*
X47934Y-139168D01*
X47875Y-139876D01*
X47993Y-140584D01*
X48170Y-141056D01*
X48524Y-141528D01*
X48937Y-141843D01*
X49350Y-142000D01*
X49763D01*
X50176Y-141843D01*
X50530Y-141607D01*
X50825Y-141292D01*
G01X54070Y-142000D02*
X53598Y-141921D01*
X53185Y-141607D01*
X52831Y-141135D01*
X52595Y-140584D01*
X52477Y-139955D01*
Y-139325D01*
X52595Y-138696D01*
X52831Y-138145D01*
X53185Y-137673D01*
X53598Y-137359D01*
X54070Y-137280D01*
X54542Y-137359D01*
X54955Y-137673D01*
X55309Y-138145D01*
X55545Y-138696D01*
X55663Y-139325D01*
Y-139955D01*
X55545Y-140584D01*
X55309Y-141135D01*
X54955Y-141607D01*
X54542Y-141921D01*
X54070Y-142000D01*
G01X57433D02*
Y-137280D01*
X60147Y-142000D01*
Y-137280D01*
G01X63510D02*
Y-142000D01*
G01X62153Y-137280D02*
X64867D01*
G01X66755Y-142000D02*
X68230Y-137280D01*
X69705Y-142000D01*
G01X69174Y-140348D02*
X67286D01*
G01X72242Y-137280D02*
X73658D01*
G01X72950D02*
Y-142000D01*
G01X72242D02*
X73658D01*
G01X76313D02*
Y-137280D01*
X79027Y-142000D01*
Y-137280D01*
G01X81151Y-141371D02*
X81623Y-141764D01*
X82154Y-142000D01*
X82626D01*
X83098Y-141764D01*
X83452Y-141371D01*
X83629Y-140820D01*
X83511Y-140269D01*
X83216Y-139797D01*
X82685Y-139483D01*
X81977Y-139325D01*
X81564Y-139011D01*
X81387Y-138460D01*
X81505Y-137909D01*
X81800Y-137516D01*
X82213Y-137280D01*
X82626D01*
X83039Y-137437D01*
X83393Y-137831D01*
G01X91122Y-137280D02*
X92538D01*
G01X91830D02*
Y-142000D01*
G01X91122D02*
X92538D01*
G01X95193D02*
Y-137280D01*
X97907Y-142000D01*
Y-137280D01*
G01X100149Y-142000D02*
Y-137280D01*
X102391D01*
G01X101565Y-139561D02*
X100149D01*
G01X105990Y-142000D02*
X105518Y-141921D01*
X105105Y-141607D01*
X104751Y-141135D01*
X104515Y-140584D01*
X104397Y-139955D01*
Y-139325D01*
X104515Y-138696D01*
X104751Y-138145D01*
X105105Y-137673D01*
X105518Y-137359D01*
X105990Y-137280D01*
X106462Y-137359D01*
X106875Y-137673D01*
X107229Y-138145D01*
X107465Y-138696D01*
X107583Y-139325D01*
Y-139955D01*
X107465Y-140584D01*
X107229Y-141135D01*
X106875Y-141607D01*
X106462Y-141921D01*
X105990Y-142000D01*
G01X109530D02*
Y-137280D01*
X111005D01*
X111477Y-137516D01*
X111772Y-137831D01*
X111890Y-138460D01*
X111772Y-139089D01*
X111418Y-139483D01*
X111005Y-139719D01*
X109530D01*
G01X111005D02*
X111890Y-142000D01*
G01X113896D02*
Y-137280D01*
X115430Y-141213D01*
X116964Y-137280D01*
Y-142000D01*
G01X118675D02*
X120150Y-137280D01*
X121625Y-142000D01*
G01X121094Y-140348D02*
X119206D01*
G01X124870Y-137280D02*
Y-142000D01*
G01X123513Y-137280D02*
X126227D01*
G01X128882D02*
X130298D01*
G01X129590D02*
Y-142000D01*
G01X128882D02*
X130298D01*
G01X134310D02*
X133838Y-141921D01*
X133425Y-141607D01*
X133071Y-141135D01*
X132835Y-140584D01*
X132717Y-139955D01*
Y-139325D01*
X132835Y-138696D01*
X133071Y-138145D01*
X133425Y-137673D01*
X133838Y-137359D01*
X134310Y-137280D01*
X134782Y-137359D01*
X135195Y-137673D01*
X135549Y-138145D01*
X135785Y-138696D01*
X135903Y-139325D01*
Y-139955D01*
X135785Y-140584D01*
X135549Y-141135D01*
X135195Y-141607D01*
X134782Y-141921D01*
X134310Y-142000D01*
G01X137673D02*
Y-137280D01*
X140387Y-142000D01*
Y-137280D01*
G01X26149Y-193000D02*
Y-188280D01*
X28391D01*
G01X27565Y-190561D02*
X26149D01*
G01X31282Y-188280D02*
X32698D01*
G01X31990D02*
Y-193000D01*
G01X31282D02*
X32698D01*
G01X35530Y-188280D02*
Y-193000D01*
X37890D01*
G01X39896D02*
Y-188280D01*
X41430Y-192213D01*
X42964Y-188280D01*
Y-193000D01*
G01X154270Y-196280D02*
X153798Y-196437D01*
X153444Y-196831D01*
X153208Y-197303D01*
X153031Y-197932D01*
X152972Y-198640D01*
X153031Y-199348D01*
X153208Y-199977D01*
X153444Y-200449D01*
X153798Y-200843D01*
X154270Y-201000D01*
X154742Y-200843D01*
X155096Y-200449D01*
X155332Y-199977D01*
X155509Y-199348D01*
X155568Y-198640D01*
X155509Y-197932D01*
X155332Y-197303D01*
X155096Y-196831D01*
X154742Y-196437D01*
X154270Y-196280D01*
G01X157987Y-200449D02*
X158400Y-200843D01*
X158872Y-201000D01*
X159344Y-200843D01*
X159757Y-200371D01*
X160052Y-199663D01*
X160170Y-198955D01*
Y-198089D01*
X160052Y-197381D01*
X159757Y-196752D01*
X159403Y-196437D01*
X158990Y-196280D01*
X158518Y-196437D01*
X158164Y-196752D01*
X157928Y-197224D01*
X157810Y-197853D01*
X157928Y-198404D01*
X158223Y-198955D01*
X158577Y-199269D01*
X158990Y-199348D01*
X159462Y-199191D01*
X159816Y-198797D01*
X160170Y-198089D01*
G01X162943Y-199427D02*
X164477D01*
G01X168430Y-196280D02*
X167958Y-196437D01*
X167604Y-196831D01*
X167368Y-197303D01*
X167191Y-197932D01*
X167132Y-198640D01*
X167191Y-199348D01*
X167368Y-199977D01*
X167604Y-200449D01*
X167958Y-200843D01*
X168430Y-201000D01*
X168902Y-200843D01*
X169256Y-200449D01*
X169492Y-199977D01*
X169669Y-199348D01*
X169728Y-198640D01*
X169669Y-197932D01*
X169492Y-197303D01*
X169256Y-196831D01*
X168902Y-196437D01*
X168430Y-196280D01*
G01X172029Y-199033D02*
X172442Y-198483D01*
X172796Y-198168D01*
X173268Y-198011D01*
X173681Y-198168D01*
X173976Y-198483D01*
X174212Y-198955D01*
X174271Y-199505D01*
X174212Y-199977D01*
X173976Y-200449D01*
X173622Y-200843D01*
X173209Y-201000D01*
X172737Y-200843D01*
X172324Y-200371D01*
X172088Y-199663D01*
X172029Y-198876D01*
X172147Y-197853D01*
X172324Y-197303D01*
X172619Y-196752D01*
X173032Y-196359D01*
X173445Y-196280D01*
X173858Y-196437D01*
X174153Y-196831D01*
G01X177103Y-199427D02*
X178637D01*
G01X182590Y-201000D02*
Y-196280D01*
X181882Y-197224D01*
G01Y-201000D02*
X183298D01*
G01X187310D02*
X187723Y-200921D01*
X188195Y-200685D01*
X188490Y-200292D01*
X188608Y-199741D01*
X188490Y-199191D01*
X188136Y-198719D01*
X187605Y-198483D01*
X187015D01*
X186661Y-198325D01*
X186366Y-197932D01*
X186248Y-197381D01*
X186425Y-196831D01*
X186838Y-196437D01*
X187310Y-196280D01*
X187782Y-196437D01*
X188195Y-196831D01*
X188372Y-197381D01*
X188254Y-197932D01*
X187959Y-198325D01*
X187605Y-198483D01*
X187015D01*
X186484Y-198719D01*
X186130Y-199191D01*
X186012Y-199741D01*
X186130Y-200292D01*
X186425Y-200685D01*
X186897Y-200921D01*
X187310Y-201000D01*
G01X150972Y-193000D02*
Y-188280D01*
X152152D01*
X152624Y-188516D01*
X152978Y-188831D01*
X153273Y-189303D01*
X153509Y-189853D01*
X153568Y-190640D01*
X153509Y-191427D01*
X153273Y-191977D01*
X152978Y-192449D01*
X152624Y-192764D01*
X152152Y-193000D01*
X150972D01*
G01X155515D02*
X156990Y-188280D01*
X158465Y-193000D01*
G01X157934Y-191348D02*
X156046D01*
G01X161710Y-188280D02*
Y-193000D01*
G01X160353Y-188280D02*
X163067D01*
G01X167610Y-193000D02*
X165250D01*
Y-188280D01*
X167610D01*
G01X166666Y-190561D02*
X165250D01*
G01X150913Y-113000D02*
Y-108280D01*
X153627Y-113000D01*
Y-108280D01*
G01X155515Y-113000D02*
X156990Y-108280D01*
X158465Y-113000D01*
G01X157934Y-111348D02*
X156046D01*
G01X160176Y-113000D02*
Y-108280D01*
X161710Y-112213D01*
X163244Y-108280D01*
Y-113000D01*
G01X167610D02*
X165250D01*
Y-108280D01*
X167610D01*
G01X166666Y-110561D02*
X165250D01*
G01X160500Y-179073D02*
X164040D01*
G01X165220D02*
X168760D01*
G01X169940D02*
X173480D01*
G01X179793Y-177500D02*
Y-172780D01*
X182507Y-177500D01*
Y-172780D01*
G01X187168Y-173173D02*
X186814Y-172937D01*
X186401Y-172780D01*
X185929D01*
X185398Y-173016D01*
X184985Y-173409D01*
X184690Y-173881D01*
X184454Y-174668D01*
X184395Y-175376D01*
X184513Y-176084D01*
X184690Y-176556D01*
X185044Y-177028D01*
X185457Y-177343D01*
X185870Y-177500D01*
X186283D01*
X186696Y-177343D01*
X187050Y-177107D01*
X187345Y-176792D01*
G01X189410Y-177500D02*
Y-172780D01*
X190826D01*
X191298Y-173016D01*
X191652Y-173567D01*
X191770Y-174196D01*
X191652Y-174825D01*
X191357Y-175297D01*
X190826Y-175533D01*
X189410D01*
G01X199735Y-179073D02*
X199145Y-178287D01*
X198850Y-177500D01*
Y-174353D01*
X199145Y-173567D01*
X199735Y-172780D01*
G01X203393Y-177500D02*
Y-172780D01*
X206107Y-177500D01*
Y-172780D01*
G01X208231Y-177500D02*
X210709Y-172780D01*
G01X208231D02*
X210709Y-177500D01*
G01X213010D02*
Y-172780D01*
X214426D01*
X214898Y-173016D01*
X215252Y-173567D01*
X215370Y-174196D01*
X215252Y-174825D01*
X214957Y-175297D01*
X214426Y-175533D01*
X213010D01*
G01X224928Y-173173D02*
X224574Y-172937D01*
X224161Y-172780D01*
X223689D01*
X223158Y-173016D01*
X222745Y-173409D01*
X222450Y-173881D01*
X222214Y-174668D01*
X222155Y-175376D01*
X222273Y-176084D01*
X222450Y-176556D01*
X222804Y-177028D01*
X223217Y-177343D01*
X223630Y-177500D01*
X224043D01*
X224456Y-177343D01*
X224810Y-177107D01*
X225105Y-176792D01*
G01X228350Y-177500D02*
X227878Y-177421D01*
X227465Y-177107D01*
X227111Y-176635D01*
X226875Y-176084D01*
X226757Y-175455D01*
Y-174825D01*
X226875Y-174196D01*
X227111Y-173645D01*
X227465Y-173173D01*
X227878Y-172859D01*
X228350Y-172780D01*
X228822Y-172859D01*
X229235Y-173173D01*
X229589Y-173645D01*
X229825Y-174196D01*
X229943Y-174825D01*
Y-175455D01*
X229825Y-176084D01*
X229589Y-176635D01*
X229235Y-177107D01*
X228822Y-177421D01*
X228350Y-177500D01*
G01X231713D02*
Y-172780D01*
X234427Y-177500D01*
Y-172780D01*
G01X236669Y-177500D02*
Y-172780D01*
X238911D01*
G01X238085Y-175061D02*
X236669D01*
G01X241802Y-172780D02*
X243218D01*
G01X242510D02*
Y-177500D01*
G01X241802D02*
X243218D01*
G01X245932D02*
Y-172780D01*
X247112D01*
X247584Y-173016D01*
X247938Y-173331D01*
X248233Y-173803D01*
X248469Y-174353D01*
X248528Y-175140D01*
X248469Y-175927D01*
X248233Y-176477D01*
X247938Y-176949D01*
X247584Y-177264D01*
X247112Y-177500D01*
X245932D01*
G01X253130D02*
X250770D01*
Y-172780D01*
X253130D01*
G01X252186Y-175061D02*
X250770D01*
G01X255313Y-177500D02*
Y-172780D01*
X258027Y-177500D01*
Y-172780D01*
G01X261390D02*
Y-177500D01*
G01X260033Y-172780D02*
X262747D01*
G01X265402D02*
X266818D01*
G01X266110D02*
Y-177500D01*
G01X265402D02*
X266818D01*
G01X269355D02*
X270830Y-172780D01*
X272305Y-177500D01*
G01X271774Y-175848D02*
X269886D01*
G01X274370Y-172780D02*
Y-177500D01*
X276730D01*
G01X283810D02*
Y-172780D01*
X285226D01*
X285698Y-173016D01*
X286052Y-173567D01*
X286170Y-174196D01*
X286052Y-174825D01*
X285757Y-175297D01*
X285226Y-175533D01*
X283810D01*
G01X288530Y-177500D02*
Y-172780D01*
X290005D01*
X290477Y-173016D01*
X290772Y-173331D01*
X290890Y-173960D01*
X290772Y-174589D01*
X290418Y-174983D01*
X290005Y-175219D01*
X288530D01*
G01X290005D02*
X290890Y-177500D01*
G01X294430D02*
X293958Y-177421D01*
X293545Y-177107D01*
X293191Y-176635D01*
X292955Y-176084D01*
X292837Y-175455D01*
Y-174825D01*
X292955Y-174196D01*
X293191Y-173645D01*
X293545Y-173173D01*
X293958Y-172859D01*
X294430Y-172780D01*
X294902Y-172859D01*
X295315Y-173173D01*
X295669Y-173645D01*
X295905Y-174196D01*
X296023Y-174825D01*
Y-175455D01*
X295905Y-176084D01*
X295669Y-176635D01*
X295315Y-177107D01*
X294902Y-177421D01*
X294430Y-177500D01*
G01X297970D02*
Y-172780D01*
X299386D01*
X299858Y-173016D01*
X300212Y-173567D01*
X300330Y-174196D01*
X300212Y-174825D01*
X299917Y-175297D01*
X299386Y-175533D01*
X297970D01*
G01X302690Y-177500D02*
Y-172780D01*
X304165D01*
X304637Y-173016D01*
X304932Y-173331D01*
X305050Y-173960D01*
X304932Y-174589D01*
X304578Y-174983D01*
X304165Y-175219D01*
X302690D01*
G01X304165D02*
X305050Y-177500D01*
G01X307882Y-172780D02*
X309298D01*
G01X308590D02*
Y-177500D01*
G01X307882D02*
X309298D01*
G01X314490D02*
X312130D01*
Y-172780D01*
X314490D01*
G01X313546Y-175061D02*
X312130D01*
G01X318030Y-172780D02*
Y-177500D01*
G01X316673Y-172780D02*
X319387D01*
G01X321275Y-177500D02*
X322750Y-172780D01*
X324225Y-177500D01*
G01X323694Y-175848D02*
X321806D01*
G01X326290Y-177500D02*
Y-172780D01*
X327765D01*
X328237Y-173016D01*
X328532Y-173331D01*
X328650Y-173960D01*
X328532Y-174589D01*
X328178Y-174983D01*
X327765Y-175219D01*
X326290D01*
G01X327765D02*
X328650Y-177500D01*
G01X332190D02*
Y-175376D01*
X331010Y-172780D01*
G01X333370D02*
X332190Y-175376D01*
G01X337205Y-179073D02*
X337795Y-178287D01*
X338090Y-177500D01*
Y-174353D01*
X337795Y-173567D01*
X337205Y-172780D01*
G01X160500Y-162573D02*
X164040D01*
G01X165220D02*
X168760D01*
G01X169940D02*
X173480D01*
G01X179793Y-161000D02*
Y-156280D01*
X182507Y-161000D01*
Y-156280D01*
G01X185162D02*
X186578D01*
G01X185870D02*
Y-161000D01*
G01X185162D02*
X186578D01*
G01X189292Y-156280D02*
Y-159663D01*
X189528Y-160371D01*
X190000Y-160843D01*
X190590Y-161000D01*
X191180Y-160843D01*
X191652Y-160371D01*
X191888Y-159663D01*
Y-156280D01*
G01X195310Y-161000D02*
X194838Y-160921D01*
X194425Y-160607D01*
X194071Y-160135D01*
X193835Y-159584D01*
X193717Y-158955D01*
Y-158325D01*
X193835Y-157696D01*
X194071Y-157145D01*
X194425Y-156673D01*
X194838Y-156359D01*
X195310Y-156280D01*
X195782Y-156359D01*
X196195Y-156673D01*
X196549Y-157145D01*
X196785Y-157696D01*
X196903Y-158325D01*
Y-158955D01*
X196785Y-159584D01*
X196549Y-160135D01*
X196195Y-160607D01*
X195782Y-160921D01*
X195310Y-161000D01*
G01X204455Y-162573D02*
X203865Y-161787D01*
X203570Y-161000D01*
Y-157853D01*
X203865Y-157067D01*
X204455Y-156280D01*
G01X208113Y-161000D02*
Y-156280D01*
X210827Y-161000D01*
Y-156280D01*
G01X212951Y-161000D02*
X215429Y-156280D01*
G01X212951D02*
X215429Y-161000D01*
G01X217730D02*
Y-156280D01*
X219146D01*
X219618Y-156516D01*
X219972Y-157067D01*
X220090Y-157696D01*
X219972Y-158325D01*
X219677Y-158797D01*
X219146Y-159033D01*
X217730D01*
G01X227642Y-156280D02*
X229058D01*
G01X228350D02*
Y-161000D01*
G01X227642D02*
X229058D01*
G01X231713D02*
Y-156280D01*
X234427Y-161000D01*
Y-156280D01*
G01X237790D02*
Y-161000D01*
G01X236433Y-156280D02*
X239147D01*
G01X243690Y-161000D02*
X241330D01*
Y-156280D01*
X243690D01*
G01X242746Y-158561D02*
X241330D01*
G01X246050Y-161000D02*
Y-156280D01*
X247525D01*
X247997Y-156516D01*
X248292Y-156831D01*
X248410Y-157460D01*
X248292Y-158089D01*
X247938Y-158483D01*
X247525Y-158719D01*
X246050D01*
G01X247525D02*
X248410Y-161000D01*
G01X250593D02*
Y-156280D01*
X253307Y-161000D01*
Y-156280D01*
G01X255195Y-161000D02*
X256670Y-156280D01*
X258145Y-161000D01*
G01X257614Y-159348D02*
X255726D01*
G01X260210Y-156280D02*
Y-161000D01*
X262570D01*
G01X269532Y-156280D02*
Y-159663D01*
X269768Y-160371D01*
X270240Y-160843D01*
X270830Y-161000D01*
X271420Y-160843D01*
X271892Y-160371D01*
X272128Y-159663D01*
Y-156280D01*
G01X274311Y-160371D02*
X274783Y-160764D01*
X275314Y-161000D01*
X275786D01*
X276258Y-160764D01*
X276612Y-160371D01*
X276789Y-159820D01*
X276671Y-159269D01*
X276376Y-158797D01*
X275845Y-158483D01*
X275137Y-158325D01*
X274724Y-158011D01*
X274547Y-157460D01*
X274665Y-156909D01*
X274960Y-156516D01*
X275373Y-156280D01*
X275786D01*
X276199Y-156437D01*
X276553Y-156831D01*
G01X281450Y-161000D02*
X279090D01*
Y-156280D01*
X281450D01*
G01X280506Y-158561D02*
X279090D01*
G01X289710Y-161000D02*
X289238Y-160921D01*
X288825Y-160607D01*
X288471Y-160135D01*
X288235Y-159584D01*
X288117Y-158955D01*
Y-158325D01*
X288235Y-157696D01*
X288471Y-157145D01*
X288825Y-156673D01*
X289238Y-156359D01*
X289710Y-156280D01*
X290182Y-156359D01*
X290595Y-156673D01*
X290949Y-157145D01*
X291185Y-157696D01*
X291303Y-158325D01*
Y-158955D01*
X291185Y-159584D01*
X290949Y-160135D01*
X290595Y-160607D01*
X290182Y-160921D01*
X289710Y-161000D01*
G01X293073D02*
Y-156280D01*
X295787Y-161000D01*
Y-156280D01*
G01X297970D02*
Y-161000D01*
X300330D01*
G01X303870D02*
Y-158876D01*
X302690Y-156280D01*
G01X305050D02*
X303870Y-158876D01*
G01X308885Y-162573D02*
X309475Y-161787D01*
X309770Y-161000D01*
Y-157853D01*
X309475Y-157067D01*
X308885Y-156280D01*
G01X160500Y-146573D02*
X164040D01*
G01X165220D02*
X168760D01*
G01X169940D02*
X173480D01*
G01X179970Y-145000D02*
Y-140280D01*
X181386D01*
X181858Y-140516D01*
X182212Y-141067D01*
X182330Y-141696D01*
X182212Y-142325D01*
X181917Y-142797D01*
X181386Y-143033D01*
X179970D01*
G01X184572Y-140280D02*
Y-143663D01*
X184808Y-144371D01*
X185280Y-144843D01*
X185870Y-145000D01*
X186460Y-144843D01*
X186932Y-144371D01*
X187168Y-143663D01*
Y-140280D01*
G01X191062Y-142483D02*
X191298Y-142247D01*
X191475Y-141853D01*
X191593Y-141303D01*
X191475Y-140831D01*
X191239Y-140516D01*
X190826Y-140280D01*
X189233D01*
Y-145000D01*
X191180D01*
X191593Y-144685D01*
X191829Y-144213D01*
X191947Y-143663D01*
X191829Y-143112D01*
X191475Y-142640D01*
X191062Y-142483D01*
X189233D01*
G01X194602Y-140280D02*
X196018D01*
G01X195310D02*
Y-145000D01*
G01X194602D02*
X196018D01*
G01X204455Y-146573D02*
X203865Y-145787D01*
X203570Y-145000D01*
Y-141853D01*
X203865Y-141067D01*
X204455Y-140280D01*
G01X208290Y-145000D02*
Y-140280D01*
X209706D01*
X210178Y-140516D01*
X210532Y-141067D01*
X210650Y-141696D01*
X210532Y-142325D01*
X210237Y-142797D01*
X209706Y-143033D01*
X208290D01*
G01X212892Y-140280D02*
Y-143663D01*
X213128Y-144371D01*
X213600Y-144843D01*
X214190Y-145000D01*
X214780Y-144843D01*
X215252Y-144371D01*
X215488Y-143663D01*
Y-140280D01*
G01X219382Y-142483D02*
X219618Y-142247D01*
X219795Y-141853D01*
X219913Y-141303D01*
X219795Y-140831D01*
X219559Y-140516D01*
X219146Y-140280D01*
X217553D01*
Y-145000D01*
X219500D01*
X219913Y-144685D01*
X220149Y-144213D01*
X220267Y-143663D01*
X220149Y-143112D01*
X219795Y-142640D01*
X219382Y-142483D01*
X217553D01*
G01X222450Y-140280D02*
Y-145000D01*
X224810D01*
G01X227642Y-140280D02*
X229058D01*
G01X228350D02*
Y-145000D01*
G01X227642D02*
X229058D01*
G01X234368Y-140673D02*
X234014Y-140437D01*
X233601Y-140280D01*
X233129D01*
X232598Y-140516D01*
X232185Y-140909D01*
X231890Y-141381D01*
X231654Y-142168D01*
X231595Y-142876D01*
X231713Y-143584D01*
X231890Y-144056D01*
X232244Y-144528D01*
X232657Y-144843D01*
X233070Y-145000D01*
X233483D01*
X233896Y-144843D01*
X234250Y-144607D01*
X234545Y-144292D01*
G01X241802Y-140280D02*
X243218D01*
G01X242510D02*
Y-145000D01*
G01X241802D02*
X243218D01*
G01X245873D02*
Y-140280D01*
X248587Y-145000D01*
Y-140280D01*
G01X250829Y-145000D02*
Y-140280D01*
X253071D01*
G01X252245Y-142561D02*
X250829D01*
G01X256670Y-145000D02*
X256198Y-144921D01*
X255785Y-144607D01*
X255431Y-144135D01*
X255195Y-143584D01*
X255077Y-142955D01*
Y-142325D01*
X255195Y-141696D01*
X255431Y-141145D01*
X255785Y-140673D01*
X256198Y-140359D01*
X256670Y-140280D01*
X257142Y-140359D01*
X257555Y-140673D01*
X257909Y-141145D01*
X258145Y-141696D01*
X258263Y-142325D01*
Y-142955D01*
X258145Y-143584D01*
X257909Y-144135D01*
X257555Y-144607D01*
X257142Y-144921D01*
X256670Y-145000D01*
G01X260210D02*
Y-140280D01*
X261685D01*
X262157Y-140516D01*
X262452Y-140831D01*
X262570Y-141460D01*
X262452Y-142089D01*
X262098Y-142483D01*
X261685Y-142719D01*
X260210D01*
G01X261685D02*
X262570Y-145000D01*
G01X264576D02*
Y-140280D01*
X266110Y-144213D01*
X267644Y-140280D01*
Y-145000D01*
G01X269355D02*
X270830Y-140280D01*
X272305Y-145000D01*
G01X271774Y-143348D02*
X269886D01*
G01X275550Y-140280D02*
Y-145000D01*
G01X274193Y-140280D02*
X276907D01*
G01X279562D02*
X280978D01*
G01X280270D02*
Y-145000D01*
G01X279562D02*
X280978D01*
G01X284990D02*
X284518Y-144921D01*
X284105Y-144607D01*
X283751Y-144135D01*
X283515Y-143584D01*
X283397Y-142955D01*
Y-142325D01*
X283515Y-141696D01*
X283751Y-141145D01*
X284105Y-140673D01*
X284518Y-140359D01*
X284990Y-140280D01*
X285462Y-140359D01*
X285875Y-140673D01*
X286229Y-141145D01*
X286465Y-141696D01*
X286583Y-142325D01*
Y-142955D01*
X286465Y-143584D01*
X286229Y-144135D01*
X285875Y-144607D01*
X285462Y-144921D01*
X284990Y-145000D01*
G01X288353D02*
Y-140280D01*
X291067Y-145000D01*
Y-140280D01*
G01X294725Y-146573D02*
X295315Y-145787D01*
X295610Y-145000D01*
Y-141853D01*
X295315Y-141067D01*
X294725Y-140280D01*
G01X200913Y-193000D02*
Y-188280D01*
X203627Y-193000D01*
Y-188280D01*
G01X205692D02*
Y-191663D01*
X205928Y-192371D01*
X206400Y-192843D01*
X206990Y-193000D01*
X207580Y-192843D01*
X208052Y-192371D01*
X208288Y-191663D01*
Y-188280D01*
G01X210176Y-193000D02*
Y-188280D01*
X211710Y-192213D01*
X213244Y-188280D01*
Y-193000D01*
G01X216902Y-190483D02*
X217138Y-190247D01*
X217315Y-189853D01*
X217433Y-189303D01*
X217315Y-188831D01*
X217079Y-188516D01*
X216666Y-188280D01*
X215073D01*
Y-193000D01*
X217020D01*
X217433Y-192685D01*
X217669Y-192213D01*
X217787Y-191663D01*
X217669Y-191112D01*
X217315Y-190640D01*
X216902Y-190483D01*
X215073D01*
G01X222330Y-193000D02*
X219970D01*
Y-188280D01*
X222330D01*
G01X221386Y-190561D02*
X219970D01*
G01X224690Y-193000D02*
Y-188280D01*
X226165D01*
X226637Y-188516D01*
X226932Y-188831D01*
X227050Y-189460D01*
X226932Y-190089D01*
X226578Y-190483D01*
X226165Y-190719D01*
X224690D01*
G01X226165D02*
X227050Y-193000D01*
G54D119*
X353274Y361201D03*
G54D17*
X12475Y155000D03*
X4525D03*
X66525Y153000D03*
Y164000D03*
X68475Y241000D03*
X60525D03*
X74475Y153000D03*
Y164000D03*
X124525Y147000D03*
X132475D03*
G54D53*
X78500Y78250D03*
Y91750D03*
X349500Y182250D03*
Y195750D03*
X363500Y182250D03*
Y195750D03*
G54D44*
X63500Y7479D03*
Y17321D03*
G54D26*
X20732Y375740D03*
X37268D03*
X314732D03*
X331268D03*
G54D71*
X118327Y333941D03*
Y339059D03*
X126673Y336500D03*
X346827Y206000D03*
X355173Y208559D03*
Y203441D03*
G54D80*
X161000Y362000D03*
X267500Y80000D03*
G54D62*
X97957Y121362D03*
G54D35*
X48866Y59650D03*
Y53350D03*
Y54925D03*
Y56500D03*
Y58075D03*
X57134Y59650D03*
Y58075D03*
Y56500D03*
Y54925D03*
Y53350D03*
G54D36*
X55362Y53154D03*
X53787D03*
X52213D03*
X50638D03*
Y59846D03*
X52213D03*
X53787D03*
X55362D03*
G54D27*
X28425Y47362D03*
X31575D03*
X28425Y45787D03*
X30000Y46575D03*
X31575Y45787D03*
X28425Y44213D03*
X30000Y43425D03*
X31575Y44213D03*
X28425Y42638D03*
X31575D03*
Y62437D03*
Y60862D03*
Y59287D03*
Y57713D03*
Y56138D03*
Y54563D03*
X30000Y61650D03*
Y58500D03*
Y55350D03*
X28425Y62437D03*
Y60862D03*
Y59287D03*
Y57713D03*
Y56138D03*
Y54563D03*
X145500Y62650D03*
Y59500D03*
Y56350D03*
X143925Y61862D03*
Y60287D03*
Y58713D03*
Y57138D03*
Y55563D03*
Y63437D03*
X147075Y61862D03*
Y60287D03*
Y58713D03*
Y57138D03*
Y55563D03*
Y63437D03*
X273563Y44575D03*
X275138D03*
X276713D03*
X278287D03*
X279862D03*
X274350Y43000D03*
X277500D03*
X280650D03*
X273563Y41425D03*
X275138D03*
X276713D03*
X278287D03*
X279862D03*
X281437Y44575D03*
Y41425D03*
X288638D03*
Y44575D03*
X290213Y41425D03*
X289425Y43000D03*
X290213Y44575D03*
X291787Y41425D03*
Y44575D03*
X292575Y43000D03*
X293362Y41425D03*
Y44575D03*
G54D45*
X67800Y28800D03*
Y38800D03*
X199500Y330000D03*
Y340000D03*
X208000Y76000D03*
Y66000D03*
X207000Y330000D03*
Y340000D03*
X252500Y278000D03*
Y288000D03*
G54D54*
X77000Y195000D03*
G54D18*
X4386Y197591D03*
Y194441D03*
Y207039D03*
Y203890D03*
Y200740D03*
Y219638D03*
Y216488D03*
Y213339D03*
Y210189D03*
Y229087D03*
Y225937D03*
Y222787D03*
Y241685D03*
Y238535D03*
Y235386D03*
Y232236D03*
Y247984D03*
Y244835D03*
Y286240D03*
Y283091D03*
Y279941D03*
Y298839D03*
Y295689D03*
Y292539D03*
Y289390D03*
Y308287D03*
Y305138D03*
Y301988D03*
Y320886D03*
Y317736D03*
Y314587D03*
Y311437D03*
Y330335D03*
Y327185D03*
Y324035D03*
Y333484D03*
X27614Y196016D03*
Y208614D03*
Y205465D03*
Y202315D03*
Y199165D03*
Y218063D03*
Y214913D03*
Y211764D03*
Y230661D03*
Y227512D03*
Y224362D03*
Y221213D03*
Y243260D03*
Y240110D03*
Y236961D03*
Y233811D03*
Y249559D03*
Y246409D03*
Y287815D03*
Y284665D03*
Y281516D03*
Y297264D03*
Y294114D03*
Y290965D03*
Y309862D03*
Y306713D03*
Y303563D03*
Y300413D03*
Y319311D03*
Y316161D03*
Y313012D03*
Y331909D03*
Y328760D03*
Y325610D03*
Y322461D03*
Y335059D03*
G54D63*
X91309Y253576D03*
X95691D03*
X91309Y265424D03*
X95691D03*
G54D72*
X134456Y212956D03*
X136544Y215044D03*
G54D90*
X256941Y50728D03*
Y59272D03*
X262059Y50728D03*
X259500D03*
Y59272D03*
X262059D03*
G54D81*
X177041Y85339D03*
Y96362D03*
Y94787D03*
Y93213D03*
Y91638D03*
Y90063D03*
Y88488D03*
Y86913D03*
Y99512D03*
Y97937D03*
Y102661D03*
Y101087D03*
X200959Y85339D03*
Y96362D03*
Y94787D03*
Y93213D03*
Y91638D03*
Y90063D03*
Y88488D03*
Y86913D03*
Y102661D03*
Y101087D03*
Y99512D03*
Y97937D03*
G54D91*
X256661Y254035D03*
Y270965D03*
X259220Y254035D03*
X261780D03*
X264339D03*
Y270965D03*
X261780D03*
X259220D03*
G54D55*
X74571Y216500D03*
X68429D03*
X125929Y355000D03*
X132071D03*
X268929Y195500D03*
Y203000D03*
X275071Y195500D03*
Y203000D03*
G54D73*
X132807Y364701D03*
X146193D03*
X139500D03*
G54D37*
X46531Y85835D03*
X50469D03*
X48500Y90165D03*
G54D19*
X14370Y50587D03*
Y46650D03*
Y48618D03*
Y44681D03*
Y60429D03*
Y62398D03*
Y52555D03*
Y56492D03*
Y54524D03*
Y58461D03*
Y64366D03*
Y66335D03*
G54D46*
X64500Y227500D03*
X128500Y133500D03*
G54D64*
X98244Y354000D03*
X103756Y355969D03*
Y352031D03*
G54D28*
X31000Y85000D03*
Y89000D03*
X143500Y4500D03*
Y8500D03*
X147500Y4500D03*
Y8500D03*
X268500Y226000D03*
X272500D03*
X342000Y314500D03*
X346000D03*
X342500Y341000D03*
X346500D03*
G54D82*
X180339Y82041D03*
X181913D03*
X183488D03*
X185063D03*
X186638D03*
X188213D03*
X189787D03*
X180339Y105959D03*
X181913D03*
X183488D03*
X185063D03*
X186638D03*
X188213D03*
X189787D03*
X191362Y82041D03*
X192937D03*
X194512D03*
X196087D03*
X197661D03*
X191362Y105959D03*
X192937D03*
X194512D03*
X196087D03*
X197661D03*
G54D65*
X99185Y362654D03*
Y369346D03*
X109815Y362654D03*
Y369346D03*
G54D92*
X269250Y184500D03*
X282750D03*
G54D83*
X213531Y321925D03*
G54D38*
X46531Y91740D03*
G54D47*
X59185Y225531D03*
Y229469D03*
Y227500D03*
X123185Y131531D03*
Y135469D03*
Y133500D03*
G54D29*
X25705Y138874D03*
Y170126D03*
X51295Y138874D03*
Y170126D03*
G54D56*
X69815Y227500D03*
X133815Y133500D03*
G54D74*
X145000Y16500D03*
Y27500D03*
G54D84*
X209988Y359720D03*
X271012D03*
G54D75*
X147000Y35988D03*
Y47012D03*
G54D93*
X271012Y322319D03*
G54D48*
X62531Y223760D03*
X64500D03*
X66469D03*
Y231240D03*
X64500D03*
X62531D03*
X126531Y129760D03*
X128500D03*
X130469D03*
Y137240D03*
X128500D03*
X126531D03*
G54D57*
X84291Y28780D03*
Y26220D03*
Y23661D03*
Y31339D03*
G54D39*
X58500Y111000D03*
X80300D03*
G54D66*
X109075Y87079D03*
X107500D03*
X105925D03*
Y96921D03*
X107500D03*
X109075D03*
G54D58*
X81079Y39700D03*
X90921D03*
G54D49*
X59683Y295123D03*
X64014D03*
X68345D03*
X72676D03*
X77006D03*
X81337D03*
X85668D03*
X89998D03*
G54D94*
X287900Y69000D03*
Y74000D03*
Y79000D03*
Y84000D03*
X312100Y74000D03*
Y69000D03*
Y84000D03*
Y79000D03*
G54D67*
X102579Y88850D03*
Y90425D03*
Y92000D03*
Y93575D03*
Y95150D03*
X112421D03*
Y93575D03*
Y92000D03*
Y90425D03*
Y88850D03*
X105043Y116638D03*
Y119787D03*
Y121362D03*
G54D76*
X144291Y207909D03*
Y205350D03*
Y220705D03*
Y218146D03*
Y215587D03*
Y213028D03*
Y210469D03*
Y230941D03*
Y228382D03*
Y225823D03*
Y223264D03*
Y241177D03*
Y238618D03*
Y236059D03*
Y233500D03*
Y253972D03*
Y251413D03*
Y248854D03*
Y246295D03*
Y243736D03*
Y261650D03*
Y259091D03*
Y256531D03*
X146850Y207909D03*
X149409D03*
X151969D03*
X154528D03*
X157087D03*
X146850Y205350D03*
X149409D03*
X151969D03*
X154528D03*
X157087D03*
X146850Y202791D03*
X149409D03*
X151969D03*
X154528D03*
X157087D03*
X146850Y220705D03*
X149409D03*
X151969D03*
X154528D03*
X157087D03*
X146850Y218146D03*
X149409D03*
X151969D03*
X154528D03*
X157087D03*
X146850Y215587D03*
X149409D03*
X151969D03*
X154528D03*
X157087D03*
X146850Y213028D03*
X149409D03*
X151969D03*
X154528D03*
X157087D03*
X146850Y210469D03*
X149409D03*
X151969D03*
X154528D03*
X157087D03*
X146850Y230941D03*
X149409D03*
X151969D03*
X154528D03*
X157087D03*
X146850Y228382D03*
X149409D03*
X151969D03*
X154528D03*
X157087D03*
X146850Y225823D03*
X149409D03*
X151969D03*
X154528D03*
X157087D03*
X146850Y223264D03*
X149409D03*
X151969D03*
X154528D03*
X157087D03*
X146850Y241177D03*
X149409D03*
X151969D03*
X154528D03*
X157087D03*
X146850Y238618D03*
X149409D03*
X151969D03*
X154528D03*
X157087D03*
X146850Y236059D03*
X149409D03*
X151969D03*
X154528D03*
X157087D03*
X146850Y233500D03*
X149409D03*
X151969D03*
X154528D03*
X157087D03*
X146850Y253972D03*
X149409D03*
X151969D03*
X154528D03*
X157087D03*
X146850Y251413D03*
X149409D03*
X151969D03*
X154528D03*
X157087D03*
X146850Y248854D03*
X149409D03*
X151969D03*
X154528D03*
X157087D03*
X146850Y246295D03*
X149409D03*
X151969D03*
X154528D03*
X157087D03*
X146850Y243736D03*
X149409D03*
X151969D03*
X154528D03*
X157087D03*
X146850Y264209D03*
X149409D03*
X151969D03*
X154528D03*
X157087D03*
X146850Y261650D03*
X149409D03*
X151969D03*
X154528D03*
X157087D03*
X146850Y259091D03*
X149409D03*
X151969D03*
X154528D03*
X157087D03*
X146850Y256531D03*
X149409D03*
X151969D03*
X154528D03*
X157087D03*
X159646Y207909D03*
X162205D03*
X164764D03*
X167323D03*
X159646Y205350D03*
X162205D03*
X164764D03*
X167323D03*
X159646Y202791D03*
X162205D03*
X164764D03*
X167323D03*
X159646Y220705D03*
X162205D03*
X164764D03*
X167323D03*
X159646Y218146D03*
X162205D03*
X164764D03*
X167323D03*
X159646Y215587D03*
X162205D03*
X164764D03*
X167323D03*
X159646Y213028D03*
X162205D03*
X164764D03*
X167323D03*
X159646Y210469D03*
X162205D03*
X164764D03*
X167323D03*
X159646Y230941D03*
X162205D03*
X164764D03*
X167323D03*
X159646Y228382D03*
X162205D03*
X164764D03*
X167323D03*
X159646Y225823D03*
X162205D03*
X164764D03*
X167323D03*
X159646Y223264D03*
X162205D03*
X164764D03*
X167323D03*
X159646Y241177D03*
X162205D03*
X164764D03*
X167323D03*
X159646Y238618D03*
X162205D03*
X164764D03*
X167323D03*
X159646Y236059D03*
X162205D03*
X164764D03*
X167323D03*
X159646Y233500D03*
X162205D03*
X164764D03*
X167323D03*
X159646Y253972D03*
X162205D03*
X164764D03*
X167323D03*
X159646Y251413D03*
X162205D03*
X164764D03*
X167323D03*
X159646Y248854D03*
X162205D03*
X164764D03*
X167323D03*
X159646Y246295D03*
X162205D03*
X164764D03*
X167323D03*
X159646Y243736D03*
X162205D03*
X164764D03*
X167323D03*
X159646Y264209D03*
X162205D03*
X164764D03*
X167323D03*
X159646Y261650D03*
X162205D03*
X164764D03*
X167323D03*
X159646Y259091D03*
X162205D03*
X164764D03*
X167323D03*
X159646Y256531D03*
X162205D03*
X164764D03*
X167323D03*
X169882Y207909D03*
X172441D03*
X175000D03*
X177559D03*
X169882Y205350D03*
X172441D03*
X175000D03*
X177559D03*
X169882Y202791D03*
X172441D03*
X175000D03*
X177559D03*
X169882Y220705D03*
X172441D03*
X175000D03*
X177559D03*
X169882Y218146D03*
X172441D03*
X175000D03*
X177559D03*
X169882Y215587D03*
X172441D03*
X175000D03*
X177559D03*
X169882Y213028D03*
X172441D03*
X175000D03*
X177559D03*
X169882Y210469D03*
X172441D03*
X175000D03*
X177559D03*
X169882Y230941D03*
X172441D03*
X175000D03*
X177559D03*
X169882Y228382D03*
X172441D03*
X175000D03*
X177559D03*
X169882Y225823D03*
X172441D03*
X175000D03*
X177559D03*
X169882Y223264D03*
X172441D03*
X175000D03*
X177559D03*
X169882Y241177D03*
X172441D03*
X175000D03*
X177559D03*
X169882Y238618D03*
X172441D03*
X175000D03*
X177559D03*
X169882Y236059D03*
X172441D03*
X175000D03*
X177559D03*
X169882Y233500D03*
X172441D03*
X175000D03*
X177559D03*
X169882Y253972D03*
X172441D03*
X175000D03*
X177559D03*
X169882Y251413D03*
X172441D03*
X175000D03*
X177559D03*
X169882Y248854D03*
X172441D03*
X175000D03*
X177559D03*
X169882Y246295D03*
X172441D03*
X175000D03*
X177559D03*
X169882Y243736D03*
X172441D03*
X175000D03*
X177559D03*
X169882Y264209D03*
X172441D03*
X175000D03*
X177559D03*
X169882Y261650D03*
X172441D03*
X175000D03*
X177559D03*
X169882Y259091D03*
X172441D03*
X175000D03*
X177559D03*
X169882Y256531D03*
X172441D03*
X175000D03*
X177559D03*
X180118Y207909D03*
X182677D03*
X185236D03*
X187795D03*
X190354D03*
X180118Y205350D03*
X182677D03*
X185236D03*
X187795D03*
X190354D03*
X180118Y202791D03*
X182677D03*
X185236D03*
X187795D03*
X190354D03*
X180118Y220705D03*
X182677D03*
X185236D03*
X187795D03*
X190354D03*
X180118Y218146D03*
X182677D03*
X185236D03*
X187795D03*
X190354D03*
X180118Y215587D03*
X182677D03*
X185236D03*
X187795D03*
X190354D03*
X180118Y213028D03*
X182677D03*
X185236D03*
X187795D03*
X190354D03*
X180118Y210469D03*
X182677D03*
X185236D03*
X187795D03*
X190354D03*
X180118Y230941D03*
X182677D03*
X185236D03*
X187795D03*
X190354D03*
X180118Y228382D03*
X182677D03*
X185236D03*
X187795D03*
X190354D03*
X180118Y225823D03*
X182677D03*
X185236D03*
X187795D03*
X190354D03*
X180118Y223264D03*
X182677D03*
X185236D03*
X187795D03*
X190354D03*
X180118Y241177D03*
X182677D03*
X185236D03*
X187795D03*
X190354D03*
X180118Y238618D03*
X182677D03*
X185236D03*
X187795D03*
X190354D03*
X180118Y236059D03*
X182677D03*
X185236D03*
X187795D03*
X190354D03*
X180118Y233500D03*
X182677D03*
X185236D03*
X187795D03*
X190354D03*
X180118Y253972D03*
X182677D03*
X185236D03*
X187795D03*
X190354D03*
X180118Y251413D03*
X182677D03*
X185236D03*
X187795D03*
X190354D03*
X180118Y248854D03*
X182677D03*
X185236D03*
X187795D03*
X190354D03*
X180118Y246295D03*
X182677D03*
X185236D03*
X187795D03*
X190354D03*
X180118Y243736D03*
X182677D03*
X185236D03*
X187795D03*
X190354D03*
X180118Y264209D03*
X182677D03*
X185236D03*
X187795D03*
X190354D03*
X180118Y261650D03*
X182677D03*
X185236D03*
X187795D03*
X190354D03*
X180118Y259091D03*
X182677D03*
X185236D03*
X187795D03*
X190354D03*
X180118Y256531D03*
X182677D03*
X185236D03*
X187795D03*
X190354D03*
X192913Y207909D03*
X195472D03*
X198031D03*
X200591D03*
X192913Y205350D03*
X195472D03*
X198031D03*
X200591D03*
X192913Y202791D03*
X195472D03*
X198031D03*
X200591D03*
X192913Y220705D03*
X195472D03*
X198031D03*
X200591D03*
X192913Y218146D03*
X195472D03*
X198031D03*
X200591D03*
X192913Y215587D03*
X195472D03*
X198031D03*
X200591D03*
X192913Y213028D03*
X195472D03*
X198031D03*
X200591D03*
X192913Y210469D03*
X195472D03*
X198031D03*
X200591D03*
X192913Y230941D03*
X195472D03*
X198031D03*
X200591D03*
X192913Y228382D03*
X195472D03*
X198031D03*
X200591D03*
X192913Y225823D03*
X195472D03*
X198031D03*
X200591D03*
X192913Y223264D03*
X195472D03*
X198031D03*
X200591D03*
X192913Y241177D03*
X195472D03*
X198031D03*
X200591D03*
X192913Y238618D03*
X195472D03*
X198031D03*
X200591D03*
X192913Y236059D03*
X195472D03*
X198031D03*
X200591D03*
X192913Y233500D03*
X195472D03*
X198031D03*
X200591D03*
X192913Y253972D03*
X195472D03*
X198031D03*
X200591D03*
X192913Y251413D03*
X195472D03*
X198031D03*
X200591D03*
X192913Y248854D03*
X195472D03*
X198031D03*
X200591D03*
X192913Y246295D03*
X195472D03*
X198031D03*
X200591D03*
X192913Y243736D03*
X195472D03*
X198031D03*
X200591D03*
X192913Y264209D03*
X195472D03*
X198031D03*
X200591D03*
X192913Y261650D03*
X195472D03*
X198031D03*
X200591D03*
X192913Y259091D03*
X195472D03*
X198031D03*
X200591D03*
X192913Y256531D03*
X195472D03*
X198031D03*
X200591D03*
X203150Y207909D03*
X205709D03*
X203150Y205350D03*
X205709D03*
X203150Y202791D03*
Y220705D03*
X205709D03*
X203150Y218146D03*
X205709D03*
X203150Y215587D03*
X205709D03*
X203150Y213028D03*
X205709D03*
X203150Y210469D03*
X205709D03*
X203150Y230941D03*
X205709D03*
X203150Y228382D03*
X205709D03*
X203150Y225823D03*
X205709D03*
X203150Y223264D03*
X205709D03*
X203150Y241177D03*
X205709D03*
X203150Y238618D03*
X205709D03*
X203150Y236059D03*
X205709D03*
X203150Y233500D03*
X205709D03*
X203150Y253972D03*
X205709D03*
X203150Y251413D03*
X205709D03*
X203150Y248854D03*
X205709D03*
X203150Y246295D03*
X205709D03*
X203150Y243736D03*
X205709D03*
X203150Y264209D03*
Y261650D03*
X205709D03*
X203150Y259091D03*
X205709D03*
X203150Y256531D03*
X205709D03*
G54D85*
X219000Y75563D03*
Y83437D03*
G54D77*
X146114Y374606D03*
G54D95*
X285500Y206827D03*
X282941Y215173D03*
X288059D03*
X285500Y220827D03*
X282941Y229173D03*
X288059D03*
X344941Y165327D03*
X347500Y173673D03*
X350059Y165327D03*
G54D68*
X105244Y246654D03*
X110756D03*
Y253346D03*
X105244D03*
X104744Y261154D03*
X110256D03*
Y267846D03*
X104744D03*
X226944Y95454D03*
X232456D03*
Y102146D03*
X226944D03*
X336244Y248654D03*
Y255346D03*
X341756Y248654D03*
Y255346D03*
G54D86*
X235382Y232000D03*
Y237000D03*
Y242000D03*
X245618Y232000D03*
Y242000D03*
Y237000D03*
G54D59*
X89000Y249051D03*
Y246949D03*
X117551Y229000D03*
X115449D03*
X153949Y180500D03*
X156051D03*
X156000Y273449D03*
Y275551D03*
X157449Y186500D03*
X159551D03*
X165500Y273449D03*
Y275551D03*
X191000Y273449D03*
Y275551D03*
X184000Y273449D03*
Y275551D03*
X219051Y246000D03*
X216949D03*
X218449Y254500D03*
X220551D03*
X269449Y55500D03*
X276051D03*
X273949D03*
X271551D03*
X277449Y53000D03*
X279551D03*
X271500Y57949D03*
Y60051D03*
X274000Y57949D03*
Y60051D03*
X279500Y57949D03*
Y60051D03*
X291551Y55500D03*
X289449D03*
X284949D03*
X287051D03*
X284051Y53000D03*
X281949D03*
X287000Y57949D03*
Y60051D03*
X289500Y57949D03*
Y60051D03*
X282000Y57949D03*
Y60051D03*
X299551Y53000D03*
X297449D03*
X292949D03*
X295051D03*
X295000Y57949D03*
Y60051D03*
X297500Y57949D03*
Y60051D03*
G54D87*
X235972Y319957D03*
X231642D03*
X244634D03*
X240303D03*
X257626D03*
X253295D03*
X248965D03*
X266287D03*
X261957D03*
G54D78*
X154516Y131886D03*
X156091Y155114D03*
X152941D03*
X167114Y131886D03*
X163965D03*
X160815D03*
X157665D03*
X165539Y155114D03*
X162390D03*
X159240D03*
X179713Y131886D03*
X176563D03*
X173413D03*
X170264D03*
X178138Y155114D03*
X174988D03*
X171839D03*
X168689D03*
X189161Y131886D03*
X186012D03*
X182862D03*
X190736Y155114D03*
X187587D03*
X184437D03*
X181287D03*
X201760Y131886D03*
X198610D03*
X195461D03*
X192311D03*
X200185Y155114D03*
X197035D03*
X193886D03*
X208059Y131886D03*
X204909D03*
X206484Y155114D03*
X203335D03*
G54D96*
X290831Y312752D03*
Y314720D03*
Y316689D03*
Y318657D03*
Y320626D03*
Y322594D03*
Y324563D03*
Y326531D03*
Y328500D03*
Y330469D03*
Y332437D03*
Y334406D03*
Y336374D03*
Y338343D03*
Y340311D03*
Y342280D03*
Y344248D03*
X332169Y320626D03*
Y318657D03*
Y316689D03*
Y314720D03*
Y312752D03*
Y332437D03*
Y330469D03*
Y328500D03*
Y326531D03*
Y324563D03*
Y322594D03*
Y344248D03*
Y342280D03*
Y340311D03*
Y338343D03*
Y336374D03*
Y334406D03*
G54D69*
X120000Y106094D03*
Y117906D03*
G54D97*
X300744Y115469D03*
Y111531D03*
X306256Y115469D03*
Y111531D03*
X337744Y93031D03*
Y96969D03*
X343256Y93031D03*
Y96969D03*
G54D79*
X155507Y285797D03*
Y282647D03*
X152948Y285797D03*
Y282647D03*
X150389Y285797D03*
Y282647D03*
X147830Y285797D03*
Y282647D03*
X155507Y295246D03*
Y292096D03*
Y288946D03*
X152948Y295246D03*
Y292096D03*
Y288946D03*
X150389Y295246D03*
Y292096D03*
Y288946D03*
X147830Y295246D03*
Y292096D03*
Y288946D03*
X155507Y307844D03*
Y304694D03*
X152948Y307844D03*
Y304694D03*
X150389Y307844D03*
Y304694D03*
X147830Y307844D03*
Y304694D03*
X155507Y317293D03*
Y314143D03*
Y310994D03*
X152948Y317293D03*
Y314143D03*
Y310994D03*
X150389Y317293D03*
Y314143D03*
Y310994D03*
X147830Y317293D03*
Y314143D03*
Y310994D03*
X168302Y285797D03*
Y282647D03*
X165743Y285797D03*
Y282647D03*
X163184Y285797D03*
Y282647D03*
X160625Y285797D03*
Y282647D03*
X158066Y285797D03*
Y282647D03*
X168302Y295246D03*
Y292096D03*
Y288946D03*
X165743Y295246D03*
Y292096D03*
Y288946D03*
X163184Y295246D03*
Y292096D03*
Y288946D03*
X160625Y295246D03*
Y292096D03*
Y288946D03*
X158066Y295246D03*
Y292096D03*
Y288946D03*
X168302Y307844D03*
Y304694D03*
X165743Y307844D03*
Y304694D03*
X163184Y307844D03*
Y304694D03*
X160625Y307844D03*
Y304694D03*
X158066Y307844D03*
Y304694D03*
X168302Y317293D03*
Y314143D03*
Y310994D03*
X165743Y317293D03*
Y314143D03*
Y310994D03*
X163184Y317293D03*
Y314143D03*
Y310994D03*
X160625Y317293D03*
Y314143D03*
Y310994D03*
X158066Y317293D03*
Y314143D03*
Y310994D03*
X178539Y285797D03*
Y282647D03*
X170861Y285797D03*
Y282647D03*
X178539Y295246D03*
Y292096D03*
Y288946D03*
X170861Y295246D03*
Y292096D03*
Y288946D03*
X178539Y307844D03*
Y304694D03*
X170861Y307844D03*
Y304694D03*
X178539Y317293D03*
Y314143D03*
Y310994D03*
X170861Y317293D03*
Y314143D03*
Y310994D03*
X188775Y285797D03*
Y282647D03*
X186216Y285797D03*
Y282647D03*
X183657Y285797D03*
Y282647D03*
X181098Y285797D03*
Y282647D03*
X188775Y295246D03*
Y292096D03*
Y288946D03*
X186216Y295246D03*
Y292096D03*
Y288946D03*
X183657Y295246D03*
Y292096D03*
Y288946D03*
X181098Y295246D03*
Y292096D03*
Y288946D03*
X188775Y307844D03*
Y304694D03*
X186216Y307844D03*
Y304694D03*
X183657Y307844D03*
Y304694D03*
X181098Y307844D03*
Y304694D03*
X188775Y317293D03*
Y314143D03*
Y310994D03*
X186216Y317293D03*
Y314143D03*
Y310994D03*
X183657Y317293D03*
Y314143D03*
Y310994D03*
X181098Y317293D03*
Y314143D03*
Y310994D03*
X201570Y285797D03*
Y282647D03*
X199011Y285797D03*
Y282647D03*
X196452Y285797D03*
Y282647D03*
X193893Y285797D03*
Y282647D03*
X191334Y285797D03*
Y282647D03*
X201570Y295246D03*
Y292096D03*
Y288946D03*
X199011Y295246D03*
Y292096D03*
Y288946D03*
X196452Y295246D03*
Y292096D03*
Y288946D03*
X193893Y295246D03*
Y292096D03*
Y288946D03*
X191334Y295246D03*
Y292096D03*
Y288946D03*
X201570Y307844D03*
Y304694D03*
X199011Y307844D03*
Y304694D03*
X196452Y307844D03*
Y304694D03*
X193893Y307844D03*
Y304694D03*
X191334Y307844D03*
Y304694D03*
X201570Y317293D03*
Y314143D03*
Y310994D03*
X199011Y317293D03*
Y314143D03*
Y310994D03*
X196452Y317293D03*
Y314143D03*
Y310994D03*
X193893Y317293D03*
Y314143D03*
Y310994D03*
X191334Y317293D03*
Y314143D03*
Y310994D03*
G54D88*
X256752Y21661D03*
X254783D03*
X268563D03*
X266594D03*
X264626D03*
X262657D03*
X260689D03*
X258720D03*
X280374D03*
X278406D03*
X276437D03*
X274469D03*
X272500D03*
X270531D03*
X290217D03*
X288248D03*
X286280D03*
X284311D03*
X282343D03*
G54D89*
X256500Y39654D03*
X251000D03*
X256500Y46346D03*
X251000D03*
X267500Y39654D03*
X262000D03*
X267500Y46346D03*
X262000D03*
X269000Y307846D03*
Y301154D03*
X315500Y38654D03*
Y45346D03*
G54D98*
X296736Y319642D03*
X302642D03*
X296736Y325547D03*
X302642D03*
X296736Y331453D03*
X302642D03*
X296736Y337358D03*
X302642D03*
X308547Y319642D03*
X314453D03*
X308547Y325547D03*
X314453D03*
X308547Y331453D03*
X314453D03*
X308547Y337358D03*
X314453D03*
X320358Y319642D03*
X326264D03*
X320358Y325547D03*
X326264D03*
X320358Y331453D03*
X326264D03*
X320358Y337358D03*
X326264D03*
G54D99*
X301657Y313146D03*
X299689D03*
X297720D03*
X295752D03*
X293783D03*
Y343854D03*
X295752D03*
X297720D03*
X299689D03*
X301657D03*
X313469Y313146D03*
X311500D03*
X309531D03*
X307563D03*
X305594D03*
X303626D03*
Y343854D03*
X305594D03*
X307563D03*
X309531D03*
X311500D03*
X313469D03*
X325280Y313146D03*
X323311D03*
X321343D03*
X319374D03*
X317406D03*
X315437D03*
Y343854D03*
X317406D03*
X319374D03*
X321343D03*
X323311D03*
X325280D03*
X329217Y313146D03*
X327248D03*
Y343854D03*
X329217D03*
M02*
