G04 ================== begin FILE IDENTIFICATION RECORD ==================*
G04 Layout Name:  C:/WORK/2018project/imx8m-revC/FabOutput/LAY-38820_A.brd*
G04 Film Name:    SSM.art*
G04 File Format:  Gerber RS274X*
G04 File Origin:  Cadence Allegro 17.2-S037*
G04 Origin Date:  Thu Sep 06 15:25:27 2018*
G04 *
G04 Layer:  PACKAGE GEOMETRY/SOLDERMASK_BOTTOM*
G04 Layer:  VIA CLASS/SOLDERMASK_BOTTOM*
G04 Layer:  DRAWING FORMAT/FILM_TITLE_BLOCK*
G04 Layer:  PIN/SOLDERMASK_BOTTOM*
G04 Layer:  BOARD GEOMETRY/OUTLINE*
G04 Layer:  BOARD GEOMETRY/SOLDERMASK_BOTTOM*
G04 *
G04 Offset:    (0.00 0.00)*
G04 Mirror:    No*
G04 Mode:      Positive*
G04 Rotation:  0*
G04 FullContactRelief:  No*
G04 UndefLineWidth:     7.00*
G04 ================== end FILE IDENTIFICATION RECORD ====================*
%FSLAX55Y55*MOIN*%
%IR0*IPPOS*OFA0.00000B0.00000*MIA0B0*SFA1.00000B1.00000*%
%ADD67O,.063X.11*%
%ADD46O,.061X.112*%
%AMMACRO69*
21,1,.022,.024,0.0,0.0,135.*%
%ADD69MACRO69*%
%ADD72R,.051X.112*%
%ADD33R,.106X.041*%
%ADD19C,.03*%
%ADD53C,.014*%
%ADD25O,.069X.134*%
%ADD65C,.043*%
%ADD50C,.052*%
%ADD78C,.063*%
%ADD56C,.064*%
%ADD73C,.047*%
%ADD35C,.029*%
%ADD26C,.065*%
%ADD17C,.056*%
%ADD13C,.083*%
%ADD28C,.067*%
%ADD59C,.059*%
%ADD52R,.016X.016*%
%ADD51R,.052X.052*%
%ADD15C,.03902*%
%ADD54C,.096*%
%ADD14R,.083X.083*%
%ADD58R,.059X.059*%
%ADD29O,.135X.1*%
%ADD64R,.02X.016*%
%ADD37R,.043X.02*%
%ADD45R,.02X.043*%
%ADD22R,.024X.022*%
%ADD43R,.022X.061*%
%ADD36R,.043X.031*%
%ADD23R,.022X.024*%
%ADD24C,.12*%
%ADD57C,.13*%
%ADD80R,.015X.025*%
%ADD63R,.022X.064*%
%ADD60O,.046X.07*%
%ADD27O,.084X.05*%
%ADD16R,.037X.032*%
%ADD81R,.018X.024*%
%ADD31R,.032X.037*%
%ADD70R,.019X.034*%
%ADD30R,.057X.041*%
%ADD11C,.224*%
%ADD10O,.075X.044*%
%ADD74R,.034X.019*%
%ADD62R,.014X.048*%
%ADD48C,.126*%
%ADD32R,.041X.057*%
%ADD18O,.067X.044*%
%ADD75R,.016X.065*%
%ADD71R,.028X.036*%
%ADD61R,.071X.064*%
%ADD38R,.063X.055*%
%ADD34R,.052X.083*%
%ADD21R,.052X.039*%
%ADD68R,.063X.047*%
%ADD66O,.063X.094*%
%ADD20R,.039X.052*%
%ADD12R,.036X.028*%
%ADD49C,.008*%
%ADD42R,.059X.044*%
%ADD41R,.048X.028*%
%ADD39O,.049X.039*%
%ADD82O,.076X.049*%
%ADD40R,.044X.059*%
%ADD77O,.047X.087*%
%ADD76C,.259*%
%ADD47O,.056X.079*%
%ADD55R,.139X.189*%
%ADD79C,.198*%
%ADD44R,.189X.139*%
%ADD83C,.01*%
%ADD84C,.02*%
%ADD85C,.007*%
%ADD86C,.006*%
%ADD87C,.0079*%
G75*
%LPD*%
G75*
G36*
G01X30000Y163500D02*
Y145500D01*
X47000D01*
Y163500D01*
X30000D01*
G37*
G36*
G01X375500Y102290D02*
Y27500D01*
X374000Y26000D01*
X360500D01*
X359500Y27000D01*
Y102290D01*
X375500D01*
G37*
G54D10*
X-8898Y37791D03*
Y73224D03*
G54D20*
X1000Y127500D03*
Y137500D03*
X37000Y215500D03*
Y225500D03*
X39000Y310000D03*
Y320000D03*
X109500Y7500D03*
X102500D03*
X109500Y17500D03*
X102500D03*
X164000Y122000D03*
Y132000D03*
X185500Y154000D03*
Y164000D03*
X257000Y37500D03*
Y47500D03*
X337400Y110000D03*
Y120000D03*
G54D11*
X0Y0D03*
Y362205D03*
X298000Y365000D03*
X362205Y0D03*
G54D12*
X-6000Y15154D03*
X-1000D03*
X-6000Y21846D03*
X-1000D03*
X4000Y15154D03*
X9000D03*
X4000Y21846D03*
X9000D03*
X95000Y-11346D03*
Y-4654D03*
X141000Y-4846D03*
Y1846D03*
G54D21*
X2000Y144500D03*
X12000D03*
X15500Y220500D03*
Y213500D03*
X16000Y310500D03*
Y303500D03*
X25500Y220500D03*
Y213500D03*
X26000Y310500D03*
Y303500D03*
X65500Y214900D03*
X75500D03*
X101000Y-8000D03*
X111000D03*
X178000Y137000D03*
X175000Y171500D03*
X188000Y137000D03*
X185000Y171500D03*
X206000Y338000D03*
X216000D03*
X218000Y355000D03*
Y347500D03*
X228000Y355000D03*
Y347500D03*
X238500Y261500D03*
X248500D03*
X238500Y269000D03*
X248500D03*
X282000Y27000D03*
X272000D03*
X310500Y352500D03*
X320500D03*
G54D30*
X29000Y37929D03*
Y44071D03*
X32000Y85429D03*
Y91571D03*
X64500Y29429D03*
Y35571D03*
X72000Y29429D03*
Y35571D03*
X81500Y70571D03*
Y64429D03*
X89000Y127071D03*
Y120929D03*
X117500Y16571D03*
Y10429D03*
G54D40*
X65240Y8830D03*
X57760D03*
X61500Y170D03*
X247500Y340170D03*
X243760Y348830D03*
X251240D03*
G54D31*
X24941Y248500D03*
X30059D03*
X24941Y334000D03*
X30059D03*
X42441Y195500D03*
Y190000D03*
Y201000D03*
X55559Y151000D03*
X50441D03*
X55559Y156500D03*
X50441D03*
X55559Y164000D03*
X50441D03*
X47559Y195500D03*
Y190000D03*
Y201000D03*
X69941Y293500D03*
X75059D03*
X95441Y0D03*
X100559D03*
X110441Y197000D03*
X112941Y260500D03*
X115559Y197000D03*
X118059Y260500D03*
X146059Y180000D03*
X140941D03*
X144441Y262700D03*
X143441Y301500D03*
X149559Y262700D03*
X148559Y301500D03*
X159941Y174000D03*
X165059D03*
X161441Y190000D03*
X166559D03*
X163641Y231900D03*
X168759D03*
X173941Y232000D03*
X179059D03*
X177441Y278400D03*
X188983Y231800D03*
X183865D03*
X182559Y278400D03*
X219941Y221500D03*
X225059D03*
X226441Y214000D03*
X231559D03*
X251941Y333500D03*
X257059D03*
G54D22*
X7500Y230024D03*
Y232976D03*
X22000Y130524D03*
X18000D03*
X22000Y141476D03*
Y138524D03*
Y133476D03*
X18000D03*
X22000Y146524D03*
Y149476D03*
X33500Y128524D03*
X27500Y138024D03*
Y140976D03*
X33500Y131476D03*
X43500Y110024D03*
Y112976D03*
Y128524D03*
X39500D03*
X43500Y131476D03*
X39500D03*
X36000Y171476D03*
Y168524D03*
X41500D03*
Y171476D03*
X48000Y112976D03*
Y110024D03*
X47500Y128524D03*
Y131476D03*
X61500Y-7976D03*
Y-5024D03*
X62000Y142524D03*
Y145476D03*
X66500Y320024D03*
Y322976D03*
X74100Y4524D03*
X70100D03*
X74100Y7476D03*
X70100D03*
X75000Y69476D03*
Y66524D03*
X72500Y94524D03*
Y100524D03*
Y103476D03*
Y97476D03*
X76500Y138524D03*
Y141476D03*
X69500Y151524D03*
Y154476D03*
Y157524D03*
Y160476D03*
Y163524D03*
Y166476D03*
X74500Y338476D03*
Y335524D03*
X86500Y-5524D03*
Y-8476D03*
X89000Y16576D03*
Y13624D03*
X80500Y141476D03*
Y138524D03*
X81000Y313024D03*
Y315976D03*
X90500Y-9476D03*
Y-6524D03*
X97000Y16576D03*
Y13624D03*
X93000D03*
Y16576D03*
X92000Y80024D03*
Y82976D03*
X96500Y127476D03*
Y124524D03*
Y131024D03*
Y133976D03*
X100500Y131024D03*
Y133976D03*
X96000Y239476D03*
Y236524D03*
X91000Y239476D03*
Y236524D03*
X91500Y320476D03*
Y317524D03*
X104500Y-2476D03*
Y476D03*
X108500Y-2476D03*
Y476D03*
X104500Y131024D03*
Y133976D03*
X106000Y241024D03*
Y243976D03*
X123500Y14976D03*
Y12024D03*
X119500Y142024D03*
Y144976D03*
X122000Y226976D03*
Y224024D03*
X118000Y226976D03*
Y224024D03*
X117500Y234024D03*
Y236976D03*
X127500Y14976D03*
Y12024D03*
X131500Y14976D03*
Y12024D03*
X135000Y250024D03*
Y252976D03*
X139500Y204476D03*
Y201524D03*
X142500Y220524D03*
X143500Y214024D03*
Y216976D03*
X142500Y223476D03*
Y237024D03*
Y239976D03*
Y243024D03*
Y245976D03*
X141000Y294976D03*
Y292024D03*
X156500Y117024D03*
Y119976D03*
X154000Y151524D03*
Y154476D03*
X151000Y273024D03*
Y275976D03*
X163000Y95024D03*
Y97976D03*
X164500Y274524D03*
X167000Y284476D03*
Y281524D03*
X164500Y277476D03*
X161500Y290894D03*
Y293846D03*
X177500Y143524D03*
Y146476D03*
X173500Y143524D03*
Y146476D03*
Y207524D03*
Y210476D03*
X179000Y262524D03*
Y265476D03*
X172000Y287894D03*
X177500D03*
X172000Y290846D03*
X177500D03*
Y306346D03*
Y303394D03*
X172000Y306346D03*
Y303394D03*
X182500Y129024D03*
X186500D03*
X182500Y131976D03*
X186500D03*
X189500Y143524D03*
Y146476D03*
X181500Y143524D03*
Y146476D03*
X185500Y143524D03*
Y146476D03*
X184400Y210524D03*
Y213476D03*
X185500Y285476D03*
Y282524D03*
X194500Y157476D03*
Y154524D03*
X198500Y157476D03*
Y154524D03*
X202500Y157476D03*
Y154524D03*
X201000Y274476D03*
Y271524D03*
X197000Y274476D03*
Y271524D03*
X192500Y278524D03*
Y281476D03*
X213500Y235524D03*
Y238476D03*
X216000Y249476D03*
Y246524D03*
X221000Y340976D03*
Y338024D03*
X240000Y58476D03*
Y55524D03*
X251000Y38024D03*
Y40976D03*
X248500Y159476D03*
Y156524D03*
X255000Y269476D03*
Y266524D03*
X262000Y13476D03*
Y10524D03*
X259000Y27524D03*
X263000D03*
X267000D03*
X259000Y30476D03*
X263000D03*
X267000D03*
X263500Y263976D03*
Y261024D03*
X291000Y231524D03*
Y234476D03*
X299000Y231524D03*
X295000D03*
X299000Y234476D03*
X295000D03*
X301500Y299476D03*
Y296524D03*
X315000Y142024D03*
Y144976D03*
X311500Y194524D03*
Y197476D03*
X307500Y194524D03*
Y197476D03*
X311500Y259276D03*
Y256324D03*
X309500Y299476D03*
Y296524D03*
X305500Y299476D03*
Y296524D03*
X323100Y121524D03*
Y124476D03*
X319100Y121524D03*
Y124476D03*
X319000Y142024D03*
Y144976D03*
X325000Y198024D03*
X321000D03*
X315500Y194524D03*
Y197476D03*
X325000Y200976D03*
X321000D03*
X325000Y299024D03*
X326000Y310524D03*
X322000D03*
X325000Y301976D03*
X326000Y313476D03*
X322000D03*
X327000Y118024D03*
Y120976D03*
X326600Y141476D03*
Y138524D03*
X330100Y141476D03*
Y138524D03*
X333000Y274024D03*
Y276976D03*
X331000Y297524D03*
X335000D03*
X334000Y310524D03*
X330000D03*
X331000Y300476D03*
X335000D03*
X334000Y313476D03*
X330000D03*
X346000Y115524D03*
Y118476D03*
X339000Y297524D03*
Y300476D03*
X359000Y215524D03*
Y218476D03*
X359500Y251976D03*
Y249024D03*
G54D13*
X-500Y89500D03*
Y99500D03*
G54D41*
X78900Y1460D03*
Y5200D03*
Y8940D03*
X89300Y5200D03*
Y1460D03*
Y8940D03*
G54D32*
X41429Y49500D03*
X47571D03*
X85929Y39000D03*
X92071D03*
X238429Y327500D03*
X244571D03*
X333571Y96000D03*
X327429D03*
X333571Y103500D03*
X327429D03*
G54D23*
X8476Y301500D03*
X5524D03*
X8476Y305500D03*
X5524D03*
X21524Y153000D03*
X17024Y206000D03*
X19976D03*
X16024Y226000D03*
X18976D03*
X27524Y33500D03*
X30476D03*
X24476Y153000D03*
X28976Y207500D03*
X26024D03*
X28976Y203500D03*
X26024D03*
X30976Y227500D03*
X28024D03*
X27524Y237500D03*
X30476D03*
X27524Y243000D03*
X30476D03*
X27524Y233500D03*
X30476D03*
X27976Y294000D03*
X25024D03*
X27976Y298000D03*
X25024D03*
X27524Y319000D03*
X30476D03*
Y315500D03*
X27524D03*
Y323000D03*
X30476D03*
X27524Y328500D03*
X30476D03*
X36976Y33500D03*
X34024D03*
X63024Y16000D03*
X65976D03*
X57024Y17800D03*
X59976D03*
Y14000D03*
X57024D03*
X59976Y21300D03*
X57024D03*
X58024Y42000D03*
X60976D03*
X69524Y115500D03*
X72476D03*
X71024Y286500D03*
X73976D03*
X77476Y310000D03*
X74524D03*
X82524Y308500D03*
X85476D03*
Y321000D03*
X82524D03*
Y330000D03*
X85476D03*
X82524Y326000D03*
X85476D03*
X88476Y334500D03*
X85524D03*
X100024Y237500D03*
X93024Y266500D03*
X95976D03*
X95476Y308000D03*
X92524D03*
X95476Y312000D03*
X92524D03*
X109976Y107500D03*
X107024D03*
X109976Y103500D03*
X107024D03*
X107524Y237500D03*
X110476D03*
X102976D03*
X108524Y310500D03*
X111476D03*
X104976D03*
X102024D03*
X118476Y-8000D03*
X115524D03*
X123024Y-4500D03*
X113024Y89200D03*
X115976D03*
X122024Y150000D03*
X125976Y-4500D03*
X132524Y141500D03*
Y138000D03*
X124976Y150000D03*
X129476Y247000D03*
X126524D03*
X129476Y253500D03*
X126524D03*
X135476Y141500D03*
Y138000D03*
X157024Y196500D03*
X154524Y190000D03*
X157476D03*
X156024Y278500D03*
X146524Y290000D03*
X149476D03*
X146524Y315000D03*
X149476D03*
X162524Y91500D03*
X165476D03*
X163976Y117000D03*
X161024D03*
X168024Y156500D03*
X159976Y196500D03*
X166176Y211800D03*
X163224D03*
X158976Y278500D03*
X159024Y321500D03*
X161976D03*
X178024Y115000D03*
X177476Y152500D03*
X174524D03*
X177476Y156500D03*
X174524D03*
X170976D03*
X172024Y268000D03*
X174976D03*
X176524Y271500D03*
X179476D03*
X179976Y314500D03*
X177024D03*
X180976Y115000D03*
X189524Y196000D03*
Y192000D03*
X189976Y321500D03*
X187024D03*
X198024Y71000D03*
X200976D03*
X198024Y129500D03*
X200976D03*
X198024Y133500D03*
X200976D03*
X192476Y196000D03*
Y192000D03*
X200024Y289500D03*
Y315500D03*
X202976Y289500D03*
Y315500D03*
X220524Y170000D03*
X223476D03*
X229476D03*
X226524D03*
X232524Y346500D03*
X235476D03*
Y350500D03*
X232524D03*
Y354500D03*
X235476D03*
X244476Y250000D03*
X241524D03*
X242524Y333500D03*
X245476D03*
X246024Y354500D03*
X239524D03*
X242476D03*
X246024Y358500D03*
X250976Y145000D03*
X248024D03*
X250976Y148500D03*
X248024D03*
X254976Y323500D03*
X252024D03*
X248976Y354500D03*
Y358500D03*
X263476Y343500D03*
X260524D03*
X263476Y339500D03*
X260524D03*
X288024Y45500D03*
X290976D03*
X288024Y49500D03*
X290976D03*
X315024Y265000D03*
X324524Y82000D03*
Y78000D03*
X322476Y191000D03*
X319524D03*
X317976Y265000D03*
X327476Y82000D03*
Y78000D03*
X326524Y124500D03*
X329476D03*
X326524Y128500D03*
X329476D03*
X328024Y270500D03*
X330976D03*
X334024D03*
X336976D03*
X334024Y266500D03*
X336976D03*
X338024Y191500D03*
X340976D03*
X341024Y225000D03*
X343976D03*
X353476Y81000D03*
X350524D03*
Y76000D03*
X353476D03*
X356476Y203500D03*
X353524D03*
G54D14*
X-500Y109500D03*
G54D50*
X121087Y34472D03*
X114000Y36441D03*
X121087Y50220D03*
Y42346D03*
X114000Y46283D03*
X121087Y58094D03*
X114000Y54157D03*
X121087Y65969D03*
G54D42*
X78170Y97260D03*
Y104740D03*
X86830Y101000D03*
X99170Y79760D03*
Y87240D03*
X107830Y83500D03*
G54D60*
X178000Y352800D03*
Y360200D03*
X188000Y352800D03*
X183000D03*
X188000Y360200D03*
X183000D03*
X198000Y352800D03*
X193000D03*
X198000Y360200D03*
X193000D03*
G54D24*
X22000Y-4500D03*
X19500Y356005D03*
X276500Y367500D03*
X368205Y19374D03*
G54D15*
X-7500Y129594D03*
Y141406D03*
G54D51*
X114000Y64000D03*
G54D33*
X47500Y87988D03*
Y99012D03*
X60500Y87988D03*
Y99012D03*
X82500Y45488D03*
Y56512D03*
X97000Y45488D03*
Y56512D03*
G54D34*
X40525Y181500D03*
X48475D03*
G54D61*
X185933Y103106D03*
X315067D03*
G54D70*
X257441Y58228D03*
Y66772D03*
X260000Y58228D03*
X262559D03*
Y66772D03*
X260000D03*
G54D16*
X-1500Y170559D03*
Y165441D03*
X-7000Y170559D03*
Y165441D03*
X10500Y114941D03*
Y120059D03*
X13500Y153941D03*
Y159059D03*
X23000Y157441D03*
Y162559D03*
X33500Y135441D03*
Y140559D03*
X24000Y174059D03*
Y168941D03*
X31000D03*
Y174059D03*
X56000Y-9059D03*
Y-3941D03*
X52500Y174559D03*
Y169441D03*
X78500Y80941D03*
Y86059D03*
X73000Y80941D03*
Y86059D03*
X84000Y80941D03*
Y86059D03*
X113500Y273441D03*
Y278559D03*
X130000Y-4059D03*
X135500D03*
X130000Y1059D03*
X135500D03*
X166500Y265741D03*
Y270859D03*
X173400Y213541D03*
Y218659D03*
X174000Y222141D03*
Y227259D03*
X173900Y242382D03*
Y247500D03*
X173000Y284059D03*
Y278941D03*
X174500Y299559D03*
Y294441D03*
X207000Y129441D03*
Y134559D03*
X205000Y265559D03*
Y260441D03*
X245000Y59559D03*
Y54441D03*
X299000Y337941D03*
Y343059D03*
X305000Y337941D03*
Y343059D03*
X367500Y265941D03*
Y271059D03*
G54D43*
X78220Y150035D03*
X75661D03*
Y166965D03*
X78220D03*
X83339Y150035D03*
X80780D03*
Y166965D03*
X83339D03*
G54D52*
X116051Y245500D03*
X113949D03*
X134449Y246500D03*
X145500Y227398D03*
Y229500D03*
X136551Y246500D03*
X145949Y248700D03*
Y259059D03*
Y256500D03*
X149411Y214535D03*
Y216637D03*
X146852Y214535D03*
Y216637D03*
X146000Y220949D03*
Y223051D03*
X156949Y231600D03*
X146000Y237102D03*
Y235000D03*
X148051Y248700D03*
Y259059D03*
X156000Y263810D03*
Y261708D03*
X148051Y256500D03*
X163949Y195500D03*
X166051D03*
X163949Y198000D03*
X166051D03*
X161000Y207949D03*
X160200Y217951D03*
Y215849D03*
X162206Y219196D03*
Y217094D03*
X165814Y215587D03*
X163712D03*
X161000Y210051D03*
X164949Y218400D03*
X167051D03*
X161000Y226049D03*
Y228151D03*
X163712Y223264D03*
X165814D03*
X163712Y225823D03*
X165814D03*
X159051Y231600D03*
X163712Y228382D03*
X165814D03*
X163712Y220705D03*
X165814D03*
X163500Y236449D03*
Y238551D03*
X167324Y237665D03*
Y239767D03*
X166600Y241549D03*
X166851Y247900D03*
X164749D03*
X164551Y244500D03*
X162449D03*
X158000Y249449D03*
Y251551D03*
X167323Y250360D03*
Y252462D03*
X161200Y246449D03*
Y248551D03*
X164764Y250360D03*
Y252462D03*
X166600Y243651D03*
X159449Y260500D03*
X161551D03*
X167323Y255479D03*
Y257581D03*
X178665Y207910D03*
X179065Y210469D03*
X169882Y214534D03*
Y216636D03*
X177559Y222212D03*
Y224314D03*
X170935Y228383D03*
X168833D03*
X179700Y223449D03*
Y225551D03*
X178149Y236300D03*
X172549Y235800D03*
X174651D03*
X177999Y238300D03*
X169882Y242683D03*
X172949Y238500D03*
X175051D03*
X169883Y237665D03*
Y239767D03*
X177559Y242786D03*
X175041Y250749D03*
Y252851D03*
X172400Y250749D03*
Y252851D03*
X169882Y249903D03*
Y247801D03*
Y244785D03*
X177558Y249403D03*
Y247301D03*
X177559Y244888D03*
X178949Y256500D03*
X171000Y264051D03*
Y261949D03*
X178949Y259100D03*
X187698Y206500D03*
X189800D03*
X180767Y207910D03*
X187949Y219500D03*
X190051D03*
X181167Y210469D03*
X180118Y219656D03*
X185236Y219553D03*
X180118Y221758D03*
X188847Y228383D03*
X186745D03*
X181624Y225823D03*
X183726D03*
X188847Y223265D03*
X186745D03*
X185236Y221655D03*
X181624Y223264D03*
X183726D03*
X188847Y225824D03*
X186745D03*
X181624Y228382D03*
X183726D03*
X180251Y236300D03*
X188844Y236058D03*
X186742D03*
X180101Y238300D03*
X182677Y242726D03*
Y240624D03*
X187300Y242051D03*
Y239949D03*
X189851Y238100D03*
X187749D03*
X182124Y236058D03*
X184226D03*
X185236Y242726D03*
Y240624D03*
X180118Y242726D03*
Y240624D03*
X185051Y252500D03*
X182949D03*
X190353Y250360D03*
Y252462D03*
X180117Y249403D03*
Y247301D03*
X187551Y250000D03*
X185449D03*
X185235Y245242D03*
Y247344D03*
X187794Y245242D03*
Y247344D03*
X182676Y244842D03*
Y246944D03*
X181051Y256500D03*
X189500Y261451D03*
Y259349D03*
X181051Y259100D03*
X186900Y261151D03*
Y259049D03*
X198051Y212000D03*
X195949D03*
X202000Y231149D03*
Y225949D03*
Y228051D03*
X197802Y239900D03*
X195700D03*
X202000Y233251D03*
X192449Y232000D03*
X194551D03*
X199541Y243736D03*
X201643D03*
X201949Y256500D03*
X199249Y259100D03*
X201351D03*
X204000Y211602D03*
Y209500D03*
X207500Y211949D03*
Y214051D03*
X204500Y225949D03*
Y228051D03*
X210000Y235949D03*
Y238051D03*
X213000Y249051D03*
Y246949D03*
X204051Y256500D03*
G54D25*
X18071Y12133D03*
X49961D03*
G54D44*
X79000Y194000D03*
G54D71*
X251154Y328500D03*
X257846D03*
G54D62*
X192429Y118461D03*
X194398D03*
X196366D03*
X198335D03*
X200303D03*
X202272D03*
X204240D03*
X206209D03*
X208177D03*
X210146D03*
X212114D03*
X214083D03*
X216051D03*
X218020D03*
X219988D03*
X221957D03*
X223925D03*
X225894D03*
X227862D03*
X229831D03*
X231799D03*
X233768D03*
X235736D03*
X237705D03*
X239673D03*
X241642D03*
X243610D03*
X245579D03*
X247547D03*
X249516D03*
X251484D03*
X253453D03*
X255421D03*
X257390D03*
X259358D03*
X261327D03*
X263295D03*
X265264D03*
X267232D03*
X269201D03*
X271169D03*
X273138D03*
X275106D03*
X277075D03*
X279043D03*
X281012D03*
X282980D03*
X284949D03*
X286917D03*
X288886D03*
X290854D03*
X292823D03*
X294791D03*
X296760D03*
X298728D03*
X300697D03*
X302665D03*
X304634D03*
X306602D03*
X308571D03*
G54D80*
X358925Y107429D03*
X362075D03*
G54D17*
X-4630Y186961D03*
X-8567Y257039D03*
X-4630Y272461D03*
X-8567Y342539D03*
X8126Y186961D03*
Y257039D03*
Y272461D03*
Y342539D03*
X23874Y186961D03*
Y257039D03*
Y272461D03*
Y342539D03*
X31866Y186961D03*
Y257039D03*
Y272461D03*
Y342539D03*
X145461Y127634D03*
Y135626D03*
Y151374D03*
Y164130D03*
X215539Y127634D03*
Y135626D03*
Y151374D03*
Y168067D03*
G54D26*
X16000Y190504D03*
Y253496D03*
Y276004D03*
Y338996D03*
X149004Y143500D03*
X211996D03*
G54D35*
X51000Y-4000D03*
X47000D03*
X79500Y114000D03*
X83500D03*
X96000Y6000D03*
Y10000D03*
X279500Y273900D03*
Y269900D03*
Y277600D03*
Y281600D03*
X288500Y260200D03*
Y264200D03*
Y271900D03*
Y267900D03*
G54D53*
X141000Y263444D03*
X139000D03*
X148029Y269347D03*
X156786Y287667D03*
X149109Y284076D03*
X156786Y290226D03*
X168603Y260370D03*
X163485D03*
X168603Y262929D03*
X163485Y265488D03*
X167023Y287668D03*
Y290817D03*
Y293817D03*
X169582Y293967D03*
X179818D03*
X183956Y257811D03*
X183957Y262929D03*
X186515D03*
X181397D03*
X182377Y287668D03*
Y293967D03*
X184936Y290817D03*
X199311Y267988D03*
X200290Y283800D03*
X192613Y286949D03*
Y290099D03*
X211000Y263444D03*
X209000D03*
G54D18*
X13189Y37791D03*
Y73224D03*
G54D81*
X360500Y103571D03*
G54D27*
X20535Y372000D03*
X37465D03*
X314535D03*
X331465D03*
G54D63*
X235000Y140850D03*
X232440D03*
X229880D03*
X227320D03*
Y164150D03*
X229880D03*
X232440D03*
X235000D03*
X242680Y140850D03*
X240120D03*
X237560D03*
Y164150D03*
X240120D03*
X242680D03*
G54D36*
X56600Y26250D03*
X46400D03*
X56600Y33750D03*
X46400Y30000D03*
Y33750D03*
X100900Y228000D03*
Y231750D03*
Y224250D03*
X111100Y231750D03*
Y224250D03*
G54D45*
X87941Y20827D03*
X93059D03*
X90500Y29173D03*
X123441Y135827D03*
X128559D03*
X126000Y144173D03*
X242059Y367673D03*
X236941D03*
X239500Y359327D03*
G54D54*
X160516Y31508D03*
X222524D03*
G54D72*
X278252Y154978D03*
X359748D03*
G54D55*
X161000Y362000D03*
X191500Y2000D03*
G54D82*
X371500Y110402D03*
Y135598D03*
G54D37*
X55827Y115559D03*
Y110441D03*
X64173Y113000D03*
X60827Y224000D03*
X73327Y-6500D03*
X69173Y221441D03*
Y226559D03*
X81673Y-9059D03*
Y-3941D03*
X101327Y95500D03*
X109673Y92941D03*
Y98059D03*
X229327Y341559D03*
Y336441D03*
X237673Y339000D03*
X249827Y249941D03*
X258173Y252500D03*
X249827Y255059D03*
G54D64*
X236000Y308728D03*
X231500D03*
X236000Y312272D03*
X231500D03*
X240500Y308728D03*
Y312272D03*
X249500Y308728D03*
X257500D03*
X249500Y312272D03*
X257500D03*
X262000Y308728D03*
Y312272D03*
G54D28*
X35000Y-5583D03*
X358370Y172694D03*
G54D73*
X279630D03*
G54D19*
X7244Y40843D03*
X10000Y50783D03*
X7244Y46059D03*
Y49209D03*
X10000Y43500D03*
X7244Y52358D03*
X10000Y60232D03*
X7244Y61807D03*
Y58657D03*
X10000Y53933D03*
Y57083D03*
X7244Y64957D03*
X10000Y67516D03*
X7244Y70173D03*
X363035Y115126D03*
Y130874D03*
G54D46*
X106874Y29157D03*
X128213Y71283D03*
G54D83*
G01X-27500Y-185000D02*
X372500D01*
G01X-27500Y-155000D02*
Y-135000D01*
X372500D01*
G01X22500Y-205000D02*
Y-185000D01*
G01X148000Y-205000D02*
Y-185000D01*
G01X147500Y-135000D02*
Y-105000D01*
G01X197500Y-205000D02*
Y-185000D01*
G54D47*
X106874Y71283D03*
X128213Y29157D03*
G54D38*
X49500Y208700D03*
Y216300D03*
G54D74*
X293228Y70459D03*
Y67900D03*
Y65341D03*
X301772D03*
Y67900D03*
Y70459D03*
X315372Y65341D03*
Y67900D03*
Y70459D03*
X306828D03*
Y67900D03*
Y65341D03*
G54D29*
X35000Y21976D03*
G54D56*
X165043Y1508D03*
Y9500D03*
X217996Y1508D03*
Y9500D03*
G54D65*
X228492Y361295D03*
X259988D03*
G54D84*
G01X372500Y-105000D02*
Y-205000D01*
X-27500D01*
G01D02*
Y-105000D01*
X372500D01*
G54D39*
X67500Y-8500D03*
Y-2500D03*
G54D66*
X243957Y-5307D03*
X301043D03*
G54D75*
X290457Y151927D03*
X288488D03*
X286520D03*
X284551D03*
X282583D03*
X291441Y181651D03*
X289472D03*
X287504D03*
X285535D03*
X283567D03*
X302268Y151927D03*
X300299D03*
X298331D03*
X296362D03*
X294394D03*
X292425D03*
X303252Y181651D03*
X301283D03*
X299315D03*
X297346D03*
X295378D03*
X293409D03*
X314079Y151927D03*
X304236D03*
X313094Y181651D03*
X325890Y151927D03*
X323921D03*
X321953D03*
X319984D03*
X318016D03*
X316047D03*
X324906Y181651D03*
X322937D03*
X320969D03*
X319000D03*
X317031D03*
X315063D03*
X335732Y151927D03*
X333764D03*
X331795D03*
X329827D03*
X327858D03*
X336717Y181651D03*
X334748D03*
X332780D03*
X330811D03*
X328843D03*
X326874D03*
X345575Y151927D03*
X343606D03*
X341638D03*
X339669D03*
X337701D03*
X347543D03*
X346559Y181651D03*
X344591D03*
X342622D03*
X340654D03*
X348528D03*
X338685D03*
X355417Y151927D03*
X353449D03*
X351480D03*
X349512D03*
X354433Y181651D03*
X352465D03*
X350496D03*
G54D48*
X115945Y174445D03*
X234055Y292555D03*
G54D57*
X169020Y19500D03*
X214020D03*
G54D85*
G01X-12660Y-15748D02*
X319000D01*
Y-12000D01*
X349000D01*
Y-15748D01*
X373817D01*
G03X377953Y-12243I0J4193D01*
G01Y375500D01*
G03X375000Y377953I-2953J-551D01*
G01X328000D01*
Y375000D01*
X318000D01*
Y377953D01*
X34000D01*
Y375000D01*
X24000D01*
Y377953D01*
X-12500D01*
G03X-15748Y375235I0J-3300D01*
G01Y-12117D01*
G03X-12660Y-15748I3679J0D01*
G54D76*
X319000Y283915D03*
G54D49*
X122862Y425D03*
Y2000D03*
Y3575D03*
X121287Y425D03*
Y2000D03*
Y3575D03*
X119713Y425D03*
Y2000D03*
Y3575D03*
X118138Y425D03*
Y2000D03*
Y3575D03*
G54D58*
X169000Y54500D03*
G54D67*
X243957Y18315D03*
X301043D03*
G54D86*
G01X-24650Y-202500D02*
Y-196200D01*
X-25590Y-197460D01*
G01Y-202500D02*
X-23710D01*
G01X-17410D02*
Y-196200D01*
X-20308Y-200715D01*
X-16392D01*
G01X-5750Y-202500D02*
X-6377Y-202395D01*
X-6925Y-201975D01*
X-7395Y-201345D01*
X-7708Y-200610D01*
X-7865Y-199770D01*
Y-198930D01*
X-7708Y-198090D01*
X-7395Y-197355D01*
X-6925Y-196725D01*
X-6377Y-196305D01*
X-5750Y-196200D01*
X-5123Y-196305D01*
X-4575Y-196725D01*
X-4105Y-197355D01*
X-3792Y-198090D01*
X-3635Y-198930D01*
Y-199770D01*
X-3792Y-200610D01*
X-4105Y-201345D01*
X-4575Y-201975D01*
X-5123Y-202395D01*
X-5750Y-202500D01*
G01X-938D02*
Y-196200D01*
X2038D01*
G01X942Y-199245D02*
X-938D01*
G01X13150Y-202500D02*
Y-196200D01*
X12210Y-197460D01*
G01Y-202500D02*
X14090D01*
G01X17962Y-199875D02*
X18510Y-199140D01*
X18980Y-198720D01*
X19607Y-198510D01*
X20155Y-198720D01*
X20547Y-199140D01*
X20860Y-199770D01*
X20938Y-200505D01*
X20860Y-201135D01*
X20547Y-201765D01*
X20077Y-202290D01*
X19528Y-202500D01*
X18902Y-202290D01*
X18353Y-201660D01*
X18040Y-200715D01*
X17962Y-199665D01*
X18118Y-198300D01*
X18353Y-197565D01*
X18745Y-196830D01*
X19293Y-196305D01*
X19842Y-196200D01*
X20390Y-196410D01*
X20782Y-196935D01*
G01X-24847Y-117000D02*
Y-109500D01*
X-20553Y-117000D01*
Y-109500D01*
G01X-17160Y-117000D02*
X-13240Y-109500D01*
G01X-17160D02*
X-13240Y-117000D01*
G01X-9567D02*
Y-109500D01*
X-7327D01*
X-6580Y-109875D01*
X-6020Y-110750D01*
X-5833Y-111750D01*
X-6020Y-112750D01*
X-6487Y-113500D01*
X-7327Y-113875D01*
X-9567D01*
G01X24005Y-201260D02*
X24632Y-201785D01*
X25337Y-202100D01*
X25963D01*
X26590Y-201785D01*
X27060Y-201260D01*
X27295Y-200525D01*
X27138Y-199790D01*
X26747Y-199160D01*
X26042Y-198740D01*
X25102Y-198530D01*
X24553Y-198110D01*
X24318Y-197375D01*
X24475Y-196640D01*
X24867Y-196115D01*
X25415Y-195800D01*
X25963D01*
X26512Y-196010D01*
X26982Y-196535D01*
G01X33517Y-202100D02*
X30383D01*
Y-195800D01*
X33517D01*
G01X32263Y-198845D02*
X30383D01*
G01X39973Y-196325D02*
X39503Y-196010D01*
X38955Y-195800D01*
X38328D01*
X37623Y-196115D01*
X37075Y-196640D01*
X36683Y-197270D01*
X36370Y-198320D01*
X36292Y-199265D01*
X36448Y-200210D01*
X36683Y-200840D01*
X37153Y-201470D01*
X37702Y-201890D01*
X38250Y-202100D01*
X38798D01*
X39347Y-201890D01*
X39817Y-201575D01*
X40208Y-201155D01*
G01X44550Y-202100D02*
X43923Y-201995D01*
X43375Y-201575D01*
X42905Y-200945D01*
X42592Y-200210D01*
X42435Y-199370D01*
Y-198530D01*
X42592Y-197690D01*
X42905Y-196955D01*
X43375Y-196325D01*
X43923Y-195905D01*
X44550Y-195800D01*
X45177Y-195905D01*
X45725Y-196325D01*
X46195Y-196955D01*
X46508Y-197690D01*
X46665Y-198530D01*
Y-199370D01*
X46508Y-200210D01*
X46195Y-200945D01*
X45725Y-201575D01*
X45177Y-201995D01*
X44550Y-202100D01*
G01X49048D02*
Y-195800D01*
X52652Y-202100D01*
Y-195800D01*
G01X55427Y-202100D02*
Y-195800D01*
X56993D01*
X57620Y-196115D01*
X58090Y-196535D01*
X58482Y-197165D01*
X58795Y-197900D01*
X58873Y-198950D01*
X58795Y-200000D01*
X58482Y-200735D01*
X58090Y-201365D01*
X57620Y-201785D01*
X56993Y-202100D01*
X55427D01*
G01X61492D02*
X63450Y-195800D01*
X65408Y-202100D01*
G01X64703Y-199895D02*
X62197D01*
G01X68183Y-202100D02*
Y-195800D01*
X70142D01*
X70768Y-196115D01*
X71160Y-196535D01*
X71317Y-197375D01*
X71160Y-198215D01*
X70690Y-198740D01*
X70142Y-199055D01*
X68183D01*
G01X70142D02*
X71317Y-202100D01*
G01X76050D02*
Y-199265D01*
X74483Y-195800D01*
G01X77617D02*
X76050Y-199265D01*
G01X87005Y-201260D02*
X87632Y-201785D01*
X88337Y-202100D01*
X88963D01*
X89590Y-201785D01*
X90060Y-201260D01*
X90295Y-200525D01*
X90138Y-199790D01*
X89747Y-199160D01*
X89042Y-198740D01*
X88102Y-198530D01*
X87553Y-198110D01*
X87318Y-197375D01*
X87475Y-196640D01*
X87867Y-196115D01*
X88415Y-195800D01*
X88963D01*
X89512Y-196010D01*
X89982Y-196535D01*
G01X94950Y-202100D02*
X94323Y-201995D01*
X93775Y-201575D01*
X93305Y-200945D01*
X92992Y-200210D01*
X92835Y-199370D01*
Y-198530D01*
X92992Y-197690D01*
X93305Y-196955D01*
X93775Y-196325D01*
X94323Y-195905D01*
X94950Y-195800D01*
X95577Y-195905D01*
X96125Y-196325D01*
X96595Y-196955D01*
X96908Y-197690D01*
X97065Y-198530D01*
Y-199370D01*
X96908Y-200210D01*
X96595Y-200945D01*
X96125Y-201575D01*
X95577Y-201995D01*
X94950Y-202100D01*
G01X99683Y-195800D02*
Y-202100D01*
X102817D01*
G01X105827D02*
Y-195800D01*
X107393D01*
X108020Y-196115D01*
X108490Y-196535D01*
X108882Y-197165D01*
X109195Y-197900D01*
X109273Y-198950D01*
X109195Y-200000D01*
X108882Y-200735D01*
X108490Y-201365D01*
X108020Y-201785D01*
X107393Y-202100D01*
X105827D01*
G01X115417D02*
X112283D01*
Y-195800D01*
X115417D01*
G01X114163Y-198845D02*
X112283D01*
G01X118583Y-202100D02*
Y-195800D01*
X120542D01*
X121168Y-196115D01*
X121560Y-196535D01*
X121717Y-197375D01*
X121560Y-198215D01*
X121090Y-198740D01*
X120542Y-199055D01*
X118583D01*
G01X120542D02*
X121717Y-202100D01*
G01X124413D02*
Y-195800D01*
X126450Y-201050D01*
X128487Y-195800D01*
Y-202100D01*
G01X130792D02*
X132750Y-195800D01*
X134708Y-202100D01*
G01X134003Y-199895D02*
X131497D01*
G01X137405Y-201260D02*
X138032Y-201785D01*
X138737Y-202100D01*
X139363D01*
X139990Y-201785D01*
X140460Y-201260D01*
X140695Y-200525D01*
X140538Y-199790D01*
X140147Y-199160D01*
X139442Y-198740D01*
X138502Y-198530D01*
X137953Y-198110D01*
X137718Y-197375D01*
X137875Y-196640D01*
X138267Y-196115D01*
X138815Y-195800D01*
X139363D01*
X139912Y-196010D01*
X140382Y-196535D01*
G01X143627Y-202100D02*
Y-195800D01*
G01X146603D02*
X143627Y-199685D01*
G01X147073Y-202100D02*
X144958Y-197900D01*
G01X165205Y-162000D02*
X168495Y-155700D01*
G01X165205D02*
X168495Y-162000D01*
G01X235850Y-200000D02*
Y-193700D01*
X234910Y-194960D01*
G01Y-200000D02*
X236790D01*
G01X241993D02*
X242150Y-198635D01*
X242385Y-197480D01*
X242698Y-196430D01*
X243090Y-195275D01*
X243717Y-193700D01*
X240583D01*
G01X248450D02*
X247823Y-193910D01*
X247353Y-194435D01*
X247040Y-195065D01*
X246805Y-195905D01*
X246727Y-196850D01*
X246805Y-197795D01*
X247040Y-198635D01*
X247353Y-199265D01*
X247823Y-199790D01*
X248450Y-200000D01*
X249077Y-199790D01*
X249547Y-199265D01*
X249860Y-198635D01*
X250095Y-197795D01*
X250173Y-196850D01*
X250095Y-195905D01*
X249860Y-195065D01*
X249547Y-194435D01*
X249077Y-193910D01*
X248450Y-193700D01*
G01X253732Y-197900D02*
X255768D01*
G01X259327Y-198740D02*
X259797Y-199475D01*
X260423Y-199895D01*
X261128Y-200000D01*
X261755Y-199895D01*
X262382Y-199370D01*
X262773Y-198740D01*
X262852Y-198110D01*
X262695Y-197375D01*
X262147Y-196850D01*
X261598Y-196640D01*
X260893D01*
G01X261598D02*
X262068Y-196325D01*
X262460Y-195800D01*
X262617Y-195170D01*
X262460Y-194540D01*
X262068Y-194015D01*
X261363Y-193700D01*
X260658Y-193805D01*
X259953Y-194225D01*
G01X267350Y-200000D02*
X267898Y-199895D01*
X268525Y-199580D01*
X268917Y-199055D01*
X269073Y-198320D01*
X268917Y-197585D01*
X268447Y-196955D01*
X267742Y-196640D01*
X266958D01*
X266488Y-196430D01*
X266097Y-195905D01*
X265940Y-195170D01*
X266175Y-194435D01*
X266723Y-193910D01*
X267350Y-193700D01*
X267977Y-193910D01*
X268525Y-194435D01*
X268760Y-195170D01*
X268603Y-195905D01*
X268212Y-196430D01*
X267742Y-196640D01*
X266958D01*
X266253Y-196955D01*
X265783Y-197585D01*
X265627Y-198320D01*
X265783Y-199055D01*
X266175Y-199580D01*
X266802Y-199895D01*
X267350Y-200000D01*
G01X273650D02*
X274198Y-199895D01*
X274825Y-199580D01*
X275217Y-199055D01*
X275373Y-198320D01*
X275217Y-197585D01*
X274747Y-196955D01*
X274042Y-196640D01*
X273258D01*
X272788Y-196430D01*
X272397Y-195905D01*
X272240Y-195170D01*
X272475Y-194435D01*
X273023Y-193910D01*
X273650Y-193700D01*
X274277Y-193910D01*
X274825Y-194435D01*
X275060Y-195170D01*
X274903Y-195905D01*
X274512Y-196430D01*
X274042Y-196640D01*
X273258D01*
X272553Y-196955D01*
X272083Y-197585D01*
X271927Y-198320D01*
X272083Y-199055D01*
X272475Y-199580D01*
X273102Y-199895D01*
X273650Y-200000D01*
G01X278462Y-194750D02*
X278932Y-194120D01*
X279480Y-193805D01*
X280107Y-193700D01*
X280890Y-193910D01*
X281438Y-194435D01*
X281595Y-195065D01*
X281517Y-195695D01*
X281203Y-196220D01*
X279637Y-197270D01*
X278932Y-198005D01*
X278462Y-199055D01*
X278305Y-200000D01*
X281595D01*
G01X286250Y-193700D02*
X285623Y-193910D01*
X285153Y-194435D01*
X284840Y-195065D01*
X284605Y-195905D01*
X284527Y-196850D01*
X284605Y-197795D01*
X284840Y-198635D01*
X285153Y-199265D01*
X285623Y-199790D01*
X286250Y-200000D01*
X286877Y-199790D01*
X287347Y-199265D01*
X287660Y-198635D01*
X287895Y-197795D01*
X287973Y-196850D01*
X287895Y-195905D01*
X287660Y-195065D01*
X287347Y-194435D01*
X286877Y-193910D01*
X286250Y-193700D01*
G01X328783Y-200000D02*
Y-193700D01*
X330742D01*
X331368Y-194015D01*
X331760Y-194435D01*
X331917Y-195275D01*
X331760Y-196115D01*
X331290Y-196640D01*
X330742Y-196955D01*
X328783D01*
G01X330742D02*
X331917Y-200000D01*
G01X338217D02*
X335083D01*
Y-193700D01*
X338217D01*
G01X336963Y-196745D02*
X335083D01*
G01X340992Y-193700D02*
X342950Y-200000D01*
X344908Y-193700D01*
G01X353592Y-200000D02*
X355550Y-193700D01*
X357508Y-200000D01*
G01X356803Y-197795D02*
X354297D01*
G01X235813Y-127000D02*
Y-120700D01*
X237850Y-125950D01*
X239887Y-120700D01*
Y-127000D01*
G01X245873Y-121225D02*
X245403Y-120910D01*
X244855Y-120700D01*
X244228D01*
X243523Y-121015D01*
X242975Y-121540D01*
X242583Y-122170D01*
X242270Y-123220D01*
X242192Y-124165D01*
X242348Y-125110D01*
X242583Y-125740D01*
X243053Y-126370D01*
X243602Y-126790D01*
X244150Y-127000D01*
X244698D01*
X245247Y-126790D01*
X245717Y-126475D01*
X246108Y-126055D01*
G01X249510Y-120700D02*
X251390D01*
G01X250450D02*
Y-127000D01*
G01X249510D02*
X251390D01*
G01X254713D02*
Y-120700D01*
X256750Y-125950D01*
X258787Y-120700D01*
Y-127000D01*
G01X261405D02*
X264695Y-120700D01*
G01X261405D02*
X264695Y-127000D01*
G01X269350D02*
X269898Y-126895D01*
X270525Y-126580D01*
X270917Y-126055D01*
X271073Y-125320D01*
X270917Y-124585D01*
X270447Y-123955D01*
X269742Y-123640D01*
X268958D01*
X268488Y-123430D01*
X268097Y-122905D01*
X267940Y-122170D01*
X268175Y-121435D01*
X268723Y-120910D01*
X269350Y-120700D01*
X269977Y-120910D01*
X270525Y-121435D01*
X270760Y-122170D01*
X270603Y-122905D01*
X270212Y-123430D01*
X269742Y-123640D01*
X268958D01*
X268253Y-123955D01*
X267783Y-124585D01*
X267627Y-125320D01*
X267783Y-126055D01*
X268175Y-126580D01*
X268802Y-126895D01*
X269350Y-127000D01*
G01X273613D02*
Y-120700D01*
X275650Y-125950D01*
X277687Y-120700D01*
Y-127000D01*
G01X280932Y-124900D02*
X282968D01*
G01X289817Y-127000D02*
X286683D01*
Y-120700D01*
X289817D01*
G01X288563Y-123745D02*
X286683D01*
G01X292592Y-120700D02*
X294550Y-127000D01*
X296508Y-120700D01*
G01X299127Y-127000D02*
Y-120700D01*
G01X302103D02*
X299127Y-124585D01*
G01X302573Y-127000D02*
X300458Y-122800D01*
G01X307777Y-123640D02*
X308090Y-123325D01*
X308325Y-122800D01*
X308482Y-122065D01*
X308325Y-121435D01*
X308012Y-121015D01*
X307463Y-120700D01*
X305348D01*
Y-127000D01*
X307933D01*
X308482Y-126580D01*
X308795Y-125950D01*
X308952Y-125215D01*
X308795Y-124480D01*
X308325Y-123850D01*
X307777Y-123640D01*
X305348D01*
G54D77*
X324421Y-7000D03*
X344500D03*
G54D68*
X244000Y35972D03*
Y43028D03*
G54D59*
X174000Y44500D03*
X179000Y54500D03*
X184000Y44500D03*
X189000Y54500D03*
X194000Y44500D03*
X204000D03*
X199000Y54500D03*
X214000Y44500D03*
X209000Y54500D03*
G54D87*
G01X-23969Y-192371D02*
X-23497Y-192764D01*
X-22966Y-193000D01*
X-22494D01*
X-22022Y-192764D01*
X-21668Y-192371D01*
X-21491Y-191820D01*
X-21609Y-191269D01*
X-21904Y-190797D01*
X-22435Y-190483D01*
X-23143Y-190325D01*
X-23556Y-190011D01*
X-23733Y-189460D01*
X-23615Y-188909D01*
X-23320Y-188516D01*
X-22907Y-188280D01*
X-22494D01*
X-22081Y-188437D01*
X-21727Y-188831D01*
G01X-19249Y-193000D02*
Y-188280D01*
G01X-16771D02*
Y-193000D01*
G01Y-190640D02*
X-19249D01*
G01X-12110Y-193000D02*
X-14470D01*
Y-188280D01*
X-12110D01*
G01X-13054Y-190561D02*
X-14470D01*
G01X-7390Y-193000D02*
X-9750D01*
Y-188280D01*
X-7390D01*
G01X-8334Y-190561D02*
X-9750D01*
G01X-3850Y-188280D02*
Y-193000D01*
G01X-5207Y-188280D02*
X-2493D01*
G01X-24205Y-132000D02*
X-22730Y-127280D01*
X-21255Y-132000D01*
G01X-21786Y-130348D02*
X-23674D01*
G01X-19308Y-127280D02*
Y-130663D01*
X-19072Y-131371D01*
X-18600Y-131843D01*
X-18010Y-132000D01*
X-17420Y-131843D01*
X-16948Y-131371D01*
X-16712Y-130663D01*
Y-127280D01*
G01X-14529Y-131371D02*
X-14057Y-131764D01*
X-13526Y-132000D01*
X-13054D01*
X-12582Y-131764D01*
X-12228Y-131371D01*
X-12051Y-130820D01*
X-12169Y-130269D01*
X-12464Y-129797D01*
X-12995Y-129483D01*
X-13703Y-129325D01*
X-14116Y-129011D01*
X-14293Y-128460D01*
X-14175Y-127909D01*
X-13880Y-127516D01*
X-13467Y-127280D01*
X-13054D01*
X-12641Y-127437D01*
X-12287Y-127831D01*
G01X-8570Y-127280D02*
Y-132000D01*
G01X-9927Y-127280D02*
X-7213D01*
G01X-4558D02*
X-3142D01*
G01X-3850D02*
Y-132000D01*
G01X-4558D02*
X-3142D01*
G01X-487D02*
Y-127280D01*
X2227Y-132000D01*
Y-127280D01*
G01X5590Y-132157D02*
X5472Y-132079D01*
Y-131921D01*
X5590Y-131843D01*
X5708Y-131921D01*
Y-132079D01*
X5590Y-132157D01*
G01X15030Y-127280D02*
Y-132000D01*
G01X13673Y-127280D02*
X16387D01*
G01X20930Y-132000D02*
X18570D01*
Y-127280D01*
X20930D01*
G01X19986Y-129561D02*
X18570D01*
G01X23231Y-132000D02*
X25709Y-127280D01*
G01X23231D02*
X25709Y-132000D01*
G01X27715D02*
X29190Y-127280D01*
X30665Y-132000D01*
G01X30134Y-130348D02*
X28246D01*
G01X32671Y-131371D02*
X33143Y-131764D01*
X33674Y-132000D01*
X34146D01*
X34618Y-131764D01*
X34972Y-131371D01*
X35149Y-130820D01*
X35031Y-130269D01*
X34736Y-129797D01*
X34205Y-129483D01*
X33497Y-129325D01*
X33084Y-129011D01*
X32907Y-128460D01*
X33025Y-127909D01*
X33320Y-127516D01*
X33733Y-127280D01*
X34146D01*
X34559Y-127437D01*
X34913Y-127831D01*
G01X43232Y-132000D02*
X43350Y-130977D01*
X43527Y-130112D01*
X43763Y-129325D01*
X44058Y-128460D01*
X44530Y-127280D01*
X42170D01*
G01X48070Y-132000D02*
X48483Y-131921D01*
X48955Y-131685D01*
X49250Y-131292D01*
X49368Y-130741D01*
X49250Y-130191D01*
X48896Y-129719D01*
X48365Y-129483D01*
X47775D01*
X47421Y-129325D01*
X47126Y-128932D01*
X47008Y-128381D01*
X47185Y-127831D01*
X47598Y-127437D01*
X48070Y-127280D01*
X48542Y-127437D01*
X48955Y-127831D01*
X49132Y-128381D01*
X49014Y-128932D01*
X48719Y-129325D01*
X48365Y-129483D01*
X47775D01*
X47244Y-129719D01*
X46890Y-130191D01*
X46772Y-130741D01*
X46890Y-131292D01*
X47185Y-131685D01*
X47657Y-131921D01*
X48070Y-132000D01*
G01X52672D02*
X52790Y-130977D01*
X52967Y-130112D01*
X53203Y-129325D01*
X53498Y-128460D01*
X53970Y-127280D01*
X51610D01*
G01X56212Y-131056D02*
X56566Y-131607D01*
X57038Y-131921D01*
X57569Y-132000D01*
X58041Y-131921D01*
X58513Y-131528D01*
X58808Y-131056D01*
X58867Y-130584D01*
X58749Y-130033D01*
X58336Y-129640D01*
X57923Y-129483D01*
X57392D01*
G01X57923D02*
X58277Y-129247D01*
X58572Y-128853D01*
X58690Y-128381D01*
X58572Y-127909D01*
X58277Y-127516D01*
X57746Y-127280D01*
X57215Y-127359D01*
X56684Y-127673D01*
G01X60932Y-131292D02*
X61286Y-131685D01*
X61699Y-131921D01*
X62230Y-132000D01*
X62761Y-131843D01*
X63174Y-131528D01*
X63469Y-130977D01*
X63528Y-130348D01*
X63410Y-129719D01*
X63115Y-129325D01*
X62702Y-129011D01*
X62289Y-128932D01*
X61876Y-129011D01*
X61345Y-129325D01*
X61522Y-127280D01*
X63115D01*
G01X70372D02*
Y-130663D01*
X70608Y-131371D01*
X71080Y-131843D01*
X71670Y-132000D01*
X72260Y-131843D01*
X72732Y-131371D01*
X72968Y-130663D01*
Y-127280D01*
G01X75151Y-131371D02*
X75623Y-131764D01*
X76154Y-132000D01*
X76626D01*
X77098Y-131764D01*
X77452Y-131371D01*
X77629Y-130820D01*
X77511Y-130269D01*
X77216Y-129797D01*
X76685Y-129483D01*
X75977Y-129325D01*
X75564Y-129011D01*
X75387Y-128460D01*
X75505Y-127909D01*
X75800Y-127516D01*
X76213Y-127280D01*
X76626D01*
X77039Y-127437D01*
X77393Y-127831D01*
G01X79635Y-132000D02*
X81110Y-127280D01*
X82585Y-132000D01*
G01X82054Y-130348D02*
X80166D01*
G01X-23851Y-123033D02*
X-23438Y-122483D01*
X-23084Y-122168D01*
X-22612Y-122011D01*
X-22199Y-122168D01*
X-21904Y-122483D01*
X-21668Y-122955D01*
X-21609Y-123505D01*
X-21668Y-123977D01*
X-21904Y-124449D01*
X-22258Y-124843D01*
X-22671Y-125000D01*
X-23143Y-124843D01*
X-23556Y-124371D01*
X-23792Y-123663D01*
X-23851Y-122876D01*
X-23733Y-121853D01*
X-23556Y-121303D01*
X-23261Y-120752D01*
X-22848Y-120359D01*
X-22435Y-120280D01*
X-22022Y-120437D01*
X-21727Y-120831D01*
G01X-19308Y-124292D02*
X-18954Y-124685D01*
X-18541Y-124921D01*
X-18010Y-125000D01*
X-17479Y-124843D01*
X-17066Y-124528D01*
X-16771Y-123977D01*
X-16712Y-123348D01*
X-16830Y-122719D01*
X-17125Y-122325D01*
X-17538Y-122011D01*
X-17951Y-121932D01*
X-18364Y-122011D01*
X-18895Y-122325D01*
X-18718Y-120280D01*
X-17125D01*
G01X-13290D02*
X-13762Y-120437D01*
X-14116Y-120831D01*
X-14352Y-121303D01*
X-14529Y-121932D01*
X-14588Y-122640D01*
X-14529Y-123348D01*
X-14352Y-123977D01*
X-14116Y-124449D01*
X-13762Y-124843D01*
X-13290Y-125000D01*
X-12818Y-124843D01*
X-12464Y-124449D01*
X-12228Y-123977D01*
X-12051Y-123348D01*
X-11992Y-122640D01*
X-12051Y-121932D01*
X-12228Y-121303D01*
X-12464Y-120831D01*
X-12818Y-120437D01*
X-13290Y-120280D01*
G01X-8570Y-125000D02*
Y-120280D01*
X-9278Y-121224D01*
G01Y-125000D02*
X-7862D01*
G01X-900Y-120280D02*
X-74Y-125000D01*
X870Y-120280D01*
X1814Y-125000D01*
X2640Y-120280D01*
G01X4882D02*
X6298D01*
G01X5590D02*
Y-125000D01*
G01X4882D02*
X6298D01*
G01X9130Y-120280D02*
Y-125000D01*
X11490D01*
G01X13850Y-120280D02*
Y-125000D01*
X16210D01*
G01X19042Y-120280D02*
X20458D01*
G01X19750D02*
Y-125000D01*
G01X19042D02*
X20458D01*
G01X22995D02*
X24470Y-120280D01*
X25945Y-125000D01*
G01X25414Y-123348D02*
X23526D01*
G01X27656Y-125000D02*
Y-120280D01*
X29190Y-124213D01*
X30724Y-120280D01*
Y-125000D01*
G01X39928Y-120673D02*
X39574Y-120437D01*
X39161Y-120280D01*
X38689D01*
X38158Y-120516D01*
X37745Y-120909D01*
X37450Y-121381D01*
X37214Y-122168D01*
X37155Y-122876D01*
X37273Y-123584D01*
X37450Y-124056D01*
X37804Y-124528D01*
X38217Y-124843D01*
X38630Y-125000D01*
X39043D01*
X39456Y-124843D01*
X39810Y-124607D01*
X40105Y-124292D01*
G01X41875Y-125000D02*
X43350Y-120280D01*
X44825Y-125000D01*
G01X44294Y-123348D02*
X42406D01*
G01X46713Y-125000D02*
Y-120280D01*
X49427Y-125000D01*
Y-120280D01*
G01X51433Y-125000D02*
Y-120280D01*
X54147Y-125000D01*
Y-120280D01*
G01X57510Y-125000D02*
X57038Y-124921D01*
X56625Y-124607D01*
X56271Y-124135D01*
X56035Y-123584D01*
X55917Y-122955D01*
Y-122325D01*
X56035Y-121696D01*
X56271Y-121145D01*
X56625Y-120673D01*
X57038Y-120359D01*
X57510Y-120280D01*
X57982Y-120359D01*
X58395Y-120673D01*
X58749Y-121145D01*
X58985Y-121696D01*
X59103Y-122325D01*
Y-122955D01*
X58985Y-123584D01*
X58749Y-124135D01*
X58395Y-124607D01*
X57982Y-124921D01*
X57510Y-125000D01*
G01X60873D02*
Y-120280D01*
X63587Y-125000D01*
Y-120280D01*
G01X70372Y-125000D02*
Y-120280D01*
X71552D01*
X72024Y-120516D01*
X72378Y-120831D01*
X72673Y-121303D01*
X72909Y-121853D01*
X72968Y-122640D01*
X72909Y-123427D01*
X72673Y-123977D01*
X72378Y-124449D01*
X72024Y-124764D01*
X71552Y-125000D01*
X70372D01*
G01X75210D02*
Y-120280D01*
X76685D01*
X77157Y-120516D01*
X77452Y-120831D01*
X77570Y-121460D01*
X77452Y-122089D01*
X77098Y-122483D01*
X76685Y-122719D01*
X75210D01*
G01X76685D02*
X77570Y-125000D01*
G01X80402Y-120280D02*
X81818D01*
G01X81110D02*
Y-125000D01*
G01X80402D02*
X81818D01*
G01X84355Y-120280D02*
X85830Y-125000D01*
X87305Y-120280D01*
G01X91730Y-125000D02*
X89370D01*
Y-120280D01*
X91730D01*
G01X90786Y-122561D02*
X89370D01*
G01X98220Y-120280D02*
X99046Y-125000D01*
X99990Y-120280D01*
X100934Y-125000D01*
X101760Y-120280D01*
G01X105890Y-125000D02*
X103530D01*
Y-120280D01*
X105890D01*
G01X104946Y-122561D02*
X103530D01*
G01X108191Y-124371D02*
X108663Y-124764D01*
X109194Y-125000D01*
X109666D01*
X110138Y-124764D01*
X110492Y-124371D01*
X110669Y-123820D01*
X110551Y-123269D01*
X110256Y-122797D01*
X109725Y-122483D01*
X109017Y-122325D01*
X108604Y-122011D01*
X108427Y-121460D01*
X108545Y-120909D01*
X108840Y-120516D01*
X109253Y-120280D01*
X109666D01*
X110079Y-120437D01*
X110433Y-120831D01*
G01X114150Y-120280D02*
Y-125000D01*
G01X112793Y-120280D02*
X115507D01*
G01X-16087Y-182000D02*
Y-177280D01*
X-13373Y-182000D01*
Y-177280D01*
G01X-11249Y-182000D02*
X-8771Y-177280D01*
G01X-11249D02*
X-8771Y-182000D01*
G01X-6470D02*
Y-177280D01*
X-5054D01*
X-4582Y-177516D01*
X-4228Y-178067D01*
X-4110Y-178696D01*
X-4228Y-179325D01*
X-4523Y-179797D01*
X-5054Y-180033D01*
X-6470D01*
G01X-570Y-182157D02*
X-688Y-182079D01*
Y-181921D01*
X-570Y-181843D01*
X-452Y-181921D01*
Y-182079D01*
X-570Y-182157D01*
G01X-15730Y-174000D02*
X-16202Y-173921D01*
X-16615Y-173607D01*
X-16969Y-173135D01*
X-17205Y-172584D01*
X-17323Y-171955D01*
Y-171325D01*
X-17205Y-170696D01*
X-16969Y-170145D01*
X-16615Y-169673D01*
X-16202Y-169359D01*
X-15730Y-169280D01*
X-15258Y-169359D01*
X-14845Y-169673D01*
X-14491Y-170145D01*
X-14255Y-170696D01*
X-14137Y-171325D01*
Y-171955D01*
X-14255Y-172584D01*
X-14491Y-173135D01*
X-14845Y-173607D01*
X-15258Y-173921D01*
X-15730Y-174000D01*
G01X-12190D02*
Y-169280D01*
X-10715D01*
X-10243Y-169516D01*
X-9948Y-169831D01*
X-9830Y-170460D01*
X-9948Y-171089D01*
X-10302Y-171483D01*
X-10715Y-171719D01*
X-12190D01*
G01X-10715D02*
X-9830Y-174000D01*
G01X-2278Y-169280D02*
X-862D01*
G01X-1570D02*
Y-174000D01*
G01X-2278D02*
X-862D01*
G01X1793D02*
Y-169280D01*
X4507Y-174000D01*
Y-169280D01*
G01X11410Y-174000D02*
Y-169280D01*
X12826D01*
X13298Y-169516D01*
X13652Y-170067D01*
X13770Y-170696D01*
X13652Y-171325D01*
X13357Y-171797D01*
X12826Y-172033D01*
X11410D01*
G01X15835Y-174000D02*
X17310Y-169280D01*
X18785Y-174000D01*
G01X18254Y-172348D02*
X16366D01*
G01X20850Y-174000D02*
Y-169280D01*
X22325D01*
X22797Y-169516D01*
X23092Y-169831D01*
X23210Y-170460D01*
X23092Y-171089D01*
X22738Y-171483D01*
X22325Y-171719D01*
X20850D01*
G01X22325D02*
X23210Y-174000D01*
G01X26750Y-169280D02*
Y-174000D01*
G01X25393Y-169280D02*
X28107D01*
G01X34420D02*
X35246Y-174000D01*
X36190Y-169280D01*
X37134Y-174000D01*
X37960Y-169280D01*
G01X40202D02*
X41618D01*
G01X40910D02*
Y-174000D01*
G01X40202D02*
X41618D01*
G01X45630Y-169280D02*
Y-174000D01*
G01X44273Y-169280D02*
X46987D01*
G01X49111Y-174000D02*
Y-169280D01*
G01X51589D02*
Y-174000D01*
G01Y-171640D02*
X49111D01*
G01X55070Y-174000D02*
X54598Y-173921D01*
X54185Y-173607D01*
X53831Y-173135D01*
X53595Y-172584D01*
X53477Y-171955D01*
Y-171325D01*
X53595Y-170696D01*
X53831Y-170145D01*
X54185Y-169673D01*
X54598Y-169359D01*
X55070Y-169280D01*
X55542Y-169359D01*
X55955Y-169673D01*
X56309Y-170145D01*
X56545Y-170696D01*
X56663Y-171325D01*
Y-171955D01*
X56545Y-172584D01*
X56309Y-173135D01*
X55955Y-173607D01*
X55542Y-173921D01*
X55070Y-174000D01*
G01X58492Y-169280D02*
Y-172663D01*
X58728Y-173371D01*
X59200Y-173843D01*
X59790Y-174000D01*
X60380Y-173843D01*
X60852Y-173371D01*
X61088Y-172663D01*
Y-169280D01*
G01X64510D02*
Y-174000D01*
G01X63153Y-169280D02*
X65867D01*
G01X73950D02*
Y-174000D01*
G01X72593Y-169280D02*
X75307D01*
G01X77431Y-174000D02*
Y-169280D01*
G01X79909D02*
Y-174000D01*
G01Y-171640D02*
X77431D01*
G01X84570Y-174000D02*
X82210D01*
Y-169280D01*
X84570D01*
G01X83626Y-171561D02*
X82210D01*
G01X94128Y-169673D02*
X93774Y-169437D01*
X93361Y-169280D01*
X92889D01*
X92358Y-169516D01*
X91945Y-169909D01*
X91650Y-170381D01*
X91414Y-171168D01*
X91355Y-171876D01*
X91473Y-172584D01*
X91650Y-173056D01*
X92004Y-173528D01*
X92417Y-173843D01*
X92830Y-174000D01*
X93243D01*
X93656Y-173843D01*
X94010Y-173607D01*
X94305Y-173292D01*
G01X97550Y-174000D02*
X97078Y-173921D01*
X96665Y-173607D01*
X96311Y-173135D01*
X96075Y-172584D01*
X95957Y-171955D01*
Y-171325D01*
X96075Y-170696D01*
X96311Y-170145D01*
X96665Y-169673D01*
X97078Y-169359D01*
X97550Y-169280D01*
X98022Y-169359D01*
X98435Y-169673D01*
X98789Y-170145D01*
X99025Y-170696D01*
X99143Y-171325D01*
Y-171955D01*
X99025Y-172584D01*
X98789Y-173135D01*
X98435Y-173607D01*
X98022Y-173921D01*
X97550Y-174000D01*
G01X100913D02*
Y-169280D01*
X103627Y-174000D01*
Y-169280D01*
G01X105751Y-173371D02*
X106223Y-173764D01*
X106754Y-174000D01*
X107226D01*
X107698Y-173764D01*
X108052Y-173371D01*
X108229Y-172820D01*
X108111Y-172269D01*
X107816Y-171797D01*
X107285Y-171483D01*
X106577Y-171325D01*
X106164Y-171011D01*
X105987Y-170460D01*
X106105Y-169909D01*
X106400Y-169516D01*
X106813Y-169280D01*
X107226D01*
X107639Y-169437D01*
X107993Y-169831D01*
G01X112890Y-174000D02*
X110530D01*
Y-169280D01*
X112890D01*
G01X111946Y-171561D02*
X110530D01*
G01X115073Y-174000D02*
Y-169280D01*
X117787Y-174000D01*
Y-169280D01*
G01X121150D02*
Y-174000D01*
G01X119793Y-169280D02*
X122507D01*
G01X130590Y-174000D02*
X130118Y-173921D01*
X129705Y-173607D01*
X129351Y-173135D01*
X129115Y-172584D01*
X128997Y-171955D01*
Y-171325D01*
X129115Y-170696D01*
X129351Y-170145D01*
X129705Y-169673D01*
X130118Y-169359D01*
X130590Y-169280D01*
X131062Y-169359D01*
X131475Y-169673D01*
X131829Y-170145D01*
X132065Y-170696D01*
X132183Y-171325D01*
Y-171955D01*
X132065Y-172584D01*
X131829Y-173135D01*
X131475Y-173607D01*
X131062Y-173921D01*
X130590Y-174000D01*
G01X134189D02*
Y-169280D01*
X136431D01*
G01X135605Y-171561D02*
X134189D01*
G01X-16910Y-166000D02*
Y-161280D01*
X-15494D01*
X-15022Y-161516D01*
X-14668Y-162067D01*
X-14550Y-162696D01*
X-14668Y-163325D01*
X-14963Y-163797D01*
X-15494Y-164033D01*
X-16910D01*
G01X-12190Y-166000D02*
Y-161280D01*
X-10715D01*
X-10243Y-161516D01*
X-9948Y-161831D01*
X-9830Y-162460D01*
X-9948Y-163089D01*
X-10302Y-163483D01*
X-10715Y-163719D01*
X-12190D01*
G01X-10715D02*
X-9830Y-166000D01*
G01X-6290D02*
X-6762Y-165921D01*
X-7175Y-165607D01*
X-7529Y-165135D01*
X-7765Y-164584D01*
X-7883Y-163955D01*
Y-163325D01*
X-7765Y-162696D01*
X-7529Y-162145D01*
X-7175Y-161673D01*
X-6762Y-161359D01*
X-6290Y-161280D01*
X-5818Y-161359D01*
X-5405Y-161673D01*
X-5051Y-162145D01*
X-4815Y-162696D01*
X-4697Y-163325D01*
Y-163955D01*
X-4815Y-164584D01*
X-5051Y-165135D01*
X-5405Y-165607D01*
X-5818Y-165921D01*
X-6290Y-166000D01*
G01X-272Y-161673D02*
X-626Y-161437D01*
X-1039Y-161280D01*
X-1511D01*
X-2042Y-161516D01*
X-2455Y-161909D01*
X-2750Y-162381D01*
X-2986Y-163168D01*
X-3045Y-163876D01*
X-2927Y-164584D01*
X-2750Y-165056D01*
X-2396Y-165528D01*
X-1983Y-165843D01*
X-1570Y-166000D01*
X-1157D01*
X-744Y-165843D01*
X-390Y-165607D01*
X-95Y-165292D01*
G01X1852Y-161280D02*
Y-164663D01*
X2088Y-165371D01*
X2560Y-165843D01*
X3150Y-166000D01*
X3740Y-165843D01*
X4212Y-165371D01*
X4448Y-164663D01*
Y-161280D01*
G01X6690Y-166000D02*
Y-161280D01*
X8165D01*
X8637Y-161516D01*
X8932Y-161831D01*
X9050Y-162460D01*
X8932Y-163089D01*
X8578Y-163483D01*
X8165Y-163719D01*
X6690D01*
G01X8165D02*
X9050Y-166000D01*
G01X13770D02*
X11410D01*
Y-161280D01*
X13770D01*
G01X12826Y-163561D02*
X11410D01*
G01X15776Y-166000D02*
Y-161280D01*
X17310Y-165213D01*
X18844Y-161280D01*
Y-166000D01*
G01X23210D02*
X20850D01*
Y-161280D01*
X23210D01*
G01X22266Y-163561D02*
X20850D01*
G01X25393Y-166000D02*
Y-161280D01*
X28107Y-166000D01*
Y-161280D01*
G01X31470D02*
Y-166000D01*
G01X30113Y-161280D02*
X32827D01*
G01X40910Y-166000D02*
X40438Y-165921D01*
X40025Y-165607D01*
X39671Y-165135D01*
X39435Y-164584D01*
X39317Y-163955D01*
Y-163325D01*
X39435Y-162696D01*
X39671Y-162145D01*
X40025Y-161673D01*
X40438Y-161359D01*
X40910Y-161280D01*
X41382Y-161359D01*
X41795Y-161673D01*
X42149Y-162145D01*
X42385Y-162696D01*
X42503Y-163325D01*
Y-163955D01*
X42385Y-164584D01*
X42149Y-165135D01*
X41795Y-165607D01*
X41382Y-165921D01*
X40910Y-166000D01*
G01X44450D02*
Y-161280D01*
X45925D01*
X46397Y-161516D01*
X46692Y-161831D01*
X46810Y-162460D01*
X46692Y-163089D01*
X46338Y-163483D01*
X45925Y-163719D01*
X44450D01*
G01X45925D02*
X46810Y-166000D01*
G01X53536D02*
Y-161280D01*
X55070Y-165213D01*
X56604Y-161280D01*
Y-166000D01*
G01X58315D02*
X59790Y-161280D01*
X61265Y-166000D01*
G01X60734Y-164348D02*
X58846D01*
G01X63153Y-166000D02*
Y-161280D01*
X65867Y-166000D01*
Y-161280D01*
G01X67932D02*
Y-164663D01*
X68168Y-165371D01*
X68640Y-165843D01*
X69230Y-166000D01*
X69820Y-165843D01*
X70292Y-165371D01*
X70528Y-164663D01*
Y-161280D01*
G01X72829Y-166000D02*
Y-161280D01*
X75071D01*
G01X74245Y-163561D02*
X72829D01*
G01X77195Y-166000D02*
X78670Y-161280D01*
X80145Y-166000D01*
G01X79614Y-164348D02*
X77726D01*
G01X84688Y-161673D02*
X84334Y-161437D01*
X83921Y-161280D01*
X83449D01*
X82918Y-161516D01*
X82505Y-161909D01*
X82210Y-162381D01*
X81974Y-163168D01*
X81915Y-163876D01*
X82033Y-164584D01*
X82210Y-165056D01*
X82564Y-165528D01*
X82977Y-165843D01*
X83390Y-166000D01*
X83803D01*
X84216Y-165843D01*
X84570Y-165607D01*
X84865Y-165292D01*
G01X88110Y-161280D02*
Y-166000D01*
G01X86753Y-161280D02*
X89467D01*
G01X91532D02*
Y-164663D01*
X91768Y-165371D01*
X92240Y-165843D01*
X92830Y-166000D01*
X93420Y-165843D01*
X93892Y-165371D01*
X94128Y-164663D01*
Y-161280D01*
G01X96370Y-166000D02*
Y-161280D01*
X97845D01*
X98317Y-161516D01*
X98612Y-161831D01*
X98730Y-162460D01*
X98612Y-163089D01*
X98258Y-163483D01*
X97845Y-163719D01*
X96370D01*
G01X97845D02*
X98730Y-166000D01*
G01X103450D02*
X101090D01*
Y-161280D01*
X103450D01*
G01X102506Y-163561D02*
X101090D01*
G01X111002Y-161280D02*
X112418D01*
G01X111710D02*
Y-166000D01*
G01X111002D02*
X112418D01*
G01X115073D02*
Y-161280D01*
X117787Y-166000D01*
Y-161280D01*
G01X124100D02*
X124926Y-166000D01*
X125870Y-161280D01*
X126814Y-166000D01*
X127640Y-161280D01*
G01X129351Y-166000D02*
Y-161280D01*
G01X131829D02*
Y-166000D01*
G01Y-163640D02*
X129351D01*
G01X135310Y-166000D02*
X134838Y-165921D01*
X134425Y-165607D01*
X134071Y-165135D01*
X133835Y-164584D01*
X133717Y-163955D01*
Y-163325D01*
X133835Y-162696D01*
X134071Y-162145D01*
X134425Y-161673D01*
X134838Y-161359D01*
X135310Y-161280D01*
X135782Y-161359D01*
X136195Y-161673D01*
X136549Y-162145D01*
X136785Y-162696D01*
X136903Y-163325D01*
Y-163955D01*
X136785Y-164584D01*
X136549Y-165135D01*
X136195Y-165607D01*
X135782Y-165921D01*
X135310Y-166000D01*
G01X138850Y-161280D02*
Y-166000D01*
X141210D01*
G01X145930D02*
X143570D01*
Y-161280D01*
X145930D01*
G01X144986Y-163561D02*
X143570D01*
G01X-17087Y-158000D02*
Y-153280D01*
X-14373Y-158000D01*
Y-153280D01*
G01X-11010Y-158000D02*
X-11482Y-157921D01*
X-11895Y-157607D01*
X-12249Y-157135D01*
X-12485Y-156584D01*
X-12603Y-155955D01*
Y-155325D01*
X-12485Y-154696D01*
X-12249Y-154145D01*
X-11895Y-153673D01*
X-11482Y-153359D01*
X-11010Y-153280D01*
X-10538Y-153359D01*
X-10125Y-153673D01*
X-9771Y-154145D01*
X-9535Y-154696D01*
X-9417Y-155325D01*
Y-155955D01*
X-9535Y-156584D01*
X-9771Y-157135D01*
X-10125Y-157607D01*
X-10538Y-157921D01*
X-11010Y-158000D01*
G01X-6290Y-153280D02*
Y-158000D01*
G01X-7647Y-153280D02*
X-4933D01*
G01X3622Y-155483D02*
X3858Y-155247D01*
X4035Y-154853D01*
X4153Y-154303D01*
X4035Y-153831D01*
X3799Y-153516D01*
X3386Y-153280D01*
X1793D01*
Y-158000D01*
X3740D01*
X4153Y-157685D01*
X4389Y-157213D01*
X4507Y-156663D01*
X4389Y-156112D01*
X4035Y-155640D01*
X3622Y-155483D01*
X1793D01*
G01X9050Y-158000D02*
X6690D01*
Y-153280D01*
X9050D01*
G01X8106Y-155561D02*
X6690D01*
G01X16012Y-153280D02*
Y-156663D01*
X16248Y-157371D01*
X16720Y-157843D01*
X17310Y-158000D01*
X17900Y-157843D01*
X18372Y-157371D01*
X18608Y-156663D01*
Y-153280D01*
G01X20791Y-157371D02*
X21263Y-157764D01*
X21794Y-158000D01*
X22266D01*
X22738Y-157764D01*
X23092Y-157371D01*
X23269Y-156820D01*
X23151Y-156269D01*
X22856Y-155797D01*
X22325Y-155483D01*
X21617Y-155325D01*
X21204Y-155011D01*
X21027Y-154460D01*
X21145Y-153909D01*
X21440Y-153516D01*
X21853Y-153280D01*
X22266D01*
X22679Y-153437D01*
X23033Y-153831D01*
G01X27930Y-158000D02*
X25570D01*
Y-153280D01*
X27930D01*
G01X26986Y-155561D02*
X25570D01*
G01X30172Y-158000D02*
Y-153280D01*
X31352D01*
X31824Y-153516D01*
X32178Y-153831D01*
X32473Y-154303D01*
X32709Y-154853D01*
X32768Y-155640D01*
X32709Y-156427D01*
X32473Y-156977D01*
X32178Y-157449D01*
X31824Y-157764D01*
X31352Y-158000D01*
X30172D01*
G01X39789D02*
Y-153280D01*
X42031D01*
G01X41205Y-155561D02*
X39789D01*
G01X45630Y-158000D02*
X45158Y-157921D01*
X44745Y-157607D01*
X44391Y-157135D01*
X44155Y-156584D01*
X44037Y-155955D01*
Y-155325D01*
X44155Y-154696D01*
X44391Y-154145D01*
X44745Y-153673D01*
X45158Y-153359D01*
X45630Y-153280D01*
X46102Y-153359D01*
X46515Y-153673D01*
X46869Y-154145D01*
X47105Y-154696D01*
X47223Y-155325D01*
Y-155955D01*
X47105Y-156584D01*
X46869Y-157135D01*
X46515Y-157607D01*
X46102Y-157921D01*
X45630Y-158000D01*
G01X49170D02*
Y-153280D01*
X50645D01*
X51117Y-153516D01*
X51412Y-153831D01*
X51530Y-154460D01*
X51412Y-155089D01*
X51058Y-155483D01*
X50645Y-155719D01*
X49170D01*
G01X50645D02*
X51530Y-158000D01*
G01X60970D02*
X58610D01*
Y-153280D01*
X60970D01*
G01X60026Y-155561D02*
X58610D01*
G01X63153Y-158000D02*
Y-153280D01*
X65867Y-158000D01*
Y-153280D01*
G01X69584Y-155640D02*
X70764D01*
Y-157056D01*
X70410Y-157528D01*
X69997Y-157843D01*
X69407Y-158000D01*
X68817Y-157843D01*
X68404Y-157528D01*
X68050Y-157056D01*
X67814Y-156505D01*
X67696Y-155876D01*
Y-155325D01*
X67814Y-154853D01*
X68050Y-154303D01*
X68404Y-153831D01*
X68758Y-153516D01*
X69230Y-153280D01*
X69643D01*
X70115Y-153437D01*
X70469Y-153752D01*
G01X73242Y-153280D02*
X74658D01*
G01X73950D02*
Y-158000D01*
G01X73242D02*
X74658D01*
G01X77313D02*
Y-153280D01*
X80027Y-158000D01*
Y-153280D01*
G01X84570Y-158000D02*
X82210D01*
Y-153280D01*
X84570D01*
G01X83626Y-155561D02*
X82210D01*
G01X89290Y-158000D02*
X86930D01*
Y-153280D01*
X89290D01*
G01X88346Y-155561D02*
X86930D01*
G01X91650Y-158000D02*
Y-153280D01*
X93125D01*
X93597Y-153516D01*
X93892Y-153831D01*
X94010Y-154460D01*
X93892Y-155089D01*
X93538Y-155483D01*
X93125Y-155719D01*
X91650D01*
G01X93125D02*
X94010Y-158000D01*
G01X96842Y-153280D02*
X98258D01*
G01X97550D02*
Y-158000D01*
G01X96842D02*
X98258D01*
G01X100913D02*
Y-153280D01*
X103627Y-158000D01*
Y-153280D01*
G01X107344Y-155640D02*
X108524D01*
Y-157056D01*
X108170Y-157528D01*
X107757Y-157843D01*
X107167Y-158000D01*
X106577Y-157843D01*
X106164Y-157528D01*
X105810Y-157056D01*
X105574Y-156505D01*
X105456Y-155876D01*
Y-155325D01*
X105574Y-154853D01*
X105810Y-154303D01*
X106164Y-153831D01*
X106518Y-153516D01*
X106990Y-153280D01*
X107403D01*
X107875Y-153437D01*
X108229Y-153752D01*
G01X115132Y-158000D02*
Y-153280D01*
X116312D01*
X116784Y-153516D01*
X117138Y-153831D01*
X117433Y-154303D01*
X117669Y-154853D01*
X117728Y-155640D01*
X117669Y-156427D01*
X117433Y-156977D01*
X117138Y-157449D01*
X116784Y-157764D01*
X116312Y-158000D01*
X115132D01*
G01X122330D02*
X119970D01*
Y-153280D01*
X122330D01*
G01X121386Y-155561D02*
X119970D01*
G01X124631Y-157371D02*
X125103Y-157764D01*
X125634Y-158000D01*
X126106D01*
X126578Y-157764D01*
X126932Y-157371D01*
X127109Y-156820D01*
X126991Y-156269D01*
X126696Y-155797D01*
X126165Y-155483D01*
X125457Y-155325D01*
X125044Y-155011D01*
X124867Y-154460D01*
X124985Y-153909D01*
X125280Y-153516D01*
X125693Y-153280D01*
X126106D01*
X126519Y-153437D01*
X126873Y-153831D01*
G01X129882Y-153280D02*
X131298D01*
G01X130590D02*
Y-158000D01*
G01X129882D02*
X131298D01*
G01X135664Y-155640D02*
X136844D01*
Y-157056D01*
X136490Y-157528D01*
X136077Y-157843D01*
X135487Y-158000D01*
X134897Y-157843D01*
X134484Y-157528D01*
X134130Y-157056D01*
X133894Y-156505D01*
X133776Y-155876D01*
Y-155325D01*
X133894Y-154853D01*
X134130Y-154303D01*
X134484Y-153831D01*
X134838Y-153516D01*
X135310Y-153280D01*
X135723D01*
X136195Y-153437D01*
X136549Y-153752D01*
G01X138673Y-158000D02*
Y-153280D01*
X141387Y-158000D01*
Y-153280D01*
G01X-16910Y-150000D02*
Y-145280D01*
X-15494D01*
X-15022Y-145516D01*
X-14668Y-146067D01*
X-14550Y-146696D01*
X-14668Y-147325D01*
X-14963Y-147797D01*
X-15494Y-148033D01*
X-16910D01*
G01X-12190Y-150000D02*
Y-145280D01*
X-10715D01*
X-10243Y-145516D01*
X-9948Y-145831D01*
X-9830Y-146460D01*
X-9948Y-147089D01*
X-10302Y-147483D01*
X-10715Y-147719D01*
X-12190D01*
G01X-10715D02*
X-9830Y-150000D01*
G01X-6290D02*
X-6762Y-149921D01*
X-7175Y-149607D01*
X-7529Y-149135D01*
X-7765Y-148584D01*
X-7883Y-147955D01*
Y-147325D01*
X-7765Y-146696D01*
X-7529Y-146145D01*
X-7175Y-145673D01*
X-6762Y-145359D01*
X-6290Y-145280D01*
X-5818Y-145359D01*
X-5405Y-145673D01*
X-5051Y-146145D01*
X-4815Y-146696D01*
X-4697Y-147325D01*
Y-147955D01*
X-4815Y-148584D01*
X-5051Y-149135D01*
X-5405Y-149607D01*
X-5818Y-149921D01*
X-6290Y-150000D01*
G01X-2750D02*
Y-145280D01*
X-1334D01*
X-862Y-145516D01*
X-508Y-146067D01*
X-390Y-146696D01*
X-508Y-147325D01*
X-803Y-147797D01*
X-1334Y-148033D01*
X-2750D01*
G01X1970Y-150000D02*
Y-145280D01*
X3445D01*
X3917Y-145516D01*
X4212Y-145831D01*
X4330Y-146460D01*
X4212Y-147089D01*
X3858Y-147483D01*
X3445Y-147719D01*
X1970D01*
G01X3445D02*
X4330Y-150000D01*
G01X7162Y-145280D02*
X8578D01*
G01X7870D02*
Y-150000D01*
G01X7162D02*
X8578D01*
G01X13770D02*
X11410D01*
Y-145280D01*
X13770D01*
G01X12826Y-147561D02*
X11410D01*
G01X17310Y-145280D02*
Y-150000D01*
G01X15953Y-145280D02*
X18667D01*
G01X20555Y-150000D02*
X22030Y-145280D01*
X23505Y-150000D01*
G01X22974Y-148348D02*
X21086D01*
G01X25570Y-150000D02*
Y-145280D01*
X27045D01*
X27517Y-145516D01*
X27812Y-145831D01*
X27930Y-146460D01*
X27812Y-147089D01*
X27458Y-147483D01*
X27045Y-147719D01*
X25570D01*
G01X27045D02*
X27930Y-150000D01*
G01X31470D02*
Y-147876D01*
X30290Y-145280D01*
G01X32650D02*
X31470Y-147876D01*
G01X40910Y-145280D02*
Y-150000D01*
G01X39553Y-145280D02*
X42267D01*
G01X45630Y-150000D02*
X45158Y-149921D01*
X44745Y-149607D01*
X44391Y-149135D01*
X44155Y-148584D01*
X44037Y-147955D01*
Y-147325D01*
X44155Y-146696D01*
X44391Y-146145D01*
X44745Y-145673D01*
X45158Y-145359D01*
X45630Y-145280D01*
X46102Y-145359D01*
X46515Y-145673D01*
X46869Y-146145D01*
X47105Y-146696D01*
X47223Y-147325D01*
Y-147955D01*
X47105Y-148584D01*
X46869Y-149135D01*
X46515Y-149607D01*
X46102Y-149921D01*
X45630Y-150000D01*
G01X53713D02*
Y-145280D01*
X56427Y-150000D01*
Y-145280D01*
G01X58551Y-150000D02*
X61029Y-145280D01*
G01X58551D02*
X61029Y-150000D01*
G01X63330D02*
Y-145280D01*
X64746D01*
X65218Y-145516D01*
X65572Y-146067D01*
X65690Y-146696D01*
X65572Y-147325D01*
X65277Y-147797D01*
X64746Y-148033D01*
X63330D01*
G01X72475Y-150000D02*
X73950Y-145280D01*
X75425Y-150000D01*
G01X74894Y-148348D02*
X73006D01*
G01X77313Y-150000D02*
Y-145280D01*
X80027Y-150000D01*
Y-145280D01*
G01X82092Y-150000D02*
Y-145280D01*
X83272D01*
X83744Y-145516D01*
X84098Y-145831D01*
X84393Y-146303D01*
X84629Y-146853D01*
X84688Y-147640D01*
X84629Y-148427D01*
X84393Y-148977D01*
X84098Y-149449D01*
X83744Y-149764D01*
X83272Y-150000D01*
X82092D01*
G01X91591Y-149371D02*
X92063Y-149764D01*
X92594Y-150000D01*
X93066D01*
X93538Y-149764D01*
X93892Y-149371D01*
X94069Y-148820D01*
X93951Y-148269D01*
X93656Y-147797D01*
X93125Y-147483D01*
X92417Y-147325D01*
X92004Y-147011D01*
X91827Y-146460D01*
X91945Y-145909D01*
X92240Y-145516D01*
X92653Y-145280D01*
X93066D01*
X93479Y-145437D01*
X93833Y-145831D01*
G01X96311Y-150000D02*
Y-145280D01*
G01X98789D02*
Y-150000D01*
G01Y-147640D02*
X96311D01*
G01X100795Y-150000D02*
X102270Y-145280D01*
X103745Y-150000D01*
G01X103214Y-148348D02*
X101326D01*
G01X105810Y-145280D02*
Y-150000D01*
X108170D01*
G01X110530Y-145280D02*
Y-150000D01*
X112890D01*
G01X-16730Y-137280D02*
Y-142000D01*
G01X-18087Y-137280D02*
X-15373D01*
G01X-13249Y-142000D02*
Y-137280D01*
G01X-10771D02*
Y-142000D01*
G01Y-139640D02*
X-13249D01*
G01X-7998Y-137280D02*
X-6582D01*
G01X-7290D02*
Y-142000D01*
G01X-7998D02*
X-6582D01*
G01X-3809Y-141371D02*
X-3337Y-141764D01*
X-2806Y-142000D01*
X-2334D01*
X-1862Y-141764D01*
X-1508Y-141371D01*
X-1331Y-140820D01*
X-1449Y-140269D01*
X-1744Y-139797D01*
X-2275Y-139483D01*
X-2983Y-139325D01*
X-3396Y-139011D01*
X-3573Y-138460D01*
X-3455Y-137909D01*
X-3160Y-137516D01*
X-2747Y-137280D01*
X-2334D01*
X-1921Y-137437D01*
X-1567Y-137831D01*
G01X5572Y-142000D02*
Y-137280D01*
X6752D01*
X7224Y-137516D01*
X7578Y-137831D01*
X7873Y-138303D01*
X8109Y-138853D01*
X8168Y-139640D01*
X8109Y-140427D01*
X7873Y-140977D01*
X7578Y-141449D01*
X7224Y-141764D01*
X6752Y-142000D01*
X5572D01*
G01X11590D02*
X11118Y-141921D01*
X10705Y-141607D01*
X10351Y-141135D01*
X10115Y-140584D01*
X9997Y-139955D01*
Y-139325D01*
X10115Y-138696D01*
X10351Y-138145D01*
X10705Y-137673D01*
X11118Y-137359D01*
X11590Y-137280D01*
X12062Y-137359D01*
X12475Y-137673D01*
X12829Y-138145D01*
X13065Y-138696D01*
X13183Y-139325D01*
Y-139955D01*
X13065Y-140584D01*
X12829Y-141135D01*
X12475Y-141607D01*
X12062Y-141921D01*
X11590Y-142000D01*
G01X17608Y-137673D02*
X17254Y-137437D01*
X16841Y-137280D01*
X16369D01*
X15838Y-137516D01*
X15425Y-137909D01*
X15130Y-138381D01*
X14894Y-139168D01*
X14835Y-139876D01*
X14953Y-140584D01*
X15130Y-141056D01*
X15484Y-141528D01*
X15897Y-141843D01*
X16310Y-142000D01*
X16723D01*
X17136Y-141843D01*
X17490Y-141607D01*
X17785Y-141292D01*
G01X19732Y-137280D02*
Y-140663D01*
X19968Y-141371D01*
X20440Y-141843D01*
X21030Y-142000D01*
X21620Y-141843D01*
X22092Y-141371D01*
X22328Y-140663D01*
Y-137280D01*
G01X24216Y-142000D02*
Y-137280D01*
X25750Y-141213D01*
X27284Y-137280D01*
Y-142000D01*
G01X31650D02*
X29290D01*
Y-137280D01*
X31650D01*
G01X30706Y-139561D02*
X29290D01*
G01X33833Y-142000D02*
Y-137280D01*
X36547Y-142000D01*
Y-137280D01*
G01X39910D02*
Y-142000D01*
G01X38553Y-137280D02*
X41267D01*
G01X50648Y-137673D02*
X50294Y-137437D01*
X49881Y-137280D01*
X49409D01*
X48878Y-137516D01*
X48465Y-137909D01*
X48170Y-138381D01*
X47934Y-139168D01*
X47875Y-139876D01*
X47993Y-140584D01*
X48170Y-141056D01*
X48524Y-141528D01*
X48937Y-141843D01*
X49350Y-142000D01*
X49763D01*
X50176Y-141843D01*
X50530Y-141607D01*
X50825Y-141292D01*
G01X54070Y-142000D02*
X53598Y-141921D01*
X53185Y-141607D01*
X52831Y-141135D01*
X52595Y-140584D01*
X52477Y-139955D01*
Y-139325D01*
X52595Y-138696D01*
X52831Y-138145D01*
X53185Y-137673D01*
X53598Y-137359D01*
X54070Y-137280D01*
X54542Y-137359D01*
X54955Y-137673D01*
X55309Y-138145D01*
X55545Y-138696D01*
X55663Y-139325D01*
Y-139955D01*
X55545Y-140584D01*
X55309Y-141135D01*
X54955Y-141607D01*
X54542Y-141921D01*
X54070Y-142000D01*
G01X57433D02*
Y-137280D01*
X60147Y-142000D01*
Y-137280D01*
G01X63510D02*
Y-142000D01*
G01X62153Y-137280D02*
X64867D01*
G01X66755Y-142000D02*
X68230Y-137280D01*
X69705Y-142000D01*
G01X69174Y-140348D02*
X67286D01*
G01X72242Y-137280D02*
X73658D01*
G01X72950D02*
Y-142000D01*
G01X72242D02*
X73658D01*
G01X76313D02*
Y-137280D01*
X79027Y-142000D01*
Y-137280D01*
G01X81151Y-141371D02*
X81623Y-141764D01*
X82154Y-142000D01*
X82626D01*
X83098Y-141764D01*
X83452Y-141371D01*
X83629Y-140820D01*
X83511Y-140269D01*
X83216Y-139797D01*
X82685Y-139483D01*
X81977Y-139325D01*
X81564Y-139011D01*
X81387Y-138460D01*
X81505Y-137909D01*
X81800Y-137516D01*
X82213Y-137280D01*
X82626D01*
X83039Y-137437D01*
X83393Y-137831D01*
G01X91122Y-137280D02*
X92538D01*
G01X91830D02*
Y-142000D01*
G01X91122D02*
X92538D01*
G01X95193D02*
Y-137280D01*
X97907Y-142000D01*
Y-137280D01*
G01X100149Y-142000D02*
Y-137280D01*
X102391D01*
G01X101565Y-139561D02*
X100149D01*
G01X105990Y-142000D02*
X105518Y-141921D01*
X105105Y-141607D01*
X104751Y-141135D01*
X104515Y-140584D01*
X104397Y-139955D01*
Y-139325D01*
X104515Y-138696D01*
X104751Y-138145D01*
X105105Y-137673D01*
X105518Y-137359D01*
X105990Y-137280D01*
X106462Y-137359D01*
X106875Y-137673D01*
X107229Y-138145D01*
X107465Y-138696D01*
X107583Y-139325D01*
Y-139955D01*
X107465Y-140584D01*
X107229Y-141135D01*
X106875Y-141607D01*
X106462Y-141921D01*
X105990Y-142000D01*
G01X109530D02*
Y-137280D01*
X111005D01*
X111477Y-137516D01*
X111772Y-137831D01*
X111890Y-138460D01*
X111772Y-139089D01*
X111418Y-139483D01*
X111005Y-139719D01*
X109530D01*
G01X111005D02*
X111890Y-142000D01*
G01X113896D02*
Y-137280D01*
X115430Y-141213D01*
X116964Y-137280D01*
Y-142000D01*
G01X118675D02*
X120150Y-137280D01*
X121625Y-142000D01*
G01X121094Y-140348D02*
X119206D01*
G01X124870Y-137280D02*
Y-142000D01*
G01X123513Y-137280D02*
X126227D01*
G01X128882D02*
X130298D01*
G01X129590D02*
Y-142000D01*
G01X128882D02*
X130298D01*
G01X134310D02*
X133838Y-141921D01*
X133425Y-141607D01*
X133071Y-141135D01*
X132835Y-140584D01*
X132717Y-139955D01*
Y-139325D01*
X132835Y-138696D01*
X133071Y-138145D01*
X133425Y-137673D01*
X133838Y-137359D01*
X134310Y-137280D01*
X134782Y-137359D01*
X135195Y-137673D01*
X135549Y-138145D01*
X135785Y-138696D01*
X135903Y-139325D01*
Y-139955D01*
X135785Y-140584D01*
X135549Y-141135D01*
X135195Y-141607D01*
X134782Y-141921D01*
X134310Y-142000D01*
G01X137673D02*
Y-137280D01*
X140387Y-142000D01*
Y-137280D01*
G01X26149Y-193000D02*
Y-188280D01*
X28391D01*
G01X27565Y-190561D02*
X26149D01*
G01X31282Y-188280D02*
X32698D01*
G01X31990D02*
Y-193000D01*
G01X31282D02*
X32698D01*
G01X35530Y-188280D02*
Y-193000D01*
X37890D01*
G01X39896D02*
Y-188280D01*
X41430Y-192213D01*
X42964Y-188280D01*
Y-193000D01*
G01X154270Y-196280D02*
X153798Y-196437D01*
X153444Y-196831D01*
X153208Y-197303D01*
X153031Y-197932D01*
X152972Y-198640D01*
X153031Y-199348D01*
X153208Y-199977D01*
X153444Y-200449D01*
X153798Y-200843D01*
X154270Y-201000D01*
X154742Y-200843D01*
X155096Y-200449D01*
X155332Y-199977D01*
X155509Y-199348D01*
X155568Y-198640D01*
X155509Y-197932D01*
X155332Y-197303D01*
X155096Y-196831D01*
X154742Y-196437D01*
X154270Y-196280D01*
G01X157987Y-200449D02*
X158400Y-200843D01*
X158872Y-201000D01*
X159344Y-200843D01*
X159757Y-200371D01*
X160052Y-199663D01*
X160170Y-198955D01*
Y-198089D01*
X160052Y-197381D01*
X159757Y-196752D01*
X159403Y-196437D01*
X158990Y-196280D01*
X158518Y-196437D01*
X158164Y-196752D01*
X157928Y-197224D01*
X157810Y-197853D01*
X157928Y-198404D01*
X158223Y-198955D01*
X158577Y-199269D01*
X158990Y-199348D01*
X159462Y-199191D01*
X159816Y-198797D01*
X160170Y-198089D01*
G01X162943Y-199427D02*
X164477D01*
G01X168430Y-196280D02*
X167958Y-196437D01*
X167604Y-196831D01*
X167368Y-197303D01*
X167191Y-197932D01*
X167132Y-198640D01*
X167191Y-199348D01*
X167368Y-199977D01*
X167604Y-200449D01*
X167958Y-200843D01*
X168430Y-201000D01*
X168902Y-200843D01*
X169256Y-200449D01*
X169492Y-199977D01*
X169669Y-199348D01*
X169728Y-198640D01*
X169669Y-197932D01*
X169492Y-197303D01*
X169256Y-196831D01*
X168902Y-196437D01*
X168430Y-196280D01*
G01X172029Y-199033D02*
X172442Y-198483D01*
X172796Y-198168D01*
X173268Y-198011D01*
X173681Y-198168D01*
X173976Y-198483D01*
X174212Y-198955D01*
X174271Y-199505D01*
X174212Y-199977D01*
X173976Y-200449D01*
X173622Y-200843D01*
X173209Y-201000D01*
X172737Y-200843D01*
X172324Y-200371D01*
X172088Y-199663D01*
X172029Y-198876D01*
X172147Y-197853D01*
X172324Y-197303D01*
X172619Y-196752D01*
X173032Y-196359D01*
X173445Y-196280D01*
X173858Y-196437D01*
X174153Y-196831D01*
G01X177103Y-199427D02*
X178637D01*
G01X182590Y-201000D02*
Y-196280D01*
X181882Y-197224D01*
G01Y-201000D02*
X183298D01*
G01X187310D02*
X187723Y-200921D01*
X188195Y-200685D01*
X188490Y-200292D01*
X188608Y-199741D01*
X188490Y-199191D01*
X188136Y-198719D01*
X187605Y-198483D01*
X187015D01*
X186661Y-198325D01*
X186366Y-197932D01*
X186248Y-197381D01*
X186425Y-196831D01*
X186838Y-196437D01*
X187310Y-196280D01*
X187782Y-196437D01*
X188195Y-196831D01*
X188372Y-197381D01*
X188254Y-197932D01*
X187959Y-198325D01*
X187605Y-198483D01*
X187015D01*
X186484Y-198719D01*
X186130Y-199191D01*
X186012Y-199741D01*
X186130Y-200292D01*
X186425Y-200685D01*
X186897Y-200921D01*
X187310Y-201000D01*
G01X150972Y-193000D02*
Y-188280D01*
X152152D01*
X152624Y-188516D01*
X152978Y-188831D01*
X153273Y-189303D01*
X153509Y-189853D01*
X153568Y-190640D01*
X153509Y-191427D01*
X153273Y-191977D01*
X152978Y-192449D01*
X152624Y-192764D01*
X152152Y-193000D01*
X150972D01*
G01X155515D02*
X156990Y-188280D01*
X158465Y-193000D01*
G01X157934Y-191348D02*
X156046D01*
G01X161710Y-188280D02*
Y-193000D01*
G01X160353Y-188280D02*
X163067D01*
G01X167610Y-193000D02*
X165250D01*
Y-188280D01*
X167610D01*
G01X166666Y-190561D02*
X165250D01*
G01X150913Y-113000D02*
Y-108280D01*
X153627Y-113000D01*
Y-108280D01*
G01X155515Y-113000D02*
X156990Y-108280D01*
X158465Y-113000D01*
G01X157934Y-111348D02*
X156046D01*
G01X160176Y-113000D02*
Y-108280D01*
X161710Y-112213D01*
X163244Y-108280D01*
Y-113000D01*
G01X167610D02*
X165250D01*
Y-108280D01*
X167610D01*
G01X166666Y-110561D02*
X165250D01*
G01X160500Y-179073D02*
X164040D01*
G01X165220D02*
X168760D01*
G01X169940D02*
X173480D01*
G01X179793Y-177500D02*
Y-172780D01*
X182507Y-177500D01*
Y-172780D01*
G01X187168Y-173173D02*
X186814Y-172937D01*
X186401Y-172780D01*
X185929D01*
X185398Y-173016D01*
X184985Y-173409D01*
X184690Y-173881D01*
X184454Y-174668D01*
X184395Y-175376D01*
X184513Y-176084D01*
X184690Y-176556D01*
X185044Y-177028D01*
X185457Y-177343D01*
X185870Y-177500D01*
X186283D01*
X186696Y-177343D01*
X187050Y-177107D01*
X187345Y-176792D01*
G01X189410Y-177500D02*
Y-172780D01*
X190826D01*
X191298Y-173016D01*
X191652Y-173567D01*
X191770Y-174196D01*
X191652Y-174825D01*
X191357Y-175297D01*
X190826Y-175533D01*
X189410D01*
G01X199735Y-179073D02*
X199145Y-178287D01*
X198850Y-177500D01*
Y-174353D01*
X199145Y-173567D01*
X199735Y-172780D01*
G01X203393Y-177500D02*
Y-172780D01*
X206107Y-177500D01*
Y-172780D01*
G01X208231Y-177500D02*
X210709Y-172780D01*
G01X208231D02*
X210709Y-177500D01*
G01X213010D02*
Y-172780D01*
X214426D01*
X214898Y-173016D01*
X215252Y-173567D01*
X215370Y-174196D01*
X215252Y-174825D01*
X214957Y-175297D01*
X214426Y-175533D01*
X213010D01*
G01X224928Y-173173D02*
X224574Y-172937D01*
X224161Y-172780D01*
X223689D01*
X223158Y-173016D01*
X222745Y-173409D01*
X222450Y-173881D01*
X222214Y-174668D01*
X222155Y-175376D01*
X222273Y-176084D01*
X222450Y-176556D01*
X222804Y-177028D01*
X223217Y-177343D01*
X223630Y-177500D01*
X224043D01*
X224456Y-177343D01*
X224810Y-177107D01*
X225105Y-176792D01*
G01X228350Y-177500D02*
X227878Y-177421D01*
X227465Y-177107D01*
X227111Y-176635D01*
X226875Y-176084D01*
X226757Y-175455D01*
Y-174825D01*
X226875Y-174196D01*
X227111Y-173645D01*
X227465Y-173173D01*
X227878Y-172859D01*
X228350Y-172780D01*
X228822Y-172859D01*
X229235Y-173173D01*
X229589Y-173645D01*
X229825Y-174196D01*
X229943Y-174825D01*
Y-175455D01*
X229825Y-176084D01*
X229589Y-176635D01*
X229235Y-177107D01*
X228822Y-177421D01*
X228350Y-177500D01*
G01X231713D02*
Y-172780D01*
X234427Y-177500D01*
Y-172780D01*
G01X236669Y-177500D02*
Y-172780D01*
X238911D01*
G01X238085Y-175061D02*
X236669D01*
G01X241802Y-172780D02*
X243218D01*
G01X242510D02*
Y-177500D01*
G01X241802D02*
X243218D01*
G01X245932D02*
Y-172780D01*
X247112D01*
X247584Y-173016D01*
X247938Y-173331D01*
X248233Y-173803D01*
X248469Y-174353D01*
X248528Y-175140D01*
X248469Y-175927D01*
X248233Y-176477D01*
X247938Y-176949D01*
X247584Y-177264D01*
X247112Y-177500D01*
X245932D01*
G01X253130D02*
X250770D01*
Y-172780D01*
X253130D01*
G01X252186Y-175061D02*
X250770D01*
G01X255313Y-177500D02*
Y-172780D01*
X258027Y-177500D01*
Y-172780D01*
G01X261390D02*
Y-177500D01*
G01X260033Y-172780D02*
X262747D01*
G01X265402D02*
X266818D01*
G01X266110D02*
Y-177500D01*
G01X265402D02*
X266818D01*
G01X269355D02*
X270830Y-172780D01*
X272305Y-177500D01*
G01X271774Y-175848D02*
X269886D01*
G01X274370Y-172780D02*
Y-177500D01*
X276730D01*
G01X283810D02*
Y-172780D01*
X285226D01*
X285698Y-173016D01*
X286052Y-173567D01*
X286170Y-174196D01*
X286052Y-174825D01*
X285757Y-175297D01*
X285226Y-175533D01*
X283810D01*
G01X288530Y-177500D02*
Y-172780D01*
X290005D01*
X290477Y-173016D01*
X290772Y-173331D01*
X290890Y-173960D01*
X290772Y-174589D01*
X290418Y-174983D01*
X290005Y-175219D01*
X288530D01*
G01X290005D02*
X290890Y-177500D01*
G01X294430D02*
X293958Y-177421D01*
X293545Y-177107D01*
X293191Y-176635D01*
X292955Y-176084D01*
X292837Y-175455D01*
Y-174825D01*
X292955Y-174196D01*
X293191Y-173645D01*
X293545Y-173173D01*
X293958Y-172859D01*
X294430Y-172780D01*
X294902Y-172859D01*
X295315Y-173173D01*
X295669Y-173645D01*
X295905Y-174196D01*
X296023Y-174825D01*
Y-175455D01*
X295905Y-176084D01*
X295669Y-176635D01*
X295315Y-177107D01*
X294902Y-177421D01*
X294430Y-177500D01*
G01X297970D02*
Y-172780D01*
X299386D01*
X299858Y-173016D01*
X300212Y-173567D01*
X300330Y-174196D01*
X300212Y-174825D01*
X299917Y-175297D01*
X299386Y-175533D01*
X297970D01*
G01X302690Y-177500D02*
Y-172780D01*
X304165D01*
X304637Y-173016D01*
X304932Y-173331D01*
X305050Y-173960D01*
X304932Y-174589D01*
X304578Y-174983D01*
X304165Y-175219D01*
X302690D01*
G01X304165D02*
X305050Y-177500D01*
G01X307882Y-172780D02*
X309298D01*
G01X308590D02*
Y-177500D01*
G01X307882D02*
X309298D01*
G01X314490D02*
X312130D01*
Y-172780D01*
X314490D01*
G01X313546Y-175061D02*
X312130D01*
G01X318030Y-172780D02*
Y-177500D01*
G01X316673Y-172780D02*
X319387D01*
G01X321275Y-177500D02*
X322750Y-172780D01*
X324225Y-177500D01*
G01X323694Y-175848D02*
X321806D01*
G01X326290Y-177500D02*
Y-172780D01*
X327765D01*
X328237Y-173016D01*
X328532Y-173331D01*
X328650Y-173960D01*
X328532Y-174589D01*
X328178Y-174983D01*
X327765Y-175219D01*
X326290D01*
G01X327765D02*
X328650Y-177500D01*
G01X332190D02*
Y-175376D01*
X331010Y-172780D01*
G01X333370D02*
X332190Y-175376D01*
G01X337205Y-179073D02*
X337795Y-178287D01*
X338090Y-177500D01*
Y-174353D01*
X337795Y-173567D01*
X337205Y-172780D01*
G01X160500Y-162573D02*
X164040D01*
G01X165220D02*
X168760D01*
G01X169940D02*
X173480D01*
G01X179793Y-161000D02*
Y-156280D01*
X182507Y-161000D01*
Y-156280D01*
G01X185162D02*
X186578D01*
G01X185870D02*
Y-161000D01*
G01X185162D02*
X186578D01*
G01X189292Y-156280D02*
Y-159663D01*
X189528Y-160371D01*
X190000Y-160843D01*
X190590Y-161000D01*
X191180Y-160843D01*
X191652Y-160371D01*
X191888Y-159663D01*
Y-156280D01*
G01X195310Y-161000D02*
X194838Y-160921D01*
X194425Y-160607D01*
X194071Y-160135D01*
X193835Y-159584D01*
X193717Y-158955D01*
Y-158325D01*
X193835Y-157696D01*
X194071Y-157145D01*
X194425Y-156673D01*
X194838Y-156359D01*
X195310Y-156280D01*
X195782Y-156359D01*
X196195Y-156673D01*
X196549Y-157145D01*
X196785Y-157696D01*
X196903Y-158325D01*
Y-158955D01*
X196785Y-159584D01*
X196549Y-160135D01*
X196195Y-160607D01*
X195782Y-160921D01*
X195310Y-161000D01*
G01X204455Y-162573D02*
X203865Y-161787D01*
X203570Y-161000D01*
Y-157853D01*
X203865Y-157067D01*
X204455Y-156280D01*
G01X208113Y-161000D02*
Y-156280D01*
X210827Y-161000D01*
Y-156280D01*
G01X212951Y-161000D02*
X215429Y-156280D01*
G01X212951D02*
X215429Y-161000D01*
G01X217730D02*
Y-156280D01*
X219146D01*
X219618Y-156516D01*
X219972Y-157067D01*
X220090Y-157696D01*
X219972Y-158325D01*
X219677Y-158797D01*
X219146Y-159033D01*
X217730D01*
G01X227642Y-156280D02*
X229058D01*
G01X228350D02*
Y-161000D01*
G01X227642D02*
X229058D01*
G01X231713D02*
Y-156280D01*
X234427Y-161000D01*
Y-156280D01*
G01X237790D02*
Y-161000D01*
G01X236433Y-156280D02*
X239147D01*
G01X243690Y-161000D02*
X241330D01*
Y-156280D01*
X243690D01*
G01X242746Y-158561D02*
X241330D01*
G01X246050Y-161000D02*
Y-156280D01*
X247525D01*
X247997Y-156516D01*
X248292Y-156831D01*
X248410Y-157460D01*
X248292Y-158089D01*
X247938Y-158483D01*
X247525Y-158719D01*
X246050D01*
G01X247525D02*
X248410Y-161000D01*
G01X250593D02*
Y-156280D01*
X253307Y-161000D01*
Y-156280D01*
G01X255195Y-161000D02*
X256670Y-156280D01*
X258145Y-161000D01*
G01X257614Y-159348D02*
X255726D01*
G01X260210Y-156280D02*
Y-161000D01*
X262570D01*
G01X269532Y-156280D02*
Y-159663D01*
X269768Y-160371D01*
X270240Y-160843D01*
X270830Y-161000D01*
X271420Y-160843D01*
X271892Y-160371D01*
X272128Y-159663D01*
Y-156280D01*
G01X274311Y-160371D02*
X274783Y-160764D01*
X275314Y-161000D01*
X275786D01*
X276258Y-160764D01*
X276612Y-160371D01*
X276789Y-159820D01*
X276671Y-159269D01*
X276376Y-158797D01*
X275845Y-158483D01*
X275137Y-158325D01*
X274724Y-158011D01*
X274547Y-157460D01*
X274665Y-156909D01*
X274960Y-156516D01*
X275373Y-156280D01*
X275786D01*
X276199Y-156437D01*
X276553Y-156831D01*
G01X281450Y-161000D02*
X279090D01*
Y-156280D01*
X281450D01*
G01X280506Y-158561D02*
X279090D01*
G01X289710Y-161000D02*
X289238Y-160921D01*
X288825Y-160607D01*
X288471Y-160135D01*
X288235Y-159584D01*
X288117Y-158955D01*
Y-158325D01*
X288235Y-157696D01*
X288471Y-157145D01*
X288825Y-156673D01*
X289238Y-156359D01*
X289710Y-156280D01*
X290182Y-156359D01*
X290595Y-156673D01*
X290949Y-157145D01*
X291185Y-157696D01*
X291303Y-158325D01*
Y-158955D01*
X291185Y-159584D01*
X290949Y-160135D01*
X290595Y-160607D01*
X290182Y-160921D01*
X289710Y-161000D01*
G01X293073D02*
Y-156280D01*
X295787Y-161000D01*
Y-156280D01*
G01X297970D02*
Y-161000D01*
X300330D01*
G01X303870D02*
Y-158876D01*
X302690Y-156280D01*
G01X305050D02*
X303870Y-158876D01*
G01X308885Y-162573D02*
X309475Y-161787D01*
X309770Y-161000D01*
Y-157853D01*
X309475Y-157067D01*
X308885Y-156280D01*
G01X160500Y-146573D02*
X164040D01*
G01X165220D02*
X168760D01*
G01X169940D02*
X173480D01*
G01X179970Y-145000D02*
Y-140280D01*
X181386D01*
X181858Y-140516D01*
X182212Y-141067D01*
X182330Y-141696D01*
X182212Y-142325D01*
X181917Y-142797D01*
X181386Y-143033D01*
X179970D01*
G01X184572Y-140280D02*
Y-143663D01*
X184808Y-144371D01*
X185280Y-144843D01*
X185870Y-145000D01*
X186460Y-144843D01*
X186932Y-144371D01*
X187168Y-143663D01*
Y-140280D01*
G01X191062Y-142483D02*
X191298Y-142247D01*
X191475Y-141853D01*
X191593Y-141303D01*
X191475Y-140831D01*
X191239Y-140516D01*
X190826Y-140280D01*
X189233D01*
Y-145000D01*
X191180D01*
X191593Y-144685D01*
X191829Y-144213D01*
X191947Y-143663D01*
X191829Y-143112D01*
X191475Y-142640D01*
X191062Y-142483D01*
X189233D01*
G01X194602Y-140280D02*
X196018D01*
G01X195310D02*
Y-145000D01*
G01X194602D02*
X196018D01*
G01X204455Y-146573D02*
X203865Y-145787D01*
X203570Y-145000D01*
Y-141853D01*
X203865Y-141067D01*
X204455Y-140280D01*
G01X208290Y-145000D02*
Y-140280D01*
X209706D01*
X210178Y-140516D01*
X210532Y-141067D01*
X210650Y-141696D01*
X210532Y-142325D01*
X210237Y-142797D01*
X209706Y-143033D01*
X208290D01*
G01X212892Y-140280D02*
Y-143663D01*
X213128Y-144371D01*
X213600Y-144843D01*
X214190Y-145000D01*
X214780Y-144843D01*
X215252Y-144371D01*
X215488Y-143663D01*
Y-140280D01*
G01X219382Y-142483D02*
X219618Y-142247D01*
X219795Y-141853D01*
X219913Y-141303D01*
X219795Y-140831D01*
X219559Y-140516D01*
X219146Y-140280D01*
X217553D01*
Y-145000D01*
X219500D01*
X219913Y-144685D01*
X220149Y-144213D01*
X220267Y-143663D01*
X220149Y-143112D01*
X219795Y-142640D01*
X219382Y-142483D01*
X217553D01*
G01X222450Y-140280D02*
Y-145000D01*
X224810D01*
G01X227642Y-140280D02*
X229058D01*
G01X228350D02*
Y-145000D01*
G01X227642D02*
X229058D01*
G01X234368Y-140673D02*
X234014Y-140437D01*
X233601Y-140280D01*
X233129D01*
X232598Y-140516D01*
X232185Y-140909D01*
X231890Y-141381D01*
X231654Y-142168D01*
X231595Y-142876D01*
X231713Y-143584D01*
X231890Y-144056D01*
X232244Y-144528D01*
X232657Y-144843D01*
X233070Y-145000D01*
X233483D01*
X233896Y-144843D01*
X234250Y-144607D01*
X234545Y-144292D01*
G01X241802Y-140280D02*
X243218D01*
G01X242510D02*
Y-145000D01*
G01X241802D02*
X243218D01*
G01X245873D02*
Y-140280D01*
X248587Y-145000D01*
Y-140280D01*
G01X250829Y-145000D02*
Y-140280D01*
X253071D01*
G01X252245Y-142561D02*
X250829D01*
G01X256670Y-145000D02*
X256198Y-144921D01*
X255785Y-144607D01*
X255431Y-144135D01*
X255195Y-143584D01*
X255077Y-142955D01*
Y-142325D01*
X255195Y-141696D01*
X255431Y-141145D01*
X255785Y-140673D01*
X256198Y-140359D01*
X256670Y-140280D01*
X257142Y-140359D01*
X257555Y-140673D01*
X257909Y-141145D01*
X258145Y-141696D01*
X258263Y-142325D01*
Y-142955D01*
X258145Y-143584D01*
X257909Y-144135D01*
X257555Y-144607D01*
X257142Y-144921D01*
X256670Y-145000D01*
G01X260210D02*
Y-140280D01*
X261685D01*
X262157Y-140516D01*
X262452Y-140831D01*
X262570Y-141460D01*
X262452Y-142089D01*
X262098Y-142483D01*
X261685Y-142719D01*
X260210D01*
G01X261685D02*
X262570Y-145000D01*
G01X264576D02*
Y-140280D01*
X266110Y-144213D01*
X267644Y-140280D01*
Y-145000D01*
G01X269355D02*
X270830Y-140280D01*
X272305Y-145000D01*
G01X271774Y-143348D02*
X269886D01*
G01X275550Y-140280D02*
Y-145000D01*
G01X274193Y-140280D02*
X276907D01*
G01X279562D02*
X280978D01*
G01X280270D02*
Y-145000D01*
G01X279562D02*
X280978D01*
G01X284990D02*
X284518Y-144921D01*
X284105Y-144607D01*
X283751Y-144135D01*
X283515Y-143584D01*
X283397Y-142955D01*
Y-142325D01*
X283515Y-141696D01*
X283751Y-141145D01*
X284105Y-140673D01*
X284518Y-140359D01*
X284990Y-140280D01*
X285462Y-140359D01*
X285875Y-140673D01*
X286229Y-141145D01*
X286465Y-141696D01*
X286583Y-142325D01*
Y-142955D01*
X286465Y-143584D01*
X286229Y-144135D01*
X285875Y-144607D01*
X285462Y-144921D01*
X284990Y-145000D01*
G01X288353D02*
Y-140280D01*
X291067Y-145000D01*
Y-140280D01*
G01X294725Y-146573D02*
X295315Y-145787D01*
X295610Y-145000D01*
Y-141853D01*
X295315Y-141067D01*
X294725Y-140280D01*
G01X200913Y-193000D02*
Y-188280D01*
X203627Y-193000D01*
Y-188280D01*
G01X205692D02*
Y-191663D01*
X205928Y-192371D01*
X206400Y-192843D01*
X206990Y-193000D01*
X207580Y-192843D01*
X208052Y-192371D01*
X208288Y-191663D01*
Y-188280D01*
G01X210176Y-193000D02*
Y-188280D01*
X211710Y-192213D01*
X213244Y-188280D01*
Y-193000D01*
G01X216902Y-190483D02*
X217138Y-190247D01*
X217315Y-189853D01*
X217433Y-189303D01*
X217315Y-188831D01*
X217079Y-188516D01*
X216666Y-188280D01*
X215073D01*
Y-193000D01*
X217020D01*
X217433Y-192685D01*
X217669Y-192213D01*
X217787Y-191663D01*
X217669Y-191112D01*
X217315Y-190640D01*
X216902Y-190483D01*
X215073D01*
G01X222330Y-193000D02*
X219970D01*
Y-188280D01*
X222330D01*
G01X221386Y-190561D02*
X219970D01*
G01X224690Y-193000D02*
Y-188280D01*
X226165D01*
X226637Y-188516D01*
X226932Y-188831D01*
X227050Y-189460D01*
X226932Y-190089D01*
X226578Y-190483D01*
X226165Y-190719D01*
X224690D01*
G01X226165D02*
X227050Y-193000D01*
G54D78*
X333870Y-5425D03*
Y22134D03*
G54D69*
X245044Y300456D03*
X248044Y303456D03*
X245956Y305544D03*
X242956Y302544D03*
G54D79*
X345000Y132500D03*
M02*
