%TF.GenerationSoftware,KiCad,Pcbnew,7.99.0-3539-g7abe2e3ea0*%
%TF.CreationDate,2023-11-26T19:50:54+01:00*%
%TF.ProjectId,SBC,5342432e-6b69-4636-9164-5f7063625858,rev?*%
%TF.SameCoordinates,Original*%
%TF.FileFunction,Paste,Bot*%
%TF.FilePolarity,Positive*%
%FSLAX46Y46*%
G04 Gerber Fmt 4.6, Leading zero omitted, Abs format (unit mm)*
G04 Created by KiCad (PCBNEW 7.99.0-3539-g7abe2e3ea0) date 2023-11-26 19:50:54*
%MOMM*%
%LPD*%
G01*
G04 APERTURE LIST*
G04 Aperture macros list*
%AMRoundRect*
0 Rectangle with rounded corners*
0 $1 Rounding radius*
0 $2 $3 $4 $5 $6 $7 $8 $9 X,Y pos of 4 corners*
0 Add a 4 corners polygon primitive as box body*
4,1,4,$2,$3,$4,$5,$6,$7,$8,$9,$2,$3,0*
0 Add four circle primitives for the rounded corners*
1,1,$1+$1,$2,$3*
1,1,$1+$1,$4,$5*
1,1,$1+$1,$6,$7*
1,1,$1+$1,$8,$9*
0 Add four rect primitives between the rounded corners*
20,1,$1+$1,$2,$3,$4,$5,0*
20,1,$1+$1,$4,$5,$6,$7,0*
20,1,$1+$1,$6,$7,$8,$9,0*
20,1,$1+$1,$8,$9,$2,$3,0*%
G04 Aperture macros list end*
%ADD10RoundRect,0.140000X-0.170000X0.140000X-0.170000X-0.140000X0.170000X-0.140000X0.170000X0.140000X0*%
%ADD11RoundRect,0.079500X0.079500X0.100500X-0.079500X0.100500X-0.079500X-0.100500X0.079500X-0.100500X0*%
%ADD12RoundRect,0.135000X-0.185000X0.135000X-0.185000X-0.135000X0.185000X-0.135000X0.185000X0.135000X0*%
%ADD13RoundRect,0.140000X0.140000X0.170000X-0.140000X0.170000X-0.140000X-0.170000X0.140000X-0.170000X0*%
%ADD14RoundRect,0.079500X-0.100500X0.079500X-0.100500X-0.079500X0.100500X-0.079500X0.100500X0.079500X0*%
%ADD15RoundRect,0.135000X-0.135000X-0.185000X0.135000X-0.185000X0.135000X0.185000X-0.135000X0.185000X0*%
%ADD16RoundRect,0.079500X-0.079500X-0.100500X0.079500X-0.100500X0.079500X0.100500X-0.079500X0.100500X0*%
%ADD17RoundRect,0.079500X0.100500X-0.079500X0.100500X0.079500X-0.100500X0.079500X-0.100500X-0.079500X0*%
%ADD18RoundRect,0.135000X0.135000X0.185000X-0.135000X0.185000X-0.135000X-0.185000X0.135000X-0.185000X0*%
%ADD19RoundRect,0.140000X-0.140000X-0.170000X0.140000X-0.170000X0.140000X0.170000X-0.140000X0.170000X0*%
%ADD20R,1.400000X3.300000*%
%ADD21R,0.250000X0.850000*%
%ADD22R,0.450000X1.200000*%
%ADD23R,0.300000X1.200000*%
%ADD24RoundRect,0.135000X0.185000X-0.135000X0.185000X0.135000X-0.185000X0.135000X-0.185000X-0.135000X0*%
%ADD25RoundRect,0.140000X0.170000X-0.140000X0.170000X0.140000X-0.170000X0.140000X-0.170000X-0.140000X0*%
%ADD26RoundRect,0.225000X-0.250000X0.225000X-0.250000X-0.225000X0.250000X-0.225000X0.250000X0.225000X0*%
%ADD27RoundRect,0.160000X-0.197500X-0.160000X0.197500X-0.160000X0.197500X0.160000X-0.197500X0.160000X0*%
%ADD28RoundRect,0.150000X0.825000X0.150000X-0.825000X0.150000X-0.825000X-0.150000X0.825000X-0.150000X0*%
%ADD29RoundRect,0.250000X0.650000X-0.325000X0.650000X0.325000X-0.650000X0.325000X-0.650000X-0.325000X0*%
%ADD30RoundRect,0.079500X0.014849X-0.127279X0.127279X-0.014849X-0.014849X0.127279X-0.127279X0.014849X0*%
%ADD31RoundRect,0.250000X-1.000000X-0.650000X1.000000X-0.650000X1.000000X0.650000X-1.000000X0.650000X0*%
%ADD32RoundRect,0.250000X-0.650000X0.325000X-0.650000X-0.325000X0.650000X-0.325000X0.650000X0.325000X0*%
%ADD33RoundRect,0.135000X0.226274X0.035355X0.035355X0.226274X-0.226274X-0.035355X-0.035355X-0.226274X0*%
%ADD34RoundRect,0.225000X0.250000X-0.225000X0.250000X0.225000X-0.250000X0.225000X-0.250000X-0.225000X0*%
%ADD35RoundRect,0.079500X-0.127279X-0.014849X-0.014849X-0.127279X0.127279X0.014849X0.014849X0.127279X0*%
%ADD36RoundRect,0.135000X0.035355X-0.226274X0.226274X-0.035355X-0.035355X0.226274X-0.226274X0.035355X0*%
%ADD37RoundRect,0.079500X0.127279X0.014849X0.014849X0.127279X-0.127279X-0.014849X-0.014849X-0.127279X0*%
%ADD38RoundRect,0.218750X-0.218750X-0.256250X0.218750X-0.256250X0.218750X0.256250X-0.218750X0.256250X0*%
%ADD39RoundRect,0.147500X0.172500X-0.147500X0.172500X0.147500X-0.172500X0.147500X-0.172500X-0.147500X0*%
G04 APERTURE END LIST*
D10*
%TO.C,C141*%
X93665481Y-113869200D03*
X93665481Y-114829200D03*
%TD*%
D11*
%TO.C,C113*%
X71960481Y-97395014D03*
X71270481Y-97395014D03*
%TD*%
%TO.C,C190*%
X97938495Y-112433020D03*
X97248495Y-112433020D03*
%TD*%
D12*
%TO.C,R36*%
X86320000Y-111080400D03*
X86320000Y-112100400D03*
%TD*%
D13*
%TO.C,C5*%
X125873462Y-88557528D03*
X124913462Y-88557528D03*
%TD*%
D14*
%TO.C,C158*%
X110165481Y-91650014D03*
X110165481Y-92340014D03*
%TD*%
D15*
%TO.C,R50*%
X106610000Y-121730400D03*
X107630000Y-121730400D03*
%TD*%
D16*
%TO.C,C135*%
X98176881Y-108695014D03*
X98866881Y-108695014D03*
%TD*%
D17*
%TO.C,C214*%
X101315481Y-104968790D03*
X101315481Y-104278790D03*
%TD*%
D18*
%TO.C,R61*%
X79260000Y-114225000D03*
X78240000Y-114225000D03*
%TD*%
D19*
%TO.C,C257*%
X77445000Y-112825000D03*
X78405000Y-112825000D03*
%TD*%
D11*
%TO.C,C160*%
X99936205Y-115569920D03*
X99246205Y-115569920D03*
%TD*%
D10*
%TO.C,C10*%
X129643462Y-89627528D03*
X129643462Y-90587528D03*
%TD*%
D17*
%TO.C,C219*%
X92068000Y-112644200D03*
X92068000Y-111954200D03*
%TD*%
%TO.C,C172*%
X99921405Y-107519585D03*
X99921405Y-106829585D03*
%TD*%
D20*
%TO.C,J1*%
X133615481Y-126545014D03*
D21*
X132790481Y-125320014D03*
X132790481Y-127770014D03*
D20*
X72215481Y-126545014D03*
D21*
X73040481Y-125320014D03*
X73040481Y-127770014D03*
D22*
X75590481Y-123845014D03*
D23*
X76165481Y-123845014D03*
X76665481Y-123845014D03*
X77165481Y-123845014D03*
X77665481Y-123845014D03*
X78165481Y-123845014D03*
X78665481Y-123845014D03*
X79165481Y-123845014D03*
X79665481Y-123845014D03*
X80165481Y-123845014D03*
X80665481Y-123845014D03*
X81165481Y-123845014D03*
X81665481Y-123845014D03*
X82165481Y-123845014D03*
X82665481Y-123845014D03*
X83165481Y-123845014D03*
X83665481Y-123845014D03*
X84165481Y-123845014D03*
X84665481Y-123845014D03*
X85165481Y-123845014D03*
X85665481Y-123845014D03*
X86165481Y-123845014D03*
X86665481Y-123845014D03*
X87165481Y-123845014D03*
X87665481Y-123845014D03*
X88165481Y-123845014D03*
X88665481Y-123845014D03*
X89165481Y-123845014D03*
X89665481Y-123845014D03*
X90165481Y-123845014D03*
X90665481Y-123845014D03*
X91165481Y-123845014D03*
X91665481Y-123845014D03*
X92165481Y-123845014D03*
X92665481Y-123845014D03*
X93165481Y-123845014D03*
X93665481Y-123845014D03*
X94165481Y-123845014D03*
X94665481Y-123845014D03*
X95165481Y-123845014D03*
X95665481Y-123845014D03*
X96165481Y-123845014D03*
X96665481Y-123845014D03*
X97165481Y-123845014D03*
X97665481Y-123845014D03*
X98165481Y-123845014D03*
X98665481Y-123845014D03*
X99165481Y-123845014D03*
X99665481Y-123845014D03*
X100165481Y-123845014D03*
X100665481Y-123845014D03*
X101165481Y-123845014D03*
X101665481Y-123845014D03*
X102165481Y-123845014D03*
X102665481Y-123845014D03*
X103165481Y-123845014D03*
X103665481Y-123845014D03*
X104165481Y-123845014D03*
X104665481Y-123845014D03*
X105165481Y-123845014D03*
X105665481Y-123845014D03*
X106165481Y-123845014D03*
X106665481Y-123845014D03*
X107165481Y-123845014D03*
X107665481Y-123845014D03*
X108165481Y-123845014D03*
X108665481Y-123845014D03*
X109165481Y-123845014D03*
X109665481Y-123845014D03*
X110165481Y-123845014D03*
X110665481Y-123845014D03*
X111165481Y-123845014D03*
X111665481Y-123845014D03*
X112165481Y-123845014D03*
X112665481Y-123845014D03*
X113165481Y-123845014D03*
X113665481Y-123845014D03*
X114165481Y-123845014D03*
X114665481Y-123845014D03*
X115165481Y-123845014D03*
X115665481Y-123845014D03*
X116165481Y-123845014D03*
X116665481Y-123845014D03*
X117165481Y-123845014D03*
X117665481Y-123845014D03*
X118165481Y-123845014D03*
X118665481Y-123845014D03*
X119165481Y-123845014D03*
X119665481Y-123845014D03*
X120165481Y-123845014D03*
X120665481Y-123845014D03*
X121165481Y-123845014D03*
X121665481Y-123845014D03*
X122165481Y-123845014D03*
X122665481Y-123845014D03*
X123165481Y-123845014D03*
X123665481Y-123845014D03*
X124165481Y-123845014D03*
X124665481Y-123845014D03*
X125165481Y-123845014D03*
X125665481Y-123845014D03*
X126165481Y-123845014D03*
X126665481Y-123845014D03*
X127165481Y-123845014D03*
X127665481Y-123845014D03*
X128165481Y-123845014D03*
X128665481Y-123845014D03*
X129165481Y-123845014D03*
X129665481Y-123845014D03*
D22*
X130240481Y-123845014D03*
X75590481Y-129245014D03*
D23*
X76165481Y-129245014D03*
X76665481Y-129245014D03*
X77165481Y-129245014D03*
X77665481Y-129245014D03*
X78165481Y-129245014D03*
X78665481Y-129245014D03*
X79165481Y-129245014D03*
X79665481Y-129245014D03*
X80165481Y-129245014D03*
X80665481Y-129245014D03*
X81165481Y-129245014D03*
X81665481Y-129245014D03*
X82165481Y-129245014D03*
X82665481Y-129245014D03*
X83165481Y-129245014D03*
X83665481Y-129245014D03*
X84165481Y-129245014D03*
X84665481Y-129245014D03*
X85165481Y-129245014D03*
X85665481Y-129245014D03*
X86165481Y-129245014D03*
X86665481Y-129245014D03*
X87165481Y-129245014D03*
X87665481Y-129245014D03*
X88165481Y-129245014D03*
X88665481Y-129245014D03*
X89165481Y-129245014D03*
X89665481Y-129245014D03*
X90165481Y-129245014D03*
X90665481Y-129245014D03*
X91165481Y-129245014D03*
X91665481Y-129245014D03*
X92165481Y-129245014D03*
X92665481Y-129245014D03*
X93165481Y-129245014D03*
X93665481Y-129245014D03*
X94165481Y-129245014D03*
X94665481Y-129245014D03*
X95165481Y-129245014D03*
X95665481Y-129245014D03*
X96165481Y-129245014D03*
X96665481Y-129245014D03*
X97165481Y-129245014D03*
X97665481Y-129245014D03*
X98165481Y-129245014D03*
X98665481Y-129245014D03*
X99165481Y-129245014D03*
X99665481Y-129245014D03*
X100165481Y-129245014D03*
X100665481Y-129245014D03*
X101165481Y-129245014D03*
X101665481Y-129245014D03*
X102165481Y-129245014D03*
X102665481Y-129245014D03*
X103165481Y-129245014D03*
X103665481Y-129245014D03*
X104165481Y-129245014D03*
X104665481Y-129245014D03*
X105165481Y-129245014D03*
X105665481Y-129245014D03*
X106165481Y-129245014D03*
X106665481Y-129245014D03*
X107165481Y-129245014D03*
X107665481Y-129245014D03*
X108165481Y-129245014D03*
X108665481Y-129245014D03*
X109165481Y-129245014D03*
X109665481Y-129245014D03*
X110165481Y-129245014D03*
X110665481Y-129245014D03*
X111165481Y-129245014D03*
X111665481Y-129245014D03*
X112165481Y-129245014D03*
X112665481Y-129245014D03*
X113165481Y-129245014D03*
X113665481Y-129245014D03*
X114165481Y-129245014D03*
X114665481Y-129245014D03*
X115165481Y-129245014D03*
X115665481Y-129245014D03*
X116165481Y-129245014D03*
X116665481Y-129245014D03*
X117165481Y-129245014D03*
X117665481Y-129245014D03*
X118165481Y-129245014D03*
X118665481Y-129245014D03*
X119165481Y-129245014D03*
X119665481Y-129245014D03*
X120165481Y-129245014D03*
X120665481Y-129245014D03*
X121165481Y-129245014D03*
X121665481Y-129245014D03*
X122165481Y-129245014D03*
X122665481Y-129245014D03*
X123165481Y-129245014D03*
X123665481Y-129245014D03*
X124165481Y-129245014D03*
X124665481Y-129245014D03*
X125165481Y-129245014D03*
X125665481Y-129245014D03*
X126165481Y-129245014D03*
X126665481Y-129245014D03*
X127165481Y-129245014D03*
X127665481Y-129245014D03*
X128165481Y-129245014D03*
X128665481Y-129245014D03*
X129165481Y-129245014D03*
X129665481Y-129245014D03*
D22*
X130240481Y-129245014D03*
%TD*%
D17*
%TO.C,C182*%
X101167910Y-108163475D03*
X101167910Y-107473475D03*
%TD*%
D11*
%TO.C,C196*%
X96504681Y-107376614D03*
X95814681Y-107376614D03*
%TD*%
D12*
%TO.C,R37*%
X86920000Y-102845400D03*
X86920000Y-103865400D03*
%TD*%
D13*
%TO.C,C281*%
X70900000Y-116180400D03*
X69940000Y-116180400D03*
%TD*%
D14*
%TO.C,C189*%
X92865481Y-114150014D03*
X92865481Y-114840014D03*
%TD*%
D16*
%TO.C,C185*%
X95830921Y-110113683D03*
X96520921Y-110113683D03*
%TD*%
D11*
%TO.C,C104*%
X91560481Y-107545014D03*
X90870481Y-107545014D03*
%TD*%
D14*
%TO.C,C91*%
X98015481Y-118700014D03*
X98015481Y-119390014D03*
%TD*%
D11*
%TO.C,C200*%
X93040481Y-101135014D03*
X92350481Y-101135014D03*
%TD*%
D16*
%TO.C,C249*%
X79120481Y-98645014D03*
X79810481Y-98645014D03*
%TD*%
D11*
%TO.C,C161*%
X100720430Y-108982430D03*
X100030430Y-108982430D03*
%TD*%
D24*
%TO.C,R80*%
X68547981Y-120715414D03*
X68547981Y-119695414D03*
%TD*%
D17*
%TO.C,C228*%
X105480400Y-110431800D03*
X105480400Y-109741800D03*
%TD*%
D15*
%TO.C,R59*%
X133288462Y-89325028D03*
X134308462Y-89325028D03*
%TD*%
D19*
%TO.C,C187*%
X84885481Y-104695014D03*
X85845481Y-104695014D03*
%TD*%
D25*
%TO.C,C12*%
X129793462Y-85350028D03*
X129793462Y-84390028D03*
%TD*%
D16*
%TO.C,C89*%
X90150481Y-105045014D03*
X90840481Y-105045014D03*
%TD*%
D17*
%TO.C,C157*%
X94515481Y-113690014D03*
X94515481Y-113000014D03*
%TD*%
D16*
%TO.C,C183*%
X101260425Y-117212665D03*
X101950425Y-117212665D03*
%TD*%
D19*
%TO.C,C268*%
X63515000Y-115455400D03*
X64475000Y-115455400D03*
%TD*%
D11*
%TO.C,C153*%
X101851365Y-114026235D03*
X101161365Y-114026235D03*
%TD*%
D26*
%TO.C,C229*%
X108637513Y-111151881D03*
X108637513Y-112701881D03*
%TD*%
D16*
%TO.C,C98*%
X89470481Y-108295014D03*
X90160481Y-108295014D03*
%TD*%
D17*
%TO.C,C223*%
X100615481Y-104968790D03*
X100615481Y-104278790D03*
%TD*%
%TO.C,C176*%
X94191800Y-112387632D03*
X94191800Y-111697632D03*
%TD*%
%TO.C,C240*%
X111883000Y-105049200D03*
X111883000Y-104359200D03*
%TD*%
D14*
%TO.C,C238*%
X114620000Y-116385400D03*
X114620000Y-117075400D03*
%TD*%
D17*
%TO.C,C207*%
X94903000Y-112290014D03*
X94903000Y-111600014D03*
%TD*%
D14*
%TO.C,C165*%
X96015481Y-118675014D03*
X96015481Y-119365014D03*
%TD*%
D17*
%TO.C,C136*%
X90865481Y-112290014D03*
X90865481Y-111600014D03*
%TD*%
D12*
%TO.C,R57*%
X104464400Y-111151600D03*
X104464400Y-112171600D03*
%TD*%
D18*
%TO.C,R62*%
X78520000Y-110892900D03*
X77500000Y-110892900D03*
%TD*%
D11*
%TO.C,C194*%
X96514301Y-112193369D03*
X95824301Y-112193369D03*
%TD*%
%TO.C,C71*%
X98181081Y-122311814D03*
X97491081Y-122311814D03*
%TD*%
D25*
%TO.C,C177*%
X94812400Y-109327600D03*
X94812400Y-108367600D03*
%TD*%
D13*
%TO.C,C133*%
X102547705Y-106274790D03*
X101587705Y-106274790D03*
%TD*%
D11*
%TO.C,C171*%
X99980481Y-114865014D03*
X99290481Y-114865014D03*
%TD*%
D14*
%TO.C,C99*%
X88115481Y-112275014D03*
X88115481Y-112965014D03*
%TD*%
D11*
%TO.C,C208*%
X90845000Y-109300000D03*
X90155000Y-109300000D03*
%TD*%
D16*
%TO.C,C110*%
X95675481Y-107970014D03*
X96365481Y-107970014D03*
%TD*%
D19*
%TO.C,C254*%
X78720000Y-108930400D03*
X79680000Y-108930400D03*
%TD*%
D17*
%TO.C,C164*%
X102015481Y-104977045D03*
X102015481Y-104287045D03*
%TD*%
D11*
%TO.C,C180*%
X99919695Y-108189414D03*
X99229695Y-108189414D03*
%TD*%
%TO.C,C150*%
X97888965Y-110047325D03*
X97198965Y-110047325D03*
%TD*%
D12*
%TO.C,R58*%
X104464400Y-109272000D03*
X104464400Y-110292000D03*
%TD*%
D10*
%TO.C,C258*%
X75920000Y-109550400D03*
X75920000Y-110510400D03*
%TD*%
D16*
%TO.C,C90*%
X94120481Y-117195014D03*
X94810481Y-117195014D03*
%TD*%
D11*
%TO.C,C210*%
X92063000Y-113374200D03*
X91373000Y-113374200D03*
%TD*%
D14*
%TO.C,C152*%
X101250460Y-117932560D03*
X101250460Y-118622560D03*
%TD*%
D11*
%TO.C,C221*%
X100720430Y-109684105D03*
X100030430Y-109684105D03*
%TD*%
D10*
%TO.C,C7*%
X126793462Y-89627528D03*
X126793462Y-90587528D03*
%TD*%
D25*
%TO.C,C109*%
X95865481Y-113825014D03*
X95865481Y-112865014D03*
%TD*%
D14*
%TO.C,C206*%
X92769400Y-111699400D03*
X92769400Y-112389400D03*
%TD*%
D13*
%TO.C,C6*%
X125873462Y-89507528D03*
X124913462Y-89507528D03*
%TD*%
D17*
%TO.C,C125*%
X90165481Y-112290014D03*
X90165481Y-111600014D03*
%TD*%
D27*
%TO.C,C248*%
X79117981Y-99395014D03*
X80312981Y-99395014D03*
%TD*%
D14*
%TO.C,C175*%
X94815481Y-98250014D03*
X94815481Y-98940014D03*
%TD*%
D28*
%TO.C,U17*%
X74727481Y-83268014D03*
X74727481Y-84538014D03*
X74727481Y-85808014D03*
X74727481Y-87078014D03*
X69777481Y-87078014D03*
X69777481Y-85808014D03*
X69777481Y-84538014D03*
X69777481Y-83268014D03*
%TD*%
D14*
%TO.C,C188*%
X91535800Y-108979800D03*
X91535800Y-109669800D03*
%TD*%
D19*
%TO.C,C256*%
X79450000Y-111425000D03*
X80410000Y-111425000D03*
%TD*%
D25*
%TO.C,C2*%
X127493462Y-85350028D03*
X127493462Y-84390028D03*
%TD*%
D13*
%TO.C,C280*%
X70950000Y-113980400D03*
X69990000Y-113980400D03*
%TD*%
D29*
%TO.C,C41*%
X125893462Y-113345028D03*
X125893462Y-110395028D03*
%TD*%
D16*
%TO.C,C162*%
X97109000Y-107369000D03*
X97799000Y-107369000D03*
%TD*%
D14*
%TO.C,C115*%
X91515481Y-115550014D03*
X91515481Y-116240014D03*
%TD*%
D13*
%TO.C,C273*%
X71100000Y-112692900D03*
X70140000Y-112692900D03*
%TD*%
D14*
%TO.C,C101*%
X87365481Y-112700014D03*
X87365481Y-113390014D03*
%TD*%
D19*
%TO.C,C13*%
X129913462Y-88707528D03*
X130873462Y-88707528D03*
%TD*%
D17*
%TO.C,C236*%
X107670000Y-116550400D03*
X107670000Y-115860400D03*
%TD*%
D19*
%TO.C,C269*%
X63515000Y-118980400D03*
X64475000Y-118980400D03*
%TD*%
D13*
%TO.C,C166*%
X92273683Y-110847139D03*
X91313683Y-110847139D03*
%TD*%
D14*
%TO.C,C93*%
X89515481Y-112250014D03*
X89515481Y-112940014D03*
%TD*%
D30*
%TO.C,C170*%
X92771529Y-113438966D03*
X93259433Y-112951062D03*
%TD*%
D19*
%TO.C,C146*%
X92260481Y-104245014D03*
X93220481Y-104245014D03*
%TD*%
D13*
%TO.C,C286*%
X70950000Y-115080400D03*
X69990000Y-115080400D03*
%TD*%
D30*
%TO.C,C114*%
X94321529Y-107313966D03*
X94809433Y-106826062D03*
%TD*%
D14*
%TO.C,C155*%
X95684181Y-110815157D03*
X95684181Y-111505157D03*
%TD*%
D17*
%TO.C,C226*%
X113415481Y-114540014D03*
X113415481Y-113850014D03*
%TD*%
%TO.C,C147*%
X95115481Y-113640014D03*
X95115481Y-112950014D03*
%TD*%
D11*
%TO.C,C191*%
X99317080Y-111698325D03*
X98627080Y-111698325D03*
%TD*%
D31*
%TO.C,D1*%
X128246481Y-120762414D03*
X132246481Y-120762414D03*
%TD*%
D25*
%TO.C,C129*%
X102515481Y-86875014D03*
X102515481Y-85915014D03*
%TD*%
D17*
%TO.C,C227*%
X105378800Y-112057400D03*
X105378800Y-111367400D03*
%TD*%
D25*
%TO.C,C283*%
X66520000Y-120665414D03*
X66520000Y-119705414D03*
%TD*%
D10*
%TO.C,C284*%
X65620000Y-113212900D03*
X65620000Y-114172900D03*
%TD*%
D32*
%TO.C,C67*%
X68920000Y-106855400D03*
X68920000Y-109805400D03*
%TD*%
D11*
%TO.C,FB2*%
X97673081Y-108722814D03*
X96983081Y-108722814D03*
%TD*%
D16*
%TO.C,C211*%
X98610570Y-110063835D03*
X99300570Y-110063835D03*
%TD*%
D19*
%TO.C,C130*%
X98326980Y-110881080D03*
X99286980Y-110881080D03*
%TD*%
D14*
%TO.C,R44*%
X96565000Y-104306200D03*
X96565000Y-104996200D03*
%TD*%
D17*
%TO.C,C193*%
X102715481Y-104977045D03*
X102715481Y-104287045D03*
%TD*%
D13*
%TO.C,C253*%
X76530000Y-111875000D03*
X75570000Y-111875000D03*
%TD*%
D25*
%TO.C,C15*%
X126368462Y-85380028D03*
X126368462Y-84420028D03*
%TD*%
D17*
%TO.C,C121*%
X89515481Y-118090014D03*
X89515481Y-117400014D03*
%TD*%
D11*
%TO.C,C195*%
X97410175Y-113208990D03*
X96720175Y-113208990D03*
%TD*%
D25*
%TO.C,C278*%
X69970000Y-120910400D03*
X69970000Y-119950400D03*
%TD*%
D14*
%TO.C,C127*%
X97377800Y-103722000D03*
X97377800Y-104412000D03*
%TD*%
D10*
%TO.C,C276*%
X64670000Y-113250400D03*
X64670000Y-114210400D03*
%TD*%
D11*
%TO.C,C204*%
X101859620Y-114744420D03*
X101169620Y-114744420D03*
%TD*%
D16*
%TO.C,C205*%
X88720481Y-107570014D03*
X89410481Y-107570014D03*
%TD*%
D18*
%TO.C,R34*%
X103528281Y-112136614D03*
X102508281Y-112136614D03*
%TD*%
D10*
%TO.C,C126*%
X94715481Y-114315014D03*
X94715481Y-115275014D03*
%TD*%
D17*
%TO.C,C237*%
X115673000Y-114719200D03*
X115673000Y-114029200D03*
%TD*%
D19*
%TO.C,C144*%
X100151335Y-110917414D03*
X101111335Y-110917414D03*
%TD*%
D24*
%TO.C,R38*%
X86320000Y-113950400D03*
X86320000Y-112930400D03*
%TD*%
D32*
%TO.C,C43*%
X124878462Y-105795028D03*
X124878462Y-108745028D03*
%TD*%
D16*
%TO.C,C87*%
X101884200Y-110950400D03*
X102574200Y-110950400D03*
%TD*%
D14*
%TO.C,C100*%
X88690481Y-110850014D03*
X88690481Y-111540014D03*
%TD*%
D17*
%TO.C,C199*%
X93999600Y-110025400D03*
X93999600Y-109335400D03*
%TD*%
D13*
%TO.C,C282*%
X70900000Y-118080400D03*
X69940000Y-118080400D03*
%TD*%
D16*
%TO.C,C201*%
X98635335Y-112424765D03*
X99325335Y-112424765D03*
%TD*%
D19*
%TO.C,C259*%
X76370000Y-114225000D03*
X77330000Y-114225000D03*
%TD*%
D15*
%TO.C,R51*%
X113032863Y-110064729D03*
X114052863Y-110064729D03*
%TD*%
D11*
%TO.C,C215*%
X96504681Y-108672014D03*
X95814681Y-108672014D03*
%TD*%
D14*
%TO.C,C178*%
X93741052Y-107975546D03*
X93741052Y-108665546D03*
%TD*%
D18*
%TO.C,R60*%
X75680000Y-105992900D03*
X74660000Y-105992900D03*
%TD*%
D13*
%TO.C,C106*%
X104745481Y-94845014D03*
X103785481Y-94845014D03*
%TD*%
%TO.C,C285*%
X70900000Y-117130400D03*
X69940000Y-117130400D03*
%TD*%
D19*
%TO.C,C154*%
X93167867Y-110864632D03*
X94127867Y-110864632D03*
%TD*%
D14*
%TO.C,C192*%
X101416400Y-108878200D03*
X101416400Y-109568200D03*
%TD*%
D16*
%TO.C,C213*%
X101012775Y-112821005D03*
X101702775Y-112821005D03*
%TD*%
D17*
%TO.C,C235*%
X107765481Y-105690014D03*
X107765481Y-105000014D03*
%TD*%
D14*
%TO.C,C242*%
X117370000Y-114185400D03*
X117370000Y-114875400D03*
%TD*%
D29*
%TO.C,C36*%
X123593462Y-113345028D03*
X123593462Y-110395028D03*
%TD*%
D16*
%TO.C,C233*%
X109518000Y-109614200D03*
X110208000Y-109614200D03*
%TD*%
D33*
%TO.C,R33*%
X117430624Y-113141024D03*
X116709376Y-112419776D03*
%TD*%
D17*
%TO.C,C97*%
X90165481Y-107565014D03*
X90165481Y-106875014D03*
%TD*%
D10*
%TO.C,C9*%
X128693462Y-89627528D03*
X128693462Y-90587528D03*
%TD*%
D34*
%TO.C,C230*%
X113989400Y-105553200D03*
X113989400Y-104003200D03*
%TD*%
D19*
%TO.C,C250*%
X75945000Y-107925000D03*
X76905000Y-107925000D03*
%TD*%
D11*
%TO.C,C244*%
X117328000Y-107624200D03*
X116638000Y-107624200D03*
%TD*%
%TO.C,C217*%
X90855000Y-110002538D03*
X90165000Y-110002538D03*
%TD*%
D32*
%TO.C,C66*%
X70020000Y-102255400D03*
X70020000Y-105205400D03*
%TD*%
D19*
%TO.C,C132*%
X101789481Y-116023945D03*
X102749481Y-116023945D03*
%TD*%
D11*
%TO.C,C95*%
X91410481Y-103545014D03*
X90720481Y-103545014D03*
%TD*%
D17*
%TO.C,C184*%
X94951837Y-110952400D03*
X94951837Y-110262400D03*
%TD*%
D34*
%TO.C,C241*%
X117020000Y-110705400D03*
X117020000Y-109155400D03*
%TD*%
D35*
%TO.C,C122*%
X98671529Y-116701062D03*
X99159433Y-117188966D03*
%TD*%
D14*
%TO.C,C94*%
X88815481Y-112250014D03*
X88815481Y-112940014D03*
%TD*%
%TO.C,C224*%
X93480600Y-111700742D03*
X93480600Y-112390742D03*
%TD*%
D17*
%TO.C,C111*%
X98565481Y-104340014D03*
X98565481Y-103650014D03*
%TD*%
D16*
%TO.C,C143*%
X97880481Y-114875014D03*
X98570481Y-114875014D03*
%TD*%
D11*
%TO.C,C112*%
X87720481Y-114905014D03*
X87030481Y-114905014D03*
%TD*%
D18*
%TO.C,R39*%
X95180000Y-119692900D03*
X94160000Y-119692900D03*
%TD*%
D16*
%TO.C,C103*%
X90870481Y-108270014D03*
X91560481Y-108270014D03*
%TD*%
D13*
%TO.C,C4*%
X125873462Y-87207528D03*
X124913462Y-87207528D03*
%TD*%
D14*
%TO.C,C222*%
X101869585Y-107093745D03*
X101869585Y-107783745D03*
%TD*%
D36*
%TO.C,R40*%
X88720000Y-106580400D03*
X89441248Y-105859152D03*
%TD*%
D16*
%TO.C,C203*%
X100046940Y-112127585D03*
X100736940Y-112127585D03*
%TD*%
D19*
%TO.C,C270*%
X63515000Y-117970400D03*
X64475000Y-117970400D03*
%TD*%
D14*
%TO.C,C245*%
X107813000Y-114049200D03*
X107813000Y-114739200D03*
%TD*%
D19*
%TO.C,C105*%
X96124800Y-114787600D03*
X97084800Y-114787600D03*
%TD*%
D14*
%TO.C,C163*%
X100548785Y-117932560D03*
X100548785Y-118622560D03*
%TD*%
D17*
%TO.C,C239*%
X111933000Y-108729200D03*
X111933000Y-108039200D03*
%TD*%
D14*
%TO.C,C123*%
X96590481Y-116250014D03*
X96590481Y-116940014D03*
%TD*%
D19*
%TO.C,C3*%
X129913462Y-86807528D03*
X130873462Y-86807528D03*
%TD*%
D17*
%TO.C,C218*%
X92265481Y-110040014D03*
X92265481Y-109350014D03*
%TD*%
D11*
%TO.C,C225*%
X96110481Y-94495014D03*
X95420481Y-94495014D03*
%TD*%
D14*
%TO.C,C159*%
X92215481Y-114150014D03*
X92215481Y-114840014D03*
%TD*%
D16*
%TO.C,C216*%
X95803870Y-109378670D03*
X96493870Y-109378670D03*
%TD*%
%TO.C,C232*%
X114938000Y-110124200D03*
X115628000Y-110124200D03*
%TD*%
D11*
%TO.C,C212*%
X100299425Y-113225500D03*
X99609425Y-113225500D03*
%TD*%
D25*
%TO.C,C145*%
X103158481Y-117903014D03*
X103158481Y-116943014D03*
%TD*%
D19*
%TO.C,C116*%
X94210481Y-118020014D03*
X95170481Y-118020014D03*
%TD*%
%TO.C,C271*%
X63515000Y-119905400D03*
X64475000Y-119905400D03*
%TD*%
D16*
%TO.C,C231*%
X107808000Y-109514200D03*
X108498000Y-109514200D03*
%TD*%
D19*
%TO.C,C294*%
X69767481Y-81968014D03*
X70727481Y-81968014D03*
%TD*%
D11*
%TO.C,C119*%
X79800481Y-116946014D03*
X79110481Y-116946014D03*
%TD*%
D16*
%TO.C,C247*%
X110208000Y-108194200D03*
X110898000Y-108194200D03*
%TD*%
%TO.C,C181*%
X97248495Y-111706580D03*
X97938495Y-111706580D03*
%TD*%
%TO.C,C197*%
X95200481Y-104335014D03*
X95890481Y-104335014D03*
%TD*%
D17*
%TO.C,C96*%
X90255481Y-118080014D03*
X90255481Y-117390014D03*
%TD*%
D16*
%TO.C,C243*%
X107118000Y-107384200D03*
X107808000Y-107384200D03*
%TD*%
D10*
%TO.C,C287*%
X68824519Y-113050400D03*
X68824519Y-114010400D03*
%TD*%
D26*
%TO.C,C263*%
X59965481Y-85745014D03*
X59965481Y-87295014D03*
%TD*%
D16*
%TO.C,C173*%
X102087400Y-110036000D03*
X102777400Y-110036000D03*
%TD*%
D11*
%TO.C,R43*%
X97966600Y-105159200D03*
X97276600Y-105159200D03*
%TD*%
D14*
%TO.C,C139*%
X99265481Y-103665400D03*
X99265481Y-104355400D03*
%TD*%
D10*
%TO.C,C8*%
X127743462Y-89627528D03*
X127743462Y-90587528D03*
%TD*%
D13*
%TO.C,C168*%
X90426706Y-110837857D03*
X89466706Y-110837857D03*
%TD*%
D17*
%TO.C,C179*%
X91515481Y-114840014D03*
X91515481Y-114150014D03*
%TD*%
D24*
%TO.C,R81*%
X67547981Y-120715414D03*
X67547981Y-119695414D03*
%TD*%
D16*
%TO.C,C138*%
X96934805Y-113968450D03*
X97624805Y-113968450D03*
%TD*%
D14*
%TO.C,C102*%
X98065481Y-117300014D03*
X98065481Y-117990014D03*
%TD*%
D11*
%TO.C,C120*%
X71320481Y-89835014D03*
X70630481Y-89835014D03*
%TD*%
D13*
%TO.C,C142*%
X97446115Y-110914100D03*
X96486115Y-110914100D03*
%TD*%
D11*
%TO.C,C202*%
X99284060Y-109329140D03*
X98594060Y-109329140D03*
%TD*%
%TO.C,C92*%
X91435481Y-104295014D03*
X90745481Y-104295014D03*
%TD*%
D19*
%TO.C,C275*%
X63515000Y-117050400D03*
X64475000Y-117050400D03*
%TD*%
D16*
%TO.C,C107*%
X97210600Y-108054800D03*
X97900600Y-108054800D03*
%TD*%
D19*
%TO.C,C11*%
X129913462Y-87807528D03*
X130873462Y-87807528D03*
%TD*%
D16*
%TO.C,C151*%
X97165945Y-109329140D03*
X97855945Y-109329140D03*
%TD*%
D13*
%TO.C,C131*%
X99856575Y-114042745D03*
X98896575Y-114042745D03*
%TD*%
D16*
%TO.C,C246*%
X114808000Y-107934200D03*
X115498000Y-107934200D03*
%TD*%
D17*
%TO.C,C156*%
X94015481Y-104365014D03*
X94015481Y-103675014D03*
%TD*%
D11*
%TO.C,C47*%
X126938462Y-109270028D03*
X126248462Y-109270028D03*
%TD*%
D14*
%TO.C,C198*%
X93288400Y-109353119D03*
X93288400Y-110043119D03*
%TD*%
D37*
%TO.C,C118*%
X88759433Y-114663966D03*
X88271529Y-114176062D03*
%TD*%
D13*
%TO.C,C277*%
X70900000Y-119030400D03*
X69940000Y-119030400D03*
%TD*%
D38*
%TO.C,FB3*%
X69832500Y-111492900D03*
X71407500Y-111492900D03*
%TD*%
D19*
%TO.C,C252*%
X75920000Y-106975000D03*
X76880000Y-106975000D03*
%TD*%
D11*
%TO.C,C220*%
X98826891Y-113213067D03*
X98136891Y-113213067D03*
%TD*%
D13*
%TO.C,C149*%
X96845481Y-93045014D03*
X95885481Y-93045014D03*
%TD*%
D25*
%TO.C,C251*%
X78600000Y-107705000D03*
X78600000Y-106745000D03*
%TD*%
D15*
%TO.C,R49*%
X106610000Y-120630400D03*
X107630000Y-120630400D03*
%TD*%
D30*
%TO.C,C128*%
X98657848Y-107536752D03*
X99145752Y-107048848D03*
%TD*%
D13*
%TO.C,C117*%
X90425481Y-116545014D03*
X89465481Y-116545014D03*
%TD*%
D17*
%TO.C,C174*%
X101968645Y-118622560D03*
X101968645Y-117932560D03*
%TD*%
D10*
%TO.C,C279*%
X66520000Y-113075400D03*
X66520000Y-114035400D03*
%TD*%
D14*
%TO.C,C209*%
X92445481Y-107960014D03*
X92445481Y-108650014D03*
%TD*%
D17*
%TO.C,C88*%
X97290481Y-117890014D03*
X97290481Y-117200014D03*
%TD*%
D11*
%TO.C,C167*%
X94910481Y-101145014D03*
X94220481Y-101145014D03*
%TD*%
D14*
%TO.C,C169*%
X93085200Y-107963800D03*
X93085200Y-108653800D03*
%TD*%
D32*
%TO.C,C70*%
X67620000Y-102255400D03*
X67620000Y-105205400D03*
%TD*%
D13*
%TO.C,C255*%
X76530000Y-112825000D03*
X75570000Y-112825000D03*
%TD*%
D36*
%TO.C,R52*%
X113746386Y-112039795D03*
X114467634Y-111318547D03*
%TD*%
D14*
%TO.C,C234*%
X115803000Y-103659200D03*
X115803000Y-104349200D03*
%TD*%
D25*
%TO.C,C260*%
X80650000Y-109905000D03*
X80650000Y-108945000D03*
%TD*%
D39*
%TO.C,FB1*%
X89450000Y-109925000D03*
X89450000Y-108955000D03*
%TD*%
M02*
