%TF.GenerationSoftware,KiCad,Pcbnew,7.99.0-3539-g7abe2e3ea0*%
%TF.CreationDate,2023-11-26T19:50:55+01:00*%
%TF.ProjectId,SBC,5342432e-6b69-4636-9164-5f7063625858,rev?*%
%TF.SameCoordinates,Original*%
%TF.FileFunction,Legend,Bot*%
%TF.FilePolarity,Positive*%
%FSLAX46Y46*%
G04 Gerber Fmt 4.6, Leading zero omitted, Abs format (unit mm)*
G04 Created by KiCad (PCBNEW 7.99.0-3539-g7abe2e3ea0) date 2023-11-26 19:50:55*
%MOMM*%
%LPD*%
G01*
G04 APERTURE LIST*
%ADD10C,0.120000*%
%ADD11C,0.127000*%
%ADD12C,0.200000*%
G04 APERTURE END LIST*
D10*
%TO.C,C141*%
X93305481Y-114457036D02*
X93305481Y-114241364D01*
X94025481Y-114457036D02*
X94025481Y-114241364D01*
%TO.C,R36*%
X85940000Y-111744041D02*
X85940000Y-111436759D01*
X86700000Y-111744041D02*
X86700000Y-111436759D01*
%TO.C,C5*%
X125501298Y-88197528D02*
X125285626Y-88197528D01*
X125501298Y-88917528D02*
X125285626Y-88917528D01*
%TO.C,R50*%
X107273641Y-121350400D02*
X106966359Y-121350400D01*
X107273641Y-122110400D02*
X106966359Y-122110400D01*
%TO.C,R61*%
X78903641Y-113845000D02*
X78596359Y-113845000D01*
X78903641Y-114605000D02*
X78596359Y-114605000D01*
%TO.C,C257*%
X77817164Y-112465000D02*
X78032836Y-112465000D01*
X77817164Y-113185000D02*
X78032836Y-113185000D01*
%TO.C,C10*%
X129283462Y-89999692D02*
X129283462Y-90215364D01*
X130003462Y-89999692D02*
X130003462Y-90215364D01*
D11*
%TO.C,J1*%
X72015481Y-123445014D02*
X72015481Y-124545014D01*
X72015481Y-128545014D02*
X72015481Y-129645014D01*
X72015481Y-129645014D02*
X74915481Y-129645014D01*
X74915481Y-123445014D02*
X72015481Y-123445014D01*
X133815481Y-123445014D02*
X130815481Y-123445014D01*
X133815481Y-123445014D02*
X133815481Y-124545014D01*
X133815481Y-128445014D02*
X133815481Y-129645014D01*
X133815481Y-129645014D02*
X130815481Y-129645014D01*
D12*
X75690481Y-122945014D02*
G75*
G02*
X75690481Y-122945014I-100000J0D01*
G01*
D10*
%TO.C,R37*%
X86540000Y-103201759D02*
X86540000Y-103509041D01*
X87300000Y-103201759D02*
X87300000Y-103509041D01*
%TO.C,C281*%
X70527836Y-115820400D02*
X70312164Y-115820400D01*
X70527836Y-116540400D02*
X70312164Y-116540400D01*
%TO.C,R80*%
X68167981Y-120359055D02*
X68167981Y-120051773D01*
X68927981Y-120359055D02*
X68927981Y-120051773D01*
%TO.C,R59*%
X133952103Y-88945028D02*
X133644821Y-88945028D01*
X133952103Y-89705028D02*
X133644821Y-89705028D01*
%TO.C,C187*%
X85473317Y-104335014D02*
X85257645Y-104335014D01*
X85473317Y-105055014D02*
X85257645Y-105055014D01*
%TO.C,C12*%
X129433462Y-84977864D02*
X129433462Y-84762192D01*
X130153462Y-84977864D02*
X130153462Y-84762192D01*
%TO.C,C268*%
X63887164Y-115095400D02*
X64102836Y-115095400D01*
X63887164Y-115815400D02*
X64102836Y-115815400D01*
%TO.C,C229*%
X108127513Y-112067461D02*
X108127513Y-111786301D01*
X109147513Y-112067461D02*
X109147513Y-111786301D01*
%TO.C,R57*%
X104084400Y-111815241D02*
X104084400Y-111507959D01*
X104844400Y-111815241D02*
X104844400Y-111507959D01*
%TO.C,R62*%
X77856359Y-110512900D02*
X78163641Y-110512900D01*
X77856359Y-111272900D02*
X78163641Y-111272900D01*
%TO.C,C177*%
X94452400Y-108955436D02*
X94452400Y-108739764D01*
X95172400Y-108955436D02*
X95172400Y-108739764D01*
%TO.C,C133*%
X101959869Y-105914790D02*
X102175541Y-105914790D01*
X101959869Y-106634790D02*
X102175541Y-106634790D01*
%TO.C,C254*%
X79092164Y-108570400D02*
X79307836Y-108570400D01*
X79092164Y-109290400D02*
X79307836Y-109290400D01*
%TO.C,R58*%
X104084400Y-109935641D02*
X104084400Y-109628359D01*
X104844400Y-109935641D02*
X104844400Y-109628359D01*
%TO.C,C258*%
X75560000Y-109922564D02*
X75560000Y-110138236D01*
X76280000Y-109922564D02*
X76280000Y-110138236D01*
%TO.C,C7*%
X126433462Y-89999692D02*
X126433462Y-90215364D01*
X127153462Y-89999692D02*
X127153462Y-90215364D01*
%TO.C,C109*%
X95505481Y-113237178D02*
X95505481Y-113452850D01*
X96225481Y-113237178D02*
X96225481Y-113452850D01*
%TO.C,C6*%
X125501298Y-89147528D02*
X125285626Y-89147528D01*
X125501298Y-89867528D02*
X125285626Y-89867528D01*
%TO.C,C248*%
X79883102Y-99015014D02*
X79547860Y-99015014D01*
X79883102Y-99775014D02*
X79547860Y-99775014D01*
%TO.C,U17*%
X70302481Y-82613014D02*
X72252481Y-82613014D01*
X70302481Y-87733014D02*
X72252481Y-87733014D01*
X74202481Y-87733014D02*
X72252481Y-87733014D01*
X75702481Y-82613014D02*
X72252481Y-82613014D01*
%TO.C,C256*%
X79822164Y-111065000D02*
X80037836Y-111065000D01*
X79822164Y-111785000D02*
X80037836Y-111785000D01*
%TO.C,C2*%
X127133462Y-84977864D02*
X127133462Y-84762192D01*
X127853462Y-84977864D02*
X127853462Y-84762192D01*
%TO.C,C280*%
X70577836Y-113620400D02*
X70362164Y-113620400D01*
X70577836Y-114340400D02*
X70362164Y-114340400D01*
%TO.C,C41*%
X124983462Y-112581280D02*
X124983462Y-111158776D01*
X126803462Y-112581280D02*
X126803462Y-111158776D01*
%TO.C,C273*%
X70727836Y-112332900D02*
X70512164Y-112332900D01*
X70727836Y-113052900D02*
X70512164Y-113052900D01*
%TO.C,C13*%
X130285626Y-88347528D02*
X130501298Y-88347528D01*
X130285626Y-89067528D02*
X130501298Y-89067528D01*
%TO.C,C269*%
X63887164Y-118620400D02*
X64102836Y-118620400D01*
X63887164Y-119340400D02*
X64102836Y-119340400D01*
%TO.C,C166*%
X91901519Y-110487139D02*
X91685847Y-110487139D01*
X91901519Y-111207139D02*
X91685847Y-111207139D01*
%TO.C,C146*%
X92848317Y-103885014D02*
X92632645Y-103885014D01*
X92848317Y-104605014D02*
X92632645Y-104605014D01*
%TO.C,C286*%
X70577836Y-114720400D02*
X70362164Y-114720400D01*
X70577836Y-115440400D02*
X70362164Y-115440400D01*
%TO.C,D1*%
X126736481Y-119112414D02*
X126736481Y-122412414D01*
X132246481Y-119112414D02*
X126736481Y-119112414D01*
X132246481Y-122412414D02*
X126736481Y-122412414D01*
%TO.C,C129*%
X102155481Y-86287178D02*
X102155481Y-86502850D01*
X102875481Y-86287178D02*
X102875481Y-86502850D01*
%TO.C,C283*%
X66160000Y-120293250D02*
X66160000Y-120077578D01*
X66880000Y-120293250D02*
X66880000Y-120077578D01*
%TO.C,C284*%
X65260000Y-113585064D02*
X65260000Y-113800736D01*
X65980000Y-113585064D02*
X65980000Y-113800736D01*
%TO.C,C67*%
X68010000Y-109041652D02*
X68010000Y-107619148D01*
X69830000Y-109041652D02*
X69830000Y-107619148D01*
%TO.C,C130*%
X98914816Y-110521080D02*
X98699144Y-110521080D01*
X98914816Y-111241080D02*
X98699144Y-111241080D01*
%TO.C,C253*%
X76157836Y-111515000D02*
X75942164Y-111515000D01*
X76157836Y-112235000D02*
X75942164Y-112235000D01*
%TO.C,C15*%
X126008462Y-85007864D02*
X126008462Y-84792192D01*
X126728462Y-85007864D02*
X126728462Y-84792192D01*
%TO.C,C278*%
X69610000Y-120538236D02*
X69610000Y-120322564D01*
X70330000Y-120538236D02*
X70330000Y-120322564D01*
%TO.C,C276*%
X64310000Y-113622564D02*
X64310000Y-113838236D01*
X65030000Y-113622564D02*
X65030000Y-113838236D01*
%TO.C,R34*%
X102864640Y-111756614D02*
X103171922Y-111756614D01*
X102864640Y-112516614D02*
X103171922Y-112516614D01*
%TO.C,C126*%
X94355481Y-114902850D02*
X94355481Y-114687178D01*
X95075481Y-114902850D02*
X95075481Y-114687178D01*
%TO.C,C144*%
X100739171Y-110557414D02*
X100523499Y-110557414D01*
X100739171Y-111277414D02*
X100523499Y-111277414D01*
%TO.C,R38*%
X85940000Y-113286759D02*
X85940000Y-113594041D01*
X86700000Y-113286759D02*
X86700000Y-113594041D01*
%TO.C,C43*%
X123968462Y-106558776D02*
X123968462Y-107981280D01*
X125788462Y-106558776D02*
X125788462Y-107981280D01*
%TO.C,C282*%
X70527836Y-117720400D02*
X70312164Y-117720400D01*
X70527836Y-118440400D02*
X70312164Y-118440400D01*
%TO.C,C259*%
X76742164Y-113865000D02*
X76957836Y-113865000D01*
X76742164Y-114585000D02*
X76957836Y-114585000D01*
%TO.C,R51*%
X113696504Y-109684729D02*
X113389222Y-109684729D01*
X113696504Y-110444729D02*
X113389222Y-110444729D01*
%TO.C,R60*%
X75323641Y-105612900D02*
X75016359Y-105612900D01*
X75323641Y-106372900D02*
X75016359Y-106372900D01*
%TO.C,C106*%
X104157645Y-94485014D02*
X104373317Y-94485014D01*
X104157645Y-95205014D02*
X104373317Y-95205014D01*
%TO.C,C285*%
X70527836Y-116770400D02*
X70312164Y-116770400D01*
X70527836Y-117490400D02*
X70312164Y-117490400D01*
%TO.C,C154*%
X93540031Y-110504632D02*
X93755703Y-110504632D01*
X93540031Y-111224632D02*
X93755703Y-111224632D01*
%TO.C,C36*%
X122683462Y-112581280D02*
X122683462Y-111158776D01*
X124503462Y-112581280D02*
X124503462Y-111158776D01*
%TO.C,R33*%
X116692659Y-112940460D02*
X116909940Y-113157741D01*
X117230060Y-112403059D02*
X117447341Y-112620340D01*
%TO.C,C9*%
X128333462Y-89999692D02*
X128333462Y-90215364D01*
X129053462Y-89999692D02*
X129053462Y-90215364D01*
%TO.C,C230*%
X113479400Y-104918780D02*
X113479400Y-104637620D01*
X114499400Y-104918780D02*
X114499400Y-104637620D01*
%TO.C,C250*%
X76317164Y-107565000D02*
X76532836Y-107565000D01*
X76317164Y-108285000D02*
X76532836Y-108285000D01*
%TO.C,C66*%
X69110000Y-104441652D02*
X69110000Y-103019148D01*
X70930000Y-104441652D02*
X70930000Y-103019148D01*
%TO.C,C132*%
X102377317Y-115663945D02*
X102161645Y-115663945D01*
X102377317Y-116383945D02*
X102161645Y-116383945D01*
%TO.C,C241*%
X116510000Y-110070980D02*
X116510000Y-109789820D01*
X117530000Y-110070980D02*
X117530000Y-109789820D01*
%TO.C,R39*%
X94516359Y-119312900D02*
X94823641Y-119312900D01*
X94516359Y-120072900D02*
X94823641Y-120072900D01*
%TO.C,C4*%
X125501298Y-86847528D02*
X125285626Y-86847528D01*
X125501298Y-87567528D02*
X125285626Y-87567528D01*
%TO.C,R40*%
X88920564Y-105842435D02*
X88703283Y-106059716D01*
X89457965Y-106379836D02*
X89240684Y-106597117D01*
%TO.C,C270*%
X63887164Y-117610400D02*
X64102836Y-117610400D01*
X63887164Y-118330400D02*
X64102836Y-118330400D01*
%TO.C,C105*%
X96712636Y-114427600D02*
X96496964Y-114427600D01*
X96712636Y-115147600D02*
X96496964Y-115147600D01*
%TO.C,C3*%
X130285626Y-86447528D02*
X130501298Y-86447528D01*
X130285626Y-87167528D02*
X130501298Y-87167528D01*
%TO.C,C145*%
X102798481Y-117315178D02*
X102798481Y-117530850D01*
X103518481Y-117315178D02*
X103518481Y-117530850D01*
%TO.C,C116*%
X94798317Y-117660014D02*
X94582645Y-117660014D01*
X94798317Y-118380014D02*
X94582645Y-118380014D01*
%TO.C,C271*%
X63887164Y-119545400D02*
X64102836Y-119545400D01*
X63887164Y-120265400D02*
X64102836Y-120265400D01*
%TO.C,C294*%
X70355317Y-81608014D02*
X70139645Y-81608014D01*
X70355317Y-82328014D02*
X70139645Y-82328014D01*
%TO.C,C287*%
X68464519Y-113422564D02*
X68464519Y-113638236D01*
X69184519Y-113422564D02*
X69184519Y-113638236D01*
%TO.C,C263*%
X59455481Y-86660594D02*
X59455481Y-86379434D01*
X60475481Y-86660594D02*
X60475481Y-86379434D01*
%TO.C,C8*%
X127383462Y-89999692D02*
X127383462Y-90215364D01*
X128103462Y-89999692D02*
X128103462Y-90215364D01*
%TO.C,C168*%
X90054542Y-110477857D02*
X89838870Y-110477857D01*
X90054542Y-111197857D02*
X89838870Y-111197857D01*
%TO.C,R81*%
X67167981Y-120359055D02*
X67167981Y-120051773D01*
X67927981Y-120359055D02*
X67927981Y-120051773D01*
%TO.C,C142*%
X96858279Y-110554100D02*
X97073951Y-110554100D01*
X96858279Y-111274100D02*
X97073951Y-111274100D01*
%TO.C,C275*%
X63887164Y-116690400D02*
X64102836Y-116690400D01*
X63887164Y-117410400D02*
X64102836Y-117410400D01*
%TO.C,C11*%
X130285626Y-87447528D02*
X130501298Y-87447528D01*
X130285626Y-88167528D02*
X130501298Y-88167528D01*
%TO.C,C131*%
X99268739Y-113682745D02*
X99484411Y-113682745D01*
X99268739Y-114402745D02*
X99484411Y-114402745D01*
%TO.C,C277*%
X70527836Y-118670400D02*
X70312164Y-118670400D01*
X70527836Y-119390400D02*
X70312164Y-119390400D01*
%TO.C,FB3*%
X70457221Y-110982900D02*
X70782779Y-110982900D01*
X70457221Y-112002900D02*
X70782779Y-112002900D01*
%TO.C,C252*%
X76292164Y-106615000D02*
X76507836Y-106615000D01*
X76292164Y-107335000D02*
X76507836Y-107335000D01*
%TO.C,C149*%
X96257645Y-92685014D02*
X96473317Y-92685014D01*
X96257645Y-93405014D02*
X96473317Y-93405014D01*
%TO.C,C251*%
X78240000Y-107332836D02*
X78240000Y-107117164D01*
X78960000Y-107332836D02*
X78960000Y-107117164D01*
%TO.C,R49*%
X106966359Y-120250400D02*
X107273641Y-120250400D01*
X106966359Y-121010400D02*
X107273641Y-121010400D01*
%TO.C,C117*%
X89837645Y-116185014D02*
X90053317Y-116185014D01*
X89837645Y-116905014D02*
X90053317Y-116905014D01*
%TO.C,C279*%
X66160000Y-113447564D02*
X66160000Y-113663236D01*
X66880000Y-113447564D02*
X66880000Y-113663236D01*
%TO.C,C70*%
X66710000Y-104441652D02*
X66710000Y-103019148D01*
X68530000Y-104441652D02*
X68530000Y-103019148D01*
%TO.C,C255*%
X76157836Y-112465000D02*
X75942164Y-112465000D01*
X76157836Y-113185000D02*
X75942164Y-113185000D01*
%TO.C,R52*%
X113946950Y-111301830D02*
X113729669Y-111519111D01*
X114484351Y-111839231D02*
X114267070Y-112056512D01*
%TO.C,C260*%
X80290000Y-109532836D02*
X80290000Y-109317164D01*
X81010000Y-109532836D02*
X81010000Y-109317164D01*
%TD*%
M02*
