<?xml version="1.0" encoding="UTF-8"?>
<svg width="20px" height="20px" viewBox="0 0 20 20" version="1.1" xmlns="http://www.w3.org/2000/svg" xmlns:xlink="http://www.w3.org/1999/xlink">
    <!-- Generator: Sketch 63.1 (92452) - https://sketch.com -->
    <title>calculate_icon</title>
    <desc>Created with Sketch.</desc>
    <g id="页面-1" stroke="none" stroke-width="1" fill="none" fill-rule="evenodd">
        <g id="阻焊神器" transform="translate(-1474.000000, -453.000000)" fill="#FFFFFF" fill-rule="nonzero">
            <g id="编组-8" transform="translate(290.000000, 329.000000)">
                <g id="-mockplus-" transform="translate(0.000000, 114.000000)">
                    <g id="编组-3">
                        <g id="编组备份">
                            <g transform="translate(1130.000000, 0.000000)">
                                <g id="-mockplus-">
                                    <g id="编组">
                                        <g id="-mockplus-">
                                            <g transform="translate(54.000000, 10.000000)">
                                                <g id="计算器">
                                                    <g id="calculate_icon" transform="translate(2.000000, 2.000000)">
                                                        <path d="M12.3469388,15.9693878 L1.75170068,15.9693878 C0.782312925,15.9693878 0,15.1870748 0,14.2176871 L0,1.75170068 C0,0.782312925 0.782312925,0 1.75170068,0 L12.3469388,0 C13.3163265,0 14.0986395,0.782312925 14.0986395,1.75170068 L14.0986395,14.2176871 C14.0986395,15.1870748 13.3163265,15.9693878 12.3469388,15.9693878 Z M1.75170068,1.02040816 C1.36054422,1.02040816 1.02040816,1.36054422 1.02040816,1.75170068 L1.02040816,14.2176871 C1.02040816,14.6258503 1.34353741,14.9489796 1.75170068,14.9489796 L12.3469388,14.9489796 C12.755102,14.9489796 13.0782313,14.6258503 13.0782313,14.2176871 L13.0782313,1.75170068 C13.0782313,1.34353741 12.755102,1.02040816 12.3469388,1.02040816 L1.75170068,1.02040816 Z" id="形状"></path>
                                                        <path d="M10.2891156,6.9047619 L3.82653061,6.9047619 C3.16326531,6.9047619 2.63605442,6.37755102 2.63605442,5.71428571 L2.63605442,3.62244898 C2.63605442,2.95918367 3.16326531,2.43197279 3.82653061,2.43197279 L10.2891156,2.43197279 C10.952381,2.43197279 11.4795918,2.95918367 11.4795918,3.62244898 L11.4795918,5.71428571 C11.4795918,6.37755102 10.952381,6.9047619 10.2891156,6.9047619 L10.2891156,6.9047619 Z M3.82653061,3.45238095 C3.7414966,3.45238095 3.65646259,3.50340136 3.65646259,3.62244898 L3.65646259,5.71428571 C3.65646259,5.79931973 3.7414966,5.88435374 3.82653061,5.88435374 L10.2891156,5.88435374 C10.3741497,5.88435374 10.4591837,5.79931973 10.4591837,5.71428571 L10.4591837,3.62244898 C10.4591837,3.53741497 10.3741497,3.45238095 10.2891156,3.45238095 L3.82653061,3.45238095 Z" id="形状"></path>
                                                        <path d="M2.80612245,9.43877551 C2.80612245,10.0023314 3.26297475,10.4591837 3.82653061,10.4591837 C4.39008648,10.4591837 4.84693878,10.0023314 4.84693878,9.43877551 C4.84693878,8.87521964 4.39008648,8.41836735 3.82653061,8.41836735 C3.26297475,8.41836735 2.80612245,8.87521964 2.80612245,9.43877551 Z" id="路径"></path>
                                                        <path d="M6.03741497,9.43877551 C6.03741497,10.0023314 6.49426726,10.4591837 7.05782313,10.4591837 C7.621379,10.4591837 8.07823129,10.0023314 8.07823129,9.43877551 C8.07823129,8.87521964 7.621379,8.41836735 7.05782313,8.41836735 C6.49426726,8.41836735 6.03741497,8.87521964 6.03741497,9.43877551 Z" id="路径"></path>
                                                        <path d="M9.26870748,9.43877551 C9.26870748,10.0023314 9.72555978,10.4591837 10.2891156,10.4591837 C10.8526715,10.4591837 11.3095238,10.0023314 11.3095238,9.43877551 C11.3095238,8.87521964 10.8526715,8.41836735 10.2891156,8.41836735 C9.72555978,8.41836735 9.26870748,8.87521964 9.26870748,9.43877551 Z" id="路径"></path>
                                                        <path d="M2.80612245,12.5 C2.80612245,13.0635559 3.26297475,13.5204082 3.82653061,13.5204082 C4.39008648,13.5204082 4.84693878,13.0635559 4.84693878,12.5 C4.84693878,11.9364441 4.39008648,11.4795918 3.82653061,11.4795918 C3.26297475,11.4795918 2.80612245,11.9364441 2.80612245,12.5 Z" id="路径"></path>
                                                        <path d="M6.03741497,12.5 C6.03741497,13.0635559 6.49426726,13.5204082 7.05782313,13.5204082 C7.621379,13.5204082 8.07823129,13.0635559 8.07823129,12.5 C8.07823129,11.9364441 7.621379,11.4795918 7.05782313,11.4795918 C6.49426726,11.4795918 6.03741497,11.9364441 6.03741497,12.5 Z" id="路径"></path>
                                                        <path d="M9.26870748,12.5 C9.26870748,13.0635559 9.72555978,13.5204082 10.2891156,13.5204082 C10.8526715,13.5204082 11.3095238,13.0635559 11.3095238,12.5 C11.3095238,11.9364441 10.8526715,11.4795918 10.2891156,11.4795918 C9.72555978,11.4795918 9.26870748,11.9364441 9.26870748,12.5 Z" id="路径"></path>
                                                    </g>
                                                </g>
                                            </g>
                                        </g>
                                    </g>
                                </g>
                            </g>
                        </g>
                    </g>
                </g>
            </g>
        </g>
    </g>
</svg>
