<?xml version="1.0" encoding="UTF-8"?>
<svg width="20px" height="20px" viewBox="0 0 20 20" version="1.1" xmlns="http://www.w3.org/2000/svg" xmlns:xlink="http://www.w3.org/1999/xlink">
    <!-- Generator: Sketch 63.1 (92452) - https://sketch.com -->
    <title>del</title>
    <desc>Created with Sketch.</desc>
    <g id="页面-1" stroke="none" stroke-width="1" fill="none" fill-rule="evenodd">
        <g id="阻焊神器计算后" transform="translate(-1591.000000, -664.000000)" fill="#2B8CED" fill-rule="nonzero">
            <g id="编组-7" transform="translate(290.000000, 512.000000)">
                <g id="编组-5备份-7" transform="translate(0.000000, 137.000000)">
                    <g id="编组-5备份-3">
                        <g id="编组-5备份">
                            <g id="编组-10">
                                <g id="矩形备份">
                                    <g id="-mockplus-" transform="translate(1301.000000, 15.000000)">
                                        <g id="de">
                                            <g id="del" transform="translate(1.000000, 1.000000)">
                                                <path d="M10.8844123,14.0833342 C10.5305037,14.0833342 10.2453151,13.7981456 10.2453151,13.444237 L10.2453151,6.4107321 C10.2453151,6.05682346 10.5305036,5.77163492 10.8844123,5.77163492 C11.238321,5.77163492 11.5235095,6.05682344 11.5235095,6.4107321 L11.5235095,13.440801 C11.5235095,13.7947096 11.2383209,14.0833342 10.8844123,14.0833342 Z" id="路径"></path>
                                                <path d="M7.04982926,14.0833342 C6.69592062,14.0833342 6.41073208,13.7981456 6.41073208,13.444237 L6.41073208,6.4107321 C6.41073208,6.05682346 6.69592062,5.77163492 7.04982928,5.77163492 C7.40373792,5.77163492 7.68892646,6.05682344 7.68892646,6.4107321 L7.68892646,13.440801 C7.68892646,13.7947096 7.40373792,14.0833342 7.04982926,14.0833342 Z" id="路径"></path>
                                                <path d="M17.27882,3.21524624 L14.0833341,3.21524624 L14.0833342,1.93705191 C14.0833342,0.87876197 13.2312046,0.0197603893 12.1797867,0.0197603893 L5.77163492,0.0197603893 C4.71334498,0.0197603893 3.8543434,0.87876197 3.8543434,1.93705191 L3.8543434,3.21524624 L0.658857548,3.21524624 C0.304948908,3.21524624 0.0197603693,3.50043476 0.0197603693,3.85434342 C0.0197603693,4.20825208 0.304948888,4.4934406 0.658857548,4.4934406 L17.27882,4.4934406 C17.6327286,4.4934406 17.9179172,4.20825208 17.9179172,3.85434342 C17.9179172,3.50043476 17.6327286,3.21524624 17.27882,3.21524624 Z M5.13253776,1.93705191 C5.13253776,1.58657927 5.42116228,1.29795473 5.77163494,1.29795473 L12.1797867,1.29795473 C12.5302593,1.29795473 12.8051398,1.57970724 12.8051398,1.93705191 L12.8051398,3.21524624 L5.13253776,3.21524624 L5.13253776,1.93705191 L5.13253776,1.93705191 Z" id="形状"></path>
                                                <path d="M13.444237,17.9179172 L4.49687659,17.9179172 C3.43858665,17.9179172 2.57958507,17.0589156 2.57958507,16.0006257 L2.57958507,6.40386007 C2.57958507,6.04995143 2.86477359,5.76476289 3.21868225,5.76476289 C3.57259091,5.76476289 3.85777943,6.04995141 3.85777943,6.40386007 L3.85777943,16.0006257 C3.85777943,16.3545343 4.14640395,16.6397228 4.49687661,16.6397228 L13.447673,16.6397228 C13.8015816,16.6397228 14.0867702,16.3545343 14.0867702,16.0006257 L14.0867702,6.42791212 C14.0867702,6.07400348 14.3719587,5.78881494 14.7258673,5.78881494 C15.079776,5.78881494 15.3649645,6.07400346 15.3649645,6.42791212 L15.3649645,16.0006257 C15.3615285,17.0554796 14.5025269,17.9179172 13.444237,17.9179172 Z" id="路径"></path>
                                            </g>
                                        </g>
                                    </g>
                                </g>
                            </g>
                        </g>
                    </g>
                </g>
            </g>
        </g>
    </g>
</svg>