<?xml version="1.0" encoding="UTF-8"?>
<svg width="20px" height="20px" viewBox="0 0 20 20" version="1.1" xmlns="http://www.w3.org/2000/svg" xmlns:xlink="http://www.w3.org/1999/xlink">
    <!-- Generator: Sketch 63.1 (92452) - https://sketch.com -->
    <title>duplicate_impedance</title>
    <desc>Created with Sketch.</desc>
    <g id="页面-1" stroke="none" stroke-width="1" fill="none" fill-rule="evenodd">
        <g id="阻焊神器" transform="translate(-1190.000000, -453.000000)" fill="#2B8CED" fill-rule="nonzero">
            <g id="编组-8" transform="translate(290.000000, 329.000000)">
                <g id="-mockplus-" transform="translate(0.000000, 114.000000)">
                    <g id="编组-3">
                        <g id="编组">
                            <g transform="translate(690.000000, 0.000000)">
                                <g id="-mockplus-" transform="translate(200.000000, 0.000000)">
                                    <g id="编组备份-2">
                                        <g id="-mockplus-">
                                            <g transform="translate(10.000000, 10.000000)">
                                                <g id="duplicate_impedance">
                                                    <g id="形状">
                                                        <path d="M16.4,14.8 L14.8,14.8 L14.8,16.4 C14.8,17.28 14.08,18 13.2,18 L3.6,18 C2.72,18 2,17.28 2,16.4 L2,6.8 C2,5.92 2.72,5.2 3.6,5.2 L5.2,5.2 L5.2,3.6 C5.2,2.72 5.92,2 6.8,2 L16.4,2 C17.28,2 18,2.72 18,3.6 L18,13.2 C18,14.08 17.28,14.8 16.4,14.8 Z M4.4,6.8 C3.92,6.8 3.6,7.12 3.6,7.6 L3.6,15.6 C3.6,16.08 3.92,16.4 4.4,16.4 L12.4,16.4 C12.88,16.4 13.2,16.08 13.2,15.6 L13.2,7.6 C13.2,7.12 12.88,6.8 12.4,6.8 L4.4,6.8 Z M16.4,4.4 C16.4,3.92 16.08,3.6 15.6,3.6 L7.6,3.6 C7.12,3.6 6.8,3.92 6.8,4.4 L6.8,5.2 L13.2,5.2 C14.08,5.2 14.8,5.92 14.8,6.8 L14.8,13.2 L15.6,13.2 C16.08,13.2 16.4,12.88 16.4,12.4 L16.4,4.4 Z"></path>
                                                    </g>
                                                </g>
                                            </g>
                                        </g>
                                    </g>
                                </g>
                            </g>
                        </g>
                    </g>
                </g>
            </g>
        </g>
    </g>
</svg>