<?xml version="1.0" encoding="UTF-8"?>
<svg width="16px" height="16px" viewBox="0 0 16 16" version="1.1" xmlns="http://www.w3.org/2000/svg" xmlns:xlink="http://www.w3.org/1999/xlink">
    <!-- Generator: Sketch 63.1 (92452) - https://sketch.com -->
    <title>推荐</title>
    <desc>Created with Sketch.</desc>
    <g id="页面-1" stroke="none" stroke-width="1" fill="none" fill-rule="evenodd">
        <g id="阻焊神器计算后" transform="translate(-292.000000, -776.000000)" fill="#FF2E62" fill-rule="nonzero" stroke="#FFFFFF">
            <g id="Stacked-Group" transform="translate(260.000000, 759.000000)">
                <g id="编组-14">
                    <g id="-mockplus-" transform="translate(32.000000, 17.000000)">
                        <g id="推荐">
                            <g transform="translate(1.000000, 1.000000)" id="形状">
                                <path d="M8.36651795,1.66521417 C7.95475181,1.28591887 7.35399014,1.11937187 6.79811746,1.22525096 C6.29143823,1.32176 5.81987999,1.63516418 5.56007025,2.21037016 C5.40997483,2.5428305 5.37366238,2.88598341 5.33768937,3.40909873 C5.29715913,3.93165779 5.05150581,4.43082766 4.67167129,4.84426707 C4.23988513,5.3142544 3.64371583,5.67888487 2.72548876,6.53525014 C2.72626212,8.62758678 2.72725288,10.7275307 3.35226105,13.4985121 C3.96673423,13.4985121 4.58121957,13.4984279 5.19571053,13.4983437 C6.86350209,13.4981151 8.53133502,13.4978865 10.1990783,13.4993419 C10.5666125,13.4995779 10.868202,13.3561524 11.1549248,13.151115 C11.6242877,12.8154316 11.8028679,12.3393425 11.9178635,11.7986336 C12.0830976,11.0216451 12.2550871,10.2460928 12.4270715,9.47053441 C12.581849,8.77256996 12.7366234,8.07460079 12.8865167,7.37559189 C12.9788044,6.94532575 12.8933532,6.49339901 12.6759744,6.1161015 C12.4568676,5.73580483 12.1064251,5.43624671 11.6906736,5.30362799 C11.4810157,5.23686069 11.2524954,5.20058183 10.7179002,5.19572318 C10.1489353,5.19110501 9.5796927,5.18711394 9.00720364,5.14429708 C9.14368493,4.38225476 9.13106508,3.61445337 8.99249592,2.84088658 C8.91008443,2.38070294 8.71381608,1.98515244 8.36651795,1.66521417 Z M1.99348825,5.62608766 C1.93117288,5.62483421 1.86880444,5.62362004 1.80503256,5.62413212 L1.27328347,5.61861432 L1.27255941,5.68839188 C0.867332813,5.79046606 0.336939767,6.04820221 -0.497439969,6.68499061 C-0.50085707,8.63884486 -0.498397579,10.5923387 0.567412381,13.4980003 C0.950851313,13.5008559 1.33441397,13.5000496 1.90954834,13.4988429 C2.31012149,13.4981038 2.57288997,13.378522 2.75182466,13.1984951 C2.92995938,13.0192729 3.04843766,12.7560896 3.04873526,12.3550708 C3.04920526,11.7014011 3.04909959,11.047743 3.04899384,10.394028 C3.04894853,10.1139393 3.04890321,9.83384018 3.04890321,9.55372613 C3.04885288,9.26984094 3.04898375,8.98601456 3.0491146,8.70217176 C3.04946733,7.93699198 3.05073686,7.17150837 2.30558062,5.62932615 L1.99348825,5.62608766 Z M10.9244343,-0.111699383 C10.7432727,0.17689604 10.561965,0.465550057 10.2028336,0.889914953 C9.79798581,0.987725022 9.38199298,1.13366256 8.81586491,2.32222757 C9.03419805,2.57687047 9.24899969,2.83472428 9.54890929,3.33565373 C9.51746207,3.74067028 9.54199629,4.17326992 10.5747215,5.01922343 C10.8699417,4.89968116 11.1721797,4.77655871 11.6799963,4.67344377 C12.0629635,4.81302817 12.4879276,4.92445778 13.6318314,4.22817712 C13.6056846,3.91719149 13.5784282,3.59932761 13.6568615,3.05871114 C13.9144076,2.7319075 14.1523556,2.35766254 13.7853617,1.09758605 C13.486833,1.02468463 13.1731372,0.948787307 12.7036687,0.727783301 C12.4775516,0.393789436 12.2085379,0.0548406467 10.9244343,-0.111699383 Z"></path>
                            </g>
                        </g>
                    </g>
                </g>
            </g>
        </g>
    </g>
</svg>