%TF.GenerationSoftware,KiCad,Pcbnew,7.99.0-2419-g7f14b70ac3*%
%TF.CreationDate,2023-09-02T02:09:12+02:00*%
%TF.ProjectId,DQBSC,44514253-432e-46b6-9963-61645f706362,rev?*%
%TF.SameCoordinates,Original*%
%TF.FileFunction,Paste,Bot*%
%TF.FilePolarity,Positive*%
%FSLAX46Y46*%
G04 Gerber Fmt 4.6, Leading zero omitted, Abs format (unit mm)*
G04 Created by KiCad (PCBNEW 7.99.0-2419-g7f14b70ac3) date 2023-09-02 02:09:12*
%MOMM*%
%LPD*%
G01*
G04 APERTURE LIST*
G04 Aperture macros list*
%AMRoundRect*
0 Rectangle with rounded corners*
0 $1 Rounding radius*
0 $2 $3 $4 $5 $6 $7 $8 $9 X,Y pos of 4 corners*
0 Add a 4 corners polygon primitive as box body*
4,1,4,$2,$3,$4,$5,$6,$7,$8,$9,$2,$3,0*
0 Add four circle primitives for the rounded corners*
1,1,$1+$1,$2,$3*
1,1,$1+$1,$4,$5*
1,1,$1+$1,$6,$7*
1,1,$1+$1,$8,$9*
0 Add four rect primitives between the rounded corners*
20,1,$1+$1,$2,$3,$4,$5,0*
20,1,$1+$1,$4,$5,$6,$7,0*
20,1,$1+$1,$6,$7,$8,$9,0*
20,1,$1+$1,$8,$9,$2,$3,0*%
G04 Aperture macros list end*
%ADD10RoundRect,0.140000X-0.170000X0.140000X-0.170000X-0.140000X0.170000X-0.140000X0.170000X0.140000X0*%
%ADD11RoundRect,0.135000X-0.135000X-0.185000X0.135000X-0.185000X0.135000X0.185000X-0.135000X0.185000X0*%
%ADD12RoundRect,0.079500X0.079500X0.100500X-0.079500X0.100500X-0.079500X-0.100500X0.079500X-0.100500X0*%
%ADD13RoundRect,0.135000X-0.185000X0.135000X-0.185000X-0.135000X0.185000X-0.135000X0.185000X0.135000X0*%
%ADD14RoundRect,0.160000X-0.197500X-0.160000X0.197500X-0.160000X0.197500X0.160000X-0.197500X0.160000X0*%
%ADD15RoundRect,0.140000X0.140000X0.170000X-0.140000X0.170000X-0.140000X-0.170000X0.140000X-0.170000X0*%
%ADD16RoundRect,0.160000X0.197500X0.160000X-0.197500X0.160000X-0.197500X-0.160000X0.197500X-0.160000X0*%
%ADD17RoundRect,0.079500X0.100500X-0.079500X0.100500X0.079500X-0.100500X0.079500X-0.100500X-0.079500X0*%
%ADD18RoundRect,0.135000X0.135000X0.185000X-0.135000X0.185000X-0.135000X-0.185000X0.135000X-0.185000X0*%
%ADD19RoundRect,0.140000X-0.140000X-0.170000X0.140000X-0.170000X0.140000X0.170000X-0.140000X0.170000X0*%
%ADD20R,1.400000X3.300000*%
%ADD21R,0.250000X0.850000*%
%ADD22R,0.450000X1.200000*%
%ADD23R,0.300000X1.200000*%
%ADD24RoundRect,0.079500X-0.100500X0.079500X-0.100500X-0.079500X0.100500X-0.079500X0.100500X0.079500X0*%
%ADD25RoundRect,0.079500X-0.079500X-0.100500X0.079500X-0.100500X0.079500X0.100500X-0.079500X0.100500X0*%
%ADD26R,0.320000X0.360000*%
%ADD27RoundRect,0.135000X0.185000X-0.135000X0.185000X0.135000X-0.185000X0.135000X-0.185000X-0.135000X0*%
%ADD28RoundRect,0.140000X0.170000X-0.140000X0.170000X0.140000X-0.170000X0.140000X-0.170000X-0.140000X0*%
%ADD29RoundRect,0.225000X-0.250000X0.225000X-0.250000X-0.225000X0.250000X-0.225000X0.250000X0.225000X0*%
%ADD30RoundRect,0.250000X0.325000X0.650000X-0.325000X0.650000X-0.325000X-0.650000X0.325000X-0.650000X0*%
%ADD31RoundRect,0.160000X-0.160000X0.197500X-0.160000X-0.197500X0.160000X-0.197500X0.160000X0.197500X0*%
%ADD32RoundRect,0.218750X-0.256250X0.218750X-0.256250X-0.218750X0.256250X-0.218750X0.256250X0.218750X0*%
%ADD33RoundRect,0.160000X0.160000X-0.197500X0.160000X0.197500X-0.160000X0.197500X-0.160000X-0.197500X0*%
%ADD34RoundRect,0.250000X0.650000X-0.325000X0.650000X0.325000X-0.650000X0.325000X-0.650000X-0.325000X0*%
%ADD35RoundRect,0.079500X0.014849X-0.127279X0.127279X-0.014849X-0.014849X0.127279X-0.127279X0.014849X0*%
%ADD36R,0.600000X0.450000*%
%ADD37RoundRect,0.250000X-0.650000X0.325000X-0.650000X-0.325000X0.650000X-0.325000X0.650000X0.325000X0*%
%ADD38RoundRect,0.225000X0.250000X-0.225000X0.250000X0.225000X-0.250000X0.225000X-0.250000X-0.225000X0*%
%ADD39RoundRect,0.079500X-0.127279X-0.014849X-0.014849X-0.127279X0.127279X0.014849X0.014849X0.127279X0*%
%ADD40RoundRect,0.135000X0.035355X-0.226274X0.226274X-0.035355X-0.035355X0.226274X-0.226274X0.035355X0*%
%ADD41R,0.450000X0.600000*%
%ADD42R,0.360000X0.320000*%
%ADD43RoundRect,0.079500X0.127279X0.014849X0.014849X0.127279X-0.127279X-0.014849X-0.014849X-0.127279X0*%
G04 APERTURE END LIST*
D10*
%TO.C,C104*%
X93893000Y-113869200D03*
X93893000Y-114829200D03*
%TD*%
D11*
%TO.C,R17*%
X80159481Y-107961014D03*
X81179481Y-107961014D03*
%TD*%
D12*
%TO.C,C178*%
X97938495Y-112433020D03*
X97248495Y-112433020D03*
%TD*%
D13*
%TO.C,R9*%
X86320000Y-111080400D03*
X86320000Y-112100400D03*
%TD*%
D14*
%TO.C,R20*%
X70816000Y-88226000D03*
X72011000Y-88226000D03*
%TD*%
D15*
%TO.C,C261*%
X125873462Y-88557528D03*
X124913462Y-88557528D03*
%TD*%
D16*
%TO.C,R35*%
X93041000Y-89750000D03*
X91846000Y-89750000D03*
%TD*%
D17*
%TO.C,C347*%
X101258715Y-104968790D03*
X101258715Y-104278790D03*
%TD*%
D18*
%TO.C,R18*%
X79260000Y-114225000D03*
X78240000Y-114225000D03*
%TD*%
D19*
%TO.C,C185*%
X77445000Y-112825000D03*
X78405000Y-112825000D03*
%TD*%
D12*
%TO.C,C172*%
X99936205Y-115569920D03*
X99246205Y-115569920D03*
%TD*%
D10*
%TO.C,C266*%
X129643462Y-89627528D03*
X129643462Y-90587528D03*
%TD*%
D13*
%TO.C,R62*%
X84352481Y-97545014D03*
X84352481Y-98565014D03*
%TD*%
D17*
%TO.C,C131*%
X92068000Y-112644200D03*
X92068000Y-111954200D03*
%TD*%
%TO.C,C175*%
X99921405Y-107519585D03*
X99921405Y-106829585D03*
%TD*%
D20*
%TO.C,J1*%
X133615481Y-126545014D03*
D21*
X132790481Y-125320014D03*
X132790481Y-127770014D03*
D20*
X72215481Y-126545014D03*
D21*
X73040481Y-125320014D03*
X73040481Y-127770014D03*
D22*
X75590481Y-123845014D03*
D23*
X76165481Y-123845014D03*
X76665481Y-123845014D03*
X77165481Y-123845014D03*
X77665481Y-123845014D03*
X78165481Y-123845014D03*
X78665481Y-123845014D03*
X79165481Y-123845014D03*
X79665481Y-123845014D03*
X80165481Y-123845014D03*
X80665481Y-123845014D03*
X81165481Y-123845014D03*
X81665481Y-123845014D03*
X82165481Y-123845014D03*
X82665481Y-123845014D03*
X83165481Y-123845014D03*
X83665481Y-123845014D03*
X84165481Y-123845014D03*
X84665481Y-123845014D03*
X85165481Y-123845014D03*
X85665481Y-123845014D03*
X86165481Y-123845014D03*
X86665481Y-123845014D03*
X87165481Y-123845014D03*
X87665481Y-123845014D03*
X88165481Y-123845014D03*
X88665481Y-123845014D03*
X89165481Y-123845014D03*
X89665481Y-123845014D03*
X90165481Y-123845014D03*
X90665481Y-123845014D03*
X91165481Y-123845014D03*
X91665481Y-123845014D03*
X92165481Y-123845014D03*
X92665481Y-123845014D03*
X93165481Y-123845014D03*
X93665481Y-123845014D03*
X94165481Y-123845014D03*
X94665481Y-123845014D03*
X95165481Y-123845014D03*
X95665481Y-123845014D03*
X96165481Y-123845014D03*
X96665481Y-123845014D03*
X97165481Y-123845014D03*
X97665481Y-123845014D03*
X98165481Y-123845014D03*
X98665481Y-123845014D03*
X99165481Y-123845014D03*
X99665481Y-123845014D03*
X100165481Y-123845014D03*
X100665481Y-123845014D03*
X101165481Y-123845014D03*
X101665481Y-123845014D03*
X102165481Y-123845014D03*
X102665481Y-123845014D03*
X103165481Y-123845014D03*
X103665481Y-123845014D03*
X104165481Y-123845014D03*
X104665481Y-123845014D03*
X105165481Y-123845014D03*
X105665481Y-123845014D03*
X106165481Y-123845014D03*
X106665481Y-123845014D03*
X107165481Y-123845014D03*
X107665481Y-123845014D03*
X108165481Y-123845014D03*
X108665481Y-123845014D03*
X109165481Y-123845014D03*
X109665481Y-123845014D03*
X110165481Y-123845014D03*
X110665481Y-123845014D03*
X111165481Y-123845014D03*
X111665481Y-123845014D03*
X112165481Y-123845014D03*
X112665481Y-123845014D03*
X113165481Y-123845014D03*
X113665481Y-123845014D03*
X114165481Y-123845014D03*
X114665481Y-123845014D03*
X115165481Y-123845014D03*
X115665481Y-123845014D03*
X116165481Y-123845014D03*
X116665481Y-123845014D03*
X117165481Y-123845014D03*
X117665481Y-123845014D03*
X118165481Y-123845014D03*
X118665481Y-123845014D03*
X119165481Y-123845014D03*
X119665481Y-123845014D03*
X120165481Y-123845014D03*
X120665481Y-123845014D03*
X121165481Y-123845014D03*
X121665481Y-123845014D03*
X122165481Y-123845014D03*
X122665481Y-123845014D03*
X123165481Y-123845014D03*
X123665481Y-123845014D03*
X124165481Y-123845014D03*
X124665481Y-123845014D03*
X125165481Y-123845014D03*
X125665481Y-123845014D03*
X126165481Y-123845014D03*
X126665481Y-123845014D03*
X127165481Y-123845014D03*
X127665481Y-123845014D03*
X128165481Y-123845014D03*
X128665481Y-123845014D03*
X129165481Y-123845014D03*
X129665481Y-123845014D03*
D22*
X130240481Y-123845014D03*
X75590481Y-129245014D03*
D23*
X76165481Y-129245014D03*
X76665481Y-129245014D03*
X77165481Y-129245014D03*
X77665481Y-129245014D03*
X78165481Y-129245014D03*
X78665481Y-129245014D03*
X79165481Y-129245014D03*
X79665481Y-129245014D03*
X80165481Y-129245014D03*
X80665481Y-129245014D03*
X81165481Y-129245014D03*
X81665481Y-129245014D03*
X82165481Y-129245014D03*
X82665481Y-129245014D03*
X83165481Y-129245014D03*
X83665481Y-129245014D03*
X84165481Y-129245014D03*
X84665481Y-129245014D03*
X85165481Y-129245014D03*
X85665481Y-129245014D03*
X86165481Y-129245014D03*
X86665481Y-129245014D03*
X87165481Y-129245014D03*
X87665481Y-129245014D03*
X88165481Y-129245014D03*
X88665481Y-129245014D03*
X89165481Y-129245014D03*
X89665481Y-129245014D03*
X90165481Y-129245014D03*
X90665481Y-129245014D03*
X91165481Y-129245014D03*
X91665481Y-129245014D03*
X92165481Y-129245014D03*
X92665481Y-129245014D03*
X93165481Y-129245014D03*
X93665481Y-129245014D03*
X94165481Y-129245014D03*
X94665481Y-129245014D03*
X95165481Y-129245014D03*
X95665481Y-129245014D03*
X96165481Y-129245014D03*
X96665481Y-129245014D03*
X97165481Y-129245014D03*
X97665481Y-129245014D03*
X98165481Y-129245014D03*
X98665481Y-129245014D03*
X99165481Y-129245014D03*
X99665481Y-129245014D03*
X100165481Y-129245014D03*
X100665481Y-129245014D03*
X101165481Y-129245014D03*
X101665481Y-129245014D03*
X102165481Y-129245014D03*
X102665481Y-129245014D03*
X103165481Y-129245014D03*
X103665481Y-129245014D03*
X104165481Y-129245014D03*
X104665481Y-129245014D03*
X105165481Y-129245014D03*
X105665481Y-129245014D03*
X106165481Y-129245014D03*
X106665481Y-129245014D03*
X107165481Y-129245014D03*
X107665481Y-129245014D03*
X108165481Y-129245014D03*
X108665481Y-129245014D03*
X109165481Y-129245014D03*
X109665481Y-129245014D03*
X110165481Y-129245014D03*
X110665481Y-129245014D03*
X111165481Y-129245014D03*
X111665481Y-129245014D03*
X112165481Y-129245014D03*
X112665481Y-129245014D03*
X113165481Y-129245014D03*
X113665481Y-129245014D03*
X114165481Y-129245014D03*
X114665481Y-129245014D03*
X115165481Y-129245014D03*
X115665481Y-129245014D03*
X116165481Y-129245014D03*
X116665481Y-129245014D03*
X117165481Y-129245014D03*
X117665481Y-129245014D03*
X118165481Y-129245014D03*
X118665481Y-129245014D03*
X119165481Y-129245014D03*
X119665481Y-129245014D03*
X120165481Y-129245014D03*
X120665481Y-129245014D03*
X121165481Y-129245014D03*
X121665481Y-129245014D03*
X122165481Y-129245014D03*
X122665481Y-129245014D03*
X123165481Y-129245014D03*
X123665481Y-129245014D03*
X124165481Y-129245014D03*
X124665481Y-129245014D03*
X125165481Y-129245014D03*
X125665481Y-129245014D03*
X126165481Y-129245014D03*
X126665481Y-129245014D03*
X127165481Y-129245014D03*
X127665481Y-129245014D03*
X128165481Y-129245014D03*
X128665481Y-129245014D03*
X129165481Y-129245014D03*
X129665481Y-129245014D03*
D22*
X130240481Y-129245014D03*
%TD*%
D17*
%TO.C,C206*%
X101167910Y-108163475D03*
X101167910Y-107473475D03*
%TD*%
D13*
%TO.C,R3*%
X86920000Y-102845400D03*
X86920000Y-103865400D03*
%TD*%
D15*
%TO.C,C310*%
X68395481Y-115645014D03*
X67435481Y-115645014D03*
%TD*%
D24*
%TO.C,C169*%
X93068000Y-114079200D03*
X93068000Y-114769200D03*
%TD*%
D25*
%TO.C,C246*%
X95830921Y-110113683D03*
X96520921Y-110113683D03*
%TD*%
D12*
%TO.C,C366*%
X91560481Y-107545014D03*
X90870481Y-107545014D03*
%TD*%
D26*
%TO.C,C357*%
X68015481Y-106245014D03*
X68015481Y-106805014D03*
%TD*%
D12*
%TO.C,C173*%
X100720430Y-108982430D03*
X100030430Y-108982430D03*
%TD*%
D27*
%TO.C,R47*%
X66043462Y-120180028D03*
X66043462Y-119160028D03*
%TD*%
%TO.C,R76*%
X60565481Y-105653614D03*
X60565481Y-104633614D03*
%TD*%
D28*
%TO.C,C268*%
X129793462Y-85350028D03*
X129793462Y-84390028D03*
%TD*%
D25*
%TO.C,C352*%
X90150481Y-105045014D03*
X90840481Y-105045014D03*
%TD*%
%TO.C,C207*%
X101260425Y-117212665D03*
X101950425Y-117212665D03*
%TD*%
D19*
%TO.C,C339*%
X61010481Y-114920014D03*
X61970481Y-114920014D03*
%TD*%
D12*
%TO.C,C201*%
X101851365Y-114026235D03*
X101161365Y-114026235D03*
%TD*%
D29*
%TO.C,C302*%
X108637513Y-111151881D03*
X108637513Y-112701881D03*
%TD*%
D25*
%TO.C,C362*%
X89470481Y-108295014D03*
X90160481Y-108295014D03*
%TD*%
D17*
%TO.C,C348*%
X100557040Y-104968790D03*
X100557040Y-104278790D03*
%TD*%
%TO.C,C181*%
X94191800Y-112387632D03*
X94191800Y-111697632D03*
%TD*%
%TO.C,C296*%
X111883000Y-105049200D03*
X111883000Y-104359200D03*
%TD*%
%TO.C,C297*%
X114373000Y-118059200D03*
X114373000Y-117369200D03*
%TD*%
%TO.C,C249*%
X94903000Y-112390109D03*
X94903000Y-111700109D03*
%TD*%
D24*
%TO.C,C367*%
X96015481Y-118675014D03*
X96015481Y-119365014D03*
%TD*%
D17*
%TO.C,C338*%
X91190481Y-112370014D03*
X91190481Y-111680014D03*
%TD*%
D18*
%TO.C,R83*%
X78005000Y-110830400D03*
X76985000Y-110830400D03*
%TD*%
D12*
%TO.C,C91*%
X96514301Y-112193369D03*
X95824301Y-112193369D03*
%TD*%
D28*
%TO.C,C84*%
X94812400Y-109327600D03*
X94812400Y-108367600D03*
%TD*%
D30*
%TO.C,C11*%
X88720000Y-86455400D03*
X85770000Y-86455400D03*
%TD*%
D15*
%TO.C,C110*%
X102547705Y-106274790D03*
X101587705Y-106274790D03*
%TD*%
D30*
%TO.C,C76*%
X88720000Y-89055400D03*
X85770000Y-89055400D03*
%TD*%
D12*
%TO.C,C174*%
X99944460Y-114868245D03*
X99254460Y-114868245D03*
%TD*%
D24*
%TO.C,C365*%
X88115481Y-112275014D03*
X88115481Y-112965014D03*
%TD*%
D12*
%TO.C,C89*%
X90787030Y-109295290D03*
X90097030Y-109295290D03*
%TD*%
D25*
%TO.C,C114*%
X95675481Y-107970014D03*
X96365481Y-107970014D03*
%TD*%
D19*
%TO.C,C245*%
X78720000Y-109025000D03*
X79680000Y-109025000D03*
%TD*%
D17*
%TO.C,C203*%
X101952135Y-104977045D03*
X101952135Y-104287045D03*
%TD*%
D12*
%TO.C,C176*%
X99919695Y-108255990D03*
X99229695Y-108255990D03*
%TD*%
%TO.C,C170*%
X97888965Y-110047325D03*
X97198965Y-110047325D03*
%TD*%
D10*
%TO.C,C189*%
X76700000Y-108845000D03*
X76700000Y-109805000D03*
%TD*%
D12*
%TO.C,C132*%
X92063000Y-113374200D03*
X91373000Y-113374200D03*
%TD*%
D24*
%TO.C,C200*%
X101250460Y-117932560D03*
X101250460Y-118622560D03*
%TD*%
D12*
%TO.C,C346*%
X100720430Y-109684105D03*
X100030430Y-109684105D03*
%TD*%
D10*
%TO.C,C263*%
X126793462Y-89627528D03*
X126793462Y-90587528D03*
%TD*%
D28*
%TO.C,C97*%
X95894089Y-113851184D03*
X95894089Y-112891184D03*
%TD*%
D24*
%TO.C,C248*%
X92769400Y-111699400D03*
X92769400Y-112389400D03*
%TD*%
D15*
%TO.C,C262*%
X125873462Y-89507528D03*
X124913462Y-89507528D03*
%TD*%
D17*
%TO.C,C337*%
X90390481Y-112340014D03*
X90390481Y-111650014D03*
%TD*%
D31*
%TO.C,C354*%
X69525481Y-107012514D03*
X69525481Y-108207514D03*
%TD*%
D11*
%TO.C,R16*%
X79440000Y-112525000D03*
X80460000Y-112525000D03*
%TD*%
D24*
%TO.C,C94*%
X91535800Y-108979800D03*
X91535800Y-109669800D03*
%TD*%
D32*
%TO.C,FB4*%
X70095481Y-112887514D03*
X70095481Y-114462514D03*
%TD*%
D33*
%TO.C,R21*%
X68395000Y-93605400D03*
X68395000Y-92410400D03*
%TD*%
D19*
%TO.C,C188*%
X79450000Y-111425000D03*
X80410000Y-111425000D03*
%TD*%
D30*
%TO.C,C72*%
X66620000Y-86455400D03*
X63670000Y-86455400D03*
%TD*%
D28*
%TO.C,C258*%
X127493462Y-85350028D03*
X127493462Y-84390028D03*
%TD*%
D26*
%TO.C,C358*%
X70290481Y-103690014D03*
X70290481Y-104250014D03*
%TD*%
D15*
%TO.C,C332*%
X68445481Y-113445014D03*
X67485481Y-113445014D03*
%TD*%
D34*
%TO.C,C55*%
X125893462Y-113345028D03*
X125893462Y-110395028D03*
%TD*%
D25*
%TO.C,C215*%
X97109000Y-107369000D03*
X97799000Y-107369000D03*
%TD*%
D24*
%TO.C,C124*%
X91265481Y-115525014D03*
X91265481Y-116215014D03*
%TD*%
D10*
%TO.C,C329*%
X70065481Y-119160014D03*
X70065481Y-120120014D03*
%TD*%
D19*
%TO.C,C269*%
X129913462Y-88707528D03*
X130873462Y-88707528D03*
%TD*%
D14*
%TO.C,R33*%
X92951500Y-88569500D03*
X94146500Y-88569500D03*
%TD*%
D17*
%TO.C,C298*%
X109383000Y-118049200D03*
X109383000Y-117359200D03*
%TD*%
D19*
%TO.C,C334*%
X61010481Y-118445014D03*
X61970481Y-118445014D03*
%TD*%
D15*
%TO.C,C86*%
X92273683Y-110847139D03*
X91313683Y-110847139D03*
%TD*%
D24*
%TO.C,C364*%
X89515481Y-112250014D03*
X89515481Y-112940014D03*
%TD*%
D14*
%TO.C,C59*%
X70816000Y-87226000D03*
X72011000Y-87226000D03*
%TD*%
D25*
%TO.C,C305*%
X110348000Y-114094200D03*
X111038000Y-114094200D03*
%TD*%
D19*
%TO.C,C139*%
X92260481Y-104245014D03*
X93220481Y-104245014D03*
%TD*%
D15*
%TO.C,C326*%
X68445481Y-114545014D03*
X67485481Y-114545014D03*
%TD*%
D35*
%TO.C,C134*%
X94321529Y-107313966D03*
X94809433Y-106826062D03*
%TD*%
D24*
%TO.C,C257*%
X95684181Y-110815157D03*
X95684181Y-111505157D03*
%TD*%
D17*
%TO.C,C100*%
X94953800Y-113811800D03*
X94953800Y-113121800D03*
%TD*%
D12*
%TO.C,C179*%
X99317080Y-111698325D03*
X98627080Y-111698325D03*
%TD*%
D28*
%TO.C,C343*%
X64015481Y-120130028D03*
X64015481Y-119170028D03*
%TD*%
D10*
%TO.C,C331*%
X65590481Y-112515014D03*
X65590481Y-113475014D03*
%TD*%
D25*
%TO.C,C320*%
X98610570Y-110063835D03*
X99300570Y-110063835D03*
%TD*%
D19*
%TO.C,C105*%
X98326980Y-110881080D03*
X99286980Y-110881080D03*
%TD*%
D17*
%TO.C,C209*%
X102662065Y-104977045D03*
X102662065Y-104287045D03*
%TD*%
D13*
%TO.C,R8*%
X67964600Y-103023600D03*
X67964600Y-104043600D03*
%TD*%
D15*
%TO.C,C183*%
X76530000Y-111875000D03*
X75570000Y-111875000D03*
%TD*%
D28*
%TO.C,C271*%
X126368462Y-85380028D03*
X126368462Y-84420028D03*
%TD*%
D17*
%TO.C,C133*%
X89515481Y-118090014D03*
X89515481Y-117400014D03*
%TD*%
D12*
%TO.C,C247*%
X97410175Y-113208990D03*
X96720175Y-113208990D03*
%TD*%
D28*
%TO.C,C324*%
X67465481Y-120375014D03*
X67465481Y-119415014D03*
%TD*%
D12*
%TO.C,C115*%
X97985481Y-104320014D03*
X97295481Y-104320014D03*
%TD*%
D10*
%TO.C,C333*%
X62165481Y-112715014D03*
X62165481Y-113675014D03*
%TD*%
D12*
%TO.C,C211*%
X101859620Y-114744420D03*
X101169620Y-114744420D03*
%TD*%
D25*
%TO.C,C369*%
X88720481Y-107570014D03*
X89410481Y-107570014D03*
%TD*%
D18*
%TO.C,R59*%
X103528281Y-112136614D03*
X102508281Y-112136614D03*
%TD*%
D13*
%TO.C,R7*%
X106344000Y-92762000D03*
X106344000Y-93782000D03*
%TD*%
D10*
%TO.C,C7*%
X94826800Y-114764800D03*
X94826800Y-115724800D03*
%TD*%
D17*
%TO.C,C306*%
X115673000Y-114719200D03*
X115673000Y-114029200D03*
%TD*%
D36*
%TO.C,D1*%
X63829281Y-99803614D03*
X65929281Y-99803614D03*
%TD*%
D19*
%TO.C,C111*%
X100151335Y-110917414D03*
X101111335Y-110917414D03*
%TD*%
D27*
%TO.C,R10*%
X86320000Y-113950400D03*
X86320000Y-112930400D03*
%TD*%
D37*
%TO.C,C56*%
X124878462Y-105795028D03*
X124878462Y-108745028D03*
%TD*%
D25*
%TO.C,C315*%
X103240481Y-110995014D03*
X103930481Y-110995014D03*
%TD*%
D24*
%TO.C,C351*%
X88690481Y-110850014D03*
X88690481Y-111540014D03*
%TD*%
D17*
%TO.C,C95*%
X93999600Y-110025400D03*
X93999600Y-109335400D03*
%TD*%
D15*
%TO.C,C325*%
X68395481Y-117545014D03*
X67435481Y-117545014D03*
%TD*%
D13*
%TO.C,R74*%
X61779281Y-99313614D03*
X61779281Y-100333614D03*
%TD*%
D25*
%TO.C,C190*%
X98635335Y-112424765D03*
X99325335Y-112424765D03*
%TD*%
D19*
%TO.C,C186*%
X76370000Y-114225000D03*
X77330000Y-114225000D03*
%TD*%
D11*
%TO.C,R63*%
X113032863Y-110064729D03*
X114052863Y-110064729D03*
%TD*%
D12*
%TO.C,C250*%
X96509573Y-108666740D03*
X95819573Y-108666740D03*
%TD*%
D24*
%TO.C,C93*%
X93741052Y-107975546D03*
X93741052Y-108665546D03*
%TD*%
D11*
%TO.C,R15*%
X76307230Y-104502528D03*
X77327230Y-104502528D03*
%TD*%
D15*
%TO.C,C311*%
X68395481Y-116595014D03*
X67435481Y-116595014D03*
%TD*%
D19*
%TO.C,C85*%
X93167867Y-110864632D03*
X94127867Y-110864632D03*
%TD*%
D24*
%TO.C,C208*%
X101423853Y-108993744D03*
X101423853Y-109683744D03*
%TD*%
D25*
%TO.C,C323*%
X101012775Y-112821005D03*
X101702775Y-112821005D03*
%TD*%
D27*
%TO.C,R79*%
X64921481Y-105643614D03*
X64921481Y-104623614D03*
%TD*%
D12*
%TO.C,C218*%
X117398000Y-114154200D03*
X116708000Y-114154200D03*
%TD*%
D34*
%TO.C,C48*%
X123593462Y-113345028D03*
X123593462Y-110395028D03*
%TD*%
D25*
%TO.C,C304*%
X109518000Y-109614200D03*
X110208000Y-109614200D03*
%TD*%
D33*
%TO.C,C60*%
X69813500Y-88423500D03*
X69813500Y-87228500D03*
%TD*%
D18*
%TO.C,R60*%
X118209481Y-113051014D03*
X117189481Y-113051014D03*
%TD*%
D17*
%TO.C,C359*%
X90165481Y-107565014D03*
X90165481Y-106875014D03*
%TD*%
D27*
%TO.C,R78*%
X63905481Y-105643614D03*
X63905481Y-104623614D03*
%TD*%
D10*
%TO.C,C265*%
X128693462Y-89627528D03*
X128693462Y-90587528D03*
%TD*%
D38*
%TO.C,C301*%
X113989400Y-105553200D03*
X113989400Y-104003200D03*
%TD*%
D19*
%TO.C,C243*%
X75945000Y-107925000D03*
X76905000Y-107925000D03*
%TD*%
D12*
%TO.C,C217*%
X117328000Y-107624200D03*
X116638000Y-107624200D03*
%TD*%
%TO.C,C90*%
X90783583Y-110002538D03*
X90093583Y-110002538D03*
%TD*%
D19*
%TO.C,C109*%
X101744550Y-116023945D03*
X102704550Y-116023945D03*
%TD*%
D17*
%TO.C,C254*%
X94951837Y-110952400D03*
X94951837Y-110262400D03*
%TD*%
D13*
%TO.C,R75*%
X62779281Y-99313614D03*
X62779281Y-100333614D03*
%TD*%
D29*
%TO.C,C292*%
X117371902Y-110152112D03*
X117371902Y-111702112D03*
%TD*%
D39*
%TO.C,C123*%
X98671529Y-116701062D03*
X99159433Y-117188966D03*
%TD*%
D24*
%TO.C,C350*%
X88815481Y-112250014D03*
X88815481Y-112940014D03*
%TD*%
%TO.C,C252*%
X93480600Y-111700742D03*
X93480600Y-112390742D03*
%TD*%
D27*
%TO.C,R77*%
X62929281Y-105643614D03*
X62929281Y-104623614D03*
%TD*%
D25*
%TO.C,C363*%
X90870481Y-108270014D03*
X91560481Y-108270014D03*
%TD*%
D15*
%TO.C,C260*%
X125873462Y-87207528D03*
X124913462Y-87207528D03*
%TD*%
D24*
%TO.C,C336*%
X101869585Y-107093745D03*
X101869585Y-107783745D03*
%TD*%
D40*
%TO.C,R41*%
X88720000Y-106580400D03*
X89441248Y-105859152D03*
%TD*%
D25*
%TO.C,C210*%
X100046940Y-112127585D03*
X100736940Y-112127585D03*
%TD*%
D19*
%TO.C,C340*%
X61010481Y-117435014D03*
X61970481Y-117435014D03*
%TD*%
D24*
%TO.C,C293*%
X107813000Y-114049200D03*
X107813000Y-114739200D03*
%TD*%
D19*
%TO.C,C102*%
X96124800Y-114787600D03*
X97084800Y-114787600D03*
%TD*%
D24*
%TO.C,C202*%
X100548785Y-117932560D03*
X100548785Y-118622560D03*
%TD*%
D17*
%TO.C,C307*%
X111933000Y-108729200D03*
X111933000Y-108039200D03*
%TD*%
D24*
%TO.C,C121*%
X96590481Y-116250014D03*
X96590481Y-116940014D03*
%TD*%
D19*
%TO.C,C259*%
X129913462Y-86807528D03*
X130873462Y-86807528D03*
%TD*%
D33*
%TO.C,R22*%
X68395000Y-91277900D03*
X68395000Y-90082900D03*
%TD*%
D24*
%TO.C,C128*%
X92368000Y-114079200D03*
X92368000Y-114769200D03*
%TD*%
D25*
%TO.C,C251*%
X95803870Y-109378670D03*
X96493870Y-109378670D03*
%TD*%
%TO.C,C300*%
X114938000Y-110124200D03*
X115628000Y-110124200D03*
%TD*%
D12*
%TO.C,C345*%
X100299425Y-113225500D03*
X99609425Y-113225500D03*
%TD*%
D28*
%TO.C,C112*%
X102408681Y-111245014D03*
X102408681Y-110285014D03*
%TD*%
D19*
%TO.C,C122*%
X94210481Y-118020014D03*
X95170481Y-118020014D03*
%TD*%
D13*
%TO.C,R80*%
X60779281Y-99313614D03*
X60779281Y-100333614D03*
%TD*%
D19*
%TO.C,C335*%
X61010481Y-119370014D03*
X61970481Y-119370014D03*
%TD*%
D41*
%TO.C,D2*%
X66445481Y-101814214D03*
X66445481Y-103914214D03*
%TD*%
D25*
%TO.C,C303*%
X107808000Y-109514200D03*
X108498000Y-109514200D03*
%TD*%
D27*
%TO.C,R61*%
X79526481Y-99835014D03*
X79526481Y-98815014D03*
%TD*%
D25*
%TO.C,C167*%
X110208000Y-108194200D03*
X110898000Y-108194200D03*
%TD*%
%TO.C,C177*%
X97248495Y-111706580D03*
X97938495Y-111706580D03*
%TD*%
%TO.C,C214*%
X95370481Y-104320014D03*
X96060481Y-104320014D03*
%TD*%
%TO.C,C294*%
X107118000Y-107384200D03*
X107808000Y-107384200D03*
%TD*%
D10*
%TO.C,C344*%
X66565481Y-112515014D03*
X66565481Y-113475014D03*
%TD*%
D25*
%TO.C,C204*%
X103221481Y-110295014D03*
X103911481Y-110295014D03*
%TD*%
D24*
%TO.C,C116*%
X99270000Y-103665400D03*
X99270000Y-104355400D03*
%TD*%
D10*
%TO.C,C264*%
X127743462Y-89627528D03*
X127743462Y-90587528D03*
%TD*%
D15*
%TO.C,C83*%
X90426706Y-110837857D03*
X89466706Y-110837857D03*
%TD*%
D18*
%TO.C,R19*%
X81179481Y-106945014D03*
X80159481Y-106945014D03*
%TD*%
D17*
%TO.C,C130*%
X91468000Y-114794200D03*
X91468000Y-114104200D03*
%TD*%
D27*
%TO.C,R48*%
X65043462Y-120180028D03*
X65043462Y-119160028D03*
%TD*%
D33*
%TO.C,C64*%
X91898000Y-88532000D03*
X91898000Y-87337000D03*
%TD*%
D25*
%TO.C,C101*%
X96934805Y-113968450D03*
X97624805Y-113968450D03*
%TD*%
D24*
%TO.C,C360*%
X98015481Y-117300014D03*
X98015481Y-117990014D03*
%TD*%
D15*
%TO.C,C106*%
X97446115Y-110914100D03*
X96486115Y-110914100D03*
%TD*%
D12*
%TO.C,C199*%
X99284060Y-109329140D03*
X98594060Y-109329140D03*
%TD*%
%TO.C,C361*%
X91435481Y-104295014D03*
X90745481Y-104295014D03*
%TD*%
D19*
%TO.C,C341*%
X61010481Y-116515014D03*
X61970481Y-116515014D03*
%TD*%
D28*
%TO.C,C330*%
X71315481Y-114425014D03*
X71315481Y-113465014D03*
%TD*%
D16*
%TO.C,C63*%
X94146500Y-87299500D03*
X92951500Y-87299500D03*
%TD*%
D33*
%TO.C,R34*%
X93041000Y-92723000D03*
X93041000Y-91528000D03*
%TD*%
D25*
%TO.C,C118*%
X97210600Y-108054800D03*
X97900600Y-108054800D03*
%TD*%
D19*
%TO.C,C267*%
X129913462Y-87807528D03*
X130873462Y-87807528D03*
%TD*%
D25*
%TO.C,C171*%
X97165945Y-109329140D03*
X97855945Y-109329140D03*
%TD*%
D15*
%TO.C,C108*%
X99856575Y-114042745D03*
X98896575Y-114042745D03*
%TD*%
D25*
%TO.C,C166*%
X114808000Y-107934200D03*
X115498000Y-107934200D03*
%TD*%
D17*
%TO.C,C213*%
X94015481Y-104365014D03*
X94015481Y-103675014D03*
%TD*%
D42*
%TO.C,C50*%
X126873462Y-109270028D03*
X126313462Y-109270028D03*
%TD*%
D24*
%TO.C,C87*%
X93288400Y-109353119D03*
X93288400Y-110043119D03*
%TD*%
D43*
%TO.C,C212*%
X88759433Y-114663966D03*
X88271529Y-114176062D03*
%TD*%
D15*
%TO.C,C274*%
X68395481Y-118495014D03*
X67435481Y-118495014D03*
%TD*%
D32*
%TO.C,FB2*%
X70243462Y-115882528D03*
X70243462Y-117457528D03*
%TD*%
D19*
%TO.C,C244*%
X75920000Y-106975000D03*
X76880000Y-106975000D03*
%TD*%
D12*
%TO.C,C319*%
X98826891Y-113213067D03*
X98136891Y-113213067D03*
%TD*%
D13*
%TO.C,R73*%
X59779281Y-99313614D03*
X59779281Y-100333614D03*
%TD*%
D28*
%TO.C,C182*%
X78600000Y-107705000D03*
X78600000Y-106745000D03*
%TD*%
D11*
%TO.C,R4*%
X104850000Y-120103000D03*
X105870000Y-120103000D03*
%TD*%
D35*
%TO.C,C117*%
X98657848Y-107536752D03*
X99145752Y-107048848D03*
%TD*%
D15*
%TO.C,C120*%
X90425481Y-116545014D03*
X89465481Y-116545014D03*
%TD*%
D17*
%TO.C,C205*%
X101968645Y-118622560D03*
X101968645Y-117932560D03*
%TD*%
D10*
%TO.C,C342*%
X64015481Y-112540014D03*
X64015481Y-113500014D03*
%TD*%
D24*
%TO.C,C96*%
X92323200Y-108090800D03*
X92323200Y-108780800D03*
%TD*%
D17*
%TO.C,C349*%
X97290481Y-117990014D03*
X97290481Y-117300014D03*
%TD*%
D30*
%TO.C,C79*%
X66445000Y-89055400D03*
X63495000Y-89055400D03*
%TD*%
D24*
%TO.C,C92*%
X93085200Y-107963800D03*
X93085200Y-108653800D03*
%TD*%
D15*
%TO.C,C184*%
X76530000Y-112825000D03*
X75570000Y-112825000D03*
%TD*%
D40*
%TO.C,R64*%
X113746386Y-112039795D03*
X114467634Y-111318547D03*
%TD*%
D24*
%TO.C,C299*%
X115803000Y-103659200D03*
X115803000Y-104349200D03*
%TD*%
D28*
%TO.C,C187*%
X80650000Y-109905000D03*
X80650000Y-108945000D03*
%TD*%
M02*
