%TF.GenerationSoftware,KiCad,Pcbnew,7.99.0-2419-g7f14b70ac3*%
%TF.CreationDate,2023-09-02T02:09:11+02:00*%
%TF.ProjectId,DQBSC,44514253-432e-46b6-9963-61645f706362,rev?*%
%TF.SameCoordinates,Original*%
%TF.FileFunction,Copper,L3,Inr*%
%TF.FilePolarity,Positive*%
%FSLAX46Y46*%
G04 Gerber Fmt 4.6, Leading zero omitted, Abs format (unit mm)*
G04 Created by KiCad (PCBNEW 7.99.0-2419-g7f14b70ac3) date 2023-09-02 02:09:11*
%MOMM*%
%LPD*%
G01*
G04 APERTURE LIST*
%TA.AperFunction,ComponentPad*%
%ADD10R,0.850000X0.850000*%
%TD*%
%TA.AperFunction,ComponentPad*%
%ADD11O,0.850000X0.850000*%
%TD*%
%TA.AperFunction,ComponentPad*%
%ADD12C,0.500000*%
%TD*%
%TA.AperFunction,ComponentPad*%
%ADD13C,3.100000*%
%TD*%
%TA.AperFunction,ViaPad*%
%ADD14C,0.300000*%
%TD*%
%TA.AperFunction,ViaPad*%
%ADD15C,0.800000*%
%TD*%
%TA.AperFunction,ViaPad*%
%ADD16C,0.360000*%
%TD*%
%TA.AperFunction,Conductor*%
%ADD17C,0.110000*%
%TD*%
%TA.AperFunction,Conductor*%
%ADD18C,0.100000*%
%TD*%
%TA.AperFunction,Conductor*%
%ADD19C,0.500000*%
%TD*%
G04 APERTURE END LIST*
D10*
%TO.N,Net-(J2-Pin_1)*%
%TO.C,J2*%
X60309281Y-102983614D03*
D11*
%TO.N,JTAG_TMS*%
X60309281Y-101983614D03*
%TO.N,GND*%
X61309281Y-102983614D03*
%TO.N,JTAG_TCK*%
X61309281Y-101983614D03*
%TO.N,GND*%
X62309281Y-102983614D03*
%TO.N,JTAG_TDO*%
X62309281Y-101983614D03*
%TO.N,Net-(J2-Pin_7)*%
X63309281Y-102983614D03*
%TO.N,JTAG_TDI*%
X63309281Y-101983614D03*
%TO.N,Net-(J2-Pin_9)*%
X64309281Y-102983614D03*
%TO.N,Net-(D2-K)*%
X64309281Y-101983614D03*
%TD*%
D12*
%TO.N,GND*%
%TO.C,U9*%
X67245000Y-86845000D03*
X67245000Y-87845000D03*
X67245000Y-88845000D03*
X68545000Y-86845000D03*
X68545000Y-87845000D03*
X68545000Y-88845000D03*
%TD*%
D13*
%TO.N,Net-(C4-Pad1)*%
%TO.C,H3*%
X61565481Y-81545014D03*
%TD*%
%TO.N,Net-(C3-Pad1)*%
%TO.C,H1*%
X137565481Y-81545014D03*
%TD*%
%TO.N,Net-(C5-Pad1)*%
%TO.C,H2*%
X61565481Y-128545014D03*
%TD*%
D12*
%TO.N,GND*%
%TO.C,U8*%
X125893462Y-85120028D03*
X125893462Y-86295028D03*
X125893462Y-87470028D03*
X125893462Y-88645028D03*
X125893462Y-89820028D03*
X126893462Y-85120028D03*
X126893462Y-86295028D03*
X126893462Y-87470028D03*
X126893462Y-88645028D03*
X126893462Y-89820028D03*
X127893462Y-85120028D03*
X127893462Y-86295028D03*
X127893462Y-87470028D03*
X127893462Y-88645028D03*
X127893462Y-89820028D03*
X128893462Y-85120028D03*
X128893462Y-86295028D03*
X128893462Y-87470028D03*
X128893462Y-88645028D03*
X128893462Y-89820028D03*
X129893462Y-85120028D03*
X129893462Y-86295028D03*
X129893462Y-87470028D03*
X129893462Y-88645028D03*
X129893462Y-89820028D03*
%TD*%
D13*
%TO.N,Net-(C6-Pad1)*%
%TO.C,H4*%
X137565481Y-128545014D03*
%TD*%
D12*
%TO.N,GND*%
%TO.C,U10*%
X89154000Y-86845000D03*
X89154000Y-87845000D03*
X89154000Y-88845000D03*
X90454000Y-86845000D03*
X90454000Y-87845000D03*
X90454000Y-88845000D03*
%TD*%
D14*
%TO.N,*%
X102520000Y-108230400D03*
%TO.N,GND*%
X140318681Y-120409414D03*
X58693462Y-96720028D03*
X88665481Y-128255014D03*
D15*
X66711000Y-83434000D03*
D14*
X62585000Y-91330400D03*
X114895000Y-110101400D03*
D16*
X128793462Y-98770028D03*
X116543462Y-92057528D03*
D14*
X96020000Y-108880400D03*
X104693462Y-78720028D03*
D16*
X129893462Y-110220028D03*
D14*
X72685081Y-131376614D03*
D16*
X122943462Y-106770028D03*
D14*
X58683081Y-92902214D03*
X140343462Y-108370028D03*
D16*
X126443462Y-80370028D03*
D14*
X58693462Y-101720028D03*
X92770000Y-112780400D03*
X71693462Y-78720028D03*
X62120000Y-84630400D03*
X111776400Y-106730000D03*
D15*
X88047000Y-81461000D03*
D14*
X140343462Y-104370028D03*
D16*
X130193462Y-99420028D03*
D14*
X117435000Y-105148400D03*
D15*
X95665481Y-130745014D03*
D16*
X134818462Y-90225028D03*
D14*
X140318681Y-114409414D03*
X89520000Y-111480400D03*
X103495000Y-105955400D03*
X91470000Y-107580400D03*
X101220000Y-104980400D03*
D15*
X125165481Y-124900514D03*
X137365481Y-120520028D03*
D14*
X100570000Y-108880400D03*
D16*
X135870000Y-90470400D03*
D15*
X108165481Y-125233014D03*
D14*
X96020000Y-116030400D03*
X140318681Y-117409414D03*
X99270000Y-110180400D03*
X140318681Y-122409414D03*
X92120000Y-108230400D03*
X140343462Y-101415014D03*
X140320000Y-85230400D03*
X129693462Y-131370028D03*
X140320000Y-89430400D03*
D15*
X115165481Y-122345014D03*
D14*
X58693462Y-97720028D03*
X88693462Y-131370028D03*
X99270000Y-111480400D03*
X106165481Y-128255014D03*
X96020000Y-107580400D03*
D15*
X121093462Y-119470028D03*
D16*
X129243462Y-99420028D03*
D14*
X90693462Y-78720028D03*
X97320000Y-113430400D03*
X58683081Y-93902214D03*
X91693462Y-78720028D03*
D16*
X61730962Y-124220028D03*
D14*
X108923000Y-83253014D03*
X138843462Y-120720028D03*
X97320000Y-109530400D03*
X132138591Y-80221514D03*
X58693462Y-122720028D03*
X58693462Y-98720028D03*
X122693462Y-78720028D03*
X97320000Y-112130400D03*
X58693462Y-117720028D03*
X86693462Y-131370028D03*
D16*
X124855962Y-98820028D03*
D15*
X137365481Y-122395014D03*
D14*
X114133000Y-105529400D03*
X80693462Y-131370028D03*
X110196000Y-109593400D03*
X140320000Y-86230400D03*
D16*
X128343462Y-80370028D03*
D15*
X96165481Y-122345014D03*
D14*
X116693462Y-131370028D03*
D15*
X106665481Y-125233014D03*
D14*
X88220000Y-114080400D03*
X123693462Y-78720028D03*
X95693462Y-78720028D03*
D16*
X79100000Y-106225000D03*
D14*
X87693462Y-131370028D03*
X131693462Y-131370028D03*
X117844700Y-97588400D03*
X58693462Y-120720028D03*
X101220000Y-103680400D03*
D16*
X127593462Y-111570028D03*
D14*
X127693462Y-131370028D03*
X90820000Y-114080400D03*
X115784000Y-107561400D03*
X92770000Y-108230400D03*
X58683081Y-86902214D03*
D15*
X115165481Y-130745014D03*
D16*
X117043462Y-90607528D03*
X124878462Y-106733429D03*
X136825000Y-90470400D03*
D14*
X96020000Y-104330400D03*
D15*
X66818462Y-115670028D03*
D14*
X138843462Y-121720028D03*
X119693462Y-131370028D03*
X58683081Y-90902214D03*
X90170000Y-106930400D03*
D16*
X128893462Y-110220028D03*
D14*
X101870000Y-113430400D03*
D15*
X96290481Y-99095014D03*
D14*
X101870000Y-108880400D03*
X99270000Y-114730400D03*
X108545000Y-109466400D03*
X129621481Y-78747814D03*
D15*
X97665481Y-122345014D03*
D16*
X127393462Y-80370028D03*
D14*
X132693462Y-131370028D03*
X130693462Y-131370028D03*
X93420000Y-104330400D03*
X140343462Y-107370028D03*
X140343462Y-112370028D03*
X85693462Y-78720028D03*
D15*
X92390481Y-98120014D03*
D14*
X102520000Y-116030400D03*
X114937279Y-105665169D03*
D15*
X131365481Y-129395014D03*
D14*
X125621481Y-78747814D03*
X118693462Y-131370028D03*
D16*
X117043462Y-87757528D03*
D14*
X114693462Y-78720028D03*
D15*
X64793462Y-116470028D03*
D14*
X124863462Y-79445014D03*
D16*
X70780962Y-123820028D03*
D14*
X79693462Y-78720028D03*
D16*
X126255962Y-99320028D03*
D14*
X89520000Y-117330400D03*
D15*
X66711000Y-81334000D03*
X123093462Y-126470028D03*
D14*
X108672000Y-107561400D03*
D15*
X88665481Y-125080400D03*
X102165481Y-125106014D03*
D14*
X140343462Y-105370028D03*
X58693462Y-107720028D03*
X87420000Y-118780400D03*
X99920000Y-107580400D03*
X117693462Y-78720028D03*
X103693462Y-131370028D03*
X140343462Y-90370028D03*
X109693462Y-131370028D03*
D15*
X108005000Y-96043000D03*
D14*
X140320000Y-88630400D03*
X96670000Y-117330400D03*
D16*
X77100000Y-113525000D03*
X124878462Y-105896627D03*
D14*
X72693462Y-78720028D03*
D16*
X62930962Y-125720028D03*
D15*
X65365481Y-118245014D03*
D14*
X94070000Y-114730400D03*
X140318681Y-123409414D03*
D16*
X129893462Y-106820028D03*
D14*
X92120000Y-112130400D03*
X91470000Y-104330400D03*
X97320000Y-111480400D03*
X95370000Y-109530400D03*
X140343462Y-92370028D03*
X109327626Y-103711393D03*
D15*
X62815481Y-118195014D03*
D16*
X131818462Y-80965028D03*
X126893462Y-81070028D03*
D14*
X96693462Y-131370028D03*
D15*
X66818462Y-116870028D03*
D14*
X89693462Y-78720028D03*
X96020000Y-110180400D03*
D16*
X124893462Y-106320028D03*
D14*
X97320000Y-114730400D03*
D16*
X131205962Y-94570028D03*
D14*
X68693462Y-78720028D03*
D16*
X128655962Y-82920028D03*
D14*
X58693462Y-95720028D03*
X92693462Y-131370028D03*
X86770000Y-118080400D03*
D15*
X100665481Y-125106014D03*
D16*
X134793462Y-89325028D03*
D14*
X99920000Y-105630400D03*
X86693462Y-78720028D03*
D15*
X105165481Y-125106014D03*
D16*
X124243462Y-106720028D03*
D14*
X90170000Y-108880400D03*
X99270000Y-108880400D03*
X113515481Y-97470014D03*
D15*
X88490481Y-97795014D03*
D14*
X99270000Y-117980400D03*
D15*
X110165481Y-125233014D03*
D14*
X58693462Y-102720028D03*
D15*
X99165210Y-126444400D03*
D16*
X130693462Y-98770028D03*
X82540000Y-95310400D03*
D14*
X130138591Y-80221514D03*
D16*
X69993462Y-120920028D03*
X128793462Y-81070028D03*
X75200000Y-112375000D03*
D15*
X110165481Y-130745014D03*
D16*
X127893462Y-81070028D03*
D14*
X58693462Y-116720028D03*
D16*
X80100000Y-106225000D03*
D14*
X107783000Y-105021400D03*
D16*
X129393462Y-109620028D03*
D14*
X140343462Y-100415014D03*
X97970000Y-114080400D03*
X97970000Y-113430400D03*
X113371000Y-107815400D03*
X92665481Y-128255014D03*
X58693462Y-112720028D03*
D16*
X131143462Y-99420028D03*
D14*
X87570000Y-103030400D03*
X95370000Y-110180400D03*
D15*
X85665481Y-125230400D03*
D14*
X89693462Y-131370028D03*
D16*
X78600000Y-106225000D03*
D15*
X64815481Y-114395014D03*
D16*
X117043462Y-89707528D03*
D14*
X104693462Y-131370028D03*
X95693462Y-131370028D03*
D15*
X119293462Y-114070028D03*
D16*
X138720000Y-90470400D03*
D15*
X125165481Y-130770028D03*
D14*
X116546000Y-109466400D03*
D16*
X129693462Y-98770028D03*
D15*
X133365481Y-129395014D03*
D16*
X124355962Y-99370028D03*
D14*
X124693462Y-131370028D03*
D16*
X65680962Y-125820028D03*
D14*
X140318681Y-121409414D03*
X86165481Y-128255014D03*
X116673000Y-107688400D03*
X88870000Y-112780400D03*
X100570000Y-103680400D03*
X58693462Y-99720028D03*
D15*
X133365481Y-122395014D03*
D14*
X94070000Y-110180400D03*
X76693462Y-131370028D03*
X58683081Y-91902214D03*
X123693462Y-131370028D03*
X104665481Y-128255014D03*
D16*
X125755962Y-98820028D03*
D15*
X93165481Y-125180400D03*
D14*
X113693462Y-131370028D03*
X58683081Y-85902214D03*
X77165481Y-128230400D03*
D15*
X122693462Y-131070028D03*
D14*
X140343462Y-93370028D03*
X58683081Y-87902214D03*
D16*
X129893462Y-107820028D03*
D14*
X58693462Y-100720028D03*
X117693462Y-131370028D03*
D15*
X99865481Y-96495014D03*
D14*
X105693462Y-78720028D03*
X140343462Y-110370028D03*
X138843462Y-119720028D03*
X70685081Y-131376614D03*
X83693462Y-131370028D03*
X99270000Y-117330400D03*
X93693462Y-131370028D03*
X140343462Y-102370028D03*
X100570000Y-113430400D03*
X100693462Y-131370028D03*
X94693462Y-131370028D03*
D15*
X88047000Y-83561000D03*
D14*
X120693462Y-131370028D03*
X58693462Y-119720028D03*
X101220000Y-118630400D03*
D16*
X63330962Y-121620028D03*
X126755962Y-98820028D03*
X60943462Y-123870028D03*
D14*
X138843462Y-123720028D03*
D16*
X129893462Y-108820028D03*
D14*
X58693462Y-109720028D03*
X94070000Y-112780400D03*
D16*
X117043462Y-85857528D03*
D15*
X123093462Y-119470028D03*
D14*
X83693462Y-78720028D03*
X108672000Y-106291400D03*
D16*
X120565481Y-85577528D03*
D14*
X94693462Y-78720028D03*
D15*
X84165481Y-125230400D03*
D14*
X140343462Y-113370028D03*
X87693462Y-78720028D03*
X58693462Y-103720028D03*
D15*
X135365481Y-122395014D03*
D14*
X85620000Y-84370400D03*
D15*
X131365481Y-120520028D03*
D14*
X101665481Y-128255014D03*
X60779281Y-99043614D03*
D16*
X67930962Y-125820028D03*
X116543462Y-91107528D03*
X116493462Y-89207528D03*
D14*
X120693462Y-78720028D03*
X75693462Y-131370028D03*
D16*
X77546846Y-108071846D03*
D14*
X102520000Y-114730400D03*
X140318681Y-116409414D03*
X77693462Y-78720028D03*
X82693462Y-131370028D03*
X98693462Y-131370028D03*
D15*
X88448623Y-99252496D03*
D14*
X92120000Y-114730400D03*
X81693462Y-78720028D03*
X131621481Y-78747814D03*
D16*
X117043462Y-86757528D03*
D14*
X115784000Y-103624400D03*
X75693462Y-78720028D03*
X97693462Y-131370028D03*
X140318681Y-119409414D03*
X108693462Y-131370028D03*
D16*
X128293462Y-99470028D03*
D14*
X108693462Y-78720028D03*
D16*
X69630962Y-122420028D03*
D14*
X93420000Y-110180400D03*
X86920000Y-103680400D03*
X140343462Y-103370028D03*
X94070000Y-108230400D03*
D16*
X132505962Y-89220028D03*
D14*
X110693462Y-131370028D03*
X140343462Y-109370028D03*
X101693462Y-131370028D03*
X88220000Y-111480400D03*
X102693462Y-131370028D03*
D15*
X70509481Y-99833014D03*
D16*
X128893462Y-111570028D03*
X123255962Y-90720028D03*
D14*
X64320000Y-84630400D03*
X97320000Y-110180400D03*
D16*
X137780000Y-90470400D03*
X124893462Y-105470028D03*
D14*
X91470000Y-114080400D03*
X90820000Y-111480400D03*
D15*
X105455000Y-98443000D03*
D14*
X73693462Y-78720028D03*
D16*
X116543462Y-88207528D03*
D14*
X90170000Y-104980400D03*
X97970000Y-104330400D03*
X108626800Y-112216400D03*
X111847000Y-104975900D03*
X90170000Y-106280400D03*
X78693462Y-131370028D03*
D16*
X121193462Y-80497528D03*
X134893462Y-84277528D03*
X134893462Y-83377528D03*
D14*
X78665481Y-128255014D03*
D16*
X129893462Y-111570028D03*
D14*
X99693462Y-78720028D03*
D15*
X112005000Y-98443000D03*
D14*
X66693462Y-78720028D03*
D15*
X135365481Y-120520028D03*
D16*
X130755962Y-94570028D03*
D14*
X140343462Y-111370028D03*
D16*
X120868462Y-108170028D03*
D14*
X58693462Y-114720028D03*
D15*
X119293462Y-119470028D03*
X103665481Y-125106014D03*
D14*
X138843462Y-122720028D03*
D15*
X62615481Y-114545014D03*
D14*
X103693462Y-78720028D03*
X92770000Y-114730400D03*
X67693462Y-78720028D03*
D15*
X76605481Y-99833014D03*
D14*
X70693462Y-78720028D03*
X69693462Y-78720028D03*
X115693462Y-78720028D03*
X83165481Y-128255014D03*
X101220000Y-117330400D03*
X105693462Y-131370028D03*
X112693462Y-78720028D03*
D16*
X124643462Y-92050028D03*
D14*
X99270000Y-112130400D03*
X74693462Y-78720028D03*
X93420000Y-108230400D03*
D15*
X120143462Y-127470028D03*
X133365481Y-124395014D03*
X75590481Y-122345014D03*
D14*
X98693462Y-78720028D03*
X109615481Y-89345014D03*
D16*
X66993462Y-122420028D03*
D15*
X87170000Y-125430400D03*
D14*
X61480000Y-89055400D03*
X92770000Y-107580400D03*
X92120000Y-106930400D03*
X99270000Y-103030400D03*
D15*
X90165481Y-125230400D03*
D14*
X67685081Y-131376614D03*
X96670000Y-114730400D03*
D15*
X75590481Y-130745014D03*
D14*
X61320000Y-86830400D03*
X106693462Y-131370028D03*
D16*
X122318462Y-103770028D03*
D14*
X58693462Y-104720028D03*
D16*
X116543462Y-87257528D03*
D14*
X88870000Y-109530400D03*
X111847000Y-107942400D03*
X122693462Y-131370028D03*
X140343462Y-94370028D03*
X116693462Y-78720028D03*
X100332219Y-99461752D03*
X93420000Y-114730400D03*
X113693462Y-78720028D03*
D15*
X120165481Y-130745014D03*
D14*
X93420000Y-112780400D03*
X114693462Y-131370028D03*
X100570000Y-109530400D03*
X101220000Y-112130400D03*
X99693462Y-131370028D03*
X89520000Y-107580400D03*
D16*
X128393462Y-109620028D03*
X131705962Y-94570028D03*
D14*
X68685081Y-131376614D03*
D15*
X80165481Y-122345014D03*
D14*
X99270000Y-103680400D03*
X97970000Y-114730400D03*
X100693462Y-78720028D03*
D15*
X119293462Y-116070028D03*
D14*
X140343462Y-106370028D03*
X101693462Y-78720028D03*
X96020000Y-112780400D03*
D16*
X70780962Y-125220028D03*
D14*
X117434996Y-108958400D03*
X97970000Y-107580400D03*
X92120000Y-111480400D03*
D15*
X133365481Y-120520028D03*
D16*
X116493462Y-85357528D03*
D14*
X139643462Y-115870028D03*
X97970000Y-117330400D03*
X130621481Y-78747814D03*
D16*
X61730962Y-125220028D03*
D14*
X58693462Y-110720028D03*
D15*
X91670000Y-125130400D03*
D14*
X100570000Y-116680400D03*
X101220000Y-107580400D03*
X95370000Y-117980400D03*
X99920000Y-114080400D03*
X99270000Y-115380400D03*
D16*
X79600000Y-109625000D03*
D14*
X90693462Y-131370028D03*
X102693462Y-78720028D03*
D15*
X131365481Y-124395014D03*
D14*
X131138591Y-80221514D03*
X140320000Y-87830400D03*
D16*
X116543462Y-90157528D03*
D14*
X58693462Y-115720028D03*
D16*
X68843462Y-121620028D03*
D14*
X140343462Y-95370028D03*
D16*
X127593462Y-110220028D03*
D14*
X107693462Y-78720028D03*
D16*
X78100000Y-113525000D03*
D14*
X131313462Y-82495014D03*
D15*
X72541481Y-99833014D03*
D14*
X84665481Y-128255014D03*
X91693462Y-131370028D03*
D16*
X125305962Y-99320028D03*
D14*
X82693462Y-78720028D03*
X58683081Y-88902214D03*
X99920000Y-116680400D03*
D16*
X122880000Y-93030400D03*
D14*
X109693462Y-78720028D03*
X111693462Y-78720028D03*
X117308000Y-106926400D03*
X69685081Y-131376614D03*
D16*
X129293462Y-80370028D03*
D14*
X121693462Y-78720028D03*
X126621481Y-78747814D03*
X128621481Y-78747814D03*
D15*
X121165481Y-126645014D03*
D14*
X88693462Y-78720028D03*
X121693462Y-131370028D03*
X102520000Y-111480400D03*
X100570000Y-118630400D03*
X77693462Y-131370028D03*
X93693462Y-78720028D03*
X117844700Y-96638400D03*
X61320000Y-85630400D03*
X140318681Y-115409414D03*
X91470000Y-108230400D03*
D16*
X129293462Y-107320028D03*
D14*
X91165481Y-128255014D03*
X140320000Y-87030400D03*
X133693462Y-131370028D03*
D16*
X116543462Y-86307528D03*
D14*
X59965481Y-87745014D03*
D16*
X61730962Y-122720028D03*
D14*
X80693462Y-78720028D03*
X124621481Y-78747814D03*
X107693462Y-131370028D03*
D15*
X81665481Y-122345014D03*
D14*
X138843462Y-117720028D03*
X127621481Y-78747814D03*
X111693462Y-131370028D03*
D15*
X131365481Y-122395014D03*
X94665481Y-122345014D03*
D16*
X80700000Y-111425000D03*
D14*
X78693462Y-78720028D03*
X76693462Y-78720028D03*
X107275000Y-107307400D03*
X89520000Y-112780400D03*
X79693462Y-131370028D03*
X71685081Y-131376614D03*
X84693462Y-131370028D03*
D15*
X121893462Y-116070028D03*
D14*
X58693462Y-113720028D03*
X97693462Y-78720028D03*
X115693462Y-131370028D03*
X90170000Y-111480400D03*
D15*
X64165481Y-118245014D03*
D14*
X58693462Y-121720028D03*
D15*
X74573481Y-99833014D03*
D16*
X129293462Y-108320028D03*
D14*
X140318681Y-118409414D03*
X113303000Y-106374200D03*
X132621481Y-78747814D03*
D15*
X66953481Y-97801014D03*
D14*
X110243000Y-105624200D03*
X91470000Y-113430400D03*
X58683081Y-94902214D03*
D16*
X80600000Y-106225000D03*
D14*
X65120000Y-83430400D03*
X112693462Y-131370028D03*
X58683081Y-89902214D03*
X92120000Y-107580400D03*
D15*
X77165481Y-122345014D03*
D14*
X58693462Y-111720028D03*
X106693462Y-78720028D03*
X96693462Y-78720028D03*
X92120000Y-110180400D03*
X115657000Y-109466400D03*
D16*
X129293462Y-106320028D03*
D14*
X97165481Y-128255014D03*
X81665481Y-128230400D03*
X110196000Y-108196400D03*
X110693462Y-78720028D03*
D15*
X66565481Y-114545014D03*
D14*
X58693462Y-124720028D03*
D16*
X127205962Y-99320028D03*
D14*
X90170000Y-110180400D03*
X119693462Y-78720028D03*
X58693462Y-123720028D03*
X94165481Y-128255014D03*
D16*
X117043462Y-91607528D03*
D14*
X58693462Y-108720028D03*
X109290481Y-85120014D03*
X99270000Y-108230400D03*
X99270000Y-112780400D03*
X58693462Y-105720028D03*
D16*
X80650000Y-108375000D03*
D14*
X80165481Y-128230400D03*
X95370000Y-112780400D03*
X84693462Y-78720028D03*
X118693462Y-78720028D03*
X99270000Y-109530400D03*
D16*
X134893462Y-85277528D03*
D15*
X78665481Y-122345014D03*
D14*
X92693462Y-78720028D03*
D15*
X66615481Y-118245014D03*
D14*
X98665481Y-128255014D03*
X138843462Y-118720028D03*
X97320000Y-112780400D03*
X66685081Y-131376614D03*
D15*
X62793462Y-116870028D03*
D14*
X100570000Y-112130400D03*
D16*
X129393462Y-110870028D03*
D14*
X74685081Y-131376614D03*
X81693462Y-131370028D03*
D15*
X120165481Y-122345014D03*
D14*
X73685081Y-131376614D03*
X91470000Y-111480400D03*
D15*
X70509481Y-97801014D03*
D14*
X95370000Y-108230400D03*
X58693462Y-118720028D03*
X101870000Y-112130400D03*
X58693462Y-106720028D03*
X85693462Y-131370028D03*
D16*
X128393462Y-110870028D03*
D14*
X140343462Y-91370028D03*
%TO.N,GBE0_MDI3_N*%
X72330962Y-118895028D03*
%TO.N,GBE0_MDI3_P*%
X72330962Y-118445028D03*
D16*
%TO.N,/IO/LED0*%
X64793462Y-121120028D03*
%TO.N,/IO/LED1*%
X64393462Y-121370028D03*
D14*
%TO.N,GBE0_MDI2_N*%
X72330962Y-117695028D03*
%TO.N,GBE0_MDI2_P*%
X72330962Y-117245028D03*
%TO.N,/MPU/VDDA_0P9*%
X97970000Y-108880400D03*
%TO.N,GBE0_MDI1_N*%
X72330962Y-116495028D03*
%TO.N,GBE0_MDI1_P*%
X72330962Y-116045028D03*
%TO.N,GBE0_MDI0_N*%
X72330962Y-115295028D03*
%TO.N,GBE0_MDI0_P*%
X72330962Y-114845028D03*
D16*
%TO.N,3.3V_SW*%
X115420981Y-82803014D03*
X137393462Y-116245028D03*
X133918462Y-108895028D03*
X128693462Y-84407528D03*
X134918462Y-110895028D03*
X115420981Y-82003014D03*
X136918462Y-109895028D03*
X133918462Y-106895028D03*
X131918462Y-109895028D03*
X127493462Y-90557528D03*
X130843462Y-85470028D03*
X129493462Y-84407528D03*
X115420981Y-81203014D03*
X138918462Y-112895028D03*
X133393462Y-117245028D03*
X137918462Y-113895028D03*
X137918462Y-110895028D03*
X138918462Y-111895028D03*
X130843462Y-90557528D03*
X125383462Y-102345028D03*
X134393462Y-116245028D03*
X124893462Y-89670028D03*
X138918462Y-113895028D03*
X113820981Y-81203014D03*
X132918462Y-110895028D03*
X117156481Y-82775014D03*
X123193462Y-80497528D03*
X135918462Y-106895028D03*
X127638838Y-84403766D03*
X135918462Y-107895028D03*
X133918462Y-109895028D03*
X133393462Y-115245028D03*
X138918462Y-109895028D03*
X132393462Y-115245028D03*
D14*
X112865481Y-93245014D03*
D16*
X136918462Y-107895028D03*
X116356481Y-81075014D03*
X134918462Y-106895028D03*
X131918462Y-107895028D03*
X135393462Y-117245028D03*
X130843462Y-87057528D03*
X117156481Y-80275014D03*
X122893462Y-105770028D03*
X113820981Y-82003014D03*
X131918462Y-108895028D03*
X136918462Y-110895028D03*
X136393462Y-117245028D03*
X116356481Y-81875014D03*
X113020981Y-80403014D03*
X115467481Y-80275014D03*
X113020981Y-82003014D03*
X137918462Y-109895028D03*
X124893462Y-88070028D03*
X136918462Y-108895028D03*
X136393462Y-116245028D03*
X131918462Y-110895028D03*
X130843462Y-87670028D03*
X135393462Y-116245028D03*
X129893462Y-90557528D03*
X125793462Y-84420028D03*
X124893462Y-87357528D03*
X138918462Y-107895028D03*
X114620981Y-81203014D03*
X137918462Y-107895028D03*
X113020981Y-81203014D03*
X134393462Y-115245028D03*
X137918462Y-112895028D03*
X129093462Y-90557528D03*
X117156481Y-81075014D03*
X131918462Y-106895028D03*
X137393462Y-117245028D03*
X137918462Y-108895028D03*
X116356481Y-82775014D03*
X132393462Y-116245028D03*
X116356481Y-80275014D03*
X117156481Y-81875014D03*
X130840643Y-89870028D03*
X124893462Y-85870028D03*
X114620981Y-82803014D03*
X114705481Y-80275014D03*
X134918462Y-108895028D03*
X135393462Y-115245028D03*
X121368462Y-103770028D03*
X126693462Y-84407528D03*
X136393462Y-115245028D03*
X128293462Y-90557528D03*
X126693462Y-90553941D03*
X132918462Y-108895028D03*
X138918462Y-108895028D03*
X135918462Y-110895028D03*
X135918462Y-109895028D03*
D14*
X114907200Y-96338400D03*
D16*
X130840643Y-89070028D03*
X136918462Y-106895028D03*
X137393462Y-115245028D03*
X132393462Y-117245028D03*
X134918462Y-107895028D03*
X133918462Y-107895028D03*
X134393462Y-117245028D03*
X124893462Y-86670028D03*
X130643462Y-84407528D03*
X132918462Y-109895028D03*
X124893462Y-88870028D03*
X133918462Y-110895028D03*
X125893462Y-90557528D03*
X137918462Y-111895028D03*
X132918462Y-106895028D03*
X138918462Y-110895028D03*
X137918462Y-106895028D03*
X135918462Y-108895028D03*
X130843462Y-86270028D03*
X134918462Y-109895028D03*
X113820981Y-80403014D03*
X130840643Y-88470028D03*
X133393462Y-116245028D03*
X114620981Y-82003014D03*
X125093462Y-90557528D03*
X132918462Y-107895028D03*
X138918462Y-106895028D03*
D14*
%TO.N,Net-(U3A-ZQ0)*%
X111440925Y-103375146D03*
%TO.N,I2C1_SCL*%
X89520000Y-114730400D03*
%TO.N,I2C1_SDA*%
X89520000Y-114080400D03*
%TO.N,I2C2_SCL*%
X90820000Y-115380400D03*
%TO.N,I2C2_SDA*%
X90170000Y-115380400D03*
%TO.N,I2C3_SCL*%
X90820000Y-114730400D03*
%TO.N,I2C3_SDA*%
X90170000Y-114080400D03*
%TO.N,Net-(U3A-ODT_CA_A)*%
X108672000Y-108196400D03*
%TO.N,Net-(U3A-ODT_CA_B)*%
X109439600Y-114045200D03*
%TO.N,UART2_TXD*%
X88870000Y-115380400D03*
X85640000Y-128340400D03*
%TO.N,UART2_RXD*%
X85125610Y-125573187D03*
%TO.N,UART1_TXD*%
X83045000Y-125180400D03*
%TO.N,UART1_RXD*%
X82665481Y-128255014D03*
X88220000Y-115380400D03*
D16*
%TO.N,/IO/ENET_2.5V_A*%
X69343462Y-115670028D03*
X69343462Y-119270028D03*
X69343462Y-116870028D03*
D14*
%TO.N,USB2_RX_N*%
X81556777Y-126147177D03*
%TO.N,USB2_RX_P*%
X81203223Y-125793623D03*
%TO.N,USB2_TX_N*%
X80186777Y-125987177D03*
%TO.N,USB2_TX_P*%
X79833223Y-125633623D03*
%TO.N,USB2_DP*%
X78263223Y-125633623D03*
D16*
%TO.N,VDD_1V*%
X61593462Y-111920028D03*
X69343462Y-113270028D03*
D14*
%TO.N,UART3_RXD*%
X84820000Y-124760400D03*
%TO.N,UART3_TXD*%
X83445000Y-125055400D03*
%TO.N,UART4_RXD*%
X88220000Y-116030400D03*
%TO.N,NVCC_DRAM_1V1*%
X111878000Y-112775200D03*
X100570000Y-112780400D03*
X101220000Y-117980400D03*
X109388800Y-117347200D03*
D16*
X128193462Y-97157528D03*
D14*
X114207000Y-117353000D03*
X113445000Y-117302200D03*
D16*
X129243462Y-97157528D03*
D14*
X111974000Y-108831400D03*
X115784000Y-104386400D03*
X100570000Y-104330400D03*
X115657000Y-110101400D03*
X107783000Y-108196400D03*
X101870000Y-110180400D03*
X112487600Y-106831600D03*
X101220000Y-114080400D03*
X101870000Y-116030400D03*
X109434000Y-107561400D03*
X101220000Y-106280400D03*
X114133000Y-106291400D03*
X99920000Y-112130400D03*
X107864800Y-116026400D03*
X111878500Y-116641800D03*
X109439600Y-112064000D03*
X113423146Y-114067054D03*
X112276600Y-115371800D03*
X113548400Y-115979600D03*
X111847000Y-104386400D03*
X101220000Y-108880400D03*
X114260000Y-104259400D03*
X107915600Y-112826000D03*
X101870000Y-106280400D03*
X113323912Y-108404900D03*
X101220000Y-108230400D03*
X100570000Y-117980400D03*
X107783000Y-105656400D03*
X110760400Y-118109200D03*
X99920000Y-110180400D03*
X110303200Y-114096000D03*
X109434000Y-104386400D03*
X101220000Y-104330400D03*
X110504387Y-103467404D03*
X101220000Y-114730400D03*
X109434000Y-109593400D03*
X115680200Y-114660600D03*
D16*
X130343462Y-95957528D03*
X130343462Y-97157528D03*
D14*
X113244000Y-107180400D03*
X101220000Y-116030400D03*
X115799033Y-111402882D03*
X99920000Y-111480400D03*
X112482000Y-106291400D03*
D16*
X132648462Y-90220028D03*
D14*
X107783000Y-109593400D03*
X115843000Y-117374200D03*
X113452800Y-112826000D03*
X115784000Y-106926400D03*
X108654088Y-111622900D03*
%TO.N,DRAM_DQ21*%
X99920000Y-119280400D03*
X111717800Y-115371800D03*
%TO.N,DRAM_DQ19*%
X103495000Y-116030400D03*
X108525200Y-114705600D03*
%TO.N,DRAM_DQ25*%
X117356600Y-116692600D03*
X99920000Y-117330400D03*
%TO.N,DRAM_DQ24*%
X116188200Y-118572200D03*
X100570000Y-117330400D03*
%TO.N,Net-(U1A-MIPI_VDD1)*%
X89520000Y-109530400D03*
%TO.N,DRAM_DQ26*%
X99920000Y-117980400D03*
X116594600Y-115270200D03*
%TO.N,DRAM_DQ28*%
X114969000Y-114660600D03*
X100570000Y-114730400D03*
%TO.N,DRAM_DQ27*%
X99920000Y-116030400D03*
X116543800Y-114660600D03*
%TO.N,DRAM_DQ30*%
X100570000Y-115380400D03*
X114969000Y-117824200D03*
%TO.N,DRAM_DQ15*%
X113244000Y-105275400D03*
X100570000Y-108230400D03*
%TO.N,DRAM_DQ12*%
X100570000Y-107580400D03*
X114260000Y-106926400D03*
%TO.N,DRAM_DQ14*%
X114672000Y-103580400D03*
X100570000Y-106930400D03*
%TO.N,DRAM_DQ11*%
X116546000Y-106926400D03*
X99920000Y-106280400D03*
%TO.N,DRAM_DQ9*%
X117339000Y-104342400D03*
X99920000Y-104980400D03*
%TO.N,DRAM_DQ10*%
X99920000Y-104330400D03*
X116546000Y-106291400D03*
%TO.N,DRAM_DQ4*%
X99920000Y-103680400D03*
X110958000Y-106926400D03*
%TO.N,DRAM_DQ6*%
X100570000Y-103030400D03*
X110958000Y-105656400D03*
%TO.N,DRAM_DQ22*%
X100570000Y-119280400D03*
X111032000Y-116540200D03*
%TO.N,DRAM_DQ23*%
X110963600Y-117429200D03*
X101220000Y-119280400D03*
%TO.N,DRAM_DQS3_P*%
X101220000Y-116680400D03*
X115832600Y-115371800D03*
%TO.N,DRAM_DM3*%
X100570000Y-116030400D03*
X115843000Y-116674200D03*
%TO.N,DRAMREF*%
X100570000Y-110180400D03*
%TO.N,DRAM_DQ13*%
X101220000Y-106930400D03*
X115022000Y-106926400D03*
%TO.N,DRAM_DM1*%
X100570000Y-106280400D03*
X115784000Y-105021400D03*
%TO.N,DRAM_DQS1_P*%
X101220000Y-105630400D03*
X115784000Y-106291400D03*
%TO.N,DRAM_DQ8*%
X100570000Y-105630400D03*
X116170000Y-103030400D03*
%TO.N,DRAM_DQ7*%
X110958000Y-104386400D03*
X101220000Y-103030400D03*
%TO.N,DRAM_DQS2_N*%
X101761000Y-119791400D03*
X110193800Y-114762200D03*
%TO.N,DRAM_DQS2_P*%
X102116600Y-119537400D03*
X109417100Y-115394300D03*
%TO.N,DRAM_DQS3_N*%
X114918200Y-115321000D03*
X101870000Y-116680400D03*
%TO.N,DRAM_nCS0_B*%
X101220000Y-113430400D03*
X111065200Y-112775200D03*
%TO.N,DRAM_CKE0_A*%
X101870000Y-109530400D03*
X110958000Y-109466400D03*
%TO.N,DRAM_DQS1_N*%
X101870000Y-105630400D03*
X115022000Y-106291400D03*
%TO.N,DRAM_DQS0_P*%
X102398564Y-101979764D03*
X109434000Y-106291400D03*
%TO.N,DRAM_DQS0_N*%
X110196000Y-106291400D03*
X102087436Y-101668636D03*
%TO.N,DRAM_DQ16*%
X103820000Y-117330400D03*
X108626800Y-117347200D03*
%TO.N,DRAM_DM2*%
X102520000Y-117330400D03*
X109439600Y-116788400D03*
%TO.N,DRAM_DQ18*%
X104795000Y-116030400D03*
X109388800Y-114756400D03*
%TO.N,PMIC_SCL*%
X90820000Y-113430400D03*
%TO.N,DRAM_nCS1_B*%
X110244600Y-113390600D03*
X102520000Y-114080400D03*
%TO.N,DRAM_CKE0_B*%
X111014400Y-112165600D03*
X102520000Y-112780400D03*
%TO.N,DRAM_CA0_A*%
X102520000Y-108880400D03*
X109307000Y-108323400D03*
%TO.N,DRAM_CA2_A*%
X104470000Y-107255400D03*
X114260000Y-108323400D03*
%TO.N,DRAM_DQ3*%
X102520000Y-105630400D03*
X108672000Y-106926400D03*
%TO.N,DRAM_DM0*%
X109434000Y-105021400D03*
X103170000Y-104980400D03*
%TO.N,DRAM_DQ1*%
X108672000Y-105656400D03*
X103170000Y-104330400D03*
%TO.N,DRAM_DQ17*%
X108576000Y-116686800D03*
X102520000Y-117980400D03*
%TO.N,DRAM_CA1_A*%
X102520000Y-109530400D03*
X109338000Y-108863600D03*
%TO.N,DRAM_CKE1_A*%
X103495000Y-109855400D03*
X111921000Y-109428200D03*
%TO.N,DRAM_CA5_A*%
X102520000Y-107580400D03*
X115911000Y-108958400D03*
%TO.N,DRAM_DQ2*%
X109434000Y-106926400D03*
X104145000Y-105630400D03*
%TO.N,DRAM_DQ0*%
X108545000Y-104386400D03*
X104145000Y-104330400D03*
%TO.N,Net-(U1K-PCIE2_RESREF)*%
X86920000Y-103030400D03*
D16*
%TO.N,Net-(L9-Pad1)*%
X126793462Y-106470028D03*
X127493462Y-108420028D03*
X127493462Y-106520028D03*
X126793462Y-108370028D03*
X126093462Y-105720028D03*
X126793462Y-105720028D03*
X126093462Y-108370028D03*
X126093462Y-106470028D03*
X127493462Y-107620028D03*
X126093462Y-107570028D03*
X127493462Y-105770028D03*
X126793462Y-107570028D03*
D14*
%TO.N,SPI1_MOSI*%
X88059603Y-125728030D03*
%TO.N,SPI2_SSO*%
X86286358Y-125796758D03*
%TO.N,UART4_TXD*%
X89520000Y-115380400D03*
%TO.N,QSPIA_CLE*%
X91470000Y-105630400D03*
%TO.N,SPI1_MISO*%
X88953443Y-125778717D03*
%TO.N,HDMI_TX3_P*%
X95665481Y-125780400D03*
%TO.N,PCIE2_RXN*%
X93165481Y-128255014D03*
%TO.N,SPI2_MISO*%
X87697277Y-124780400D03*
%TO.N,SPI2_SCLK*%
X86579507Y-128360400D03*
X88220000Y-116680400D03*
%TO.N,PCIE2_RXP*%
X93665481Y-128255014D03*
%TO.N,PCIE1_TXN*%
X96165481Y-128255014D03*
X92089500Y-102840400D03*
%TO.N,SPI1_SSO*%
X89670000Y-128230400D03*
X88870000Y-117330400D03*
%TO.N,PCIE1_TXP*%
X96665481Y-128255014D03*
X92477660Y-102808098D03*
%TO.N,HDMI_TX2_P*%
X96665481Y-125780400D03*
%TO.N,PCIE2_REF_CLKN*%
X94665481Y-128274553D03*
%TO.N,PCIE2_REF_CLKP*%
X95165481Y-128274553D03*
%TO.N,QSPIA_SCLK*%
X90820000Y-106930400D03*
%TO.N,Net-(U1B-ZQ_{slash}_ZQ_{slash}_ZQ)*%
X100570000Y-111480400D03*
%TO.N,NAND_DATA0*%
X90820000Y-106280400D03*
X76351481Y-105167014D03*
%TO.N,BT_DEV_WAKE*%
X90820000Y-105630400D03*
%TO.N,QSPIA_nSS0 *%
X72308000Y-102416000D03*
X91470000Y-106930400D03*
%TO.N,NAND_nCE3*%
X91470000Y-106280400D03*
%TO.N,NAND_DATA2*%
X91470000Y-104980400D03*
D16*
X77936782Y-105121575D03*
D14*
%TO.N,PCIE1_RXP*%
X91720000Y-102540400D03*
X97665481Y-128255014D03*
D16*
%TO.N,NAND_DATA1*%
X77100000Y-105421014D03*
D14*
X92120000Y-106280400D03*
%TO.N,SPI1_SCLK*%
X88870000Y-116030400D03*
X89170000Y-128230400D03*
D16*
%TO.N,NAND_DATA3*%
X75400000Y-105725000D03*
D14*
X92120000Y-105630400D03*
D16*
%TO.N,NAND_DATA5*%
X76780500Y-105929014D03*
D14*
X92120000Y-104980400D03*
%TO.N,USB1_SS_SEL*%
X92770000Y-106930400D03*
%TO.N,NAND_nREADY*%
X92770000Y-106280400D03*
%TO.N,NAND_nWP*%
X92770000Y-105630400D03*
%TO.N,SPI2_MOSI*%
X87665481Y-128255014D03*
X88870000Y-116680400D03*
%TO.N,GPIO15*%
X92120000Y-116030400D03*
%TO.N,NAND_nWE*%
X92770000Y-104980400D03*
%TO.N,PCIE1_REF_CLKP*%
X93082124Y-102272363D03*
X99665481Y-128255014D03*
%TO.N,NAND_DATA6*%
X93420000Y-106930400D03*
D16*
X77419500Y-105929014D03*
%TO.N,NAND_DATA4*%
X75900000Y-105725000D03*
D14*
X93420000Y-106280400D03*
%TO.N,SD2_nCD*%
X93420000Y-105630400D03*
%TO.N,GPIO13*%
X92770000Y-116030400D03*
%TO.N,GPIO14*%
X92770000Y-115380400D03*
%TO.N,SD2_CLK*%
X93420000Y-104980400D03*
%TO.N,SD1_CMD*%
X93397657Y-103084057D03*
D16*
X77600000Y-111725000D03*
D14*
%TO.N,SD1_CLK*%
X93683678Y-102432503D03*
%TO.N,NAND_DATA7*%
X94070000Y-106930400D03*
D16*
X78383481Y-105421014D03*
D14*
%TO.N,BT_HOST_WAKE*%
X94070000Y-106280400D03*
%TO.N,SD2_WP*%
X94070000Y-105630400D03*
%TO.N,HDMI_REFCLK_N*%
X98165481Y-125780400D03*
%TO.N,HDMI_REFCLK_P*%
X98665481Y-125780400D03*
%TO.N,GPIO11*%
X93420000Y-116030400D03*
%TO.N,GPIO12*%
X93420000Y-115380400D03*
%TO.N,SD2_CMD*%
X94070000Y-104980400D03*
%TO.N,ENET_MDIO*%
X94720000Y-107580400D03*
D16*
X59893462Y-119270028D03*
%TO.N,ENET_MDC*%
X60065481Y-118145014D03*
D14*
X94726595Y-101603748D03*
%TO.N,SD2_D1*%
X95370000Y-105630400D03*
%TO.N,HDMI_TX0_P*%
X99665481Y-125780400D03*
%TO.N,GPIO9*%
X94070000Y-116030400D03*
%TO.N,GPIO10*%
X94070000Y-115380400D03*
%TO.N,GPIO6*%
X95370000Y-116680400D03*
%TO.N,SD1_D4*%
X95246797Y-102594525D03*
%TO.N,ENET_TX_CTL*%
X95370000Y-107580400D03*
X61263462Y-111495014D03*
%TO.N,ENET_TD3*%
X95370000Y-106280400D03*
D16*
X59464769Y-114245726D03*
D14*
%TO.N,GPIO8*%
X95370000Y-115380400D03*
%TO.N,GPIO3*%
X95370000Y-117330400D03*
%TO.N,SD2_D3*%
X96020000Y-105630400D03*
%TO.N,SD2_D2*%
X96020000Y-104980400D03*
%TO.N,SD1_D5*%
X96020000Y-102961724D03*
%TO.N,SD1_D3*%
X95683466Y-102663995D03*
%TO.N,ENET_TD2*%
X96020000Y-106930400D03*
X59565481Y-115495014D03*
%TO.N,ENET_TD0*%
X96020000Y-106280400D03*
D16*
X59565481Y-113045014D03*
D14*
%TO.N,HDMI_TX1_P*%
X101665481Y-125730400D03*
%TO.N,GPIO4*%
X96020000Y-116680400D03*
%TO.N,ENET_TD1*%
X59989078Y-115270028D03*
X96670000Y-106280400D03*
%TO.N,SD2_nRST*%
X96670000Y-105630400D03*
%TO.N,CLK1_P*%
X96670000Y-104980400D03*
%TO.N,SD1_nRST*%
X96670000Y-103030400D03*
%TO.N,SD1_D6*%
X96377387Y-102436729D03*
%TO.N,JTAG_TCK*%
X97320000Y-116680400D03*
%TO.N,ENET_TXC*%
X96670000Y-106930400D03*
D16*
X60193462Y-114070028D03*
D14*
%TO.N,ENET_RXC*%
X97320000Y-106280400D03*
X62765481Y-110245014D03*
%TO.N,GPIO5*%
X96020000Y-115380400D03*
%TO.N,GPIO2*%
X96020000Y-117330400D03*
%TO.N,ENET_RX_CTL*%
X97320000Y-105630400D03*
X63965481Y-109945014D03*
%TO.N,CLK2_P*%
X97320000Y-104980400D03*
%TO.N,CLK1_N*%
X96670000Y-104330400D03*
%TO.N,SD1_STROBE*%
X97320000Y-103008014D03*
%TO.N,SD1_D7*%
X97330033Y-102184367D03*
%TO.N,JTAG_TDO*%
X97970000Y-116680400D03*
%TO.N,JTAG_nTRS*%
X97320000Y-115380400D03*
X65119800Y-97894800D03*
%TO.N,JTAG_MOD*%
X97970000Y-115380400D03*
%TO.N,ENET_RD0*%
X97320000Y-106930400D03*
X63593462Y-111545014D03*
%TO.N,ENET_RD2*%
X97970000Y-106280400D03*
X65474060Y-110553593D03*
%TO.N,ENET_RD1*%
X64665481Y-109695014D03*
X97970000Y-105630400D03*
%TO.N,CLK2_N*%
X97970000Y-104980400D03*
%TO.N,JTAG_TMS*%
X97970000Y-116030400D03*
%TO.N,BOOT_MODE1*%
X98620000Y-116030400D03*
%TO.N,QSPIA_IO1*%
X72892200Y-102212800D03*
%TO.N,Net-(U1H-TEST_MODE)*%
X98620000Y-115380400D03*
%TO.N,ENET_RD3*%
X66565481Y-111345014D03*
X97970000Y-106930400D03*
%TO.N,PMIC_ON_REQ*%
X98620000Y-106930400D03*
%TO.N,PMIC_STBY_REQ*%
X98620000Y-105630400D03*
%TO.N,JTAG_TDI*%
X99270000Y-116680400D03*
%TO.N,BOOT_MODE0*%
X99270000Y-116030400D03*
%TO.N,QSPIA_IO2*%
X73349400Y-101857200D03*
%TO.N,POR_B*%
X98620000Y-106280400D03*
%TO.N,ONOFF*%
X99270000Y-105630400D03*
%TO.N,/MPU/RTC_nRST*%
X99270000Y-106280400D03*
X113840481Y-89995014D03*
%TO.N,DRAM_DQ20*%
X99920000Y-118630400D03*
X110988354Y-114729646D03*
%TO.N,DRAM_DQ5*%
X111847000Y-106291400D03*
X99920000Y-103030400D03*
%TO.N,DRAM_nRST*%
X101220000Y-111480400D03*
X116551600Y-112724400D03*
%TO.N,/POWER/PMIC_ON*%
X64445000Y-88480000D03*
D16*
%TO.N,VIN*%
X125193462Y-107970028D03*
X128015481Y-127570028D03*
X129415481Y-130370028D03*
X129415481Y-124770028D03*
X123893462Y-111170028D03*
X125393462Y-110470028D03*
X128715481Y-125470028D03*
X127315481Y-128270028D03*
X123893462Y-110470028D03*
X128015481Y-124770028D03*
X125393462Y-111170028D03*
X123193462Y-109770028D03*
X129415481Y-126170028D03*
X128715481Y-126870028D03*
X129415481Y-127570028D03*
X127315481Y-126870028D03*
X128015481Y-126170028D03*
X123193462Y-111170028D03*
X124593462Y-108470028D03*
X123893462Y-109770028D03*
X124693462Y-111170028D03*
X128715481Y-128270028D03*
X124693462Y-110470028D03*
X124593462Y-107470028D03*
X123193462Y-110470028D03*
X122993462Y-107770028D03*
X128015481Y-130370028D03*
X127315481Y-125470028D03*
D14*
%TO.N,VDDA_1V8*%
X97320000Y-104330400D03*
X97320000Y-108230400D03*
X98620000Y-108230400D03*
X99270000Y-104330400D03*
X92770000Y-110180400D03*
X96670000Y-108230400D03*
X99920000Y-112780400D03*
X95370000Y-112130400D03*
D16*
X131465481Y-92395014D03*
D14*
%TO.N,DRAM_CA2_B*%
X114976800Y-112775200D03*
X101870000Y-115380400D03*
%TO.N,DRAM_nCS1_A*%
X110196000Y-108831400D03*
X101870000Y-108230400D03*
%TO.N,DRAM_CA5_B*%
X104268900Y-114762200D03*
X115789600Y-112724400D03*
%TO.N,DRAM_CA4_A*%
X115911000Y-108196400D03*
X102520000Y-106930400D03*
%TO.N,DRAM_CA4_B*%
X115840400Y-113435600D03*
X103820000Y-115380400D03*
%TO.N,DRAM_CA3_B*%
X114976800Y-113435600D03*
X103170000Y-114730400D03*
%TO.N,DRAM_CA0_B*%
X109338000Y-113384800D03*
X104145000Y-113105400D03*
%TO.N,DRAM_CA1_B*%
X102520000Y-113430400D03*
%TO.N,DRAM_CKE1_B*%
X103170000Y-112780400D03*
X111667000Y-112171400D03*
%TO.N,DRAM_nCS0_A*%
X110958000Y-108831400D03*
X103170000Y-108230400D03*
%TO.N,DRAM_CA3_A*%
X103820000Y-107255400D03*
X115022000Y-108831400D03*
%TO.N,VDD_PHY_0V9*%
X97970000Y-117980400D03*
X90820000Y-104980400D03*
X89520000Y-112130400D03*
X124613462Y-92645014D03*
X88870000Y-111480400D03*
X125563462Y-92195014D03*
X88870000Y-112130400D03*
X90820000Y-104330400D03*
X90170000Y-107580400D03*
X90170000Y-108230400D03*
X125163462Y-92645014D03*
X97320000Y-117980400D03*
X90820000Y-108230400D03*
X88220000Y-112130400D03*
%TO.N,VDD_PHY_1V8*%
X95989500Y-118660960D03*
X88220000Y-107580400D03*
D16*
X130755962Y-92810028D03*
D14*
X88870000Y-108230400D03*
%TO.N,NVCC_3V3*%
X90170000Y-116680400D03*
X94070000Y-107580400D03*
X91470000Y-115380400D03*
X96670000Y-116030400D03*
X92120000Y-115380400D03*
X89520000Y-117980400D03*
X88870000Y-114730400D03*
X98620000Y-116680400D03*
X94070000Y-117980400D03*
%TO.N,VDD_PHY_3V3*%
X90820000Y-112130400D03*
X90820000Y-112780400D03*
X92120000Y-104330400D03*
X91470000Y-112130400D03*
X90170000Y-112130400D03*
X90170000Y-112780400D03*
%TO.N,VDD_ARM_0V9*%
X92770000Y-108880400D03*
X92120000Y-108880400D03*
D15*
X73356000Y-93560000D03*
X73356000Y-91909000D03*
D14*
X94070000Y-108880400D03*
D15*
X74880000Y-91909000D03*
D14*
X90820000Y-110180400D03*
D15*
X70816000Y-95084000D03*
D14*
X93420000Y-108880400D03*
D15*
X66879000Y-93687000D03*
X66879000Y-95084000D03*
X74880000Y-93560000D03*
D14*
X90820000Y-109530400D03*
D15*
X70816000Y-93687000D03*
D14*
X92770000Y-109530400D03*
X91470000Y-109530400D03*
X92120000Y-109530400D03*
X93420000Y-109530400D03*
D15*
X80849000Y-95084000D03*
D14*
X91470000Y-110180400D03*
D15*
X78309000Y-95133000D03*
X79706000Y-95084000D03*
D14*
X94070000Y-109530400D03*
D16*
%TO.N,VDD_GPU_0V9*%
X118693462Y-86207528D03*
X118693462Y-87307528D03*
X119893462Y-86207528D03*
D14*
X93420000Y-113430400D03*
X92770000Y-114080400D03*
X94070000Y-113430400D03*
X94070000Y-114080400D03*
X92120000Y-113430400D03*
D16*
X118693462Y-88357528D03*
D14*
X93420000Y-114080400D03*
X92770000Y-113430400D03*
X92120000Y-114080400D03*
D15*
%TO.N,VDD_SOC_0V9*%
X96470000Y-90512000D03*
D14*
X96020000Y-111480400D03*
D15*
X93422000Y-95084000D03*
X96470000Y-93179000D03*
X92025000Y-93814000D03*
X94946000Y-93179000D03*
D14*
X96670000Y-108880400D03*
D15*
X93422000Y-93814000D03*
X92025000Y-95084000D03*
D14*
X96670000Y-109530400D03*
X94070000Y-111480400D03*
X93420000Y-111480400D03*
D15*
X103582000Y-92036000D03*
X98883000Y-90131000D03*
D14*
X96670000Y-112130400D03*
D15*
X100915000Y-90131000D03*
D14*
X92770000Y-111480400D03*
D15*
X99137000Y-94322000D03*
D14*
X96670000Y-112780400D03*
X96670000Y-111480400D03*
X96670000Y-110180400D03*
X96670000Y-113430400D03*
D15*
X96470000Y-91782000D03*
D14*
%TO.N,NVCC_SD1_1V8*%
X94070000Y-104330400D03*
D16*
%TO.N,VDD_VPU_0V9*%
X118693462Y-90157528D03*
D14*
X96020000Y-114080400D03*
X95370000Y-113430400D03*
X96020000Y-113430400D03*
D16*
X118693462Y-91257528D03*
X118693462Y-89107528D03*
D14*
X95370000Y-114080400D03*
D16*
X119893462Y-91257528D03*
D14*
%TO.N,NVCC_SD2*%
X95370000Y-104330400D03*
%TO.N,VDD_SNVS_0V9*%
X96670000Y-107580400D03*
D16*
%TO.N,NVCC_ENET_2V5*%
X60243462Y-116870028D03*
X63993462Y-111920028D03*
X66393462Y-111920028D03*
X63993462Y-121020028D03*
D14*
X97320000Y-107580400D03*
D16*
X60193462Y-114870028D03*
D14*
%TO.N,VDD_DRAM_0V9*%
X99920000Y-106930400D03*
X99920000Y-108230400D03*
X98620000Y-112130400D03*
X97970000Y-110180400D03*
X98620000Y-111480400D03*
D16*
X137843462Y-86857528D03*
D14*
X98620000Y-109530400D03*
X99920000Y-114730400D03*
X97970000Y-109530400D03*
X98620000Y-114080400D03*
X99920000Y-109530400D03*
X97970000Y-111480400D03*
D16*
X136643462Y-85757528D03*
X137843462Y-85757528D03*
D14*
X99920000Y-115380400D03*
X99270000Y-113430400D03*
X99920000Y-108880400D03*
D16*
X137843462Y-87907528D03*
D14*
X98620000Y-112780400D03*
X97970000Y-112130400D03*
X98620000Y-110180400D03*
X98620000Y-113430400D03*
%TO.N,NVCC_SNVS_3V3*%
X99270000Y-107580400D03*
%TO.N,USB1_TX_N*%
X92046777Y-122153623D03*
X87570000Y-111480400D03*
%TO.N,USB1_TX_P*%
X91693223Y-122507177D03*
X86920000Y-111480400D03*
%TO.N,USB1_RX_N*%
X93596777Y-122153623D03*
X87616097Y-112084303D03*
%TO.N,USB1_RX_P*%
X93243223Y-122507177D03*
X86966097Y-112084303D03*
%TO.N,USB1_DP*%
X86920000Y-110830400D03*
X90143223Y-122557177D03*
%TO.N,Net-(U1M-USB1_RESREF)*%
X86578131Y-112323939D03*
%TO.N,USB1_DN*%
X90496777Y-122203623D03*
X87570000Y-110830400D03*
%TO.N,Net-(U1M-USB2_RESREF)*%
X86396521Y-112744944D03*
%TO.N,USB1_VBUS*%
X88870000Y-110180400D03*
%TO.N,HDMI_SDA*%
X96020000Y-117980400D03*
%TO.N,HDMI_SCL*%
X96670000Y-117980400D03*
D16*
%TO.N,VDD_1V8*%
X77100000Y-111725000D03*
D14*
X110958000Y-108196400D03*
D16*
X78100000Y-108025000D03*
D14*
X107783000Y-107434400D03*
X115022000Y-107561400D03*
X77875481Y-104405014D03*
D16*
X110943000Y-81428000D03*
X77200000Y-112375000D03*
X127343462Y-97157528D03*
X126293462Y-97157528D03*
D14*
X111050980Y-113556192D03*
X107763200Y-114705600D03*
X117435000Y-114165400D03*
D16*
X77600000Y-113525000D03*
X76600000Y-113525000D03*
D14*
X117308000Y-107561400D03*
D16*
X125193462Y-95957528D03*
X125193462Y-97157528D03*
D14*
X114960757Y-114024897D03*
%TO.N,DRAM_DQ29*%
X101220000Y-115380400D03*
X114156200Y-115371800D03*
D16*
%TO.N,Net-(U4-VDDI)*%
X75211268Y-107875000D03*
%TO.N,Net-(U4-RCLK)*%
X78050000Y-110125000D03*
%TO.N,Net-(U4-NRST)*%
X78050000Y-110675000D03*
%TO.N,Net-(U4-CLK)*%
X78100000Y-111725000D03*
%TO.N,/IO/VDD1A*%
X67993462Y-121020028D03*
X69343462Y-114470028D03*
X69343462Y-118070028D03*
D14*
%TO.N,GPIO0*%
X97320000Y-116030400D03*
%TO.N,GPIO1*%
X96670000Y-115380400D03*
%TO.N,Net-(U9-COMP)*%
X72770000Y-88255400D03*
%TO.N,Net-(U10-VSNS)*%
X93041000Y-90639000D03*
%TO.N,Net-(U10-COMP)*%
X94946000Y-88480000D03*
%TO.N,Net-(U9-VSNS)*%
X72295000Y-89705400D03*
D16*
%TO.N,3.3V_SW_DELAYED*%
X113070981Y-87803014D03*
X111070981Y-87803014D03*
X125143462Y-82882528D03*
X85565481Y-88695014D03*
X77200000Y-109125000D03*
X59943462Y-123870028D03*
X62815481Y-89670014D03*
X85565481Y-89670014D03*
X115070981Y-87803014D03*
X62815481Y-88695014D03*
X84590481Y-88695014D03*
X110070981Y-87803014D03*
X124603462Y-80935028D03*
X59543462Y-121870028D03*
X62815481Y-86745014D03*
X84590481Y-87720014D03*
X84590481Y-89670014D03*
X108073661Y-87810622D03*
X63465481Y-86745014D03*
X62815481Y-85770014D03*
X62815481Y-87720014D03*
X79414310Y-110810690D03*
X85565481Y-87720014D03*
X111240481Y-86420014D03*
X114815481Y-86420014D03*
X111240481Y-85445014D03*
X113840481Y-86745014D03*
X85565481Y-85770014D03*
X63465481Y-85770014D03*
X80600000Y-110425000D03*
X114815481Y-85445014D03*
X109070981Y-87803014D03*
X109290481Y-87070014D03*
X114815481Y-84470014D03*
X78100000Y-109025000D03*
X108073661Y-86810622D03*
X112070981Y-87803014D03*
X84590481Y-86745014D03*
X85565481Y-86745014D03*
X112865481Y-86745014D03*
X63465481Y-88695014D03*
X114070981Y-87803014D03*
X63465481Y-87720014D03*
X84590481Y-85770014D03*
X63465481Y-89670014D03*
%TO.N,Net-(U5-REFCLK_SEL_0)*%
X65593462Y-121033228D03*
%TO.N,Net-(U5-REFCLK_SEL_1)*%
X65193462Y-121370028D03*
D14*
%TO.N,ENET_INT*%
X95370000Y-116030400D03*
D16*
%TO.N,ENET_NRST*%
X60943462Y-121770028D03*
D14*
%TO.N,DSI_D3_N*%
X87343223Y-122657177D03*
X86920000Y-109530400D03*
%TO.N,DSI_D1_N*%
X85743223Y-122607177D03*
X86920000Y-108880400D03*
%TO.N,DSI_D0_N*%
X84143223Y-122407177D03*
X86920000Y-108230400D03*
%TO.N,DSI_D2_N*%
X86920000Y-107580400D03*
X82743223Y-122607177D03*
%TO.N,DSI_D3_P*%
X87570000Y-109530400D03*
X87696777Y-122303623D03*
%TO.N,DSI_D1_P*%
X87570000Y-108880400D03*
X86096777Y-122253623D03*
%TO.N,DSI_D0_P*%
X87570000Y-108230400D03*
X84496777Y-122053623D03*
%TO.N,DSI_D2_P*%
X83096777Y-122253623D03*
X87570000Y-107580400D03*
%TO.N,DSI_CLK_N*%
X88843223Y-122607177D03*
X88220000Y-108880400D03*
%TO.N,DSI_CLK_P*%
X89196777Y-122253623D03*
X88870000Y-108880400D03*
%TO.N,USB2_DN*%
X78616777Y-125987177D03*
%TO.N,USB2_ID1*%
X80665481Y-128230400D03*
X88220000Y-113430400D03*
D16*
%TO.N,/IO/VDDMDIO*%
X60243462Y-118870028D03*
D14*
%TO.N,Net-(U1B-MTEST1_{slash}_MTEST1(ALERT_n)_{slash}_MTEST1)*%
X101870000Y-111480400D03*
%TO.N,DRAM_DQ31*%
X100570000Y-114080400D03*
X113511843Y-116680679D03*
%TO.N,/MPU/RTC_CLK*%
X114870000Y-97830400D03*
X98620000Y-104980400D03*
%TO.N,DRAM_CKB_P*%
X114239258Y-112810868D03*
%TO.N,DRAM_CKA_P*%
X113392835Y-108990434D03*
%TO.N,DRAM_CKB_N*%
X114992124Y-112012614D03*
%TO.N,DRAM_CKA_N*%
X114171165Y-108982028D03*
%TO.N,HDMI_AUX_P*%
X102665481Y-125780400D03*
%TO.N,HDMI_HDP*%
X98620000Y-117980400D03*
%TO.N,HDMI_CEC*%
X98620000Y-117330400D03*
%TO.N,HDMI_TX3_N*%
X95165481Y-125780400D03*
%TO.N,HDMI_TX2_N*%
X97165481Y-125780400D03*
%TO.N,HDMI_TX0_N*%
X100165481Y-125780400D03*
%TO.N,HDMI_TX1_N*%
X101165481Y-125730400D03*
%TO.N,HDMI_AUX_N*%
X103165481Y-125780400D03*
%TO.N,unconnected-(J1-eDP_TX3-{slash}LVDS_A_CK--PadA82)*%
X115165481Y-125020014D03*
%TO.N,unconnected-(J1-eDP_AUX+{slash}LVDS_I2C_CK-PadA83)*%
X115165481Y-125470014D03*
%TO.N,unconnected-(J1-GPI3-PadA85)*%
X113665481Y-127420014D03*
%TO.N,unconnected-(J1-RSVD-PadA86)*%
X113665481Y-127870014D03*
%TO.N,unconnected-(J1-PCIE_CLK_REF+-PadA88)*%
X118165481Y-125620014D03*
%TO.N,unconnected-(J1-PCIE_CLK_REF--PadA89)*%
X118165481Y-126070014D03*
%TO.N,unconnected-(J1-SPI_POWER-PadA91)*%
X117165481Y-126820014D03*
%TO.N,unconnected-(J1-SPI_MISO_(\u002A\u002A)-PadA92)*%
X117165481Y-127270014D03*
%TO.N,USB2_VBUS*%
X88870000Y-114080400D03*
X81165481Y-128255014D03*
%TO.N,Net-(U1L-MIPI_DSI_REXT)*%
X88220000Y-108230400D03*
%TO.N,unconnected-(J1-RSVD-PadB52)*%
X101165481Y-128255014D03*
%TO.N,unconnected-(J1-GPO1-PadB54)*%
X102165481Y-128255014D03*
%TO.N,unconnected-(J1-RSVD-PadB55)*%
X102665481Y-128255014D03*
%TO.N,unconnected-(J1-GPO2-PadB57)*%
X103665481Y-128255014D03*
%TO.N,unconnected-(J1-PCIE_RX3+-PadB58)*%
X104165481Y-128255014D03*
%TO.N,unconnected-(J1-GND(FIXED)-PadB60)*%
X105165481Y-128255014D03*
%TO.N,unconnected-(J1-PCIE_RX2+-PadB61)*%
X105665481Y-128255014D03*
%TO.N,unconnected-(J1-GPO3-PadB63)*%
X106665481Y-128255014D03*
%TO.N,unconnected-(J1-PCIE_RX1+-PadB64)*%
X107165481Y-128255014D03*
%TO.N,PCIE2_TXN*%
X91665481Y-128245332D03*
%TO.N,PCIE2_TXP*%
X92165481Y-128245332D03*
%TO.N,PCIE1_RXN*%
X91460000Y-102870900D03*
X98165481Y-128255014D03*
%TO.N,PCIE1_REF_CLKN*%
X99165481Y-128255014D03*
X92720000Y-102430400D03*
%TD*%
D17*
%TO.N,DRAM_DQ25*%
X99322600Y-118369000D02*
X99576600Y-118115000D01*
X117356600Y-118826200D02*
X115477000Y-120705800D01*
X99576600Y-117657800D02*
X99904000Y-117330400D01*
X99576600Y-118115000D02*
X99576600Y-117657800D01*
X115477000Y-120705800D02*
X100440200Y-120705800D01*
X100440200Y-120705800D02*
X99322600Y-119588200D01*
X99904000Y-117330400D02*
X99920000Y-117330400D01*
X99322600Y-119588200D02*
X99322600Y-118369000D01*
X117356600Y-116692600D02*
X117356600Y-118826200D01*
%TO.N,DRAM_DQ24*%
X110856679Y-119192101D02*
X110856679Y-119144858D01*
X107856679Y-119144876D02*
X107856679Y-119192101D01*
X110256679Y-119144858D02*
X110256679Y-119192101D01*
X115088974Y-119492101D02*
X114756679Y-119492101D01*
X111456679Y-119144858D02*
X111456679Y-119192101D01*
X106093206Y-118986938D02*
X106093206Y-118939713D01*
X113856679Y-119144858D02*
X113856679Y-119192101D01*
X114456679Y-119192101D02*
X114456679Y-119144858D01*
X112656679Y-119144858D02*
X112656679Y-119192101D01*
X109656679Y-119192101D02*
X109656679Y-119144858D01*
X100970022Y-118275400D02*
X100865000Y-118170378D01*
X103165830Y-119286938D02*
X102705092Y-118826200D01*
X116188200Y-118572200D02*
X116008875Y-118572200D01*
X100865000Y-117858206D02*
X100570000Y-117563206D01*
X116008875Y-118572200D02*
X115088974Y-119492101D01*
X106598369Y-119492101D02*
X106393206Y-119286938D01*
X102705092Y-118826200D02*
X102032167Y-118826200D01*
X105493206Y-118939713D02*
X105493206Y-118986938D01*
X103993206Y-119286938D02*
X103343206Y-119286938D01*
X104293206Y-118939713D02*
X104293206Y-118986938D01*
X108456679Y-119192101D02*
X108456679Y-119144876D01*
X102032167Y-118826200D02*
X101481367Y-118275400D01*
X106906679Y-119492101D02*
X106598369Y-119492101D01*
X100570000Y-117563206D02*
X100570000Y-117330400D01*
X113256679Y-119192101D02*
X113256679Y-119144858D01*
X103343206Y-119286938D02*
X103165830Y-119286938D01*
X101481367Y-118275400D02*
X100970022Y-118275400D01*
X107556679Y-119492101D02*
X106906679Y-119492101D01*
X109056679Y-119144858D02*
X109056679Y-119192101D01*
X100865000Y-118170378D02*
X100865000Y-117858206D01*
X104893206Y-118986938D02*
X104893206Y-118939713D01*
X112056679Y-119192101D02*
X112056679Y-119144858D01*
X112056679Y-119144858D02*
G75*
G03*
X111756679Y-118844921I-299979J-42D01*
G01*
X111756679Y-118844858D02*
G75*
G03*
X111456658Y-119144858I21J-300042D01*
G01*
X104893206Y-118939713D02*
G75*
G03*
X104593206Y-118639694I-300006J13D01*
G01*
X109056679Y-119192101D02*
G75*
G02*
X108756679Y-119492079I-299979J1D01*
G01*
X104593206Y-118639713D02*
G75*
G03*
X104293213Y-118939713I-6J-299987D01*
G01*
X107856679Y-119192101D02*
G75*
G02*
X107556679Y-119492079I-299979J1D01*
G01*
X108756679Y-119492101D02*
G75*
G02*
X108456699Y-119192101I21J300001D01*
G01*
X113256679Y-119144858D02*
G75*
G03*
X112956679Y-118844921I-299979J-42D01*
G01*
X108456679Y-119144876D02*
G75*
G03*
X108156679Y-118844921I-299979J-24D01*
G01*
X110856679Y-119144858D02*
G75*
G03*
X110556679Y-118844921I-299979J-42D01*
G01*
X110556679Y-118844858D02*
G75*
G03*
X110256658Y-119144858I21J-300042D01*
G01*
X114756679Y-119492101D02*
G75*
G02*
X114456699Y-119192101I21J300001D01*
G01*
X109956679Y-119492101D02*
G75*
G02*
X109656699Y-119192101I21J300001D01*
G01*
X109356679Y-118844858D02*
G75*
G03*
X109056658Y-119144858I21J-300042D01*
G01*
X113556679Y-119492101D02*
G75*
G02*
X113256699Y-119192101I21J300001D01*
G01*
X112656679Y-119192101D02*
G75*
G02*
X112356679Y-119492079I-299979J1D01*
G01*
X105793206Y-118639713D02*
G75*
G03*
X105493213Y-118939713I-6J-299987D01*
G01*
X104293206Y-118986938D02*
G75*
G02*
X103993206Y-119286906I-300006J38D01*
G01*
X106093206Y-118939713D02*
G75*
G03*
X105793206Y-118639694I-300006J13D01*
G01*
X106393206Y-119286938D02*
G75*
G02*
X106093162Y-118986938I-6J300038D01*
G01*
X113856679Y-119192101D02*
G75*
G02*
X113556679Y-119492079I-299979J1D01*
G01*
X108156679Y-118844876D02*
G75*
G03*
X107856676Y-119144876I21J-300024D01*
G01*
X114456679Y-119144858D02*
G75*
G03*
X114156679Y-118844921I-299979J-42D01*
G01*
X111156679Y-119492101D02*
G75*
G02*
X110856699Y-119192101I21J300001D01*
G01*
X112956679Y-118844858D02*
G75*
G03*
X112656658Y-119144858I21J-300042D01*
G01*
X111456679Y-119192101D02*
G75*
G02*
X111156679Y-119492079I-299979J1D01*
G01*
X110256679Y-119192101D02*
G75*
G02*
X109956679Y-119492079I-299979J1D01*
G01*
X105193206Y-119286938D02*
G75*
G02*
X104893162Y-118986938I-6J300038D01*
G01*
X114156679Y-118844858D02*
G75*
G03*
X113856658Y-119144858I21J-300042D01*
G01*
X105493206Y-118986938D02*
G75*
G02*
X105193206Y-119286906I-300006J38D01*
G01*
X109656679Y-119144858D02*
G75*
G03*
X109356679Y-118844921I-299979J-42D01*
G01*
X112356679Y-119492101D02*
G75*
G02*
X112056699Y-119192101I21J300001D01*
G01*
%TO.N,DRAM_DQ26*%
X102710902Y-120173549D02*
X102710902Y-120173548D01*
X115371872Y-120353696D02*
X116899400Y-118826168D01*
X105830755Y-120353696D02*
X115371872Y-120353696D01*
X99625000Y-118508206D02*
X99625000Y-119402594D01*
X100576102Y-120353696D02*
X102530755Y-120353696D01*
X116899400Y-115575000D02*
X116594600Y-115270200D01*
X99625000Y-119402594D02*
X100576102Y-120353696D01*
X103991049Y-119993401D02*
X104180755Y-119993401D01*
X104360902Y-120173548D02*
X104360902Y-120173549D01*
X103441049Y-120353696D02*
X103630755Y-120353696D01*
X105460902Y-120173548D02*
X105460902Y-120173549D01*
X102891049Y-119993401D02*
X103080755Y-119993401D01*
X99920000Y-117980400D02*
X99920000Y-118213206D01*
X105091049Y-119993401D02*
X105280755Y-119993401D01*
X103810902Y-120173549D02*
X103810902Y-120173548D01*
X103260902Y-120173548D02*
X103260902Y-120173549D01*
X105641049Y-120353696D02*
X105830755Y-120353696D01*
X104541049Y-120353696D02*
X104730755Y-120353696D01*
X104910902Y-120173549D02*
X104910902Y-120173548D01*
X116899400Y-118826168D02*
X116899400Y-115575000D01*
X99920000Y-118213206D02*
X99625000Y-118508206D01*
X104910902Y-120173548D02*
G75*
G02*
X105091049Y-119993402I180098J48D01*
G01*
X105280755Y-119993401D02*
G75*
G02*
X105460899Y-120173548I45J-180099D01*
G01*
X105460902Y-120173549D02*
G75*
G03*
X105641049Y-120353598I180098J49D01*
G01*
X103260902Y-120173549D02*
G75*
G03*
X103441049Y-120353598I180098J49D01*
G01*
X103630755Y-120353696D02*
G75*
G03*
X103810996Y-120173549I45J180196D01*
G01*
X102530755Y-120353696D02*
G75*
G03*
X102710996Y-120173549I45J180196D01*
G01*
X103080755Y-119993401D02*
G75*
G02*
X103260899Y-120173548I45J-180099D01*
G01*
X104180755Y-119993401D02*
G75*
G02*
X104360899Y-120173548I45J-180099D01*
G01*
X103810902Y-120173548D02*
G75*
G02*
X103991049Y-119993402I180098J48D01*
G01*
X104730755Y-120353696D02*
G75*
G03*
X104910996Y-120173549I45J180196D01*
G01*
X104360902Y-120173549D02*
G75*
G03*
X104541049Y-120353598I180098J49D01*
G01*
X102710902Y-120173548D02*
G75*
G02*
X102891049Y-119993402I180098J48D01*
G01*
%TO.N,DRAM_DQ28*%
X101730498Y-113755829D02*
X101803495Y-113725593D01*
X102203495Y-114422807D02*
X102243000Y-114424200D01*
X101643000Y-113924200D02*
X101644393Y-113884695D01*
X107151098Y-113368771D02*
X107224095Y-113399007D01*
X105864993Y-112910895D02*
X105895229Y-112837898D01*
X114293000Y-113874200D02*
X114293000Y-114024200D01*
X107224095Y-113399007D02*
X107263600Y-113400400D01*
X105463600Y-112950400D02*
X105463600Y-113200400D01*
X107393255Y-113399487D02*
X107448051Y-113376790D01*
X107489990Y-113334851D02*
X107512687Y-113280055D01*
X106263600Y-113200400D02*
X106264993Y-113239905D01*
X106263600Y-112950400D02*
X106263600Y-113200400D01*
X113261371Y-113061698D02*
X113291607Y-113134695D01*
X114929400Y-114660600D02*
X114969000Y-114660600D01*
X105895229Y-112837898D02*
X105951098Y-112782029D01*
X113324629Y-113386702D02*
X113380498Y-113442571D01*
X101555502Y-114392571D02*
X101611371Y-114336702D01*
X105495229Y-113312902D02*
X105551098Y-113368771D01*
X107763600Y-113100400D02*
X107793255Y-113101313D01*
X107937210Y-113334851D02*
X107979149Y-113376790D01*
X102904158Y-114157375D02*
X102983295Y-114157385D01*
X113493000Y-113474200D02*
X113893000Y-113474200D01*
X108424095Y-112751793D02*
X108463600Y-112750400D01*
X103501040Y-114067007D02*
X103474066Y-114038109D01*
X101674629Y-113811698D02*
X101730498Y-113755829D01*
X105063600Y-112950400D02*
X105064993Y-112910895D01*
X105703105Y-113399007D02*
X105776102Y-113368771D01*
X106503105Y-113399007D02*
X106576102Y-113368771D01*
X103531256Y-114219030D02*
X103531264Y-114140014D01*
X113291607Y-113134695D02*
X113293000Y-113174200D01*
X112061371Y-113386702D02*
X112061371Y-113146727D01*
X105776102Y-113368771D02*
X105831971Y-113312902D01*
X103310448Y-113751038D02*
X103340736Y-113677907D01*
X114293000Y-114024200D02*
X114929400Y-114660600D01*
X107537210Y-113165949D02*
X107579149Y-113124010D01*
X112694393Y-113472807D02*
X112924629Y-113242571D01*
X113293000Y-113174200D02*
X113293000Y-113274200D01*
X108463600Y-112750400D02*
X108503105Y-112751793D01*
X105462207Y-112910895D02*
X105463600Y-112950400D01*
X108664993Y-113239905D02*
X108695229Y-113312902D01*
X107363600Y-113400400D02*
X107393255Y-113399487D01*
X108751098Y-113368771D02*
X108831971Y-113368771D01*
X106264993Y-113239905D02*
X106295229Y-113312902D01*
X108263600Y-112950400D02*
X108264993Y-112910895D01*
X101955502Y-113755829D02*
X102011371Y-113811698D01*
X106663600Y-113200400D02*
X106663600Y-112950400D01*
X100570000Y-114730400D02*
X100876200Y-114424200D01*
X105464993Y-113239905D02*
X105495229Y-113312902D01*
X102044393Y-114263705D02*
X102074629Y-114336702D01*
X112461371Y-112961698D02*
X112461371Y-113280683D01*
X101641607Y-114263705D02*
X101643000Y-114224200D01*
X107062207Y-112910895D02*
X107063600Y-112950400D01*
X103368000Y-113649200D02*
X103616800Y-113400400D01*
X105624095Y-113399007D02*
X105663600Y-113400400D01*
X107912687Y-113220745D02*
X107914513Y-113280055D01*
X101803495Y-113725593D02*
X101843000Y-113724200D01*
X111554120Y-113851192D02*
X111932505Y-113472807D01*
X108695229Y-113312902D02*
X108751098Y-113368771D01*
X108503105Y-112751793D02*
X108576102Y-112782029D01*
X106695229Y-112837898D02*
X106751098Y-112782029D01*
X112332505Y-112875593D02*
X112405502Y-112905829D01*
X110128406Y-113691600D02*
X110315994Y-113691600D01*
X103445108Y-114347852D02*
X103474065Y-114320952D01*
X105663600Y-113400400D02*
X105703105Y-113399007D01*
X103191223Y-114320950D02*
X103220144Y-114347887D01*
X107512687Y-113280055D02*
X107514513Y-113220745D01*
X102011371Y-113811698D02*
X102041607Y-113884695D01*
X108295229Y-112837898D02*
X108351098Y-112782029D01*
X112405502Y-112905829D02*
X112461371Y-112961698D01*
X105031971Y-113312902D02*
X105062207Y-113239905D01*
X103531264Y-114140014D02*
X103501040Y-114067007D01*
X106663600Y-112950400D02*
X106664993Y-112910895D01*
X107514513Y-113220745D02*
X107537210Y-113165949D01*
X106103105Y-112751793D02*
X106176102Y-112782029D01*
X108662207Y-112910895D02*
X108663600Y-112950400D01*
X105463600Y-113200400D02*
X105464993Y-113239905D01*
X105431971Y-112837898D02*
X105462207Y-112910895D01*
X108351098Y-112782029D02*
X108424095Y-112751793D01*
X103340754Y-113903319D02*
X103310454Y-113830193D01*
X109949600Y-113512794D02*
X110128406Y-113691600D01*
X112461371Y-113280683D02*
X112653495Y-113472807D01*
X113294393Y-113313705D02*
X113324629Y-113386702D01*
X102043000Y-113924200D02*
X102043000Y-114224200D01*
X106424095Y-113399007D02*
X106463600Y-113400400D01*
X106751098Y-112782029D02*
X106824095Y-112751793D01*
X105063600Y-113200400D02*
X105063600Y-112950400D01*
X108231971Y-113312902D02*
X108262207Y-113239905D01*
X106576102Y-113368771D02*
X106631971Y-113312902D01*
X106463600Y-113400400D02*
X106503105Y-113399007D01*
X107663600Y-113100400D02*
X107763600Y-113100400D01*
X106295229Y-113312902D02*
X106351098Y-113368771D01*
X111932505Y-113472807D02*
X112005502Y-113442571D01*
X101643000Y-114224200D02*
X101643000Y-113924200D01*
X109820020Y-112811426D02*
X110104194Y-113095600D01*
X109949600Y-113268406D02*
X109949600Y-113512794D01*
X103220144Y-114347887D02*
X103293133Y-114378102D01*
X107064993Y-113239905D02*
X107095229Y-113312902D01*
X108576102Y-112782029D02*
X108631971Y-112837898D01*
X105062207Y-113239905D02*
X105063600Y-113200400D01*
X109504194Y-113679800D02*
X109791692Y-113392302D01*
X105303105Y-112751793D02*
X105376102Y-112782029D01*
X105863600Y-112950400D02*
X105864993Y-112910895D01*
X102130498Y-114392571D02*
X102203495Y-114422807D01*
X100876200Y-114424200D02*
X101443000Y-114424200D01*
X106262207Y-112910895D02*
X106263600Y-112950400D01*
X106976102Y-112782029D02*
X107031971Y-112837898D01*
X107848051Y-113124010D02*
X107889990Y-113165949D01*
X108663600Y-113200400D02*
X108664993Y-113239905D01*
X107448051Y-113376790D02*
X107489990Y-113334851D01*
X105095229Y-112837898D02*
X105151098Y-112782029D01*
X103085159Y-114214883D02*
X103191223Y-114320950D01*
X106231971Y-112837898D02*
X106262207Y-112910895D01*
X107263600Y-113400400D02*
X107363600Y-113400400D01*
X109791692Y-113392302D02*
X109791692Y-112811426D01*
X108176102Y-113368771D02*
X108231971Y-113312902D01*
X102041607Y-113884695D02*
X102043000Y-113924200D01*
X108264993Y-112910895D02*
X108295229Y-112837898D01*
X105862207Y-113239905D02*
X105863600Y-113200400D01*
X107793255Y-113101313D02*
X107848051Y-113124010D01*
X106024095Y-112751793D02*
X106063600Y-112750400D01*
X103293133Y-114378102D02*
X103372129Y-114378090D01*
X106863600Y-112750400D02*
X106903105Y-112751793D01*
X107063600Y-113200400D02*
X107064993Y-113239905D01*
X112924629Y-113242571D02*
X112924629Y-113183469D01*
X109143000Y-113679800D02*
X109504194Y-113679800D01*
X105376102Y-112782029D02*
X105431971Y-112837898D01*
X106176102Y-112782029D02*
X106231971Y-112837898D01*
X103474066Y-114038109D02*
X103368001Y-113932043D01*
X101843000Y-113724200D02*
X101882505Y-113725593D01*
X110104194Y-113095600D02*
X110104194Y-113113812D01*
X107633945Y-113101313D02*
X107663600Y-113100400D01*
X104976102Y-113368771D02*
X105031971Y-113312902D01*
X106063600Y-112750400D02*
X106103105Y-112751793D01*
X105951098Y-112782029D02*
X106024095Y-112751793D01*
X105831971Y-113312902D02*
X105862207Y-113239905D01*
X106662207Y-113239905D02*
X106663600Y-113200400D01*
X107063600Y-112950400D02*
X107063600Y-113200400D01*
X109791692Y-112811426D02*
X109820020Y-112811426D01*
X106903105Y-112751793D02*
X106976102Y-112782029D01*
X102043000Y-114224200D02*
X102044393Y-114263705D01*
X102983295Y-114157385D02*
X103056403Y-114187680D01*
X105863600Y-113200400D02*
X105863600Y-112950400D01*
X105151098Y-112782029D02*
X105224095Y-112751793D01*
X105064993Y-112910895D02*
X105095229Y-112837898D01*
X103310454Y-113830193D02*
X103310448Y-113751038D01*
X104863600Y-113400400D02*
X104903105Y-113399007D01*
X110475586Y-113851192D02*
X111554120Y-113851192D01*
X102802316Y-114214884D02*
X102831041Y-114187651D01*
X103368001Y-113932043D02*
X103340754Y-113903319D01*
X108263600Y-113200400D02*
X108263600Y-112950400D01*
X108831971Y-113368771D02*
X109143000Y-113679800D01*
X106664993Y-112910895D02*
X106695229Y-112837898D01*
X107579149Y-113124010D02*
X107633945Y-113101313D01*
X107095229Y-113312902D02*
X107151098Y-113368771D01*
X102074629Y-114336702D02*
X102130498Y-114392571D01*
X103474065Y-114320952D02*
X103501015Y-114292030D01*
X102831041Y-114187651D02*
X102904158Y-114157375D01*
X105224095Y-112751793D02*
X105263600Y-112750400D01*
X101482505Y-114422807D02*
X101555502Y-114392571D01*
X101882505Y-113725593D02*
X101955502Y-113755829D01*
X107889990Y-113165949D02*
X107912687Y-113220745D01*
X108631971Y-112837898D02*
X108662207Y-112910895D01*
X103340736Y-113677907D02*
X103368000Y-113649200D01*
X110104194Y-113113812D02*
X109949600Y-113268406D01*
X113893000Y-113474200D02*
X114293000Y-113874200D01*
X110315994Y-113691600D02*
X110475586Y-113851192D01*
X106631971Y-113312902D02*
X106662207Y-113239905D01*
X101644393Y-113884695D02*
X101674629Y-113811698D01*
X113380498Y-113442571D02*
X113453495Y-113472807D01*
X112005502Y-113442571D02*
X112061371Y-113386702D01*
X113132505Y-112975593D02*
X113205502Y-113005829D01*
X108103105Y-113399007D02*
X108176102Y-113368771D01*
X113453495Y-113472807D02*
X113493000Y-113474200D01*
X108033945Y-113399487D02*
X108063600Y-113400400D01*
X105551098Y-113368771D02*
X105624095Y-113399007D01*
X104903105Y-113399007D02*
X104976102Y-113368771D01*
X113293000Y-113274200D02*
X113294393Y-113313705D01*
X108663600Y-112950400D02*
X108663600Y-113200400D01*
X106824095Y-112751793D02*
X106863600Y-112750400D01*
X112061371Y-113146727D02*
X112332505Y-112875593D01*
X105263600Y-112750400D02*
X105303105Y-112751793D01*
X107914513Y-113280055D02*
X107937210Y-113334851D01*
X101443000Y-114424200D02*
X101482505Y-114422807D01*
X108063600Y-113400400D02*
X108103105Y-113399007D01*
X113205502Y-113005829D02*
X113261371Y-113061698D01*
X103501015Y-114292030D02*
X103531256Y-114219030D01*
X107031971Y-112837898D02*
X107062207Y-112910895D01*
X102593000Y-114424200D02*
X102802316Y-114214884D01*
X112924629Y-113183469D02*
X113132505Y-112975593D01*
X101611371Y-114336702D02*
X101641607Y-114263705D01*
X107979149Y-113376790D02*
X108033945Y-113399487D01*
X112653495Y-113472807D02*
X112694393Y-113472807D01*
X106351098Y-113368771D02*
X106424095Y-113399007D01*
X103372129Y-114378090D02*
X103445108Y-114347852D01*
X103056403Y-114187680D02*
X103085159Y-114214883D01*
X102243000Y-114424200D02*
X102593000Y-114424200D01*
X103616800Y-113400400D02*
X104863600Y-113400400D01*
X108262207Y-113239905D02*
X108263600Y-113200400D01*
%TO.N,DRAM_DQ27*%
X100632194Y-118275400D02*
X100441396Y-118275400D01*
X116299600Y-115534000D02*
X116594600Y-115829000D01*
X101650512Y-119242400D02*
X101333512Y-118925400D01*
X101173687Y-118925400D02*
X101169430Y-118929657D01*
X100275000Y-116324200D02*
X99981200Y-116030400D01*
X101333512Y-118925400D02*
X101173687Y-118925400D01*
X100275000Y-118109004D02*
X100275000Y-116324200D01*
X99981200Y-116030400D02*
X99920000Y-116030400D01*
X101169430Y-118929657D02*
X101102063Y-118929657D01*
X116299600Y-114904800D02*
X116299600Y-115534000D01*
X115205025Y-119972569D02*
X106569655Y-119972569D01*
X106297420Y-119700334D02*
X102806577Y-119700334D01*
X116594600Y-118582994D02*
X115205025Y-119972569D01*
X116543800Y-114660600D02*
X116299600Y-114904800D01*
X100865000Y-118692594D02*
X100865000Y-118508206D01*
X101102063Y-118929657D02*
X100865000Y-118692594D01*
X100865000Y-118508206D02*
X100632194Y-118275400D01*
X102806577Y-119700334D02*
X102348643Y-119242400D01*
X106569655Y-119972569D02*
X106297420Y-119700334D01*
X100441396Y-118275400D02*
X100275000Y-118109004D01*
X116594600Y-115829000D02*
X116594600Y-118582994D01*
X102348643Y-119242400D02*
X101650512Y-119242400D01*
%TO.N,DRAM_DQ30*%
X105905502Y-116043771D02*
X105761371Y-116043771D01*
X103161371Y-115987902D02*
X103105502Y-116043771D01*
X105761371Y-116043771D02*
X105593000Y-115875400D01*
X110343000Y-115401400D02*
X110308420Y-115400247D01*
X113384779Y-116975179D02*
X113202000Y-116792400D01*
X105353495Y-115276793D02*
X105280498Y-115307029D01*
X103191607Y-115914905D02*
X103161371Y-115987902D01*
X103393000Y-115675400D02*
X103353495Y-115676793D01*
X113202000Y-115483200D02*
X112770200Y-115051400D01*
X108527580Y-115052553D02*
X108493000Y-115051400D01*
X114868000Y-116099200D02*
X114318000Y-116099200D01*
X106553495Y-116074007D02*
X106480498Y-116043771D01*
X104411371Y-115496188D02*
X104411371Y-115866131D01*
X114193000Y-116625179D02*
X113843000Y-116975179D01*
X105593000Y-115875400D02*
X105593000Y-115516298D01*
X104130498Y-116043771D02*
X104074629Y-115987902D01*
X112770200Y-115051400D02*
X111966994Y-115051400D01*
X103280498Y-115707029D02*
X103224629Y-115762898D01*
X110308420Y-115400247D02*
X110244524Y-115373780D01*
X108591476Y-115149876D02*
X108591476Y-115079020D01*
X108591476Y-115079020D02*
X108527580Y-115052553D01*
X104963345Y-115674487D02*
X104908549Y-115651790D01*
X103843000Y-115675400D02*
X103393000Y-115675400D01*
X103955502Y-115707029D02*
X103882505Y-115676793D01*
X111422800Y-115249606D02*
X111422800Y-115295504D01*
X110658420Y-115052553D02*
X110594524Y-115079020D01*
X104411371Y-115866131D02*
X104203495Y-116074007D01*
X106824629Y-115802873D02*
X106553495Y-116074007D01*
X100865000Y-115675400D02*
X100570000Y-115380400D01*
X109993000Y-115051400D02*
X109193000Y-115051400D01*
X103105502Y-116043771D02*
X103032505Y-116074007D01*
X110594524Y-115149876D02*
X110343000Y-115401400D01*
X108877580Y-115400247D02*
X108843000Y-115401400D01*
X104203495Y-116074007D02*
X104130498Y-116043771D01*
X105224629Y-115362898D02*
X105224629Y-115413203D01*
X110244524Y-115373780D02*
X110244524Y-115302924D01*
X103194393Y-115835895D02*
X103191607Y-115914905D01*
X108941476Y-115302924D02*
X108941476Y-115373780D01*
X104074629Y-115987902D02*
X104044393Y-115914905D01*
X111595606Y-115076800D02*
X111422800Y-115249606D01*
X105961371Y-115987902D02*
X105905502Y-116043771D01*
X110693000Y-115051400D02*
X110658420Y-115052553D01*
X114993000Y-116224200D02*
X114868000Y-116099200D01*
X110594524Y-115079020D02*
X110594524Y-115149876D01*
X104041607Y-115835895D02*
X104011371Y-115762898D01*
X113202000Y-116792400D02*
X113202000Y-115483200D01*
X108843000Y-115401400D02*
X108591476Y-115149876D01*
X102761371Y-115762898D02*
X102705502Y-115707029D01*
X104508549Y-115399010D02*
X104411371Y-115496188D01*
X104908549Y-115651790D02*
X104866610Y-115609851D01*
X114318000Y-116099200D02*
X114193000Y-116224200D01*
X103224629Y-115762898D02*
X103194393Y-115835895D01*
X102632505Y-115676793D02*
X102593000Y-115675400D01*
X106193000Y-115275400D02*
X105961371Y-115507029D01*
X105224629Y-115413203D02*
X104963345Y-115674487D01*
X109193000Y-115051400D02*
X108941476Y-115302924D01*
X114193000Y-116224200D02*
X114193000Y-116625179D01*
X102791607Y-115835895D02*
X102761371Y-115762898D01*
X113843000Y-116975179D02*
X113384779Y-116975179D01*
X104011371Y-115762898D02*
X103955502Y-115707029D01*
X104044393Y-115914905D02*
X104041607Y-115835895D01*
X106424629Y-115987902D02*
X106424629Y-115468917D01*
X102880498Y-116043771D02*
X102824629Y-115987902D01*
X106424629Y-115468917D02*
X106232505Y-115276793D01*
X102953495Y-116074007D02*
X102880498Y-116043771D01*
X102993000Y-116075400D02*
X102953495Y-116074007D01*
X108941476Y-115373780D02*
X108877580Y-115400247D01*
X104563345Y-115376313D02*
X104508549Y-115399010D01*
X102794393Y-115914905D02*
X102791607Y-115835895D01*
X111941594Y-115076800D02*
X111595606Y-115076800D01*
X111015380Y-115373780D02*
X110693000Y-115051400D01*
X114993000Y-117800200D02*
X114993000Y-116224200D01*
X103353495Y-115676793D02*
X103280498Y-115707029D01*
X106824629Y-115762898D02*
X106824629Y-115802873D01*
X106480498Y-116043771D02*
X106424629Y-115987902D01*
X107837371Y-115707029D02*
X106880498Y-115707029D01*
X110244524Y-115302924D02*
X109993000Y-115051400D01*
X111966994Y-115051400D02*
X111941594Y-115076800D01*
X105280498Y-115307029D02*
X105224629Y-115362898D01*
X102705502Y-115707029D02*
X102632505Y-115676793D01*
X104796883Y-115609851D02*
X104563345Y-115376313D01*
X104866610Y-115609851D02*
X104796883Y-115609851D01*
X102824629Y-115987902D02*
X102794393Y-115914905D01*
X105961371Y-115507029D02*
X105961371Y-115987902D01*
X106232505Y-115276793D02*
X106193000Y-115275400D01*
X102593000Y-115675400D02*
X100865000Y-115675400D01*
X111422800Y-115295504D02*
X111344524Y-115373780D01*
X106880498Y-115707029D02*
X106824629Y-115762898D01*
X108493000Y-115051400D02*
X107837371Y-115707029D01*
X103032505Y-116074007D02*
X102993000Y-116075400D01*
X105593000Y-115516298D02*
X105353495Y-115276793D01*
X114969000Y-117824200D02*
X114993000Y-117800200D01*
X111344524Y-115373780D02*
X111015380Y-115373780D01*
X103882505Y-115676793D02*
X103843000Y-115675400D01*
%TO.N,DRAM_DQ15*%
X106188072Y-109575749D02*
X105782114Y-109169791D01*
X112894000Y-108812800D02*
X112538400Y-109168400D01*
X103859400Y-110187568D02*
X103859400Y-109449400D01*
X106259780Y-110440010D02*
X106188072Y-110387906D01*
X104392853Y-110170630D02*
X104096080Y-110467403D01*
X112538400Y-109168400D02*
X112078394Y-109168400D01*
X105064072Y-110387906D02*
X105064072Y-109575749D01*
X112078394Y-109168400D02*
X112043194Y-109133200D01*
X103859400Y-109449400D02*
X103858009Y-109405114D01*
X105135780Y-110440010D02*
X105064072Y-110387906D01*
X111662006Y-109168400D02*
X106831044Y-109168400D01*
X105220080Y-110467403D02*
X105135780Y-110440010D01*
X103778578Y-109249222D02*
X103706922Y-109197161D01*
X105697878Y-109197161D02*
X105626222Y-109249222D01*
X105626222Y-110061261D02*
X105220080Y-110467403D01*
X103887976Y-110316191D02*
X103860592Y-110231888D01*
X105626222Y-109249222D02*
X105626222Y-110061261D01*
X112894000Y-105625400D02*
X112894000Y-107238000D01*
X104096080Y-110467403D02*
X104011780Y-110440010D01*
X106831044Y-109168400D02*
X106750222Y-109249222D01*
X113244000Y-105275400D02*
X112894000Y-105625400D01*
X112799908Y-108559908D02*
X112894000Y-108654000D01*
X105064072Y-109575749D02*
X104658114Y-109169791D01*
X106750222Y-109249222D02*
X106750222Y-110061261D01*
X103578400Y-109168400D02*
X103394400Y-109168400D01*
X103860592Y-110231888D02*
X103859400Y-110187568D01*
X103858009Y-109405114D02*
X103830639Y-109320878D01*
X111697206Y-109133200D02*
X111662006Y-109168400D01*
X103622686Y-109169791D02*
X103578400Y-109168400D01*
X103706922Y-109197161D02*
X103622686Y-109169791D01*
X103830639Y-109320878D02*
X103778578Y-109249222D01*
X112894000Y-108654000D02*
X112894000Y-108812800D01*
X105782114Y-109169791D02*
X105697878Y-109197161D01*
X106188072Y-110387906D02*
X106188072Y-109575749D01*
X112894000Y-107238000D02*
X112799908Y-107332092D01*
X106750222Y-110061261D02*
X106344080Y-110467403D01*
X102751400Y-108525400D02*
X100865000Y-108525400D01*
X104011780Y-110440010D02*
X103940072Y-110387906D01*
X112043194Y-109133200D02*
X111697206Y-109133200D01*
X104658114Y-109169791D02*
X104573878Y-109197161D01*
X103394400Y-109168400D02*
X102751400Y-108525400D01*
X112799908Y-107332092D02*
X112799908Y-108559908D01*
X104573878Y-109197161D02*
X104392853Y-109378186D01*
X106344080Y-110467403D02*
X106259780Y-110440010D01*
X100865000Y-108525400D02*
X100570000Y-108230400D01*
X103940072Y-110387906D02*
X103887976Y-110316191D01*
X104392853Y-109378186D02*
X104392853Y-110170630D01*
%TO.N,DRAM_DQ12*%
X110658800Y-107856400D02*
X111107200Y-107856400D01*
X104392200Y-108592936D02*
X104392200Y-108087400D01*
X112187000Y-106776600D02*
X112187000Y-105760600D01*
X102883000Y-107285400D02*
X103454000Y-107856400D01*
X106240200Y-108592936D02*
X106240200Y-108087400D01*
X100865000Y-107285400D02*
X102883000Y-107285400D01*
X107906168Y-107856400D02*
X109634800Y-107856400D01*
X109890800Y-107600400D02*
X109890800Y-107308400D01*
X113746631Y-105129929D02*
X113746631Y-106413031D01*
X113746631Y-106413031D02*
X114260000Y-106926400D01*
X110402800Y-107308400D02*
X110402800Y-107600400D01*
X113517902Y-104901200D02*
X113746631Y-105129929D01*
X113046400Y-104901200D02*
X113517902Y-104901200D01*
X106702200Y-108087400D02*
X106702200Y-108592936D01*
X105316200Y-108592936D02*
X105316200Y-108087400D01*
X107164200Y-108592936D02*
X107164200Y-108087400D01*
X103930200Y-108087400D02*
X103930200Y-108592936D01*
X112187000Y-105760600D02*
X113046400Y-104901200D01*
X107395200Y-107856400D02*
X107906168Y-107856400D01*
X105778200Y-108087400D02*
X105778200Y-108592936D01*
X103454000Y-107856400D02*
X103699200Y-107856400D01*
X100570000Y-107580400D02*
X100865000Y-107285400D01*
X111107200Y-107856400D02*
X112187000Y-106776600D01*
X104854200Y-108087400D02*
X104854200Y-108592936D01*
X105778200Y-108592936D02*
G75*
G03*
X106009200Y-108823900I231000J36D01*
G01*
X104161200Y-108823936D02*
G75*
G03*
X104392236Y-108592936I0J231036D01*
G01*
X106702200Y-108592936D02*
G75*
G03*
X106933200Y-108823900I231000J36D01*
G01*
X110146800Y-107052400D02*
G75*
G02*
X110402800Y-107308400I0J-256000D01*
G01*
X110402800Y-107600400D02*
G75*
G03*
X110658800Y-107856400I256000J0D01*
G01*
X107164200Y-108087400D02*
G75*
G02*
X107395200Y-107856400I231000J0D01*
G01*
X106009200Y-108823936D02*
G75*
G03*
X106240236Y-108592936I0J231036D01*
G01*
X105085200Y-108823936D02*
G75*
G03*
X105316236Y-108592936I0J231036D01*
G01*
X103930200Y-108592936D02*
G75*
G03*
X104161200Y-108823900I231000J36D01*
G01*
X105316200Y-108087400D02*
G75*
G02*
X105547200Y-107856400I231000J0D01*
G01*
X106240200Y-108087400D02*
G75*
G02*
X106471200Y-107856400I231000J0D01*
G01*
X104854200Y-108592936D02*
G75*
G03*
X105085200Y-108823900I231000J36D01*
G01*
X109634800Y-107856400D02*
G75*
G03*
X109890800Y-107600400I0J256000D01*
G01*
X106933200Y-108823936D02*
G75*
G03*
X107164236Y-108592936I0J231036D01*
G01*
X104392200Y-108087400D02*
G75*
G02*
X104623200Y-107856400I231000J0D01*
G01*
X109890800Y-107308400D02*
G75*
G02*
X110146800Y-107052400I256000J0D01*
G01*
X104623200Y-107856400D02*
G75*
G02*
X104854200Y-108087400I0J-231000D01*
G01*
X105547200Y-107856400D02*
G75*
G02*
X105778200Y-108087400I0J-231000D01*
G01*
X103699200Y-107856400D02*
G75*
G02*
X103930200Y-108087400I0J-231000D01*
G01*
X106471200Y-107856400D02*
G75*
G02*
X106702200Y-108087400I0J-231000D01*
G01*
%TO.N,DRAM_DQ14*%
X110250800Y-104937400D02*
X110250800Y-105129400D01*
X108152800Y-105129400D02*
X108152800Y-104937400D01*
X104568800Y-104937400D02*
X104568800Y-105079400D01*
X103048440Y-104681400D02*
X102225000Y-105504839D01*
X101286226Y-106635400D02*
X100865000Y-106635400D01*
X101807806Y-105925400D02*
X101575000Y-106158206D01*
X101992194Y-105925400D02*
X101807806Y-105925400D01*
X103800800Y-104681400D02*
X103048440Y-104681400D01*
X102225000Y-105504839D02*
X102225000Y-105692594D01*
X107896800Y-104681400D02*
X107576600Y-104681400D01*
X111274800Y-104937400D02*
X111274800Y-105079400D01*
X114265600Y-103580400D02*
X113630600Y-104215400D01*
X105080800Y-105479400D02*
X105080800Y-104937400D01*
X107458400Y-104799600D02*
X107153600Y-104799600D01*
X109482800Y-104681400D02*
X108920800Y-104681400D01*
X112174000Y-104681400D02*
X111530800Y-104681400D01*
X109738800Y-105129400D02*
X109738800Y-104937400D01*
X107153600Y-104799600D02*
X106950400Y-104596400D01*
X105592800Y-104937400D02*
X105592800Y-105479400D01*
X107576600Y-104681400D02*
X107458400Y-104799600D01*
X113630600Y-104215400D02*
X112640000Y-104215400D01*
X108664800Y-104937400D02*
X108664800Y-105129400D01*
X104056800Y-105079400D02*
X104056800Y-104937400D01*
X101575000Y-106158206D02*
X101575000Y-106346626D01*
X100865000Y-106635400D02*
X100570000Y-106930400D01*
X106616800Y-104726800D02*
X106616800Y-105479400D01*
X106104800Y-105479400D02*
X106104800Y-104937400D01*
X106950400Y-104596400D02*
X106747200Y-104596400D01*
X106747200Y-104596400D02*
X106616800Y-104726800D01*
X112640000Y-104215400D02*
X112174000Y-104681400D01*
X102225000Y-105692594D02*
X101992194Y-105925400D01*
X110762800Y-105079400D02*
X110762800Y-104937400D01*
X114672000Y-103580400D02*
X114265600Y-103580400D01*
X101575000Y-106346626D02*
X101286226Y-106635400D01*
X105080800Y-104937400D02*
G75*
G03*
X104824800Y-104681400I-256000J0D01*
G01*
X111530800Y-104681400D02*
G75*
G03*
X111274800Y-104937400I0J-256000D01*
G01*
X108152800Y-104937400D02*
G75*
G03*
X107896800Y-104681400I-256000J0D01*
G01*
X104824800Y-104681400D02*
G75*
G03*
X104568800Y-104937400I0J-256000D01*
G01*
X108408800Y-105385400D02*
G75*
G02*
X108152800Y-105129400I0J256000D01*
G01*
X104568800Y-105079400D02*
G75*
G02*
X104312800Y-105335400I-256000J0D01*
G01*
X105592800Y-105479400D02*
G75*
G02*
X105336800Y-105735400I-256000J0D01*
G01*
X106616800Y-105479400D02*
G75*
G02*
X106360800Y-105735400I-256000J0D01*
G01*
X108664800Y-105129400D02*
G75*
G02*
X108408800Y-105385400I-256000J0D01*
G01*
X109994800Y-105385400D02*
G75*
G02*
X109738800Y-105129400I0J256000D01*
G01*
X109738800Y-104937400D02*
G75*
G03*
X109482800Y-104681400I-256000J0D01*
G01*
X104056800Y-104937400D02*
G75*
G03*
X103800800Y-104681400I-256000J0D01*
G01*
X104312800Y-105335400D02*
G75*
G02*
X104056800Y-105079400I0J256000D01*
G01*
X105336800Y-105735400D02*
G75*
G02*
X105080800Y-105479400I0J256000D01*
G01*
X106360800Y-105735400D02*
G75*
G02*
X106104800Y-105479400I0J256000D01*
G01*
X110250800Y-105129400D02*
G75*
G02*
X109994800Y-105385400I-256000J0D01*
G01*
X111018800Y-105335400D02*
G75*
G02*
X110762800Y-105079400I0J256000D01*
G01*
X108920800Y-104681400D02*
G75*
G03*
X108664800Y-104937400I0J-256000D01*
G01*
X110506800Y-104681400D02*
G75*
G03*
X110250800Y-104937400I0J-256000D01*
G01*
X111274800Y-105079400D02*
G75*
G02*
X111018800Y-105335400I-256000J0D01*
G01*
X110762800Y-104937400D02*
G75*
G03*
X110506800Y-104681400I-256000J0D01*
G01*
X106104800Y-104937400D02*
G75*
G03*
X105848800Y-104681400I-256000J0D01*
G01*
X105848800Y-104681400D02*
G75*
G03*
X105592800Y-104937400I0J-256000D01*
G01*
%TO.N,DRAM_DQ11*%
X116577000Y-102691400D02*
X116577000Y-105612400D01*
X115434000Y-101548400D02*
X116577000Y-102691400D01*
X116196000Y-106576400D02*
X116546000Y-106926400D01*
X99920000Y-106280400D02*
X100245000Y-105955400D01*
X116196000Y-105993400D02*
X116196000Y-106576400D01*
X100245000Y-105955400D02*
X100245000Y-104238206D01*
X100895000Y-103798864D02*
X100895000Y-103580400D01*
X100658464Y-104035400D02*
X100895000Y-103798864D01*
X116577000Y-105612400D02*
X116196000Y-105993400D01*
X101149000Y-103326400D02*
X101341194Y-103326400D01*
X102392830Y-102274764D02*
X102520758Y-102274764D01*
X103247122Y-101548400D02*
X115434000Y-101548400D01*
X100447806Y-104035400D02*
X100658464Y-104035400D01*
X100245000Y-104238206D02*
X100447806Y-104035400D01*
X101341194Y-103326400D02*
X102392830Y-102274764D01*
X102520758Y-102274764D02*
X103247122Y-101548400D01*
X100895000Y-103580400D02*
X101149000Y-103326400D01*
%TO.N,DRAM_DQ9*%
X101396500Y-100913400D02*
X99595000Y-102714900D01*
X115845500Y-100913400D02*
X101396500Y-100913400D01*
X117339000Y-102406900D02*
X115845500Y-100913400D01*
X99595000Y-104655400D02*
X99920000Y-104980400D01*
X117339000Y-104342400D02*
X117339000Y-102406900D01*
X99595000Y-102714900D02*
X99595000Y-104655400D01*
%TO.N,DRAM_DQ10*%
X117339000Y-105612400D02*
X116958000Y-105231400D01*
X100898314Y-102292558D02*
X100768205Y-102422668D01*
X101181157Y-101856982D02*
X101181158Y-101856980D01*
X100615470Y-102422669D02*
X100615471Y-102422667D01*
X116958000Y-105231400D02*
X116958000Y-102566900D01*
X117339000Y-106120400D02*
X117339000Y-105612400D01*
X101674000Y-101211400D02*
X101464000Y-101421400D01*
X100214522Y-102670878D02*
X100214522Y-103895690D01*
X116958000Y-102566900D02*
X115602500Y-101211400D01*
X99920000Y-104190212D02*
X99920000Y-104330400D01*
X100214522Y-103895690D02*
X99920000Y-104190212D01*
X101028422Y-101856981D02*
X100898313Y-101987087D01*
X100462736Y-102422668D02*
X100462735Y-102422668D01*
X100462735Y-102422668D02*
X100214522Y-102670878D01*
X117168000Y-106291400D02*
X117339000Y-106120400D01*
X116546000Y-106291400D02*
X117168000Y-106291400D01*
X101464001Y-101726871D02*
X101333892Y-101856981D01*
X101028423Y-101856981D02*
X101028422Y-101856981D01*
X115602500Y-101211400D02*
X101674000Y-101211400D01*
X101464001Y-101421401D02*
G75*
G03*
X101463969Y-101574167I76399J-76399D01*
G01*
X100615471Y-102422667D02*
G75*
G03*
X100462732Y-102422664I-76371J-76333D01*
G01*
X100768204Y-102422667D02*
G75*
G02*
X100615434Y-102422705I-76404J76367D01*
G01*
X101181158Y-101856980D02*
G75*
G03*
X101028432Y-101856990I-76358J-76320D01*
G01*
X100898314Y-101987088D02*
G75*
G03*
X100898269Y-102139867I76386J-76412D01*
G01*
X100898312Y-102139824D02*
G75*
G02*
X100898322Y-102292566I-76412J-76376D01*
G01*
X101333891Y-101856980D02*
G75*
G02*
X101181134Y-101857005I-76391J76380D01*
G01*
X101464000Y-101574136D02*
G75*
G02*
X101463997Y-101726867I-76400J-76364D01*
G01*
%TO.N,DRAM_DQS3_P*%
X111541222Y-117099200D02*
X112392868Y-117099200D01*
X103233222Y-117935200D02*
X102956800Y-117658778D01*
X105793126Y-117455592D02*
X105791000Y-117383200D01*
X102156389Y-117237589D02*
X101777189Y-117237589D01*
X115525800Y-115678600D02*
X115525800Y-118118178D01*
X105830599Y-117595444D02*
X105793126Y-117455592D01*
X105791000Y-117383200D02*
X105791000Y-117212200D01*
X105791000Y-117212200D02*
X105789479Y-117164609D01*
X115832600Y-115371800D02*
X115525800Y-115678600D01*
X105187000Y-117212200D02*
X105187000Y-117383200D01*
X105147401Y-117595444D02*
X105075009Y-117720831D01*
X105536591Y-116911721D02*
X105489000Y-116910200D01*
X108467578Y-116309600D02*
X106841978Y-117935200D01*
X105627115Y-116941134D02*
X105536591Y-116911721D01*
X106005369Y-117823209D02*
X105902991Y-117720831D01*
X106270608Y-117933074D02*
X106130756Y-117895601D01*
X105188521Y-117164609D02*
X105187000Y-117212200D01*
X102394778Y-116999200D02*
X102156389Y-117237589D01*
X106130756Y-117895601D02*
X106005369Y-117823209D01*
X105184874Y-117455592D02*
X105147401Y-117595444D01*
X106343000Y-117935200D02*
X106270608Y-117933074D01*
X104707392Y-117933074D02*
X104635000Y-117935200D01*
X105902991Y-117720831D02*
X105830599Y-117595444D01*
X110594778Y-116049200D02*
X110334378Y-116309600D01*
X111268000Y-117372422D02*
X111541222Y-117099200D01*
X105789479Y-117164609D02*
X105760066Y-117074085D01*
X115525800Y-118118178D02*
X115194778Y-118449200D01*
X105350885Y-116941134D02*
X105273880Y-116997080D01*
X104972631Y-117823209D02*
X104847244Y-117895601D01*
X105760066Y-117074085D02*
X105704120Y-116997080D01*
X104847244Y-117895601D02*
X104707392Y-117933074D01*
X105489000Y-116910200D02*
X105441409Y-116911721D01*
X105217934Y-117074085D02*
X105188521Y-117164609D01*
X101777189Y-117237589D02*
X101220000Y-116680400D01*
X111541222Y-118149200D02*
X111268000Y-117875978D01*
X102956800Y-117150778D02*
X102805222Y-116999200D01*
X105187000Y-117383200D02*
X105184874Y-117455592D01*
X104635000Y-117935200D02*
X103233222Y-117935200D01*
X112591222Y-116049200D02*
X110594778Y-116049200D01*
X105273880Y-116997080D02*
X105217934Y-117074085D01*
X102805222Y-116999200D02*
X102394778Y-116999200D01*
X105704120Y-116997080D02*
X105627115Y-116941134D01*
X106841978Y-117935200D02*
X106343000Y-117935200D01*
X115194778Y-118449200D02*
X114691222Y-118449200D01*
X105441409Y-116911721D02*
X105350885Y-116941134D01*
X111268000Y-117875978D02*
X111268000Y-117372422D01*
X105075009Y-117720831D02*
X104972631Y-117823209D01*
X112802000Y-116259978D02*
X112591222Y-116049200D01*
X112802001Y-116690067D02*
X112802000Y-116259978D01*
X110334378Y-116309600D02*
X108467578Y-116309600D01*
X114391222Y-118149200D02*
X111541222Y-118149200D01*
X102956800Y-117658778D02*
X102956800Y-117150778D01*
X112392868Y-117099200D02*
X112802001Y-116690067D01*
X114691222Y-118449200D02*
X114391222Y-118149200D01*
%TO.N,DRAM_DM3*%
X115325000Y-118724200D02*
X116239000Y-117810200D01*
X116239000Y-116413200D02*
X116112000Y-116286200D01*
X115981000Y-116286200D02*
X115843000Y-116424200D01*
X100570000Y-116030400D02*
X100897400Y-116357800D01*
X114613000Y-118724200D02*
X115325000Y-118724200D01*
X115843000Y-116424200D02*
X115843000Y-116674200D01*
X116112000Y-116286200D02*
X115981000Y-116286200D01*
X116239000Y-117810200D02*
X116239000Y-116413200D01*
X100897400Y-117424994D02*
X101097806Y-117625400D01*
X114334000Y-118445200D02*
X114613000Y-118724200D01*
X101097806Y-117625400D02*
X101627000Y-117625400D01*
X100897400Y-116357800D02*
X100897400Y-117424994D01*
X106460000Y-118318200D02*
X106587000Y-118445200D01*
X102319800Y-118318200D02*
X106460000Y-118318200D01*
X101627000Y-117625400D02*
X102319800Y-118318200D01*
X106587000Y-118445200D02*
X114334000Y-118445200D01*
%TO.N,DRAM_DQ13*%
X113824915Y-104732285D02*
X113672515Y-104579885D01*
X102480000Y-106526800D02*
X102213303Y-106793497D01*
X101644594Y-106930400D02*
X101220000Y-106930400D01*
X107222600Y-106794402D02*
X107222600Y-106453000D01*
X102213303Y-106793497D02*
X101781497Y-106793497D01*
X109896800Y-106103800D02*
X109744400Y-105951400D01*
X104039928Y-106511928D02*
X103853699Y-106325699D01*
X115022000Y-106926400D02*
X114825127Y-106926400D01*
X109896800Y-106526800D02*
X109896800Y-106103800D01*
X103396499Y-106325699D02*
X102988000Y-105917200D01*
X114825127Y-106926400D02*
X114533489Y-106634762D01*
X106298600Y-107244428D02*
X106298600Y-106453000D01*
X111285000Y-105951400D02*
X111285000Y-106205400D01*
X112832709Y-104579885D02*
X111969194Y-105443400D01*
X114028115Y-104732285D02*
X113824915Y-104732285D01*
X103853699Y-106325699D02*
X103396499Y-106325699D01*
X105374600Y-107244411D02*
X105374600Y-106453000D01*
X102988000Y-105917200D02*
X102657794Y-105917200D01*
X104867600Y-106222000D02*
X104577672Y-106511928D01*
X109236400Y-105951400D02*
X109084000Y-106103800D01*
X114367200Y-104596400D02*
X114164000Y-104596400D01*
X106760600Y-106453000D02*
X106760600Y-107244428D01*
X111969194Y-105443400D02*
X111793000Y-105443400D01*
X109084000Y-106103800D02*
X109084000Y-106374400D01*
X114392600Y-105129800D02*
X114570400Y-104952000D01*
X111793000Y-105443400D02*
X111285000Y-105951400D01*
X114570400Y-104799600D02*
X114367200Y-104596400D01*
X114533489Y-105440860D02*
X114392600Y-105299970D01*
X114164000Y-104596400D02*
X114028115Y-104732285D01*
X114392600Y-105299970D02*
X114392600Y-105129800D01*
X108483200Y-106586400D02*
X108118800Y-106222000D01*
X102657794Y-105917200D02*
X102480000Y-106094994D01*
X109998400Y-106628400D02*
X109896800Y-106526800D01*
X113672515Y-104579885D02*
X112832709Y-104579885D01*
X110862000Y-106628400D02*
X109998400Y-106628400D01*
X105143600Y-106222000D02*
X104867600Y-106222000D01*
X111285000Y-106205400D02*
X110862000Y-106628400D01*
X101781497Y-106793497D02*
X101644594Y-106930400D01*
X102480000Y-106094994D02*
X102480000Y-106526800D01*
X105836600Y-106453000D02*
X105836600Y-107244411D01*
X109084000Y-106374400D02*
X108872000Y-106586400D01*
X114533489Y-106634762D02*
X114533489Y-105440860D01*
X109744400Y-105951400D02*
X109236400Y-105951400D01*
X114570400Y-104952000D02*
X114570400Y-104799600D01*
X107684600Y-106453000D02*
X107684600Y-106794402D01*
X108118800Y-106222000D02*
X107915600Y-106222000D01*
X104577672Y-106511928D02*
X104039928Y-106511928D01*
X108872000Y-106586400D02*
X108483200Y-106586400D01*
X107222600Y-106453000D02*
G75*
G03*
X106991600Y-106222000I-231000J0D01*
G01*
X107684600Y-106794402D02*
G75*
G02*
X107453600Y-107025400I-231000J2D01*
G01*
X105374600Y-106453000D02*
G75*
G03*
X105143600Y-106222000I-231000J0D01*
G01*
X106529600Y-107475428D02*
G75*
G02*
X106298572Y-107244428I0J231028D01*
G01*
X106067600Y-106222000D02*
G75*
G03*
X105836600Y-106453000I0J-231000D01*
G01*
X107915600Y-106222000D02*
G75*
G03*
X107684600Y-106453000I0J-231000D01*
G01*
X106760600Y-107244428D02*
G75*
G02*
X106529600Y-107475400I-231000J28D01*
G01*
X106298600Y-106453000D02*
G75*
G03*
X106067600Y-106222000I-231000J0D01*
G01*
X107453600Y-107025402D02*
G75*
G02*
X107222598Y-106794402I0J231002D01*
G01*
X105605600Y-107475411D02*
G75*
G02*
X105374589Y-107244411I0J231011D01*
G01*
X105836600Y-107244411D02*
G75*
G02*
X105605600Y-107475400I-231000J11D01*
G01*
X106991600Y-106222000D02*
G75*
G03*
X106760600Y-106453000I0J-231000D01*
G01*
%TO.N,DRAM_DM1*%
X116297600Y-105053600D02*
X116297600Y-105460000D01*
X116079000Y-103514200D02*
X116297600Y-103732800D01*
X102750419Y-103217180D02*
X102923507Y-103044091D01*
X105832800Y-102920000D02*
X106142800Y-102920000D01*
X101923104Y-103888927D02*
X101995229Y-103816804D01*
X104410400Y-102615200D02*
X104410400Y-102620400D01*
X112990400Y-102818400D02*
X113148000Y-102818400D01*
X102522730Y-103289304D02*
X102522731Y-103289302D01*
X116094400Y-104850400D02*
X116297600Y-105053600D01*
X101928759Y-104194397D02*
X102000884Y-104122272D01*
X115784000Y-105505200D02*
X115784000Y-105021400D01*
X101850977Y-104194397D02*
X101850978Y-104194397D01*
X115942000Y-105663200D02*
X115784000Y-105505200D01*
X102228573Y-103894585D02*
X102300698Y-103822460D01*
X102522731Y-103289302D02*
X102594856Y-103217179D01*
X100865000Y-104918206D02*
X101151579Y-104631627D01*
X101923103Y-103888929D02*
X101923104Y-103888927D01*
X102600512Y-103444866D02*
X102522731Y-103367085D01*
X103800800Y-102310400D02*
X104105600Y-102310400D01*
X102372825Y-103516992D02*
X102450605Y-103594772D01*
X102222917Y-103589117D02*
X102222918Y-103589115D01*
X103322598Y-102860524D02*
X103322598Y-102788602D01*
X104410400Y-102620400D02*
X105533200Y-102620400D01*
X116297600Y-104190000D02*
X116094400Y-104393200D01*
X102222918Y-103589115D02*
X102295043Y-103516992D01*
X105533200Y-102620400D02*
X105832800Y-102920000D01*
X102528387Y-103594773D02*
X102600512Y-103522648D01*
X111166800Y-102620400D02*
X111364800Y-102818400D01*
X106142800Y-102920000D02*
X106442400Y-102620400D01*
X101928759Y-104194396D02*
X101928759Y-104194397D01*
X102228572Y-103894585D02*
X102228573Y-103894585D01*
X101335967Y-104631627D02*
X101773197Y-104194397D01*
X111872800Y-102620400D02*
X112792400Y-102620400D01*
X102073011Y-103816804D02*
X102150791Y-103894584D01*
X106442400Y-102620400D02*
X107001200Y-102620400D01*
X113346000Y-102620400D02*
X115197194Y-102620400D01*
X103322598Y-102788602D02*
X103800800Y-102310400D01*
X116094400Y-105663200D02*
X115942000Y-105663200D01*
X101151579Y-104631627D02*
X101335967Y-104631627D01*
X110715600Y-102918400D02*
X110715600Y-102876400D01*
X107250000Y-102869200D02*
X107560000Y-102869200D01*
X102528386Y-103594773D02*
X102528387Y-103594773D01*
X111364800Y-102818400D02*
X111674800Y-102818400D01*
X103139032Y-103044091D02*
X103322598Y-102860524D01*
X116079000Y-103502206D02*
X116079000Y-103514200D01*
X100570000Y-106280400D02*
X100865000Y-105985400D01*
X116094400Y-104393200D02*
X116094400Y-104850400D01*
X110971600Y-102620400D02*
X111166800Y-102620400D01*
X113148000Y-102818400D02*
X113346000Y-102620400D01*
X116297600Y-105460000D02*
X116094400Y-105663200D01*
X115197194Y-102620400D02*
X116079000Y-103502206D01*
X103031270Y-103044090D02*
X103031269Y-103044092D01*
X104105600Y-102310400D02*
X104410400Y-102615200D01*
X102300698Y-103744678D02*
X102222918Y-103666898D01*
X110203600Y-102876400D02*
X110203600Y-102918400D01*
X116297600Y-103732800D02*
X116297600Y-104190000D01*
X112792400Y-102620400D02*
X112990400Y-102818400D01*
X102000884Y-104044490D02*
X101923104Y-103966710D01*
X100865000Y-105985400D02*
X100865000Y-104918206D01*
X107560000Y-102869200D02*
X107808800Y-102620400D01*
X107001200Y-102620400D02*
X107250000Y-102869200D01*
X107808800Y-102620400D02*
X109947600Y-102620400D01*
X111674800Y-102818400D02*
X111872800Y-102620400D01*
X102672638Y-103217179D02*
G75*
G03*
X102750390Y-103217151I38862J38879D01*
G01*
X110203600Y-102918400D02*
G75*
G03*
X110459600Y-103174400I256000J0D01*
G01*
X102522731Y-103367085D02*
G75*
G02*
X102522736Y-103289310I38869J38885D01*
G01*
X102150792Y-103894583D02*
G75*
G03*
X102228589Y-103894602I38908J38883D01*
G01*
X101995230Y-103816805D02*
G75*
G02*
X102073010Y-103816805I38890J-38891D01*
G01*
X109947600Y-102620400D02*
G75*
G02*
X110203600Y-102876400I0J-256000D01*
G01*
X102295044Y-103516993D02*
G75*
G02*
X102372824Y-103516993I38890J-38891D01*
G01*
X101850978Y-104194397D02*
G75*
G03*
X101928791Y-104194428I38922J38897D01*
G01*
X102600512Y-103522648D02*
G75*
G03*
X102600469Y-103444909I-38912J38848D01*
G01*
X102300698Y-103822460D02*
G75*
G03*
X102300667Y-103744709I-38898J38860D01*
G01*
X101773197Y-104194397D02*
G75*
G02*
X101850977Y-104194397I38890J-38889D01*
G01*
X102000883Y-104122271D02*
G75*
G03*
X102000864Y-104044510I-38883J38871D01*
G01*
X101923104Y-103966710D02*
G75*
G02*
X101923084Y-103888910I38896J38910D01*
G01*
X102923507Y-103044091D02*
G75*
G02*
X103031281Y-103044079I53893J-53909D01*
G01*
X103031269Y-103044092D02*
G75*
G03*
X103139082Y-103044141I53931J53892D01*
G01*
X110459600Y-103174400D02*
G75*
G03*
X110715600Y-102918400I0J256000D01*
G01*
X110715600Y-102876400D02*
G75*
G02*
X110971600Y-102620400I256000J0D01*
G01*
X102594857Y-103217180D02*
G75*
G02*
X102672637Y-103217180I38890J-38891D01*
G01*
X102450605Y-103594772D02*
G75*
G03*
X102528390Y-103594777I38895J38872D01*
G01*
X102222919Y-103666897D02*
G75*
G02*
X102222911Y-103589111I38881J38897D01*
G01*
%TO.N,DRAM_DQS1_P*%
X104508000Y-103853400D02*
X104566000Y-103853400D01*
X104306000Y-103526400D02*
X104306000Y-103651400D01*
X113027050Y-103713451D02*
X113048000Y-103713451D01*
X112080222Y-102947400D02*
X112386000Y-102947400D01*
X108068000Y-103074400D02*
X109770778Y-103074400D01*
X115178000Y-104925622D02*
X115528000Y-105275622D01*
X110278778Y-103963400D02*
X110556222Y-103963400D01*
X111648422Y-103760200D02*
X111753000Y-103655622D01*
X115432000Y-104013178D02*
X115178000Y-104267178D01*
X109770778Y-103074400D02*
X110098000Y-103401622D01*
X111753000Y-103655622D02*
X111753000Y-103274622D01*
X112831525Y-103392925D02*
X112831525Y-103517926D01*
X104768000Y-103651400D02*
X104768000Y-103526400D01*
X115528000Y-105275622D02*
X115528000Y-106035400D01*
X106163000Y-103822400D02*
X106163000Y-103555400D01*
X110759422Y-103760200D02*
X111648422Y-103760200D01*
X113710000Y-102947400D02*
X114977778Y-102947400D01*
X107125000Y-103555400D02*
X107125000Y-103822400D01*
X101420000Y-105430400D02*
X101420000Y-105225622D01*
X101420000Y-105225622D02*
X103571222Y-103074400D01*
X110556222Y-103963400D02*
X110759422Y-103760200D01*
X110098000Y-103401622D02*
X110098000Y-103782622D01*
X103571222Y-103074400D02*
X103854000Y-103074400D01*
X114977778Y-102947400D02*
X115432000Y-103401622D01*
X113243525Y-103517926D02*
X113243525Y-103392925D01*
X115432000Y-103401622D02*
X115432000Y-104013178D01*
X101220000Y-105630400D02*
X101420000Y-105430400D01*
X110098000Y-103782622D02*
X110278778Y-103963400D01*
X113689050Y-102947400D02*
X113710000Y-102947400D01*
X107587000Y-103822400D02*
X107587000Y-103555400D01*
X111753000Y-103274622D02*
X112080222Y-102947400D01*
X115178000Y-104267178D02*
X115178000Y-104925622D01*
X115528000Y-106035400D02*
X115784000Y-106291400D01*
X105701000Y-103555400D02*
X105701000Y-103822400D01*
X103854000Y-103074400D02*
G75*
G02*
X104306000Y-103526400I0J-452000D01*
G01*
X106163000Y-103555400D02*
G75*
G02*
X106644000Y-103074400I481000J0D01*
G01*
X112386000Y-102947400D02*
G75*
G02*
X112831500Y-103392925I0J-445500D01*
G01*
X107356000Y-104053400D02*
G75*
G03*
X107587000Y-103822400I0J231000D01*
G01*
X107587000Y-103555400D02*
G75*
G02*
X108068000Y-103074400I481000J0D01*
G01*
X105701000Y-103822400D02*
G75*
G03*
X105932000Y-104053400I231000J0D01*
G01*
X113243525Y-103392925D02*
G75*
G02*
X113689050Y-102947425I445475J25D01*
G01*
X113048000Y-103713451D02*
G75*
G03*
X113243551Y-103517926I0J195551D01*
G01*
X104306000Y-103651400D02*
G75*
G03*
X104508000Y-103853400I202000J0D01*
G01*
X112831525Y-103517926D02*
G75*
G03*
X113027050Y-103713475I195575J26D01*
G01*
X107125000Y-103822400D02*
G75*
G03*
X107356000Y-104053400I231000J0D01*
G01*
X104768000Y-103526400D02*
G75*
G02*
X105220000Y-103074400I452000J0D01*
G01*
X106644000Y-103074400D02*
G75*
G02*
X107125000Y-103555400I0J-481000D01*
G01*
X105220000Y-103074400D02*
G75*
G02*
X105701000Y-103555400I0J-481000D01*
G01*
X104566000Y-103853400D02*
G75*
G03*
X104768000Y-103651400I0J202000D01*
G01*
X105932000Y-104053400D02*
G75*
G03*
X106163000Y-103822400I0J231000D01*
G01*
%TO.N,DRAM_DQ8*%
X113005186Y-101929400D02*
X113058000Y-101929400D01*
X112605186Y-102276587D02*
X112658000Y-102276587D01*
X111805186Y-102276587D02*
X111858000Y-102276587D01*
X106031593Y-102102993D02*
X106031593Y-102102994D01*
X101287865Y-104029729D02*
X103388194Y-101929400D01*
X105405148Y-102276549D02*
X105458000Y-102276549D01*
X106831593Y-102102993D02*
X106831593Y-102102994D01*
X100574403Y-105625997D02*
X100574403Y-104771795D01*
X108205186Y-101929400D02*
X108258000Y-101929400D01*
X110605148Y-101929400D02*
X110658000Y-101929400D01*
X114658000Y-101929400D02*
X115069000Y-101929400D01*
X110431574Y-102102975D02*
X110431574Y-102102974D01*
X106605186Y-101929400D02*
X106658000Y-101929400D01*
X105231574Y-102102974D02*
X105231574Y-102102975D01*
X107405186Y-101929400D02*
X107458000Y-101929400D01*
X112431593Y-102102993D02*
X112431593Y-102102994D01*
X100865000Y-104481198D02*
X100865000Y-104268206D01*
X101103477Y-104029729D02*
X101287865Y-104029729D01*
X104831574Y-102102975D02*
X104831574Y-102102974D01*
X113405156Y-102276556D02*
X113458000Y-102276556D01*
X107005186Y-102276587D02*
X107058000Y-102276587D01*
X112205186Y-101929400D02*
X112258000Y-101929400D01*
X112031593Y-102102994D02*
X112031593Y-102102993D01*
X111231593Y-102102994D02*
X111231593Y-102102993D01*
X111631593Y-102102993D02*
X111631593Y-102102994D01*
X103388194Y-101929400D02*
X104258000Y-101929400D01*
X113805156Y-101929400D02*
X113858000Y-101929400D01*
X112831593Y-102102994D02*
X112831593Y-102102993D01*
X108031593Y-102102994D02*
X108031593Y-102102993D01*
X104605148Y-102276549D02*
X104658000Y-102276549D01*
X100570000Y-105630400D02*
X100574403Y-105625997D01*
X114205148Y-102276549D02*
X114258000Y-102276549D01*
X107805186Y-102276587D02*
X107858000Y-102276587D01*
X107231593Y-102102994D02*
X107231593Y-102102993D01*
X105005148Y-101929400D02*
X105058000Y-101929400D01*
X105805148Y-101929400D02*
X105858000Y-101929400D01*
X109805152Y-101929400D02*
X109858000Y-101929400D01*
X115069000Y-101929400D02*
X116170000Y-103030400D01*
X114031574Y-102102974D02*
X114031574Y-102102975D01*
X105631574Y-102102975D02*
X105631574Y-102102974D01*
X106431593Y-102102994D02*
X106431593Y-102102993D01*
X111005186Y-102276587D02*
X111058000Y-102276587D01*
X109405152Y-102276552D02*
X109458000Y-102276552D01*
X114605148Y-101929400D02*
X114658000Y-101929400D01*
X110831593Y-102102993D02*
X110831593Y-102102994D01*
X111405186Y-101929400D02*
X111458000Y-101929400D01*
X109005156Y-101929400D02*
X109058000Y-101929400D01*
X107631593Y-102102993D02*
X107631593Y-102102994D01*
X106205186Y-102276587D02*
X106258000Y-102276587D01*
X114431574Y-102102975D02*
X114431574Y-102102974D01*
X110031574Y-102102974D02*
X110031574Y-102102975D01*
X100865000Y-104268206D02*
X101103477Y-104029729D01*
X104431574Y-102102974D02*
X104431574Y-102102975D01*
X108605156Y-102276556D02*
X108658000Y-102276556D01*
X110205148Y-102276549D02*
X110258000Y-102276549D01*
X100574403Y-104771795D02*
X100865000Y-104481198D01*
X111458000Y-101929400D02*
G75*
G02*
X111631600Y-102102993I0J-173600D01*
G01*
X109058000Y-101929400D02*
G75*
G02*
X109231600Y-102102976I0J-173600D01*
G01*
X104831574Y-102102974D02*
G75*
G02*
X105005148Y-101929474I173526J-26D01*
G01*
X105858000Y-101929400D02*
G75*
G02*
X106031600Y-102102993I0J-173600D01*
G01*
X108031593Y-102102993D02*
G75*
G02*
X108205186Y-101929393I173607J-7D01*
G01*
X108831578Y-102102978D02*
G75*
G02*
X109005156Y-101929378I173622J-22D01*
G01*
X113631578Y-102102978D02*
G75*
G02*
X113805156Y-101929378I173622J-22D01*
G01*
X106258000Y-102276587D02*
G75*
G03*
X106431587Y-102102994I0J173587D01*
G01*
X114431574Y-102102974D02*
G75*
G02*
X114605148Y-101929474I173526J-26D01*
G01*
X113058000Y-101929400D02*
G75*
G02*
X113231600Y-102102978I0J-173600D01*
G01*
X112258000Y-101929400D02*
G75*
G02*
X112431600Y-102102993I0J-173600D01*
G01*
X109631576Y-102102976D02*
G75*
G02*
X109805152Y-101929376I173624J-24D01*
G01*
X106431593Y-102102993D02*
G75*
G02*
X106605186Y-101929393I173607J-7D01*
G01*
X112031593Y-102102993D02*
G75*
G02*
X112205186Y-101929393I173607J-7D01*
G01*
X110258000Y-102276549D02*
G75*
G03*
X110431549Y-102102975I0J173549D01*
G01*
X104431574Y-102102975D02*
G75*
G03*
X104605148Y-102276526I173526J-25D01*
G01*
X111631593Y-102102994D02*
G75*
G03*
X111805186Y-102276607I173607J-6D01*
G01*
X112831593Y-102102993D02*
G75*
G02*
X113005186Y-101929393I173607J-7D01*
G01*
X105458000Y-102276549D02*
G75*
G03*
X105631549Y-102102975I0J173549D01*
G01*
X110431574Y-102102974D02*
G75*
G02*
X110605148Y-101929474I173526J-26D01*
G01*
X112431593Y-102102994D02*
G75*
G03*
X112605186Y-102276607I173607J-6D01*
G01*
X109858000Y-101929400D02*
G75*
G02*
X110031600Y-102102974I0J-173600D01*
G01*
X107458000Y-101929400D02*
G75*
G02*
X107631600Y-102102993I0J-173600D01*
G01*
X104658000Y-102276549D02*
G75*
G03*
X104831549Y-102102975I0J173549D01*
G01*
X113858000Y-101929400D02*
G75*
G02*
X114031600Y-102102974I0J-173600D01*
G01*
X107231593Y-102102993D02*
G75*
G02*
X107405186Y-101929393I173607J-7D01*
G01*
X104258000Y-101929400D02*
G75*
G02*
X104431600Y-102102974I0J-173600D01*
G01*
X110031574Y-102102975D02*
G75*
G03*
X110205148Y-102276526I173526J-25D01*
G01*
X111058000Y-102276587D02*
G75*
G03*
X111231587Y-102102994I0J173587D01*
G01*
X105631574Y-102102974D02*
G75*
G02*
X105805148Y-101929474I173526J-26D01*
G01*
X110831593Y-102102994D02*
G75*
G03*
X111005186Y-102276607I173607J-6D01*
G01*
X105058000Y-101929400D02*
G75*
G02*
X105231600Y-102102974I0J-173600D01*
G01*
X109458000Y-102276552D02*
G75*
G03*
X109631552Y-102102976I0J173552D01*
G01*
X105231574Y-102102975D02*
G75*
G03*
X105405148Y-102276526I173526J-25D01*
G01*
X113458000Y-102276556D02*
G75*
G03*
X113631556Y-102102978I0J173556D01*
G01*
X111858000Y-102276587D02*
G75*
G03*
X112031587Y-102102994I0J173587D01*
G01*
X107858000Y-102276587D02*
G75*
G03*
X108031587Y-102102994I0J173587D01*
G01*
X111231593Y-102102993D02*
G75*
G02*
X111405186Y-101929393I173607J-7D01*
G01*
X108658000Y-102276556D02*
G75*
G03*
X108831556Y-102102978I0J173556D01*
G01*
X106031593Y-102102994D02*
G75*
G03*
X106205186Y-102276607I173607J-6D01*
G01*
X108258000Y-101929400D02*
G75*
G02*
X108431600Y-102102978I0J-173600D01*
G01*
X112658000Y-102276587D02*
G75*
G03*
X112831587Y-102102994I0J173587D01*
G01*
X107631593Y-102102994D02*
G75*
G03*
X107805186Y-102276607I173607J-6D01*
G01*
X106658000Y-101929400D02*
G75*
G02*
X106831600Y-102102993I0J-173600D01*
G01*
X106831593Y-102102994D02*
G75*
G03*
X107005186Y-102276607I173607J-6D01*
G01*
X108431578Y-102102978D02*
G75*
G03*
X108605156Y-102276622I173622J-22D01*
G01*
X110658000Y-101929400D02*
G75*
G02*
X110831600Y-102102993I0J-173600D01*
G01*
X107058000Y-102276587D02*
G75*
G03*
X107231587Y-102102994I0J173587D01*
G01*
X114031574Y-102102975D02*
G75*
G03*
X114205148Y-102276526I173526J-25D01*
G01*
X109231576Y-102102976D02*
G75*
G03*
X109405152Y-102276624I173624J-24D01*
G01*
X114258000Y-102276549D02*
G75*
G03*
X114431549Y-102102975I0J173549D01*
G01*
X113231578Y-102102978D02*
G75*
G03*
X113405156Y-102276622I173622J-22D01*
G01*
%TO.N,DRAM_DQS3_N*%
X105701244Y-116699799D02*
X105561392Y-116662326D01*
X114794778Y-118199200D02*
X114494778Y-117899200D01*
X110230822Y-116059600D02*
X108364022Y-116059600D01*
X101979611Y-116960811D02*
X101870000Y-116851200D01*
X102291222Y-116749200D02*
X102079611Y-116960811D01*
X106001401Y-116999956D02*
X105929009Y-116874569D01*
X108364022Y-116059600D02*
X106738422Y-117685200D01*
X112694778Y-115799200D02*
X110491222Y-115799200D01*
X102908778Y-116749200D02*
X102291222Y-116749200D01*
X103206800Y-117555222D02*
X103206800Y-117047222D01*
X105489000Y-116660200D02*
X105416608Y-116662326D01*
X104635000Y-117685200D02*
X103336778Y-117685200D01*
X106041000Y-117383200D02*
X106041000Y-117212200D01*
X111518000Y-117475978D02*
X111644778Y-117349200D01*
X106041000Y-117212200D02*
X106038874Y-117139808D01*
X111644778Y-117349200D02*
X112425713Y-117349200D01*
X105276756Y-116699799D02*
X105151369Y-116772191D01*
X114494778Y-117899200D02*
X111644778Y-117899200D01*
X113002000Y-116772913D02*
X113002000Y-116106422D01*
X104937000Y-117212200D02*
X104937000Y-117383200D01*
X106738422Y-117685200D02*
X106343000Y-117685200D01*
X104935479Y-117430791D02*
X104906066Y-117521315D01*
X104976599Y-116999956D02*
X104939126Y-117139808D01*
X104937000Y-117383200D02*
X104935479Y-117430791D01*
X104939126Y-117139808D02*
X104937000Y-117212200D01*
X113002000Y-116106422D02*
X112694778Y-115799200D01*
X106042521Y-117430791D02*
X106041000Y-117383200D01*
X106038874Y-117139808D02*
X106001401Y-116999956D01*
X115091222Y-118199200D02*
X114794778Y-118199200D01*
X105561392Y-116662326D02*
X105489000Y-116660200D01*
X104850120Y-117598320D02*
X104773115Y-117654266D01*
X110491222Y-115799200D02*
X110230822Y-116059600D01*
X112425713Y-117349200D02*
X113002000Y-116772913D01*
X111644778Y-117899200D02*
X111518000Y-117772422D01*
X104682591Y-117683679D02*
X104635000Y-117685200D01*
X106295409Y-117683679D02*
X106204885Y-117654266D01*
X115275800Y-115678600D02*
X115275800Y-118014622D01*
X114918200Y-115321000D02*
X115275800Y-115678600D01*
X111518000Y-117772422D02*
X111518000Y-117475978D01*
X104906066Y-117521315D02*
X104850120Y-117598320D01*
X105416608Y-116662326D02*
X105276756Y-116699799D01*
X105151369Y-116772191D02*
X105048991Y-116874569D01*
X101870000Y-116851200D02*
X101870000Y-116680400D01*
X103206800Y-117047222D02*
X102908778Y-116749200D01*
X106127880Y-117598320D02*
X106071934Y-117521315D01*
X106343000Y-117685200D02*
X106295409Y-117683679D01*
X106071934Y-117521315D02*
X106042521Y-117430791D01*
X105929009Y-116874569D02*
X105826631Y-116772191D01*
X103336778Y-117685200D02*
X103206800Y-117555222D01*
X115275800Y-118014622D02*
X115091222Y-118199200D01*
X102079611Y-116960811D02*
X101979611Y-116960811D01*
X104773115Y-117654266D02*
X104682591Y-117683679D01*
X105826631Y-116772191D02*
X105701244Y-116699799D01*
X105048991Y-116874569D02*
X104976599Y-116999956D01*
X106204885Y-117654266D02*
X106127880Y-117598320D01*
%TO.N,DRAM_DQS1_N*%
X101870000Y-105630400D02*
X101670000Y-105430400D01*
X110175222Y-104213400D02*
X110659778Y-104213400D01*
X109667222Y-103324400D02*
X109848000Y-103505178D01*
X114928000Y-104163622D02*
X114928000Y-105029178D01*
X103674778Y-103324400D02*
X103854000Y-103324400D01*
X115182000Y-103505178D02*
X115182000Y-103909622D01*
X112003000Y-103378178D02*
X112183778Y-103197400D01*
X114874222Y-103197400D02*
X115182000Y-103505178D01*
X106413000Y-103822400D02*
X106413000Y-103555400D01*
X113689050Y-103197400D02*
X113710000Y-103197400D01*
X104056000Y-103526400D02*
X104056000Y-103651400D01*
X115182000Y-103909622D02*
X114928000Y-104163622D01*
X109848000Y-103886178D02*
X110175222Y-104213400D01*
X101670000Y-105329178D02*
X103674778Y-103324400D01*
X109848000Y-103505178D02*
X109848000Y-103886178D01*
X112003000Y-103759178D02*
X112003000Y-103378178D01*
X115278000Y-105379178D02*
X115278000Y-106035400D01*
X101670000Y-105430400D02*
X101670000Y-105329178D01*
X105451000Y-103555400D02*
X105451000Y-103822400D01*
X104508000Y-104103400D02*
X104566000Y-104103400D01*
X113710000Y-103197400D02*
X114874222Y-103197400D01*
X112581525Y-103392925D02*
X112581525Y-103517926D01*
X113493525Y-103517926D02*
X113493525Y-103392925D01*
X114928000Y-105029178D02*
X115278000Y-105379178D01*
X105018000Y-103651400D02*
X105018000Y-103526400D01*
X108068000Y-103324400D02*
X109667222Y-103324400D01*
X115278000Y-106035400D02*
X115022000Y-106291400D01*
X111751978Y-104010200D02*
X112003000Y-103759178D01*
X113027050Y-103963451D02*
X113048000Y-103963451D01*
X112183778Y-103197400D02*
X112386000Y-103197400D01*
X106875000Y-103555400D02*
X106875000Y-103822400D01*
X110862978Y-104010200D02*
X111751978Y-104010200D01*
X110659778Y-104213400D02*
X110862978Y-104010200D01*
X107837000Y-103822400D02*
X107837000Y-103555400D01*
X113048000Y-103963451D02*
G75*
G03*
X113493551Y-103517926I0J445551D01*
G01*
X105932000Y-104303400D02*
G75*
G03*
X106413000Y-103822400I0J481000D01*
G01*
X112386000Y-103197400D02*
G75*
G02*
X112581500Y-103392925I0J-195500D01*
G01*
X112581525Y-103517926D02*
G75*
G03*
X113027050Y-103963375I445475J26D01*
G01*
X106644000Y-103324400D02*
G75*
G02*
X106875000Y-103555400I0J-231000D01*
G01*
X105018000Y-103526400D02*
G75*
G02*
X105220000Y-103324400I202000J0D01*
G01*
X106413000Y-103555400D02*
G75*
G02*
X106644000Y-103324400I231000J0D01*
G01*
X103854000Y-103324400D02*
G75*
G02*
X104056000Y-103526400I0J-202000D01*
G01*
X104566000Y-104103400D02*
G75*
G03*
X105018000Y-103651400I0J452000D01*
G01*
X107837000Y-103555400D02*
G75*
G02*
X108068000Y-103324400I231000J0D01*
G01*
X105451000Y-103822400D02*
G75*
G03*
X105932000Y-104303400I481000J0D01*
G01*
X106875000Y-103822400D02*
G75*
G03*
X107356000Y-104303400I481000J0D01*
G01*
X113493525Y-103392925D02*
G75*
G02*
X113689050Y-103197325I195575J25D01*
G01*
X105220000Y-103324400D02*
G75*
G02*
X105451000Y-103555400I0J-231000D01*
G01*
X107356000Y-104303400D02*
G75*
G03*
X107837000Y-103822400I0J481000D01*
G01*
X104056000Y-103651400D02*
G75*
G03*
X104508000Y-104103400I452000J0D01*
G01*
D18*
%TO.N,PCIE1_TXN*%
X77980000Y-128428266D02*
X78722134Y-129170400D01*
X78722134Y-129170400D02*
X95777866Y-129170400D01*
X76550000Y-125378266D02*
X77980000Y-126808266D01*
X76020000Y-106978266D02*
X76020000Y-114908266D01*
X76020000Y-114908266D02*
X76550000Y-115438266D01*
X76550000Y-115438266D02*
X76550000Y-125378266D01*
X79602134Y-103740400D02*
X76082134Y-103740400D01*
X96265480Y-128682786D02*
X96265480Y-128355013D01*
X92149730Y-102172264D02*
X91857866Y-101880400D01*
X92089500Y-102840400D02*
X92149730Y-102780170D01*
X96265480Y-128355013D02*
X96165481Y-128255014D01*
X77980000Y-126808266D02*
X77980000Y-128428266D01*
X76082134Y-103740400D02*
X75060000Y-104762534D01*
X91857866Y-101880400D02*
X81462134Y-101880400D01*
X92149730Y-102780170D02*
X92149730Y-102172264D01*
X95777866Y-129170400D02*
X96265480Y-128682786D01*
X81462134Y-101880400D02*
X79602134Y-103740400D01*
X75060000Y-104762534D02*
X75060000Y-106018266D01*
X75060000Y-106018266D02*
X76020000Y-106978266D01*
%TO.N,PCIE1_TXP*%
X95902134Y-129470400D02*
X96565482Y-128807052D01*
X75957866Y-103440400D02*
X74760000Y-104638266D01*
X77680000Y-126932534D02*
X77680000Y-128552534D01*
X92405000Y-102735438D02*
X92405000Y-102003266D01*
X92405000Y-102003266D02*
X91982134Y-101580400D01*
X76250000Y-125502534D02*
X77680000Y-126932534D01*
X76250000Y-115562534D02*
X76250000Y-125502534D01*
X79477866Y-103440400D02*
X75957866Y-103440400D01*
X78597866Y-129470400D02*
X95902134Y-129470400D01*
X75720000Y-107102534D02*
X75720000Y-115032534D01*
X92477660Y-102808098D02*
X92405000Y-102735438D01*
X77680000Y-128552534D02*
X78597866Y-129470400D01*
X81337866Y-101580400D02*
X79477866Y-103440400D01*
X96565482Y-128807052D02*
X96565482Y-128355013D01*
X74760000Y-106142534D02*
X75720000Y-107102534D01*
X96565482Y-128355013D02*
X96665481Y-128255014D01*
X74760000Y-104638266D02*
X74760000Y-106142534D01*
X91982134Y-101580400D02*
X81337866Y-101580400D01*
X75720000Y-115032534D02*
X76250000Y-115562534D01*
%TO.N,PCIE1_RXP*%
X82981681Y-102336585D02*
X79420000Y-105898266D01*
X91468318Y-102336585D02*
X82981681Y-102336585D01*
X79420000Y-105898266D02*
X79420000Y-107138266D01*
X78520000Y-114088266D02*
X77800000Y-114808266D01*
X97765481Y-128155014D02*
X97665481Y-128255014D01*
X97765481Y-127958015D02*
X97765481Y-128155014D01*
X77800000Y-114808266D02*
X77800000Y-124652534D01*
X97527866Y-127720400D02*
X97765481Y-127958015D01*
X91720000Y-102540400D02*
X91672133Y-102540400D01*
X77800000Y-124652534D02*
X80867866Y-127720400D01*
X78520000Y-108038266D02*
X78520000Y-114088266D01*
X80867866Y-127720400D02*
X97527866Y-127720400D01*
X91672133Y-102540400D02*
X91468318Y-102336585D01*
X79420000Y-107138266D02*
X78520000Y-108038266D01*
%TO.N,PCIE1_REF_CLKP*%
X98202134Y-126400400D02*
X99565482Y-127763748D01*
X92552134Y-103690400D02*
X89222134Y-103690400D01*
X99565482Y-127763748D02*
X99565482Y-128155015D01*
X79580000Y-123228266D02*
X82752134Y-126400400D01*
X82812134Y-105730400D02*
X80280000Y-108262534D01*
X80280000Y-111492534D02*
X79580000Y-112192534D01*
X82752134Y-126400400D02*
X98202134Y-126400400D01*
X99565482Y-128155015D02*
X99665481Y-128255014D01*
X79580000Y-112192534D02*
X79580000Y-123228266D01*
X87182134Y-105730400D02*
X82812134Y-105730400D01*
X89222134Y-103690400D02*
X87182134Y-105730400D01*
X80280000Y-108262534D02*
X80280000Y-111492534D01*
X93082124Y-102272363D02*
X93082124Y-103160410D01*
X93082124Y-103160410D02*
X92552134Y-103690400D01*
D17*
%TO.N,JTAG_TCK*%
X93542194Y-105275400D02*
X93297806Y-105275400D01*
X93775000Y-103745197D02*
X93775000Y-105042594D01*
X90647400Y-113135400D02*
X90942194Y-113135400D01*
X90519800Y-113007800D02*
X90647400Y-113135400D01*
X91347806Y-107285400D02*
X90525000Y-108108206D01*
X92832194Y-105985400D02*
X92487600Y-105985400D01*
X97025000Y-116385400D02*
X97320000Y-116680400D01*
X90942194Y-113135400D02*
X91175000Y-113368206D01*
X92415000Y-106058000D02*
X92415000Y-106402594D01*
X93065000Y-105752594D02*
X92832194Y-105985400D01*
X92415000Y-106402594D02*
X92182194Y-106635400D01*
X90525000Y-108108206D02*
X90525000Y-111885000D01*
X91175000Y-115502594D02*
X92057806Y-116385400D01*
X61309281Y-101983614D02*
X61309281Y-101375119D01*
X61309281Y-101375119D02*
X62097200Y-100587200D01*
X92057806Y-116385400D02*
X97025000Y-116385400D01*
X92487600Y-105985400D02*
X92415000Y-106058000D01*
X62097200Y-100587200D02*
X92577200Y-100587200D01*
X90525000Y-111885000D02*
X90519800Y-111890200D01*
X91765000Y-107052594D02*
X91532194Y-107285400D01*
X91532194Y-107285400D02*
X91347806Y-107285400D01*
X93297806Y-105275400D02*
X93065000Y-105508206D01*
X91765000Y-106808206D02*
X91765000Y-107052594D01*
X90519800Y-111890200D02*
X90519800Y-113007800D01*
X92577200Y-100587200D02*
X94304400Y-102314400D01*
X94304400Y-103215796D02*
X93775000Y-103745197D01*
X92182194Y-106635400D02*
X91937806Y-106635400D01*
X93775000Y-105042594D02*
X93542194Y-105275400D01*
X91175000Y-113368206D02*
X91175000Y-115502594D01*
X94304400Y-102314400D02*
X94304400Y-103215796D01*
X93065000Y-105508206D02*
X93065000Y-105752594D01*
X91937806Y-106635400D02*
X91765000Y-106808206D01*
%TO.N,JTAG_TDO*%
X97675000Y-116975400D02*
X97970000Y-116680400D01*
X91116000Y-106175200D02*
X91116000Y-106401594D01*
X92019000Y-105311600D02*
X91765000Y-105565600D01*
X91765000Y-105565600D02*
X91765000Y-105752594D01*
X91305800Y-105985400D02*
X91116000Y-106175200D01*
X90465000Y-106861000D02*
X90465000Y-107052594D01*
X90525000Y-113617400D02*
X90525000Y-115603800D01*
X93986900Y-102318531D02*
X93986900Y-103216100D01*
X93805872Y-102137503D02*
X93986900Y-102318531D01*
X91765000Y-105752594D02*
X91532194Y-105985400D01*
X92501000Y-100841200D02*
X93797303Y-102137503D01*
X90690600Y-106635400D02*
X90465000Y-106861000D01*
X92415000Y-104788000D02*
X92415000Y-105102594D01*
X91116000Y-106401594D02*
X90882194Y-106635400D01*
X92205994Y-105311600D02*
X92019000Y-105311600D01*
X62309281Y-101983614D02*
X63451695Y-100841200D01*
X90465000Y-107052594D02*
X90232194Y-107285400D01*
X93797303Y-102137503D02*
X93805872Y-102137503D01*
X89875000Y-107445200D02*
X89875000Y-112967400D01*
X90525000Y-115603800D02*
X91896600Y-116975400D01*
X93986900Y-103216100D02*
X92415000Y-104788000D01*
X90232194Y-107285400D02*
X90034800Y-107285400D01*
X91532194Y-105985400D02*
X91305800Y-105985400D01*
X91896600Y-116975400D02*
X97675000Y-116975400D01*
X89875000Y-112967400D02*
X90525000Y-113617400D01*
X90882194Y-106635400D02*
X90690600Y-106635400D01*
X92415000Y-105102594D02*
X92205994Y-105311600D01*
X63451695Y-100841200D02*
X92501000Y-100841200D01*
X90034800Y-107285400D02*
X89875000Y-107445200D01*
%TO.N,JTAG_nTRS*%
X80410600Y-99266400D02*
X81121800Y-99977600D01*
X92647806Y-115025400D02*
X96965000Y-115025400D01*
X93715000Y-106218206D02*
X93715000Y-106402594D01*
X92653400Y-99977600D02*
X94761600Y-102085800D01*
X94761600Y-102085800D02*
X94761600Y-105415994D01*
X65119800Y-97894800D02*
X65119800Y-97920200D01*
X94192194Y-105985400D02*
X93947806Y-105985400D01*
X65119800Y-97920200D02*
X66466000Y-99266400D01*
X96965000Y-115025400D02*
X97320000Y-115380400D01*
X92695400Y-107225400D02*
X92415000Y-107505800D01*
X93065000Y-106868206D02*
X93065000Y-107067800D01*
X81121800Y-99977600D02*
X92653400Y-99977600D01*
X66466000Y-99266400D02*
X80410600Y-99266400D01*
X91825000Y-108758206D02*
X91825000Y-112296600D01*
X94761600Y-105415994D02*
X94192194Y-105985400D01*
X92907400Y-107225400D02*
X92695400Y-107225400D01*
X93357806Y-106575400D02*
X93065000Y-106868206D01*
X92415000Y-107505800D02*
X92415000Y-108352594D01*
X93947806Y-105985400D02*
X93715000Y-106218206D01*
X92204794Y-108562800D02*
X92020406Y-108562800D01*
X93542194Y-106575400D02*
X93357806Y-106575400D01*
X93715000Y-106402594D02*
X93542194Y-106575400D01*
X92020406Y-108562800D02*
X91825000Y-108758206D01*
X92475000Y-112946600D02*
X92475000Y-114852594D01*
X91825000Y-112296600D02*
X92475000Y-112946600D01*
X92475000Y-114852594D02*
X92647806Y-115025400D01*
X93065000Y-107067800D02*
X92907400Y-107225400D01*
X92415000Y-108352594D02*
X92204794Y-108562800D01*
%TO.N,JTAG_TMS*%
X92701606Y-106581600D02*
X92415000Y-106868206D01*
X92592800Y-115735400D02*
X97675000Y-115735400D01*
X93065000Y-106043000D02*
X93065000Y-106402594D01*
X93715000Y-105752594D02*
X93542194Y-105925400D01*
X60309281Y-101308319D02*
X61239586Y-100378014D01*
X92057806Y-115735400D02*
X92561600Y-115735400D01*
X91765000Y-108455400D02*
X91175000Y-109045400D01*
X92415000Y-106868206D02*
X92415000Y-107052594D01*
X91765000Y-107518206D02*
X91765000Y-108455400D01*
X94368764Y-103643594D02*
X94368764Y-105235400D01*
X91175000Y-112322000D02*
X91825000Y-112972000D01*
X93182600Y-105925400D02*
X93065000Y-106043000D01*
X94558400Y-102187400D02*
X94558400Y-103453958D01*
X92749014Y-100378014D02*
X94558400Y-102187400D01*
X92885994Y-106581600D02*
X92701606Y-106581600D01*
X91825000Y-115502594D02*
X92057806Y-115735400D01*
X61239586Y-100378014D02*
X92749014Y-100378014D01*
X92415000Y-107052594D02*
X92182194Y-107285400D01*
X93715000Y-105565600D02*
X93715000Y-105752594D01*
X91997806Y-107285400D02*
X91765000Y-107518206D01*
X92577200Y-115751000D02*
X92592800Y-115735400D01*
X93542194Y-105925400D02*
X93182600Y-105925400D01*
X92561600Y-115735400D02*
X92577200Y-115751000D01*
X94368764Y-105235400D02*
X94268764Y-105335400D01*
X94558400Y-103453958D02*
X94368764Y-103643594D01*
X60309281Y-101983614D02*
X60309281Y-101308319D01*
X92182194Y-107285400D02*
X91997806Y-107285400D01*
X93065000Y-106402594D02*
X92885994Y-106581600D01*
X91175000Y-109045400D02*
X91175000Y-112322000D01*
X94268764Y-105335400D02*
X93945200Y-105335400D01*
X97675000Y-115735400D02*
X97970000Y-116030400D01*
X93945200Y-105335400D02*
X93715000Y-105565600D01*
X91825000Y-112972000D02*
X91825000Y-115502594D01*
%TO.N,JTAG_TDI*%
X89225000Y-113103600D02*
X89815000Y-113693600D01*
X63309281Y-101983614D02*
X63309281Y-101432519D01*
X91765000Y-104918206D02*
X91765000Y-105102594D01*
X90672200Y-105972000D02*
X90465000Y-106179200D01*
X93732900Y-102911300D02*
X93732900Y-103165300D01*
X98915000Y-117035400D02*
X99270000Y-116680400D01*
X90895594Y-105972000D02*
X90672200Y-105972000D01*
X90235194Y-106632400D02*
X90012400Y-106632400D01*
X91532194Y-117625400D02*
X98742194Y-117625400D01*
X93732900Y-103165300D02*
X92272400Y-104625800D01*
X92272400Y-101041200D02*
X93388678Y-102157478D01*
X91115000Y-105752594D02*
X90895594Y-105972000D01*
X89225000Y-107419800D02*
X89225000Y-113103600D01*
X91765000Y-105102594D02*
X91532194Y-105335400D01*
X63309281Y-101432519D02*
X63700600Y-101041200D01*
X91532194Y-105335400D02*
X91347806Y-105335400D01*
X93388678Y-102157478D02*
X93388678Y-102567078D01*
X63700600Y-101041200D02*
X92272400Y-101041200D01*
X92057406Y-104625800D02*
X91765000Y-104918206D01*
X91347806Y-105335400D02*
X91115000Y-105568206D01*
X92272400Y-104625800D02*
X92057406Y-104625800D01*
X89815000Y-115908206D02*
X91532194Y-117625400D01*
X89815000Y-113693600D02*
X89815000Y-115908206D01*
X90012400Y-106632400D02*
X89225000Y-107419800D01*
X91115000Y-105568206D02*
X91115000Y-105752594D01*
X90465000Y-106402594D02*
X90235194Y-106632400D01*
X98742194Y-117625400D02*
X98915000Y-117452594D01*
X93388678Y-102567078D02*
X93732900Y-102911300D01*
X98915000Y-117452594D02*
X98915000Y-117035400D01*
X90465000Y-106179200D02*
X90465000Y-106402594D01*
D18*
%TO.N,USB1_TX_N*%
X85882134Y-111780400D02*
X87270000Y-111780400D01*
X87270000Y-111780400D02*
X87570000Y-111480400D01*
X85420000Y-115668267D02*
X85420000Y-112242534D01*
X92046777Y-122153623D02*
X91905356Y-122153623D01*
X91905356Y-122153623D02*
X85420000Y-115668267D01*
X85420000Y-112242534D02*
X85882134Y-111780400D01*
%TO.N,USB1_TX_P*%
X91693223Y-122365756D02*
X85120000Y-115792533D01*
X85120000Y-115792533D02*
X85120000Y-112118266D01*
X85757866Y-111480400D02*
X86920000Y-111480400D01*
X91693223Y-122507177D02*
X91693223Y-122365756D01*
X85120000Y-112118266D02*
X85757866Y-111480400D01*
%TO.N,USB1_RX_N*%
X87441098Y-112259302D02*
X87616097Y-112084303D01*
X91682133Y-120380400D02*
X91432134Y-120380400D01*
X86520000Y-115468266D02*
X86520000Y-113832454D01*
X91432134Y-120380400D02*
X86520000Y-115468266D01*
X93455356Y-122153623D02*
X91682133Y-120380400D01*
X87441098Y-112911356D02*
X87441098Y-112259302D01*
X86520000Y-113832454D02*
X87441098Y-112911356D01*
X93596777Y-122153623D02*
X93455356Y-122153623D01*
%TO.N,USB1_RX_P*%
X87141096Y-112259302D02*
X86966097Y-112084303D01*
X91557867Y-120680400D02*
X91307866Y-120680400D01*
X93243223Y-122507177D02*
X93243223Y-122365756D01*
X86220000Y-113708186D02*
X87141096Y-112787090D01*
X93243223Y-122365756D02*
X91557867Y-120680400D01*
X87141096Y-112787090D02*
X87141096Y-112259302D01*
X91307866Y-120680400D02*
X86220000Y-115592534D01*
X86220000Y-115592534D02*
X86220000Y-113708186D01*
%TO.N,USB1_DP*%
X85007866Y-110830400D02*
X86920000Y-110830400D01*
X90143223Y-122415756D02*
X84470000Y-116742533D01*
X84470000Y-116742533D02*
X84470000Y-111368266D01*
X90143223Y-122557177D02*
X90143223Y-122415756D01*
X84470000Y-111368266D02*
X85007866Y-110830400D01*
%TO.N,USB1_DN*%
X90496777Y-122203623D02*
X90355356Y-122203623D01*
X85132134Y-111130400D02*
X87270000Y-111130400D01*
X87270000Y-111130400D02*
X87570000Y-110830400D01*
X84770000Y-116618267D02*
X84770000Y-111492534D01*
X90355356Y-122203623D02*
X84770000Y-116618267D01*
X84770000Y-111492534D02*
X85132134Y-111130400D01*
D17*
%TO.N,USB1_VBUS*%
X89875000Y-117685400D02*
X93920000Y-121730400D01*
X88337194Y-116380400D02*
X88575000Y-116618206D01*
X88575000Y-116618206D02*
X88575000Y-116835400D01*
X89420000Y-117685400D02*
X89875000Y-117685400D01*
X87925000Y-111125400D02*
X87925000Y-116152594D01*
X88775000Y-117035400D02*
X88992194Y-117035400D01*
X88870000Y-110180400D02*
X87925000Y-111125400D01*
X88992194Y-117035400D02*
X89220000Y-117263206D01*
X89220000Y-117485400D02*
X89420000Y-117685400D01*
X88575000Y-116835400D02*
X88775000Y-117035400D01*
X88152806Y-116380400D02*
X88337194Y-116380400D01*
X87925000Y-116152594D02*
X88152806Y-116380400D01*
X89220000Y-117263206D02*
X89220000Y-117485400D01*
%TO.N,DRAM_DQ29*%
X108128171Y-114159371D02*
X108128171Y-114197483D01*
X104030498Y-113692029D02*
X104103495Y-113661793D01*
X112708359Y-113837653D02*
X112743000Y-113836810D01*
X112919153Y-114583780D02*
X112945620Y-114647676D01*
X108991429Y-114303502D02*
X109078927Y-114391000D01*
X104103495Y-113661793D02*
X104143000Y-113660400D01*
X108991429Y-114263527D02*
X108991429Y-114303502D01*
X108359800Y-114391000D02*
X108591429Y-114159371D01*
X107576200Y-113991000D02*
X107959800Y-113991000D01*
X105544393Y-113820895D02*
X105574629Y-113747898D01*
X112427580Y-114723047D02*
X112491476Y-114696580D01*
X107468200Y-114099000D02*
X107576200Y-113991000D01*
X102143000Y-115224200D02*
X103243000Y-115224200D01*
X112918000Y-114011810D02*
X112918000Y-114549200D01*
X103243000Y-115224200D02*
X103943000Y-114524200D01*
X108591429Y-114159371D02*
X108591429Y-114078498D01*
X106543000Y-113660400D02*
X106582505Y-113661793D01*
X109078927Y-114391000D02*
X111066194Y-114391000D01*
X103943000Y-113860400D02*
X103944393Y-113820895D01*
X106655502Y-113692029D02*
X106711371Y-113747898D01*
X112540380Y-114647676D02*
X112566847Y-114583780D01*
X112294524Y-114696580D02*
X112358420Y-114723047D01*
X105382505Y-114759007D02*
X105455502Y-114728771D01*
X104143000Y-113660400D02*
X104182505Y-113661793D01*
X112568000Y-114549200D02*
X112568000Y-114011810D01*
X112568851Y-113977169D02*
X112595362Y-113913159D01*
X105270356Y-114733044D02*
X105316410Y-114759633D01*
X105630498Y-113692029D02*
X105703495Y-113661793D01*
X106343000Y-113860400D02*
X106344393Y-113820895D01*
X111066194Y-114391000D02*
X111399394Y-114724200D01*
X106030498Y-114728771D02*
X106103495Y-114759007D01*
X111582994Y-114724200D02*
X111626000Y-114681194D01*
X106143000Y-114760400D02*
X106182505Y-114759007D01*
X105511371Y-114672902D02*
X105541607Y-114599905D01*
X104182505Y-113661793D02*
X104255502Y-113692029D01*
X105943000Y-114560400D02*
X105944393Y-114599905D01*
X111626000Y-114681194D02*
X111626000Y-114436806D01*
X106311371Y-114672902D02*
X106341607Y-114599905D01*
X106743000Y-115124200D02*
X106843000Y-115224200D01*
X105541607Y-114599905D02*
X105543000Y-114560400D01*
X106341607Y-114599905D02*
X106343000Y-114560400D01*
X105143000Y-114560400D02*
X104547600Y-114560400D01*
X112644350Y-113864167D02*
X112708359Y-113837653D01*
X105455502Y-114728771D02*
X105511371Y-114672902D01*
X101693000Y-115074200D02*
X101993000Y-115074200D01*
X106430498Y-113692029D02*
X106503495Y-113661793D01*
X106182505Y-114759007D02*
X106255502Y-114728771D01*
X112890647Y-113913153D02*
X112917159Y-113977167D01*
X111626000Y-114436806D02*
X111798806Y-114264000D01*
X104311371Y-113747898D02*
X104341607Y-113820895D01*
X113058420Y-114723047D02*
X113093000Y-114724200D01*
X105943000Y-113860400D02*
X105943000Y-114560400D01*
X105343000Y-114760400D02*
X105382505Y-114759007D01*
X104255502Y-113692029D02*
X104311371Y-113747898D01*
X112595362Y-113913159D02*
X112644350Y-113864167D01*
X105911371Y-113747898D02*
X105941607Y-113820895D01*
X101386800Y-115380400D02*
X101693000Y-115074200D01*
X107959800Y-113991000D02*
X108128171Y-114159371D01*
X103943000Y-114524200D02*
X103943000Y-113860400D01*
X106743000Y-113860400D02*
X106743000Y-115124200D01*
X105143000Y-114560400D02*
X105169590Y-114561167D01*
X112358420Y-114723047D02*
X112393000Y-114724200D01*
X112568000Y-114011810D02*
X112568851Y-113977169D01*
X105974629Y-114672902D02*
X106030498Y-114728771D01*
X112491476Y-114696580D02*
X112540380Y-114647676D01*
X105243767Y-114686990D02*
X105270356Y-114733044D01*
X108720295Y-113992393D02*
X108991429Y-114263527D01*
X105855502Y-113692029D02*
X105911371Y-113747898D01*
X105169590Y-114561167D02*
X105215644Y-114587756D01*
X105316410Y-114759633D02*
X105343000Y-114760400D01*
X101220000Y-115380400D02*
X101386800Y-115380400D01*
X106255502Y-114728771D02*
X106311371Y-114672902D01*
X108128171Y-114197483D02*
X108320295Y-114389607D01*
X105782505Y-113661793D02*
X105855502Y-113692029D01*
X112841655Y-113864159D02*
X112890647Y-113913153D01*
X105941607Y-113820895D02*
X105943000Y-113860400D01*
X112294524Y-114340524D02*
X112294524Y-114696580D01*
X103974629Y-113747898D02*
X104030498Y-113692029D01*
X105743000Y-113660400D02*
X105782505Y-113661793D01*
X105574629Y-113747898D02*
X105630498Y-113692029D01*
X112777643Y-113837643D02*
X112841655Y-113864159D01*
X112743000Y-113836810D02*
X112777643Y-113837643D01*
X103944393Y-113820895D02*
X103974629Y-113747898D01*
X111798806Y-114264000D02*
X112218000Y-114264000D01*
X112994524Y-114696580D02*
X113058420Y-114723047D01*
X113093000Y-114724200D02*
X113740600Y-115371800D01*
X112917159Y-113977167D02*
X112918000Y-114011810D01*
X105543000Y-113860400D02*
X105544393Y-113820895D01*
X106103495Y-114759007D02*
X106143000Y-114760400D01*
X106582505Y-113661793D02*
X106655502Y-113692029D01*
X106374629Y-113747898D02*
X106430498Y-113692029D01*
X104343000Y-113860400D02*
X104343000Y-114355800D01*
X112918000Y-114549200D02*
X112919153Y-114583780D01*
X112393000Y-114724200D02*
X112427580Y-114723047D01*
X106711371Y-113747898D02*
X106741607Y-113820895D01*
X112218000Y-114264000D02*
X112294524Y-114340524D01*
X108647298Y-114022629D02*
X108720295Y-113992393D01*
X111399394Y-114724200D02*
X111582994Y-114724200D01*
X113740600Y-115371800D02*
X114156200Y-115371800D01*
X105703495Y-113661793D02*
X105743000Y-113660400D01*
X108320295Y-114389607D02*
X108359800Y-114391000D01*
X104341607Y-113820895D02*
X104343000Y-113860400D01*
X106344393Y-113820895D02*
X106374629Y-113747898D01*
X105215644Y-114587756D02*
X105242233Y-114633810D01*
X112945620Y-114647676D02*
X112994524Y-114696580D01*
X107468200Y-114999000D02*
X107468200Y-114099000D01*
X106503495Y-113661793D02*
X106543000Y-113660400D01*
X105944393Y-114599905D02*
X105974629Y-114672902D01*
X105543000Y-114560400D02*
X105543000Y-113860400D01*
X112566847Y-114583780D02*
X112568000Y-114549200D01*
X106343000Y-114560400D02*
X106343000Y-113860400D01*
X108591429Y-114078498D02*
X108647298Y-114022629D01*
X105242233Y-114633810D02*
X105243767Y-114686990D01*
X107243000Y-115224200D02*
X107468200Y-114999000D01*
X106741607Y-113820895D02*
X106743000Y-113860400D01*
X106843000Y-115224200D02*
X107243000Y-115224200D01*
X101993000Y-115074200D02*
X102143000Y-115224200D01*
X104547600Y-114560400D02*
X104343000Y-114355800D01*
D19*
%TO.N,3.3V_SW_DELAYED*%
X123555976Y-84470014D02*
X125143462Y-82882528D01*
X125143462Y-82882528D02*
X125143462Y-81475028D01*
X114815481Y-84470014D02*
X123555976Y-84470014D01*
X125143462Y-81475028D02*
X124603462Y-80935028D01*
D18*
%TO.N,DSI_D3_N*%
X83150896Y-110247585D02*
X83150896Y-118323429D01*
X83150896Y-110247585D02*
X83868081Y-109530400D01*
X83150896Y-118323429D02*
X87343223Y-122515756D01*
X87343223Y-122515756D02*
X87343223Y-122657177D01*
X83868081Y-109530400D02*
X86920000Y-109530400D01*
%TO.N,DSI_D1_N*%
X86920000Y-108880400D02*
X83257866Y-108880400D01*
X82570000Y-119292533D02*
X85743223Y-122465756D01*
X82570000Y-109568266D02*
X82570000Y-119292533D01*
X83257866Y-108880400D02*
X82570000Y-109568266D01*
X85743223Y-122465756D02*
X85743223Y-122607177D01*
%TO.N,DSI_D0_N*%
X81879626Y-120002159D02*
X84143223Y-122265756D01*
X81879626Y-108984570D02*
X81879626Y-120002159D01*
X86920000Y-108230400D02*
X82633796Y-108230400D01*
X82633796Y-108230400D02*
X81879626Y-108984570D01*
X84143223Y-122265756D02*
X84143223Y-122407177D01*
%TO.N,DSI_D2_N*%
X82743223Y-122607177D02*
X82743223Y-122465756D01*
X81186206Y-108654370D02*
X82260176Y-107580400D01*
X82743223Y-122465756D02*
X81186206Y-120908740D01*
X81186206Y-120908740D02*
X81186206Y-108654370D01*
X82260176Y-107580400D02*
X86920000Y-107580400D01*
%TO.N,DSI_D3_P*%
X87270000Y-109830400D02*
X87570000Y-109530400D01*
X83992349Y-109830400D02*
X87270000Y-109830400D01*
X87555356Y-122303623D02*
X87696777Y-122303623D01*
X83450896Y-118199163D02*
X87555356Y-122303623D01*
X83450896Y-110371853D02*
X83992349Y-109830400D01*
X83450896Y-110371853D02*
X83450896Y-118199163D01*
%TO.N,DSI_D1_P*%
X87570000Y-108880400D02*
X87270000Y-109180400D01*
X82870000Y-109692534D02*
X82870000Y-119168267D01*
X87270000Y-109180400D02*
X83382134Y-109180400D01*
X85955356Y-122253623D02*
X86096777Y-122253623D01*
X83382134Y-109180400D02*
X82870000Y-109692534D01*
X82870000Y-119168267D02*
X85955356Y-122253623D01*
%TO.N,DSI_D0_P*%
X87570000Y-108230400D02*
X87270000Y-108530400D01*
X82179626Y-119877893D02*
X84355356Y-122053623D01*
X82179626Y-109108838D02*
X82179626Y-119877893D01*
X84355356Y-122053623D02*
X84496777Y-122053623D01*
X82758064Y-108530400D02*
X82179626Y-109108838D01*
X87270000Y-108530400D02*
X82758064Y-108530400D01*
%TO.N,DSI_D2_P*%
X83096777Y-122253623D02*
X82955356Y-122253623D01*
X81486206Y-120784472D02*
X81486206Y-108778638D01*
X82955356Y-122253623D02*
X81486206Y-120784472D01*
X87270000Y-107880400D02*
X87570000Y-107580400D01*
X82384444Y-107880400D02*
X87270000Y-107880400D01*
X81486206Y-108778638D02*
X82384444Y-107880400D01*
%TO.N,DSI_CLK_N*%
X88394999Y-109093267D02*
X88394999Y-109055399D01*
X88843223Y-122607177D02*
X88843223Y-122465756D01*
X87707866Y-110130400D02*
X88020000Y-109818266D01*
X83820000Y-110718266D02*
X84407866Y-110130400D01*
X88394999Y-109055399D02*
X88220000Y-108880400D01*
X83820000Y-117442533D02*
X83820000Y-110718266D01*
X88020000Y-109818266D02*
X88020000Y-109468266D01*
X88020000Y-109468266D02*
X88394999Y-109093267D01*
X88843223Y-122465756D02*
X83820000Y-117442533D01*
X84407866Y-110130400D02*
X87707866Y-110130400D01*
%TO.N,DSI_CLK_P*%
X88695001Y-109055399D02*
X88870000Y-108880400D01*
X89196777Y-122253623D02*
X89055356Y-122253623D01*
X88320000Y-109592534D02*
X88695001Y-109217533D01*
X88695001Y-109217533D02*
X88695001Y-109055399D01*
X84120000Y-117318267D02*
X84120000Y-110842534D01*
X88320000Y-109942534D02*
X88320000Y-109592534D01*
X84120000Y-110842534D02*
X84532134Y-110430400D01*
X87832134Y-110430400D02*
X88320000Y-109942534D01*
X84532134Y-110430400D02*
X87832134Y-110430400D01*
X89055356Y-122253623D02*
X84120000Y-117318267D01*
D17*
%TO.N,DRAM_DQ31*%
X108790200Y-111921400D02*
X108290200Y-111921400D01*
X104743950Y-111921400D02*
X104690200Y-111921400D01*
X111839994Y-112415600D02*
X111789194Y-112466400D01*
X105233147Y-111526249D02*
X105193950Y-111525149D01*
X109858253Y-112422598D02*
X109858253Y-112448880D01*
X106002062Y-111525251D02*
X105811083Y-111716230D01*
X113858276Y-112955656D02*
X113799440Y-112896820D01*
X114451200Y-115666000D02*
X114451200Y-115266000D01*
X113843400Y-116073800D02*
X114143000Y-115774200D01*
X104690200Y-111921400D02*
X104650998Y-111920366D01*
X106908901Y-111556525D02*
X106742113Y-111723313D01*
X105811083Y-111716230D02*
X105795370Y-111716230D01*
X104201062Y-111526523D02*
X104128744Y-111556476D01*
X103695800Y-111921400D02*
X103193000Y-112424200D01*
X103843950Y-111921400D02*
X103695800Y-111921400D01*
X104855597Y-111890356D02*
X104783154Y-111920350D01*
X105621241Y-111890359D02*
X105478563Y-111890359D01*
X105028744Y-111556476D02*
X104973391Y-111611822D01*
X105393129Y-111762477D02*
X105392075Y-111723274D01*
X105101062Y-111526523D02*
X105028744Y-111556476D01*
X106293479Y-111762454D02*
X106277403Y-111762454D01*
X113203885Y-112085085D02*
X112403808Y-112085085D01*
X113843400Y-116349122D02*
X113843400Y-116073800D01*
X111881568Y-112448879D02*
X111848289Y-112415600D01*
X115093000Y-114974200D02*
X115343000Y-114724200D01*
X111789194Y-112466400D02*
X111544806Y-112466400D01*
X102093000Y-112424200D02*
X102091800Y-112425400D01*
X106277403Y-111762454D02*
X106040200Y-111525251D01*
X104783154Y-111920350D02*
X104743950Y-111921400D01*
X113858276Y-113093221D02*
X113858276Y-112955656D01*
X103193000Y-112424200D02*
X102093000Y-112424200D01*
X104943429Y-111684136D02*
X104942075Y-111723275D01*
X110196826Y-112084025D02*
X109858253Y-112422598D01*
X101807806Y-112425400D02*
X100925000Y-113308206D01*
X104493129Y-111762477D02*
X104492075Y-111723274D01*
X104405581Y-111556233D02*
X104333147Y-111526249D01*
X104578563Y-111890359D02*
X104523127Y-111834916D01*
X107555453Y-111890080D02*
X107396641Y-111890080D01*
X111333432Y-112293594D02*
X111146826Y-112480200D01*
X113799440Y-112680640D02*
X113203885Y-112085085D01*
X111372000Y-112293594D02*
X111333432Y-112293594D01*
X105193950Y-111525149D02*
X105140200Y-111525149D01*
X104073391Y-111611822D02*
X104043429Y-111684136D01*
X103955597Y-111890356D02*
X103883154Y-111920350D01*
X104011042Y-111834918D02*
X103955597Y-111890356D01*
X110308261Y-112115325D02*
X110235958Y-112085367D01*
X104041045Y-111762478D02*
X104011042Y-111834918D01*
X104911042Y-111834918D02*
X104855597Y-111890356D01*
X104043429Y-111684136D02*
X104042075Y-111723275D01*
X108005461Y-111556525D02*
X107933158Y-111526567D01*
X104942075Y-111723275D02*
X104941045Y-111762478D01*
X104293950Y-111525149D02*
X104240200Y-111525149D01*
X104240200Y-111525149D02*
X104201062Y-111526523D01*
X114451200Y-115266000D02*
X114743000Y-114974200D01*
X107160796Y-111611871D02*
X107105461Y-111556525D01*
X106668429Y-111834750D02*
X106323433Y-111834750D01*
X104461024Y-111611655D02*
X104405581Y-111556233D01*
X110235958Y-112085367D02*
X110196826Y-112084025D01*
X104523127Y-111834916D02*
X104493129Y-111762477D01*
X104491036Y-111684077D02*
X104461024Y-111611655D01*
X106040200Y-111525251D02*
X106002062Y-111525251D01*
X112317613Y-112115083D02*
X111953870Y-112478826D01*
X106323433Y-111834750D02*
X106293479Y-111762454D01*
X107190741Y-111684180D02*
X107160796Y-111611871D01*
X105305581Y-111556233D02*
X105233147Y-111526249D01*
X105361024Y-111611655D02*
X105305581Y-111556233D01*
X106740737Y-111762442D02*
X106668429Y-111834750D01*
X104492075Y-111723274D02*
X104491036Y-111684077D01*
X113511843Y-116680679D02*
X113843400Y-116349122D01*
X105478563Y-111890359D02*
X105423127Y-111834916D01*
X115343000Y-114724200D02*
X115343000Y-113974200D01*
X107105461Y-111556525D02*
X106908901Y-111556525D01*
X111146826Y-112480200D02*
X110593000Y-112480200D01*
X104333147Y-111526249D02*
X104293950Y-111525149D01*
X111544806Y-112466400D02*
X111372000Y-112293594D01*
X104941045Y-111762478D02*
X104911042Y-111834918D01*
X114143000Y-115774200D02*
X114343000Y-115774200D01*
X103883154Y-111920350D02*
X103843950Y-111921400D01*
X105391036Y-111684077D02*
X105361024Y-111611655D01*
X114743000Y-114974200D02*
X115093000Y-114974200D01*
X110308261Y-112195461D02*
X110308261Y-112115325D01*
X108290200Y-111921400D02*
X108005461Y-111636661D01*
X107396641Y-111890080D02*
X107190741Y-111684180D01*
X115343000Y-113974200D02*
X115099197Y-113730397D01*
X106742113Y-111723313D02*
X106740737Y-111762442D01*
X113799440Y-112896820D02*
X113799440Y-112680640D01*
X104650998Y-111920366D02*
X104578563Y-111890359D01*
X100925000Y-113725400D02*
X100570000Y-114080400D01*
X115099197Y-113730397D02*
X114495452Y-113730397D01*
X111848289Y-112415600D02*
X111839994Y-112415600D01*
X100925000Y-113308206D02*
X100925000Y-113725400D01*
X104128744Y-111556476D02*
X104073391Y-111611822D01*
X111953870Y-112478826D02*
X111881568Y-112448879D01*
X102091800Y-112425400D02*
X101807806Y-112425400D01*
X112403808Y-112085085D02*
X112331392Y-112115083D01*
X107610787Y-111834742D02*
X107555453Y-111890080D01*
X109858253Y-112448880D02*
X109832933Y-112474200D01*
X107610787Y-111808464D02*
X107610787Y-111834742D01*
X107933158Y-111526567D02*
X107894026Y-111525225D01*
X110593000Y-112480200D02*
X110308261Y-112195461D01*
X109343000Y-112474200D02*
X108790200Y-111921400D01*
X109832933Y-112474200D02*
X109343000Y-112474200D01*
X112331392Y-112115083D02*
X112317613Y-112115083D01*
X107894026Y-111525225D02*
X107610787Y-111808464D01*
X105140200Y-111525149D02*
X105101062Y-111526523D01*
X114343000Y-115774200D02*
X114451200Y-115666000D01*
X104042075Y-111723275D02*
X104041045Y-111762478D01*
X105392075Y-111723274D02*
X105391036Y-111684077D01*
X104973391Y-111611822D02*
X104943429Y-111684136D01*
X105795370Y-111716230D02*
X105621241Y-111890359D01*
X114495452Y-113730397D02*
X113858276Y-113093221D01*
X105423127Y-111834916D02*
X105393129Y-111762477D01*
X108005461Y-111636661D02*
X108005461Y-111556525D01*
%TO.N,USB2_VBUS*%
X89165000Y-114375400D02*
X89165000Y-116525400D01*
X89165000Y-116525400D02*
X94070000Y-121430400D01*
X88870000Y-114080400D02*
X89165000Y-114375400D01*
D18*
%TO.N,PCIE1_RXN*%
X79720000Y-106022534D02*
X79720000Y-107262534D01*
X78100000Y-124528266D02*
X80992134Y-127420400D01*
X98065481Y-127833747D02*
X98065481Y-128155014D01*
X98065481Y-128155014D02*
X98165481Y-128255014D01*
X80992134Y-127420400D02*
X97652134Y-127420400D01*
X91460000Y-102870900D02*
X91460000Y-102752533D01*
X78820000Y-108162534D02*
X78820000Y-114212534D01*
X97652134Y-127420400D02*
X98065481Y-127833747D01*
X79720000Y-107262534D02*
X78820000Y-108162534D01*
X78820000Y-114212534D02*
X78100000Y-114932534D01*
X78100000Y-114932534D02*
X78100000Y-124528266D01*
X83105949Y-102636585D02*
X79720000Y-106022534D01*
X91344052Y-102636585D02*
X83105949Y-102636585D01*
X91460000Y-102752533D02*
X91344052Y-102636585D01*
%TO.N,PCIE1_REF_CLKN*%
X79280000Y-123352534D02*
X82627866Y-126700400D01*
X82627866Y-126700400D02*
X98077866Y-126700400D01*
X99265480Y-127888014D02*
X99265480Y-128155015D01*
X82687866Y-105430400D02*
X79980000Y-108138266D01*
X79980000Y-111368266D02*
X79280000Y-112068266D01*
X87057866Y-105430400D02*
X82687866Y-105430400D01*
X92427866Y-103390400D02*
X89097866Y-103390400D01*
X79980000Y-108138266D02*
X79980000Y-111368266D01*
X92782123Y-102492523D02*
X92782123Y-103036143D01*
X89097866Y-103390400D02*
X87057866Y-105430400D01*
X92720000Y-102430400D02*
X92782123Y-102492523D01*
X79280000Y-112068266D02*
X79280000Y-123352534D01*
X92782123Y-103036143D02*
X92427866Y-103390400D01*
X98077866Y-126700400D02*
X99265480Y-127888014D01*
X99265480Y-128155015D02*
X99165481Y-128255014D01*
%TD*%
%TA.AperFunction,Conductor*%
%TO.N,GND*%
G36*
X59007602Y-85665016D02*
G01*
X59054095Y-85718672D01*
X59065481Y-85771014D01*
X59065481Y-124819014D01*
X59045479Y-124887135D01*
X58991823Y-124933628D01*
X58939481Y-124945014D01*
X58716981Y-124945014D01*
X58648860Y-124925012D01*
X58602367Y-124871356D01*
X58590981Y-124819014D01*
X58590981Y-85771014D01*
X58610983Y-85702893D01*
X58664639Y-85656400D01*
X58716981Y-85645014D01*
X58939481Y-85645014D01*
X59007602Y-85665016D01*
G37*
%TD.AperFunction*%
%TD*%
%TA.AperFunction,Conductor*%
%TO.N,GND*%
G36*
X133002002Y-78590516D02*
G01*
X133048495Y-78644172D01*
X133059881Y-78696514D01*
X133059881Y-78919014D01*
X133039879Y-78987135D01*
X132986223Y-79033628D01*
X132933881Y-79045014D01*
X66091481Y-79045014D01*
X66023360Y-79025012D01*
X65976867Y-78971356D01*
X65965481Y-78919014D01*
X65965481Y-78696514D01*
X65985483Y-78628393D01*
X66039139Y-78581900D01*
X66091481Y-78570514D01*
X132933881Y-78570514D01*
X133002002Y-78590516D01*
G37*
%TD.AperFunction*%
%TD*%
%TA.AperFunction,Conductor*%
%TO.N,GND*%
G36*
X140482102Y-84610216D02*
G01*
X140528595Y-84663872D01*
X140539981Y-84716214D01*
X140539981Y-123815014D01*
X140519979Y-123883135D01*
X140466323Y-123929628D01*
X140413981Y-123941014D01*
X140191481Y-123941014D01*
X140123360Y-123921012D01*
X140076867Y-123867356D01*
X140065481Y-123815014D01*
X140065481Y-84716214D01*
X140085483Y-84648093D01*
X140139139Y-84601600D01*
X140191481Y-84590214D01*
X140413981Y-84590214D01*
X140482102Y-84610216D01*
G37*
%TD.AperFunction*%
%TD*%
%TA.AperFunction,Conductor*%
%TO.N,GND*%
G36*
X132903602Y-131065016D02*
G01*
X132950095Y-131118672D01*
X132961481Y-131171014D01*
X132961481Y-131393514D01*
X132941479Y-131461635D01*
X132887823Y-131508128D01*
X132835481Y-131519514D01*
X66291481Y-131519514D01*
X66223360Y-131499512D01*
X66176867Y-131445856D01*
X66165481Y-131393514D01*
X66165481Y-131171014D01*
X66185483Y-131102893D01*
X66239139Y-131056400D01*
X66291481Y-131045014D01*
X132835481Y-131045014D01*
X132903602Y-131065016D01*
G37*
%TD.AperFunction*%
%TD*%
%TA.AperFunction,Conductor*%
%TO.N,VDDA_1V8*%
G36*
X99000455Y-103663320D02*
G01*
X99017560Y-103695321D01*
X99034033Y-103778139D01*
X99034034Y-103778141D01*
X99061716Y-103819570D01*
X99089399Y-103861001D01*
X99133544Y-103890497D01*
X99172258Y-103916365D01*
X99172260Y-103916366D01*
X99269999Y-103935808D01*
X99270000Y-103935808D01*
X99364807Y-103916949D01*
X99411723Y-103926281D01*
X99438299Y-103966054D01*
X99439500Y-103978248D01*
X99439500Y-104680901D01*
X99439501Y-104680914D01*
X99439501Y-104697066D01*
X99445294Y-104707100D01*
X99445983Y-104708294D01*
X99452224Y-104723361D01*
X99455582Y-104735890D01*
X99455583Y-104735892D01*
X99469075Y-104749384D01*
X99469083Y-104749393D01*
X99470568Y-104750878D01*
X99470570Y-104750881D01*
X99522176Y-104802486D01*
X99540481Y-104846678D01*
X99540481Y-105392925D01*
X99522175Y-105437119D01*
X99477981Y-105455425D01*
X99443258Y-105444892D01*
X99367741Y-105394434D01*
X99367739Y-105394433D01*
X99270001Y-105374992D01*
X99269999Y-105374992D01*
X99172260Y-105394433D01*
X99172258Y-105394434D01*
X99089399Y-105449799D01*
X99034034Y-105532658D01*
X99034033Y-105532660D01*
X99014592Y-105630399D01*
X99014592Y-105630400D01*
X99034033Y-105728139D01*
X99034034Y-105728141D01*
X99061716Y-105769570D01*
X99089399Y-105811001D01*
X99133544Y-105840497D01*
X99172258Y-105866365D01*
X99172260Y-105866366D01*
X99269999Y-105885808D01*
X99270000Y-105885808D01*
X99270001Y-105885808D01*
X99341598Y-105871566D01*
X99367740Y-105866366D01*
X99443258Y-105815906D01*
X99490174Y-105806575D01*
X99529948Y-105833151D01*
X99540481Y-105867874D01*
X99540481Y-106042925D01*
X99522175Y-106087119D01*
X99477981Y-106105425D01*
X99443258Y-106094892D01*
X99367741Y-106044434D01*
X99367739Y-106044433D01*
X99270001Y-106024992D01*
X99269999Y-106024992D01*
X99172260Y-106044433D01*
X99172258Y-106044434D01*
X99089399Y-106099799D01*
X99034034Y-106182658D01*
X99034033Y-106182660D01*
X99014592Y-106280399D01*
X99014592Y-106280400D01*
X99034033Y-106378139D01*
X99034034Y-106378141D01*
X99061716Y-106419570D01*
X99089399Y-106461001D01*
X99133544Y-106490497D01*
X99172258Y-106516365D01*
X99172260Y-106516366D01*
X99269999Y-106535808D01*
X99270000Y-106535808D01*
X99270001Y-106535808D01*
X99341598Y-106521566D01*
X99367740Y-106516366D01*
X99443258Y-106465906D01*
X99490174Y-106456575D01*
X99529948Y-106483151D01*
X99540481Y-106517874D01*
X99540481Y-107342925D01*
X99522175Y-107387119D01*
X99477981Y-107405425D01*
X99443258Y-107394892D01*
X99367741Y-107344434D01*
X99367739Y-107344433D01*
X99270001Y-107324992D01*
X99269999Y-107324992D01*
X99172260Y-107344433D01*
X99172258Y-107344434D01*
X99089399Y-107399799D01*
X99034034Y-107482658D01*
X99034033Y-107482660D01*
X99014592Y-107580399D01*
X99014592Y-107580400D01*
X99034033Y-107678139D01*
X99034034Y-107678141D01*
X99061716Y-107719570D01*
X99089399Y-107761001D01*
X99151403Y-107802430D01*
X99172258Y-107816365D01*
X99172260Y-107816366D01*
X99269999Y-107835808D01*
X99270000Y-107835808D01*
X99270001Y-107835808D01*
X99318870Y-107826087D01*
X99367740Y-107816366D01*
X99443258Y-107765906D01*
X99490174Y-107756575D01*
X99529948Y-107783151D01*
X99540481Y-107817874D01*
X99540481Y-107992925D01*
X99522175Y-108037119D01*
X99477981Y-108055425D01*
X99443258Y-108044892D01*
X99367741Y-107994434D01*
X99367739Y-107994433D01*
X99270001Y-107974992D01*
X99269999Y-107974992D01*
X99172260Y-107994433D01*
X99172258Y-107994434D01*
X99089399Y-108049799D01*
X99034034Y-108132658D01*
X99034033Y-108132660D01*
X99014592Y-108230399D01*
X99014592Y-108230400D01*
X99034033Y-108328139D01*
X99034034Y-108328141D01*
X99061716Y-108369570D01*
X99089399Y-108411001D01*
X99144881Y-108448072D01*
X99172258Y-108466365D01*
X99172260Y-108466366D01*
X99269999Y-108485808D01*
X99270000Y-108485808D01*
X99270001Y-108485808D01*
X99318870Y-108476087D01*
X99367740Y-108466366D01*
X99443258Y-108415906D01*
X99490174Y-108406575D01*
X99529948Y-108433151D01*
X99540481Y-108467874D01*
X99540481Y-108642925D01*
X99522175Y-108687119D01*
X99477981Y-108705425D01*
X99443258Y-108694892D01*
X99367741Y-108644434D01*
X99367739Y-108644433D01*
X99270001Y-108624992D01*
X99269999Y-108624992D01*
X99172260Y-108644433D01*
X99172258Y-108644434D01*
X99089399Y-108699799D01*
X99034034Y-108782658D01*
X99034033Y-108782660D01*
X99014592Y-108880399D01*
X99014592Y-108880400D01*
X99034033Y-108978139D01*
X99034034Y-108978141D01*
X99061716Y-109019570D01*
X99089399Y-109061001D01*
X99151403Y-109102430D01*
X99172258Y-109116365D01*
X99172260Y-109116366D01*
X99269999Y-109135808D01*
X99270000Y-109135808D01*
X99270001Y-109135808D01*
X99318870Y-109126087D01*
X99367740Y-109116366D01*
X99443258Y-109065906D01*
X99490174Y-109056575D01*
X99529948Y-109083151D01*
X99540481Y-109117874D01*
X99540481Y-109292925D01*
X99522175Y-109337119D01*
X99477981Y-109355425D01*
X99443258Y-109344892D01*
X99367741Y-109294434D01*
X99367739Y-109294433D01*
X99270001Y-109274992D01*
X99269999Y-109274992D01*
X99172260Y-109294433D01*
X99172258Y-109294434D01*
X99089399Y-109349799D01*
X99034034Y-109432658D01*
X99034033Y-109432660D01*
X99014592Y-109530399D01*
X99014592Y-109530400D01*
X99034033Y-109628139D01*
X99034034Y-109628141D01*
X99061716Y-109669570D01*
X99089399Y-109711001D01*
X99151403Y-109752430D01*
X99172258Y-109766365D01*
X99172260Y-109766366D01*
X99269999Y-109785808D01*
X99270000Y-109785808D01*
X99270001Y-109785808D01*
X99318870Y-109776087D01*
X99367740Y-109766366D01*
X99443258Y-109715906D01*
X99490174Y-109706575D01*
X99529948Y-109733151D01*
X99540481Y-109767874D01*
X99540481Y-109942925D01*
X99522175Y-109987119D01*
X99477981Y-110005425D01*
X99443258Y-109994892D01*
X99367741Y-109944434D01*
X99367739Y-109944433D01*
X99270001Y-109924992D01*
X99269999Y-109924992D01*
X99172260Y-109944433D01*
X99172258Y-109944434D01*
X99089399Y-109999799D01*
X99034034Y-110082658D01*
X99034033Y-110082660D01*
X99014592Y-110180399D01*
X99014592Y-110180400D01*
X99034033Y-110278139D01*
X99034034Y-110278141D01*
X99061716Y-110319570D01*
X99089399Y-110361001D01*
X99151403Y-110402430D01*
X99172258Y-110416365D01*
X99172260Y-110416366D01*
X99269999Y-110435808D01*
X99270000Y-110435808D01*
X99270001Y-110435808D01*
X99318870Y-110426087D01*
X99367740Y-110416366D01*
X99443258Y-110365906D01*
X99490174Y-110356575D01*
X99529948Y-110383151D01*
X99540481Y-110417874D01*
X99540481Y-111120014D01*
X99813189Y-111120014D01*
X99857383Y-111138320D01*
X99875689Y-111182514D01*
X99857383Y-111226708D01*
X99825382Y-111243813D01*
X99822260Y-111244433D01*
X99822258Y-111244434D01*
X99739399Y-111299799D01*
X99684034Y-111382658D01*
X99684033Y-111382660D01*
X99664592Y-111480399D01*
X99664592Y-111480400D01*
X99684033Y-111578139D01*
X99684034Y-111578141D01*
X99711716Y-111619570D01*
X99739399Y-111661001D01*
X99801403Y-111702430D01*
X99822258Y-111716365D01*
X99822260Y-111716366D01*
X99919999Y-111735808D01*
X99920000Y-111735808D01*
X99920001Y-111735808D01*
X99968870Y-111726087D01*
X100017740Y-111716366D01*
X100093258Y-111665906D01*
X100140174Y-111656575D01*
X100179948Y-111683151D01*
X100190481Y-111717874D01*
X100190481Y-111892925D01*
X100172175Y-111937119D01*
X100127981Y-111955425D01*
X100093258Y-111944892D01*
X100017741Y-111894434D01*
X100017739Y-111894433D01*
X99920001Y-111874992D01*
X99919999Y-111874992D01*
X99822260Y-111894433D01*
X99822258Y-111894434D01*
X99739399Y-111949799D01*
X99684034Y-112032658D01*
X99684033Y-112032660D01*
X99664592Y-112130399D01*
X99664592Y-112130400D01*
X99684033Y-112228139D01*
X99684034Y-112228141D01*
X99701937Y-112254934D01*
X99739399Y-112311001D01*
X99780205Y-112338266D01*
X99822258Y-112366365D01*
X99822260Y-112366366D01*
X99919999Y-112385808D01*
X99920000Y-112385808D01*
X99920001Y-112385808D01*
X99968870Y-112376087D01*
X100017740Y-112366366D01*
X100093258Y-112315906D01*
X100140174Y-112306575D01*
X100179948Y-112333151D01*
X100190481Y-112367874D01*
X100190481Y-113007514D01*
X100172175Y-113051708D01*
X100127981Y-113070014D01*
X99492476Y-113070014D01*
X99448282Y-113051708D01*
X99429976Y-113007514D01*
X99448282Y-112963320D01*
X99450597Y-112961003D01*
X99450601Y-112961001D01*
X99505966Y-112878140D01*
X99525408Y-112780400D01*
X99523294Y-112769774D01*
X99505966Y-112682660D01*
X99505965Y-112682658D01*
X99492030Y-112661803D01*
X99450601Y-112599799D01*
X99409170Y-112572116D01*
X99367741Y-112544434D01*
X99367739Y-112544433D01*
X99270001Y-112524992D01*
X99269999Y-112524992D01*
X99172260Y-112544433D01*
X99172258Y-112544434D01*
X99089399Y-112599799D01*
X99034034Y-112682658D01*
X99034033Y-112682660D01*
X99014592Y-112780399D01*
X99014592Y-112780400D01*
X99034033Y-112878139D01*
X99034034Y-112878141D01*
X99089399Y-112961001D01*
X99091718Y-112963320D01*
X99110024Y-113007514D01*
X99091718Y-113051708D01*
X99047524Y-113070014D01*
X98842476Y-113070014D01*
X98798282Y-113051708D01*
X98779976Y-113007514D01*
X98798282Y-112963320D01*
X98800597Y-112961003D01*
X98800601Y-112961001D01*
X98855966Y-112878140D01*
X98875408Y-112780400D01*
X98873294Y-112769774D01*
X98855966Y-112682660D01*
X98855965Y-112682658D01*
X98842030Y-112661803D01*
X98800601Y-112599799D01*
X98759170Y-112572116D01*
X98717741Y-112544434D01*
X98717739Y-112544433D01*
X98620001Y-112524992D01*
X98619999Y-112524992D01*
X98522260Y-112544433D01*
X98522258Y-112544434D01*
X98439399Y-112599799D01*
X98384034Y-112682658D01*
X98384033Y-112682660D01*
X98364592Y-112780399D01*
X98364592Y-112780400D01*
X98384033Y-112878139D01*
X98384034Y-112878141D01*
X98439399Y-112961001D01*
X98441718Y-112963320D01*
X98460024Y-113007514D01*
X98441718Y-113051708D01*
X98397524Y-113070014D01*
X97542476Y-113070014D01*
X97498282Y-113051708D01*
X97479976Y-113007514D01*
X97498282Y-112963320D01*
X97500597Y-112961003D01*
X97500601Y-112961001D01*
X97555966Y-112878140D01*
X97575408Y-112780400D01*
X97573294Y-112769774D01*
X97555966Y-112682660D01*
X97555965Y-112682658D01*
X97542030Y-112661803D01*
X97500601Y-112599799D01*
X97459170Y-112572116D01*
X97417741Y-112544434D01*
X97417739Y-112544433D01*
X97320001Y-112524992D01*
X97319999Y-112524992D01*
X97222260Y-112544433D01*
X97222258Y-112544434D01*
X97139399Y-112599799D01*
X97084034Y-112682658D01*
X97084033Y-112682660D01*
X97064592Y-112780399D01*
X97064592Y-112780400D01*
X97084033Y-112878139D01*
X97084034Y-112878141D01*
X97139399Y-112961001D01*
X97141718Y-112963320D01*
X97160024Y-113007514D01*
X97141718Y-113051708D01*
X97097524Y-113070014D01*
X96892476Y-113070014D01*
X96848282Y-113051708D01*
X96829976Y-113007514D01*
X96848282Y-112963320D01*
X96850597Y-112961003D01*
X96850601Y-112961001D01*
X96905966Y-112878140D01*
X96925408Y-112780400D01*
X96923294Y-112769774D01*
X96905966Y-112682660D01*
X96905965Y-112682658D01*
X96892030Y-112661803D01*
X96850601Y-112599799D01*
X96809170Y-112572116D01*
X96767741Y-112544434D01*
X96767739Y-112544433D01*
X96670001Y-112524992D01*
X96669999Y-112524992D01*
X96572260Y-112544433D01*
X96572258Y-112544434D01*
X96489399Y-112599799D01*
X96434034Y-112682658D01*
X96434033Y-112682660D01*
X96414592Y-112780399D01*
X96414592Y-112780400D01*
X96434033Y-112878139D01*
X96434034Y-112878141D01*
X96489399Y-112961001D01*
X96491718Y-112963320D01*
X96510024Y-113007514D01*
X96491718Y-113051708D01*
X96447524Y-113070014D01*
X96242476Y-113070014D01*
X96198282Y-113051708D01*
X96179976Y-113007514D01*
X96198282Y-112963320D01*
X96200597Y-112961003D01*
X96200601Y-112961001D01*
X96255966Y-112878140D01*
X96275408Y-112780400D01*
X96273294Y-112769774D01*
X96255966Y-112682660D01*
X96255965Y-112682658D01*
X96242030Y-112661803D01*
X96200601Y-112599799D01*
X96159170Y-112572116D01*
X96117741Y-112544434D01*
X96117739Y-112544433D01*
X96020001Y-112524992D01*
X96019999Y-112524992D01*
X95922260Y-112544433D01*
X95922258Y-112544434D01*
X95839399Y-112599799D01*
X95784034Y-112682658D01*
X95784033Y-112682660D01*
X95764592Y-112780399D01*
X95764592Y-112780400D01*
X95784033Y-112878139D01*
X95784034Y-112878141D01*
X95839399Y-112961001D01*
X95841718Y-112963320D01*
X95860024Y-113007514D01*
X95841718Y-113051708D01*
X95797524Y-113070014D01*
X95592476Y-113070014D01*
X95548282Y-113051708D01*
X95529976Y-113007514D01*
X95548282Y-112963320D01*
X95550597Y-112961003D01*
X95550601Y-112961001D01*
X95605966Y-112878140D01*
X95625408Y-112780400D01*
X95623294Y-112769774D01*
X95605966Y-112682660D01*
X95605965Y-112682658D01*
X95592030Y-112661803D01*
X95550601Y-112599799D01*
X95509170Y-112572116D01*
X95467741Y-112544434D01*
X95467739Y-112544433D01*
X95370001Y-112524992D01*
X95369999Y-112524992D01*
X95272260Y-112544433D01*
X95272258Y-112544434D01*
X95189399Y-112599799D01*
X95134034Y-112682658D01*
X95134033Y-112682660D01*
X95114591Y-112780399D01*
X95134033Y-112878139D01*
X95134034Y-112878141D01*
X95189399Y-112961001D01*
X95191718Y-112963320D01*
X95210024Y-113007514D01*
X95191718Y-113051708D01*
X95147524Y-113070014D01*
X95052981Y-113070014D01*
X95008787Y-113051708D01*
X94990481Y-113007514D01*
X94990481Y-112791025D01*
X94994202Y-112782041D01*
X94990481Y-112769774D01*
X94990481Y-112130400D01*
X96414592Y-112130400D01*
X96434033Y-112228139D01*
X96434034Y-112228141D01*
X96451937Y-112254934D01*
X96489399Y-112311001D01*
X96530205Y-112338266D01*
X96572258Y-112366365D01*
X96572260Y-112366366D01*
X96669999Y-112385808D01*
X96670000Y-112385808D01*
X96670001Y-112385808D01*
X96718870Y-112376087D01*
X96767740Y-112366366D01*
X96850601Y-112311001D01*
X96905966Y-112228140D01*
X96925408Y-112130400D01*
X97064592Y-112130400D01*
X97084033Y-112228139D01*
X97084034Y-112228141D01*
X97101937Y-112254934D01*
X97139399Y-112311001D01*
X97180205Y-112338266D01*
X97222258Y-112366365D01*
X97222260Y-112366366D01*
X97319999Y-112385808D01*
X97320000Y-112385808D01*
X97320001Y-112385808D01*
X97368870Y-112376087D01*
X97417740Y-112366366D01*
X97500601Y-112311001D01*
X97555966Y-112228140D01*
X97575408Y-112130400D01*
X97714592Y-112130400D01*
X97734033Y-112228139D01*
X97734034Y-112228141D01*
X97751937Y-112254934D01*
X97789399Y-112311001D01*
X97830205Y-112338266D01*
X97872258Y-112366365D01*
X97872260Y-112366366D01*
X97969999Y-112385808D01*
X97970000Y-112385808D01*
X97970001Y-112385808D01*
X98018870Y-112376087D01*
X98067740Y-112366366D01*
X98150601Y-112311001D01*
X98205966Y-112228140D01*
X98225408Y-112130400D01*
X98364592Y-112130400D01*
X98384033Y-112228139D01*
X98384034Y-112228141D01*
X98401937Y-112254934D01*
X98439399Y-112311001D01*
X98480205Y-112338266D01*
X98522258Y-112366365D01*
X98522260Y-112366366D01*
X98619999Y-112385808D01*
X98620000Y-112385808D01*
X98620001Y-112385808D01*
X98668870Y-112376087D01*
X98717740Y-112366366D01*
X98800601Y-112311001D01*
X98855966Y-112228140D01*
X98875408Y-112130400D01*
X99014592Y-112130400D01*
X99034033Y-112228139D01*
X99034034Y-112228141D01*
X99051937Y-112254934D01*
X99089399Y-112311001D01*
X99130205Y-112338266D01*
X99172258Y-112366365D01*
X99172260Y-112366366D01*
X99269999Y-112385808D01*
X99270000Y-112385808D01*
X99270001Y-112385808D01*
X99318870Y-112376087D01*
X99367740Y-112366366D01*
X99450601Y-112311001D01*
X99505966Y-112228140D01*
X99525408Y-112130400D01*
X99505966Y-112032660D01*
X99450601Y-111949799D01*
X99409170Y-111922116D01*
X99367741Y-111894434D01*
X99367739Y-111894433D01*
X99270001Y-111874992D01*
X99269999Y-111874992D01*
X99172260Y-111894433D01*
X99172258Y-111894434D01*
X99089399Y-111949799D01*
X99034034Y-112032658D01*
X99034033Y-112032660D01*
X99014592Y-112130399D01*
X99014592Y-112130400D01*
X98875408Y-112130400D01*
X98855966Y-112032660D01*
X98800601Y-111949799D01*
X98759170Y-111922116D01*
X98717741Y-111894434D01*
X98717739Y-111894433D01*
X98620001Y-111874992D01*
X98619999Y-111874992D01*
X98522260Y-111894433D01*
X98522258Y-111894434D01*
X98439399Y-111949799D01*
X98384034Y-112032658D01*
X98384033Y-112032660D01*
X98364592Y-112130399D01*
X98364592Y-112130400D01*
X98225408Y-112130400D01*
X98205966Y-112032660D01*
X98150601Y-111949799D01*
X98109170Y-111922116D01*
X98067741Y-111894434D01*
X98067739Y-111894433D01*
X97970001Y-111874992D01*
X97969999Y-111874992D01*
X97872260Y-111894433D01*
X97872258Y-111894434D01*
X97789399Y-111949799D01*
X97734034Y-112032658D01*
X97734033Y-112032660D01*
X97714592Y-112130399D01*
X97714592Y-112130400D01*
X97575408Y-112130400D01*
X97555966Y-112032660D01*
X97500601Y-111949799D01*
X97459170Y-111922116D01*
X97417741Y-111894434D01*
X97417739Y-111894433D01*
X97320001Y-111874992D01*
X97319999Y-111874992D01*
X97222260Y-111894433D01*
X97222258Y-111894434D01*
X97139399Y-111949799D01*
X97084034Y-112032658D01*
X97084033Y-112032660D01*
X97064592Y-112130399D01*
X97064592Y-112130400D01*
X96925408Y-112130400D01*
X96905966Y-112032660D01*
X96850601Y-111949799D01*
X96809170Y-111922116D01*
X96767741Y-111894434D01*
X96767739Y-111894433D01*
X96670001Y-111874992D01*
X96669999Y-111874992D01*
X96572260Y-111894433D01*
X96572258Y-111894434D01*
X96489399Y-111949799D01*
X96434034Y-112032658D01*
X96434033Y-112032660D01*
X96414592Y-112130399D01*
X96414592Y-112130400D01*
X94990481Y-112130400D01*
X94990481Y-111480400D01*
X95764592Y-111480400D01*
X95784033Y-111578139D01*
X95784034Y-111578141D01*
X95811716Y-111619570D01*
X95839399Y-111661001D01*
X95901403Y-111702430D01*
X95922258Y-111716365D01*
X95922260Y-111716366D01*
X96019999Y-111735808D01*
X96020000Y-111735808D01*
X96020001Y-111735808D01*
X96068870Y-111726087D01*
X96117740Y-111716366D01*
X96200601Y-111661001D01*
X96255966Y-111578140D01*
X96275408Y-111480400D01*
X96414592Y-111480400D01*
X96434033Y-111578139D01*
X96434034Y-111578141D01*
X96461716Y-111619570D01*
X96489399Y-111661001D01*
X96551403Y-111702430D01*
X96572258Y-111716365D01*
X96572260Y-111716366D01*
X96669999Y-111735808D01*
X96670000Y-111735808D01*
X96670001Y-111735808D01*
X96718870Y-111726087D01*
X96767740Y-111716366D01*
X96850601Y-111661001D01*
X96905966Y-111578140D01*
X96925408Y-111480400D01*
X97064592Y-111480400D01*
X97084033Y-111578139D01*
X97084034Y-111578141D01*
X97111716Y-111619570D01*
X97139399Y-111661001D01*
X97201403Y-111702430D01*
X97222258Y-111716365D01*
X97222260Y-111716366D01*
X97319999Y-111735808D01*
X97320000Y-111735808D01*
X97320001Y-111735808D01*
X97368870Y-111726087D01*
X97417740Y-111716366D01*
X97500601Y-111661001D01*
X97555966Y-111578140D01*
X97575408Y-111480400D01*
X97714592Y-111480400D01*
X97734033Y-111578139D01*
X97734034Y-111578141D01*
X97761716Y-111619570D01*
X97789399Y-111661001D01*
X97851403Y-111702430D01*
X97872258Y-111716365D01*
X97872260Y-111716366D01*
X97969999Y-111735808D01*
X97970000Y-111735808D01*
X97970001Y-111735808D01*
X98018870Y-111726087D01*
X98067740Y-111716366D01*
X98150601Y-111661001D01*
X98205966Y-111578140D01*
X98225408Y-111480400D01*
X98364592Y-111480400D01*
X98384033Y-111578139D01*
X98384034Y-111578141D01*
X98411716Y-111619570D01*
X98439399Y-111661001D01*
X98501403Y-111702430D01*
X98522258Y-111716365D01*
X98522260Y-111716366D01*
X98619999Y-111735808D01*
X98620000Y-111735808D01*
X98620001Y-111735808D01*
X98668870Y-111726087D01*
X98717740Y-111716366D01*
X98800601Y-111661001D01*
X98855966Y-111578140D01*
X98875408Y-111480400D01*
X99014592Y-111480400D01*
X99034033Y-111578139D01*
X99034034Y-111578141D01*
X99061716Y-111619570D01*
X99089399Y-111661001D01*
X99151403Y-111702430D01*
X99172258Y-111716365D01*
X99172260Y-111716366D01*
X99269999Y-111735808D01*
X99270000Y-111735808D01*
X99270001Y-111735808D01*
X99318870Y-111726087D01*
X99367740Y-111716366D01*
X99450601Y-111661001D01*
X99505966Y-111578140D01*
X99525408Y-111480400D01*
X99505966Y-111382660D01*
X99450601Y-111299799D01*
X99409170Y-111272116D01*
X99367741Y-111244434D01*
X99367739Y-111244433D01*
X99270001Y-111224992D01*
X99269999Y-111224992D01*
X99172260Y-111244433D01*
X99172258Y-111244434D01*
X99089399Y-111299799D01*
X99034034Y-111382658D01*
X99034033Y-111382660D01*
X99014592Y-111480399D01*
X99014592Y-111480400D01*
X98875408Y-111480400D01*
X98855966Y-111382660D01*
X98800601Y-111299799D01*
X98759170Y-111272116D01*
X98717741Y-111244434D01*
X98717739Y-111244433D01*
X98620001Y-111224992D01*
X98619999Y-111224992D01*
X98522260Y-111244433D01*
X98522258Y-111244434D01*
X98439399Y-111299799D01*
X98384034Y-111382658D01*
X98384033Y-111382660D01*
X98364592Y-111480399D01*
X98364592Y-111480400D01*
X98225408Y-111480400D01*
X98205966Y-111382660D01*
X98150601Y-111299799D01*
X98109170Y-111272116D01*
X98067741Y-111244434D01*
X98067739Y-111244433D01*
X97970001Y-111224992D01*
X97969999Y-111224992D01*
X97872260Y-111244433D01*
X97872258Y-111244434D01*
X97789399Y-111299799D01*
X97734034Y-111382658D01*
X97734033Y-111382660D01*
X97714592Y-111480399D01*
X97714592Y-111480400D01*
X97575408Y-111480400D01*
X97555966Y-111382660D01*
X97500601Y-111299799D01*
X97459170Y-111272116D01*
X97417741Y-111244434D01*
X97417739Y-111244433D01*
X97320001Y-111224992D01*
X97319999Y-111224992D01*
X97222260Y-111244433D01*
X97222258Y-111244434D01*
X97139399Y-111299799D01*
X97084034Y-111382658D01*
X97084033Y-111382660D01*
X97064592Y-111480399D01*
X97064592Y-111480400D01*
X96925408Y-111480400D01*
X96905966Y-111382660D01*
X96850601Y-111299799D01*
X96809170Y-111272116D01*
X96767741Y-111244434D01*
X96767739Y-111244433D01*
X96670001Y-111224992D01*
X96669999Y-111224992D01*
X96572260Y-111244433D01*
X96572258Y-111244434D01*
X96489399Y-111299799D01*
X96434034Y-111382658D01*
X96434033Y-111382660D01*
X96414592Y-111480399D01*
X96414592Y-111480400D01*
X96275408Y-111480400D01*
X96255966Y-111382660D01*
X96200601Y-111299799D01*
X96159170Y-111272116D01*
X96117741Y-111244434D01*
X96117739Y-111244433D01*
X96020001Y-111224992D01*
X96019999Y-111224992D01*
X95922260Y-111244433D01*
X95922258Y-111244434D01*
X95839399Y-111299799D01*
X95784034Y-111382658D01*
X95784033Y-111382660D01*
X95764592Y-111480399D01*
X95764592Y-111480400D01*
X94990481Y-111480400D01*
X94990481Y-111120014D01*
X92452981Y-111120014D01*
X92408787Y-111101708D01*
X92390481Y-111057514D01*
X92390481Y-110180400D01*
X93164592Y-110180400D01*
X93184033Y-110278139D01*
X93184034Y-110278141D01*
X93211716Y-110319570D01*
X93239399Y-110361001D01*
X93301403Y-110402430D01*
X93322258Y-110416365D01*
X93322260Y-110416366D01*
X93419999Y-110435808D01*
X93420000Y-110435808D01*
X93420001Y-110435808D01*
X93468870Y-110426087D01*
X93517740Y-110416366D01*
X93600601Y-110361001D01*
X93655966Y-110278140D01*
X93675408Y-110180400D01*
X93814592Y-110180400D01*
X93834033Y-110278139D01*
X93834034Y-110278141D01*
X93861716Y-110319570D01*
X93889399Y-110361001D01*
X93951403Y-110402430D01*
X93972258Y-110416365D01*
X93972260Y-110416366D01*
X94069999Y-110435808D01*
X94070000Y-110435808D01*
X94070001Y-110435808D01*
X94118870Y-110426087D01*
X94167740Y-110416366D01*
X94250601Y-110361001D01*
X94305966Y-110278140D01*
X94325408Y-110180400D01*
X95114592Y-110180400D01*
X95134033Y-110278139D01*
X95134034Y-110278141D01*
X95161716Y-110319570D01*
X95189399Y-110361001D01*
X95251403Y-110402430D01*
X95272258Y-110416365D01*
X95272260Y-110416366D01*
X95369999Y-110435808D01*
X95370000Y-110435808D01*
X95370001Y-110435808D01*
X95418870Y-110426087D01*
X95467740Y-110416366D01*
X95550601Y-110361001D01*
X95605966Y-110278140D01*
X95625408Y-110180400D01*
X95764592Y-110180400D01*
X95784033Y-110278139D01*
X95784034Y-110278141D01*
X95811716Y-110319570D01*
X95839399Y-110361001D01*
X95901403Y-110402430D01*
X95922258Y-110416365D01*
X95922260Y-110416366D01*
X96019999Y-110435808D01*
X96020000Y-110435808D01*
X96020001Y-110435808D01*
X96068870Y-110426087D01*
X96117740Y-110416366D01*
X96200601Y-110361001D01*
X96255966Y-110278140D01*
X96275408Y-110180400D01*
X96414592Y-110180400D01*
X96434033Y-110278139D01*
X96434034Y-110278141D01*
X96461716Y-110319570D01*
X96489399Y-110361001D01*
X96551403Y-110402430D01*
X96572258Y-110416365D01*
X96572260Y-110416366D01*
X96669999Y-110435808D01*
X96670000Y-110435808D01*
X96670001Y-110435808D01*
X96718870Y-110426087D01*
X96767740Y-110416366D01*
X96850601Y-110361001D01*
X96905966Y-110278140D01*
X96925408Y-110180400D01*
X97064592Y-110180400D01*
X97084033Y-110278139D01*
X97084034Y-110278141D01*
X97111716Y-110319570D01*
X97139399Y-110361001D01*
X97201403Y-110402430D01*
X97222258Y-110416365D01*
X97222260Y-110416366D01*
X97319999Y-110435808D01*
X97320000Y-110435808D01*
X97320001Y-110435808D01*
X97368870Y-110426087D01*
X97417740Y-110416366D01*
X97500601Y-110361001D01*
X97555966Y-110278140D01*
X97575408Y-110180400D01*
X97714592Y-110180400D01*
X97734033Y-110278139D01*
X97734034Y-110278141D01*
X97761716Y-110319570D01*
X97789399Y-110361001D01*
X97851403Y-110402430D01*
X97872258Y-110416365D01*
X97872260Y-110416366D01*
X97969999Y-110435808D01*
X97970000Y-110435808D01*
X97970001Y-110435808D01*
X98018870Y-110426087D01*
X98067740Y-110416366D01*
X98150601Y-110361001D01*
X98205966Y-110278140D01*
X98225408Y-110180400D01*
X98364592Y-110180400D01*
X98384033Y-110278139D01*
X98384034Y-110278141D01*
X98411716Y-110319570D01*
X98439399Y-110361001D01*
X98501403Y-110402430D01*
X98522258Y-110416365D01*
X98522260Y-110416366D01*
X98619999Y-110435808D01*
X98620000Y-110435808D01*
X98620001Y-110435808D01*
X98668870Y-110426087D01*
X98717740Y-110416366D01*
X98800601Y-110361001D01*
X98855966Y-110278140D01*
X98875408Y-110180400D01*
X98855966Y-110082660D01*
X98800601Y-109999799D01*
X98759170Y-109972116D01*
X98717741Y-109944434D01*
X98717739Y-109944433D01*
X98620001Y-109924992D01*
X98619999Y-109924992D01*
X98522260Y-109944433D01*
X98522258Y-109944434D01*
X98439399Y-109999799D01*
X98384034Y-110082658D01*
X98384033Y-110082660D01*
X98364592Y-110180399D01*
X98364592Y-110180400D01*
X98225408Y-110180400D01*
X98205966Y-110082660D01*
X98150601Y-109999799D01*
X98109170Y-109972116D01*
X98067741Y-109944434D01*
X98067739Y-109944433D01*
X97970001Y-109924992D01*
X97969999Y-109924992D01*
X97872260Y-109944433D01*
X97872258Y-109944434D01*
X97789399Y-109999799D01*
X97734034Y-110082658D01*
X97734033Y-110082660D01*
X97714592Y-110180399D01*
X97714592Y-110180400D01*
X97575408Y-110180400D01*
X97555966Y-110082660D01*
X97500601Y-109999799D01*
X97459170Y-109972116D01*
X97417741Y-109944434D01*
X97417739Y-109944433D01*
X97320001Y-109924992D01*
X97319999Y-109924992D01*
X97222260Y-109944433D01*
X97222258Y-109944434D01*
X97139399Y-109999799D01*
X97084034Y-110082658D01*
X97084033Y-110082660D01*
X97064592Y-110180399D01*
X97064592Y-110180400D01*
X96925408Y-110180400D01*
X96905966Y-110082660D01*
X96850601Y-109999799D01*
X96809170Y-109972116D01*
X96767741Y-109944434D01*
X96767739Y-109944433D01*
X96670001Y-109924992D01*
X96669999Y-109924992D01*
X96572260Y-109944433D01*
X96572258Y-109944434D01*
X96489399Y-109999799D01*
X96434034Y-110082658D01*
X96434033Y-110082660D01*
X96414592Y-110180399D01*
X96414592Y-110180400D01*
X96275408Y-110180400D01*
X96255966Y-110082660D01*
X96200601Y-109999799D01*
X96159170Y-109972116D01*
X96117741Y-109944434D01*
X96117739Y-109944433D01*
X96020001Y-109924992D01*
X96019999Y-109924992D01*
X95922260Y-109944433D01*
X95922258Y-109944434D01*
X95839399Y-109999799D01*
X95784034Y-110082658D01*
X95784033Y-110082660D01*
X95764592Y-110180399D01*
X95764592Y-110180400D01*
X95625408Y-110180400D01*
X95605966Y-110082660D01*
X95550601Y-109999799D01*
X95509170Y-109972116D01*
X95467741Y-109944434D01*
X95467739Y-109944433D01*
X95370001Y-109924992D01*
X95369999Y-109924992D01*
X95272260Y-109944433D01*
X95272258Y-109944434D01*
X95189399Y-109999799D01*
X95134034Y-110082658D01*
X95134033Y-110082660D01*
X95114592Y-110180399D01*
X95114592Y-110180400D01*
X94325408Y-110180400D01*
X94305966Y-110082660D01*
X94250601Y-109999799D01*
X94209170Y-109972116D01*
X94167741Y-109944434D01*
X94167739Y-109944433D01*
X94070001Y-109924992D01*
X94069999Y-109924992D01*
X93972260Y-109944433D01*
X93972258Y-109944434D01*
X93889399Y-109999799D01*
X93834034Y-110082658D01*
X93834033Y-110082660D01*
X93814592Y-110180399D01*
X93814592Y-110180400D01*
X93675408Y-110180400D01*
X93655966Y-110082660D01*
X93600601Y-109999799D01*
X93559170Y-109972116D01*
X93517741Y-109944434D01*
X93517739Y-109944433D01*
X93420001Y-109924992D01*
X93419999Y-109924992D01*
X93322260Y-109944433D01*
X93322258Y-109944434D01*
X93239399Y-109999799D01*
X93184034Y-110082658D01*
X93184033Y-110082660D01*
X93164592Y-110180399D01*
X93164592Y-110180400D01*
X92390481Y-110180400D01*
X92390481Y-109557514D01*
X92408787Y-109513320D01*
X92452981Y-109495014D01*
X92456261Y-109495014D01*
X92500455Y-109513320D01*
X92517560Y-109545321D01*
X92534033Y-109628139D01*
X92534034Y-109628141D01*
X92561716Y-109669570D01*
X92589399Y-109711001D01*
X92651403Y-109752430D01*
X92672258Y-109766365D01*
X92672260Y-109766366D01*
X92769999Y-109785808D01*
X92770000Y-109785808D01*
X92770001Y-109785808D01*
X92818870Y-109776087D01*
X92867740Y-109766366D01*
X92950601Y-109711001D01*
X93005966Y-109628140D01*
X93022440Y-109545321D01*
X93049016Y-109505547D01*
X93083739Y-109495014D01*
X93106261Y-109495014D01*
X93150455Y-109513320D01*
X93167560Y-109545321D01*
X93184033Y-109628139D01*
X93184034Y-109628141D01*
X93211716Y-109669570D01*
X93239399Y-109711001D01*
X93301403Y-109752430D01*
X93322258Y-109766365D01*
X93322260Y-109766366D01*
X93419999Y-109785808D01*
X93420000Y-109785808D01*
X93420001Y-109785808D01*
X93468870Y-109776087D01*
X93517740Y-109766366D01*
X93600601Y-109711001D01*
X93655966Y-109628140D01*
X93672440Y-109545321D01*
X93699016Y-109505547D01*
X93733739Y-109495014D01*
X93756261Y-109495014D01*
X93800455Y-109513320D01*
X93817560Y-109545321D01*
X93834033Y-109628139D01*
X93834034Y-109628141D01*
X93861716Y-109669570D01*
X93889399Y-109711001D01*
X93951403Y-109752430D01*
X93972258Y-109766365D01*
X93972260Y-109766366D01*
X94069999Y-109785808D01*
X94070000Y-109785808D01*
X94070001Y-109785808D01*
X94118870Y-109776087D01*
X94167740Y-109766366D01*
X94250601Y-109711001D01*
X94305966Y-109628140D01*
X94322440Y-109545321D01*
X94349016Y-109505547D01*
X94383739Y-109495014D01*
X95056261Y-109495014D01*
X95100455Y-109513320D01*
X95117560Y-109545321D01*
X95134033Y-109628139D01*
X95134034Y-109628141D01*
X95161716Y-109669570D01*
X95189399Y-109711001D01*
X95251403Y-109752430D01*
X95272258Y-109766365D01*
X95272260Y-109766366D01*
X95369999Y-109785808D01*
X95370000Y-109785808D01*
X95370001Y-109785808D01*
X95418870Y-109776087D01*
X95467740Y-109766366D01*
X95550601Y-109711001D01*
X95605966Y-109628140D01*
X95622440Y-109545321D01*
X95632410Y-109530400D01*
X96414592Y-109530400D01*
X96434033Y-109628139D01*
X96434034Y-109628141D01*
X96461716Y-109669570D01*
X96489399Y-109711001D01*
X96551403Y-109752430D01*
X96572258Y-109766365D01*
X96572260Y-109766366D01*
X96669999Y-109785808D01*
X96670000Y-109785808D01*
X96670001Y-109785808D01*
X96718870Y-109776087D01*
X96767740Y-109766366D01*
X96850601Y-109711001D01*
X96905966Y-109628140D01*
X96925408Y-109530400D01*
X97064592Y-109530400D01*
X97084033Y-109628139D01*
X97084034Y-109628141D01*
X97111716Y-109669570D01*
X97139399Y-109711001D01*
X97201403Y-109752430D01*
X97222258Y-109766365D01*
X97222260Y-109766366D01*
X97319999Y-109785808D01*
X97320000Y-109785808D01*
X97320001Y-109785808D01*
X97368870Y-109776087D01*
X97417740Y-109766366D01*
X97500601Y-109711001D01*
X97555966Y-109628140D01*
X97575408Y-109530400D01*
X97714592Y-109530400D01*
X97734033Y-109628139D01*
X97734034Y-109628141D01*
X97761716Y-109669570D01*
X97789399Y-109711001D01*
X97851403Y-109752430D01*
X97872258Y-109766365D01*
X97872260Y-109766366D01*
X97969999Y-109785808D01*
X97970000Y-109785808D01*
X97970001Y-109785808D01*
X98018870Y-109776087D01*
X98067740Y-109766366D01*
X98150601Y-109711001D01*
X98205966Y-109628140D01*
X98225408Y-109530400D01*
X98364592Y-109530400D01*
X98384033Y-109628139D01*
X98384034Y-109628141D01*
X98411716Y-109669570D01*
X98439399Y-109711001D01*
X98501403Y-109752430D01*
X98522258Y-109766365D01*
X98522260Y-109766366D01*
X98619999Y-109785808D01*
X98620000Y-109785808D01*
X98620001Y-109785808D01*
X98668870Y-109776087D01*
X98717740Y-109766366D01*
X98800601Y-109711001D01*
X98855966Y-109628140D01*
X98875408Y-109530400D01*
X98870464Y-109505547D01*
X98855966Y-109432660D01*
X98855965Y-109432658D01*
X98842030Y-109411803D01*
X98800601Y-109349799D01*
X98759170Y-109322116D01*
X98717741Y-109294434D01*
X98717739Y-109294433D01*
X98620001Y-109274992D01*
X98619999Y-109274992D01*
X98522260Y-109294433D01*
X98522258Y-109294434D01*
X98439399Y-109349799D01*
X98384034Y-109432658D01*
X98384033Y-109432660D01*
X98364592Y-109530399D01*
X98364592Y-109530400D01*
X98225408Y-109530400D01*
X98220464Y-109505547D01*
X98205966Y-109432660D01*
X98205965Y-109432658D01*
X98192030Y-109411803D01*
X98150601Y-109349799D01*
X98109170Y-109322116D01*
X98067741Y-109294434D01*
X98067739Y-109294433D01*
X97970001Y-109274992D01*
X97969999Y-109274992D01*
X97872260Y-109294433D01*
X97872258Y-109294434D01*
X97789399Y-109349799D01*
X97734034Y-109432658D01*
X97734033Y-109432660D01*
X97714592Y-109530399D01*
X97714592Y-109530400D01*
X97575408Y-109530400D01*
X97570464Y-109505547D01*
X97555966Y-109432660D01*
X97555965Y-109432658D01*
X97542030Y-109411803D01*
X97500601Y-109349799D01*
X97459170Y-109322116D01*
X97417741Y-109294434D01*
X97417739Y-109294433D01*
X97320001Y-109274992D01*
X97319999Y-109274992D01*
X97222260Y-109294433D01*
X97222258Y-109294434D01*
X97139399Y-109349799D01*
X97084034Y-109432658D01*
X97084033Y-109432660D01*
X97064592Y-109530399D01*
X97064592Y-109530400D01*
X96925408Y-109530400D01*
X96920464Y-109505547D01*
X96905966Y-109432660D01*
X96905965Y-109432658D01*
X96892030Y-109411803D01*
X96850601Y-109349799D01*
X96809170Y-109322116D01*
X96767741Y-109294434D01*
X96767739Y-109294433D01*
X96670001Y-109274992D01*
X96669999Y-109274992D01*
X96572260Y-109294433D01*
X96572258Y-109294434D01*
X96489399Y-109349799D01*
X96434034Y-109432658D01*
X96434033Y-109432660D01*
X96414592Y-109530398D01*
X96414592Y-109530400D01*
X95632410Y-109530400D01*
X95649016Y-109505547D01*
X95683739Y-109495014D01*
X96290479Y-109495014D01*
X96290481Y-109495014D01*
X96290481Y-108891025D01*
X96294202Y-108882041D01*
X96293704Y-108880399D01*
X96414591Y-108880399D01*
X96434033Y-108978139D01*
X96434034Y-108978141D01*
X96461716Y-109019570D01*
X96489399Y-109061001D01*
X96551403Y-109102430D01*
X96572258Y-109116365D01*
X96572260Y-109116366D01*
X96669999Y-109135808D01*
X96670000Y-109135808D01*
X96670001Y-109135808D01*
X96718870Y-109126087D01*
X96767740Y-109116366D01*
X96850601Y-109061001D01*
X96905966Y-108978140D01*
X96925408Y-108880400D01*
X97714592Y-108880400D01*
X97734033Y-108978139D01*
X97734034Y-108978141D01*
X97761716Y-109019570D01*
X97789399Y-109061001D01*
X97851403Y-109102430D01*
X97872258Y-109116365D01*
X97872260Y-109116366D01*
X97969999Y-109135808D01*
X97970000Y-109135808D01*
X97970001Y-109135808D01*
X98018870Y-109126087D01*
X98067740Y-109116366D01*
X98150601Y-109061001D01*
X98205966Y-108978140D01*
X98225408Y-108880400D01*
X98223294Y-108869774D01*
X98205966Y-108782660D01*
X98205965Y-108782658D01*
X98192030Y-108761803D01*
X98150601Y-108699799D01*
X98095115Y-108662725D01*
X98067741Y-108644434D01*
X98067739Y-108644433D01*
X97970001Y-108624992D01*
X97969999Y-108624992D01*
X97872260Y-108644433D01*
X97872258Y-108644434D01*
X97789399Y-108699799D01*
X97734034Y-108782658D01*
X97734033Y-108782660D01*
X97714592Y-108880399D01*
X97714592Y-108880400D01*
X96925408Y-108880400D01*
X96923294Y-108869774D01*
X96905966Y-108782660D01*
X96905965Y-108782658D01*
X96892030Y-108761803D01*
X96850601Y-108699799D01*
X96795115Y-108662725D01*
X96767741Y-108644434D01*
X96767739Y-108644433D01*
X96670001Y-108624992D01*
X96669999Y-108624992D01*
X96572260Y-108644433D01*
X96572258Y-108644434D01*
X96489399Y-108699799D01*
X96434034Y-108782658D01*
X96434033Y-108782660D01*
X96414591Y-108880399D01*
X96293704Y-108880399D01*
X96290481Y-108869774D01*
X96290481Y-107932514D01*
X96308787Y-107888320D01*
X96352981Y-107870014D01*
X96940481Y-107870014D01*
X96940481Y-107591025D01*
X96944202Y-107582041D01*
X96943704Y-107580399D01*
X97064591Y-107580399D01*
X97084033Y-107678139D01*
X97084034Y-107678141D01*
X97111716Y-107719570D01*
X97139399Y-107761001D01*
X97201403Y-107802430D01*
X97222258Y-107816365D01*
X97222260Y-107816366D01*
X97319999Y-107835808D01*
X97320000Y-107835808D01*
X97320001Y-107835808D01*
X97368870Y-107826087D01*
X97417740Y-107816366D01*
X97500601Y-107761001D01*
X97555966Y-107678140D01*
X97575408Y-107580400D01*
X97714592Y-107580400D01*
X97734033Y-107678139D01*
X97734034Y-107678141D01*
X97761716Y-107719570D01*
X97789399Y-107761001D01*
X97851403Y-107802430D01*
X97872258Y-107816365D01*
X97872260Y-107816366D01*
X97969999Y-107835808D01*
X97970000Y-107835808D01*
X97970001Y-107835808D01*
X98018870Y-107826087D01*
X98067740Y-107816366D01*
X98150601Y-107761001D01*
X98205966Y-107678140D01*
X98225408Y-107580400D01*
X98223294Y-107569774D01*
X98205966Y-107482660D01*
X98205965Y-107482658D01*
X98165919Y-107422725D01*
X98150601Y-107399799D01*
X98098246Y-107364817D01*
X98067741Y-107344434D01*
X98067739Y-107344433D01*
X97970001Y-107324992D01*
X97969999Y-107324992D01*
X97872260Y-107344433D01*
X97872258Y-107344434D01*
X97789399Y-107399799D01*
X97734034Y-107482658D01*
X97734033Y-107482660D01*
X97714592Y-107580399D01*
X97714592Y-107580400D01*
X97575408Y-107580400D01*
X97573294Y-107569774D01*
X97555966Y-107482660D01*
X97555965Y-107482658D01*
X97515919Y-107422725D01*
X97500601Y-107399799D01*
X97448246Y-107364817D01*
X97417741Y-107344434D01*
X97417739Y-107344433D01*
X97320001Y-107324992D01*
X97319999Y-107324992D01*
X97222260Y-107344433D01*
X97222258Y-107344434D01*
X97139399Y-107399799D01*
X97084034Y-107482658D01*
X97084033Y-107482660D01*
X97064591Y-107580399D01*
X96943704Y-107580399D01*
X96940481Y-107569774D01*
X96940481Y-106941025D01*
X96944202Y-106932041D01*
X96943704Y-106930399D01*
X97064591Y-106930399D01*
X97084033Y-107028139D01*
X97084034Y-107028141D01*
X97111716Y-107069570D01*
X97139399Y-107111001D01*
X97183544Y-107140497D01*
X97222258Y-107166365D01*
X97222260Y-107166366D01*
X97319999Y-107185808D01*
X97320000Y-107185808D01*
X97320001Y-107185808D01*
X97391598Y-107171566D01*
X97417740Y-107166366D01*
X97500601Y-107111001D01*
X97555966Y-107028140D01*
X97575408Y-106930400D01*
X97714592Y-106930400D01*
X97734033Y-107028139D01*
X97734034Y-107028141D01*
X97761716Y-107069570D01*
X97789399Y-107111001D01*
X97833544Y-107140497D01*
X97872258Y-107166365D01*
X97872260Y-107166366D01*
X97969999Y-107185808D01*
X97970000Y-107185808D01*
X97970001Y-107185808D01*
X98041598Y-107171566D01*
X98067740Y-107166366D01*
X98150601Y-107111001D01*
X98205966Y-107028140D01*
X98225408Y-106930400D01*
X98364592Y-106930400D01*
X98384033Y-107028139D01*
X98384034Y-107028141D01*
X98411716Y-107069570D01*
X98439399Y-107111001D01*
X98483544Y-107140497D01*
X98522258Y-107166365D01*
X98522260Y-107166366D01*
X98619999Y-107185808D01*
X98620000Y-107185808D01*
X98620001Y-107185808D01*
X98691598Y-107171566D01*
X98717740Y-107166366D01*
X98800601Y-107111001D01*
X98855966Y-107028140D01*
X98875408Y-106930400D01*
X98874942Y-106928059D01*
X98855966Y-106832660D01*
X98855965Y-106832658D01*
X98842030Y-106811803D01*
X98800601Y-106749799D01*
X98745115Y-106712725D01*
X98717741Y-106694434D01*
X98717739Y-106694433D01*
X98620001Y-106674992D01*
X98619999Y-106674992D01*
X98522260Y-106694433D01*
X98522258Y-106694434D01*
X98439399Y-106749799D01*
X98384034Y-106832658D01*
X98384033Y-106832660D01*
X98364592Y-106930399D01*
X98364592Y-106930400D01*
X98225408Y-106930400D01*
X98224942Y-106928059D01*
X98205966Y-106832660D01*
X98205965Y-106832658D01*
X98192030Y-106811803D01*
X98150601Y-106749799D01*
X98095115Y-106712725D01*
X98067741Y-106694434D01*
X98067739Y-106694433D01*
X97970001Y-106674992D01*
X97969999Y-106674992D01*
X97872260Y-106694433D01*
X97872258Y-106694434D01*
X97789399Y-106749799D01*
X97734034Y-106832658D01*
X97734033Y-106832660D01*
X97714592Y-106930399D01*
X97714592Y-106930400D01*
X97575408Y-106930400D01*
X97574942Y-106928059D01*
X97555966Y-106832660D01*
X97555965Y-106832658D01*
X97542030Y-106811803D01*
X97500601Y-106749799D01*
X97445115Y-106712725D01*
X97417741Y-106694434D01*
X97417739Y-106694433D01*
X97320001Y-106674992D01*
X97319999Y-106674992D01*
X97222260Y-106694433D01*
X97222258Y-106694434D01*
X97139399Y-106749799D01*
X97084034Y-106832658D01*
X97084033Y-106832660D01*
X97064591Y-106930399D01*
X96943704Y-106930399D01*
X96940481Y-106919774D01*
X96940481Y-106291025D01*
X96944202Y-106282041D01*
X96943704Y-106280399D01*
X97064591Y-106280399D01*
X97084033Y-106378139D01*
X97084034Y-106378141D01*
X97111716Y-106419570D01*
X97139399Y-106461001D01*
X97183544Y-106490497D01*
X97222258Y-106516365D01*
X97222260Y-106516366D01*
X97319999Y-106535808D01*
X97320000Y-106535808D01*
X97320001Y-106535808D01*
X97391598Y-106521566D01*
X97417740Y-106516366D01*
X97500601Y-106461001D01*
X97555966Y-106378140D01*
X97575408Y-106280400D01*
X97714592Y-106280400D01*
X97734033Y-106378139D01*
X97734034Y-106378141D01*
X97761716Y-106419570D01*
X97789399Y-106461001D01*
X97833544Y-106490497D01*
X97872258Y-106516365D01*
X97872260Y-106516366D01*
X97969999Y-106535808D01*
X97970000Y-106535808D01*
X97970001Y-106535808D01*
X98041598Y-106521566D01*
X98067740Y-106516366D01*
X98150601Y-106461001D01*
X98205966Y-106378140D01*
X98225408Y-106280400D01*
X98364592Y-106280400D01*
X98384033Y-106378139D01*
X98384034Y-106378141D01*
X98411716Y-106419570D01*
X98439399Y-106461001D01*
X98483544Y-106490497D01*
X98522258Y-106516365D01*
X98522260Y-106516366D01*
X98619999Y-106535808D01*
X98620000Y-106535808D01*
X98620001Y-106535808D01*
X98691598Y-106521566D01*
X98717740Y-106516366D01*
X98800601Y-106461001D01*
X98855966Y-106378140D01*
X98875408Y-106280400D01*
X98873294Y-106269774D01*
X98855966Y-106182660D01*
X98855965Y-106182658D01*
X98817317Y-106124817D01*
X98800601Y-106099799D01*
X98748246Y-106064817D01*
X98717741Y-106044434D01*
X98717739Y-106044433D01*
X98620001Y-106024992D01*
X98619999Y-106024992D01*
X98522260Y-106044433D01*
X98522258Y-106044434D01*
X98439399Y-106099799D01*
X98384034Y-106182658D01*
X98384033Y-106182660D01*
X98364592Y-106280399D01*
X98364592Y-106280400D01*
X98225408Y-106280400D01*
X98223294Y-106269774D01*
X98205966Y-106182660D01*
X98205965Y-106182658D01*
X98167317Y-106124817D01*
X98150601Y-106099799D01*
X98098246Y-106064817D01*
X98067741Y-106044434D01*
X98067739Y-106044433D01*
X97970001Y-106024992D01*
X97969999Y-106024992D01*
X97872260Y-106044433D01*
X97872258Y-106044434D01*
X97789399Y-106099799D01*
X97734034Y-106182658D01*
X97734033Y-106182660D01*
X97714592Y-106280399D01*
X97714592Y-106280400D01*
X97575408Y-106280400D01*
X97573294Y-106269774D01*
X97555966Y-106182660D01*
X97555965Y-106182658D01*
X97517317Y-106124817D01*
X97500601Y-106099799D01*
X97448246Y-106064817D01*
X97417741Y-106044434D01*
X97417739Y-106044433D01*
X97320001Y-106024992D01*
X97319999Y-106024992D01*
X97222260Y-106044433D01*
X97222258Y-106044434D01*
X97139399Y-106099799D01*
X97084034Y-106182658D01*
X97084033Y-106182660D01*
X97064591Y-106280399D01*
X96943704Y-106280399D01*
X96940481Y-106269774D01*
X96940481Y-105641025D01*
X96944202Y-105632041D01*
X96943704Y-105630399D01*
X97064591Y-105630399D01*
X97084033Y-105728139D01*
X97084034Y-105728141D01*
X97111716Y-105769570D01*
X97139399Y-105811001D01*
X97183544Y-105840497D01*
X97222258Y-105866365D01*
X97222260Y-105866366D01*
X97319999Y-105885808D01*
X97320000Y-105885808D01*
X97320001Y-105885808D01*
X97391598Y-105871566D01*
X97417740Y-105866366D01*
X97500601Y-105811001D01*
X97555966Y-105728140D01*
X97575408Y-105630400D01*
X97714592Y-105630400D01*
X97734033Y-105728139D01*
X97734034Y-105728141D01*
X97761716Y-105769570D01*
X97789399Y-105811001D01*
X97833544Y-105840497D01*
X97872258Y-105866365D01*
X97872260Y-105866366D01*
X97969999Y-105885808D01*
X97970000Y-105885808D01*
X97970001Y-105885808D01*
X98041598Y-105871566D01*
X98067740Y-105866366D01*
X98150601Y-105811001D01*
X98205966Y-105728140D01*
X98225408Y-105630400D01*
X98364592Y-105630400D01*
X98384033Y-105728139D01*
X98384034Y-105728141D01*
X98411716Y-105769570D01*
X98439399Y-105811001D01*
X98483544Y-105840497D01*
X98522258Y-105866365D01*
X98522260Y-105866366D01*
X98619999Y-105885808D01*
X98620000Y-105885808D01*
X98620001Y-105885808D01*
X98691598Y-105871566D01*
X98717740Y-105866366D01*
X98800601Y-105811001D01*
X98855966Y-105728140D01*
X98875408Y-105630400D01*
X98873294Y-105619774D01*
X98855966Y-105532660D01*
X98855965Y-105532658D01*
X98841808Y-105511471D01*
X98800601Y-105449799D01*
X98745115Y-105412725D01*
X98717741Y-105394434D01*
X98717739Y-105394433D01*
X98620001Y-105374992D01*
X98619999Y-105374992D01*
X98522260Y-105394433D01*
X98522258Y-105394434D01*
X98439399Y-105449799D01*
X98384034Y-105532658D01*
X98384033Y-105532660D01*
X98364592Y-105630399D01*
X98364592Y-105630400D01*
X98225408Y-105630400D01*
X98223294Y-105619774D01*
X98205966Y-105532660D01*
X98205965Y-105532658D01*
X98191808Y-105511471D01*
X98150601Y-105449799D01*
X98095115Y-105412725D01*
X98067741Y-105394434D01*
X98067739Y-105394433D01*
X97970001Y-105374992D01*
X97969999Y-105374992D01*
X97872260Y-105394433D01*
X97872258Y-105394434D01*
X97789399Y-105449799D01*
X97734034Y-105532658D01*
X97734033Y-105532660D01*
X97714592Y-105630399D01*
X97714592Y-105630400D01*
X97575408Y-105630400D01*
X97573294Y-105619774D01*
X97555966Y-105532660D01*
X97555965Y-105532658D01*
X97541808Y-105511471D01*
X97500601Y-105449799D01*
X97445115Y-105412725D01*
X97417741Y-105394434D01*
X97417739Y-105394433D01*
X97320001Y-105374992D01*
X97319999Y-105374992D01*
X97222260Y-105394433D01*
X97222258Y-105394434D01*
X97139399Y-105449799D01*
X97084034Y-105532658D01*
X97084033Y-105532660D01*
X97064591Y-105630399D01*
X96943704Y-105630399D01*
X96940481Y-105619774D01*
X96940481Y-104991025D01*
X96944202Y-104982041D01*
X96943704Y-104980399D01*
X97064591Y-104980399D01*
X97084033Y-105078139D01*
X97084034Y-105078141D01*
X97111716Y-105119570D01*
X97139399Y-105161001D01*
X97178563Y-105187169D01*
X97222258Y-105216365D01*
X97222260Y-105216366D01*
X97319999Y-105235808D01*
X97320000Y-105235808D01*
X97320001Y-105235808D01*
X97368870Y-105226087D01*
X97417740Y-105216366D01*
X97500601Y-105161001D01*
X97555966Y-105078140D01*
X97575408Y-104980400D01*
X97714592Y-104980400D01*
X97734033Y-105078139D01*
X97734034Y-105078141D01*
X97761716Y-105119570D01*
X97789399Y-105161001D01*
X97828563Y-105187169D01*
X97872258Y-105216365D01*
X97872260Y-105216366D01*
X97969999Y-105235808D01*
X97970000Y-105235808D01*
X97970001Y-105235808D01*
X98018870Y-105226087D01*
X98067740Y-105216366D01*
X98150601Y-105161001D01*
X98205966Y-105078140D01*
X98225408Y-104980400D01*
X98364592Y-104980400D01*
X98384033Y-105078139D01*
X98384034Y-105078141D01*
X98411716Y-105119570D01*
X98439399Y-105161001D01*
X98478563Y-105187169D01*
X98522258Y-105216365D01*
X98522260Y-105216366D01*
X98619999Y-105235808D01*
X98620000Y-105235808D01*
X98620001Y-105235808D01*
X98668870Y-105226087D01*
X98717740Y-105216366D01*
X98800601Y-105161001D01*
X98855966Y-105078140D01*
X98875408Y-104980400D01*
X98873294Y-104969774D01*
X98855966Y-104882660D01*
X98855965Y-104882658D01*
X98815919Y-104822725D01*
X98800601Y-104799799D01*
X98759170Y-104772116D01*
X98717741Y-104744434D01*
X98717739Y-104744433D01*
X98620001Y-104724992D01*
X98619999Y-104724992D01*
X98522260Y-104744433D01*
X98522258Y-104744434D01*
X98439399Y-104799799D01*
X98384034Y-104882658D01*
X98384033Y-104882660D01*
X98364592Y-104980399D01*
X98364592Y-104980400D01*
X98225408Y-104980400D01*
X98223294Y-104969774D01*
X98205966Y-104882660D01*
X98205965Y-104882658D01*
X98165919Y-104822725D01*
X98150601Y-104799799D01*
X98109170Y-104772116D01*
X98067741Y-104744434D01*
X98067739Y-104744433D01*
X97970001Y-104724992D01*
X97969999Y-104724992D01*
X97872260Y-104744433D01*
X97872258Y-104744434D01*
X97789399Y-104799799D01*
X97734034Y-104882658D01*
X97734033Y-104882660D01*
X97714592Y-104980399D01*
X97714592Y-104980400D01*
X97575408Y-104980400D01*
X97573294Y-104969774D01*
X97555966Y-104882660D01*
X97555965Y-104882658D01*
X97515919Y-104822725D01*
X97500601Y-104799799D01*
X97459170Y-104772116D01*
X97417741Y-104744434D01*
X97417739Y-104744433D01*
X97320001Y-104724992D01*
X97319999Y-104724992D01*
X97222260Y-104744433D01*
X97222258Y-104744434D01*
X97139399Y-104799799D01*
X97084034Y-104882658D01*
X97084033Y-104882660D01*
X97064591Y-104980399D01*
X96943704Y-104980399D01*
X96940481Y-104969774D01*
X96940481Y-104330400D01*
X97714592Y-104330400D01*
X97734033Y-104428139D01*
X97734034Y-104428141D01*
X97741646Y-104439533D01*
X97789399Y-104511001D01*
X97851403Y-104552430D01*
X97872258Y-104566365D01*
X97872260Y-104566366D01*
X97969999Y-104585808D01*
X97970000Y-104585808D01*
X97970001Y-104585808D01*
X98018870Y-104576087D01*
X98067740Y-104566366D01*
X98150601Y-104511001D01*
X98205966Y-104428140D01*
X98225408Y-104330400D01*
X98205966Y-104232660D01*
X98150601Y-104149799D01*
X98090618Y-104109720D01*
X98067741Y-104094434D01*
X98067739Y-104094433D01*
X97970001Y-104074992D01*
X97969999Y-104074992D01*
X97872260Y-104094433D01*
X97872258Y-104094434D01*
X97789399Y-104149799D01*
X97734034Y-104232658D01*
X97734033Y-104232660D01*
X97714592Y-104330399D01*
X97714592Y-104330400D01*
X96940481Y-104330400D01*
X96940481Y-103707514D01*
X96958787Y-103663320D01*
X97002981Y-103645014D01*
X98956261Y-103645014D01*
X99000455Y-103663320D01*
G37*
%TD.AperFunction*%
%TD*%
M02*
