%TF.GenerationSoftware,KiCad,Pcbnew,7.99.0-2419-g7f14b70ac3*%
%TF.CreationDate,2023-09-02T02:09:12+02:00*%
%TF.ProjectId,DQBSC,44514253-432e-46b6-9963-61645f706362,rev?*%
%TF.SameCoordinates,Original*%
%TF.FileFunction,Copper,L5,Inr*%
%TF.FilePolarity,Positive*%
%FSLAX46Y46*%
G04 Gerber Fmt 4.6, Leading zero omitted, Abs format (unit mm)*
G04 Created by KiCad (PCBNEW 7.99.0-2419-g7f14b70ac3) date 2023-09-02 02:09:12*
%MOMM*%
%LPD*%
G01*
G04 APERTURE LIST*
%TA.AperFunction,ComponentPad*%
%ADD10R,0.850000X0.850000*%
%TD*%
%TA.AperFunction,ComponentPad*%
%ADD11O,0.850000X0.850000*%
%TD*%
%TA.AperFunction,ComponentPad*%
%ADD12C,0.500000*%
%TD*%
%TA.AperFunction,ComponentPad*%
%ADD13C,3.100000*%
%TD*%
%TA.AperFunction,ViaPad*%
%ADD14C,0.300000*%
%TD*%
%TA.AperFunction,ViaPad*%
%ADD15C,0.800000*%
%TD*%
%TA.AperFunction,ViaPad*%
%ADD16C,0.360000*%
%TD*%
%TA.AperFunction,Conductor*%
%ADD17C,0.110000*%
%TD*%
G04 APERTURE END LIST*
D10*
%TO.N,Net-(J2-Pin_1)*%
%TO.C,J2*%
X60309281Y-102983614D03*
D11*
%TO.N,JTAG_TMS*%
X60309281Y-101983614D03*
%TO.N,GND*%
X61309281Y-102983614D03*
%TO.N,JTAG_TCK*%
X61309281Y-101983614D03*
%TO.N,GND*%
X62309281Y-102983614D03*
%TO.N,JTAG_TDO*%
X62309281Y-101983614D03*
%TO.N,Net-(J2-Pin_7)*%
X63309281Y-102983614D03*
%TO.N,JTAG_TDI*%
X63309281Y-101983614D03*
%TO.N,Net-(J2-Pin_9)*%
X64309281Y-102983614D03*
%TO.N,Net-(D2-K)*%
X64309281Y-101983614D03*
%TD*%
D12*
%TO.N,GND*%
%TO.C,U9*%
X67245000Y-86845000D03*
X67245000Y-87845000D03*
X67245000Y-88845000D03*
X68545000Y-86845000D03*
X68545000Y-87845000D03*
X68545000Y-88845000D03*
%TD*%
D13*
%TO.N,Net-(C4-Pad1)*%
%TO.C,H3*%
X61565481Y-81545014D03*
%TD*%
%TO.N,Net-(C3-Pad1)*%
%TO.C,H1*%
X137565481Y-81545014D03*
%TD*%
%TO.N,Net-(C5-Pad1)*%
%TO.C,H2*%
X61565481Y-128545014D03*
%TD*%
D12*
%TO.N,GND*%
%TO.C,U8*%
X125893462Y-85120028D03*
X125893462Y-86295028D03*
X125893462Y-87470028D03*
X125893462Y-88645028D03*
X125893462Y-89820028D03*
X126893462Y-85120028D03*
X126893462Y-86295028D03*
X126893462Y-87470028D03*
X126893462Y-88645028D03*
X126893462Y-89820028D03*
X127893462Y-85120028D03*
X127893462Y-86295028D03*
X127893462Y-87470028D03*
X127893462Y-88645028D03*
X127893462Y-89820028D03*
X128893462Y-85120028D03*
X128893462Y-86295028D03*
X128893462Y-87470028D03*
X128893462Y-88645028D03*
X128893462Y-89820028D03*
X129893462Y-85120028D03*
X129893462Y-86295028D03*
X129893462Y-87470028D03*
X129893462Y-88645028D03*
X129893462Y-89820028D03*
%TD*%
D13*
%TO.N,Net-(C6-Pad1)*%
%TO.C,H4*%
X137565481Y-128545014D03*
%TD*%
D12*
%TO.N,GND*%
%TO.C,U10*%
X89154000Y-86845000D03*
X89154000Y-87845000D03*
X89154000Y-88845000D03*
X90454000Y-86845000D03*
X90454000Y-87845000D03*
X90454000Y-88845000D03*
%TD*%
D14*
%TO.N,*%
X102520000Y-108230400D03*
%TO.N,GND*%
X140318681Y-120409414D03*
X58693462Y-96720028D03*
X88665481Y-128255014D03*
D15*
X66711000Y-83434000D03*
D14*
X62585000Y-91330400D03*
X114895000Y-110101400D03*
D16*
X128793462Y-98770028D03*
X116543462Y-92057528D03*
D14*
X96020000Y-108880400D03*
X104693462Y-78720028D03*
D16*
X129893462Y-110220028D03*
D14*
X72685081Y-131376614D03*
D16*
X122943462Y-106770028D03*
D14*
X58683081Y-92902214D03*
X140343462Y-108370028D03*
D16*
X126443462Y-80370028D03*
D14*
X58693462Y-101720028D03*
X92770000Y-112780400D03*
X71693462Y-78720028D03*
X62120000Y-84630400D03*
X111776400Y-106730000D03*
D15*
X88047000Y-81461000D03*
D14*
X140343462Y-104370028D03*
D16*
X130193462Y-99420028D03*
D14*
X117435000Y-105148400D03*
D15*
X95665481Y-130745014D03*
D16*
X134818462Y-90225028D03*
D14*
X140318681Y-114409414D03*
X89520000Y-111480400D03*
X103495000Y-105955400D03*
X91470000Y-107580400D03*
X101220000Y-104980400D03*
D15*
X125165481Y-124900514D03*
X137365481Y-120520028D03*
D14*
X100570000Y-108880400D03*
D16*
X135870000Y-90470400D03*
D15*
X108165481Y-125233014D03*
D14*
X96020000Y-116030400D03*
X140318681Y-117409414D03*
X99270000Y-110180400D03*
X140318681Y-122409414D03*
X92120000Y-108230400D03*
X140343462Y-101415014D03*
X140320000Y-85230400D03*
X129693462Y-131370028D03*
X140320000Y-89430400D03*
D15*
X115165481Y-122345014D03*
D14*
X58693462Y-97720028D03*
X88693462Y-131370028D03*
X99270000Y-111480400D03*
X106165481Y-128255014D03*
X96020000Y-107580400D03*
D15*
X121093462Y-119470028D03*
D16*
X129243462Y-99420028D03*
D14*
X90693462Y-78720028D03*
X97320000Y-113430400D03*
X58683081Y-93902214D03*
X91693462Y-78720028D03*
D16*
X61730962Y-124220028D03*
D14*
X108923000Y-83253014D03*
X138843462Y-120720028D03*
X97320000Y-109530400D03*
X132138591Y-80221514D03*
X58693462Y-122720028D03*
X58693462Y-98720028D03*
X122693462Y-78720028D03*
X97320000Y-112130400D03*
X58693462Y-117720028D03*
X86693462Y-131370028D03*
D16*
X124855962Y-98820028D03*
D15*
X137365481Y-122395014D03*
D14*
X114133000Y-105529400D03*
X80693462Y-131370028D03*
X110196000Y-109593400D03*
X140320000Y-86230400D03*
D16*
X128343462Y-80370028D03*
D15*
X96165481Y-122345014D03*
D14*
X116693462Y-131370028D03*
D15*
X106665481Y-125233014D03*
D14*
X88220000Y-114080400D03*
X123693462Y-78720028D03*
X95693462Y-78720028D03*
D16*
X79100000Y-106225000D03*
D14*
X87693462Y-131370028D03*
X131693462Y-131370028D03*
X117844700Y-97588400D03*
X58693462Y-120720028D03*
X101220000Y-103680400D03*
D16*
X127593462Y-111570028D03*
D14*
X127693462Y-131370028D03*
X90820000Y-114080400D03*
X115784000Y-107561400D03*
X92770000Y-108230400D03*
X58683081Y-86902214D03*
D15*
X115165481Y-130745014D03*
D16*
X117043462Y-90607528D03*
X124878462Y-106733429D03*
X136825000Y-90470400D03*
D14*
X96020000Y-104330400D03*
D15*
X66818462Y-115670028D03*
D14*
X138843462Y-121720028D03*
X119693462Y-131370028D03*
X58683081Y-90902214D03*
X90170000Y-106930400D03*
D16*
X128893462Y-110220028D03*
D14*
X101870000Y-113430400D03*
D15*
X96290481Y-99095014D03*
D14*
X101870000Y-108880400D03*
X99270000Y-114730400D03*
X108545000Y-109466400D03*
X129621481Y-78747814D03*
D15*
X97665481Y-122345014D03*
D16*
X127393462Y-80370028D03*
D14*
X132693462Y-131370028D03*
X130693462Y-131370028D03*
X93420000Y-104330400D03*
X140343462Y-107370028D03*
X140343462Y-112370028D03*
X85693462Y-78720028D03*
D15*
X92390481Y-98120014D03*
D14*
X102520000Y-116030400D03*
X114937279Y-105665169D03*
D15*
X131365481Y-129395014D03*
D14*
X125621481Y-78747814D03*
X118693462Y-131370028D03*
D16*
X117043462Y-87757528D03*
D14*
X114693462Y-78720028D03*
D15*
X64793462Y-116470028D03*
D14*
X124863462Y-79445014D03*
D16*
X70780962Y-123820028D03*
D14*
X79693462Y-78720028D03*
D16*
X126255962Y-99320028D03*
D14*
X89520000Y-117330400D03*
D15*
X66711000Y-81334000D03*
X123093462Y-126470028D03*
D14*
X108672000Y-107561400D03*
D15*
X88665481Y-125080400D03*
X102165481Y-125106014D03*
D14*
X140343462Y-105370028D03*
X58693462Y-107720028D03*
X87420000Y-118780400D03*
X99920000Y-107580400D03*
X117693462Y-78720028D03*
X103693462Y-131370028D03*
X140343462Y-90370028D03*
X109693462Y-131370028D03*
D15*
X108005000Y-96043000D03*
D14*
X140320000Y-88630400D03*
X96670000Y-117330400D03*
D16*
X77100000Y-113525000D03*
X124878462Y-105896627D03*
D14*
X72693462Y-78720028D03*
D16*
X62930962Y-125720028D03*
D15*
X65365481Y-118245014D03*
D14*
X94070000Y-114730400D03*
X140318681Y-123409414D03*
D16*
X129893462Y-106820028D03*
D14*
X92120000Y-112130400D03*
X91470000Y-104330400D03*
X97320000Y-111480400D03*
X95370000Y-109530400D03*
X140343462Y-92370028D03*
X109327626Y-103711393D03*
D15*
X62815481Y-118195014D03*
D16*
X131818462Y-80965028D03*
X126893462Y-81070028D03*
D14*
X96693462Y-131370028D03*
D15*
X66818462Y-116870028D03*
D14*
X89693462Y-78720028D03*
X96020000Y-110180400D03*
D16*
X124893462Y-106320028D03*
D14*
X97320000Y-114730400D03*
D16*
X131205962Y-94570028D03*
D14*
X68693462Y-78720028D03*
D16*
X128655962Y-82920028D03*
D14*
X58693462Y-95720028D03*
X92693462Y-131370028D03*
X86770000Y-118080400D03*
D15*
X100665481Y-125106014D03*
D16*
X134793462Y-89325028D03*
D14*
X99920000Y-105630400D03*
X86693462Y-78720028D03*
D15*
X105165481Y-125106014D03*
D16*
X124243462Y-106720028D03*
D14*
X90170000Y-108880400D03*
X99270000Y-108880400D03*
X113515481Y-97470014D03*
D15*
X88490481Y-97795014D03*
D14*
X99270000Y-117980400D03*
D15*
X110165481Y-125233014D03*
D14*
X58693462Y-102720028D03*
D15*
X99165210Y-126444400D03*
D16*
X130693462Y-98770028D03*
X82540000Y-95310400D03*
D14*
X130138591Y-80221514D03*
D16*
X69993462Y-120920028D03*
X128793462Y-81070028D03*
X75200000Y-112375000D03*
D15*
X110165481Y-130745014D03*
D16*
X127893462Y-81070028D03*
D14*
X58693462Y-116720028D03*
D16*
X80100000Y-106225000D03*
D14*
X107783000Y-105021400D03*
D16*
X129393462Y-109620028D03*
D14*
X140343462Y-100415014D03*
X97970000Y-114080400D03*
X97970000Y-113430400D03*
X113371000Y-107815400D03*
X92665481Y-128255014D03*
X58693462Y-112720028D03*
D16*
X131143462Y-99420028D03*
D14*
X87570000Y-103030400D03*
X95370000Y-110180400D03*
D15*
X85665481Y-125230400D03*
D14*
X89693462Y-131370028D03*
D16*
X78600000Y-106225000D03*
D15*
X64815481Y-114395014D03*
D16*
X117043462Y-89707528D03*
D14*
X104693462Y-131370028D03*
X95693462Y-131370028D03*
D15*
X119293462Y-114070028D03*
D16*
X138720000Y-90470400D03*
D15*
X125165481Y-130770028D03*
D14*
X116546000Y-109466400D03*
D16*
X129693462Y-98770028D03*
D15*
X133365481Y-129395014D03*
D16*
X124355962Y-99370028D03*
D14*
X124693462Y-131370028D03*
D16*
X65680962Y-125820028D03*
D14*
X140318681Y-121409414D03*
X86165481Y-128255014D03*
X116673000Y-107688400D03*
X88870000Y-112780400D03*
X100570000Y-103680400D03*
X58693462Y-99720028D03*
D15*
X133365481Y-122395014D03*
D14*
X94070000Y-110180400D03*
X76693462Y-131370028D03*
X58683081Y-91902214D03*
X123693462Y-131370028D03*
X104665481Y-128255014D03*
D16*
X125755962Y-98820028D03*
D15*
X93165481Y-125180400D03*
D14*
X113693462Y-131370028D03*
X58683081Y-85902214D03*
X77165481Y-128230400D03*
D15*
X122693462Y-131070028D03*
D14*
X140343462Y-93370028D03*
X58683081Y-87902214D03*
D16*
X129893462Y-107820028D03*
D14*
X58693462Y-100720028D03*
X117693462Y-131370028D03*
D15*
X99865481Y-96495014D03*
D14*
X105693462Y-78720028D03*
X140343462Y-110370028D03*
X138843462Y-119720028D03*
X70685081Y-131376614D03*
X83693462Y-131370028D03*
X99270000Y-117330400D03*
X93693462Y-131370028D03*
X140343462Y-102370028D03*
X100570000Y-113430400D03*
X100693462Y-131370028D03*
X94693462Y-131370028D03*
D15*
X88047000Y-83561000D03*
D14*
X120693462Y-131370028D03*
X58693462Y-119720028D03*
X101220000Y-118630400D03*
D16*
X63330962Y-121620028D03*
X126755962Y-98820028D03*
X60943462Y-123870028D03*
D14*
X138843462Y-123720028D03*
D16*
X129893462Y-108820028D03*
D14*
X58693462Y-109720028D03*
X94070000Y-112780400D03*
D16*
X117043462Y-85857528D03*
D15*
X123093462Y-119470028D03*
D14*
X83693462Y-78720028D03*
X108672000Y-106291400D03*
D16*
X120565481Y-85577528D03*
D14*
X94693462Y-78720028D03*
D15*
X84165481Y-125230400D03*
D14*
X140343462Y-113370028D03*
X87693462Y-78720028D03*
X58693462Y-103720028D03*
D15*
X135365481Y-122395014D03*
D14*
X85620000Y-84370400D03*
D15*
X131365481Y-120520028D03*
D14*
X101665481Y-128255014D03*
X60779281Y-99043614D03*
D16*
X67930962Y-125820028D03*
X116543462Y-91107528D03*
X116493462Y-89207528D03*
D14*
X120693462Y-78720028D03*
X75693462Y-131370028D03*
D16*
X77546846Y-108071846D03*
D14*
X102520000Y-114730400D03*
X140318681Y-116409414D03*
X77693462Y-78720028D03*
X82693462Y-131370028D03*
X98693462Y-131370028D03*
D15*
X88448623Y-99252496D03*
D14*
X92120000Y-114730400D03*
X81693462Y-78720028D03*
X131621481Y-78747814D03*
D16*
X117043462Y-86757528D03*
D14*
X115784000Y-103624400D03*
X75693462Y-78720028D03*
X97693462Y-131370028D03*
X140318681Y-119409414D03*
X108693462Y-131370028D03*
D16*
X128293462Y-99470028D03*
D14*
X108693462Y-78720028D03*
D16*
X69630962Y-122420028D03*
D14*
X93420000Y-110180400D03*
X86920000Y-103680400D03*
X140343462Y-103370028D03*
X94070000Y-108230400D03*
D16*
X132505962Y-89220028D03*
D14*
X110693462Y-131370028D03*
X140343462Y-109370028D03*
X101693462Y-131370028D03*
X88220000Y-111480400D03*
X102693462Y-131370028D03*
D15*
X70509481Y-99833014D03*
D16*
X128893462Y-111570028D03*
X123255962Y-90720028D03*
D14*
X64320000Y-84630400D03*
X97320000Y-110180400D03*
D16*
X137780000Y-90470400D03*
X124893462Y-105470028D03*
D14*
X91470000Y-114080400D03*
X90820000Y-111480400D03*
D15*
X105455000Y-98443000D03*
D14*
X73693462Y-78720028D03*
D16*
X116543462Y-88207528D03*
D14*
X90170000Y-104980400D03*
X97970000Y-104330400D03*
X108626800Y-112216400D03*
X111847000Y-104975900D03*
X90170000Y-106280400D03*
X78693462Y-131370028D03*
D16*
X121193462Y-80497528D03*
X134893462Y-84277528D03*
X134893462Y-83377528D03*
D14*
X78665481Y-128255014D03*
D16*
X129893462Y-111570028D03*
D14*
X99693462Y-78720028D03*
D15*
X112005000Y-98443000D03*
D14*
X66693462Y-78720028D03*
D15*
X135365481Y-120520028D03*
D16*
X130755962Y-94570028D03*
D14*
X140343462Y-111370028D03*
D16*
X120868462Y-108170028D03*
D14*
X58693462Y-114720028D03*
D15*
X119293462Y-119470028D03*
X103665481Y-125106014D03*
D14*
X138843462Y-122720028D03*
D15*
X62615481Y-114545014D03*
D14*
X103693462Y-78720028D03*
X92770000Y-114730400D03*
X67693462Y-78720028D03*
D15*
X76605481Y-99833014D03*
D14*
X70693462Y-78720028D03*
X69693462Y-78720028D03*
X115693462Y-78720028D03*
X83165481Y-128255014D03*
X101220000Y-117330400D03*
X105693462Y-131370028D03*
X112693462Y-78720028D03*
D16*
X124643462Y-92050028D03*
D14*
X99270000Y-112130400D03*
X74693462Y-78720028D03*
X93420000Y-108230400D03*
D15*
X120143462Y-127470028D03*
X133365481Y-124395014D03*
X75590481Y-122345014D03*
D14*
X98693462Y-78720028D03*
X109615481Y-89345014D03*
D16*
X66993462Y-122420028D03*
D15*
X87170000Y-125430400D03*
D14*
X61480000Y-89055400D03*
X92770000Y-107580400D03*
X92120000Y-106930400D03*
X99270000Y-103030400D03*
D15*
X90165481Y-125230400D03*
D14*
X67685081Y-131376614D03*
X96670000Y-114730400D03*
D15*
X75590481Y-130745014D03*
D14*
X61320000Y-86830400D03*
X106693462Y-131370028D03*
D16*
X122318462Y-103770028D03*
D14*
X58693462Y-104720028D03*
D16*
X116543462Y-87257528D03*
D14*
X88870000Y-109530400D03*
X111847000Y-107942400D03*
X122693462Y-131370028D03*
X140343462Y-94370028D03*
X116693462Y-78720028D03*
X100332219Y-99461752D03*
X93420000Y-114730400D03*
X113693462Y-78720028D03*
D15*
X120165481Y-130745014D03*
D14*
X93420000Y-112780400D03*
X114693462Y-131370028D03*
X100570000Y-109530400D03*
X101220000Y-112130400D03*
X99693462Y-131370028D03*
X89520000Y-107580400D03*
D16*
X128393462Y-109620028D03*
X131705962Y-94570028D03*
D14*
X68685081Y-131376614D03*
D15*
X80165481Y-122345014D03*
D14*
X99270000Y-103680400D03*
X97970000Y-114730400D03*
X100693462Y-78720028D03*
D15*
X119293462Y-116070028D03*
D14*
X140343462Y-106370028D03*
X101693462Y-78720028D03*
X96020000Y-112780400D03*
D16*
X70780962Y-125220028D03*
D14*
X117434996Y-108958400D03*
X97970000Y-107580400D03*
X92120000Y-111480400D03*
D15*
X133365481Y-120520028D03*
D16*
X116493462Y-85357528D03*
D14*
X139643462Y-115870028D03*
X97970000Y-117330400D03*
X130621481Y-78747814D03*
D16*
X61730962Y-125220028D03*
D14*
X58693462Y-110720028D03*
D15*
X91670000Y-125130400D03*
D14*
X100570000Y-116680400D03*
X101220000Y-107580400D03*
X95370000Y-117980400D03*
X99920000Y-114080400D03*
X99270000Y-115380400D03*
D16*
X79600000Y-109625000D03*
D14*
X90693462Y-131370028D03*
X102693462Y-78720028D03*
D15*
X131365481Y-124395014D03*
D14*
X131138591Y-80221514D03*
X140320000Y-87830400D03*
D16*
X116543462Y-90157528D03*
D14*
X58693462Y-115720028D03*
D16*
X68843462Y-121620028D03*
D14*
X140343462Y-95370028D03*
D16*
X127593462Y-110220028D03*
D14*
X107693462Y-78720028D03*
D16*
X78100000Y-113525000D03*
D14*
X131313462Y-82495014D03*
D15*
X72541481Y-99833014D03*
D14*
X84665481Y-128255014D03*
X91693462Y-131370028D03*
D16*
X125305962Y-99320028D03*
D14*
X82693462Y-78720028D03*
X58683081Y-88902214D03*
X99920000Y-116680400D03*
D16*
X122880000Y-93030400D03*
D14*
X109693462Y-78720028D03*
X111693462Y-78720028D03*
X117308000Y-106926400D03*
X69685081Y-131376614D03*
D16*
X129293462Y-80370028D03*
D14*
X121693462Y-78720028D03*
X126621481Y-78747814D03*
X128621481Y-78747814D03*
D15*
X121165481Y-126645014D03*
D14*
X88693462Y-78720028D03*
X121693462Y-131370028D03*
X102520000Y-111480400D03*
X100570000Y-118630400D03*
X77693462Y-131370028D03*
X93693462Y-78720028D03*
X117844700Y-96638400D03*
X61320000Y-85630400D03*
X140318681Y-115409414D03*
X91470000Y-108230400D03*
D16*
X129293462Y-107320028D03*
D14*
X91165481Y-128255014D03*
X140320000Y-87030400D03*
X133693462Y-131370028D03*
D16*
X116543462Y-86307528D03*
D14*
X59965481Y-87745014D03*
D16*
X61730962Y-122720028D03*
D14*
X80693462Y-78720028D03*
X124621481Y-78747814D03*
X107693462Y-131370028D03*
D15*
X81665481Y-122345014D03*
D14*
X138843462Y-117720028D03*
X127621481Y-78747814D03*
X111693462Y-131370028D03*
D15*
X131365481Y-122395014D03*
X94665481Y-122345014D03*
D16*
X80700000Y-111425000D03*
D14*
X78693462Y-78720028D03*
X76693462Y-78720028D03*
X107275000Y-107307400D03*
X89520000Y-112780400D03*
X79693462Y-131370028D03*
X71685081Y-131376614D03*
X84693462Y-131370028D03*
D15*
X121893462Y-116070028D03*
D14*
X58693462Y-113720028D03*
X97693462Y-78720028D03*
X115693462Y-131370028D03*
X90170000Y-111480400D03*
D15*
X64165481Y-118245014D03*
D14*
X58693462Y-121720028D03*
D15*
X74573481Y-99833014D03*
D16*
X129293462Y-108320028D03*
D14*
X140318681Y-118409414D03*
X113303000Y-106374200D03*
X132621481Y-78747814D03*
D15*
X66953481Y-97801014D03*
D14*
X110243000Y-105624200D03*
X91470000Y-113430400D03*
X58683081Y-94902214D03*
D16*
X80600000Y-106225000D03*
D14*
X65120000Y-83430400D03*
X112693462Y-131370028D03*
X58683081Y-89902214D03*
X92120000Y-107580400D03*
D15*
X77165481Y-122345014D03*
D14*
X58693462Y-111720028D03*
X106693462Y-78720028D03*
X96693462Y-78720028D03*
X92120000Y-110180400D03*
X115657000Y-109466400D03*
D16*
X129293462Y-106320028D03*
D14*
X97165481Y-128255014D03*
X81665481Y-128230400D03*
X110196000Y-108196400D03*
X110693462Y-78720028D03*
D15*
X66565481Y-114545014D03*
D14*
X58693462Y-124720028D03*
D16*
X127205962Y-99320028D03*
D14*
X90170000Y-110180400D03*
X119693462Y-78720028D03*
X58693462Y-123720028D03*
X94165481Y-128255014D03*
D16*
X117043462Y-91607528D03*
D14*
X58693462Y-108720028D03*
X109290481Y-85120014D03*
X99270000Y-108230400D03*
X99270000Y-112780400D03*
X58693462Y-105720028D03*
D16*
X80650000Y-108375000D03*
D14*
X80165481Y-128230400D03*
X95370000Y-112780400D03*
X84693462Y-78720028D03*
X118693462Y-78720028D03*
X99270000Y-109530400D03*
D16*
X134893462Y-85277528D03*
D15*
X78665481Y-122345014D03*
D14*
X92693462Y-78720028D03*
D15*
X66615481Y-118245014D03*
D14*
X98665481Y-128255014D03*
X138843462Y-118720028D03*
X97320000Y-112780400D03*
X66685081Y-131376614D03*
D15*
X62793462Y-116870028D03*
D14*
X100570000Y-112130400D03*
D16*
X129393462Y-110870028D03*
D14*
X74685081Y-131376614D03*
X81693462Y-131370028D03*
D15*
X120165481Y-122345014D03*
D14*
X73685081Y-131376614D03*
X91470000Y-111480400D03*
D15*
X70509481Y-97801014D03*
D14*
X95370000Y-108230400D03*
X58693462Y-118720028D03*
X101870000Y-112130400D03*
X58693462Y-106720028D03*
X85693462Y-131370028D03*
D16*
X128393462Y-110870028D03*
D14*
X140343462Y-91370028D03*
%TO.N,GBE0_MDI3_N*%
X72330962Y-118895028D03*
%TO.N,GBE0_MDI3_P*%
X72330962Y-118445028D03*
D16*
%TO.N,/IO/LED0*%
X64793462Y-121120028D03*
%TO.N,/IO/LED1*%
X64393462Y-121370028D03*
D14*
%TO.N,GBE0_MDI2_N*%
X72330962Y-117695028D03*
%TO.N,GBE0_MDI2_P*%
X72330962Y-117245028D03*
%TO.N,/MPU/VDDA_0P9*%
X97970000Y-108880400D03*
%TO.N,GBE0_MDI1_N*%
X72330962Y-116495028D03*
%TO.N,GBE0_MDI1_P*%
X72330962Y-116045028D03*
%TO.N,GBE0_MDI0_N*%
X72330962Y-115295028D03*
%TO.N,GBE0_MDI0_P*%
X72330962Y-114845028D03*
D16*
%TO.N,3.3V_SW*%
X115420981Y-82803014D03*
X137393462Y-116245028D03*
X133918462Y-108895028D03*
X128693462Y-84407528D03*
X134918462Y-110895028D03*
X115420981Y-82003014D03*
X136918462Y-109895028D03*
X133918462Y-106895028D03*
X131918462Y-109895028D03*
X127493462Y-90557528D03*
X130843462Y-85470028D03*
X129493462Y-84407528D03*
X115420981Y-81203014D03*
X138918462Y-112895028D03*
X133393462Y-117245028D03*
X137918462Y-113895028D03*
X137918462Y-110895028D03*
X138918462Y-111895028D03*
X130843462Y-90557528D03*
X125383462Y-102345028D03*
X134393462Y-116245028D03*
X124893462Y-89670028D03*
X138918462Y-113895028D03*
X113820981Y-81203014D03*
X132918462Y-110895028D03*
X117156481Y-82775014D03*
X123193462Y-80497528D03*
X135918462Y-106895028D03*
X127638838Y-84403766D03*
X135918462Y-107895028D03*
X133918462Y-109895028D03*
X133393462Y-115245028D03*
X138918462Y-109895028D03*
X132393462Y-115245028D03*
D14*
X112865481Y-93245014D03*
D16*
X136918462Y-107895028D03*
X116356481Y-81075014D03*
X134918462Y-106895028D03*
X131918462Y-107895028D03*
X135393462Y-117245028D03*
X130843462Y-87057528D03*
X117156481Y-80275014D03*
X122893462Y-105770028D03*
X113820981Y-82003014D03*
X131918462Y-108895028D03*
X136918462Y-110895028D03*
X136393462Y-117245028D03*
X116356481Y-81875014D03*
X113020981Y-80403014D03*
X115467481Y-80275014D03*
X113020981Y-82003014D03*
X137918462Y-109895028D03*
X124893462Y-88070028D03*
X136918462Y-108895028D03*
X136393462Y-116245028D03*
X131918462Y-110895028D03*
X130843462Y-87670028D03*
X135393462Y-116245028D03*
X129893462Y-90557528D03*
X125793462Y-84420028D03*
X124893462Y-87357528D03*
X138918462Y-107895028D03*
X114620981Y-81203014D03*
X137918462Y-107895028D03*
X113020981Y-81203014D03*
X134393462Y-115245028D03*
X137918462Y-112895028D03*
X129093462Y-90557528D03*
X117156481Y-81075014D03*
X131918462Y-106895028D03*
X137393462Y-117245028D03*
X137918462Y-108895028D03*
X116356481Y-82775014D03*
X132393462Y-116245028D03*
X116356481Y-80275014D03*
X117156481Y-81875014D03*
X130840643Y-89870028D03*
X124893462Y-85870028D03*
X114620981Y-82803014D03*
X114705481Y-80275014D03*
X134918462Y-108895028D03*
X135393462Y-115245028D03*
X121368462Y-103770028D03*
X126693462Y-84407528D03*
X136393462Y-115245028D03*
X128293462Y-90557528D03*
X126693462Y-90553941D03*
X132918462Y-108895028D03*
X138918462Y-108895028D03*
X135918462Y-110895028D03*
X135918462Y-109895028D03*
D14*
X114907200Y-96338400D03*
D16*
X130840643Y-89070028D03*
X136918462Y-106895028D03*
X137393462Y-115245028D03*
X132393462Y-117245028D03*
X134918462Y-107895028D03*
X133918462Y-107895028D03*
X134393462Y-117245028D03*
X124893462Y-86670028D03*
X130643462Y-84407528D03*
X132918462Y-109895028D03*
X124893462Y-88870028D03*
X133918462Y-110895028D03*
X125893462Y-90557528D03*
X137918462Y-111895028D03*
X132918462Y-106895028D03*
X138918462Y-110895028D03*
X137918462Y-106895028D03*
X135918462Y-108895028D03*
X130843462Y-86270028D03*
X134918462Y-109895028D03*
X113820981Y-80403014D03*
X130840643Y-88470028D03*
X133393462Y-116245028D03*
X114620981Y-82003014D03*
X125093462Y-90557528D03*
X132918462Y-107895028D03*
X138918462Y-106895028D03*
D14*
%TO.N,Net-(U3A-ZQ0)*%
X111440925Y-103375146D03*
%TO.N,I2C1_SCL*%
X89520000Y-114730400D03*
%TO.N,I2C1_SDA*%
X89520000Y-114080400D03*
%TO.N,I2C2_SCL*%
X90820000Y-115380400D03*
%TO.N,I2C2_SDA*%
X90170000Y-115380400D03*
%TO.N,I2C3_SCL*%
X90820000Y-114730400D03*
%TO.N,I2C3_SDA*%
X90170000Y-114080400D03*
%TO.N,Net-(U3A-ODT_CA_A)*%
X108672000Y-108196400D03*
%TO.N,Net-(U3A-ODT_CA_B)*%
X109439600Y-114045200D03*
%TO.N,UART2_TXD*%
X88870000Y-115380400D03*
X85640000Y-128340400D03*
%TO.N,UART2_RXD*%
X85125610Y-125573187D03*
%TO.N,UART1_TXD*%
X83045000Y-125180400D03*
%TO.N,UART1_RXD*%
X82665481Y-128255014D03*
X88220000Y-115380400D03*
D16*
%TO.N,/IO/ENET_2.5V_A*%
X69343462Y-115670028D03*
X69343462Y-119270028D03*
X69343462Y-116870028D03*
D14*
%TO.N,USB2_RX_N*%
X81556777Y-126147177D03*
%TO.N,USB2_RX_P*%
X81203223Y-125793623D03*
%TO.N,USB2_TX_N*%
X80186777Y-125987177D03*
%TO.N,USB2_TX_P*%
X79833223Y-125633623D03*
%TO.N,USB2_DP*%
X78263223Y-125633623D03*
D16*
%TO.N,VDD_1V*%
X61593462Y-111920028D03*
X69343462Y-113270028D03*
D14*
%TO.N,UART3_RXD*%
X84820000Y-124760400D03*
%TO.N,UART3_TXD*%
X83445000Y-125055400D03*
%TO.N,UART4_RXD*%
X88220000Y-116030400D03*
%TO.N,NVCC_DRAM_1V1*%
X111878000Y-112775200D03*
X100570000Y-112780400D03*
X101220000Y-117980400D03*
X109388800Y-117347200D03*
D16*
X128193462Y-97157528D03*
D14*
X114207000Y-117353000D03*
X113445000Y-117302200D03*
D16*
X129243462Y-97157528D03*
D14*
X111974000Y-108831400D03*
X115784000Y-104386400D03*
X100570000Y-104330400D03*
X115657000Y-110101400D03*
X107783000Y-108196400D03*
X101870000Y-110180400D03*
X112487600Y-106831600D03*
X101220000Y-114080400D03*
X101870000Y-116030400D03*
X109434000Y-107561400D03*
X101220000Y-106280400D03*
X114133000Y-106291400D03*
X99920000Y-112130400D03*
X107864800Y-116026400D03*
X111878500Y-116641800D03*
X109439600Y-112064000D03*
X113423146Y-114067054D03*
X112276600Y-115371800D03*
X113548400Y-115979600D03*
X111847000Y-104386400D03*
X101220000Y-108880400D03*
X114260000Y-104259400D03*
X107915600Y-112826000D03*
X101870000Y-106280400D03*
X113323912Y-108404900D03*
X101220000Y-108230400D03*
X100570000Y-117980400D03*
X107783000Y-105656400D03*
X110760400Y-118109200D03*
X99920000Y-110180400D03*
X110303200Y-114096000D03*
X109434000Y-104386400D03*
X101220000Y-104330400D03*
X110504387Y-103467404D03*
X101220000Y-114730400D03*
X109434000Y-109593400D03*
X115680200Y-114660600D03*
D16*
X130343462Y-95957528D03*
X130343462Y-97157528D03*
D14*
X113244000Y-107180400D03*
X101220000Y-116030400D03*
X115799033Y-111402882D03*
X99920000Y-111480400D03*
X112482000Y-106291400D03*
D16*
X132648462Y-90220028D03*
D14*
X107783000Y-109593400D03*
X115843000Y-117374200D03*
X113452800Y-112826000D03*
X115784000Y-106926400D03*
X108654088Y-111622900D03*
%TO.N,DRAM_DQ21*%
X99920000Y-119280400D03*
X111717800Y-115371800D03*
%TO.N,DRAM_DQ19*%
X103495000Y-116030400D03*
X108525200Y-114705600D03*
%TO.N,DRAM_DQ25*%
X117356600Y-116692600D03*
X99920000Y-117330400D03*
%TO.N,DRAM_DQ24*%
X116188200Y-118572200D03*
X100570000Y-117330400D03*
%TO.N,Net-(U1A-MIPI_VDD1)*%
X89520000Y-109530400D03*
%TO.N,DRAM_DQ26*%
X99920000Y-117980400D03*
X116594600Y-115270200D03*
%TO.N,DRAM_DQ28*%
X114969000Y-114660600D03*
X100570000Y-114730400D03*
%TO.N,DRAM_DQ27*%
X99920000Y-116030400D03*
X116543800Y-114660600D03*
%TO.N,DRAM_DQ30*%
X100570000Y-115380400D03*
X114969000Y-117824200D03*
%TO.N,DRAM_DQ15*%
X113244000Y-105275400D03*
X100570000Y-108230400D03*
%TO.N,DRAM_DQ12*%
X100570000Y-107580400D03*
X114260000Y-106926400D03*
%TO.N,DRAM_DQ14*%
X114672000Y-103580400D03*
X100570000Y-106930400D03*
%TO.N,DRAM_DQ11*%
X116546000Y-106926400D03*
X99920000Y-106280400D03*
%TO.N,DRAM_DQ9*%
X117339000Y-104342400D03*
X99920000Y-104980400D03*
%TO.N,DRAM_DQ10*%
X99920000Y-104330400D03*
X116546000Y-106291400D03*
%TO.N,DRAM_DQ4*%
X99920000Y-103680400D03*
X110958000Y-106926400D03*
%TO.N,DRAM_DQ6*%
X100570000Y-103030400D03*
X110958000Y-105656400D03*
%TO.N,DRAM_DQ22*%
X100570000Y-119280400D03*
X111032000Y-116540200D03*
%TO.N,DRAM_DQ23*%
X110963600Y-117429200D03*
X101220000Y-119280400D03*
%TO.N,DRAM_DQS3_P*%
X101220000Y-116680400D03*
X115832600Y-115371800D03*
%TO.N,DRAM_DM3*%
X100570000Y-116030400D03*
X115843000Y-116674200D03*
%TO.N,DRAMREF*%
X100570000Y-110180400D03*
%TO.N,DRAM_DQ13*%
X101220000Y-106930400D03*
X115022000Y-106926400D03*
%TO.N,DRAM_DM1*%
X100570000Y-106280400D03*
X115784000Y-105021400D03*
%TO.N,DRAM_DQS1_P*%
X101220000Y-105630400D03*
X115784000Y-106291400D03*
%TO.N,DRAM_DQ8*%
X100570000Y-105630400D03*
X116170000Y-103030400D03*
%TO.N,DRAM_DQ7*%
X110958000Y-104386400D03*
X101220000Y-103030400D03*
%TO.N,DRAM_DQS2_N*%
X101761000Y-119791400D03*
X110193800Y-114762200D03*
%TO.N,DRAM_DQS2_P*%
X102116600Y-119537400D03*
X109417100Y-115394300D03*
%TO.N,DRAM_DQS3_N*%
X114918200Y-115321000D03*
X101870000Y-116680400D03*
%TO.N,DRAM_nCS0_B*%
X101220000Y-113430400D03*
X111065200Y-112775200D03*
%TO.N,DRAM_CKE0_A*%
X101870000Y-109530400D03*
X110958000Y-109466400D03*
%TO.N,DRAM_DQS1_N*%
X101870000Y-105630400D03*
X115022000Y-106291400D03*
%TO.N,DRAM_DQS0_P*%
X102398564Y-101979764D03*
X109434000Y-106291400D03*
%TO.N,DRAM_DQS0_N*%
X110196000Y-106291400D03*
X102087436Y-101668636D03*
%TO.N,DRAM_DQ16*%
X103820000Y-117330400D03*
X108626800Y-117347200D03*
%TO.N,DRAM_DM2*%
X102520000Y-117330400D03*
X109439600Y-116788400D03*
%TO.N,DRAM_DQ18*%
X104795000Y-116030400D03*
X109388800Y-114756400D03*
%TO.N,PMIC_SCL*%
X90820000Y-113430400D03*
%TO.N,DRAM_nCS1_B*%
X110244600Y-113390600D03*
X102520000Y-114080400D03*
%TO.N,DRAM_CKE0_B*%
X111014400Y-112165600D03*
X102520000Y-112780400D03*
%TO.N,DRAM_CA0_A*%
X102520000Y-108880400D03*
X109307000Y-108323400D03*
%TO.N,DRAM_CA2_A*%
X104470000Y-107255400D03*
X114260000Y-108323400D03*
%TO.N,DRAM_DQ3*%
X102520000Y-105630400D03*
X108672000Y-106926400D03*
%TO.N,DRAM_DM0*%
X109434000Y-105021400D03*
X103170000Y-104980400D03*
%TO.N,DRAM_DQ1*%
X108672000Y-105656400D03*
X103170000Y-104330400D03*
%TO.N,DRAM_DQ17*%
X108576000Y-116686800D03*
X102520000Y-117980400D03*
%TO.N,DRAM_CA1_A*%
X102520000Y-109530400D03*
X109338000Y-108863600D03*
%TO.N,DRAM_CKE1_A*%
X103495000Y-109855400D03*
X111921000Y-109428200D03*
%TO.N,DRAM_CA5_A*%
X102520000Y-107580400D03*
X115911000Y-108958400D03*
%TO.N,DRAM_DQ2*%
X109434000Y-106926400D03*
X104145000Y-105630400D03*
%TO.N,DRAM_DQ0*%
X108545000Y-104386400D03*
X104145000Y-104330400D03*
%TO.N,Net-(U1K-PCIE2_RESREF)*%
X86920000Y-103030400D03*
D16*
%TO.N,Net-(L9-Pad1)*%
X126793462Y-106470028D03*
X127493462Y-108420028D03*
X127493462Y-106520028D03*
X126793462Y-108370028D03*
X126093462Y-105720028D03*
X126793462Y-105720028D03*
X126093462Y-108370028D03*
X126093462Y-106470028D03*
X127493462Y-107620028D03*
X126093462Y-107570028D03*
X127493462Y-105770028D03*
X126793462Y-107570028D03*
D14*
%TO.N,SPI1_MOSI*%
X88059603Y-125728030D03*
%TO.N,SPI2_SSO*%
X86286358Y-125796758D03*
%TO.N,UART4_TXD*%
X89520000Y-115380400D03*
%TO.N,QSPIA_CLE*%
X91470000Y-105630400D03*
%TO.N,SPI1_MISO*%
X88953443Y-125778717D03*
%TO.N,HDMI_TX3_P*%
X95665481Y-125780400D03*
%TO.N,PCIE2_RXN*%
X93165481Y-128255014D03*
%TO.N,SPI2_MISO*%
X87697277Y-124780400D03*
%TO.N,SPI2_SCLK*%
X86579507Y-128360400D03*
X88220000Y-116680400D03*
%TO.N,PCIE2_RXP*%
X93665481Y-128255014D03*
%TO.N,PCIE1_TXN*%
X96165481Y-128255014D03*
X92089500Y-102840400D03*
%TO.N,SPI1_SSO*%
X89670000Y-128230400D03*
X88870000Y-117330400D03*
%TO.N,PCIE1_TXP*%
X96665481Y-128255014D03*
X92477660Y-102808098D03*
%TO.N,HDMI_TX2_P*%
X96665481Y-125780400D03*
%TO.N,PCIE2_REF_CLKN*%
X94665481Y-128274553D03*
%TO.N,PCIE2_REF_CLKP*%
X95165481Y-128274553D03*
%TO.N,QSPIA_SCLK*%
X90820000Y-106930400D03*
%TO.N,Net-(U1B-ZQ_{slash}_ZQ_{slash}_ZQ)*%
X100570000Y-111480400D03*
%TO.N,NAND_DATA0*%
X90820000Y-106280400D03*
X76351481Y-105167014D03*
%TO.N,BT_DEV_WAKE*%
X90820000Y-105630400D03*
%TO.N,QSPIA_nSS0 *%
X72308000Y-102416000D03*
X91470000Y-106930400D03*
%TO.N,NAND_nCE3*%
X91470000Y-106280400D03*
%TO.N,NAND_DATA2*%
X91470000Y-104980400D03*
D16*
X77936782Y-105121575D03*
D14*
%TO.N,PCIE1_RXP*%
X91720000Y-102540400D03*
X97665481Y-128255014D03*
D16*
%TO.N,NAND_DATA1*%
X77100000Y-105421014D03*
D14*
X92120000Y-106280400D03*
%TO.N,SPI1_SCLK*%
X88870000Y-116030400D03*
X89170000Y-128230400D03*
D16*
%TO.N,NAND_DATA3*%
X75400000Y-105725000D03*
D14*
X92120000Y-105630400D03*
D16*
%TO.N,NAND_DATA5*%
X76780500Y-105929014D03*
D14*
X92120000Y-104980400D03*
%TO.N,USB1_SS_SEL*%
X92770000Y-106930400D03*
%TO.N,NAND_nREADY*%
X92770000Y-106280400D03*
%TO.N,NAND_nWP*%
X92770000Y-105630400D03*
%TO.N,SPI2_MOSI*%
X87665481Y-128255014D03*
X88870000Y-116680400D03*
%TO.N,GPIO15*%
X92120000Y-116030400D03*
%TO.N,NAND_nWE*%
X92770000Y-104980400D03*
%TO.N,PCIE1_REF_CLKP*%
X93082124Y-102272363D03*
X99665481Y-128255014D03*
%TO.N,NAND_DATA6*%
X93420000Y-106930400D03*
D16*
X77419500Y-105929014D03*
%TO.N,NAND_DATA4*%
X75900000Y-105725000D03*
D14*
X93420000Y-106280400D03*
%TO.N,SD2_nCD*%
X93420000Y-105630400D03*
%TO.N,GPIO13*%
X92770000Y-116030400D03*
%TO.N,GPIO14*%
X92770000Y-115380400D03*
%TO.N,SD2_CLK*%
X93420000Y-104980400D03*
%TO.N,SD1_CMD*%
X93397657Y-103084057D03*
D16*
X77600000Y-111725000D03*
D14*
%TO.N,SD1_CLK*%
X93683678Y-102432503D03*
%TO.N,NAND_DATA7*%
X94070000Y-106930400D03*
D16*
X78383481Y-105421014D03*
D14*
%TO.N,BT_HOST_WAKE*%
X94070000Y-106280400D03*
%TO.N,SD2_WP*%
X94070000Y-105630400D03*
%TO.N,HDMI_REFCLK_N*%
X98165481Y-125780400D03*
%TO.N,HDMI_REFCLK_P*%
X98665481Y-125780400D03*
%TO.N,GPIO11*%
X93420000Y-116030400D03*
%TO.N,GPIO12*%
X93420000Y-115380400D03*
%TO.N,SD2_CMD*%
X94070000Y-104980400D03*
%TO.N,ENET_MDIO*%
X94720000Y-107580400D03*
D16*
X59893462Y-119270028D03*
%TO.N,ENET_MDC*%
X60065481Y-118145014D03*
D14*
X94726595Y-101603748D03*
%TO.N,SD2_D1*%
X95370000Y-105630400D03*
%TO.N,HDMI_TX0_P*%
X99665481Y-125780400D03*
%TO.N,GPIO9*%
X94070000Y-116030400D03*
%TO.N,GPIO10*%
X94070000Y-115380400D03*
%TO.N,GPIO6*%
X95370000Y-116680400D03*
%TO.N,SD1_D4*%
X95246797Y-102594525D03*
%TO.N,ENET_TX_CTL*%
X95370000Y-107580400D03*
X61263462Y-111495014D03*
%TO.N,ENET_TD3*%
X95370000Y-106280400D03*
D16*
X59464769Y-114245726D03*
D14*
%TO.N,GPIO8*%
X95370000Y-115380400D03*
%TO.N,GPIO3*%
X95370000Y-117330400D03*
%TO.N,SD2_D3*%
X96020000Y-105630400D03*
%TO.N,SD2_D2*%
X96020000Y-104980400D03*
%TO.N,SD1_D5*%
X96020000Y-102961724D03*
%TO.N,SD1_D3*%
X95683466Y-102663995D03*
%TO.N,ENET_TD2*%
X96020000Y-106930400D03*
X59565481Y-115495014D03*
%TO.N,ENET_TD0*%
X96020000Y-106280400D03*
D16*
X59565481Y-113045014D03*
D14*
%TO.N,HDMI_TX1_P*%
X101665481Y-125730400D03*
%TO.N,GPIO4*%
X96020000Y-116680400D03*
%TO.N,ENET_TD1*%
X59989078Y-115270028D03*
X96670000Y-106280400D03*
%TO.N,SD2_nRST*%
X96670000Y-105630400D03*
%TO.N,CLK1_P*%
X96670000Y-104980400D03*
%TO.N,SD1_nRST*%
X96670000Y-103030400D03*
%TO.N,SD1_D6*%
X96377387Y-102436729D03*
%TO.N,JTAG_TCK*%
X97320000Y-116680400D03*
%TO.N,ENET_TXC*%
X96670000Y-106930400D03*
D16*
X60193462Y-114070028D03*
D14*
%TO.N,ENET_RXC*%
X97320000Y-106280400D03*
X62765481Y-110245014D03*
%TO.N,GPIO5*%
X96020000Y-115380400D03*
%TO.N,GPIO2*%
X96020000Y-117330400D03*
%TO.N,ENET_RX_CTL*%
X97320000Y-105630400D03*
X63965481Y-109945014D03*
%TO.N,CLK2_P*%
X97320000Y-104980400D03*
%TO.N,CLK1_N*%
X96670000Y-104330400D03*
%TO.N,SD1_STROBE*%
X97320000Y-103008014D03*
%TO.N,SD1_D7*%
X97330033Y-102184367D03*
%TO.N,JTAG_TDO*%
X97970000Y-116680400D03*
%TO.N,JTAG_nTRS*%
X97320000Y-115380400D03*
X65119800Y-97894800D03*
%TO.N,JTAG_MOD*%
X97970000Y-115380400D03*
%TO.N,ENET_RD0*%
X97320000Y-106930400D03*
X63593462Y-111545014D03*
%TO.N,ENET_RD2*%
X97970000Y-106280400D03*
X65474060Y-110553593D03*
%TO.N,ENET_RD1*%
X64665481Y-109695014D03*
X97970000Y-105630400D03*
%TO.N,CLK2_N*%
X97970000Y-104980400D03*
%TO.N,JTAG_TMS*%
X97970000Y-116030400D03*
%TO.N,BOOT_MODE1*%
X98620000Y-116030400D03*
%TO.N,QSPIA_IO1*%
X72892200Y-102212800D03*
%TO.N,Net-(U1H-TEST_MODE)*%
X98620000Y-115380400D03*
%TO.N,ENET_RD3*%
X66565481Y-111345014D03*
X97970000Y-106930400D03*
%TO.N,PMIC_ON_REQ*%
X98620000Y-106930400D03*
%TO.N,PMIC_STBY_REQ*%
X98620000Y-105630400D03*
%TO.N,JTAG_TDI*%
X99270000Y-116680400D03*
%TO.N,BOOT_MODE0*%
X99270000Y-116030400D03*
%TO.N,QSPIA_IO2*%
X73349400Y-101857200D03*
%TO.N,POR_B*%
X98620000Y-106280400D03*
%TO.N,ONOFF*%
X99270000Y-105630400D03*
%TO.N,/MPU/RTC_nRST*%
X99270000Y-106280400D03*
X113840481Y-89995014D03*
%TO.N,DRAM_DQ20*%
X99920000Y-118630400D03*
X110988354Y-114729646D03*
%TO.N,DRAM_DQ5*%
X111847000Y-106291400D03*
X99920000Y-103030400D03*
%TO.N,DRAM_nRST*%
X101220000Y-111480400D03*
X116551600Y-112724400D03*
%TO.N,/POWER/PMIC_ON*%
X64445000Y-88480000D03*
D16*
%TO.N,VIN*%
X125193462Y-107970028D03*
X128015481Y-127570028D03*
X129415481Y-130370028D03*
X129415481Y-124770028D03*
X123893462Y-111170028D03*
X125393462Y-110470028D03*
X128715481Y-125470028D03*
X127315481Y-128270028D03*
X123893462Y-110470028D03*
X128015481Y-124770028D03*
X125393462Y-111170028D03*
X123193462Y-109770028D03*
X129415481Y-126170028D03*
X128715481Y-126870028D03*
X129415481Y-127570028D03*
X127315481Y-126870028D03*
X128015481Y-126170028D03*
X123193462Y-111170028D03*
X124593462Y-108470028D03*
X123893462Y-109770028D03*
X124693462Y-111170028D03*
X128715481Y-128270028D03*
X124693462Y-110470028D03*
X124593462Y-107470028D03*
X123193462Y-110470028D03*
X122993462Y-107770028D03*
X128015481Y-130370028D03*
X127315481Y-125470028D03*
D14*
%TO.N,VDDA_1V8*%
X97320000Y-104330400D03*
X97320000Y-108230400D03*
X98620000Y-108230400D03*
X99270000Y-104330400D03*
X92770000Y-110180400D03*
X96670000Y-108230400D03*
X99920000Y-112780400D03*
X95370000Y-112130400D03*
D16*
X131465481Y-92395014D03*
D14*
%TO.N,DRAM_CA2_B*%
X114976800Y-112775200D03*
X101870000Y-115380400D03*
%TO.N,DRAM_nCS1_A*%
X110196000Y-108831400D03*
X101870000Y-108230400D03*
%TO.N,DRAM_CA5_B*%
X104268900Y-114762200D03*
X115789600Y-112724400D03*
%TO.N,DRAM_CA4_A*%
X115911000Y-108196400D03*
X102520000Y-106930400D03*
%TO.N,DRAM_CA4_B*%
X115840400Y-113435600D03*
X103820000Y-115380400D03*
%TO.N,DRAM_CA3_B*%
X114976800Y-113435600D03*
X103170000Y-114730400D03*
%TO.N,DRAM_CA0_B*%
X109338000Y-113384800D03*
X104145000Y-113105400D03*
%TO.N,DRAM_CA1_B*%
X102520000Y-113430400D03*
%TO.N,DRAM_CKE1_B*%
X103170000Y-112780400D03*
X111667000Y-112171400D03*
%TO.N,DRAM_nCS0_A*%
X110958000Y-108831400D03*
X103170000Y-108230400D03*
%TO.N,DRAM_CA3_A*%
X103820000Y-107255400D03*
X115022000Y-108831400D03*
%TO.N,VDD_PHY_0V9*%
X97970000Y-117980400D03*
X90820000Y-104980400D03*
X89520000Y-112130400D03*
X124613462Y-92645014D03*
X88870000Y-111480400D03*
X125563462Y-92195014D03*
X88870000Y-112130400D03*
X90820000Y-104330400D03*
X90170000Y-107580400D03*
X90170000Y-108230400D03*
X125163462Y-92645014D03*
X97320000Y-117980400D03*
X90820000Y-108230400D03*
X88220000Y-112130400D03*
%TO.N,VDD_PHY_1V8*%
X95989500Y-118660960D03*
X88220000Y-107580400D03*
D16*
X130755962Y-92810028D03*
D14*
X88870000Y-108230400D03*
%TO.N,NVCC_3V3*%
X90170000Y-116680400D03*
X94070000Y-107580400D03*
X91470000Y-115380400D03*
X96670000Y-116030400D03*
X92120000Y-115380400D03*
X89520000Y-117980400D03*
X88870000Y-114730400D03*
X98620000Y-116680400D03*
X94070000Y-117980400D03*
%TO.N,VDD_PHY_3V3*%
X90820000Y-112130400D03*
X90820000Y-112780400D03*
X92120000Y-104330400D03*
X91470000Y-112130400D03*
X90170000Y-112130400D03*
X90170000Y-112780400D03*
%TO.N,VDD_ARM_0V9*%
X92770000Y-108880400D03*
X92120000Y-108880400D03*
D15*
X73356000Y-93560000D03*
X73356000Y-91909000D03*
D14*
X94070000Y-108880400D03*
D15*
X74880000Y-91909000D03*
D14*
X90820000Y-110180400D03*
D15*
X70816000Y-95084000D03*
D14*
X93420000Y-108880400D03*
D15*
X66879000Y-93687000D03*
X66879000Y-95084000D03*
X74880000Y-93560000D03*
D14*
X90820000Y-109530400D03*
D15*
X70816000Y-93687000D03*
D14*
X92770000Y-109530400D03*
X91470000Y-109530400D03*
X92120000Y-109530400D03*
X93420000Y-109530400D03*
D15*
X80849000Y-95084000D03*
D14*
X91470000Y-110180400D03*
D15*
X78309000Y-95133000D03*
X79706000Y-95084000D03*
D14*
X94070000Y-109530400D03*
D16*
%TO.N,VDD_GPU_0V9*%
X118693462Y-86207528D03*
X118693462Y-87307528D03*
X119893462Y-86207528D03*
D14*
X93420000Y-113430400D03*
X92770000Y-114080400D03*
X94070000Y-113430400D03*
X94070000Y-114080400D03*
X92120000Y-113430400D03*
D16*
X118693462Y-88357528D03*
D14*
X93420000Y-114080400D03*
X92770000Y-113430400D03*
X92120000Y-114080400D03*
D15*
%TO.N,VDD_SOC_0V9*%
X96470000Y-90512000D03*
D14*
X96020000Y-111480400D03*
D15*
X93422000Y-95084000D03*
X96470000Y-93179000D03*
X92025000Y-93814000D03*
X94946000Y-93179000D03*
D14*
X96670000Y-108880400D03*
D15*
X93422000Y-93814000D03*
X92025000Y-95084000D03*
D14*
X96670000Y-109530400D03*
X94070000Y-111480400D03*
X93420000Y-111480400D03*
D15*
X103582000Y-92036000D03*
X98883000Y-90131000D03*
D14*
X96670000Y-112130400D03*
D15*
X100915000Y-90131000D03*
D14*
X92770000Y-111480400D03*
D15*
X99137000Y-94322000D03*
D14*
X96670000Y-112780400D03*
X96670000Y-111480400D03*
X96670000Y-110180400D03*
X96670000Y-113430400D03*
D15*
X96470000Y-91782000D03*
D14*
%TO.N,NVCC_SD1_1V8*%
X94070000Y-104330400D03*
D16*
%TO.N,VDD_VPU_0V9*%
X118693462Y-90157528D03*
D14*
X96020000Y-114080400D03*
X95370000Y-113430400D03*
X96020000Y-113430400D03*
D16*
X118693462Y-91257528D03*
X118693462Y-89107528D03*
D14*
X95370000Y-114080400D03*
D16*
X119893462Y-91257528D03*
D14*
%TO.N,NVCC_SD2*%
X95370000Y-104330400D03*
%TO.N,VDD_SNVS_0V9*%
X96670000Y-107580400D03*
D16*
%TO.N,NVCC_ENET_2V5*%
X60243462Y-116870028D03*
X63993462Y-111920028D03*
X66393462Y-111920028D03*
X63993462Y-121020028D03*
D14*
X97320000Y-107580400D03*
D16*
X60193462Y-114870028D03*
D14*
%TO.N,VDD_DRAM_0V9*%
X99920000Y-106930400D03*
X99920000Y-108230400D03*
X98620000Y-112130400D03*
X97970000Y-110180400D03*
X98620000Y-111480400D03*
D16*
X137843462Y-86857528D03*
D14*
X98620000Y-109530400D03*
X99920000Y-114730400D03*
X97970000Y-109530400D03*
X98620000Y-114080400D03*
X99920000Y-109530400D03*
X97970000Y-111480400D03*
D16*
X136643462Y-85757528D03*
X137843462Y-85757528D03*
D14*
X99920000Y-115380400D03*
X99270000Y-113430400D03*
X99920000Y-108880400D03*
D16*
X137843462Y-87907528D03*
D14*
X98620000Y-112780400D03*
X97970000Y-112130400D03*
X98620000Y-110180400D03*
X98620000Y-113430400D03*
%TO.N,NVCC_SNVS_3V3*%
X99270000Y-107580400D03*
%TO.N,USB1_TX_N*%
X92046777Y-122153623D03*
X87570000Y-111480400D03*
%TO.N,USB1_TX_P*%
X91693223Y-122507177D03*
X86920000Y-111480400D03*
%TO.N,USB1_RX_N*%
X93596777Y-122153623D03*
X87616097Y-112084303D03*
%TO.N,USB1_RX_P*%
X93243223Y-122507177D03*
X86966097Y-112084303D03*
%TO.N,USB1_DP*%
X86920000Y-110830400D03*
X90143223Y-122557177D03*
%TO.N,Net-(U1M-USB1_RESREF)*%
X86578131Y-112323939D03*
%TO.N,USB1_DN*%
X90496777Y-122203623D03*
X87570000Y-110830400D03*
%TO.N,Net-(U1M-USB2_RESREF)*%
X86396521Y-112744944D03*
%TO.N,USB1_VBUS*%
X88870000Y-110180400D03*
%TO.N,HDMI_SDA*%
X96020000Y-117980400D03*
%TO.N,HDMI_SCL*%
X96670000Y-117980400D03*
D16*
%TO.N,VDD_1V8*%
X77100000Y-111725000D03*
D14*
X110958000Y-108196400D03*
D16*
X78100000Y-108025000D03*
D14*
X107783000Y-107434400D03*
X115022000Y-107561400D03*
X77875481Y-104405014D03*
D16*
X110943000Y-81428000D03*
X77200000Y-112375000D03*
X127343462Y-97157528D03*
X126293462Y-97157528D03*
D14*
X111050980Y-113556192D03*
X107763200Y-114705600D03*
X117435000Y-114165400D03*
D16*
X77600000Y-113525000D03*
X76600000Y-113525000D03*
D14*
X117308000Y-107561400D03*
D16*
X125193462Y-95957528D03*
X125193462Y-97157528D03*
D14*
X114960757Y-114024897D03*
%TO.N,DRAM_DQ29*%
X101220000Y-115380400D03*
X114156200Y-115371800D03*
D16*
%TO.N,Net-(U4-VDDI)*%
X75211268Y-107875000D03*
%TO.N,Net-(U4-RCLK)*%
X78050000Y-110125000D03*
%TO.N,Net-(U4-NRST)*%
X78050000Y-110675000D03*
%TO.N,Net-(U4-CLK)*%
X78100000Y-111725000D03*
%TO.N,/IO/VDD1A*%
X67993462Y-121020028D03*
X69343462Y-114470028D03*
X69343462Y-118070028D03*
D14*
%TO.N,GPIO0*%
X97320000Y-116030400D03*
%TO.N,GPIO1*%
X96670000Y-115380400D03*
%TO.N,Net-(U9-COMP)*%
X72770000Y-88255400D03*
%TO.N,Net-(U10-VSNS)*%
X93041000Y-90639000D03*
%TO.N,Net-(U10-COMP)*%
X94946000Y-88480000D03*
%TO.N,Net-(U9-VSNS)*%
X72295000Y-89705400D03*
D16*
%TO.N,3.3V_SW_DELAYED*%
X113070981Y-87803014D03*
X111070981Y-87803014D03*
X125143462Y-82882528D03*
X85565481Y-88695014D03*
X77200000Y-109125000D03*
X59943462Y-123870028D03*
X62815481Y-89670014D03*
X85565481Y-89670014D03*
X115070981Y-87803014D03*
X62815481Y-88695014D03*
X84590481Y-88695014D03*
X110070981Y-87803014D03*
X124603462Y-80935028D03*
X59543462Y-121870028D03*
X62815481Y-86745014D03*
X84590481Y-87720014D03*
X84590481Y-89670014D03*
X108073661Y-87810622D03*
X63465481Y-86745014D03*
X62815481Y-85770014D03*
X62815481Y-87720014D03*
X79414310Y-110810690D03*
X85565481Y-87720014D03*
X111240481Y-86420014D03*
X114815481Y-86420014D03*
X111240481Y-85445014D03*
X113840481Y-86745014D03*
X85565481Y-85770014D03*
X63465481Y-85770014D03*
X80600000Y-110425000D03*
X114815481Y-85445014D03*
X109070981Y-87803014D03*
X109290481Y-87070014D03*
X114815481Y-84470014D03*
X78100000Y-109025000D03*
X108073661Y-86810622D03*
X112070981Y-87803014D03*
X84590481Y-86745014D03*
X85565481Y-86745014D03*
X112865481Y-86745014D03*
X63465481Y-88695014D03*
X114070981Y-87803014D03*
X63465481Y-87720014D03*
X84590481Y-85770014D03*
X63465481Y-89670014D03*
%TO.N,Net-(U5-REFCLK_SEL_0)*%
X65593462Y-121033228D03*
%TO.N,Net-(U5-REFCLK_SEL_1)*%
X65193462Y-121370028D03*
D14*
%TO.N,ENET_INT*%
X95370000Y-116030400D03*
D16*
%TO.N,ENET_NRST*%
X60943462Y-121770028D03*
D14*
%TO.N,DSI_D3_N*%
X87343223Y-122657177D03*
X86920000Y-109530400D03*
%TO.N,DSI_D1_N*%
X85743223Y-122607177D03*
X86920000Y-108880400D03*
%TO.N,DSI_D0_N*%
X84143223Y-122407177D03*
X86920000Y-108230400D03*
%TO.N,DSI_D2_N*%
X86920000Y-107580400D03*
X82743223Y-122607177D03*
%TO.N,DSI_D3_P*%
X87570000Y-109530400D03*
X87696777Y-122303623D03*
%TO.N,DSI_D1_P*%
X87570000Y-108880400D03*
X86096777Y-122253623D03*
%TO.N,DSI_D0_P*%
X87570000Y-108230400D03*
X84496777Y-122053623D03*
%TO.N,DSI_D2_P*%
X83096777Y-122253623D03*
X87570000Y-107580400D03*
%TO.N,DSI_CLK_N*%
X88843223Y-122607177D03*
X88220000Y-108880400D03*
%TO.N,DSI_CLK_P*%
X89196777Y-122253623D03*
X88870000Y-108880400D03*
%TO.N,USB2_DN*%
X78616777Y-125987177D03*
%TO.N,USB2_ID1*%
X80665481Y-128230400D03*
X88220000Y-113430400D03*
D16*
%TO.N,/IO/VDDMDIO*%
X60243462Y-118870028D03*
D14*
%TO.N,Net-(U1B-MTEST1_{slash}_MTEST1(ALERT_n)_{slash}_MTEST1)*%
X101870000Y-111480400D03*
%TO.N,DRAM_DQ31*%
X100570000Y-114080400D03*
X113511843Y-116680679D03*
%TO.N,/MPU/RTC_CLK*%
X114870000Y-97830400D03*
X98620000Y-104980400D03*
%TO.N,DRAM_CKB_P*%
X114239258Y-112810868D03*
%TO.N,DRAM_CKA_P*%
X113392835Y-108990434D03*
%TO.N,DRAM_CKB_N*%
X114992124Y-112012614D03*
%TO.N,DRAM_CKA_N*%
X114171165Y-108982028D03*
%TO.N,HDMI_AUX_P*%
X102665481Y-125780400D03*
%TO.N,HDMI_HDP*%
X98620000Y-117980400D03*
%TO.N,HDMI_CEC*%
X98620000Y-117330400D03*
%TO.N,HDMI_TX3_N*%
X95165481Y-125780400D03*
%TO.N,HDMI_TX2_N*%
X97165481Y-125780400D03*
%TO.N,HDMI_TX0_N*%
X100165481Y-125780400D03*
%TO.N,HDMI_TX1_N*%
X101165481Y-125730400D03*
%TO.N,HDMI_AUX_N*%
X103165481Y-125780400D03*
%TO.N,unconnected-(J1-eDP_TX3-{slash}LVDS_A_CK--PadA82)*%
X115165481Y-125020014D03*
%TO.N,unconnected-(J1-eDP_AUX+{slash}LVDS_I2C_CK-PadA83)*%
X115165481Y-125470014D03*
%TO.N,unconnected-(J1-GPI3-PadA85)*%
X113665481Y-127420014D03*
%TO.N,unconnected-(J1-RSVD-PadA86)*%
X113665481Y-127870014D03*
%TO.N,unconnected-(J1-PCIE_CLK_REF+-PadA88)*%
X118165481Y-125620014D03*
%TO.N,unconnected-(J1-PCIE_CLK_REF--PadA89)*%
X118165481Y-126070014D03*
%TO.N,unconnected-(J1-SPI_POWER-PadA91)*%
X117165481Y-126820014D03*
%TO.N,unconnected-(J1-SPI_MISO_(\u002A\u002A)-PadA92)*%
X117165481Y-127270014D03*
%TO.N,USB2_VBUS*%
X88870000Y-114080400D03*
X81165481Y-128255014D03*
%TO.N,Net-(U1L-MIPI_DSI_REXT)*%
X88220000Y-108230400D03*
%TO.N,unconnected-(J1-RSVD-PadB52)*%
X101165481Y-128255014D03*
%TO.N,unconnected-(J1-GPO1-PadB54)*%
X102165481Y-128255014D03*
%TO.N,unconnected-(J1-RSVD-PadB55)*%
X102665481Y-128255014D03*
%TO.N,unconnected-(J1-GPO2-PadB57)*%
X103665481Y-128255014D03*
%TO.N,unconnected-(J1-PCIE_RX3+-PadB58)*%
X104165481Y-128255014D03*
%TO.N,unconnected-(J1-GND(FIXED)-PadB60)*%
X105165481Y-128255014D03*
%TO.N,unconnected-(J1-PCIE_RX2+-PadB61)*%
X105665481Y-128255014D03*
%TO.N,unconnected-(J1-GPO3-PadB63)*%
X106665481Y-128255014D03*
%TO.N,unconnected-(J1-PCIE_RX1+-PadB64)*%
X107165481Y-128255014D03*
%TO.N,PCIE2_TXN*%
X91665481Y-128245332D03*
%TO.N,PCIE2_TXP*%
X92165481Y-128245332D03*
%TO.N,PCIE1_RXN*%
X91460000Y-102870900D03*
X98165481Y-128255014D03*
%TO.N,PCIE1_REF_CLKN*%
X99165481Y-128255014D03*
X92720000Y-102430400D03*
%TD*%
D17*
%TO.N,I2C1_SCL*%
X90170000Y-117655400D02*
X90170000Y-118630400D01*
X89845000Y-116885058D02*
X90170000Y-117210058D01*
X90170000Y-117330400D02*
X90170000Y-117655400D01*
X89845000Y-115380400D02*
X89845000Y-116680400D01*
X89845000Y-116680400D02*
X89845000Y-116885058D01*
X89520000Y-114730400D02*
X89845000Y-115055400D01*
X89845000Y-115055400D02*
X89845000Y-115380400D01*
X90170000Y-117210058D02*
X90170000Y-117330400D01*
%TO.N,I2C1_SDA*%
X90495000Y-115055400D02*
X90495000Y-115867900D01*
X89520000Y-114080400D02*
X90495000Y-115055400D01*
X90495000Y-115867900D02*
X90820000Y-116192900D01*
X90820000Y-116192900D02*
X90820000Y-118630400D01*
%TO.N,I2C2_SCL*%
X91145000Y-116355400D02*
X91145000Y-118630400D01*
X91145000Y-116030400D02*
X91145000Y-116355400D01*
X90820000Y-115380400D02*
X90820000Y-115705400D01*
X90820000Y-115705400D02*
X91145000Y-116030400D01*
%TO.N,I2C2_SDA*%
X90495000Y-116355400D02*
X90495000Y-118630400D01*
X90170000Y-115380400D02*
X90170000Y-116030400D01*
X90170000Y-116030400D02*
X90495000Y-116355400D01*
%TO.N,I2C3_SCL*%
X90820000Y-114730400D02*
X91145000Y-115055400D01*
X91470000Y-116030400D02*
X91470000Y-118630400D01*
X91145000Y-115705400D02*
X91470000Y-116030400D01*
X91145000Y-115380400D02*
X91145000Y-115705400D01*
X91145000Y-115055400D02*
X91145000Y-115380400D01*
%TO.N,I2C3_SDA*%
X90942194Y-114435400D02*
X91795000Y-115288206D01*
X91795000Y-115288206D02*
X91795000Y-118630400D01*
X90170000Y-114080400D02*
X90525000Y-114435400D01*
X90525000Y-114435400D02*
X90942194Y-114435400D01*
%TO.N,UART2_TXD*%
X88515000Y-115735400D02*
X88870000Y-115380400D01*
X86210481Y-125456147D02*
X86210481Y-123760400D01*
X85120481Y-118629919D02*
X88015000Y-115735400D01*
X85640000Y-127500400D02*
X85950000Y-127190400D01*
X85640000Y-128340400D02*
X85640000Y-127500400D01*
X85950000Y-127190400D02*
X85950000Y-125716628D01*
X86210481Y-123760400D02*
X85120481Y-122670400D01*
X85950000Y-125716628D02*
X86210481Y-125456147D01*
X85120481Y-122670400D02*
X85120481Y-118629919D01*
X88015000Y-115735400D02*
X88515000Y-115735400D01*
%TO.N,UART1_RXD*%
X84791777Y-122958623D02*
X84791777Y-118658623D01*
X83395000Y-124355400D02*
X84791777Y-122958623D01*
X82665481Y-128255014D02*
X82665481Y-125084919D01*
X84791777Y-118658623D02*
X88070000Y-115380400D01*
X88070000Y-115380400D02*
X88220000Y-115380400D01*
X82665481Y-125084919D02*
X83395000Y-124355400D01*
%TO.N,DRAM_DQ21*%
X109025400Y-123274200D02*
X110743000Y-123274200D01*
X108425400Y-123483932D02*
X108815668Y-123483932D01*
X99920000Y-122074200D02*
X101120000Y-123274200D01*
X99920000Y-119280400D02*
X99920000Y-122074200D01*
X101120000Y-123274200D02*
X108215668Y-123274200D01*
X112173000Y-121844200D02*
X112173000Y-115827000D01*
X112173000Y-115827000D02*
X111717800Y-115371800D01*
X110743000Y-123274200D02*
X112173000Y-121844200D01*
X108320534Y-123379066D02*
G75*
G03*
X108425400Y-123483966I104866J-34D01*
G01*
X108215668Y-123274200D02*
G75*
G02*
X108320600Y-123379066I32J-104900D01*
G01*
X108815668Y-123483932D02*
G75*
G03*
X108920532Y-123379066I32J104832D01*
G01*
X108920534Y-123379066D02*
G75*
G02*
X109025400Y-123274234I104866J-34D01*
G01*
%TO.N,DRAM_DQ19*%
X105580019Y-111889259D02*
X105509891Y-111838309D01*
X106857854Y-112047054D02*
X106632854Y-111822054D01*
X110715481Y-112795014D02*
X110465481Y-112545014D01*
X104908941Y-111316619D02*
X104882155Y-111399059D01*
X103450955Y-112685741D02*
X103449600Y-112642400D01*
X103598819Y-112889259D02*
X103528691Y-112838309D01*
X106102859Y-111862405D02*
X106082854Y-111897054D01*
X104078691Y-111996491D02*
X104027741Y-112066619D01*
X110409495Y-113801000D02*
X110715481Y-113495014D01*
X102820509Y-111838309D02*
X102750381Y-111889259D01*
X107202859Y-111823077D02*
X107202859Y-111992741D01*
X104731581Y-111889259D02*
X104649141Y-111916045D01*
X105402659Y-111316619D02*
X105351709Y-111246491D01*
X105458941Y-111768181D02*
X105432155Y-111685741D01*
X105430800Y-111442400D02*
X105429445Y-111399059D01*
X106632854Y-111787746D02*
X106598205Y-111767741D01*
X104027741Y-112066619D02*
X104000955Y-112149059D01*
X104959891Y-111246491D02*
X104908941Y-111316619D01*
X104880800Y-111442400D02*
X104880800Y-111642400D01*
X106158195Y-111767741D02*
X106123546Y-111787746D01*
X104852659Y-111768181D02*
X104801709Y-111838309D01*
X102225000Y-115175400D02*
X103080000Y-116030400D01*
X103449600Y-112642400D02*
X103449600Y-110942400D01*
X108358536Y-111917400D02*
X108303541Y-111972395D01*
X104879445Y-111685741D02*
X104852659Y-111768181D01*
X106632854Y-111822054D02*
X106632854Y-111787746D01*
X110139000Y-113801000D02*
X110409495Y-113801000D01*
X103477741Y-112768181D02*
X103450955Y-112685741D01*
X102667941Y-111916045D02*
X102624600Y-111917400D01*
X103999600Y-112192400D02*
X103999600Y-112642400D01*
X105430800Y-111642400D02*
X105430800Y-111442400D01*
X103998245Y-112685741D02*
X103971459Y-112768181D01*
X102225000Y-112113800D02*
X102225000Y-115175400D01*
X110465481Y-112545014D02*
X110265481Y-112545014D01*
X108303541Y-111972395D02*
X108302859Y-112012405D01*
X103080000Y-116030400D02*
X103495000Y-116030400D01*
X104605800Y-111917400D02*
X104274600Y-111917400D01*
X110133047Y-112677448D02*
X109633047Y-112677448D01*
X107353200Y-111842400D02*
X107278200Y-111767400D01*
X106048205Y-111917059D02*
X106028200Y-111917400D01*
X105112459Y-111168755D02*
X105030019Y-111195541D01*
X104649141Y-111916045D02*
X104605800Y-111917400D01*
X103850381Y-112889259D02*
X103767941Y-112916045D01*
X102624600Y-111917400D02*
X102421400Y-111917400D01*
X106578200Y-111767400D02*
X106178200Y-111767400D01*
X108525200Y-114705600D02*
X108769400Y-114461400D01*
X103681259Y-112916045D02*
X103598819Y-112889259D01*
X105432155Y-111685741D02*
X105430800Y-111642400D01*
X104801709Y-111838309D02*
X104731581Y-111889259D01*
X106028200Y-111917400D02*
X105705800Y-111917400D01*
X103421459Y-110816619D02*
X103370509Y-110746491D01*
X107202859Y-111992741D02*
X107148546Y-112047054D01*
X103767941Y-112916045D02*
X103724600Y-112917400D01*
X103174600Y-110667400D02*
X103131259Y-110668755D01*
X108769400Y-114461400D02*
X109478600Y-114461400D01*
X107258195Y-111767741D02*
X107202859Y-111823077D01*
X102899600Y-110942400D02*
X102899600Y-111642400D01*
X105199141Y-111168755D02*
X105155800Y-111167400D01*
X107753200Y-111842400D02*
X107353200Y-111842400D01*
X105281581Y-111195541D02*
X105199141Y-111168755D01*
X104882155Y-111399059D02*
X104880800Y-111442400D01*
X106178200Y-111767400D02*
X106158195Y-111767741D01*
X102900955Y-110899059D02*
X102899600Y-110942400D01*
X104880800Y-111642400D02*
X104879445Y-111685741D01*
X104000955Y-112149059D02*
X103999600Y-112192400D01*
X108302859Y-112012405D02*
X108282854Y-112047054D01*
X110265481Y-112545014D02*
X110133047Y-112677448D01*
X105155800Y-111167400D02*
X105112459Y-111168755D01*
X103131259Y-110668755D02*
X103048819Y-110695541D01*
X102978691Y-110746491D02*
X102927741Y-110816619D01*
X104148819Y-111945541D02*
X104078691Y-111996491D01*
X106598205Y-111767741D02*
X106578200Y-111767400D01*
X106082854Y-111897054D02*
X106048205Y-111917059D01*
X104274600Y-111917400D02*
X104231259Y-111918755D01*
X102898245Y-111685741D02*
X102871459Y-111768181D01*
X107148546Y-112047054D02*
X106857854Y-112047054D01*
X106123546Y-111787746D02*
X106103541Y-111822395D01*
X108282854Y-112047054D02*
X107957854Y-112047054D01*
X103217941Y-110668755D02*
X103174600Y-110667400D01*
X103370509Y-110746491D02*
X103300381Y-110695541D01*
X104231259Y-111918755D02*
X104148819Y-111945541D01*
X105429445Y-111399059D02*
X105402659Y-111316619D01*
X105351709Y-111246491D02*
X105281581Y-111195541D01*
X103448245Y-110899059D02*
X103421459Y-110816619D01*
X102899600Y-111642400D02*
X102898245Y-111685741D01*
X103048819Y-110695541D02*
X102978691Y-110746491D01*
X102871459Y-111768181D02*
X102820509Y-111838309D01*
X103300381Y-110695541D02*
X103217941Y-110668755D01*
X103971459Y-112768181D02*
X103920509Y-112838309D01*
X110715481Y-113495014D02*
X110715481Y-112795014D01*
X102927741Y-110816619D02*
X102900955Y-110899059D01*
X106103541Y-111822395D02*
X106102859Y-111862405D01*
X109478600Y-114461400D02*
X110139000Y-113801000D01*
X105509891Y-111838309D02*
X105458941Y-111768181D01*
X105662459Y-111916045D02*
X105580019Y-111889259D01*
X103920509Y-112838309D02*
X103850381Y-112889259D01*
X108873000Y-111917400D02*
X108358536Y-111917400D01*
X103724600Y-112917400D02*
X103681259Y-112916045D01*
X109633047Y-112677448D02*
X108873000Y-111917400D01*
X103528691Y-112838309D02*
X103477741Y-112768181D01*
X103449600Y-110942400D02*
X103448245Y-110899059D01*
X103999600Y-112642400D02*
X103998245Y-112685741D01*
X107957854Y-112047054D02*
X107753200Y-111842400D01*
X107278200Y-111767400D02*
X107258195Y-111767741D01*
X105030019Y-111195541D02*
X104959891Y-111246491D01*
X102421400Y-111917400D02*
X102225000Y-112113800D01*
X102750381Y-111889259D02*
X102667941Y-111916045D01*
X105705800Y-111917400D02*
X105662459Y-111916045D01*
%TO.N,DRAM_DQ4*%
X109465481Y-99453075D02*
X111371875Y-99453075D01*
X112643000Y-105007042D02*
X110958000Y-106692042D01*
X110958000Y-106692042D02*
X110958000Y-106926400D01*
X112643000Y-100724200D02*
X112643000Y-105007042D01*
X111371875Y-99453075D02*
X112643000Y-100724200D01*
X100215000Y-100602200D02*
X101208257Y-99608944D01*
X99920000Y-103680400D02*
X100215000Y-103385400D01*
X101208257Y-99608944D02*
X109309612Y-99608944D01*
X109309612Y-99608944D02*
X109465481Y-99453075D01*
X100215000Y-103385400D02*
X100215000Y-100602200D01*
%TO.N,DRAM_DQ6*%
X109893000Y-100084551D02*
X110082650Y-100084551D01*
X111243000Y-99874200D02*
X112343000Y-100974200D01*
X110082650Y-100084551D02*
X110110746Y-100084218D01*
X110793000Y-105124200D02*
X110958000Y-105289200D01*
X110188661Y-99951420D02*
X110216624Y-99903005D01*
X109816248Y-100056135D02*
X109864906Y-100084232D01*
X110187825Y-99979376D02*
X110188661Y-99951420D01*
X110110746Y-100084218D02*
X110159415Y-100056134D01*
X110593000Y-105124200D02*
X110793000Y-105124200D01*
X109682650Y-99874200D02*
X109710737Y-99874580D01*
X110765894Y-106474200D02*
X110643000Y-106474200D01*
X110543000Y-105174200D02*
X110593000Y-105124200D01*
X100570000Y-103030400D02*
X100570000Y-100647200D01*
X110265045Y-99875054D02*
X110293000Y-99874200D01*
X112343000Y-104897094D02*
X110765894Y-106474200D01*
X109788161Y-100007470D02*
X109816248Y-100056135D01*
X110643000Y-106474200D02*
X110543000Y-106374200D01*
X109864906Y-100084232D02*
X109893000Y-100084551D01*
X110958000Y-105289200D02*
X110958000Y-105656400D01*
X110187511Y-100007472D02*
X110187825Y-99979376D01*
X109787500Y-99951288D02*
X109787825Y-99979375D01*
X110543000Y-106374200D02*
X110543000Y-105174200D01*
X109787825Y-99979375D02*
X109788161Y-100007470D01*
X109710737Y-99874580D02*
X109759397Y-99902648D01*
X109759397Y-99902648D02*
X109787500Y-99951288D01*
X110216624Y-99903005D02*
X110265045Y-99875054D01*
X100570000Y-100647200D02*
X101349992Y-99867208D01*
X110159415Y-100056134D02*
X110187511Y-100007472D01*
X112343000Y-100974200D02*
X112343000Y-104897094D01*
X101349992Y-99867208D02*
X109675658Y-99867208D01*
X110293000Y-99874200D02*
X111243000Y-99874200D01*
X109675658Y-99867208D02*
X109682650Y-99874200D01*
%TO.N,DRAM_DQ22*%
X110634263Y-115792321D02*
X110634263Y-115422600D01*
X109974924Y-122431492D02*
X109884998Y-122402273D01*
X100570000Y-121699200D02*
X100570000Y-119280400D01*
X107857000Y-122433000D02*
X107298200Y-121874200D01*
X101100600Y-122229800D02*
X100570000Y-121699200D01*
X107298200Y-121874200D02*
X105977400Y-121874200D01*
X109374889Y-121578518D02*
X109284898Y-121607761D01*
X109559524Y-121607718D02*
X109469519Y-121578470D01*
X109752927Y-122270202D02*
X109723708Y-122180276D01*
X111565400Y-121417000D02*
X110549400Y-122433000D01*
X109122200Y-122133000D02*
X109120692Y-122180276D01*
X111032000Y-116540200D02*
X111032000Y-116190058D01*
X108959402Y-122402273D02*
X108869476Y-122431492D01*
X109284898Y-121607761D02*
X109208350Y-121663384D01*
X109722200Y-122133000D02*
X109722200Y-121877248D01*
X105621800Y-122229800D02*
X101100600Y-122229800D01*
X111362200Y-115829000D02*
X111362200Y-117149800D01*
X109722200Y-121877248D02*
X109720938Y-121829929D01*
X108869476Y-122431492D02*
X108822200Y-122433000D01*
X111032000Y-116190058D02*
X110634263Y-115792321D01*
X109120692Y-122180276D02*
X109091473Y-122270202D01*
X108822200Y-122433000D02*
X107857000Y-122433000D01*
X109208350Y-121663384D02*
X109152739Y-121739941D01*
X109884998Y-122402273D02*
X109808503Y-122346697D01*
X109091473Y-122270202D02*
X109035897Y-122346697D01*
X111362200Y-117149800D02*
X111565400Y-117353000D01*
X110634263Y-115422600D02*
X110955800Y-115422600D01*
X105977400Y-121874200D02*
X105621800Y-122229800D01*
X109720938Y-121829929D02*
X109691704Y-121739919D01*
X109723708Y-122180276D02*
X109722200Y-122133000D01*
X109691704Y-121739919D02*
X109636085Y-121663349D01*
X109122200Y-121877248D02*
X109122200Y-122133000D01*
X109422200Y-121577248D02*
X109374889Y-121578518D01*
X110022200Y-122433000D02*
X109974924Y-122431492D01*
X110549400Y-122433000D02*
X110022200Y-122433000D01*
X111565400Y-117353000D02*
X111565400Y-121417000D01*
X109469519Y-121578470D02*
X109422200Y-121577248D01*
X109636085Y-121663349D02*
X109559524Y-121607718D01*
X109808503Y-122346697D02*
X109752927Y-122270202D01*
X110955800Y-115422600D02*
X111362200Y-115829000D01*
X109152739Y-121739941D02*
X109123510Y-121829936D01*
X109123510Y-121829936D02*
X109122200Y-121877248D01*
X109035897Y-122346697D02*
X108959402Y-122402273D01*
%TO.N,DRAM_DQ23*%
X105723400Y-121518600D02*
X105367800Y-121874200D01*
X101303800Y-121874200D02*
X100897400Y-121467800D01*
X104458200Y-121574200D02*
X104458200Y-121174200D01*
X102658200Y-121174200D02*
X102658200Y-121574200D01*
X111260600Y-121026200D02*
X111260600Y-121112200D01*
X110985600Y-119101200D02*
X110535600Y-119101200D01*
X103858200Y-121174200D02*
X103858200Y-121574200D01*
X101708200Y-121874200D02*
X101303800Y-121874200D01*
X110397000Y-121721800D02*
X109889000Y-121213800D01*
X110535600Y-120751200D02*
X110985600Y-120751200D01*
X100897400Y-119603000D02*
X101220000Y-119280400D01*
X110963600Y-117429200D02*
X110963600Y-117665600D01*
X110535600Y-119651200D02*
X110985600Y-119651200D01*
X111260600Y-121112200D02*
X110651000Y-121721800D01*
X109177800Y-121213800D02*
X108517400Y-121874200D01*
X111260600Y-117962600D02*
X111260600Y-118826200D01*
X100897400Y-121467800D02*
X100897400Y-119603000D01*
X105367800Y-121874200D02*
X104758200Y-121874200D01*
X103258200Y-121574200D02*
X103258200Y-121174200D01*
X107552200Y-121518600D02*
X105723400Y-121518600D01*
X102358200Y-121874200D02*
X101708200Y-121874200D01*
X109889000Y-121213800D02*
X109177800Y-121213800D01*
X110651000Y-121721800D02*
X110397000Y-121721800D01*
X110985600Y-120201200D02*
X110535600Y-120201200D01*
X107907800Y-121874200D02*
X107552200Y-121518600D01*
X108517400Y-121874200D02*
X107907800Y-121874200D01*
X110963600Y-117665600D02*
X111260600Y-117962600D01*
X111260600Y-119926200D02*
G75*
G02*
X110985600Y-120201200I-275000J0D01*
G01*
X110260600Y-119376200D02*
G75*
G03*
X110535600Y-119651200I275000J0D01*
G01*
X102958200Y-120874200D02*
G75*
G03*
X102658200Y-121174200I0J-300000D01*
G01*
X110985600Y-120751200D02*
G75*
G02*
X111260600Y-121026200I0J-275000D01*
G01*
X103258200Y-121174200D02*
G75*
G03*
X102958200Y-120874200I-300000J0D01*
G01*
X103858200Y-121574200D02*
G75*
G02*
X103558200Y-121874200I-300000J0D01*
G01*
X104158200Y-120874200D02*
G75*
G03*
X103858200Y-121174200I0J-300000D01*
G01*
X104458200Y-121174200D02*
G75*
G03*
X104158200Y-120874200I-300000J0D01*
G01*
X110985600Y-119651200D02*
G75*
G02*
X111260600Y-119926200I0J-275000D01*
G01*
X110535600Y-120201200D02*
G75*
G03*
X110260600Y-120476200I0J-275000D01*
G01*
X104758200Y-121874200D02*
G75*
G02*
X104458200Y-121574200I0J300000D01*
G01*
X111260600Y-118826200D02*
G75*
G02*
X110985600Y-119101200I-275000J0D01*
G01*
X110535600Y-119101200D02*
G75*
G03*
X110260600Y-119376200I0J-275000D01*
G01*
X102658200Y-121574200D02*
G75*
G02*
X102358200Y-121874200I-300000J0D01*
G01*
X110260600Y-120476200D02*
G75*
G03*
X110535600Y-120751200I275000J0D01*
G01*
X103558200Y-121874200D02*
G75*
G02*
X103258200Y-121574200I0J300000D01*
G01*
%TO.N,DRAM_DQ7*%
X108443000Y-100124200D02*
X107993000Y-100124200D01*
X110293000Y-100374200D02*
X108693000Y-100374200D01*
X111993000Y-103774200D02*
X111993000Y-103474200D01*
X110958000Y-104386400D02*
X110958000Y-104789200D01*
X111493000Y-104824200D02*
X111493000Y-104274200D01*
X111838875Y-102520075D02*
X111838874Y-102520075D01*
X111993000Y-101174200D02*
X111043000Y-100224200D01*
X111993000Y-101874200D02*
X111993000Y-101174200D01*
X111143000Y-104974200D02*
X111343000Y-104974200D01*
X111684749Y-102365950D02*
X111684749Y-102274200D01*
X101460157Y-100689883D02*
X101460158Y-100689884D01*
X111343000Y-104974200D02*
X111493000Y-104824200D01*
X110443000Y-100224200D02*
X110293000Y-100374200D01*
X102393000Y-100124200D02*
X101943000Y-100124200D01*
X111838874Y-102120075D02*
X111838875Y-102120075D01*
X111838926Y-103320126D02*
X111838925Y-103320126D01*
X111684851Y-103166052D02*
X111684851Y-103074200D01*
X111493000Y-104274200D02*
X111993000Y-103774200D01*
X101043000Y-102524200D02*
X101043000Y-102853400D01*
X101177316Y-100689884D02*
X101177315Y-100689885D01*
X110958000Y-104789200D02*
X111143000Y-104974200D01*
X101043000Y-102853400D02*
X101220000Y-103030400D01*
X108693000Y-100374200D02*
X108443000Y-100124200D01*
X101043000Y-102074200D02*
X101043000Y-102524200D01*
X101743001Y-100407043D02*
X101743000Y-100407042D01*
X111993000Y-101965950D02*
X111993000Y-101874200D01*
X101943000Y-100124200D02*
X101743000Y-100124200D01*
X111838925Y-102920126D02*
X111838926Y-102920126D01*
X111043000Y-100224200D02*
X110443000Y-100224200D01*
X101043000Y-100824200D02*
X101043000Y-101274200D01*
X101177315Y-100689885D02*
X101043000Y-100824200D01*
X111993000Y-102766052D02*
X111993000Y-102674200D01*
X106793000Y-100524200D02*
G75*
G02*
X106593000Y-100324200I0J200000D01*
G01*
X105393000Y-100324200D02*
G75*
G02*
X105193000Y-100524200I-200000J0D01*
G01*
X111684851Y-103074200D02*
G75*
G02*
X111838925Y-102920151I154049J0D01*
G01*
X111838874Y-102520075D02*
G75*
G02*
X111684825Y-102365950I26J154075D01*
G01*
X106393000Y-100124200D02*
G75*
G03*
X106193000Y-100324200I0J-200000D01*
G01*
X103193000Y-100124200D02*
G75*
G03*
X102993000Y-100324200I0J-200000D01*
G01*
X103593000Y-100524200D02*
G75*
G02*
X103393000Y-100324200I0J200000D01*
G01*
X107393000Y-100324200D02*
G75*
G03*
X107193000Y-100124200I-200000J0D01*
G01*
X101043000Y-101274200D02*
G75*
G03*
X101243000Y-101474200I200000J0D01*
G01*
X111838925Y-103320126D02*
G75*
G02*
X111684874Y-103166052I-25J154026D01*
G01*
X111684749Y-102274200D02*
G75*
G02*
X111838874Y-102120049I154151J0D01*
G01*
X105593000Y-100124200D02*
G75*
G03*
X105393000Y-100324200I0J-200000D01*
G01*
X107793000Y-100324200D02*
G75*
G02*
X107593000Y-100524200I-200000J0D01*
G01*
X104993000Y-100324200D02*
G75*
G03*
X104793000Y-100124200I-200000J0D01*
G01*
X111838926Y-102920126D02*
G75*
G03*
X111992926Y-102766052I-26J154026D01*
G01*
X102993000Y-100324200D02*
G75*
G02*
X102793000Y-100524200I-200000J0D01*
G01*
X101742999Y-100407043D02*
G75*
G02*
X101743036Y-100689920I-141399J-141457D01*
G01*
X106993000Y-100324200D02*
G75*
G02*
X106793000Y-100524200I-200000J0D01*
G01*
X101460158Y-100689884D02*
G75*
G03*
X101177316Y-100689884I-141421J-141426D01*
G01*
X101743000Y-100689884D02*
G75*
G02*
X101460178Y-100689862I-141400J141384D01*
G01*
X111993000Y-103474200D02*
G75*
G03*
X111838926Y-103320100I-154100J0D01*
G01*
X104593000Y-100324200D02*
G75*
G02*
X104393000Y-100524200I-200000J0D01*
G01*
X107593000Y-100524200D02*
G75*
G02*
X107393000Y-100324200I0J200000D01*
G01*
X101443000Y-101674200D02*
G75*
G02*
X101243000Y-101874200I-200000J0D01*
G01*
X105793000Y-100324200D02*
G75*
G03*
X105593000Y-100124200I-200000J0D01*
G01*
X101243000Y-101874200D02*
G75*
G03*
X101043000Y-102074200I0J-200000D01*
G01*
X104193000Y-100324200D02*
G75*
G03*
X103993000Y-100124200I-200000J0D01*
G01*
X103793000Y-100324200D02*
G75*
G02*
X103593000Y-100524200I-200000J0D01*
G01*
X101243000Y-101474200D02*
G75*
G02*
X101443000Y-101674200I0J-200000D01*
G01*
X107993000Y-100124200D02*
G75*
G03*
X107793000Y-100324200I0J-200000D01*
G01*
X105993000Y-100524200D02*
G75*
G02*
X105793000Y-100324200I0J200000D01*
G01*
X103993000Y-100124200D02*
G75*
G03*
X103793000Y-100324200I0J-200000D01*
G01*
X101743001Y-100124201D02*
G75*
G03*
X101743023Y-100407021I141399J-141399D01*
G01*
X111838875Y-102120075D02*
G75*
G03*
X111992975Y-101965950I25J154075D01*
G01*
X106193000Y-100324200D02*
G75*
G02*
X105993000Y-100524200I-200000J0D01*
G01*
X106593000Y-100324200D02*
G75*
G03*
X106393000Y-100124200I-200000J0D01*
G01*
X107193000Y-100124200D02*
G75*
G03*
X106993000Y-100324200I0J-200000D01*
G01*
X104793000Y-100124200D02*
G75*
G03*
X104593000Y-100324200I0J-200000D01*
G01*
X102793000Y-100524200D02*
G75*
G02*
X102593000Y-100324200I0J200000D01*
G01*
X105193000Y-100524200D02*
G75*
G02*
X104993000Y-100324200I0J200000D01*
G01*
X104393000Y-100524200D02*
G75*
G02*
X104193000Y-100324200I0J200000D01*
G01*
X103393000Y-100324200D02*
G75*
G03*
X103193000Y-100124200I-200000J0D01*
G01*
X111993000Y-102674200D02*
G75*
G03*
X111838875Y-102520100I-154100J0D01*
G01*
X102593000Y-100324200D02*
G75*
G03*
X102393000Y-100124200I-200000J0D01*
G01*
%TO.N,DRAM_DQS2_N*%
X106559400Y-119910600D02*
X106559400Y-120485600D01*
X101939823Y-119791400D02*
X101761000Y-119791400D01*
X101128000Y-120552422D02*
X101404422Y-120276000D01*
X102054070Y-120032752D02*
X102054070Y-119905647D01*
X102343200Y-121265578D02*
X102015978Y-121592800D01*
X110193800Y-115217523D02*
X110318800Y-115342523D01*
X103223600Y-120334378D02*
X102930378Y-120627600D01*
X101404422Y-120276000D02*
X101810822Y-120276000D01*
X103673600Y-120101800D02*
X103673600Y-119276800D01*
X110572800Y-117557178D02*
X110268000Y-117861978D01*
X109963200Y-120452778D02*
X109635978Y-120780000D01*
X102054070Y-119905647D02*
X101939823Y-119791400D01*
X110572800Y-116386822D02*
X110572800Y-117557178D01*
X102343200Y-120909978D02*
X102343200Y-121265578D01*
X102015978Y-121592800D02*
X101607622Y-121592800D01*
X109077178Y-120780000D02*
X108721578Y-121135600D01*
X101810822Y-120276000D02*
X102054070Y-120032752D01*
X105214422Y-121135600D02*
X104655622Y-120576800D01*
X110318800Y-116132822D02*
X110572800Y-116386822D01*
X107359400Y-120485600D02*
X107359400Y-119910600D01*
X110193800Y-114762200D02*
X110193800Y-115217523D01*
X109963200Y-119081178D02*
X109963200Y-120452778D01*
X109635978Y-120780000D02*
X109077178Y-120780000D01*
X108721578Y-121135600D02*
X108009400Y-121135600D01*
X110318800Y-115342523D02*
X110318800Y-116132822D01*
X102625578Y-120627600D02*
X102343200Y-120909978D01*
X103223600Y-119276800D02*
X103223600Y-120334378D01*
X102930378Y-120627600D02*
X102625578Y-120627600D01*
X110268000Y-118776378D02*
X109963200Y-119081178D01*
X105909400Y-121135600D02*
X105214422Y-121135600D01*
X104655622Y-120576800D02*
X104148600Y-120576800D01*
X110268000Y-117861978D02*
X110268000Y-118776378D01*
X101607622Y-121592800D02*
X101128000Y-121113178D01*
X101128000Y-121113178D02*
X101128000Y-120552422D01*
X108009400Y-121135600D02*
G75*
G02*
X107359400Y-120485600I0J650000D01*
G01*
X103673600Y-119276800D02*
G75*
G03*
X103448600Y-119051800I-225000J0D01*
G01*
X104148600Y-120576800D02*
G75*
G02*
X103673600Y-120101800I0J475000D01*
G01*
X107359400Y-119910600D02*
G75*
G03*
X106959400Y-119510600I-400000J0D01*
G01*
X103448600Y-119051800D02*
G75*
G03*
X103223600Y-119276800I0J-225000D01*
G01*
X106959400Y-119510600D02*
G75*
G03*
X106559400Y-119910600I0J-400000D01*
G01*
X106559400Y-120485600D02*
G75*
G02*
X105909400Y-121135600I-650000J0D01*
G01*
%TO.N,DRAM_DQS2_P*%
X103923600Y-120101800D02*
X103923600Y-119276800D01*
X101912422Y-121342800D02*
X101711178Y-121342800D01*
X102826822Y-120377600D02*
X102522022Y-120377600D01*
X109532422Y-120530000D02*
X108973622Y-120530000D01*
X110322800Y-117453622D02*
X110018000Y-117758422D01*
X102522022Y-120377600D02*
X102093200Y-120806422D01*
X105909400Y-120885600D02*
X105317978Y-120885600D01*
X101507978Y-120526000D02*
X101914378Y-120526000D01*
X102973600Y-120230822D02*
X102826822Y-120377600D01*
X109417100Y-115394300D02*
X110017023Y-115394300D01*
X105317978Y-120885600D02*
X104759178Y-120326800D01*
X102304070Y-120136308D02*
X102304070Y-119802093D01*
X101711178Y-121342800D02*
X101378000Y-121009622D01*
X101914378Y-120526000D02*
X102304070Y-120136308D01*
X102093200Y-121162022D02*
X101912422Y-121342800D01*
X110017023Y-115394300D02*
X110068800Y-115446077D01*
X101378000Y-121009622D02*
X101378000Y-120655978D01*
X102116600Y-119614623D02*
X102116600Y-119537400D01*
X110018000Y-117758422D02*
X110018000Y-118672822D01*
X101378000Y-120655978D02*
X101507978Y-120526000D01*
X108973622Y-120530000D02*
X108618022Y-120885600D01*
X109713200Y-120349222D02*
X109532422Y-120530000D01*
X110322800Y-116490378D02*
X110322800Y-117453622D01*
X107609400Y-120485600D02*
X107609400Y-119910600D01*
X109713200Y-118977622D02*
X109713200Y-120349222D01*
X110068800Y-115446077D02*
X110068800Y-116236378D01*
X110018000Y-118672822D02*
X109713200Y-118977622D01*
X106309400Y-119910600D02*
X106309400Y-120485600D01*
X108618022Y-120885600D02*
X108009400Y-120885600D01*
X102304070Y-119802093D02*
X102116600Y-119614623D01*
X102093200Y-120806422D02*
X102093200Y-121162022D01*
X104759178Y-120326800D02*
X104148600Y-120326800D01*
X110068800Y-116236378D02*
X110322800Y-116490378D01*
X102973600Y-119276800D02*
X102973600Y-120230822D01*
X108009400Y-120885600D02*
G75*
G02*
X107609400Y-120485600I0J400000D01*
G01*
X106959400Y-119260600D02*
G75*
G03*
X106309400Y-119910600I0J-650000D01*
G01*
X107609400Y-119910600D02*
G75*
G03*
X106959400Y-119260600I-650000J0D01*
G01*
X103448600Y-118801800D02*
G75*
G03*
X102973600Y-119276800I0J-475000D01*
G01*
X104148600Y-120326800D02*
G75*
G02*
X103923600Y-120101800I0J225000D01*
G01*
X106309400Y-120485600D02*
G75*
G02*
X105909400Y-120885600I-400000J0D01*
G01*
X103923600Y-119276800D02*
G75*
G03*
X103448600Y-118801800I-475000J0D01*
G01*
%TO.N,DRAM_DQS0_P*%
X109434000Y-106291400D02*
X109690000Y-106035400D01*
X103194777Y-101049200D02*
X102398564Y-101845413D01*
X109690000Y-106035400D02*
X109690000Y-105250422D01*
X102398564Y-101845413D02*
X102398564Y-101979764D01*
X110868000Y-101525978D02*
X110391222Y-101049200D01*
X107968000Y-101324200D02*
X107968000Y-101768340D01*
X103443000Y-101049200D02*
X103194777Y-101049200D01*
X110391222Y-101049200D02*
X109843000Y-101049200D01*
X108518000Y-101768340D02*
X108518000Y-101324200D01*
X104768000Y-101324200D02*
X104768000Y-101768315D01*
X103718000Y-101768315D02*
X103718000Y-101324200D01*
X106918000Y-101768340D02*
X106918000Y-101324200D01*
X109568000Y-101324200D02*
X109568000Y-101768340D01*
X109690000Y-105250422D02*
X110268000Y-104672422D01*
X110268000Y-104672422D02*
X110268000Y-104222422D01*
X106368000Y-101324200D02*
X106368000Y-101768340D01*
X110868000Y-103622422D02*
X110868000Y-101525978D01*
X110268000Y-104222422D02*
X110868000Y-103622422D01*
X105318000Y-101768340D02*
X105318000Y-101324200D01*
X106643000Y-101049200D02*
G75*
G03*
X106368000Y-101324200I0J-275000D01*
G01*
X108518000Y-101324200D02*
G75*
G03*
X108243000Y-101049200I-275000J0D01*
G01*
X106918000Y-101324200D02*
G75*
G03*
X106643000Y-101049200I-275000J0D01*
G01*
X107968000Y-101768340D02*
G75*
G02*
X107443000Y-102293300I-525000J40D01*
G01*
X105843000Y-102293340D02*
G75*
G02*
X105317960Y-101768340I0J525040D01*
G01*
X105318000Y-101324200D02*
G75*
G03*
X105043000Y-101049200I-275000J0D01*
G01*
X105043000Y-101049200D02*
G75*
G03*
X104768000Y-101324200I0J-275000D01*
G01*
X103718000Y-101324200D02*
G75*
G03*
X103443000Y-101049200I-275000J0D01*
G01*
X104768000Y-101768315D02*
G75*
G02*
X104243000Y-102293300I-525000J15D01*
G01*
X109043000Y-102293340D02*
G75*
G02*
X108517960Y-101768340I0J525040D01*
G01*
X106368000Y-101768340D02*
G75*
G02*
X105843000Y-102293300I-525000J40D01*
G01*
X109843000Y-101049200D02*
G75*
G03*
X109568000Y-101324200I0J-275000D01*
G01*
X107443000Y-102293340D02*
G75*
G02*
X106917960Y-101768340I0J525040D01*
G01*
X104243000Y-102293315D02*
G75*
G02*
X103717985Y-101768315I0J525015D01*
G01*
X108243000Y-101049200D02*
G75*
G03*
X107968000Y-101324200I0J-275000D01*
G01*
X109568000Y-101768340D02*
G75*
G02*
X109043000Y-102293300I-525000J40D01*
G01*
%TO.N,DRAM_DQS0_N*%
X110518000Y-104775978D02*
X110518000Y-104325978D01*
X110494778Y-100799200D02*
X109843000Y-100799200D01*
X109940000Y-106035400D02*
X109940000Y-105353978D01*
X111118000Y-103725978D02*
X111118000Y-101422422D01*
X108768000Y-101768340D02*
X108768000Y-101324200D01*
X103968000Y-101768315D02*
X103968000Y-101324200D01*
X111118000Y-101422422D02*
X110494778Y-100799200D01*
X105568000Y-101768340D02*
X105568000Y-101324200D01*
X106118000Y-101324200D02*
X106118000Y-101768340D01*
X103443000Y-100799200D02*
X103091223Y-100799200D01*
X102221787Y-101668636D02*
X102087436Y-101668636D01*
X109318000Y-101324200D02*
X109318000Y-101768340D01*
X107168000Y-101768340D02*
X107168000Y-101324200D01*
X110518000Y-104325978D02*
X111118000Y-103725978D01*
X104518000Y-101324200D02*
X104518000Y-101768315D01*
X103091223Y-100799200D02*
X102221787Y-101668636D01*
X109940000Y-105353978D02*
X110518000Y-104775978D01*
X110196000Y-106291400D02*
X109940000Y-106035400D01*
X107718000Y-101324200D02*
X107718000Y-101768340D01*
X107718000Y-101768340D02*
G75*
G02*
X107443000Y-102043300I-275000J40D01*
G01*
X107168000Y-101324200D02*
G75*
G03*
X106643000Y-100799200I-525000J0D01*
G01*
X106643000Y-100799200D02*
G75*
G03*
X106118000Y-101324200I0J-525000D01*
G01*
X109318000Y-101768340D02*
G75*
G02*
X109043000Y-102043300I-275000J40D01*
G01*
X106118000Y-101768340D02*
G75*
G02*
X105843000Y-102043300I-275000J40D01*
G01*
X103968000Y-101324200D02*
G75*
G03*
X103443000Y-100799200I-525000J0D01*
G01*
X108243000Y-100799200D02*
G75*
G03*
X107718000Y-101324200I0J-525000D01*
G01*
X109043000Y-102043340D02*
G75*
G02*
X108767960Y-101768340I0J275040D01*
G01*
X105843000Y-102043340D02*
G75*
G02*
X105567960Y-101768340I0J275040D01*
G01*
X105043000Y-100799200D02*
G75*
G03*
X104518000Y-101324200I0J-525000D01*
G01*
X104518000Y-101768315D02*
G75*
G02*
X104243000Y-102043300I-275000J15D01*
G01*
X109843000Y-100799200D02*
G75*
G03*
X109318000Y-101324200I0J-525000D01*
G01*
X107443000Y-102043340D02*
G75*
G02*
X107167960Y-101768340I0J275040D01*
G01*
X108768000Y-101324200D02*
G75*
G03*
X108243000Y-100799200I-525000J0D01*
G01*
X104243000Y-102043315D02*
G75*
G02*
X103967985Y-101768315I0J275015D01*
G01*
X105568000Y-101324200D02*
G75*
G03*
X105043000Y-100799200I-525000J0D01*
G01*
%TO.N,DRAM_DQ16*%
X107966000Y-114109000D02*
X107653800Y-114109000D01*
X107900600Y-115226600D02*
X107600600Y-115226600D01*
X105621800Y-116771800D02*
X105621800Y-116946600D01*
X107450600Y-116387800D02*
X107450600Y-115676600D01*
X103031000Y-116591000D02*
X103031000Y-116794200D01*
X107450600Y-115076600D02*
X107450600Y-115016200D01*
X106166000Y-113888800D02*
X106166000Y-114051000D01*
X105591000Y-114426000D02*
X106041000Y-114426000D01*
X106616000Y-114638800D02*
X106616000Y-114559000D01*
X106041000Y-114176000D02*
X105591000Y-114176000D01*
X105446800Y-116246800D02*
X105096800Y-116246800D01*
X104758200Y-117200600D02*
X104047000Y-116489400D01*
X106166000Y-115488000D02*
X106079000Y-115575000D01*
X103820000Y-117330400D02*
X103820000Y-117126000D01*
X107453800Y-113909000D02*
X107453800Y-113309000D01*
X108410000Y-117347200D02*
X107450600Y-116387800D01*
X105825000Y-115575000D02*
X105774200Y-115524200D01*
X107053800Y-113309000D02*
X107053800Y-113909000D01*
X105621800Y-116946600D02*
X105367800Y-117200600D01*
X107600600Y-115526600D02*
X107900600Y-115526600D01*
X103183400Y-116946600D02*
X103640600Y-116946600D01*
X107450600Y-115016200D02*
X107298200Y-114863800D01*
X105317000Y-114813000D02*
X105021800Y-115108200D01*
X106079000Y-115575000D02*
X105825000Y-115575000D01*
X105096800Y-116596800D02*
X105446800Y-116596800D01*
X108626800Y-117347200D02*
X108410000Y-117347200D01*
X105774200Y-115524200D02*
X105774200Y-115016200D01*
X104047000Y-116489400D02*
X103132600Y-116489400D01*
X105021800Y-115108200D02*
X105021800Y-115721800D01*
X103820000Y-117126000D02*
X103640600Y-116946600D01*
X105196800Y-115896800D02*
X105446800Y-115896800D01*
X107298200Y-114863800D02*
X106841000Y-114863800D01*
X103132600Y-116489400D02*
X103031000Y-116591000D01*
X106616000Y-113959000D02*
X106616000Y-113888800D01*
X105367800Y-117200600D02*
X104758200Y-117200600D01*
X106166000Y-114551000D02*
X106166000Y-115488000D01*
X103183400Y-116946600D02*
X103031000Y-116794200D01*
X106853800Y-114109000D02*
X106766000Y-114109000D01*
X105571000Y-114813000D02*
X105317000Y-114813000D01*
X105774200Y-115016200D02*
X105571000Y-114813000D01*
X106766000Y-114409000D02*
X107966000Y-114409000D01*
X106841000Y-114863800D02*
G75*
G02*
X106616000Y-114638800I0J225000D01*
G01*
X106166000Y-114051000D02*
G75*
G02*
X106041000Y-114176000I-125000J0D01*
G01*
X105446800Y-116596800D02*
G75*
G02*
X105621800Y-116771800I0J-175000D01*
G01*
X105621800Y-116071800D02*
G75*
G02*
X105446800Y-116246800I-175000J0D01*
G01*
X105446800Y-115896800D02*
G75*
G02*
X105621800Y-116071800I0J-175000D01*
G01*
X107453800Y-113309000D02*
G75*
G03*
X107253800Y-113109000I-200000J0D01*
G01*
X106041000Y-114426000D02*
G75*
G02*
X106166000Y-114551000I0J-125000D01*
G01*
X107450600Y-115676600D02*
G75*
G02*
X107600600Y-115526600I150000J0D01*
G01*
X107253800Y-113109000D02*
G75*
G03*
X107053800Y-113309000I0J-200000D01*
G01*
X108116000Y-114259000D02*
G75*
G03*
X107966000Y-114109000I-150000J0D01*
G01*
X106616000Y-113888800D02*
G75*
G03*
X106391000Y-113663800I-225000J0D01*
G01*
X105096800Y-116246800D02*
G75*
G03*
X104921800Y-116421800I0J-175000D01*
G01*
X105591000Y-114176000D02*
G75*
G03*
X105466000Y-114301000I0J-125000D01*
G01*
X107600600Y-115226600D02*
G75*
G02*
X107450600Y-115076600I0J150000D01*
G01*
X105021800Y-115721800D02*
G75*
G03*
X105196800Y-115896800I175000J0D01*
G01*
X105466000Y-114301000D02*
G75*
G03*
X105591000Y-114426000I125000J0D01*
G01*
X107653800Y-114109000D02*
G75*
G02*
X107453800Y-113909000I0J200000D01*
G01*
X106616000Y-114559000D02*
G75*
G02*
X106766000Y-114409000I150000J0D01*
G01*
X106391000Y-113663800D02*
G75*
G03*
X106166000Y-113888800I0J-225000D01*
G01*
X107053800Y-113909000D02*
G75*
G02*
X106853800Y-114109000I-200000J0D01*
G01*
X108050600Y-115376600D02*
G75*
G03*
X107900600Y-115226600I-150000J0D01*
G01*
X106766000Y-114109000D02*
G75*
G02*
X106616000Y-113959000I0J150000D01*
G01*
X107900600Y-115526600D02*
G75*
G03*
X108050600Y-115376600I0J150000D01*
G01*
X107966000Y-114409000D02*
G75*
G03*
X108116000Y-114259000I0J150000D01*
G01*
X104921800Y-116421800D02*
G75*
G03*
X105096800Y-116596800I175000J0D01*
G01*
%TO.N,DRAM_DM2*%
X107201400Y-117427800D02*
X107201400Y-117556200D01*
X107551088Y-118977488D02*
X107958600Y-119385000D01*
X106231400Y-118927800D02*
X106301400Y-118927800D01*
X108111000Y-120401000D02*
X108466600Y-120401000D01*
X105926600Y-119232600D02*
X106231400Y-118927800D01*
X109177800Y-116032200D02*
X109177800Y-116337000D01*
X109990600Y-117251400D02*
X109990600Y-116540200D01*
X109431800Y-118724600D02*
X109736600Y-118419800D01*
X108771400Y-120096200D02*
X109228600Y-120096200D01*
X104402600Y-119791400D02*
X104555000Y-119943800D01*
X109990600Y-116540200D02*
X109736600Y-116286200D01*
X101710200Y-118369000D02*
X102065800Y-118724600D01*
X103843800Y-118267400D02*
X104402600Y-118826200D01*
X101710200Y-117505400D02*
X101710200Y-118369000D01*
X104961400Y-119943800D02*
X105266200Y-120248600D01*
X109228600Y-120096200D02*
X109431800Y-119893000D01*
X105266200Y-120248600D02*
X105723400Y-120248600D01*
X107501400Y-118927800D02*
X107551088Y-118977488D01*
X103081800Y-118267400D02*
X103843800Y-118267400D01*
X109736600Y-115981400D02*
X109584200Y-115829000D01*
X102065800Y-118724600D02*
X102624600Y-118724600D01*
X109439600Y-116598800D02*
X109439600Y-116788400D01*
X104555000Y-119943800D02*
X104961400Y-119943800D01*
X106601400Y-118627800D02*
X106601400Y-117657800D01*
X105723400Y-120248600D02*
X105926600Y-120045400D01*
X109736600Y-118419800D02*
X109736600Y-117505400D01*
X107426400Y-117933600D02*
X107808165Y-117933600D01*
X107201400Y-118608600D02*
X107201400Y-118627800D01*
X109381000Y-115829000D02*
X109177800Y-116032200D01*
X107958600Y-119385000D02*
X107958600Y-120248600D01*
X109736600Y-116286200D02*
X109736600Y-115981400D01*
X109584200Y-115829000D02*
X109381000Y-115829000D01*
X107958600Y-120248600D02*
X108111000Y-120401000D01*
X105926600Y-120045400D02*
X105926600Y-119232600D01*
X108466600Y-120401000D02*
X108771400Y-120096200D01*
X102520000Y-117330400D02*
X101885200Y-117330400D01*
X109431800Y-119893000D02*
X109431800Y-118724600D01*
X101885200Y-117330400D02*
X101710200Y-117505400D01*
X109736600Y-117505400D02*
X109990600Y-117251400D01*
X107201400Y-117556200D02*
X107201400Y-117708600D01*
X106601400Y-117657800D02*
X106601400Y-117427800D01*
X102624600Y-118724600D02*
X103081800Y-118267400D01*
X107808165Y-118383600D02*
X107426400Y-118383600D01*
X109177800Y-116337000D02*
X109439600Y-116598800D01*
X104402600Y-118826200D02*
X104402600Y-119791400D01*
X107808165Y-117933600D02*
G75*
G02*
X108033200Y-118158600I35J-225000D01*
G01*
X107201400Y-118627800D02*
G75*
G03*
X107501400Y-118927800I300000J0D01*
G01*
X106301400Y-118927800D02*
G75*
G03*
X106601400Y-118627800I0J300000D01*
G01*
X107201400Y-117708600D02*
G75*
G03*
X107426400Y-117933600I225000J0D01*
G01*
X106601400Y-117427800D02*
G75*
G02*
X106901400Y-117127800I300000J0D01*
G01*
X106901400Y-117127800D02*
G75*
G02*
X107201400Y-117427800I0J-300000D01*
G01*
X107426400Y-118383600D02*
G75*
G03*
X107201400Y-118608600I0J-225000D01*
G01*
X108033165Y-118158600D02*
G75*
G02*
X107808165Y-118383565I-224965J0D01*
G01*
%TO.N,DRAM_DQ18*%
X106696600Y-112781000D02*
X106637800Y-112781000D01*
X104124400Y-114121200D02*
X104624400Y-114121200D01*
X104301000Y-115735400D02*
X104500000Y-115735400D01*
X108415800Y-113136600D02*
X108415800Y-112882600D01*
X104402600Y-113746200D02*
X104199400Y-113746200D01*
X105887800Y-112931000D02*
X105887800Y-113181000D01*
X106187800Y-113181000D02*
X106187800Y-112931000D01*
X104613337Y-113535463D02*
X104613336Y-113535464D01*
X104176000Y-115960400D02*
X104176000Y-115860400D01*
X108466600Y-115219400D02*
X108230200Y-114983000D01*
X107649800Y-112531000D02*
X107399800Y-112781000D01*
X105367800Y-112781000D02*
X105037600Y-113111200D01*
X102875000Y-114105400D02*
X102875000Y-115317400D01*
X102875000Y-115317400D02*
X103293000Y-115735400D01*
X104500000Y-115735400D02*
X104795000Y-116030400D01*
X104613336Y-113535464D02*
X104402600Y-113746200D01*
X109388800Y-114756400D02*
X109388800Y-114805200D01*
X107399800Y-112781000D02*
X107196600Y-112781000D01*
X108230200Y-114983000D02*
X108230200Y-114583406D01*
X103299400Y-113746200D02*
X103234200Y-113746200D01*
X105093097Y-113803094D02*
X105093098Y-113803095D01*
X108230200Y-114583406D02*
X108415800Y-114397806D01*
X105037600Y-113323332D02*
X105305230Y-113590963D01*
X104624400Y-114421200D02*
X104124400Y-114421200D01*
X108974600Y-115219400D02*
X108466600Y-115219400D01*
X109388800Y-114805200D02*
X108974600Y-115219400D01*
X106821600Y-112456000D02*
X106821600Y-112656000D01*
X103293000Y-115735400D02*
X103801000Y-115735400D01*
X108064200Y-112531000D02*
X107649800Y-112531000D01*
X105093098Y-113803095D02*
X104825469Y-113535463D01*
X103524400Y-114821200D02*
X103524400Y-113971200D01*
X108615800Y-113736600D02*
X108865800Y-113736600D01*
X103926000Y-115860400D02*
X103926000Y-115960400D01*
X106487800Y-112931000D02*
X106487800Y-113181000D01*
X107071600Y-112656000D02*
X107071600Y-112456000D01*
X105587800Y-113181000D02*
X105587800Y-112931000D01*
X105037601Y-113323333D02*
X105037600Y-113323332D01*
X103974400Y-114571200D02*
X103974400Y-114821200D01*
X108415800Y-112882600D02*
X108064200Y-112531000D01*
X108415800Y-114397806D02*
X108415800Y-113936600D01*
X108865800Y-113336600D02*
X108615800Y-113336600D01*
X103234200Y-113746200D02*
X102875000Y-114105400D01*
X105437800Y-112781000D02*
X105367800Y-112781000D01*
X108415800Y-113936600D02*
G75*
G02*
X108615800Y-113736600I200000J0D01*
G01*
X105305230Y-113590963D02*
G75*
G02*
X105305201Y-113803066I-106030J-106037D01*
G01*
X105587800Y-112931000D02*
G75*
G03*
X105437800Y-112781000I-150000J0D01*
G01*
X104051000Y-116085400D02*
G75*
G03*
X104176000Y-115960400I0J125000D01*
G01*
X109065800Y-113536600D02*
G75*
G03*
X108865800Y-113336600I-200000J0D01*
G01*
X103974400Y-113971200D02*
G75*
G03*
X104124400Y-114121200I150000J0D01*
G01*
X104825468Y-113535464D02*
G75*
G03*
X104613338Y-113535464I-106065J-106065D01*
G01*
X103749400Y-115046200D02*
G75*
G02*
X103524400Y-114821200I0J225000D01*
G01*
X104624400Y-114121200D02*
G75*
G02*
X104774400Y-114271200I0J-150000D01*
G01*
X103524400Y-113971200D02*
G75*
G03*
X103299400Y-113746200I-225000J0D01*
G01*
X106487800Y-113181000D02*
G75*
G02*
X106337800Y-113331000I-150000J0D01*
G01*
X104199400Y-113746200D02*
G75*
G03*
X103974400Y-113971200I0J-225000D01*
G01*
X104176000Y-115860400D02*
G75*
G02*
X104301000Y-115735400I125000J0D01*
G01*
X105887800Y-113181000D02*
G75*
G02*
X105737800Y-113331000I-150000J0D01*
G01*
X106037800Y-112781000D02*
G75*
G03*
X105887800Y-112931000I0J-150000D01*
G01*
X106337800Y-113331000D02*
G75*
G02*
X106187800Y-113181000I0J150000D01*
G01*
X103801000Y-115735400D02*
G75*
G02*
X103926000Y-115860400I0J-125000D01*
G01*
X105737800Y-113331000D02*
G75*
G02*
X105587800Y-113181000I0J150000D01*
G01*
X108615800Y-113336600D02*
G75*
G02*
X108415800Y-113136600I0J200000D01*
G01*
X105305230Y-113803095D02*
G75*
G02*
X105093133Y-113803058I-106030J106095D01*
G01*
X105037600Y-113111200D02*
G75*
G03*
X105037567Y-113323367I106100J-106100D01*
G01*
X103926000Y-115960400D02*
G75*
G03*
X104051000Y-116085400I125000J0D01*
G01*
X104124400Y-114421200D02*
G75*
G03*
X103974400Y-114571200I0J-150000D01*
G01*
X108865800Y-113736600D02*
G75*
G03*
X109065800Y-113536600I0J200000D01*
G01*
X106637800Y-112781000D02*
G75*
G03*
X106487800Y-112931000I0J-150000D01*
G01*
X106187800Y-112931000D02*
G75*
G03*
X106037800Y-112781000I-150000J0D01*
G01*
X106946600Y-112331000D02*
G75*
G03*
X106821600Y-112456000I0J-125000D01*
G01*
X107196600Y-112781000D02*
G75*
G02*
X107071600Y-112656000I0J125000D01*
G01*
X104774400Y-114271200D02*
G75*
G02*
X104624400Y-114421200I-150000J0D01*
G01*
X106821600Y-112656000D02*
G75*
G02*
X106696600Y-112781000I-125000J0D01*
G01*
X107071600Y-112456000D02*
G75*
G03*
X106946600Y-112331000I-125000J0D01*
G01*
X103974400Y-114821200D02*
G75*
G02*
X103749400Y-115046200I-225000J0D01*
G01*
%TO.N,DRAM_DQ3*%
X108064042Y-108610925D02*
X108064042Y-108610926D01*
X103152317Y-108933513D02*
X102875000Y-108656200D01*
X105343000Y-110599200D02*
X104898843Y-110599200D01*
X107898843Y-110249200D02*
X108998843Y-110249200D01*
X107143000Y-110799200D02*
X107143000Y-111049200D01*
X107843000Y-110599200D02*
X107393000Y-110599200D01*
X108078000Y-109516206D02*
X108078000Y-109715594D01*
X108523660Y-108787702D02*
X108346885Y-108610926D01*
X108993000Y-108601206D02*
X108806503Y-108787703D01*
X108745200Y-106926400D02*
X108993000Y-107174200D01*
X106743000Y-110799200D02*
X106743000Y-110149200D01*
X108078000Y-109715594D02*
X107898843Y-109894751D01*
X102193000Y-105957400D02*
X102520000Y-105630400D01*
X108043000Y-111049200D02*
X108043000Y-110799200D01*
X106343000Y-110599200D02*
X106343000Y-111049200D01*
X103965488Y-108686027D02*
X103965488Y-108686026D01*
X104343000Y-109888400D02*
X104107200Y-109888400D01*
X102193000Y-107020594D02*
X102193000Y-105957400D01*
X105943000Y-111049200D02*
X105943000Y-110599200D01*
X102582194Y-107225400D02*
X102397806Y-107225400D01*
X104898843Y-110599200D02*
X104573843Y-110274200D01*
X104113551Y-109894751D02*
X103768000Y-109549200D01*
X102397806Y-107225400D02*
X102193000Y-107020594D01*
X104573843Y-110274200D02*
X104573843Y-110069751D01*
X105943000Y-110599200D02*
X105943000Y-110149200D01*
X106343000Y-110149200D02*
X106343000Y-110599200D01*
X108064043Y-108893769D02*
X108240819Y-109070544D01*
X106743000Y-111049200D02*
X106743000Y-110799200D01*
X102875000Y-108656200D02*
X102875000Y-107518206D01*
X108993000Y-107174200D02*
X108993000Y-108601206D01*
X103682646Y-108686026D02*
X103435159Y-108933513D01*
X102875000Y-107518206D02*
X102582194Y-107225400D01*
X108443000Y-110799200D02*
X108443000Y-111049200D01*
X107723843Y-110069751D02*
X107723843Y-110074200D01*
X108998843Y-110599200D02*
X108643000Y-110599200D01*
X104398843Y-109894751D02*
X104113551Y-109894751D01*
X108240820Y-109353387D02*
X108078000Y-109516206D01*
X107393000Y-110599200D02*
X107343000Y-110599200D01*
X103768000Y-109166357D02*
X103965488Y-108968869D01*
X103768000Y-109549200D02*
X103768000Y-109166357D01*
X108672000Y-106926400D02*
X108745200Y-106926400D01*
X105543000Y-110149200D02*
X105543000Y-110399200D01*
X106143000Y-111249200D02*
G75*
G02*
X105943000Y-111049200I0J200000D01*
G01*
X103435158Y-108933512D02*
G75*
G02*
X103152318Y-108933512I-141420J141422D01*
G01*
X108346884Y-108610927D02*
G75*
G03*
X108064080Y-108610963I-141384J-141373D01*
G01*
X106943000Y-111249200D02*
G75*
G02*
X106743000Y-111049200I0J200000D01*
G01*
X105543000Y-110399200D02*
G75*
G02*
X105343000Y-110599200I-200000J0D01*
G01*
X103965487Y-108686027D02*
G75*
G03*
X103682647Y-108686027I-141420J-141422D01*
G01*
X106743000Y-110149200D02*
G75*
G03*
X106543000Y-109949200I-200000J0D01*
G01*
X104573843Y-110069751D02*
G75*
G03*
X104398843Y-109894657I-175043J51D01*
G01*
X105943000Y-110149200D02*
G75*
G03*
X105743000Y-109949200I-200000J0D01*
G01*
X107723843Y-110074200D02*
G75*
G03*
X107898843Y-110249157I174957J0D01*
G01*
X107143000Y-111049200D02*
G75*
G02*
X106943000Y-111249200I-200000J0D01*
G01*
X108240818Y-109070545D02*
G75*
G02*
X108240853Y-109353420I-141418J-141455D01*
G01*
X105743000Y-109949200D02*
G75*
G03*
X105543000Y-110149200I0J-200000D01*
G01*
X108998843Y-110249200D02*
G75*
G02*
X109173800Y-110424200I-43J-175000D01*
G01*
X108243000Y-111249200D02*
G75*
G02*
X108043000Y-111049200I0J200000D01*
G01*
X108643000Y-110599200D02*
G75*
G03*
X108443000Y-110799200I0J-200000D01*
G01*
X107898843Y-109894751D02*
G75*
G03*
X107723851Y-110069751I-43J-174949D01*
G01*
X106543000Y-109949200D02*
G75*
G03*
X106343000Y-110149200I0J-200000D01*
G01*
X103965488Y-108968869D02*
G75*
G03*
X103965536Y-108685979I-141388J141469D01*
G01*
X108806503Y-108787703D02*
G75*
G02*
X108523678Y-108787684I-141403J141403D01*
G01*
X108443000Y-111049200D02*
G75*
G02*
X108243000Y-111249200I-200000J0D01*
G01*
X107343000Y-110599200D02*
G75*
G03*
X107143000Y-110799200I0J-200000D01*
G01*
X109173843Y-110424200D02*
G75*
G02*
X108998843Y-110599243I-175043J0D01*
G01*
X108043000Y-110799200D02*
G75*
G03*
X107843000Y-110599200I-200000J0D01*
G01*
X108064042Y-108610926D02*
G75*
G03*
X108064090Y-108893722I141458J-141374D01*
G01*
X106343000Y-111049200D02*
G75*
G02*
X106143000Y-111249200I-200000J0D01*
G01*
%TO.N,DRAM_DM0*%
X110093000Y-103874200D02*
X110093000Y-103374200D01*
X103126200Y-105024200D02*
X103170000Y-104980400D01*
X109434000Y-105021400D02*
X109445800Y-105021400D01*
X108218000Y-102938782D02*
X108218000Y-102849200D01*
X102498027Y-102569173D02*
X102498026Y-102569174D01*
X109445800Y-105021400D02*
X109843000Y-104624200D01*
X102003053Y-103064147D02*
X102003052Y-103064148D01*
X106818000Y-102938782D02*
X106818000Y-102849200D01*
X102498027Y-102816661D02*
X102498025Y-102816662D01*
X102808835Y-102632496D02*
X102808836Y-102632496D01*
X101793000Y-104774200D02*
X101793000Y-104874200D01*
X107868000Y-102849200D02*
X107868000Y-102938782D01*
X102003052Y-103064148D02*
X101793000Y-103274200D01*
X110143000Y-101474200D02*
X109993000Y-101624200D01*
X101943000Y-105024200D02*
X103126200Y-105024200D01*
X105068000Y-102849200D02*
X105068000Y-102938782D01*
X101793000Y-104374200D02*
X101793000Y-104774200D01*
X105418000Y-102938782D02*
X105418000Y-102849200D01*
X101968000Y-103849200D02*
X102057624Y-103849200D01*
X107518000Y-102938782D02*
X107518000Y-102849200D01*
X103056322Y-102632496D02*
X103056322Y-102632497D01*
X107168000Y-102849200D02*
X107168000Y-102938782D01*
X103443000Y-102474200D02*
X103443000Y-102224200D01*
X109993000Y-101624200D02*
X109993000Y-102174200D01*
X106468000Y-102849200D02*
X106468000Y-102938782D01*
X103443000Y-102224200D02*
X103293000Y-102074200D01*
X110543000Y-102924200D02*
X110543000Y-101724200D01*
X110543000Y-101724200D02*
X110293000Y-101474200D01*
X102313884Y-103127492D02*
X102313883Y-103127494D01*
X110293000Y-101474200D02*
X110143000Y-101474200D01*
X101793000Y-104874200D02*
X101943000Y-105024200D01*
X109493000Y-102674200D02*
X108743000Y-102674200D01*
X102498026Y-102569175D02*
X102498027Y-102569173D01*
X109843000Y-104124200D02*
X110093000Y-103874200D01*
X104018000Y-102938803D02*
X104018000Y-102849200D01*
X103843000Y-102674200D02*
X103643000Y-102674200D01*
X103643000Y-102674200D02*
X103443000Y-102474200D01*
X105768000Y-102849200D02*
X105768000Y-102938782D01*
X102992999Y-102321688D02*
X103056323Y-102385009D01*
X104368000Y-102849200D02*
X104368000Y-102938803D01*
X102561372Y-103127492D02*
X102561371Y-103127493D01*
X104718000Y-102938782D02*
X104718000Y-102849200D01*
X109843000Y-104624200D02*
X109843000Y-104124200D01*
X106118000Y-102938782D02*
X106118000Y-102849200D01*
X110093000Y-103374200D02*
X110543000Y-102924200D01*
X101793000Y-103274200D02*
X101793000Y-103674200D01*
X102057624Y-104199200D02*
X101968000Y-104199200D01*
X102993001Y-102321687D02*
X102992999Y-102321688D01*
X102498025Y-102816662D02*
X102561371Y-102880005D01*
X102808836Y-102632496D02*
X102745513Y-102569174D01*
X102313883Y-103127494D02*
X102250540Y-103064148D01*
X109993000Y-102174200D02*
X109493000Y-102674200D01*
X103293000Y-102074200D02*
X102993000Y-102074200D01*
X108568000Y-102849200D02*
X108568000Y-102938782D01*
X105418000Y-102849200D02*
G75*
G03*
X105243000Y-102674200I-175000J0D01*
G01*
X102993000Y-102074200D02*
G75*
G03*
X102993044Y-102321644I123700J-123700D01*
G01*
X105243000Y-102674200D02*
G75*
G03*
X105068000Y-102849200I0J-175000D01*
G01*
X105068000Y-102938782D02*
G75*
G02*
X104893000Y-103113800I-175000J-18D01*
G01*
X107868000Y-102938782D02*
G75*
G02*
X107693000Y-103113800I-175000J-18D01*
G01*
X104018000Y-102849200D02*
G75*
G03*
X103843000Y-102674200I-175000J0D01*
G01*
X107168000Y-102938782D02*
G75*
G02*
X106993000Y-103113800I-175000J-18D01*
G01*
X102250540Y-103064148D02*
G75*
G03*
X102003057Y-103064151I-123740J-123752D01*
G01*
X108743000Y-102674200D02*
G75*
G03*
X108568000Y-102849200I0J-175000D01*
G01*
X102561370Y-102880006D02*
G75*
G02*
X102561322Y-103127442I-123770J-123694D01*
G01*
X104193000Y-103113803D02*
G75*
G02*
X104017997Y-102938803I0J175003D01*
G01*
X105768000Y-102938782D02*
G75*
G02*
X105593000Y-103113800I-175000J-18D01*
G01*
X104543000Y-102674200D02*
G75*
G03*
X104368000Y-102849200I0J-175000D01*
G01*
X102745512Y-102569175D02*
G75*
G03*
X102498057Y-102569206I-123712J-123725D01*
G01*
X106468000Y-102938782D02*
G75*
G02*
X106293000Y-103113800I-175000J-18D01*
G01*
X104368000Y-102938803D02*
G75*
G02*
X104193000Y-103113800I-175000J3D01*
G01*
X108043000Y-102674200D02*
G75*
G03*
X107868000Y-102849200I0J-175000D01*
G01*
X106643000Y-102674200D02*
G75*
G03*
X106468000Y-102849200I0J-175000D01*
G01*
X106118000Y-102849200D02*
G75*
G03*
X105943000Y-102674200I-175000J0D01*
G01*
X102561371Y-103127493D02*
G75*
G02*
X102313856Y-103127520I-123771J123793D01*
G01*
X108393000Y-103113782D02*
G75*
G02*
X108218018Y-102938782I0J174982D01*
G01*
X101793000Y-103674200D02*
G75*
G03*
X101968000Y-103849200I175000J0D01*
G01*
X105943000Y-102674200D02*
G75*
G03*
X105768000Y-102849200I0J-175000D01*
G01*
X107693000Y-103113782D02*
G75*
G02*
X107518018Y-102938782I0J174982D01*
G01*
X106818000Y-102849200D02*
G75*
G03*
X106643000Y-102674200I-175000J0D01*
G01*
X108568000Y-102938782D02*
G75*
G02*
X108393000Y-103113800I-175000J-18D01*
G01*
X104893000Y-103113782D02*
G75*
G02*
X104718018Y-102938782I0J174982D01*
G01*
X106993000Y-103113782D02*
G75*
G02*
X106818018Y-102938782I0J174982D01*
G01*
X108218000Y-102849200D02*
G75*
G03*
X108043000Y-102674200I-175000J0D01*
G01*
X103056322Y-102385010D02*
G75*
G02*
X103056369Y-102632543I-123722J-123790D01*
G01*
X107518000Y-102849200D02*
G75*
G03*
X107343000Y-102674200I-175000J0D01*
G01*
X102498027Y-102569175D02*
G75*
G03*
X102498045Y-102816643I123773J-123725D01*
G01*
X107343000Y-102674200D02*
G75*
G03*
X107168000Y-102849200I0J-175000D01*
G01*
X102057624Y-103849200D02*
G75*
G02*
X102232600Y-104024200I-24J-175000D01*
G01*
X103056322Y-102632497D02*
G75*
G02*
X102808856Y-102632475I-123722J123697D01*
G01*
X106293000Y-103113782D02*
G75*
G02*
X106118018Y-102938782I0J174982D01*
G01*
X101968000Y-104199200D02*
G75*
G03*
X101793000Y-104374200I0J-175000D01*
G01*
X105593000Y-103113782D02*
G75*
G02*
X105418018Y-102938782I0J174982D01*
G01*
X102232624Y-104024200D02*
G75*
G02*
X102057624Y-104199224I-175024J0D01*
G01*
X104718000Y-102849200D02*
G75*
G03*
X104543000Y-102674200I-175000J0D01*
G01*
%TO.N,DRAM_DQ1*%
X103928400Y-105088800D02*
X103170000Y-104330400D01*
X103193000Y-106274200D02*
X104643000Y-106274200D01*
X108043000Y-106474200D02*
X107943000Y-106474200D01*
X107793000Y-106624200D02*
X107793000Y-106916901D01*
X107243000Y-106074200D02*
X108043000Y-106074200D01*
X105843000Y-107035400D02*
X105843000Y-105535400D01*
X108351000Y-105335400D02*
X107243000Y-105335400D01*
X104393000Y-106674200D02*
X103193000Y-106674200D01*
X104446400Y-105088800D02*
X103928400Y-105088800D01*
X105043000Y-107035400D02*
X105043000Y-106874200D01*
X107493000Y-106916901D02*
X107493000Y-106624200D01*
X104843000Y-106674200D02*
X104393000Y-106674200D01*
X104843000Y-105335400D02*
X104693000Y-105335400D01*
X108672000Y-105656400D02*
X108351000Y-105335400D01*
X105043000Y-106074200D02*
X105043000Y-105924200D01*
X107343000Y-106474200D02*
X107243000Y-106474200D01*
X105043000Y-105924200D02*
X105043000Y-105535400D01*
X106243000Y-105535400D02*
X106243000Y-107035400D01*
X107043000Y-106674200D02*
X107043000Y-107035400D01*
X106643000Y-107035400D02*
X106643000Y-105535400D01*
X105443000Y-105535400D02*
X105443000Y-107035400D01*
X104643000Y-106274200D02*
X104843000Y-106274200D01*
X107043000Y-105535400D02*
X107043000Y-105874200D01*
X104693000Y-105335400D02*
X104446400Y-105088800D01*
X105043000Y-105535400D02*
G75*
G03*
X104843000Y-105335400I-200000J0D01*
G01*
X107043000Y-105874200D02*
G75*
G03*
X107243000Y-106074200I200000J0D01*
G01*
X105843000Y-105535400D02*
G75*
G03*
X105643000Y-105335400I-200000J0D01*
G01*
X107793000Y-106916901D02*
G75*
G02*
X107643000Y-107066900I-150000J1D01*
G01*
X105243000Y-107235400D02*
G75*
G02*
X105043000Y-107035400I0J200000D01*
G01*
X105643000Y-105335400D02*
G75*
G03*
X105443000Y-105535400I0J-200000D01*
G01*
X106643000Y-105535400D02*
G75*
G03*
X106443000Y-105335400I-200000J0D01*
G01*
X107643000Y-107066901D02*
G75*
G02*
X107492999Y-106916901I0J150001D01*
G01*
X107243000Y-105335400D02*
G75*
G03*
X107043000Y-105535400I0J-200000D01*
G01*
X106443000Y-105335400D02*
G75*
G03*
X106243000Y-105535400I0J-200000D01*
G01*
X107043000Y-107035400D02*
G75*
G02*
X106843000Y-107235400I-200000J0D01*
G01*
X106043000Y-107235400D02*
G75*
G02*
X105843000Y-107035400I0J200000D01*
G01*
X102993000Y-106474200D02*
G75*
G02*
X103193000Y-106274200I200000J0D01*
G01*
X105043000Y-106874200D02*
G75*
G03*
X104843000Y-106674200I-200000J0D01*
G01*
X106243000Y-107035400D02*
G75*
G02*
X106043000Y-107235400I-200000J0D01*
G01*
X107493000Y-106624200D02*
G75*
G03*
X107343000Y-106474200I-150000J0D01*
G01*
X107943000Y-106474200D02*
G75*
G03*
X107793000Y-106624200I0J-150000D01*
G01*
X106843000Y-107235400D02*
G75*
G02*
X106643000Y-107035400I0J200000D01*
G01*
X105443000Y-107035400D02*
G75*
G02*
X105243000Y-107235400I-200000J0D01*
G01*
X103193000Y-106674200D02*
G75*
G02*
X102993000Y-106474200I0J200000D01*
G01*
X104843000Y-106274200D02*
G75*
G03*
X105043000Y-106074200I0J200000D01*
G01*
X108043000Y-106074200D02*
G75*
G02*
X108243000Y-106274200I0J-200000D01*
G01*
X107243000Y-106474200D02*
G75*
G03*
X107043000Y-106674200I0J-200000D01*
G01*
X108243000Y-106274200D02*
G75*
G02*
X108043000Y-106474200I-200000J0D01*
G01*
%TO.N,DRAM_DQ17*%
X107552200Y-116997400D02*
X107399800Y-116845000D01*
X108009400Y-117505400D02*
X107704600Y-117505400D01*
X109025400Y-117759400D02*
X109177800Y-117911800D01*
X106180600Y-117048200D02*
X106180600Y-117302200D01*
X108923800Y-119588200D02*
X108415800Y-119588200D01*
X108365000Y-117861000D02*
X108009400Y-117505400D01*
X104859800Y-118775400D02*
X104064800Y-117980400D01*
X106572400Y-115928200D02*
X106115571Y-115928200D01*
X106722400Y-116378200D02*
X106722400Y-116403145D01*
X105012200Y-119486600D02*
X104859800Y-119334200D01*
X104859800Y-119334200D02*
X104859800Y-118775400D01*
X108365000Y-118521400D02*
X108365000Y-117861000D01*
X107552200Y-117353000D02*
X107552200Y-116997400D01*
X106180600Y-118470600D02*
X105621800Y-119029400D01*
X107072400Y-116670000D02*
X107072400Y-115570000D01*
X105469400Y-119486600D02*
X105012200Y-119486600D01*
X105621800Y-119334200D02*
X105469400Y-119486600D01*
X108576000Y-116686800D02*
X108359200Y-116686800D01*
X109177800Y-119334200D02*
X108923800Y-119588200D01*
X108359200Y-116686800D02*
X108212600Y-116540200D01*
X108212600Y-116540200D02*
X108212600Y-116083000D01*
X106547400Y-116845000D02*
X106383800Y-116845000D01*
X109025400Y-116540200D02*
X109025400Y-117759400D01*
X109177800Y-118863727D02*
X109177800Y-119334200D01*
X106383800Y-116845000D02*
X106180600Y-117048200D01*
X108263400Y-119435800D02*
X108263400Y-118623000D01*
X106722400Y-115570000D02*
X106722400Y-115778200D01*
X108822200Y-116337000D02*
X109025400Y-116540200D01*
X107704600Y-117505400D02*
X107552200Y-117353000D01*
X108415800Y-119588200D02*
X108263400Y-119435800D01*
X104064800Y-117980400D02*
X102520000Y-117980400D01*
X108415800Y-115879800D02*
X108669800Y-115879800D01*
X108669800Y-115879800D02*
X108822200Y-116032200D01*
X106722400Y-116403145D02*
X106722400Y-116670000D01*
X106115571Y-116228200D02*
X106572400Y-116228200D01*
X108822200Y-116032200D02*
X108822200Y-116337000D01*
X106180600Y-118402200D02*
X106180600Y-118470600D01*
X107399800Y-116845000D02*
X107247400Y-116845000D01*
X108212600Y-116083000D02*
X108415800Y-115879800D01*
X105621800Y-119029400D02*
X105621800Y-119334200D01*
X105905600Y-117577200D02*
X105205600Y-117577200D01*
X109027800Y-118366600D02*
X108927800Y-118366600D01*
X109177800Y-117911800D02*
X109177800Y-118216600D01*
X109177800Y-118816600D02*
X109177800Y-118863727D01*
X105205600Y-118127200D02*
X105905600Y-118127200D01*
X108263400Y-118623000D02*
X108365000Y-118521400D01*
X108927800Y-118666600D02*
X109027800Y-118666600D01*
X104930600Y-117852200D02*
G75*
G03*
X105205600Y-118127200I275000J0D01*
G01*
X106722400Y-115778200D02*
G75*
G02*
X106572400Y-115928200I-150000J0D01*
G01*
X106897400Y-115395000D02*
G75*
G03*
X106722400Y-115570000I0J-175000D01*
G01*
X106115571Y-115928200D02*
G75*
G03*
X105965600Y-116078200I29J-150000D01*
G01*
X105205600Y-117577200D02*
G75*
G03*
X104930600Y-117852200I0J-275000D01*
G01*
X105965571Y-116078200D02*
G75*
G03*
X106115571Y-116228229I150029J0D01*
G01*
X106572400Y-116228200D02*
G75*
G02*
X106722400Y-116378200I0J-150000D01*
G01*
X109027800Y-118666600D02*
G75*
G02*
X109177800Y-118816600I0J-150000D01*
G01*
X107072400Y-115570000D02*
G75*
G03*
X106897400Y-115395000I-175000J0D01*
G01*
X106180600Y-117302200D02*
G75*
G02*
X105905600Y-117577200I-275000J0D01*
G01*
X108777800Y-118516600D02*
G75*
G03*
X108927800Y-118666600I150000J0D01*
G01*
X105905600Y-118127200D02*
G75*
G02*
X106180600Y-118402200I0J-275000D01*
G01*
X106722400Y-116670000D02*
G75*
G02*
X106547400Y-116845000I-175000J0D01*
G01*
X108927800Y-118366600D02*
G75*
G03*
X108777800Y-118516600I0J-150000D01*
G01*
X107247400Y-116845000D02*
G75*
G02*
X107072400Y-116670000I0J175000D01*
G01*
X109177800Y-118216600D02*
G75*
G02*
X109027800Y-118366600I-150000J0D01*
G01*
%TO.N,DRAM_DQ2*%
X107503151Y-108664050D02*
X107503151Y-108524200D01*
X108535800Y-106631400D02*
X109139000Y-106631400D01*
X107893000Y-107856400D02*
X108243000Y-107506400D01*
X109139000Y-106631400D02*
X109434000Y-106926400D01*
X107373075Y-108794125D02*
X107373076Y-108794125D01*
X108243000Y-106924200D02*
X108535800Y-106631400D01*
X104145000Y-105630400D02*
X103136800Y-105630400D01*
X106443000Y-109306400D02*
X106443000Y-108056400D01*
X102643000Y-106124200D02*
X102643000Y-106624200D01*
X107443000Y-107856400D02*
X107893000Y-107856400D01*
X106043000Y-108056400D02*
X106043000Y-109306400D01*
X107243000Y-109306400D02*
X107243000Y-108924200D01*
X104443000Y-108056400D02*
X104443000Y-108274200D01*
X105643000Y-109306400D02*
X105643000Y-108056400D01*
X102893000Y-107124200D02*
X103625200Y-107856400D01*
X108243000Y-107506400D02*
X108243000Y-106924200D01*
X104843000Y-109306400D02*
X104843000Y-108056400D01*
X103136800Y-105630400D02*
X102643000Y-106124200D01*
X106843000Y-108056400D02*
X106843000Y-109306400D01*
X103625200Y-107856400D02*
X104243000Y-107856400D01*
X107373076Y-108394125D02*
X107373075Y-108394125D01*
X104443000Y-108274200D02*
X104443000Y-109306400D01*
X107243000Y-108264050D02*
X107243000Y-108124200D01*
X102643000Y-106624200D02*
X102893000Y-106874200D01*
X107243000Y-108124200D02*
X107243000Y-108056400D01*
X102893000Y-106874200D02*
X102893000Y-107124200D01*
X105243000Y-108056400D02*
X105243000Y-109306400D01*
X107373076Y-108794125D02*
G75*
G03*
X107503125Y-108664050I24J130025D01*
G01*
X105243000Y-109306400D02*
G75*
G03*
X105443000Y-109506400I200000J0D01*
G01*
X105443000Y-109506400D02*
G75*
G03*
X105643000Y-109306400I0J200000D01*
G01*
X106843000Y-109306400D02*
G75*
G03*
X107043000Y-109506400I200000J0D01*
G01*
X107243000Y-108056400D02*
G75*
G02*
X107443000Y-107856400I200000J0D01*
G01*
X106043000Y-109306400D02*
G75*
G03*
X106243000Y-109506400I200000J0D01*
G01*
X104243000Y-107856400D02*
G75*
G02*
X104443000Y-108056400I0J-200000D01*
G01*
X107373075Y-108394125D02*
G75*
G02*
X107243075Y-108264050I25J130025D01*
G01*
X107503151Y-108524200D02*
G75*
G03*
X107373076Y-108394149I-130051J0D01*
G01*
X104843000Y-108056400D02*
G75*
G02*
X105043000Y-107856400I200000J0D01*
G01*
X104443000Y-109306400D02*
G75*
G03*
X104643000Y-109506400I200000J0D01*
G01*
X105843000Y-107856400D02*
G75*
G02*
X106043000Y-108056400I0J-200000D01*
G01*
X106443000Y-108056400D02*
G75*
G02*
X106643000Y-107856400I200000J0D01*
G01*
X107243000Y-108924200D02*
G75*
G02*
X107373075Y-108794100I130100J0D01*
G01*
X104643000Y-109506400D02*
G75*
G03*
X104843000Y-109306400I0J200000D01*
G01*
X105043000Y-107856400D02*
G75*
G02*
X105243000Y-108056400I0J-200000D01*
G01*
X105643000Y-108056400D02*
G75*
G02*
X105843000Y-107856400I200000J0D01*
G01*
X107043000Y-109506400D02*
G75*
G03*
X107243000Y-109306400I0J200000D01*
G01*
X106643000Y-107856400D02*
G75*
G02*
X106843000Y-108056400I0J-200000D01*
G01*
X106243000Y-109506400D02*
G75*
G03*
X106443000Y-109306400I0J200000D01*
G01*
%TO.N,DRAM_DQ0*%
X103493000Y-103874200D02*
X102993000Y-103874200D01*
X105918000Y-103699200D02*
X105918000Y-104599200D01*
X109093000Y-105024200D02*
X108993000Y-105124200D01*
X108543000Y-103524200D02*
X109043000Y-103024200D01*
X106968000Y-104599200D02*
X106968000Y-103699200D01*
X103743000Y-103224200D02*
X104043000Y-103524200D01*
X108493000Y-105124200D02*
X107943000Y-104574200D01*
X104518000Y-103699200D02*
X104518000Y-104599200D01*
X104145000Y-104330400D02*
X103849200Y-104330400D01*
X102843000Y-103724200D02*
X102843000Y-103524200D01*
X107143000Y-103524200D02*
X107543000Y-103524200D01*
X103143000Y-103224200D02*
X103743000Y-103224200D01*
X103643000Y-104024200D02*
X103493000Y-103874200D01*
X109093000Y-104174200D02*
X109093000Y-105024200D01*
X109243000Y-104024200D02*
X109093000Y-104174200D01*
X109743000Y-103174200D02*
X109743000Y-103713213D01*
X103849200Y-104330400D02*
X103643000Y-104124200D01*
X109743000Y-103713213D02*
X109432013Y-104024200D01*
X109432013Y-104024200D02*
X109243000Y-104024200D01*
X106618000Y-103699200D02*
X106618000Y-104599200D01*
X108043000Y-104174200D02*
X108343000Y-104174200D01*
X105218000Y-103699200D02*
X105218000Y-104599200D01*
X105568000Y-104599200D02*
X105568000Y-103699200D01*
X102843000Y-103524200D02*
X103143000Y-103224200D01*
X107543000Y-103524200D02*
X108543000Y-103524200D01*
X106268000Y-104599200D02*
X106268000Y-103699200D01*
X109593000Y-103024200D02*
X109743000Y-103174200D01*
X104043000Y-103524200D02*
X104343000Y-103524200D01*
X108545000Y-104376200D02*
X108545000Y-104386400D01*
X108993000Y-105124200D02*
X108493000Y-105124200D01*
X104868000Y-104599200D02*
X104868000Y-103699200D01*
X107943000Y-104274200D02*
X108043000Y-104174200D01*
X102993000Y-103874200D02*
X102843000Y-103724200D01*
X109043000Y-103024200D02*
X109593000Y-103024200D01*
X108343000Y-104174200D02*
X108545000Y-104376200D01*
X107943000Y-104574200D02*
X107943000Y-104274200D01*
X103643000Y-104124200D02*
X103643000Y-104024200D01*
X106268000Y-103699200D02*
G75*
G02*
X106443000Y-103524200I175000J0D01*
G01*
X106793000Y-104774200D02*
G75*
G03*
X106968000Y-104599200I0J175000D01*
G01*
X104868000Y-103699200D02*
G75*
G02*
X105043000Y-103524200I175000J0D01*
G01*
X106618000Y-104599200D02*
G75*
G03*
X106793000Y-104774200I175000J0D01*
G01*
X106443000Y-103524200D02*
G75*
G02*
X106618000Y-103699200I0J-175000D01*
G01*
X105568000Y-103699200D02*
G75*
G02*
X105743000Y-103524200I175000J0D01*
G01*
X105218000Y-104599200D02*
G75*
G03*
X105393000Y-104774200I175000J0D01*
G01*
X104693000Y-104774200D02*
G75*
G03*
X104868000Y-104599200I0J175000D01*
G01*
X105393000Y-104774200D02*
G75*
G03*
X105568000Y-104599200I0J175000D01*
G01*
X104343000Y-103524200D02*
G75*
G02*
X104518000Y-103699200I0J-175000D01*
G01*
X106968000Y-103699200D02*
G75*
G02*
X107143000Y-103524200I175000J0D01*
G01*
X105043000Y-103524200D02*
G75*
G02*
X105218000Y-103699200I0J-175000D01*
G01*
X106093000Y-104774200D02*
G75*
G03*
X106268000Y-104599200I0J175000D01*
G01*
X105743000Y-103524200D02*
G75*
G02*
X105918000Y-103699200I0J-175000D01*
G01*
X104518000Y-104599200D02*
G75*
G03*
X104693000Y-104774200I175000J0D01*
G01*
X105918000Y-104599200D02*
G75*
G03*
X106093000Y-104774200I175000J0D01*
G01*
%TO.N,UART4_TXD*%
X89520000Y-116913206D02*
X89845000Y-117238206D01*
X89520000Y-115380400D02*
X89520000Y-116913206D01*
X89845000Y-117238206D02*
X89845000Y-118630400D01*
%TO.N,SPI2_SCLK*%
X86579507Y-128360400D02*
X86620000Y-128319907D01*
X86620000Y-122180400D02*
X87715000Y-121085400D01*
X86620000Y-128319907D02*
X86620000Y-122180400D01*
X87715000Y-121085400D02*
X87715000Y-117185400D01*
X87715000Y-117185400D02*
X88220000Y-116680400D01*
%TO.N,SPI1_SSO*%
X88770000Y-117330400D02*
X88870000Y-117330400D01*
X89570000Y-128130400D02*
X89570000Y-123780400D01*
X89670000Y-128230400D02*
X89570000Y-128130400D01*
X88520000Y-117580400D02*
X88770000Y-117330400D01*
X89570000Y-123780400D02*
X88520000Y-122730400D01*
X88520000Y-122730400D02*
X88520000Y-117580400D01*
%TO.N,NAND_DATA0*%
X79841097Y-105862630D02*
X79999481Y-105862630D01*
X88099481Y-105721014D02*
X88099481Y-105866228D01*
X76351481Y-105167014D02*
X76360817Y-105157678D01*
X79216481Y-105421014D02*
X79399481Y-105421014D01*
X83299481Y-105721014D02*
X83299481Y-105866209D01*
X80899481Y-105721014D02*
X80899481Y-105866209D01*
X90138481Y-105746014D02*
X90672867Y-106280400D01*
X78101601Y-105746014D02*
X78891481Y-105746014D01*
X87499481Y-105866209D02*
X87499481Y-105721014D01*
X88699481Y-105866228D02*
X88699481Y-105721014D01*
X89432481Y-105421014D02*
X89757481Y-105746014D01*
X77367481Y-105011894D02*
X78101601Y-105746014D01*
X89757481Y-105746014D02*
X90138481Y-105746014D01*
X85699481Y-105721014D02*
X85699481Y-105866228D01*
X76860792Y-105011894D02*
X77367481Y-105011894D01*
X84499481Y-105721014D02*
X84499481Y-105866228D01*
X85099481Y-105866228D02*
X85099481Y-105721014D01*
X76360817Y-105157678D02*
X76715008Y-105157678D01*
X81499481Y-105866209D02*
X81499481Y-105721014D01*
X86299481Y-105866228D02*
X86299481Y-105721014D01*
X83899481Y-105866209D02*
X83899481Y-105721014D01*
X86899481Y-105721014D02*
X86899481Y-105866209D01*
X90672867Y-106280400D02*
X90820000Y-106280400D01*
X76715008Y-105157678D02*
X76860792Y-105011894D01*
X88999481Y-105421014D02*
X89432481Y-105421014D01*
X78891481Y-105746014D02*
X79216481Y-105421014D01*
X82099481Y-105721014D02*
X82099481Y-105866228D01*
X82699481Y-105866228D02*
X82699481Y-105721014D01*
X80441097Y-105421014D02*
X80599481Y-105421014D01*
X87499481Y-105721014D02*
G75*
G02*
X87799481Y-105420981I300019J14D01*
G01*
X82999481Y-105421014D02*
G75*
G02*
X83299486Y-105721014I19J-299986D01*
G01*
X87199481Y-106166209D02*
G75*
G03*
X87499509Y-105866209I19J300009D01*
G01*
X79999481Y-105862630D02*
G75*
G03*
X80220330Y-105641822I19J220830D01*
G01*
X88099481Y-105866228D02*
G75*
G03*
X88399481Y-106166219I300019J28D01*
G01*
X88399481Y-106166228D02*
G75*
G03*
X88699528Y-105866228I19J300028D01*
G01*
X86299481Y-105721014D02*
G75*
G02*
X86599481Y-105420981I300019J14D01*
G01*
X85999481Y-106166228D02*
G75*
G03*
X86299528Y-105866228I19J300028D01*
G01*
X85099481Y-105721014D02*
G75*
G02*
X85399481Y-105420981I300019J14D01*
G01*
X87799481Y-105421014D02*
G75*
G02*
X88099486Y-105721014I19J-299986D01*
G01*
X81199481Y-106166209D02*
G75*
G03*
X81499509Y-105866209I19J300009D01*
G01*
X84799481Y-106166228D02*
G75*
G03*
X85099528Y-105866228I19J300028D01*
G01*
X79620289Y-105641822D02*
G75*
G03*
X79841097Y-105862611I220811J22D01*
G01*
X84499481Y-105866228D02*
G75*
G03*
X84799481Y-106166219I300019J28D01*
G01*
X83599481Y-106166209D02*
G75*
G03*
X83899509Y-105866209I19J300009D01*
G01*
X86899481Y-105866209D02*
G75*
G03*
X87199481Y-106166219I300019J9D01*
G01*
X79399481Y-105421014D02*
G75*
G02*
X79620286Y-105641822I19J-220786D01*
G01*
X80899481Y-105866209D02*
G75*
G03*
X81199481Y-106166219I300019J9D01*
G01*
X85699481Y-105866228D02*
G75*
G03*
X85999481Y-106166219I300019J28D01*
G01*
X80599481Y-105421014D02*
G75*
G02*
X80899486Y-105721014I19J-299986D01*
G01*
X81499481Y-105721014D02*
G75*
G02*
X81799481Y-105420981I300019J14D01*
G01*
X83299481Y-105866209D02*
G75*
G03*
X83599481Y-106166219I300019J9D01*
G01*
X84199481Y-105421014D02*
G75*
G02*
X84499486Y-105721014I19J-299986D01*
G01*
X85399481Y-105421014D02*
G75*
G02*
X85699486Y-105721014I19J-299986D01*
G01*
X88699481Y-105721014D02*
G75*
G02*
X88999481Y-105420981I300019J14D01*
G01*
X82399481Y-106166228D02*
G75*
G03*
X82699528Y-105866228I19J300028D01*
G01*
X82699481Y-105721014D02*
G75*
G02*
X82999481Y-105420981I300019J14D01*
G01*
X83899481Y-105721014D02*
G75*
G02*
X84199481Y-105420981I300019J14D01*
G01*
X86599481Y-105421014D02*
G75*
G02*
X86899486Y-105721014I19J-299986D01*
G01*
X80220289Y-105641822D02*
G75*
G02*
X80441097Y-105420989I220811J22D01*
G01*
X82099481Y-105866228D02*
G75*
G03*
X82399481Y-106166219I300019J28D01*
G01*
X81799481Y-105421014D02*
G75*
G02*
X82099486Y-105721014I19J-299986D01*
G01*
%TO.N,NAND_DATA2*%
X84670481Y-104151014D02*
X84670481Y-104026134D01*
X85395352Y-104400757D02*
X85745610Y-104400757D01*
X79395207Y-104400740D02*
X79745618Y-104400740D01*
X81070481Y-104151014D02*
X81070481Y-104026134D01*
X83595361Y-103901254D02*
X83945601Y-103901254D01*
X81795361Y-104400774D02*
X82145601Y-104400774D01*
X87795350Y-104400753D02*
X88145612Y-104400753D01*
X79870481Y-104275877D02*
X79870481Y-104151014D01*
X83470481Y-104275894D02*
X83470481Y-104151014D01*
X82995361Y-104400774D02*
X83345601Y-104400774D01*
X79870481Y-104151014D02*
X79870481Y-104026134D01*
X82270481Y-104151014D02*
X82270481Y-104026134D01*
X82870481Y-104151014D02*
X82870481Y-104275894D01*
X84795361Y-103901254D02*
X85145601Y-103901254D01*
X85870481Y-104151014D02*
X85870481Y-104026134D01*
X79995361Y-103901254D02*
X80345601Y-103901254D01*
X84070481Y-104026134D02*
X84070481Y-104151014D01*
X86595352Y-104400757D02*
X86945610Y-104400757D01*
X81195361Y-103901254D02*
X81545601Y-103901254D01*
X88395350Y-104151014D02*
X88745481Y-104151014D01*
X77936782Y-105121575D02*
X78907343Y-104151014D01*
X87070481Y-104151014D02*
X87070481Y-104026142D01*
X80470481Y-104151014D02*
X80470481Y-104275894D01*
X85270481Y-104026134D02*
X85270481Y-104151014D01*
X82395361Y-103901254D02*
X82745601Y-103901254D01*
X85995361Y-103901254D02*
X86345601Y-103901254D01*
X82870481Y-104026134D02*
X82870481Y-104151014D01*
X81670481Y-104026134D02*
X81670481Y-104151014D01*
X84670481Y-104275894D02*
X84670481Y-104151014D01*
X87070481Y-104275886D02*
X87070481Y-104151014D01*
X78907343Y-104151014D02*
X79145481Y-104151014D01*
X91175000Y-104685400D02*
X91470000Y-104980400D01*
X85870481Y-104275886D02*
X85870481Y-104151014D01*
X84070481Y-104151014D02*
X84070481Y-104275894D01*
X85270481Y-104151014D02*
X85270481Y-104275886D01*
X86470481Y-104026134D02*
X86470481Y-104151014D01*
X88745481Y-104151014D02*
X89813481Y-104151014D01*
X80470481Y-104026134D02*
X80470481Y-104151014D01*
X83470481Y-104151014D02*
X83470481Y-104026134D01*
X81670481Y-104151014D02*
X81670481Y-104275894D01*
X87670481Y-104026142D02*
X87670481Y-104151014D01*
X82270481Y-104275894D02*
X82270481Y-104151014D01*
X80595361Y-104400774D02*
X80945601Y-104400774D01*
X81070481Y-104275894D02*
X81070481Y-104151014D01*
X86470481Y-104151014D02*
X86470481Y-104275886D01*
X87195352Y-103901271D02*
X87545610Y-103901271D01*
X89813481Y-104151014D02*
X90347867Y-104685400D01*
X84195361Y-104400774D02*
X84545601Y-104400774D01*
X87670481Y-104151014D02*
X87670481Y-104275884D01*
X88270481Y-104275884D02*
X88270481Y-104275883D01*
X90347867Y-104685400D02*
X91175000Y-104685400D01*
X87670481Y-104275884D02*
G75*
G03*
X87795350Y-104400719I124819J-16D01*
G01*
X84670481Y-104026134D02*
G75*
G02*
X84795361Y-103901181I124919J34D01*
G01*
X79745618Y-104400740D02*
G75*
G03*
X79870440Y-104275877I-18J124840D01*
G01*
X86470481Y-104275886D02*
G75*
G03*
X86595352Y-104400819I124919J-14D01*
G01*
X88270481Y-104275883D02*
G75*
G02*
X88395350Y-104151081I124819J-17D01*
G01*
X85270481Y-104275886D02*
G75*
G03*
X85395352Y-104400819I124919J-14D01*
G01*
X84545601Y-104400774D02*
G75*
G03*
X84670474Y-104275894I-1J124874D01*
G01*
X81670481Y-104275894D02*
G75*
G03*
X81795361Y-104400819I124919J-6D01*
G01*
X82870481Y-104275894D02*
G75*
G03*
X82995361Y-104400819I124919J-6D01*
G01*
X86945610Y-104400757D02*
G75*
G03*
X87070457Y-104275886I-10J124857D01*
G01*
X85745610Y-104400757D02*
G75*
G03*
X85870457Y-104275886I-10J124857D01*
G01*
X82145601Y-104400774D02*
G75*
G03*
X82270474Y-104275894I-1J124874D01*
G01*
X87070481Y-104026142D02*
G75*
G02*
X87195352Y-103901181I124919J42D01*
G01*
X80470481Y-104275894D02*
G75*
G03*
X80595361Y-104400819I124919J-6D01*
G01*
X81070481Y-104026134D02*
G75*
G02*
X81195361Y-103901181I124919J34D01*
G01*
X87545610Y-103901271D02*
G75*
G02*
X87670429Y-104026142I-10J-124829D01*
G01*
X81545601Y-103901254D02*
G75*
G02*
X81670446Y-104026134I-1J-124846D01*
G01*
X80345601Y-103901254D02*
G75*
G02*
X80470446Y-104026134I-1J-124846D01*
G01*
X80945601Y-104400774D02*
G75*
G03*
X81070474Y-104275894I-1J124874D01*
G01*
X86345601Y-103901254D02*
G75*
G02*
X86470446Y-104026134I-1J-124846D01*
G01*
X82270481Y-104026134D02*
G75*
G02*
X82395361Y-103901181I124919J34D01*
G01*
X79870481Y-104026134D02*
G75*
G02*
X79995361Y-103901181I124919J34D01*
G01*
X83345601Y-104400774D02*
G75*
G03*
X83470474Y-104275894I-1J124874D01*
G01*
X88145612Y-104400753D02*
G75*
G03*
X88270453Y-104275884I-12J124853D01*
G01*
X85870481Y-104026134D02*
G75*
G02*
X85995361Y-103901181I124919J34D01*
G01*
X82745601Y-103901254D02*
G75*
G02*
X82870446Y-104026134I-1J-124846D01*
G01*
X83945601Y-103901254D02*
G75*
G02*
X84070446Y-104026134I-1J-124846D01*
G01*
X79270344Y-104275877D02*
G75*
G03*
X79395207Y-104400756I124856J-23D01*
G01*
X85145601Y-103901254D02*
G75*
G02*
X85270446Y-104026134I-1J-124846D01*
G01*
X84070481Y-104275894D02*
G75*
G03*
X84195361Y-104400819I124919J-6D01*
G01*
X79145481Y-104151014D02*
G75*
G02*
X79270386Y-104275877I19J-124886D01*
G01*
X83470481Y-104026134D02*
G75*
G02*
X83595361Y-103901181I124919J34D01*
G01*
%TO.N,NAND_DATA1*%
X77744500Y-105794394D02*
X77744500Y-106052033D01*
X85948691Y-106940224D02*
X86022481Y-106940224D01*
X79910564Y-106752098D02*
X79910564Y-106752097D01*
X81710564Y-106752098D02*
X81710564Y-106752097D01*
X80810564Y-106752098D02*
X80810564Y-106752097D01*
X78256481Y-106564014D02*
X79272481Y-106564014D01*
X84598691Y-106564014D02*
X84672481Y-106564014D01*
X86848691Y-106940224D02*
X86922481Y-106940224D01*
X88198691Y-106564014D02*
X88272481Y-106564014D01*
X85310564Y-106752098D02*
X85310564Y-106752097D01*
X91825000Y-106575400D02*
X92120000Y-106280400D01*
X77100000Y-105421014D02*
X77371120Y-105421014D01*
X89098691Y-106564014D02*
X89172481Y-106564014D01*
X83248691Y-106940224D02*
X83322481Y-106940224D01*
X87298691Y-106564014D02*
X87372481Y-106564014D01*
X81898647Y-106564014D02*
X81972481Y-106564014D01*
X80548647Y-106940181D02*
X80622481Y-106940181D01*
X86398691Y-106564014D02*
X86472481Y-106564014D01*
X82348691Y-106940224D02*
X82422481Y-106940224D01*
X83698691Y-106564014D02*
X83772481Y-106564014D01*
X80098647Y-106564014D02*
X80172481Y-106564014D01*
X87748691Y-106940224D02*
X87822481Y-106940224D01*
X80998647Y-106564014D02*
X81072481Y-106564014D01*
X82798691Y-106564014D02*
X82872481Y-106564014D01*
X90036420Y-106564014D02*
X90047806Y-106575400D01*
X77744500Y-106052033D02*
X78256481Y-106564014D01*
X84148691Y-106940224D02*
X84222481Y-106940224D01*
X89172481Y-106564014D02*
X90036420Y-106564014D01*
X80360564Y-106752097D02*
X80360564Y-106752098D01*
X81448647Y-106940181D02*
X81522481Y-106940181D01*
X85048647Y-106940181D02*
X85122481Y-106940181D01*
X81260564Y-106752097D02*
X81260564Y-106752098D01*
X90047806Y-106575400D02*
X91825000Y-106575400D01*
X79648647Y-106940181D02*
X79722481Y-106940181D01*
X88648691Y-106940224D02*
X88722481Y-106940224D01*
X84860564Y-106752097D02*
X84860564Y-106752098D01*
X77371120Y-105421014D02*
X77744500Y-105794394D01*
X79460564Y-106752097D02*
X79460564Y-106752098D01*
X85498647Y-106564014D02*
X85572481Y-106564014D01*
X88010586Y-106752119D02*
G75*
G02*
X88198691Y-106563986I188114J19D01*
G01*
X85310564Y-106752097D02*
G75*
G02*
X85498647Y-106564064I188036J-3D01*
G01*
X82610586Y-106752119D02*
G75*
G02*
X82798691Y-106563986I188114J19D01*
G01*
X79910564Y-106752097D02*
G75*
G02*
X80098647Y-106564064I188036J-3D01*
G01*
X79272481Y-106564014D02*
G75*
G02*
X79460586Y-106752097I19J-188086D01*
G01*
X79722481Y-106940181D02*
G75*
G03*
X79910581Y-106752098I19J188081D01*
G01*
X87372481Y-106564014D02*
G75*
G02*
X87560586Y-106752119I19J-188086D01*
G01*
X81072481Y-106564014D02*
G75*
G02*
X81260586Y-106752097I19J-188086D01*
G01*
X85760586Y-106752119D02*
G75*
G03*
X85948691Y-106940214I188114J19D01*
G01*
X83772481Y-106564014D02*
G75*
G02*
X83960586Y-106752119I19J-188086D01*
G01*
X85572481Y-106564014D02*
G75*
G02*
X85760586Y-106752119I19J-188086D01*
G01*
X81260564Y-106752098D02*
G75*
G03*
X81448647Y-106940136I188036J-2D01*
G01*
X80810564Y-106752097D02*
G75*
G02*
X80998647Y-106564064I188036J-3D01*
G01*
X80360564Y-106752098D02*
G75*
G03*
X80548647Y-106940136I188036J-2D01*
G01*
X86210586Y-106752119D02*
G75*
G02*
X86398691Y-106563986I188114J19D01*
G01*
X86022481Y-106940224D02*
G75*
G03*
X86210624Y-106752119I19J188124D01*
G01*
X88722481Y-106940224D02*
G75*
G03*
X88910624Y-106752119I19J188124D01*
G01*
X87822481Y-106940224D02*
G75*
G03*
X88010624Y-106752119I19J188124D01*
G01*
X81710564Y-106752097D02*
G75*
G02*
X81898647Y-106564064I188036J-3D01*
G01*
X84860564Y-106752098D02*
G75*
G03*
X85048647Y-106940136I188036J-2D01*
G01*
X88272481Y-106564014D02*
G75*
G02*
X88460586Y-106752119I19J-188086D01*
G01*
X86660586Y-106752119D02*
G75*
G03*
X86848691Y-106940214I188114J19D01*
G01*
X88910586Y-106752119D02*
G75*
G02*
X89098691Y-106563986I188114J19D01*
G01*
X86922481Y-106940224D02*
G75*
G03*
X87110624Y-106752119I19J188124D01*
G01*
X83510586Y-106752119D02*
G75*
G02*
X83698691Y-106563986I188114J19D01*
G01*
X84410586Y-106752119D02*
G75*
G02*
X84598691Y-106563986I188114J19D01*
G01*
X81972481Y-106564014D02*
G75*
G02*
X82160586Y-106752119I19J-188086D01*
G01*
X82422481Y-106940224D02*
G75*
G03*
X82610624Y-106752119I19J188124D01*
G01*
X87560586Y-106752119D02*
G75*
G03*
X87748691Y-106940214I188114J19D01*
G01*
X79460564Y-106752098D02*
G75*
G03*
X79648647Y-106940136I188036J-2D01*
G01*
X85122481Y-106940181D02*
G75*
G03*
X85310581Y-106752098I19J188081D01*
G01*
X87110586Y-106752119D02*
G75*
G02*
X87298691Y-106563986I188114J19D01*
G01*
X83960586Y-106752119D02*
G75*
G03*
X84148691Y-106940214I188114J19D01*
G01*
X88460586Y-106752119D02*
G75*
G03*
X88648691Y-106940214I188114J19D01*
G01*
X86472481Y-106564014D02*
G75*
G02*
X86660586Y-106752119I19J-188086D01*
G01*
X82872481Y-106564014D02*
G75*
G02*
X83060586Y-106752119I19J-188086D01*
G01*
X83060586Y-106752119D02*
G75*
G03*
X83248691Y-106940214I188114J19D01*
G01*
X84672481Y-106564014D02*
G75*
G02*
X84860586Y-106752097I19J-188086D01*
G01*
X80172481Y-106564014D02*
G75*
G02*
X80360586Y-106752097I19J-188086D01*
G01*
X82160586Y-106752119D02*
G75*
G03*
X82348691Y-106940214I188114J19D01*
G01*
X80622481Y-106940181D02*
G75*
G03*
X80810581Y-106752098I19J188081D01*
G01*
X81522481Y-106940181D02*
G75*
G03*
X81710581Y-106752098I19J188081D01*
G01*
X83322481Y-106940224D02*
G75*
G03*
X83510624Y-106752119I19J188124D01*
G01*
X84222481Y-106940224D02*
G75*
G03*
X84410624Y-106752119I19J188124D01*
G01*
%TO.N,SPI1_SCLK*%
X89280000Y-123940400D02*
X88191777Y-122852177D01*
X88992194Y-116975400D02*
X89165000Y-116802594D01*
X89170000Y-128230400D02*
X89170000Y-128180400D01*
X89170000Y-128180400D02*
X89320500Y-128029900D01*
X89165000Y-116802594D02*
X89165000Y-116325400D01*
X89320500Y-128029900D02*
X89320500Y-125678206D01*
X89280000Y-125637706D02*
X89280000Y-123940400D01*
X88191777Y-117558623D02*
X88775000Y-116975400D01*
X89165000Y-116325400D02*
X88870000Y-116030400D01*
X88775000Y-116975400D02*
X88992194Y-116975400D01*
X88191777Y-122852177D02*
X88191777Y-117558623D01*
X89320500Y-125678206D02*
X89280000Y-125637706D01*
%TO.N,NAND_DATA5*%
X76696287Y-105929014D02*
X76780500Y-105929014D01*
X91353597Y-103736803D02*
X88739454Y-103736803D01*
X88388051Y-103385400D02*
X81107481Y-103385400D01*
X91825000Y-104685400D02*
X91825000Y-104208206D01*
X80207481Y-102731140D02*
X80207481Y-103085400D01*
X91825000Y-104208206D02*
X91353597Y-103736803D01*
X79907481Y-103385400D02*
X77625095Y-103385400D01*
X80807481Y-103085400D02*
X80807481Y-102731140D01*
X77625095Y-103385400D02*
X76056481Y-104954014D01*
X76056481Y-104954014D02*
X76056481Y-105289208D01*
X76056481Y-105289208D02*
X76696287Y-105929014D01*
X88739454Y-103736803D02*
X88388051Y-103385400D01*
X92120000Y-104980400D02*
X91825000Y-104685400D01*
X80807481Y-102731140D02*
G75*
G03*
X80507481Y-102431119I-299981J40D01*
G01*
X80207481Y-103085400D02*
G75*
G02*
X79907481Y-103385381I-299981J0D01*
G01*
X81107481Y-103385400D02*
G75*
G02*
X80807500Y-103085400I19J300000D01*
G01*
X80507481Y-102431140D02*
G75*
G03*
X80207540Y-102731140I19J-299960D01*
G01*
%TO.N,SPI2_MOSI*%
X87991777Y-125379370D02*
X87991777Y-117358623D01*
X87665481Y-128255014D02*
X87665481Y-125705666D01*
X87991777Y-117358623D02*
X88670000Y-116680400D01*
X88670000Y-116680400D02*
X88870000Y-116680400D01*
X87665481Y-125705666D02*
X87991777Y-125379370D01*
%TO.N,GPIO15*%
X92120000Y-116030400D02*
X92120000Y-118630400D01*
%TO.N,NAND_DATA6*%
X84038015Y-107421935D02*
X84038015Y-107421934D01*
X81838015Y-107421935D02*
X81838015Y-107421934D01*
X82938015Y-107421935D02*
X82938015Y-107421934D01*
X86434611Y-107225400D02*
X86591481Y-107225400D01*
X77419500Y-106235033D02*
X77621481Y-106437014D01*
X78409867Y-107225400D02*
X78891481Y-107225400D01*
X84784549Y-107618469D02*
X84941481Y-107618469D01*
X82584549Y-107618469D02*
X82741481Y-107618469D01*
X85688046Y-107421965D02*
X85688046Y-107421966D01*
X80188015Y-107421934D02*
X80188015Y-107421935D01*
X78257876Y-107073409D02*
X78409867Y-107225400D01*
X85334549Y-107225400D02*
X85491481Y-107225400D01*
X79834541Y-107225400D02*
X79991481Y-107225400D01*
X84234549Y-107225400D02*
X84391481Y-107225400D01*
X83684549Y-107618469D02*
X83841481Y-107618469D01*
X77419500Y-105929014D02*
X77419500Y-106235033D01*
X79284541Y-107618460D02*
X79441481Y-107618460D01*
X85138015Y-107421935D02*
X85138015Y-107421934D01*
X78010390Y-107073409D02*
X78010389Y-107073409D01*
X81484549Y-107618469D02*
X81641481Y-107618469D01*
X78257875Y-107073409D02*
X78257876Y-107073409D01*
X80934549Y-107225400D02*
X81091481Y-107225400D01*
X86591481Y-107225400D02*
X93125000Y-107225400D01*
X77621480Y-106684501D02*
X77621481Y-106684501D01*
X77621481Y-106931988D02*
X77762902Y-107073409D01*
X81288015Y-107421934D02*
X81288015Y-107421935D01*
X82388015Y-107421934D02*
X82388015Y-107421935D01*
X80738015Y-107421935D02*
X80738015Y-107421934D01*
X86238046Y-107421966D02*
X86238046Y-107421965D01*
X93125000Y-107225400D02*
X93420000Y-106930400D01*
X80384549Y-107618469D02*
X80541481Y-107618469D01*
X82034549Y-107225400D02*
X82191481Y-107225400D01*
X85884611Y-107618531D02*
X86041481Y-107618531D01*
X83488015Y-107421934D02*
X83488015Y-107421935D01*
X83134549Y-107225400D02*
X83291481Y-107225400D01*
X84588015Y-107421934D02*
X84588015Y-107421935D01*
X77621481Y-106931987D02*
X77621481Y-106931988D01*
X82741481Y-107618469D02*
G75*
G03*
X82938069Y-107421935I19J196569D01*
G01*
X80188015Y-107421935D02*
G75*
G03*
X80384549Y-107618385I196485J35D01*
G01*
X84588015Y-107421935D02*
G75*
G03*
X84784549Y-107618385I196485J35D01*
G01*
X83488015Y-107421935D02*
G75*
G03*
X83684549Y-107618385I196485J35D01*
G01*
X78010389Y-107073409D02*
G75*
G02*
X78257875Y-107073409I123743J-123743D01*
G01*
X83291481Y-107225400D02*
G75*
G02*
X83488000Y-107421934I19J-196500D01*
G01*
X80541481Y-107618469D02*
G75*
G03*
X80738069Y-107421935I19J196569D01*
G01*
X79088011Y-107421930D02*
G75*
G03*
X79284541Y-107618389I196489J30D01*
G01*
X84038015Y-107421934D02*
G75*
G02*
X84234549Y-107225415I196485J34D01*
G01*
X81641481Y-107618469D02*
G75*
G03*
X81838069Y-107421935I19J196569D01*
G01*
X79441481Y-107618460D02*
G75*
G03*
X79638060Y-107421930I19J196560D01*
G01*
X78891481Y-107225400D02*
G75*
G02*
X79088000Y-107421930I19J-196500D01*
G01*
X85491481Y-107225400D02*
G75*
G02*
X85688100Y-107421965I19J-196600D01*
G01*
X84391481Y-107225400D02*
G75*
G02*
X84588000Y-107421934I19J-196500D01*
G01*
X86238046Y-107421965D02*
G75*
G02*
X86434611Y-107225446I196554J-35D01*
G01*
X86041481Y-107618531D02*
G75*
G03*
X86238031Y-107421966I19J196531D01*
G01*
X77621482Y-106684502D02*
G75*
G03*
X77621526Y-106931942I123718J-123698D01*
G01*
X83841481Y-107618469D02*
G75*
G03*
X84038069Y-107421935I19J196569D01*
G01*
X85138015Y-107421934D02*
G75*
G02*
X85334549Y-107225415I196485J34D01*
G01*
X85688046Y-107421966D02*
G75*
G03*
X85884611Y-107618554I196554J-34D01*
G01*
X82938015Y-107421934D02*
G75*
G02*
X83134549Y-107225415I196485J34D01*
G01*
X77762903Y-107073408D02*
G75*
G03*
X78010389Y-107073408I123743J123745D01*
G01*
X81091481Y-107225400D02*
G75*
G02*
X81288000Y-107421934I19J-196500D01*
G01*
X81838015Y-107421934D02*
G75*
G02*
X82034549Y-107225415I196485J34D01*
G01*
X79638011Y-107421930D02*
G75*
G02*
X79834541Y-107225411I196489J30D01*
G01*
X84941481Y-107618469D02*
G75*
G03*
X85138069Y-107421935I19J196569D01*
G01*
X79991481Y-107225400D02*
G75*
G02*
X80188000Y-107421934I19J-196500D01*
G01*
X81288015Y-107421935D02*
G75*
G03*
X81484549Y-107618385I196485J35D01*
G01*
X82388015Y-107421935D02*
G75*
G03*
X82584549Y-107618385I196485J35D01*
G01*
X80738015Y-107421934D02*
G75*
G02*
X80934549Y-107225415I196485J34D01*
G01*
X77621481Y-106437014D02*
G75*
G02*
X77621523Y-106684544I-123781J-123786D01*
G01*
X82191481Y-107225400D02*
G75*
G02*
X82388000Y-107421934I19J-196500D01*
G01*
%TO.N,NAND_DATA4*%
X78611867Y-107935400D02*
X78383481Y-107707014D01*
X78234620Y-107700000D02*
X77965380Y-107700000D01*
X93420000Y-106280400D02*
X93420000Y-106487533D01*
X78241634Y-107707014D02*
X78234620Y-107700000D01*
X78383481Y-107707014D02*
X78241634Y-107707014D01*
X77965380Y-107700000D02*
X77958366Y-107707014D01*
X93715000Y-106782533D02*
X93715000Y-107107495D01*
X77958366Y-107707014D02*
X77882014Y-107707014D01*
X92887095Y-107935400D02*
X78611867Y-107935400D01*
X93715000Y-107107495D02*
X92887095Y-107935400D01*
X77882014Y-107707014D02*
X75900000Y-105725000D01*
X93420000Y-106487533D02*
X93715000Y-106782533D01*
%TO.N,GPIO13*%
X92770000Y-116030400D02*
X92770000Y-118630400D01*
%TO.N,NAND_DATA7*%
X86155953Y-105069487D02*
X86422481Y-105069487D01*
X87114217Y-104927750D02*
X87114217Y-104927751D01*
X80514215Y-104927748D02*
X80514215Y-104927749D01*
X84364217Y-104927751D02*
X84364217Y-104927750D01*
X87805953Y-104786014D02*
X88072481Y-104786014D01*
X83405949Y-104786014D02*
X83672481Y-104786014D01*
X89558420Y-104786014D02*
X90757806Y-105985400D01*
X93715000Y-106158206D02*
X93715000Y-106342594D01*
X93542194Y-105985400D02*
X93715000Y-106158206D01*
X82855949Y-105069483D02*
X83122481Y-105069483D01*
X79555949Y-105069483D02*
X79822481Y-105069483D01*
X81614215Y-104927748D02*
X81614215Y-104927749D01*
X79414215Y-104927748D02*
X79414215Y-104927749D01*
X78383481Y-105421014D02*
X79018481Y-104786014D01*
X82164215Y-104927749D02*
X82164215Y-104927748D01*
X79018481Y-104786014D02*
X79272481Y-104786014D01*
X83955953Y-105069487D02*
X84222481Y-105069487D01*
X85055949Y-105069483D02*
X85322481Y-105069483D01*
X86705953Y-104786014D02*
X86972481Y-104786014D01*
X93715000Y-106342594D02*
X94070000Y-106697594D01*
X82714215Y-104927748D02*
X82714215Y-104927749D01*
X81205949Y-104786014D02*
X81472481Y-104786014D01*
X83814217Y-104927750D02*
X83814217Y-104927751D01*
X90757806Y-105985400D02*
X93542194Y-105985400D01*
X80655949Y-105069483D02*
X80922481Y-105069483D01*
X84505953Y-104786014D02*
X84772481Y-104786014D01*
X79964215Y-104927749D02*
X79964215Y-104927748D01*
X84914215Y-104927748D02*
X84914215Y-104927749D01*
X80105949Y-104786014D02*
X80372481Y-104786014D01*
X87255953Y-105069487D02*
X87522481Y-105069487D01*
X82305949Y-104786014D02*
X82572481Y-104786014D01*
X85605949Y-104786014D02*
X85872481Y-104786014D01*
X86564217Y-104927751D02*
X86564217Y-104927750D01*
X81755949Y-105069483D02*
X82022481Y-105069483D01*
X81064215Y-104927749D02*
X81064215Y-104927748D01*
X85464215Y-104927749D02*
X85464215Y-104927748D01*
X86014217Y-104927750D02*
X86014217Y-104927751D01*
X83264215Y-104927749D02*
X83264215Y-104927748D01*
X87664217Y-104927751D02*
X87664217Y-104927750D01*
X88072481Y-104786014D02*
X89558420Y-104786014D01*
X94070000Y-106697594D02*
X94070000Y-106930400D01*
X85872481Y-104786014D02*
G75*
G02*
X86014286Y-104927750I19J-141786D01*
G01*
X83122481Y-105069483D02*
G75*
G03*
X83264283Y-104927749I19J141783D01*
G01*
X83672481Y-104786014D02*
G75*
G02*
X83814286Y-104927750I19J-141786D01*
G01*
X79414215Y-104927749D02*
G75*
G03*
X79555949Y-105069385I141685J49D01*
G01*
X80372481Y-104786014D02*
G75*
G02*
X80514186Y-104927748I19J-141686D01*
G01*
X81064215Y-104927748D02*
G75*
G02*
X81205949Y-104786015I141685J48D01*
G01*
X83264215Y-104927748D02*
G75*
G02*
X83405949Y-104786015I141685J48D01*
G01*
X81614215Y-104927749D02*
G75*
G03*
X81755949Y-105069385I141685J49D01*
G01*
X87522481Y-105069487D02*
G75*
G03*
X87664287Y-104927751I19J141787D01*
G01*
X79272481Y-104786014D02*
G75*
G02*
X79414186Y-104927748I19J-141686D01*
G01*
X80922481Y-105069483D02*
G75*
G03*
X81064283Y-104927749I19J141783D01*
G01*
X82572481Y-104786014D02*
G75*
G02*
X82714186Y-104927748I19J-141686D01*
G01*
X82714215Y-104927749D02*
G75*
G03*
X82855949Y-105069385I141685J49D01*
G01*
X87114217Y-104927751D02*
G75*
G03*
X87255953Y-105069483I141783J51D01*
G01*
X83814217Y-104927751D02*
G75*
G03*
X83955953Y-105069483I141783J51D01*
G01*
X79822481Y-105069483D02*
G75*
G03*
X79964283Y-104927749I19J141783D01*
G01*
X79964215Y-104927748D02*
G75*
G02*
X80105949Y-104786015I141685J48D01*
G01*
X86422481Y-105069487D02*
G75*
G03*
X86564287Y-104927751I19J141787D01*
G01*
X85322481Y-105069483D02*
G75*
G03*
X85464283Y-104927749I19J141783D01*
G01*
X84772481Y-104786014D02*
G75*
G02*
X84914186Y-104927748I19J-141686D01*
G01*
X84914215Y-104927749D02*
G75*
G03*
X85055949Y-105069385I141685J49D01*
G01*
X87664217Y-104927750D02*
G75*
G02*
X87805953Y-104786017I141783J-50D01*
G01*
X81472481Y-104786014D02*
G75*
G02*
X81614186Y-104927748I19J-141686D01*
G01*
X86564217Y-104927750D02*
G75*
G02*
X86705953Y-104786017I141783J-50D01*
G01*
X86014217Y-104927751D02*
G75*
G03*
X86155953Y-105069483I141783J51D01*
G01*
X84364217Y-104927750D02*
G75*
G02*
X84505953Y-104786017I141783J-50D01*
G01*
X85464215Y-104927748D02*
G75*
G02*
X85605949Y-104786015I141685J48D01*
G01*
X82022481Y-105069483D02*
G75*
G03*
X82164283Y-104927749I19J141783D01*
G01*
X82164215Y-104927748D02*
G75*
G02*
X82305949Y-104786015I141685J48D01*
G01*
X84222481Y-105069487D02*
G75*
G03*
X84364287Y-104927751I19J141787D01*
G01*
X80514215Y-104927749D02*
G75*
G03*
X80655949Y-105069385I141685J49D01*
G01*
X86972481Y-104786014D02*
G75*
G02*
X87114286Y-104927750I19J-141786D01*
G01*
%TO.N,GPIO11*%
X93420000Y-116030400D02*
X93420000Y-116355400D01*
X93420000Y-116355400D02*
X93420000Y-118630400D01*
%TO.N,GPIO9*%
X94070000Y-116355400D02*
X94070000Y-117330400D01*
X94395000Y-117655400D02*
X94395000Y-117980400D01*
X94395000Y-117980400D02*
X94395000Y-118955400D01*
X94070000Y-117330400D02*
X94395000Y-117655400D01*
X94070000Y-116030400D02*
X94070000Y-116355400D01*
%TO.N,ENET_TD3*%
X94351797Y-102684136D02*
X94351797Y-103054566D01*
X61890467Y-112245028D02*
X63340481Y-110795014D01*
X60965467Y-112245028D02*
X61890467Y-112245028D01*
X59464769Y-113745726D02*
X60965467Y-112245028D01*
X73262922Y-103107800D02*
X73618521Y-102752201D01*
X72468878Y-103111000D02*
X72831366Y-103111000D01*
X63340481Y-110795014D02*
X64784865Y-110795014D01*
X59464769Y-114245726D02*
X59464769Y-113745726D01*
X73618521Y-102752201D02*
X73720125Y-102752199D01*
X72834566Y-103107800D02*
X73262922Y-103107800D01*
X82288960Y-101817812D02*
X93485473Y-101817812D01*
X94865481Y-105775881D02*
X95370000Y-106280400D01*
X73777309Y-102695014D02*
X78404389Y-102695014D01*
X94865481Y-103568249D02*
X94865481Y-105775881D01*
X73720125Y-102752199D02*
X73777309Y-102695014D01*
X93485473Y-101817812D02*
X94351797Y-102684136D01*
X82225727Y-101754579D02*
X82288960Y-101817812D01*
X94351797Y-103054566D02*
X94865481Y-103568249D01*
X72831366Y-103111000D02*
X72834566Y-103107800D01*
X64784865Y-110795014D02*
X72468878Y-103111000D01*
X78404389Y-102695014D02*
X79344824Y-101754579D01*
X79344824Y-101754579D02*
X82225727Y-101754579D01*
%TO.N,ENET_TD2*%
X81490782Y-102154579D02*
X79547725Y-102154579D01*
X73152653Y-103507800D02*
X65651467Y-111008986D01*
X79547725Y-102154579D02*
X78550107Y-103152197D01*
X60465481Y-113295014D02*
X59795291Y-113965204D01*
X59795291Y-113965204D02*
X59795291Y-114724824D01*
X62815481Y-112195014D02*
X61715481Y-113295014D01*
X81826231Y-102490028D02*
X81490782Y-102154579D01*
X63429453Y-111008986D02*
X62815481Y-111622958D01*
X94395699Y-104125232D02*
X94305867Y-104035400D01*
X96020000Y-106930400D02*
X94950867Y-106930400D01*
X89250000Y-103430400D02*
X88309628Y-102490028D01*
X94950867Y-106930400D02*
X94395699Y-106375232D01*
X73784209Y-103152197D02*
X73428607Y-103507800D01*
X94305867Y-104035400D02*
X92380000Y-104035400D01*
X94395699Y-106375232D02*
X94395699Y-104125232D01*
X88309628Y-102490028D02*
X81826231Y-102490028D01*
X61715481Y-113295014D02*
X60465481Y-113295014D01*
X59565481Y-114954634D02*
X59565481Y-115495014D01*
X91775000Y-103430400D02*
X89250000Y-103430400D01*
X65651467Y-111008986D02*
X63429453Y-111008986D01*
X73428607Y-103507800D02*
X73152653Y-103507800D01*
X78550107Y-103152197D02*
X73784209Y-103152197D01*
X92380000Y-104035400D02*
X91775000Y-103430400D01*
X62815481Y-111622958D02*
X62815481Y-112195014D01*
X59795291Y-114724824D02*
X59565481Y-114954634D01*
%TO.N,ENET_TD0*%
X62615481Y-111195014D02*
X61146268Y-111195014D01*
X94551797Y-102971721D02*
X94551797Y-102601294D01*
X73180079Y-102907800D02*
X72751723Y-102907800D01*
X95065481Y-104845014D02*
X95065481Y-103485407D01*
X79180106Y-101554579D02*
X78338084Y-102396601D01*
X78338084Y-102396601D02*
X73792878Y-102396601D01*
X95665000Y-105444533D02*
X95065481Y-104845014D01*
X94551797Y-102601294D02*
X93505082Y-101554579D01*
X72386037Y-102911000D02*
X64702022Y-110595014D01*
X73792878Y-102396601D02*
X73637280Y-102552200D01*
X95665000Y-105925400D02*
X95665000Y-105444533D01*
X72748523Y-102911000D02*
X72386037Y-102911000D01*
X59565481Y-112775801D02*
X59565481Y-113045014D01*
X95065481Y-103485407D02*
X94551797Y-102971721D01*
X73535679Y-102552201D02*
X73180079Y-102907800D01*
X93505082Y-101554579D02*
X79180106Y-101554579D01*
X64702022Y-110595014D02*
X63215481Y-110595014D01*
X73637280Y-102552200D02*
X73535679Y-102552201D01*
X72751723Y-102907800D02*
X72748523Y-102911000D01*
X61146268Y-111195014D02*
X59565481Y-112775801D01*
X96020000Y-106280400D02*
X95665000Y-105925400D01*
X63215481Y-110595014D02*
X62615481Y-111195014D01*
%TO.N,ENET_TD1*%
X64432675Y-110345014D02*
X63082675Y-110345014D01*
X65140481Y-109595014D02*
X65115481Y-109595014D01*
X73387200Y-102417837D02*
X73097237Y-102707800D01*
X59988847Y-115571648D02*
X59988847Y-115269797D01*
X63082675Y-110345014D02*
X62482675Y-110945014D01*
X94751797Y-102888879D02*
X94751797Y-102500181D01*
X73387200Y-102367037D02*
X73387200Y-102417837D01*
X73711622Y-102195014D02*
X73554437Y-102352200D01*
X65252981Y-109482514D02*
X65252981Y-109524708D01*
X65252981Y-109482514D02*
X65140481Y-109595014D01*
X65252981Y-109524708D02*
X64432675Y-110345014D01*
X78204725Y-102195014D02*
X73711622Y-102195014D01*
X60765481Y-110945014D02*
X59139769Y-112570726D01*
X94751797Y-102500181D02*
X93588407Y-101336791D01*
X93588407Y-101336791D02*
X79062948Y-101336791D01*
X96375000Y-105568206D02*
X96101808Y-105295014D01*
X95865481Y-105295014D02*
X95725000Y-105154533D01*
X59365481Y-115845014D02*
X59715481Y-115845014D01*
X96101808Y-105295014D02*
X95865481Y-105295014D01*
X72430194Y-102711000D02*
X72024495Y-102711000D01*
X62482675Y-110945014D02*
X60765481Y-110945014D01*
X59715481Y-115845014D02*
X59988847Y-115571648D01*
X59139769Y-112570726D02*
X59139769Y-115619302D01*
X72024495Y-102711000D02*
X65252981Y-109482514D01*
X73097237Y-102707800D02*
X72433394Y-102707800D01*
X79062948Y-101336791D02*
X78204725Y-102195014D01*
X73402037Y-102352200D02*
X73387200Y-102367037D01*
X95725000Y-103862083D02*
X94751797Y-102888879D01*
X59139769Y-115619302D02*
X59365481Y-115845014D01*
X73554437Y-102352200D02*
X73402037Y-102352200D01*
X96670000Y-106280400D02*
X96375000Y-105985400D01*
X96375000Y-105985400D02*
X96375000Y-105568206D01*
X72433394Y-102707800D02*
X72430194Y-102711000D01*
X95725000Y-105154533D02*
X95725000Y-103862083D01*
%TO.N,ENET_TXC*%
X60193462Y-114067033D02*
X60193462Y-114070028D01*
X95025095Y-107935400D02*
X94435095Y-108525400D01*
X96670000Y-106930400D02*
X96437194Y-106930400D01*
X60615481Y-113645014D02*
X60193462Y-114067033D01*
X94435095Y-108525400D02*
X85035095Y-108525400D01*
X95715481Y-107652113D02*
X95432194Y-107935400D01*
X66190481Y-110795014D02*
X65735481Y-111250014D01*
X78815481Y-109395014D02*
X77415481Y-109395014D01*
X65735481Y-111250014D02*
X63471268Y-111250014D01*
X95715481Y-107467725D02*
X95715481Y-107652113D01*
X63471268Y-111250014D02*
X63015481Y-111705801D01*
X77415481Y-109395014D02*
X76015481Y-110795014D01*
X63015481Y-112445014D02*
X61815481Y-113645014D01*
X63015481Y-111705801D02*
X63015481Y-112445014D01*
X84465481Y-109095014D02*
X79115481Y-109095014D01*
X95938192Y-107245014D02*
X95715481Y-107467725D01*
X79115481Y-109095014D02*
X78815481Y-109395014D01*
X96437194Y-106930400D02*
X96122580Y-107245014D01*
X96122580Y-107245014D02*
X95938192Y-107245014D01*
X95432194Y-107935400D02*
X95025095Y-107935400D01*
X76015481Y-110795014D02*
X66190481Y-110795014D01*
X61815481Y-113645014D02*
X60615481Y-113645014D01*
X85035095Y-108525400D02*
X84465481Y-109095014D01*
%TO.N,ENET_RXC*%
X72287308Y-100724659D02*
X95453840Y-100724659D01*
X98265000Y-103535820D02*
X98265000Y-105752594D01*
X97370036Y-106280400D02*
X97320000Y-106280400D01*
X62765481Y-110245014D02*
X64764009Y-108246486D01*
X64765481Y-108246486D02*
X72287308Y-100724659D01*
X98032194Y-105985400D02*
X97665036Y-105985400D01*
X98265000Y-105752594D02*
X98032194Y-105985400D01*
X97665036Y-105985400D02*
X97370036Y-106280400D01*
X95453840Y-100724659D02*
X98265000Y-103535820D01*
X64764009Y-108246486D02*
X64765481Y-108246486D01*
%TO.N,ENET_RX_CTL*%
X73471594Y-101562200D02*
X73446194Y-101562200D01*
X73420794Y-101536800D02*
X73369994Y-101536800D01*
X64965481Y-108379329D02*
X64965481Y-108945014D01*
X73619000Y-101709606D02*
X73471594Y-101562200D01*
X72546400Y-101776194D02*
X72515220Y-101745014D01*
X97320000Y-105630400D02*
X97615000Y-105335400D01*
X78085203Y-101709606D02*
X73619000Y-101709606D01*
X71599796Y-101745014D02*
X64965481Y-108379329D01*
X73074806Y-101511400D02*
X72810012Y-101776194D01*
X72810012Y-101776194D02*
X72546400Y-101776194D01*
X64965481Y-108945014D02*
X63965481Y-109945014D01*
X96966885Y-103072093D02*
X96966885Y-102538830D01*
X97615000Y-103720208D02*
X96966885Y-103072093D01*
X95364846Y-100936791D02*
X78858018Y-100936791D01*
X96966885Y-102538830D02*
X95364846Y-100936791D01*
X72515220Y-101745014D02*
X71599796Y-101745014D01*
X73446194Y-101562200D02*
X73420794Y-101536800D01*
X97615000Y-105335400D02*
X97615000Y-103720208D01*
X73344594Y-101511400D02*
X73074806Y-101511400D01*
X78858018Y-100936791D02*
X78085203Y-101709606D01*
X73369994Y-101536800D02*
X73344594Y-101511400D01*
%TO.N,ENET_RD0*%
X66460495Y-111000000D02*
X65915481Y-111545014D01*
X96315000Y-107745495D02*
X94825095Y-109235400D01*
X96607806Y-107225400D02*
X96315000Y-107518206D01*
X86025095Y-109235400D02*
X85465481Y-109795014D01*
X96792194Y-107225400D02*
X96607806Y-107225400D01*
X80615481Y-110095014D02*
X79315481Y-110095014D01*
X65915481Y-111545014D02*
X63593462Y-111545014D01*
X97087194Y-106930400D02*
X96792194Y-107225400D01*
X96315000Y-107518206D02*
X96315000Y-107745495D01*
X97320000Y-106930400D02*
X97087194Y-106930400D01*
X94825095Y-109235400D02*
X86025095Y-109235400D01*
X85465481Y-109795014D02*
X80915481Y-109795014D01*
X79315481Y-110095014D02*
X78410495Y-111000000D01*
X78410495Y-111000000D02*
X66460495Y-111000000D01*
X80915481Y-109795014D02*
X80615481Y-110095014D01*
%TO.N,ENET_RD2*%
X94595699Y-104042389D02*
X94595699Y-105942389D01*
X88700000Y-102017812D02*
X89847588Y-103165400D01*
X73701365Y-102952199D02*
X73802972Y-102952197D01*
X89847588Y-103165400D02*
X92196744Y-103165400D01*
X92866744Y-103835400D02*
X94388710Y-103835400D01*
X81934508Y-101954579D02*
X81997741Y-102017812D01*
X78487231Y-102895014D02*
X79427666Y-101954579D01*
X73860153Y-102895014D02*
X78487231Y-102895014D01*
X79427666Y-101954579D02*
X81934508Y-101954579D01*
X92196744Y-103165400D02*
X92866744Y-103835400D01*
X81997741Y-102017812D02*
X88700000Y-102017812D01*
X95228710Y-106575400D02*
X97675000Y-106575400D01*
X94595699Y-105942389D02*
X95228710Y-106575400D01*
X97675000Y-106575400D02*
X97970000Y-106280400D01*
X65671614Y-110553593D02*
X72917409Y-103307800D01*
X65474060Y-110553593D02*
X65671614Y-110553593D01*
X94388710Y-103835400D02*
X94595699Y-104042389D01*
X73345764Y-103307800D02*
X73701365Y-102952199D01*
X73802972Y-102952197D02*
X73860153Y-102895014D01*
X72917409Y-103307800D02*
X73345764Y-103307800D01*
%TO.N,ENET_RD1*%
X72770006Y-102507800D02*
X73014394Y-102507800D01*
X97025000Y-104268206D02*
X97025000Y-105784919D01*
X64665481Y-109695014D02*
X71708200Y-102652295D01*
X97025000Y-105784919D02*
X97165481Y-105925400D01*
X95973215Y-102086655D02*
X95973215Y-102490156D01*
X97442194Y-105925400D02*
X97737194Y-105630400D01*
X97165481Y-105925400D02*
X97442194Y-105925400D01*
X73187200Y-102334994D02*
X73187200Y-102258794D01*
X95973215Y-102490156D02*
X96375000Y-102891941D01*
X73293794Y-102152200D02*
X73471594Y-102152200D01*
X73471594Y-102152200D02*
X73628780Y-101995014D01*
X97737194Y-105630400D02*
X97970000Y-105630400D01*
X78082638Y-101995014D02*
X78940861Y-101136791D01*
X72597200Y-102334994D02*
X72770006Y-102507800D01*
X96375000Y-103618206D02*
X97025000Y-104268206D01*
X71708200Y-102370006D02*
X71980006Y-102098200D01*
X72534763Y-102098200D02*
X72597200Y-102160636D01*
X73187200Y-102258794D02*
X73293794Y-102152200D01*
X78940861Y-101136791D02*
X95023351Y-101136791D01*
X96375000Y-102891941D02*
X96375000Y-103618206D01*
X72597200Y-102160636D02*
X72597200Y-102334994D01*
X71980006Y-102098200D02*
X72534763Y-102098200D01*
X73014394Y-102507800D02*
X73187200Y-102334994D01*
X73628780Y-101995014D02*
X78082638Y-101995014D01*
X95023351Y-101136791D02*
X95973215Y-102086655D01*
X71708200Y-102652295D02*
X71708200Y-102370006D01*
%TO.N,ENET_RD3*%
X97675000Y-107225400D02*
X97970000Y-106930400D01*
X94498323Y-109845014D02*
X95794774Y-108548563D01*
X95794774Y-108548563D02*
X96769031Y-108548563D01*
X84598323Y-110945014D02*
X85698323Y-109845014D01*
X79739606Y-110945014D02*
X84598323Y-110945014D01*
X79339606Y-111345014D02*
X79739606Y-110945014D01*
X97197806Y-107225400D02*
X97675000Y-107225400D01*
X96769031Y-108548563D02*
X97025000Y-108292594D01*
X66565481Y-111345014D02*
X79339606Y-111345014D01*
X97025000Y-107398206D02*
X97197806Y-107225400D01*
X85698323Y-109845014D02*
X94498323Y-109845014D01*
X97025000Y-108292594D02*
X97025000Y-107398206D01*
%TO.N,/MPU/RTC_nRST*%
X115520000Y-97830400D02*
X115520000Y-91674533D01*
X112595000Y-97505400D02*
X113407500Y-98317900D01*
X98975000Y-105985400D02*
X98975000Y-99425400D01*
X100895000Y-97505400D02*
X112595000Y-97505400D01*
X98975000Y-99425400D02*
X100895000Y-97505400D01*
X115520000Y-91674533D02*
X113840481Y-89995014D01*
X99270000Y-106280400D02*
X98975000Y-105985400D01*
X115032500Y-98317900D02*
X115520000Y-97830400D01*
X113407500Y-98317900D02*
X115032500Y-98317900D01*
%TO.N,DRAM_DQ20*%
X101151400Y-122788600D02*
X106141246Y-122788600D01*
X99920000Y-118630400D02*
X100215000Y-118925400D01*
X106419723Y-122510123D02*
X106419723Y-122510122D01*
X111057400Y-114798692D02*
X110988354Y-114729646D01*
X111870200Y-121620200D02*
X111870200Y-117251400D01*
X100215000Y-118925400D02*
X100215000Y-121852200D01*
X107019723Y-122510122D02*
X107019723Y-122510123D01*
X106698200Y-122231645D02*
X106741246Y-122231645D01*
X111565400Y-116946600D02*
X111565400Y-115676600D01*
X100215000Y-121852200D02*
X101151400Y-122788600D01*
X110701800Y-122788600D02*
X111870200Y-121620200D01*
X107298200Y-122788600D02*
X110701800Y-122788600D01*
X111057400Y-115168600D02*
X111057400Y-114798692D01*
X111870200Y-117251400D02*
X111565400Y-116946600D01*
X111565400Y-115676600D02*
X111057400Y-115168600D01*
X106741246Y-122231645D02*
G75*
G02*
X107019655Y-122510122I-46J-278455D01*
G01*
X106419723Y-122510122D02*
G75*
G02*
X106698200Y-122231623I278477J22D01*
G01*
X106141246Y-122788600D02*
G75*
G03*
X106419700Y-122510123I-46J278500D01*
G01*
X107019723Y-122510123D02*
G75*
G03*
X107298200Y-122788577I278477J23D01*
G01*
%TO.N,DRAM_DQ5*%
X112943000Y-105124200D02*
X111847000Y-106220200D01*
X112943000Y-100524200D02*
X112943000Y-105124200D01*
X99920000Y-103030400D02*
X99920000Y-100290458D01*
X111847000Y-106220200D02*
X111847000Y-106291400D01*
X111543000Y-99124200D02*
X112943000Y-100524200D01*
X101086258Y-99124200D02*
X111543000Y-99124200D01*
X99920000Y-100290458D02*
X101086258Y-99124200D01*
%TO.N,GPIO0*%
X98945000Y-118538206D02*
X98712194Y-118305400D01*
X97645000Y-116355400D02*
X97320000Y-116030400D01*
X100920000Y-124031400D02*
X99320000Y-122431400D01*
X99320000Y-122431400D02*
X99320000Y-121280400D01*
X98712194Y-118305400D02*
X97877806Y-118305400D01*
X122600000Y-124031400D02*
X100920000Y-124031400D01*
X97645000Y-118072594D02*
X97645000Y-116355400D01*
X97877806Y-118305400D02*
X97645000Y-118072594D01*
X99320000Y-121280400D02*
X98945000Y-120905400D01*
X98945000Y-120905400D02*
X98945000Y-118538206D01*
%TO.N,/MPU/RTC_CLK*%
X114870000Y-97830400D02*
X113202843Y-97830400D01*
X112677843Y-97305400D02*
X100812157Y-97305400D01*
X98620000Y-99497557D02*
X98620000Y-104980400D01*
X113202843Y-97830400D02*
X112677843Y-97305400D01*
X100812157Y-97305400D02*
X98620000Y-99497557D01*
%TD*%
%TA.AperFunction,Conductor*%
%TO.N,GND*%
G36*
X59007602Y-85665016D02*
G01*
X59054095Y-85718672D01*
X59065481Y-85771014D01*
X59065481Y-112354776D01*
X59045479Y-112422897D01*
X59016217Y-112453141D01*
X59012182Y-112457696D01*
X58996438Y-112487693D01*
X58994570Y-112491006D01*
X58977034Y-112520014D01*
X58976871Y-112520538D01*
X58976161Y-112522251D01*
X58975955Y-112523089D01*
X58974936Y-112526747D01*
X58974677Y-112527576D01*
X58974400Y-112529399D01*
X58974269Y-112529930D01*
X58974269Y-112563822D01*
X58974154Y-112567627D01*
X58972107Y-112601450D01*
X58972204Y-112601975D01*
X58974269Y-112624692D01*
X58974269Y-115592813D01*
X58972205Y-115615525D01*
X58969627Y-115629594D01*
X58979705Y-115661934D01*
X58980727Y-115665601D01*
X58988839Y-115698513D01*
X58989096Y-115699002D01*
X58989803Y-115700709D01*
X58990243Y-115701437D01*
X58992115Y-115704755D01*
X58992519Y-115705525D01*
X58993614Y-115707013D01*
X58993897Y-115707482D01*
X58993898Y-115707483D01*
X58993899Y-115707484D01*
X59017866Y-115731451D01*
X59020458Y-115734205D01*
X59025118Y-115739464D01*
X59033791Y-115749254D01*
X59063993Y-115813503D01*
X59065481Y-115832809D01*
X59065481Y-124819014D01*
X59045479Y-124887135D01*
X58991823Y-124933628D01*
X58939481Y-124945014D01*
X58716981Y-124945014D01*
X58648860Y-124925012D01*
X58602367Y-124871356D01*
X58590981Y-124819014D01*
X58590981Y-85771014D01*
X58610983Y-85702893D01*
X58664639Y-85656400D01*
X58716981Y-85645014D01*
X58939481Y-85645014D01*
X59007602Y-85665016D01*
G37*
%TD.AperFunction*%
%TD*%
%TA.AperFunction,Conductor*%
%TO.N,GND*%
G36*
X133002002Y-78590516D02*
G01*
X133048495Y-78644172D01*
X133059881Y-78696514D01*
X133059881Y-78919014D01*
X133039879Y-78987135D01*
X132986223Y-79033628D01*
X132933881Y-79045014D01*
X66091481Y-79045014D01*
X66023360Y-79025012D01*
X65976867Y-78971356D01*
X65965481Y-78919014D01*
X65965481Y-78696514D01*
X65985483Y-78628393D01*
X66039139Y-78581900D01*
X66091481Y-78570514D01*
X132933881Y-78570514D01*
X133002002Y-78590516D01*
G37*
%TD.AperFunction*%
%TD*%
%TA.AperFunction,Conductor*%
%TO.N,GND*%
G36*
X140482102Y-84610216D02*
G01*
X140528595Y-84663872D01*
X140539981Y-84716214D01*
X140539981Y-123815014D01*
X140519979Y-123883135D01*
X140466323Y-123929628D01*
X140413981Y-123941014D01*
X140191481Y-123941014D01*
X140123360Y-123921012D01*
X140076867Y-123867356D01*
X140065481Y-123815014D01*
X140065481Y-84716214D01*
X140085483Y-84648093D01*
X140139139Y-84601600D01*
X140191481Y-84590214D01*
X140413981Y-84590214D01*
X140482102Y-84610216D01*
G37*
%TD.AperFunction*%
%TD*%
%TA.AperFunction,Conductor*%
%TO.N,GND*%
G36*
X132903602Y-131065016D02*
G01*
X132950095Y-131118672D01*
X132961481Y-131171014D01*
X132961481Y-131393514D01*
X132941479Y-131461635D01*
X132887823Y-131508128D01*
X132835481Y-131519514D01*
X66291481Y-131519514D01*
X66223360Y-131499512D01*
X66176867Y-131445856D01*
X66165481Y-131393514D01*
X66165481Y-131171014D01*
X66185483Y-131102893D01*
X66239139Y-131056400D01*
X66291481Y-131045014D01*
X132835481Y-131045014D01*
X132903602Y-131065016D01*
G37*
%TD.AperFunction*%
%TD*%
M02*
