M48
; DRILL file {KiCad 7.99.0-2419-g7f14b70ac3} date 2023-09-02T02:09:26+0200
; FORMAT={-:-/ absolute / inch / decimal}
; #@! TF.CreationDate,2023-09-02T02:09:26+02:00
; #@! TF.GenerationSoftware,Kicad,Pcbnew,7.99.0-2419-g7f14b70ac3
; #@! TF.FileFunction,Plated,1,8,PTH
FMAT,2
INCH
; #@! TA.AperFunction,Plated,PTH,ViaDrill
T1C0.0030
; #@! TA.AperFunction,Plated,PTH,ViaDrill
T2C0.0059
; #@! TA.AperFunction,Plated,PTH,ViaDrill
T3C0.0079
; #@! TA.AperFunction,Plated,PTH,ComponentDrill
T4C0.0079
; #@! TA.AperFunction,Plated,PTH,ViaDrill
T5C0.0157
; #@! TA.AperFunction,Plated,PTH,ComponentDrill
T6C0.0197
; #@! TA.AperFunction,Plated,PTH,ComponentDrill
T7C0.1063
%
G90
G05
T1
X4.0362Y-4.261
T2
X2.3104Y-3.382
X2.3104Y-3.4213
X2.3104Y-3.4607
X2.3104Y-3.5001
X2.3104Y-3.5395
X2.3104Y-3.5788
X2.3104Y-3.6182
X2.3104Y-3.6576
X2.3104Y-3.6969
X2.3104Y-3.7363
X2.3108Y-3.7685
X2.3108Y-3.8079
X2.3108Y-3.8472
X2.3108Y-3.8866
X2.3108Y-3.926
X2.3108Y-3.9654
X2.3108Y-4.0047
X2.3108Y-4.0441
X2.3108Y-4.0835
X2.3108Y-4.1228
X2.3108Y-4.1622
X2.3108Y-4.2016
X2.3108Y-4.2409
X2.3108Y-4.2803
X2.3108Y-4.3197
X2.3108Y-4.3591
X2.3108Y-4.3984
X2.3108Y-4.4378
X2.3108Y-4.4772
X2.3108Y-4.5165
X2.3108Y-4.5559
X2.3108Y-4.5953
X2.3108Y-4.6346
X2.3108Y-4.674
X2.3108Y-4.7134
X2.3108Y-4.7528
X2.3108Y-4.7921
X2.3108Y-4.8315
X2.3108Y-4.8709
X2.3108Y-4.9102
X2.3451Y-4.547
X2.3608Y-3.4545
X2.3618Y-4.5382
X2.3929Y-3.8994
X2.4119Y-4.3896
X2.4142Y-3.3713
X2.4142Y-3.4185
X2.4205Y-3.5061
X2.4457Y-3.3319
X2.464Y-3.5957
X2.4711Y-4.3404
X2.5037Y-4.3915
X2.5183Y-4.3285
X2.5323Y-3.3319
X2.5372Y-3.4835
X2.5459Y-4.3187
X2.5638Y-3.8541
X2.5638Y-3.2847
X2.5777Y-4.3525
X2.6207Y-4.3837
X2.6254Y-5.1723
X2.6257Y-3.0992
X2.6648Y-5.1723
X2.6651Y-3.0992
X2.7041Y-5.1723
X2.7045Y-3.0992
X2.7435Y-5.1723
X2.7438Y-3.0992
X2.7829Y-5.1723
X2.7832Y-3.0992
X2.8222Y-5.1723
X2.8226Y-3.0992
X2.8463Y-3.5317
X2.8468Y-4.0321
X2.8477Y-4.5215
X2.8477Y-4.5392
X2.8477Y-4.5687
X2.8477Y-4.5864
X2.8477Y-4.6159
X2.8477Y-4.6337
X2.8477Y-4.6632
X2.8477Y-4.6809
X2.8616Y-5.1723
X2.8619Y-3.0992
X2.865Y-3.4746
X2.8698Y-4.0241
X2.8878Y-4.0101
X2.901Y-5.1723
X2.9013Y-3.0992
X2.9404Y-5.1723
X2.9407Y-3.0992
X2.9801Y-3.0992
X2.9801Y-5.172
X3.006Y-4.1404
X3.0194Y-3.0992
X3.0194Y-5.172
X3.038Y-5.0484
X3.0588Y-3.0992
X3.0588Y-5.172
X3.066Y-4.1104
X3.0812Y-4.9462
X3.0951Y-4.9601
X3.0971Y-5.0494
X3.0982Y-3.0992
X3.0982Y-5.172
X3.1375Y-3.0992
X3.1375Y-5.172
X3.143Y-4.9462
X3.1561Y-5.0484
X3.157Y-4.9601
X3.1758Y-5.0484
X3.1769Y-3.0992
X3.1769Y-5.172
X3.1955Y-5.0494
X3.197Y-4.9525
X3.2109Y-4.9664
X3.2152Y-5.0484
X3.2163Y-3.0992
X3.2163Y-5.172
X3.2545Y-5.0494
X3.2556Y-3.0992
X3.2556Y-5.172
X3.2576Y-4.8271
X3.2695Y-4.9284
X3.2715Y-4.8131
X3.2742Y-5.0494
X3.2852Y-4.9234
X3.295Y-3.0992
X3.295Y-5.172
X3.3127Y-4.8192
X3.3266Y-4.8053
X3.3333Y-5.0494
X3.3344Y-3.0992
X3.3344Y-5.172
X3.3394Y-4.9118
X3.3514Y-4.9438
X3.3709Y-3.3217
X3.3717Y-5.0528
X3.3738Y-3.0992
X3.3738Y-5.172
X3.3757Y-4.8271
X3.3896Y-4.8131
X3.3923Y-5.0494
X3.3971Y-4.9526
X3.4014Y-4.4388
X3.4086Y-4.4222
X3.4086Y-5.0536
X3.4131Y-3.0992
X3.4131Y-5.172
X3.4161Y-4.6488
X3.422Y-4.0563
X3.422Y-4.0819
X3.422Y-4.2354
X3.422Y-4.261
X3.422Y-4.2866
X3.422Y-4.3122
X3.422Y-4.3634
X3.422Y-4.389
X3.4239Y-4.4128
X3.4387Y-4.829
X3.4417Y-4.6764
X3.4476Y-4.0563
X3.4476Y-4.2354
X3.4476Y-4.261
X3.4476Y-4.2866
X3.4476Y-4.3122
X3.4476Y-4.3634
X3.4476Y-4.389
X3.4495Y-4.4128
X3.4514Y-5.0494
X3.4525Y-3.0992
X3.4525Y-5.172
X3.4526Y-4.8151
X3.4526Y-4.9126
X3.4669Y-4.9499
X3.4732Y-4.2354
X3.4732Y-4.261
X3.4732Y-4.2866
X3.4732Y-4.389
X3.4732Y-4.4146
X3.4732Y-4.4658
X3.4732Y-4.4914
X3.4732Y-4.5425
X3.4732Y-4.5681
X3.4732Y-4.5937
X3.4908Y-5.0494
X3.4919Y-3.0992
X3.4919Y-5.172
X3.4978Y-4.8271
X3.4988Y-4.261
X3.4988Y-4.2866
X3.4988Y-4.3122
X3.4988Y-4.3378
X3.4988Y-4.389
X3.4988Y-4.4146
X3.4988Y-4.4402
X3.4988Y-4.4914
X3.4988Y-4.5169
X3.4988Y-4.5425
X3.4988Y-4.5681
X3.4988Y-4.5937
X3.4988Y-4.6193
X3.5021Y-4.9519
X3.5106Y-5.0484
X3.5117Y-4.8131
X3.5244Y-4.2354
X3.5244Y-4.3122
X3.5244Y-4.389
X3.5244Y-4.4146
X3.5244Y-4.4402
X3.5244Y-4.4914
X3.5244Y-4.5169
X3.5244Y-4.5425
X3.5244Y-4.6193
X3.5244Y-4.6449
X3.5303Y-5.0484
X3.5312Y-3.0992
X3.5312Y-5.172
X3.5489Y-4.8251
X3.55Y-4.1331
X3.55Y-4.1843
X3.55Y-4.2099
X3.55Y-4.2354
X3.55Y-4.261
X3.55Y-4.2866
X3.55Y-4.3378
X3.55Y-4.389
X3.55Y-4.4146
X3.55Y-4.4402
X3.55Y-4.4914
X3.55Y-4.5425
X3.55Y-4.5937
X3.5629Y-4.8112
X3.5706Y-3.0992
X3.5706Y-5.172
X3.5756Y-4.1075
X3.5756Y-4.1331
X3.5756Y-4.1587
X3.5756Y-4.1843
X3.5756Y-4.2099
X3.5756Y-4.261
X3.5756Y-4.3122
X3.5756Y-4.3378
X3.5756Y-4.389
X3.5756Y-4.4146
X3.5756Y-4.4402
X3.5756Y-4.4658
X3.5756Y-4.4914
X3.5756Y-4.5169
X3.5756Y-4.5425
X3.5892Y-5.0494
X3.6008Y-4.05
X3.6012Y-4.1075
X3.6012Y-4.1331
X3.6012Y-4.1587
X3.6012Y-4.1843
X3.6012Y-4.2099
X3.6012Y-4.2354
X3.6012Y-4.261
X3.6012Y-4.3122
X3.6012Y-4.3378
X3.6012Y-4.389
X3.6012Y-4.4146
X3.6012Y-4.4658
X3.6012Y-4.4914
X3.6012Y-4.5425
X3.6089Y-5.049
X3.61Y-4.8231
X3.61Y-3.0992
X3.61Y-5.172
X3.611Y-4.037
X3.6239Y-4.8092
X3.6256Y-4.0488
X3.6268Y-4.1075
X3.6268Y-4.1331
X3.6268Y-4.1587
X3.6268Y-4.1843
X3.6268Y-4.2099
X3.6268Y-4.2354
X3.6268Y-4.261
X3.6268Y-4.2866
X3.6268Y-4.3122
X3.6268Y-4.3378
X3.6268Y-4.389
X3.6268Y-4.4146
X3.6268Y-4.4658
X3.6268Y-4.4914
X3.6268Y-4.5169
X3.6268Y-4.5425
X3.6268Y-4.5681
X3.6286Y-5.049
X3.6409Y-4.0476
X3.6482Y-5.0494
X3.6493Y-3.0992
X3.6493Y-5.172
X3.6504Y-4.0327
X3.6524Y-4.1331
X3.6524Y-4.1587
X3.6524Y-4.1843
X3.6524Y-4.2099
X3.6524Y-4.2354
X3.6524Y-4.261
X3.6524Y-4.2866
X3.6524Y-4.3122
X3.6524Y-4.3378
X3.6524Y-4.389
X3.6524Y-4.4402
X3.6524Y-4.4658
X3.6524Y-4.4914
X3.6524Y-4.5169
X3.6524Y-4.5425
X3.6524Y-4.5681
X3.663Y-3.5685
X3.6647Y-4.0265
X3.6679Y-5.0494
X3.671Y-4.8231
X3.6771Y-4.0584
X3.678Y-4.1075
X3.678Y-4.1331
X3.678Y-4.1587
X3.678Y-4.1843
X3.678Y-4.2099
X3.678Y-4.261
X3.678Y-4.2866
X3.678Y-4.3122
X3.678Y-4.3378
X3.678Y-4.389
X3.678Y-4.4402
X3.678Y-4.4658
X3.678Y-4.4914
X3.678Y-4.5169
X3.678Y-4.5425
X3.678Y-4.5681
X3.6849Y-4.8092
X3.6876Y-5.0494
X3.6883Y-4.0328
X3.6887Y-3.0992
X3.6887Y-5.172
X3.7035Y-4.1075
X3.7035Y-4.1331
X3.7035Y-4.1587
X3.7035Y-4.1843
X3.7035Y-4.2099
X3.7035Y-4.2354
X3.7035Y-4.261
X3.7035Y-4.2866
X3.7035Y-4.3122
X3.7035Y-4.3378
X3.7035Y-4.389
X3.7035Y-4.4402
X3.7035Y-4.4658
X3.7035Y-4.4914
X3.7035Y-4.5169
X3.7035Y-4.5425
X3.7035Y-4.5681
X3.7035Y-4.6449
X3.7073Y-5.0494
X3.727Y-5.0502
X3.7281Y-3.0992
X3.7281Y-5.172
X3.7291Y-4.2354
X3.7294Y-4.0001
X3.738Y-3.4835
X3.7467Y-4.952
X3.7467Y-5.0502
X3.7499Y-4.0392
X3.7547Y-4.1075
X3.7547Y-4.1587
X3.7547Y-4.1843
X3.7547Y-4.2354
X3.7547Y-4.261
X3.7547Y-4.3122
X3.7547Y-4.3378
X3.7547Y-4.4146
X3.7547Y-4.4402
X3.7547Y-4.4658
X3.7547Y-4.4914
X3.7547Y-4.5425
X3.7547Y-4.5681
X3.7547Y-4.5937
X3.7547Y-4.6193
X3.7547Y-4.6449
X3.7664Y-4.952
X3.7671Y-4.0419
X3.7675Y-3.0992
X3.7675Y-5.172
X3.7791Y-4.6717
X3.7803Y-4.0536
X3.7803Y-4.1075
X3.7803Y-4.1331
X3.7803Y-4.1587
X3.7803Y-4.1843
X3.7803Y-4.2099
X3.7803Y-4.2354
X3.7803Y-4.2866
X3.7803Y-4.3378
X3.7803Y-4.389
X3.7803Y-4.4402
X3.7803Y-4.4658
X3.7803Y-4.4914
X3.7803Y-4.5425
X3.7803Y-4.5681
X3.7803Y-4.5937
X3.7803Y-4.6193
X3.7803Y-4.6449
X3.786Y-5.0494
X3.7944Y-4.0329
X3.8057Y-4.952
X3.8057Y-5.0494
X3.8059Y-4.0563
X3.8059Y-4.1075
X3.8059Y-4.1331
X3.8059Y-4.1587
X3.8059Y-4.1843
X3.8059Y-4.2099
X3.8059Y-4.2354
X3.8059Y-4.261
X3.8059Y-4.2866
X3.8059Y-4.3122
X3.8059Y-4.3378
X3.8059Y-4.389
X3.8059Y-4.4146
X3.8059Y-4.4402
X3.8059Y-4.4658
X3.8059Y-4.5169
X3.8059Y-4.5425
X3.8059Y-4.5681
X3.8059Y-4.6193
X3.8059Y-4.6449
X3.8068Y-3.0992
X3.8068Y-5.172
X3.8254Y-4.952
X3.8254Y-5.0494
X3.8315Y-4.0554
X3.8315Y-4.1075
X3.8315Y-4.1331
X3.8315Y-4.1587
X3.8315Y-4.1843
X3.8315Y-4.2099
X3.8315Y-4.2354
X3.8315Y-4.261
X3.8315Y-4.3122
X3.8315Y-4.3378
X3.8315Y-4.389
X3.8315Y-4.4146
X3.8315Y-4.4402
X3.8315Y-4.4658
X3.8315Y-4.5169
X3.8315Y-4.5425
X3.8315Y-4.5681
X3.8315Y-4.5937
X3.8315Y-4.6449
X3.8319Y-4.023
X3.8451Y-5.0494
X3.8462Y-3.0992
X3.8462Y-5.172
X3.8571Y-4.1075
X3.8571Y-4.1331
X3.8571Y-4.1587
X3.8571Y-4.1843
X3.8571Y-4.2099
X3.8571Y-4.2354
X3.8571Y-4.2866
X3.8571Y-4.3122
X3.8571Y-4.3378
X3.8571Y-4.389
X3.8571Y-4.4146
X3.8571Y-4.4658
X3.8571Y-4.4914
X3.8571Y-4.5169
X3.8571Y-4.5425
X3.8571Y-4.5681
X3.8571Y-4.5937
X3.8571Y-4.6193
X3.8571Y-4.6449
X3.8648Y-4.952
X3.8648Y-5.0494
X3.8827Y-4.1331
X3.8827Y-4.1587
X3.8827Y-4.1843
X3.8827Y-4.2099
X3.8827Y-4.261
X3.8827Y-4.3122
X3.8827Y-4.3378
X3.8827Y-4.389
X3.8827Y-4.4146
X3.8827Y-4.4402
X3.8827Y-4.4658
X3.8827Y-4.4914
X3.8827Y-4.5425
X3.8827Y-4.5681
X3.8827Y-4.5937
X3.8827Y-4.6193
X3.8827Y-4.6449
X3.8845Y-4.952
X3.8845Y-5.0494
X3.8856Y-3.0992
X3.8856Y-5.172
X3.9042Y-5.0494
X3.9083Y-4.0563
X3.9083Y-4.0819
X3.9083Y-4.1075
X3.9083Y-4.1587
X3.9083Y-4.1843
X3.9083Y-4.2354
X3.9083Y-4.261
X3.9083Y-4.2866
X3.9083Y-4.3122
X3.9083Y-4.3378
X3.9083Y-4.389
X3.9083Y-4.4146
X3.9083Y-4.4402
X3.9083Y-4.4658
X3.9083Y-4.5169
X3.9083Y-4.5425
X3.9083Y-4.5681
X3.9083Y-4.5937
X3.9083Y-4.6193
X3.9083Y-4.6449
X3.9238Y-4.952
X3.9238Y-5.0494
X3.9249Y-3.0992
X3.9249Y-5.172
X3.9339Y-4.0563
X3.9339Y-4.0819
X3.9339Y-4.1075
X3.9339Y-4.1331
X3.9339Y-4.1587
X3.9339Y-4.1843
X3.9339Y-4.2099
X3.9339Y-4.2354
X3.9339Y-4.261
X3.9339Y-4.2866
X3.9339Y-4.3122
X3.9339Y-4.3378
X3.9339Y-4.389
X3.9339Y-4.4146
X3.9339Y-4.4402
X3.9339Y-4.4914
X3.9339Y-4.5169
X3.9339Y-4.5425
X3.9339Y-4.5681
X3.9339Y-4.5937
X3.9339Y-4.6193
X3.9339Y-4.6449
X3.9339Y-4.6705
X3.9339Y-4.6961
X3.9435Y-4.952
X3.9501Y-3.9158
X3.9594Y-4.0563
X3.9594Y-4.0819
X3.9594Y-4.1075
X3.9594Y-4.1587
X3.9594Y-4.1843
X3.9594Y-4.2099
X3.9594Y-4.2354
X3.9594Y-4.261
X3.9594Y-4.2866
X3.9594Y-4.3122
X3.9594Y-4.3378
X3.9594Y-4.389
X3.9594Y-4.4146
X3.9594Y-4.4402
X3.9594Y-4.4658
X3.9594Y-4.4914
X3.9594Y-4.5169
X3.9594Y-4.5425
X3.9594Y-4.5681
X3.9594Y-4.5937
X3.9594Y-4.6193
X3.9594Y-4.6449
X3.9594Y-4.6705
X3.9594Y-4.6961
X3.9643Y-3.0992
X3.9643Y-5.172
X3.9829Y-4.95
X3.9829Y-5.0494
X3.985Y-4.0563
X3.985Y-4.0819
X3.985Y-4.1075
X3.985Y-4.1331
X3.985Y-4.1587
X3.985Y-4.1843
X3.985Y-4.2099
X3.985Y-4.2354
X3.985Y-4.261
X3.985Y-4.2866
X3.985Y-4.389
X3.985Y-4.4146
X3.985Y-4.4658
X3.985Y-4.4914
X3.985Y-4.5169
X3.985Y-4.5425
X3.985Y-4.5681
X3.985Y-4.5937
X3.985Y-4.6193
X3.985Y-4.6449
X3.985Y-4.6705
X3.985Y-4.6961
X4.0026Y-4.95
X4.0026Y-5.0494
X4.0037Y-3.0992
X4.0037Y-5.172
X4.0063Y-4.7162
X4.0106Y-4.1587
X4.0106Y-4.1843
X4.0106Y-4.261
X4.0106Y-4.2866
X4.0106Y-4.3122
X4.0106Y-4.3378
X4.0106Y-4.389
X4.0106Y-4.4146
X4.0106Y-4.4658
X4.0106Y-4.5425
X4.0106Y-4.5681
X4.0106Y-4.5937
X4.0192Y-4.0027
X4.0203Y-4.7062
X4.0223Y-5.0494
X4.0314Y-4.015
X4.0362Y-4.1587
X4.0362Y-4.2099
X4.0362Y-4.2354
X4.0362Y-4.2866
X4.0362Y-4.3122
X4.0362Y-4.389
X4.0362Y-4.4402
X4.0362Y-4.4658
X4.0362Y-4.4914
X4.0362Y-4.5169
X4.0362Y-4.5681
X4.0362Y-4.6193
X4.0362Y-4.6449
X4.0419Y-4.952
X4.0419Y-5.0494
X4.043Y-3.0992
X4.043Y-5.172
X4.0616Y-4.952
X4.0618Y-4.1075
X4.0618Y-4.1331
X4.0618Y-4.261
X4.0618Y-4.4402
X4.0618Y-4.5169
X4.0746Y-4.1715
X4.0746Y-4.325
X4.0746Y-4.5681
X4.0813Y-5.0494
X4.0824Y-3.0992
X4.0824Y-5.172
X4.0874Y-4.2227
X4.0874Y-4.5425
X4.0874Y-4.6193
X4.1002Y-4.1075
X4.1002Y-4.1587
X4.1002Y-4.453
X4.101Y-5.0494
X4.1051Y-4.5182
X4.113Y-4.2227
X4.1207Y-5.0494
X4.1218Y-3.0992
X4.1218Y-5.172
X4.1258Y-4.5681
X4.1404Y-5.0494
X4.1601Y-5.0494
X4.1612Y-3.0992
X4.1612Y-5.172
X4.1797Y-5.0494
X4.1994Y-5.0494
X4.2005Y-3.0992
X4.2005Y-5.172
X4.2191Y-5.0494
X4.2234Y-4.2247
X4.2399Y-3.0992
X4.2399Y-5.172
X4.2426Y-4.516
X4.2434Y-4.1347
X4.2434Y-4.1597
X4.2434Y-4.2297
X4.2434Y-4.2597
X4.2434Y-4.3147
X4.2466Y-4.568
X4.2486Y-4.442
X4.2726Y-4.516
X4.2734Y-4.1097
X4.2734Y-4.3097
X4.2746Y-4.594
X4.2766Y-4.418
X4.2766Y-4.62
X4.2777Y-4.3946
X4.2784Y-4.1597
X4.2784Y-4.1847
X4.2784Y-4.2097
X4.2784Y-4.2347
X4.2784Y-4.2597
X4.2793Y-3.0992
X4.2793Y-5.172
X4.2883Y-3.2777
X4.3028Y-3.3512
X4.3034Y-4.2647
X4.3042Y-4.0831
X4.3046Y-4.286
X4.3046Y-4.464
X4.3066Y-4.518
X4.3066Y-4.62
X4.3078Y-4.5431
X4.3084Y-4.1097
X4.3084Y-4.1347
X4.3084Y-4.1847
X4.3084Y-4.2097
X4.3084Y-4.2347
X4.3084Y-4.3147
X4.3086Y-4.412
X4.3086Y-4.49
X4.3086Y-4.598
X4.3156Y-3.5175
X4.3186Y-3.0992
X4.3186Y-5.172
X4.3383Y-4.5182
X4.3384Y-4.1847
X4.3384Y-4.2597
X4.3384Y-4.2847
X4.3384Y-4.3147
X4.3403Y-4.1584
X4.3403Y-4.4642
X4.3426Y-4.492
X4.3506Y-4.0735
X4.358Y-3.0992
X4.358Y-5.172
X4.3606Y-4.65
X4.3684Y-4.1097
X4.3684Y-4.1597
X4.3684Y-4.2097
X4.3684Y-4.2597
X4.3684Y-4.2847
X4.3684Y-4.3097
X4.3686Y-4.6232
X4.3696Y-4.5169
X4.3706Y-4.416
X4.3713Y-4.5882
X4.3721Y-4.4707
X4.3726Y-4.44
X4.3874Y-4.0699
X4.3963Y-4.4162
X4.3974Y-3.0992
X4.3974Y-5.172
X4.3983Y-4.5422
X4.4006Y-4.202
X4.4034Y-4.1097
X4.4034Y-4.1329
X4.4034Y-4.1847
X4.4034Y-4.2497
X4.4046Y-4.44
X4.4047Y-4.5922
X4.4063Y-4.3082
X4.4084Y-4.2847
X4.4203Y-4.5422
X4.4284Y-4.1847
X4.4286Y-4.206
X4.4368Y-3.0992
X4.4368Y-5.172
X4.4435Y-3.6711
X4.4584Y-4.1447
X4.4584Y-4.2197
X4.4607Y-4.188
X4.4616Y-4.2679
X4.4634Y-4.2447
X4.4643Y-4.291
X4.4655Y-4.4908
X4.4663Y-4.6182
X4.4666Y-4.442
X4.469Y-4.5937
X4.4691Y-3.8374
X4.4704Y-4.5661
X4.475Y-5.0165
X4.475Y-5.0343
X4.4761Y-3.0992
X4.4761Y-5.172
X4.4819Y-3.5431
X4.4934Y-4.1547
X4.4934Y-4.1847
X4.4943Y-4.5422
X4.4949Y-4.2906
X4.4963Y-4.6202
X4.4976Y-4.4414
X4.4984Y-4.1047
X4.4984Y-4.2097
X4.4984Y-4.2647
X4.5146Y-4.078
X4.5155Y-3.0992
X4.5155Y-5.172
X4.5224Y-3.8516
X4.5234Y-4.3347
X4.5239Y-3.7929
X4.5243Y-4.5402
X4.5251Y-4.16
X4.526Y-4.4892
X4.5263Y-4.5142
X4.5263Y-4.6387
X4.5266Y-4.44
X4.5266Y-4.466
X4.5272Y-4.4099
X4.5284Y-4.1847
X4.5284Y-4.2097
X4.5284Y-4.2347
X4.5284Y-4.2847
X4.5341Y-4.922
X4.5341Y-4.9398
X4.5534Y-4.3097
X4.5534Y-4.3347
X4.5543Y-4.5142
X4.5549Y-3.0992
X4.5549Y-5.172
X4.5584Y-4.0797
X4.5584Y-4.1097
X4.5584Y-4.1347
X4.5584Y-4.1847
X4.5584Y-4.2097
X4.5584Y-4.2347
X4.5586Y-4.438
X4.559Y-4.3859
X4.5603Y-4.5422
X4.5606Y-4.466
X4.5607Y-4.5935
X4.5607Y-4.621
X4.5634Y-4.2597
X4.5634Y-4.2897
X4.5736Y-4.0563
X4.5743Y-4.6682
X4.5883Y-4.5142
X4.5884Y-4.1847
X4.5884Y-4.2097
X4.5884Y-4.3097
X4.5886Y-4.438
X4.5903Y-4.5382
X4.5934Y-4.2397
X4.5942Y-3.0992
X4.5942Y-5.172
X4.6128Y-4.9929
X4.6128Y-5.0106
X4.6184Y-4.2097
X4.6184Y-4.2347
X4.6196Y-4.108
X4.6203Y-4.5942
X4.6234Y-4.2897
X4.6234Y-4.1397
X4.6234Y-4.4947
X4.6336Y-3.0992
X4.6336Y-5.172
X4.6396Y-3.8047
X4.6396Y-3.8421
X4.6522Y-4.9457
X4.6522Y-4.9634
X4.673Y-3.0992
X4.673Y-5.172
X4.7123Y-3.0992
X4.7123Y-5.172
X4.7517Y-3.0992
X4.7517Y-5.172
X4.7911Y-3.0992
X4.7911Y-5.172
X4.8305Y-3.0992
X4.8305Y-5.172
X4.8698Y-3.0992
X4.8698Y-5.172
X4.906Y-3.6474
X4.9064Y-3.1003
X4.9092Y-5.172
X4.9159Y-3.1278
X4.9277Y-3.6474
X4.9434Y-3.6297
X4.9457Y-3.1003
X4.9851Y-3.1003
X5.0245Y-3.1003
X5.0273Y-5.172
X5.0638Y-3.1003
X5.1032Y-3.1003
X5.106Y-5.172
X5.1236Y-3.1583
X5.1426Y-3.1003
X5.1454Y-5.172
X5.1629Y-3.1583
X5.1698Y-3.2478
X5.1819Y-3.1003
X5.1848Y-5.172
X5.2023Y-3.1583
X5.2213Y-3.1003
X5.2242Y-5.172
X5.2635Y-5.172
X5.4663Y-4.6346
X5.4663Y-4.674
X5.4663Y-4.7134
X5.4663Y-4.7528
X5.4663Y-4.7921
X5.4663Y-4.8315
X5.4663Y-4.8709
X5.4978Y-4.5618
X5.5244Y-4.5043
X5.5244Y-4.5437
X5.5244Y-4.583
X5.5244Y-4.6224
X5.5244Y-4.6618
X5.5244Y-4.7012
X5.5244Y-4.7405
X5.5244Y-4.7799
X5.5244Y-4.8193
X5.5244Y-4.8586
X5.5244Y-3.3555
X5.5244Y-3.3949
X5.5244Y-3.4264
X5.5244Y-3.4579
X5.5244Y-3.4894
X5.5244Y-3.5209
X5.5253Y-3.5579
X5.5253Y-3.5972
X5.5253Y-3.6366
X5.5253Y-3.676
X5.5253Y-3.7154
X5.5253Y-3.7547
X5.5253Y-3.9533
X5.5253Y-3.9927
X5.5253Y-4.0303
X5.5253Y-4.0697
X5.5253Y-4.1091
X5.5253Y-4.1484
X5.5253Y-4.1878
X5.5253Y-4.2272
X5.5253Y-4.2665
X5.5253Y-4.3059
X5.5253Y-4.3453
X5.5253Y-4.3846
X5.5253Y-4.424
X5.5253Y-4.4634
T3
X2.3411Y-4.4979
X2.3442Y-4.798
X2.3451Y-4.4506
X2.358Y-4.6957
X2.36Y-4.8768
X2.3648Y-4.6514
X2.3698Y-4.4909
X2.3698Y-4.5224
X2.3718Y-4.6012
X2.3718Y-4.6799
X2.3993Y-4.7941
X2.3993Y-4.8768
X2.4249Y-4.4063
X2.4304Y-4.8315
X2.4304Y-4.8906
X2.4304Y-4.9299
X2.4731Y-3.3768
X2.4731Y-3.4152
X2.4731Y-3.4535
X2.4731Y-3.4919
X2.4731Y-3.5303
X2.4776Y-4.9496
X2.4933Y-4.7882
X2.4986Y-3.3768
X2.4986Y-3.4152
X2.4986Y-3.4535
X2.4986Y-3.4919
X2.4986Y-3.5303
X2.5194Y-4.4063
X2.5194Y-4.7646
X2.5352Y-4.7783
X2.5509Y-4.7685
X2.5667Y-4.7783
X2.5824Y-4.7651
X2.5859Y-4.9535
X2.6139Y-4.4063
X2.6375Y-4.8197
X2.6744Y-4.9535
X2.6769Y-4.7646
X2.7104Y-4.7882
X2.7301Y-4.4594
X2.7301Y-4.5067
X2.7301Y-4.5539
X2.7301Y-4.6012
X2.7301Y-4.6484
X2.7301Y-4.6957
X2.7414Y-4.8197
X2.7556Y-4.7606
X2.7867Y-4.8748
X2.7867Y-4.9299
X2.9606Y-4.4242
X2.9611Y-4.247
X2.9685Y-4.1624
X2.9882Y-4.1624
X3.0157Y-4.4695
X3.0229Y-4.1704
X3.0354Y-4.1504
X3.0354Y-4.3986
X3.0354Y-4.4695
X3.0394Y-4.2963
X3.0394Y-4.4242
X3.048Y-4.1704
X3.053Y-4.2548
X3.0551Y-4.3986
X3.0551Y-4.4695
X3.0684Y-4.1386
X3.0728Y-4.3356
X3.0728Y-4.3573
X3.0748Y-4.253
X3.0748Y-4.2923
X3.0748Y-4.3986
X3.0748Y-4.4695
X3.086Y-4.1504
X3.0945Y-4.1821
X3.1142Y-4.1821
X3.1265Y-4.3626
X3.1339Y-4.3159
X3.1535Y-4.1821
X3.1732Y-4.1821
X3.1732Y-4.3474
X3.1752Y-4.2667
X3.1772Y-4.3868
X3.2496Y-3.7524
X3.3303Y-3.3768
X3.3303Y-3.4152
X3.3303Y-3.4535
X3.3303Y-3.4919
X3.3303Y-3.5303
X3.3687Y-3.3768
X3.3687Y-3.4152
X3.3687Y-3.4535
X3.3687Y-3.4919
X3.3687Y-3.5303
X4.2549Y-3.4177
X4.2549Y-3.4571
X4.2941Y-3.4568
X4.3028Y-3.428
X4.3335Y-3.4568
X4.3678Y-3.2058
X4.3729Y-3.4568
X4.3795Y-3.364
X4.3795Y-3.4024
X4.4122Y-3.4568
X4.4435Y-3.4152
X4.4496Y-3.1655
X4.4496Y-3.197
X4.4496Y-3.2285
X4.4516Y-3.4568
X4.4811Y-3.1655
X4.4811Y-3.197
X4.4811Y-3.2285
X4.4819Y-3.4152
X4.491Y-3.4568
X4.5126Y-3.197
X4.5126Y-3.2285
X4.5126Y-3.26
X4.516Y-3.1604
X4.5203Y-3.3256
X4.5203Y-3.364
X4.5203Y-3.4024
X4.5304Y-3.4568
X4.5441Y-3.197
X4.5441Y-3.2285
X4.5441Y-3.26
X4.546Y-3.1604
X4.581Y-3.1604
X4.581Y-3.1919
X4.581Y-3.2234
X4.581Y-3.2589
X4.5864Y-3.3605
X4.5864Y-3.5121
X4.5883Y-3.3979
X4.5883Y-3.4353
X4.5883Y-3.4727
X4.5883Y-3.5495
X4.5883Y-3.5869
X4.5883Y-3.6243
X4.608Y-3.3802
X4.608Y-3.4157
X4.608Y-3.455
X4.608Y-3.5318
X4.608Y-3.5672
X4.608Y-3.6066
X4.6125Y-3.1604
X4.6125Y-3.1919
X4.6125Y-3.2234
X4.6125Y-3.2589
X4.673Y-3.394
X4.673Y-3.4373
X4.673Y-3.4786
X4.673Y-3.5082
X4.673Y-3.5495
X4.673Y-3.5928
X4.7202Y-3.394
X4.7202Y-3.5928
X4.7467Y-3.3692
X4.7586Y-4.2587
X4.7714Y-3.1692
X4.7783Y-4.0854
X4.8157Y-4.0854
X4.8378Y-3.6626
X4.8383Y-4.1642
X4.8403Y-4.2035
X4.8423Y-4.2429
X4.8501Y-3.1692
X4.8501Y-4.3217
X4.8501Y-4.3492
X4.8501Y-4.3768
X4.8526Y-3.5717
X4.8777Y-4.3217
X4.8777Y-4.3492
X4.8777Y-4.3768
X4.8915Y-4.2016
X4.8959Y-3.9122
X4.9053Y-4.2311
X4.9053Y-4.2705
X4.9056Y-3.1864
X4.9072Y-3.624
X4.9092Y-4.3492
X4.9092Y-4.3768
X4.9156Y-3.8906
X4.9165Y-4.1692
X4.9165Y-4.2021
X4.9171Y-3.3807
X4.9171Y-3.4122
X4.9171Y-3.4393
X4.9171Y-3.4673
X4.9171Y-3.4988
X4.9171Y-3.5303
X4.9171Y-4.1524
X4.9171Y-4.1858
X4.9249Y-3.5653
X4.9269Y-3.2631
X4.9289Y-3.7779
X4.9289Y-3.8251
X4.9289Y-4.2508
X4.9333Y-3.9102
X4.9364Y-4.0293
X4.9368Y-4.3492
X4.9368Y-4.3768
X4.951Y-3.8906
X4.9525Y-3.3236
X4.9564Y-3.5653
X4.9643Y-4.1622
X4.9643Y-4.1917
X4.9643Y-4.235
X4.9643Y-4.2665
X4.9707Y-3.9102
X4.9722Y-3.8251
X4.9781Y-3.1642
X4.9879Y-3.3231
X4.9879Y-3.5651
X4.9904Y-3.8906
X4.9919Y-4.1622
X4.9919Y-4.1917
X4.9919Y-4.235
X4.9919Y-4.2665
X4.9958Y-3.1917
X5.0081Y-3.9102
X5.0124Y-4.9398
X5.0124Y-4.9949
X5.0124Y-5.05
X5.0135Y-3.8251
X5.0155Y-3.1642
X5.0194Y-3.5653
X5.0194Y-4.1642
X5.0194Y-4.1937
X5.0194Y-4.237
X5.0194Y-4.2685
X5.0234Y-4.3394
X5.0234Y-4.3925
X5.0252Y-3.323
X5.0352Y-3.1917
X5.04Y-4.9122
X5.04Y-4.9673
X5.04Y-5.0224
X5.04Y-5.1327
X5.047Y-3.8251
X5.0509Y-3.5653
X5.0509Y-3.9161
X5.0529Y-3.1642
X5.0549Y-4.3157
X5.0549Y-4.365
X5.0652Y-3.2646
X5.0667Y-3.3231
X5.0675Y-4.9398
X5.0675Y-4.9949
X5.0675Y-5.05
X5.0706Y-3.1917
X5.0706Y-3.8886
X5.0745Y-4.3394
X5.0745Y-4.3925
X5.0824Y-3.5653
X5.0883Y-3.8251
X5.0883Y-3.9142
X5.0903Y-3.1642
X5.0903Y-4.1858
X5.0903Y-4.2252
X5.0903Y-4.2646
X5.0942Y-4.3157
X5.0942Y-4.365
X5.0951Y-4.9122
X5.0951Y-4.9673
X5.0951Y-5.0224
X5.0951Y-5.1327
X5.0982Y-3.3231
X5.106Y-3.8886
X5.1139Y-3.5653
X5.1139Y-4.2055
X5.1139Y-4.2449
X5.1139Y-4.2843
X5.1139Y-4.3394
X5.1139Y-4.3925
X5.1257Y-3.9142
X5.1316Y-3.7779
X5.1316Y-3.8251
X5.1434Y-3.3231
X5.1454Y-3.8886
X5.1479Y-3.6539
X5.1479Y-3.7232
X5.1512Y-3.4831
X5.1512Y-3.5067
X5.1512Y-3.5382
X5.1513Y-3.365
X5.1513Y-3.3965
X5.1513Y-3.4275
X5.1513Y-3.4516
X5.1513Y-3.5653
X5.1631Y-3.9142
X5.1656Y-3.7232
X5.1758Y-3.6376
X5.1853Y-3.7232
X5.1897Y-3.1876
X5.1936Y-4.2085
X5.1936Y-4.2478
X5.1936Y-4.2872
X5.1936Y-4.3266
X5.1936Y-4.3659
X5.2123Y-4.5372
X5.2123Y-4.5766
X5.2123Y-4.6159
X5.2168Y-3.5126
X5.2224Y-3.552
X5.233Y-4.2085
X5.233Y-4.2478
X5.233Y-4.2872
X5.233Y-4.3266
X5.233Y-4.3659
X5.2517Y-4.5372
X5.2517Y-4.5766
X5.2517Y-4.6159
X5.2724Y-4.2085
X5.2724Y-4.2478
X5.2724Y-4.2872
X5.2724Y-4.3266
X5.2724Y-4.3659
X5.2911Y-4.5372
X5.2911Y-4.5766
X5.2911Y-4.6159
X5.3068Y-3.5167
X5.3078Y-3.5522
X5.3108Y-3.2826
X5.3108Y-3.318
X5.3108Y-3.3574
X5.3118Y-4.2085
X5.3118Y-4.2478
X5.3118Y-4.2872
X5.3118Y-4.3266
X5.3118Y-4.3659
X5.3305Y-4.5372
X5.3305Y-4.5766
X5.3305Y-4.6159
X5.3492Y-3.5618
X5.3511Y-4.2085
X5.3511Y-4.2478
X5.3511Y-4.2872
X5.3511Y-4.3266
X5.3511Y-4.3659
X5.3698Y-4.5372
X5.3698Y-4.5766
X5.3698Y-4.6159
X5.3797Y-3.3763
X5.3868Y-3.5618
X5.3905Y-4.2085
X5.3905Y-4.2478
X5.3905Y-4.2872
X5.3905Y-4.3266
X5.3905Y-4.3659
X5.4092Y-4.5372
X5.4092Y-4.5766
X5.4092Y-4.6159
X5.4244Y-3.5618
X5.4269Y-3.3763
X5.4269Y-3.4196
X5.4269Y-3.4609
X5.4299Y-4.2085
X5.4299Y-4.2478
X5.4299Y-4.2872
X5.4299Y-4.3266
X5.4299Y-4.3659
X5.4299Y-4.4053
X5.4299Y-4.4447
X5.4299Y-4.4841
X5.4614Y-3.5618
X5.4692Y-4.2085
X5.4692Y-4.2478
X5.4692Y-4.2872
X5.4692Y-4.3266
X5.4692Y-4.3659
X5.4692Y-4.4053
X5.4692Y-4.4447
X5.4692Y-4.4841
T4
X2.6474Y-3.4191
X2.6474Y-3.4585
X2.6474Y-3.4978
X2.6986Y-3.4191
X2.6986Y-3.4585
X2.6986Y-3.4978
X3.51Y-3.4191
X3.51Y-3.4585
X3.51Y-3.4978
X3.5612Y-3.4191
X3.5612Y-3.4585
X3.5612Y-3.4978
X4.9564Y-3.3512
X4.9564Y-3.3974
X4.9564Y-3.4437
X4.9564Y-3.49
X4.9564Y-3.5362
X4.9958Y-3.3512
X4.9958Y-3.3974
X4.9958Y-3.4437
X4.9958Y-3.49
X4.9958Y-3.5362
X5.0352Y-3.3512
X5.0352Y-3.3974
X5.0352Y-3.4437
X5.0352Y-3.49
X5.0352Y-3.5362
X5.0745Y-3.3512
X5.0745Y-3.3974
X5.0745Y-3.4437
X5.0745Y-3.49
X5.0745Y-3.5362
X5.1139Y-3.3512
X5.1139Y-3.3974
X5.1139Y-3.4437
X5.1139Y-3.49
X5.1139Y-3.5362
T5
X2.4652Y-4.5096
X2.4722Y-4.6012
X2.4731Y-4.6533
X2.5262Y-4.6553
X2.5509Y-4.5854
X2.5518Y-4.5037
X2.5734Y-4.6553
X2.6207Y-4.5096
X2.6227Y-4.6553
X2.6264Y-3.2021
X2.6264Y-3.2848
X2.6306Y-4.5539
X2.6306Y-4.6012
X2.633Y-3.6885
X2.633Y-3.7435
X2.636Y-3.8504
X2.776Y-3.8504
X2.776Y-3.9304
X2.788Y-3.6885
X2.788Y-3.7435
X2.856Y-3.9304
X2.888Y-3.6185
X2.888Y-3.6835
X2.936Y-3.9304
X2.948Y-3.6185
X2.948Y-3.6835
X2.976Y-4.8167
X2.976Y-5.1474
X3.016Y-3.9304
X3.038Y-4.8167
X3.083Y-3.7454
X3.0971Y-4.8167
X3.138Y-3.7435
X3.1561Y-4.8167
X3.183Y-3.7435
X3.2152Y-4.8167
X3.3136Y-4.9303
X3.3727Y-4.9303
X3.4319Y-4.9382
X3.4664Y-3.2071
X3.4664Y-3.2898
X3.4822Y-3.9076
X3.4839Y-3.8502
X3.4908Y-4.9244
X3.5498Y-4.9303
X3.6091Y-4.9264
X3.623Y-3.6935
X3.623Y-3.7435
X3.6374Y-3.863
X3.6679Y-4.9284
X3.678Y-3.6935
X3.678Y-3.7435
X3.727Y-4.8167
X3.738Y-3.6685
X3.7664Y-5.1474
X3.786Y-4.8167
X3.791Y-3.9014
X3.798Y-3.5635
X3.798Y-3.6135
X3.798Y-3.6685
X3.8451Y-4.8167
X3.893Y-3.5485
X3.903Y-3.7135
X3.9041Y-4.9781
X3.9317Y-3.799
X3.9632Y-4.9254
X3.973Y-3.5485
X4.0223Y-4.9254
X4.078Y-3.6235
X4.0813Y-4.9254
X4.1404Y-4.9254
X4.1518Y-3.8757
X4.1994Y-4.9304
X4.2522Y-3.7812
X4.2585Y-4.9304
X4.3372Y-4.9304
X4.3372Y-5.1474
X4.4096Y-3.8757
X4.5341Y-4.8167
X4.5341Y-5.1474
X4.6966Y-4.4909
X4.6966Y-4.5697
X4.6966Y-4.7035
X4.7301Y-5.0185
X4.7309Y-4.8167
X4.7309Y-5.1474
X4.7675Y-4.7035
X4.7703Y-4.986
X4.799Y-4.5697
X4.8305Y-5.1602
X4.8462Y-4.7035
X4.8462Y-4.9791
X4.9278Y-4.9173
X4.9278Y-5.1484
X5.1719Y-4.7449
X5.1719Y-4.8187
X5.1719Y-4.8974
X5.1719Y-5.0943
X5.2506Y-4.7449
X5.2506Y-4.8187
X5.2506Y-4.8974
X5.2506Y-5.0943
X5.3293Y-4.7449
X5.3293Y-4.8187
X5.4081Y-4.7449
X5.4081Y-4.8187
T6
X2.3744Y-4.0151
X2.3744Y-4.0545
X2.4138Y-4.0151
X2.4138Y-4.0545
X2.4531Y-4.0151
X2.4531Y-4.0545
X2.4925Y-4.0151
X2.4925Y-4.0545
X2.5319Y-4.0151
X2.5319Y-4.0545
T7
X2.4238Y-3.2104
X2.4238Y-5.0608
X5.416Y-3.2104
X5.416Y-5.0608
T0
M30
